<svg width="24" height="24" version="1.1" viewBox="0 0 24 24" xmlns="http://www.w3.org/2000/svg"><path d="m20.965 16.141c1.3785-.0016 1.3785-2.0686-1e-6-2.0703h-4.6858v2.0703zm-4.1407 1.5528v-11.387c0-.28585-.23174-.51758-.51758-.51758l-1.0352 3e-7c-.28585 0-.51758.23174-.51758.51758v.51758l-1.0352-1e-7c-2.4596.000377-4.5797 1.7309-5.0724 4.1407l-6.6463 1e-6 2e-7 2.0703h6.6463c.49279 2.4097 2.6126 4.1404 5.0724 4.1407h1.0352v.51758c0 .28585.23174.51758.51758.51758l1.0352 1e-6c.28585 0 .51758-.23174.51758-.51758zm4.1407-7.7638c1.3802 2e-7 1.3802-2.0703 0-2.0703h-4.6858v2.0703z" style="fill:#00ff00;stroke-width:.032349"/></svg>
