<svg width="24" height="24" version="1.1" viewBox="0 0 24 24" xmlns="http://www.w3.org/2000/svg"><!-- Font Awesome Free 5.15 by @fontawesome - https://fontawesome.com License - https://fontawesome.com/license/free (Icons: CC BY 4.0) - This icon is remixed from the original --><g transform="matrix(0 -1.329 1.329 0 -9.3967 23.099)" fill="#00ff00" style="fill:#00ff00"><path d="m13.498 10.046v1.4704h.7352v1.4704h-.7352v1.4704h-11.028v-4.4112zm.3676-1.4704h-11.763c-.60907 0-1.1028.49373-1.1028 1.1028v5.1464c0 .60907.49373 1.1028 1.1028 1.1028h11.763c.60907 0 1.1028-.49373 1.1028-1.1028v-.3676h.1838c.30453 0 .5514-.24687.5514-.5514v-3.3084c0-.30453-.24687-.5514-.5514-.5514h-.1838v-.3676c0-.60907-.49373-1.1028-1.1028-1.1028z" stroke-width=".022975" style="fill:#00ff00"/><g stroke-width=".024055" style="fill:#00ff00"><path d="m6.3414 10.781h3.264v2.9408h-3.264z" fill-opacity=".60784" style="fill-opacity:1;fill:#00ff00;opacity:.5"/><path d="m3.0774 10.781h3.264v2.9408h-3.264z" style="fill:#00ff00"/><path d="m9.6053 10.781h3.264v2.9408h-3.264z" fill-opacity=".21569" style="fill-opacity:1;fill:#00ff00;opacity:.25"/></g></g><path d="m20.543 8.4211c-.0011-.97034-1.4561-.97034-1.4573 0v3.2983h1.4573zm1.093 2.9146h-8.0152c-.20121 0-.36432.16312-.36432.36432v.72865c0 .20121.16312.36432.36432.36432h.36432v.72865c.000265 1.7313 1.2184 3.2236 2.9146 3.5704v4.6783h1.4573v-4.6783c1.6962-.34687 2.9144-1.839 2.9146-3.5704v-.72865h.36432c.20121 0 .36432-.16312.36432-.36432v-.72865c0-.20121-.16312-.36432-.36432-.36432zm-5.4649-2.9146c0-.97153-1.4573-.97153-1.4573 0v3.2983h1.4573z" style="fill:#00ff00;stroke-width:.02277"/></svg>
