<svg width="24" height="24" version="1.1" viewBox="0 0 24 24" xmlns="http://www.w3.org/2000/svg">
  <g transform="translate(.14336 -.2516)" fill="#00ff00" style="fill:#00ff00">
    <path d="m13.498 10.046v1.4704h.7352v1.4704h-.7352v1.4704h-11.028v-4.4112zm.3676-1.4704h-11.763c-.60907 0-1.1028.49373-1.1028 1.1028v5.1464c0 .60907.49373 1.1028 1.1028 1.1028h11.763c.60907 0 1.1028-.49373 1.1028-1.1028v-.3676h.1838c.30453 0 .5514-.24687.5514-.5514v-3.3084c0-.30453-.24687-.5514-.5514-.5514h-.1838v-.3676c0-.60907-.49373-1.1028-1.1028-1.1028z" stroke-width=".022975" style="fill:#00ff00"/>
    <g stroke-width=".024055" style="fill:#00ff00">
      <path d="m6.3414 10.781h3.264v2.9408h-3.264z" fill-opacity=".60784" style="fill-opacity:1;fill:#00ff00;opacity:.5"/>
      <path d="m3.0774 10.781h3.264v2.9408h-3.264z" style="fill:#00ff00"/>
      <path d="m9.6053 10.781h3.264v2.9408h-3.264z" fill-opacity=".21569" style="fill-opacity:1;fill:#00ff00;opacity:.25"/>
    </g>
  </g>
  <path d="m21.79 7.3794c-.00087-.71052-1.0662-.71052-1.0671 0v2.4151h1.0671zm.80031 2.1342h-5.869c-.14733 0-.26677.11944-.26677.26677v.53354c0 .14733.11944.26677.26677.26677h.26677v.53354c.000195 1.2677.89216 2.3604 2.1342 2.6144v3.4256h1.0671v-3.4256c1.242-.25399 2.134-1.3466 2.1342-2.6144v-.53354h.26677c.14733 0 .26677-.11944.26677-.26677v-.53354c0-.14733-.11944-.26677-.26677-.26677zm-4.0016-2.1342c0-.71139-1.0671-.71139-1.0671 0v2.4151h1.0671z" style="fill:#00ff00;stroke-width:.016673"/>
</svg>
