<svg height="24" viewBox="0 0 24 24" width="24" xmlns="http://www.w3.org/2000/svg"><!-- Font Awesome Free 5.15 by @fontawesome - https://fontawesome.com License - https://fontawesome.com/license/free (Icons: CC BY 4.0) - This icon is remixed from the original --><path d="m19.7 8.7v2.2h1.1v2.2h-1.1v2.2h-16.5v-6.6zm.55-2.2h-17.6c-.91128 0-1.65.73872-1.65 1.65v7.7c0 .91128.73872 1.65 1.65 1.65h17.6c.91128 0 1.65-.73871 1.65-1.65v-.55h.275c.45564 0 .825-.36936.825-.825v-4.95c0-.45564-.36936-.825-.825-.825h-.275v-.55c0-.91128-.73872-1.65-1.65-1.65zm-8.0647 3.3h-7.8853v4.4h7.8853z" fill="#00ff00" stroke-width=".034375"/></svg>
