<svg width="24" height="24" version="1.1" viewBox="0 0 24 24" xmlns="http://www.w3.org/2000/svg">
  <path d="m12 1c-6.0766 0-11 4.9234-11 11 0 6.0766 4.9234 11 11 11 6.0766 0 11-4.9234 11-11 0-6.0766-4.9234-11-11-11zm0 2.129c2.0812 0 3.9942.71616 5.5069 1.9151l-12.463 12.463c-1.199-1.5127-1.9151-3.4257-1.9151-5.5069 0-4.9012 3.9698-8.871 8.871-8.871zm6.9558 3.364c1.199 1.5127 1.9151 3.4257 1.9151 5.5069 0 4.9012-3.9698 8.871-8.871 8.871-2.0812 0-3.9942-.71616-5.5069-1.9151z" style="fill:#00ff00;stroke-width:.044355"/>
</svg>
