<svg height="24" viewBox="0 0 24 24" width="24" xmlns="http://www.w3.org/2000/svg"><!-- Font Awesome Free 5.15 by @fontawesome - https://fontawesome.com License - https://fontawesome.com/license/free (Icons: CC BY 4.0) - This icon is remixed from the original --><path fill="#008000" d="m2.3684 2.6809v14.291h3.8438v-10.912h11.029v-3.3791z"/><path fill="#00FF00" d="m20.937 22.999h-13.75c-1.1396 0-2.063-.9234-2.063-2.0625v-2.062h-2.0625c-1.1391 0-2.0625-.924-2.0625-2.063v-13.75c0-1.139.9234-2.062 2.0625-2.062h13.75c1.1391 0 2.0625.9234 2.0625 2.0625v2.063h2.0625c1.141 0 2.064.923 2.064 2.063v13.75c0 1.1386-.923 2.062-2.062 2.062zm-4.383-19.938h-13.235a.25781.25781 0 0 0 -.2575.258v13.235a.25781.25781 0 0 0 .2578.257h1.8047v-9.625c0-1.1391.9234-2.0625 2.0625-2.0625h9.625v-1.8047a.25781.25781 0 0 0 -.257-.2578zm4.125 4.125h-13.235a.25781.25781 0 0 0 -.2575.258v13.235a.25781.25781 0 0 0 .2578.2575h13.235a.25781.25781 0 0 0 .258-.2578v-13.234a.25781.25781 0 0 0 -.258-.2576z" stroke-width=".042969"/></svg>
