<svg height="24" viewBox="0 0 24 24" width="24" xmlns="http://www.w3.org/2000/svg"><!-- Font Awesome Free 5.15 by @fontawesome - https://fontawesome.com License - https://fontawesome.com/license/free (Icons: CC BY 4.0) - This icon is remixed from the original --><path d="m19.576 16.545-4.5458-4.5458 4.5455-4.5455c.55776-.55777.55755-1.4627.000353-2.0199l-1.0105-1.0105c-.5572-.5572-1.4622-.55755-2.02.0002122l-4.5455 4.5455-4.5455-4.5455c-.55777-.55777-1.4628-.55741-2.02-.0002122l-1.0101 1.0101c-.55777.55777-.55777 1.4624 0 2.0202l4.5454 4.5454-4.5454 4.5454c-.55854.55868-.5584 1.4639-.0012 2.0211l1.0101 1.0101c.55776.55776 1.4624.55776 2.0202 0l4.5454-4.5454 4.5454 4.5454c.56003.5572 1.4651.5572 2.0223 0l1.0105-1.0105c.5572-.5572.55713-1.4622-.000071-2.0194z" fill="#00ff00" stroke-width=".04464"/></svg>
