<svg height="24" viewBox="0 0 24 24" width="24" xmlns="http://www.w3.org/2000/svg"><!-- Font Awesome Free 5.15 by @fontawesome - https://fontawesome.com License - https://fontawesome.com/license/free (Icons: CC BY 4.0) - This icon is remixed from the original --><path fill="#00FF00" d="m2.375 4.6094v-1.2032c0-.5714.4598-1.0312 1.0312-1.0312h4.8125l.404-.8035c.1718-.3524.5285-.5715.9195-.5715h4.9113c.39102 0 .74766.21914.92383.57149l.403.8035h4.8125c.57148 0 1.0312.45976 1.0312 1.0312v1.2031c0 .28359-.23203.51563-.51562.51563h-18.218c-.284.0001-.516-.2319-.516-.5155zm17.875 2.4062v13.922c0 1.138-.924 2.062-2.062 2.062h-12.376c-1.1382 0-2.062-.924-2.062-2.062v-13.922c0-.284.232-.516.5156-.516h15.469c.283 0 .515.232.515.5156zm-11.688 2.9219c0-.3781-.3094-.6875-.6875-.6875s-.6875.3094-.6875.6875v9.625c0 .37812.30938.6875.6875.6875s.6875-.30938.6875-.6875zm4.125 0c0-.3781-.31-.6875-.688-.6875-.37812 0-.6875.30937-.6875.6875v9.625c0 .37812.30938.6875.6875.6875s.6875-.30938.6875-.6875zm4.125 0c0-.37813-.30938-.6875-.6875-.6875s-.6875.30937-.6875.6875v9.625c0 .37812.30938.6875.6875.6875s.6875-.30938.6875-.6875z" stroke-width=".042969"/></svg>
