<svg height="40" viewBox="0 0 40 40" width="40" xmlns="http://www.w3.org/2000/svg"><linearGradient gradientUnits="userSpaceOnUse" x1="47.922" x2="221.9" y1="923.41" y2="923.41"><stop offset="0" stop-color="#ff0000"/><stop offset=".25" stop-color="#ffff00"/><stop offset=".5" stop-color="#00ffff"/><stop offset=".75" stop-color="#0000ff"/><stop offset="1" stop-color="#ff00ff"/></linearGradient><g stroke="#00ff00" stroke-linecap="round" stroke-linejoin="round" transform="matrix(2.17768005 0 0 2.17768005 -101.4828855 -2100.885295)"><path d="m63.908 969.05-16.248-.0212.01187 9.8361h16.24v-9.8193" fill="none" stroke-width="1.1982"/><g fill="#00ff00" stroke-miterlimit="0" stroke-width="7.9674" transform="matrix(.091753 0 0 .091753 43.481 885.1)"><g stroke-width="8.7058"><g><rect height="9.5964" rx="1.8367" ry="1.8014" width="9.5964" x="65.7932" y="935.93158"/><rect height="9.5964" rx="1.8367" ry="1.8014" width="9.5964" x="91.2082" y="935.93258"/><rect height="9.5964" rx="1.8367" ry="1.8014" width="9.5964" x="116.6232" y="935.93258"/><rect height="9.5964" rx="1.8367" ry="1.8014" width="9.5964" x="142.0382" y="935.93258"/><rect height="9.5964" rx="1.8367" ry="1.8014" width="9.5964" x="167.4522" y="935.93158"/><rect height="9.5964" rx="1.8367" ry="1.8014" width="9.5964" x="192.8722" y="935.93158"/></g><g><rect height="9.5964" rx="1.8367" ry="1.8014" width="9.5964" x="65.7932" y="962.017"/><rect height="9.5964" rx="1.8367" ry="1.8014" width="9.5964" x="91.2082" y="962.018"/><rect height="9.5964" rx="1.8367" ry="1.8014" width="9.5964" x="116.6232" y="962.018"/><rect height="9.5964" rx="1.8367" ry="1.8014" width="9.5964" x="142.0382" y="962.018"/><rect height="9.5964" rx="1.8367" ry="1.8014" width="9.5964" x="167.4522" y="962.017"/><rect height="9.5964" rx="1.8367" ry="1.8014" width="9.5964" x="192.8722" y="962.017"/></g><g><rect height="9.5964" rx="1.8367" ry="1.8014" width="9.5964" x="65.7932" y="990.843"/><rect height="9.5964" rx="1.8367" ry="1.8014" width="9.5964" x="91.2082" y="990.844"/><rect height="9.5964" rx="1.8367" ry="1.8014" width="9.5964" x="116.6232" y="990.844"/><rect height="9.5964" rx="1.8367" ry="1.8014" width="9.5964" x="142.0382" y="990.844"/><rect height="9.5964" rx="1.8367" ry="1.8014" width="9.5964" x="167.4522" y="990.843"/><rect height="9.5964" rx="1.8367" ry="1.8014" width="9.5964" x="192.8722" y="990.843"/></g></g><rect height="9.5964" rx="1.8367" ry="1.8014" stroke-width="7.5956" transform="matrix(1.413 0 0 1.125 43.668372 -45.12625)" width="59.132" x="34.382" y="920.28"/></g></g></svg>