<svg height="24" viewBox="0 0 24 24" width="24" xmlns="http://www.w3.org/2000/svg"><path d="m1.6143448 1040.5335c1.746093-1.4958 3.5828853-2.1966 5.4473057-3.4217.7860408-.5163 1.7667795-.7076 2.5949356-1.0941 2.9881979-2.2351 2.6049579-.8266 5.2364469-1.1854.441594-.076.863754-.5023 1.302345-.6034.411459-.096.754177.06 1.170005 0 1.170992-.1489 2.113198-1.4102 3.249383-1.0095.774776.8945 1.480837.758 2.007913.972.290152.3418.529616.8697.511521 1.3809-.0144.407-.216203.8371-.483103 1.0449-.717757.5589-1.725756-.2571-2.500767.1489-.349279.1829-.674019.5357-.852535.9703-.136083.3314-.256543.7932-.113676 1.1195.368224.8414.450025.3509.966206 1.0452.255595.3438.357104 1.0634.415087 1.5377.05715.4675.354953 2.2498.000003 2.3328-.05381.018-.788708.1272-.838408.08-.3915-.3619-.394576-3.3101-.486049-2.8322-.101116.5282-.612878 1.8589-1.025691 2.6591-.11588.1159-.965952-.292-1.008374-.3201-.182352-.1202.495018-1.9186.822047-2.9301-2.781127.6979-1.560346.504-4.422277-.201-.282564 0-.582017.07-.824116.2613-.465676.3684-.657903 1.155-1.079878 1.6048-.431419.4601-.938796.7938-1.449308 1.0823-.4184069.2365-.8982577.2591-1.3072197.5224-.5002898.3223-.9494791.78-1.3640552 1.2689-.4044711.4771-1.0029979.8982-1.079877 1.6048-.025167.2315.3152943.4313.2273426.6345-.1928609.4453-.876166.4933-1.1651304.1489-.2104311-.2509-.051424-.7527 0-1.1198.038527-.275.1371301-.5304.2273425-.7838.1887051-.5295.3566398-1.0941.6536097-1.5301.411959-.6045 1.0239254-.911 1.5061442-1.4182.3665962-.3854.7622284-.7456 1.0514589-1.2315.6066215-1.2969-.013087-.5285-.7104451.2613-.6384198.4831-1.5119473.027-2.1881719.4105-.3896766.2213-.6197639.783-.9946234 1.045-.2803879.1956-.5924435.3464-.9093702.3732-.1631898.018-.3397337-.018-.4831028-.1117-.1351803-.097-.338395-.2481-.312596-.4477.073751-.5706.8178881-.4646 1.1651305-.821.3222868-.3309.4716679-.9216.8241166-1.1943.6789961-.5256 1.5994178-.2398 2.3018431-.7092.4010821-.2681.7662396-.6714 1.0230414-1.1566.1556469-.2943.5554283-1.0454.2841778-1.0078-.748612.1035-1.544692.4306-2.3018428.8956-1.1627574.714-2.2955467 1.5094-3.4385556 2.2765-.5319601.357-1.0109793.8968-1.5913977 1.0825-.2392904.077-.579058.2461-.73886333 0-.1556306-.2399.00185-.6545.11367173-.9332.1217891-.3033.5683715-1.0515.5683563-.7085z" fill="#00ff00" fill-rule="evenodd" stroke="#000000" stroke-width=".729485" transform="translate(0 -1028.3622)"/></svg>