<?xml version="1.0" encoding="UTF-8" standalone="no"?>
<!-- Created with Inkscape (http://www.inkscape.org/) -->

<svg
   xmlns:dc="http://purl.org/dc/elements/1.1/"
   xmlns:cc="http://creativecommons.org/ns#"
   xmlns:rdf="http://www.w3.org/1999/02/22-rdf-syntax-ns#"
   xmlns:svg="http://www.w3.org/2000/svg"
   xmlns="http://www.w3.org/2000/svg"
   xmlns:sodipodi="http://sodipodi.sourceforge.net/DTD/sodipodi-0.dtd"
   xmlns:inkscape="http://www.inkscape.org/namespaces/inkscape"
   width="24"
   height="24"
   viewBox="0 0 24 24"
   id="svg2"
   version="1.1"
   inkscape:version="0.92.4 (unknown)"
   sodipodi:docname="dpi-fast.svg">
  <defs
     id="defs4">
    <linearGradient
       id="linearGradient5716">
      <stop
         style="stop-color:#000000;stop-opacity:1;"
         offset="0"
         id="stop5718" />
      <stop
         style="stop-color:#484848;stop-opacity:1;"
         offset="1"
         id="stop5720" />
    </linearGradient>
  </defs>
  <sodipodi:namedview
     id="base"
     pagecolor="#ffffff"
     bordercolor="#666666"
     borderopacity="1.0"
     inkscape:pageopacity="0.0"
     inkscape:pageshadow="2"
     inkscape:zoom="16"
     inkscape:cx="8.6132497"
     inkscape:cy="18.435339"
     inkscape:document-units="px"
     inkscape:current-layer="g819"
     showgrid="false"
     units="px"
     inkscape:window-width="1920"
     inkscape:window-height="1004"
     inkscape:window-x="0"
     inkscape:window-y="24"
     inkscape:window-maximized="1" />
  <metadata
     id="metadata7">
    <rdf:RDF>
      <cc:Work
         rdf:about="">
        <dc:format>image/svg+xml</dc:format>
        <dc:type
           rdf:resource="http://purl.org/dc/dcmitype/StillImage" />
        <dc:title></dc:title>
      </cc:Work>
    </rdf:RDF>
  </metadata>
  <g
     inkscape:label="Layer 1"
     inkscape:groupmode="layer"
     id="layer1"
     transform="translate(0,-1028.3622)">
    <g
       id="g819">
      <path
         sodipodi:nodetypes="csccssccssssssccsscsccssssssssssssccssssssssssssssssc"
         inkscape:connector-curvature="0"
         id="path10368"
         d="m 1.6143448,1040.5335 c 1.746093,-1.4958 3.5828853,-2.1966 5.4473057,-3.4217 0.7860408,-0.5163 1.7667795,-0.7076 2.5949356,-1.0941 2.9881979,-2.2351 2.6049579,-0.8266 5.2364469,-1.1854 0.441594,-0.076 0.863754,-0.5023 1.302345,-0.6034 0.411459,-0.096 0.754177,0.06 1.170005,0 1.170992,-0.1489 2.113198,-1.4102 3.249383,-1.0095 0.774776,0.8945 1.480837,0.758 2.007913,0.972 0.290152,0.3418 0.529616,0.8697 0.511521,1.3809 -0.0144,0.407 -0.216203,0.8371 -0.483103,1.0449 -0.717757,0.5589 -1.725756,-0.2571 -2.500767,0.1489 -0.349279,0.1829 -0.674019,0.5357 -0.852535,0.9703 -0.136083,0.3314 -0.256543,0.7932 -0.113676,1.1195 0.368224,0.8414 0.450025,0.3509 0.966206,1.0452 0.255595,0.3438 0.357104,1.0634 0.415087,1.5377 0.05715,0.4675 0.354953,2.2498 3e-6,2.3328 -0.05381,0.018 -0.788708,0.1272 -0.838408,0.08 -0.3915,-0.3619 -0.394576,-3.3101 -0.486049,-2.8322 -0.101116,0.5282 -0.612878,1.8589 -1.025691,2.6591 -0.11588,0.1159 -0.965952,-0.292 -1.008374,-0.3201 -0.182352,-0.1202 0.495018,-1.9186 0.822047,-2.9301 -2.781127,0.6979 -1.560346,0.504 -4.422277,-0.201 -0.282564,0 -0.582017,0.07 -0.824116,0.2613 -0.465676,0.3684 -0.657903,1.155 -1.079878,1.6048 -0.431419,0.4601 -0.938796,0.7938 -1.449308,1.0823 -0.4184069,0.2365 -0.8982577,0.2591 -1.3072197,0.5224 -0.5002898,0.3223 -0.9494791,0.78 -1.3640552,1.2689 -0.4044711,0.4771 -1.0029979,0.8982 -1.079877,1.6048 -0.025167,0.2315 0.3152943,0.4313 0.2273426,0.6345 -0.1928609,0.4453 -0.876166,0.4933 -1.1651304,0.1489 -0.2104311,-0.2509 -0.051424,-0.7527 0,-1.1198 0.038527,-0.275 0.1371301,-0.5304 0.2273425,-0.7838 0.1887051,-0.5295 0.3566398,-1.0941 0.6536097,-1.5301 0.411959,-0.6045 1.0239254,-0.911 1.5061442,-1.4182 0.3665962,-0.3854 0.7622284,-0.7456 1.0514589,-1.2315 0.6066215,-1.2969 -0.013087,-0.5285 -0.7104451,0.2613 -0.6384198,0.4831 -1.5119473,0.027 -2.1881719,0.4105 -0.3896766,0.2213 -0.6197639,0.783 -0.9946234,1.045 -0.2803879,0.1956 -0.5924435,0.3464 -0.9093702,0.3732 -0.1631898,0.018 -0.3397337,-0.018 -0.4831028,-0.1117 -0.1351803,-0.097 -0.338395,-0.2481 -0.312596,-0.4477 0.073751,-0.5706 0.8178881,-0.4646 1.1651305,-0.821 0.3222868,-0.3309 0.4716679,-0.9216 0.8241166,-1.1943 0.6789961,-0.5256 1.5994178,-0.2398 2.3018431,-0.7092 0.4010821,-0.2681 0.7662396,-0.6714 1.0230414,-1.1566 0.1556469,-0.2943 0.5554283,-1.0454 0.2841778,-1.0078 -0.748612,0.1035 -1.544692,0.4306 -2.3018428,0.8956 -1.1627574,0.714 -2.2955467,1.5094 -3.4385556,2.2765 -0.5319601,0.357 -1.0109793,0.8968 -1.5913977,1.0825 -0.2392904,0.077 -0.579058,0.2461 -0.73886333,0 -0.1556306,-0.2399 0.00185,-0.6545 0.11367173,-0.9332 0.1217891,-0.3033 0.5683715,-1.0515 0.5683563,-0.7085 z"
         style="fill:#00ff00;fill-opacity:1;fill-rule:evenodd;stroke:#000000;stroke-width:0.72948503;stroke-linecap:butt;stroke-linejoin:miter;stroke-miterlimit:4;stroke-dasharray:none;stroke-opacity:1" />
      <path
         sodipodi:nodetypes="cc"
         inkscape:connector-curvature="0"
         id="path10372"
         d="m 18.104678,1042.0013 -3.083682,-1.4254"
         style="fill:none;fill-rule:evenodd;stroke:#000000;stroke-width:0.5;stroke-linecap:butt;stroke-linejoin:miter;stroke-miterlimit:4;stroke-dasharray:none;stroke-opacity:1" />
    </g>
  </g>
</svg>
