<svg height="24" viewBox="0 0 24 24" width="24" xmlns="http://www.w3.org/2000/svg" xmlns:xlink="http://www.w3.org/1999/xlink"><linearGradient id="a" gradientUnits="userSpaceOnUse" x1="29.089951" x2="33.971455" y1="11.772627" y2="9.709365"><stop offset="0"/><stop offset="1" stop-color="#484848"/></linearGradient><g fill="none" stroke="#008000" stroke-linecap="round" stroke-linejoin="round"><path d="m.5.5h7.654321v7.654321h-7.654321z"/><path d="m8.172839.5h7.654321v7.654321h-7.654321z"/><path d="m15.845678.5h7.654321v7.654321h-7.654321z"/><path d="m.5 8.1728h7.654321v7.654321h-7.654321z"/><path d="m8.172839 8.1728h7.654321v7.654321h-7.654321z"/><path d="m15.845678 8.1728h7.654321v7.654321h-7.654321z"/><path d="m.5 15.8457h7.654321v7.654321h-7.654321z"/><path d="m8.172839 15.8457h7.654321v7.654321h-7.654321z"/><path d="m15.845678 15.8457h7.654321v7.654321h-7.654321z"/></g><path d="m26.604893 2.3179921v16.4402329l3.712311-3.623922 2.12132 4.331029c.519598 1.171377 3.220861.229524 2.452777-1.336875l-2.099224-4.496756h4.684582z" fill="url(#a)" stroke="#00ff00" stroke-miterlimit="10" transform="matrix(.9271261 0 0 .9271261 -16.509307 2.0024)"/></svg>