<svg height="40" viewBox="0 0 40 40" width="40" xmlns="http://www.w3.org/2000/svg"><!-- Font Awesome Free 5.15 by @fontawesome - https://fontawesome.com License - https://fontawesome.com/license/free (Icons: CC BY 4.0) - This icon is remixed from the original --><path d="m17.625 8.1251 1.1875-2.375 2.375-1.1875-2.375-1.1875-1.1875-2.375-1.1875 2.375-2.375 1.1875 2.375 1.1875zm-10.688 4.75 1.9786-3.9581 3.9589-1.9795-3.9589-1.9795-1.9786-3.9581-1.9786 3.9581-3.9589 1.9795 3.9589 1.9795zm26.125 9.5001-1.9786 3.9581-3.9589 1.9795 3.9589 1.9795 1.9786 3.9581 1.9786-3.9581 3.9589-1.9795-3.9589-1.9795zm5.2414-14.382-6.2975-6.2975c-.46312-.46462-1.071-.69618-1.6788-.69618-.60786 0-1.2157.23156-1.6796.69618l-26.953 26.953c-.92774.92774-.92774 2.4313 0 3.3584l6.2975 6.2975c.46386.46388 1.0717.69544 1.6788.69544.60785 0 1.2157-.23156 1.6796-.69544l26.953-26.953c.92774-.92626.92774-2.4306 0-3.3577zm-10.626 8.107-3.7784-3.7784 6.4274-6.4274 3.7784 3.7784z" fill="#00ff00" stroke-width=".07422"/></svg>
