<svg height="24" viewBox="0 0 24 24" width="24" xmlns="http://www.w3.org/2000/svg"><!-- Font Awesome Free 5.15 by @fontawesome - https://fontawesome.com License - https://fontawesome.com/license/free (Icons: CC BY 4.0) - This icon is remixed from the original --><path fill="#00FF00" d="m14.75 5.1252c1.1391 0 2.0626-.92343 2.0626-2.0626 0-1.1391-.92343-2.0626-2.0626-2.0626s-2.0626.92343-2.0626 2.0626c0 1.1391.92344 2.0626 2.0626 2.0626zm-6.8026 9.5167-.63596 1.4833h-2.8743c-.75929 0-1.3751.61577-1.3751 1.3751 0 .75929.61577 1.3751 1.3751 1.3751h3.3281c.82718 0 1.5719-.49158 1.8954-1.25l.37771-.88175-.45849-.27071c-.74425-.43959-1.2917-1.0902-1.6324-1.831zm11.615-4.0169h-1.892l-1.1198-2.2882c-.53713-1.0979-1.5233-1.9006-2.6547-2.1889l-3.0543-.90839c-1.2161-.2922-2.4824-.023634-3.4737.73651l-1.7046 1.3067c-.60288.46193-.71718 1.3248-.25438 1.9277s1.3252.71589 1.9277.25438l1.7055-1.3067c.32958-.2531.7494-.34376 1.0859-.26384l.63167.18778-1.6097 3.7552c-.54229 1.2668-.056291 2.7505 1.1301 3.451l3.6516 2.1558-1.1804 3.7698c-.22688.72448.17661 1.4958.90109 1.7227.13708.04297.27544.0636.41166.0636.58483 0 1.1271-.37685 1.3115-.96469l1.3596-4.3426c.25396-.8925-.12418-1.8512-.92988-2.3372l-2.6315-1.553 1.3454-3.3637.87101 1.7803c.34376.70214 1.0708 1.1555 1.8525 1.1555h2.32c.75929 0 1.3751-.61577 1.3751-1.3751 0-.75929-.61577-1.3746-1.3751-1.3746z" stroke-width=".04297"/></svg>
