<svg height="24" viewBox="0 0 24 24" width="24" xmlns="http://www.w3.org/2000/svg"><path d="m22.874 13.379-2.7662 4.742a2.4443 2.4443 0 0 1 -2.1114 1.2128h-15.277c-.70748 0-1.1483-.76743-.79181-1.3786l2.7662-4.742a2.4444 2.4444 0 0 1 2.1115-1.2128h15.276c.70748 0 1.1483.76745.79177 1.3786zm-16.068-2.601h12.527v-1.8336c0-1.0125-.8208-1.8333-1.8333-1.8333h-6.111l-2.4446-2.4444h-6.1111c-1.0125 0-1.8333.82079-1.8333 1.8333v10.62l2.6384-4.5229c.65454-1.1221 1.8682-1.8191 3.1672-1.8191z" fill="#00ff00" stroke-width=".038194"/></svg>