<svg height="24" viewBox="0 0 24 24" width="24" xmlns="http://www.w3.org/2000/svg"><path d="m1.6875 13.375c-.37812 0-.6875.30938-.6875.6875v1.375c0 .37812.30938.6875.6875.6875h4.8125v-2.75zm21.012-7.8633-4.2066-4.2109c-.19336-.19336-.45547-.30078-.73047-.30078h-.26211v5.5h5.5v-.26211c0-.2707-.10742-.53281-.30078-.72617zm-6.5742 1.332v-5.8438h-8.5938c-.57148 0-1.0312.45977-1.0312 1.0312v11.344h5.5v-2.8016c0-.61445.74336-.91953 1.1773-.48555l4.1078 4.1465c.28359.28789.28359.74766 0 1.0312l-4.1121 4.1422c-.43398.43398-1.1773.12891-1.1773-.48555v-2.7973h-5.4957v5.8438c0 .57148.45977 1.0312 1.0312 1.0312h14.438c.57148 0 1.0312-.45976 1.0312-1.0312v-14.094h-5.8438c-.56719 0-1.0312-.46406-1.0312-1.0312z" fill="#00ff00" stroke-width=".042969"/></svg>