<svg width="24" height="24" version="1.1" viewBox="0 0 24 24" xmlns="http://www.w3.org/2000/svg"><!-- Font Awesome Free 5.15 by @fontawesome - https://fontawesome.com License - https://fontawesome.com/license/free (Icons: CC BY 4.0) - This icon is remixed from the original --><path d="m19.562 10.625h-1.0312v-3.0938c0-3.6008-2.9305-6.5312-6.5312-6.5312-3.6008 0-6.5312 2.9305-6.5312 6.5312v3.0938h-1.0312c-1.1387 0-2.0625.92383-2.0625 2.0625v8.25c0 1.1387.92383 2.0625 2.0625 2.0625h15.125c1.1387 0 2.0625-.92383 2.0625-2.0625v-8.25c0-1.1387-.92383-2.0625-2.0625-2.0625zm-4.4688 0h-6.1875v-3.0938c0-1.7059 1.3879-3.0938 3.0938-3.0938s3.0938 1.3879 3.0938 3.0938z" style="fill:#00ff00;stroke-width:.042969"/></svg>
