<?xml version="1.0" encoding="UTF-8" standalone="no"?>
<!-- Created with Inkscape (http://www.inkscape.org/) -->

<svg
   xmlns:dc="http://purl.org/dc/elements/1.1/"
   xmlns:cc="http://creativecommons.org/ns#"
   xmlns:rdf="http://www.w3.org/1999/02/22-rdf-syntax-ns#"
   xmlns:svg="http://www.w3.org/2000/svg"
   xmlns="http://www.w3.org/2000/svg"
   xmlns:sodipodi="http://sodipodi.sourceforge.net/DTD/sodipodi-0.dtd"
   xmlns:inkscape="http://www.inkscape.org/namespaces/inkscape"
   width="24"
   height="24"
   viewBox="0 0 22.5 22.5"
   id="svg7196"
   version="1.1"
   inkscape:version="0.92.4 (unknown)"
   sodipodi:docname="macro-keys.svg">
  <defs
     id="defs7198" />
  <sodipodi:namedview
     id="base"
     pagecolor="#ffffff"
     bordercolor="#666666"
     borderopacity="1.0"
     inkscape:pageopacity="0.0"
     inkscape:pageshadow="2"
     inkscape:zoom="11.313708"
     inkscape:cx="10.492002"
     inkscape:cy="17.475986"
     inkscape:document-units="px"
     inkscape:current-layer="layer1"
     showgrid="false"
     fit-margin-top="0"
     fit-margin-left="0"
     fit-margin-right="0"
     fit-margin-bottom="0"
     inkscape:window-width="1920"
     inkscape:window-height="1004"
     inkscape:window-x="0"
     inkscape:window-y="24"
     inkscape:window-maximized="1"
     units="px" />
  <metadata
     id="metadata7201">
    <rdf:RDF>
      <cc:Work
         rdf:about="">
        <dc:format>image/svg+xml</dc:format>
        <dc:type
           rdf:resource="http://purl.org/dc/dcmitype/StillImage" />
        <dc:title></dc:title>
      </cc:Work>
    </rdf:RDF>
  </metadata>
  <g
     inkscape:label="Layer 1"
     inkscape:groupmode="layer"
     id="layer1"
     transform="translate(163.52232,-516.95595)">
    <path
       style="opacity:1;fill:#00ff00;fill-opacity:1;stroke:none;stroke-width:6.27240753;stroke-linecap:round;stroke-linejoin:round;stroke-miterlimit:4;stroke-dasharray:none;stroke-dashoffset:0;stroke-opacity:0.8830275"
       d="M 12 1 A 11 11 0 0 0 1 12 A 11 11 0 0 0 12 23 A 11 11 0 0 0 23 12 A 11 11 0 0 0 12 1 z M 10.322266 7.1269531 C 11.216637 7.1269531 11.895131 7.2456788 12.355469 7.4824219 C 12.815814 7.7060165 13.125372 8.0602332 13.283203 8.546875 C 13.441034 8.0470777 13.742271 7.6864853 14.189453 7.4628906 C 14.649798 7.2393031 15.341043 7.1269531 16.261719 7.1269531 C 17.090327 7.1269531 17.728592 7.2265446 18.175781 7.4238281 C 18.622971 7.6079632 18.930583 7.8964343 19.101562 8.2910156 C 19.285698 8.6855898 19.378906 9.2115122 19.378906 9.8691406 L 19.378906 16.873047 L 16.498047 16.873047 L 16.498047 10.263672 C 16.498047 9.8427865 16.472544 9.5479327 16.419922 9.3769531 C 16.3673 9.1928109 16.248581 9.0677096 16.064453 9.0019531 C 15.893474 8.9361753 15.590284 8.9023438 15.15625 8.9023438 C 14.616993 8.9023438 14.228938 8.9361753 13.992188 9.0019531 C 13.7686 9.0677309 13.617982 9.1928322 13.539062 9.3769531 C 13.473285 9.5479327 13.439453 9.8427865 13.439453 10.263672 L 13.439453 16.873047 L 10.560547 16.873047 L 10.560547 10.263672 C 10.560547 9.8427865 10.533091 9.5479327 10.480469 9.3769531 C 10.427847 9.1928109 10.309121 9.0677096 10.125 9.0019531 C 9.9540204 8.9361753 9.6527909 8.9023438 9.21875 8.9023438 C 8.6795002 8.9023438 8.2914377 8.9361753 8.0546875 9.0019531 C 7.8310928 9.0677309 7.6785214 9.1928322 7.5996094 9.3769531 C 7.5338316 9.5479327 7.5019531 9.8427865 7.5019531 10.263672 L 7.5019531 16.873047 L 4.6210938 16.873047 L 4.6210938 7.3242188 L 7.5019531 7.3242188 L 7.5019531 8.4882812 C 7.6860882 7.5807613 8.625583 7.1269531 10.322266 7.1269531 z "
       transform="matrix(0.9375,0,0,0.9375,-163.52232,516.95595)"
       id="path816" />
  </g>
</svg>
