<svg height="24" viewBox="0 0 22.5 22.5" width="24" xmlns="http://www.w3.org/2000/svg"><path d="m12 1a11 11 0 0 0 -11 11 11 11 0 0 0 11 11 11 11 0 0 0 11-11 11 11 0 0 0 -11-11zm-1.677734 6.1269531c.894371 0 1.572865.1187257 2.033203.3554688.460345.2235946.769903.5778113.927734 1.0644531.157831-.4997973.459068-.8603897.90625-1.0839844.460345-.2235875 1.15159-.3359375 2.072266-.3359375.828608 0 1.466873.0995915 1.914062.296875.44719.1841351.754802.4726062.925781.8671875.184136.3945742.277344.9204966.277344 1.578125v7.0039064h-2.880859v-6.609375c0-.4208855-.025503-.7157393-.078125-.8867189-.052622-.1841422-.171341-.3092435-.355469-.375-.170979-.0657778-.474169-.0996093-.908203-.0996093-.539257 0-.927312.0338315-1.164062.0996093-.223588.0657778-.374206.1908791-.453126.375-.065777.1709796-.099609.4658334-.099609.8867189v6.609375h-2.878906v-6.609375c0-.4208855-.027456-.7157393-.080078-.8867189-.052622-.1841422-.171348-.3092435-.355469-.375-.1709796-.0657778-.4722091-.0996093-.90625-.0996093-.5392498 0-.9273123.0338315-1.1640625.0996093-.2235947.0657778-.3761661.1908791-.4550781.375-.0657778.1709796-.0976563.4658334-.0976563.8867189v6.609375h-2.8808593v-9.5488282h2.8808593v1.1640624c.1841351-.9075199 1.1236299-1.3613281 2.8203129-1.3613281z" fill="#00ff00" transform="scale(.9375)"/></svg>