<svg width="24" height="24" version="1.1" viewBox="0 0 24 24" xmlns="http://www.w3.org/2000/svg"><!-- Font Awesome Free 5.15 by @fontawesome - https://fontawesome.com License - https://fontawesome.com/license/free (Icons: CC BY 4.0) - This icon is remixed from the original --><path d="m12 1c-6.0766 0-11 4.9234-11 11 0 6.0766 4.9234 11 11 11s11-4.9234 11-11c0-6.0766-4.9234-11-11-11zm5.3935 13.887c.20847.20847.20847.54556 0 .75403l-1.7565 1.752c-.20847.20847-.54556.20847-.75403 0l-2.8831-2.9097-2.8875 2.9097c-.20847.20847-.54556.20847-.75403 0l-1.752-1.7565c-.20847-.20847-.20847-.54556 0-.75403l2.9097-2.8831-2.9097-2.8875c-.20847-.20847-.20847-.54556 0-.75403l1.7565-1.7565c.20847-.20847.54556-.20847.75403 0l2.8831 2.9141 2.8875-2.9097c.20847-.20847.54556-.20847.75403 0l1.7565 1.7565c.20847.20847.20847.54556 0 .75403l-2.9141 2.8831z" style="fill:#800000;stroke-width:.044355"/></svg>
