<svg height="24" viewBox="0 0 24 24" width="24" xmlns="http://www.w3.org/2000/svg"><path d="m20.571 9.8568h-6.4287v-6.4283c0-.7888-.64-1.4285-1.428-1.4285h-1.429c-.788 0-1.4282.6397-1.4282 1.4285v6.4283h-6.4283c-.7888 0-1.4285.6402-1.4285 1.4282v1.4285c0 .7888.6397 1.4285 1.4285 1.4285h6.4282v6.4282c.0001.79.6403 1.43 1.4283 1.43h1.4285c.78879 0 1.4285-.6397 1.4285-1.4285v-6.4282h6.4282c.79-.002 1.43-.642 1.43-1.43v-1.429c0-.788-.64-1.4279-1.428-1.4279z" fill="#00ff00" stroke-width=".04464"/></svg>