<svg height="40" viewBox="0 0 40 40" width="40" xmlns="http://www.w3.org/2000/svg"><!-- Font Awesome Free 5.15 by @fontawesome - https://fontawesome.com License - https://fontawesome.com/license/free (Icons: CC BY 4.0) - This icon is remixed from the original --><path d="m38.685 9.0971c-.16754-.67018-1.0053-.89732-1.4941-.40884l-5.5186 5.5188-5.0384-.83945-.83945-5.0379 5.5186-5.5188c.49227-.49141.25564-1.3286-.41973-1.4963-3.5167-.87127-7.3875.067536-10.137 2.8151-2.9415 2.9421-3.7516 7.2067-2.527 10.925l-15.837 15.837c-1.8547 1.8547-1.8547 4.8621 0 6.7168s4.8621 1.8547 6.7168 0l15.824-15.824c3.7198 1.2402 7.9762.42156 10.938-2.5398 2.7512-2.7512 3.6886-6.6293 2.8135-10.148zm-32.934 26.933c-.98339 0-1.7812-.79784-1.7812-1.7812 0-.98413.79784-1.7812 1.7812-1.7812.98339 0 1.7812.7971 1.7812 1.7812 0 .98338-.79784 1.7812-1.7812 1.7812z" fill="#00ff00" stroke-width=".074219"/></svg>
