<svg height="24" viewBox="0 0 24 24" width="24" xmlns="http://www.w3.org/2000/svg"><!-- Font Awesome Free 5.15 by @fontawesome - https://fontawesome.com License - https://fontawesome.com/license/free (Icons: CC BY 4.0) - This icon is remixed from the original --><g fill="#00ff00"><path d="m21.314 3.2364v-1.718c0-.28226-.22662-.51206-.50884-.51558-1.3981-.017617-3.3382-.0023633-4.9912 1.6282-1.6214-1.5994-3.4814-1.636-4.9881-1.6262-.28338.00185-.51189.23225-.51189.51563v1.7035c0 .28733.23452.51898.52186.51554 1.1157-.01332 3.6032.14979 3.6032 2.0808v12.367c0 1.9307-2.4095 2.0638-3.6072 2.0607-.28557-.00073-.51778.22975-.51778.51532v1.718c0 .28226.22662.51206.50884.51558 1.3981.01757 3.3382.0023 4.9912-1.6283 1.6214 1.5994 3.4814 1.636 4.9881 1.6262.28338-.0018.51189-.23225.51189-.51563v-1.7035c0-.28733-.23452-.51898-.52186-.51554-1.1157.01337-3.6032-.14193-3.6032-2.0729v-12.367c0-1.9307 2.4095-2.0717 3.6072-2.0686.28557.0007735.51777-.22971.51777-.51528z" stroke-width=".042969"/><g fill-rule="evenodd"><path d="m1.6445 6.8164a.64506.64506 0 0 0 -.64453.64453v9.0781a.64506.64506 0 0 0 .64453.64453h12.207v-1.2891h-11.562v-7.7891h11.562v-1.2891h-12.207z"/><path d="m17.777 6.8164v1.2891h3.9336v7.7891h-3.9336v1.2891h4.5781a.64506.64506 0 0 0 .64453-.64453v-9.0781a.64506.64506 0 0 0 -.64453-.64453h-4.5781z"/></g></g></svg>
