<svg height="16" viewBox="0 0 16 16" width="16" xmlns="http://www.w3.org/2000/svg"><path d="m11.236 4.5371c-.882-.8261-2.0271-1.279-3.2418-1.2779-2.186.0019-4.0733 1.5008-4.5943 3.5802-.038.1515-.1729.2584-.3289.2584h-1.6173c-.2116 0-.3723-.1922-.3332-.4001.6107-3.2431 3.4579-5.6964 6.8784-5.6964 1.8754 0 3.5784.73767 4.835 1.9385l1.008-1.0079c.426-.4267 1.156-.1246 1.156.4789v3.7836c0 .3741-.30326.67734-.67734.67734h-3.7836c-.60347 0-.90565-.72959-.47898-1.1564zm-9.5597 4.5924h3.7836c.60347 0 .90565.72959.47898 1.1564l-1.1783 1.1783c.8823.82618 2.0274 1.279 3.2422 1.278 2.185-.0019 4.073-1.4999 4.5944-3.5801.03793-.15136.17278-.25824.32883-.25824h1.6173c.21162 0 .37238.19212.33323.4001-.61149 3.2426-3.4589 5.6962-6.8791 5.6962-1.8754 0-3.5784-.73748-4.835-1.9388l-1.0077 1.009c-.4267.426-1.1563.124-1.1563-.479v-3.784c0-.3741.30326-.67735.67735-.67735z" fill="#00ff00" stroke-width=".028223"/></svg>