<svg height="24" viewBox="0 0 24 24" width="24" xmlns="http://www.w3.org/2000/svg"><path d="m23 12c0 6.075-4.925 11-11 11-6.0751 0-11-4.925-11-11 0-6.0752 4.9249-11 11-11 6.075 0 11 4.9248 11 11zm-12.272 5.8244 8.1613-8.1613c.27713-.27713.27713-.72649 0-1.0036l-1.004-1.0032c-.27713-.27718-.72649-.27718-1.0037 0l-6.6558 6.6558-3.1075-3.1075c-.27713-.27713-.72649-.27713-1.0037 0l-1.0036 1.0036c-.27713.27713-.27713.72648 0 1.0036l4.6129 4.6129c.27717.27717.72649.27717 1.0037.00004z" fill="#00ff00" stroke-width=".044355"/></svg>