<svg height="24" viewBox="0 0 24 24" width="24" xmlns="http://www.w3.org/2000/svg"><path d="m23 12c0 6.0765-4.9253 11-11 11s-11-4.9235-11-11c0-6.0729 4.9253-11 11-11s11 4.9271 11 11zm-10.705-7.3629c-2.4172 0-3.9589 1.0183-5.1695 2.828-.15684.23446-.10437.55066.12042.72111l1.5391 1.167c.23087.17506.5598.13342.73917-.094127.79236-1.005 1.3357-1.5878 2.5417-1.5878.90612 0 2.0269.58317 2.0269 1.4618 0 .66426-.54836 1.0054-1.443 1.507-1.0434.58491-2.4241 1.3129-2.4241 3.1341v.17742c0 .29394.23832.53226.53226.53226h2.4839c.29394 0 .53226-.23832.53226-.53226v-.05912c0-1.2624 3.6897-1.315 3.6897-4.7312 0-2.5727-2.6686-4.5242-5.1687-4.5242zm-.29518 11c-1.1251 0-2.0403.91526-2.0403 2.0403 0 1.125.91526 2.0403 2.0403 2.0403s2.0403-.9153 2.0403-2.0403c0-1.1251-.91526-2.0403-2.0403-2.0403z" fill="#808080" stroke-width=".044355"/></svg>