<?xml version="1.0" encoding="UTF-8" standalone="no"?>
<svg xmlns:rdf="http://www.w3.org/1999/02/22-rdf-syntax-ns#" xmlns="http://www.w3.org/2000/svg" height="24" width="24" version="1.1" xmlns:cc="http://creativecommons.org/ns#" xmlns:dc="http://purl.org/dc/elements/1.1/" viewBox="0 0 24 24">
 <metadata>
  <rdf:RDF>
   <cc:Work rdf:about="">
    <dc:format>image/svg+xml</dc:format>
    <dc:type rdf:resource="http://purl.org/dc/dcmitype/StillImage"/>
    <dc:title/>
   </cc:Work>
  </rdf:RDF>
 </metadata>
 <path stroke-width=".038194" d="m22.752 19.028c.70499 1.222-.17993 2.7495-1.588 2.7495h-18.329c-1.4108 0-2.2916-1.5299-1.588-2.7495l9.165-15.89c.70534-1.2226 2.4719-1.2204 3.176 0zm-10.752-3.2852c-.97033 0-1.7569.78661-1.7569 1.7569 0 .97033.78662 1.757 1.7569 1.757.97033 0 1.7569-.78662 1.7569-1.757 0-.97033-.78661-1.7569-1.7569-1.7569zm-1.6681-6.3153.28333 5.1945c.01325.24307.21423.43335.45765.43335h1.8542c.24341 0 .44439-.19028.45764-.43335l.28333-5.1945c.01432-.26255-.19472-.48331-.45765-.48331h-2.42c-.26293 0-.47193.22076-.45761.48331z" fill="#ffff00"/>
</svg>
