<svg width="329.26" height="60.797" version="1.1" viewBox="0 0 329.26 60.797" xmlns="http://www.w3.org/2000/svg" xmlns:xlink="http://www.w3.org/1999/xlink"><title>Polychromatic</title><defs><linearGradient id="linearGradient4616"><stop style="stop-color:#ff0000" offset="0"/><stop style="stop-color:#ffff00" offset=".25"/><stop style="stop-color:#00ffff" offset=".5"/><stop style="stop-color:#0000ff" offset=".75"/><stop style="stop-color:#ff00ff" offset="1"/></linearGradient><linearGradient id="linearGradient4730" x1="47.922" x2="221.9" y1="923.41" y2="923.41" gradientUnits="userSpaceOnUse" xlink:href="#linearGradient4616"/></defs><g transform="translate(-16.67 -980.98)"><g transform="matrix(.93268 0 0 .93268 7.644 72.136)"><g transform="matrix(.23657 0 0 .23657 8.659 766.48)" style="fill:none;stroke-width:9.0643;stroke:#01ff20"><g transform="matrix(4.5089 0 0 4.5089 -51.322 -3536.6)"><g transform="matrix(1.3051 0 0 1.3051 40.629 -297.14)" style="opacity:0"><g transform="matrix(.18234 0 0 .18234 -23.79 814.03)" style="fill:none;stroke:url(#linearGradient4730)"><g transform="translate(1.8082)" style="fill:#01ff1f;stroke:url(#linearGradient4730)"><g transform="translate(.073967 -.1549)" style="fill:#ff5c00;stroke:url(#linearGradient4730)"></g></g><g transform="translate(1.8082 23.24)" style="fill:#01ff1f;stroke:url(#linearGradient4730)"><g transform="translate(.073967 -.1549)" style="fill:#ff6400;stroke:url(#linearGradient4730)"></g></g></g></g><path d="m20.379 987.38v17.155h38.598v-17.155l-38.598 2e-5zm2.1444 2.1444 34.31-2e-5v12.866h-34.31z" style="color-rendering:auto;color:#000000;fill-rule:evenodd;fill:#01ff20;image-rendering:auto;isolation:auto;mix-blend-mode:normal;shape-rendering:auto;solid-color:#000000;stroke:none;text-decoration-color:#000000;text-decoration-line:none;text-decoration-style:solid;text-indent:0;text-transform:none;white-space:normal"/><path d="m58.373 998.37c1.247-.0939 2.5393.23294 3.5918.9082 1.0525.67527 1.8898 1.716 2.3242 2.8887.494 1.3333.46925 2.8796-.08789 4.1718-.55568 1.2889-1.6697 2.3616-2.9746 2.8379-1.4128.5157-3.0926.3892-4.7617.039-1.6776-.3513-3.4283-.9237-5.3477-1.0684-3.2803-.2472-6.6068.8899-9.0508 3.0918l-.68555.6172 1.2344 1.3711.68555-.6172c2.0557-1.852 4.9186-2.831 7.6777-2.623 1.629.1227 3.3022.6551 5.1074 1.0332 1.8137.3804 3.8436.595 5.7734-.1094 1.813-.6617 3.2787-2.0828 4.0371-3.8418.75692-1.7556.7822-3.7658.12305-5.5449-.57702-1.5573-1.6607-2.902-3.0586-3.7988-1.3979-.89682-3.0704-1.32-4.7266-1.1953z" style="color-rendering:auto;color:#000000;fill-rule:evenodd;fill:#01ff1f;image-rendering:auto;isolation:auto;mix-blend-mode:normal;shape-rendering:auto;solid-color:#000000;stroke:none;text-decoration-color:#000000;text-decoration-line:none;text-decoration-style:solid;text-indent:0;text-transform:none;white-space:normal"/><path d="m36.279 1011.3c-2.2045 2.6228-3.7169 5.967-4.3045 8.9803-.84885 1.8309-1.3302 2.9128-1.6963 4.218-.93162 2.925.78 6.1575 3.9052 7.4053 3.1271 1.2486 6.6182.088 7.998-2.6596 1.0092-1.8133 1.3122-3.0808 1.7022-4.1108 1.5547-3.3521 3.3309-6.4565 3.2844-9.6169-1.3772-1.5215-3.1115-2.9005-4.7846-3.6043-2.1252-.584-4.2434-1.2207-6.1044-.612zm9.0301 4.911c-.04511 2.3598-1.4148 5.1393-3.0876 8.1003-.68639 1.3785-1.0675 2.9116-1.7006 4.1116-.9122 1.8231-3.3182 2.7057-5.6423 1.7778-2.7059-1.0099-3.3257-3.4151-2.8175-5.1938.59747-1.7813 1.1103-2.9167 1.7103-4.2669.46646-2.5614 1.5039-5.5181 3.5494-7.8101.77982-.1568 2.6782.012 4.1409.6027 1.4627.5904 2.7589 1.4683 3.8475 2.6784z" style="color-rendering:auto;color:#000000;fill:#01ff1f;image-rendering:auto;isolation:auto;mix-blend-mode:normal;shape-rendering:auto;solid-color:#000000;stroke:none;text-decoration-color:#000000;text-decoration-line:none;text-decoration-style:solid;text-indent:0;text-transform:none;white-space:normal"/><path d="m41.391 1014.6c-.56774-.2267-1.2186.046-1.4478.6078l-.83276 2.04c-.22922.5615.04751 1.2049.61526 1.4316.56774.2267 1.2182-.047 1.4474-.608l.83276-2.04c.22922-.5615-.04708-1.2047-.61482-1.4314z" style="color-rendering:auto;color:#000000;fill:#01ff1f;image-rendering:auto;isolation:auto;mix-blend-mode:normal;shape-rendering:auto;solid-color:#000000;stroke:none;text-decoration-color:#000000;text-decoration-line:none;text-decoration-style:solid;text-indent:0;text-transform:none;white-space:normal"/><path transform="matrix(1.0052 0 0 1.0052 7.513 973.44)" d="m17.066 18.131v3.1992h3.1992v-3.1992zm5.332 0v3.1992h3.2012v-3.1992zm5.334 0v3.1992h3.2012v-3.1992zm5.334 0v3.1992h3.1992v-3.1992zm5.332 0v3.1992h3.2012v-3.1992zm5.334 0v3.1992h3.2012v-3.1992zm-26.666 5.334v3.1992h3.1992v-3.1992zm5.332 0v3.1992h3.2012v-3.1992zm5.334 0v3.1992h3.2012v-3.1992zm5.334 0v3.1992h3.1992v-3.1992zm5.332 0v3.1992h3.2012v-3.1992zm5.334 0v3.1992h3.2012v-3.1992z" style="fill:#01ff20;stroke:none"/></g><g style="fill:#00ff00;stroke-width:4.6901px;stroke:none" aria-label="polychromatic"><path d="m290.6 972.2h16.697v9.7554h.1876q2.0636-11.631 30.954-11.631 17.259 0 26.077 7.3165 8.8173 7.1289 8.8173 18.385v37.333q0 8.0669-2.4388 14.07-2.2512 6.0033-6.0033 9.3801-3.3769 3.1893-9.3802 5.0653-5.8157 1.8761-11.631 2.4389-5.2529.5628-12.757.5628-8.2545 0-15.196-1.8761-6.7537-2.0636-8.4421-5.8157v44.837h-16.884zm40.897 81.232q9.7554 0 14.821-1.3132 5.2529-1.5009 7.5041-5.2529 2.2512-3.7521 2.2512-11.444v-33.393q0-8.4422-2.2512-12.569-2.2512-4.1273-7.5041-5.4405-5.0653-1.5008-15.008-1.5008t-14.821 1.5008q-4.8777 1.3132-6.9413 5.4405-2.0636 3.9397-2.0636 12.569v33.393q0 7.6917 2.0636 11.444 2.2512 3.752 7.3165 5.2529 5.0653 1.3132 14.633 1.3132z" style="-inkscape-stroke:none;color:#000000"/><path d="m437.68 1064.9q-12.007 0-18.01-.938-6.0033-.7505-12.007-3.5645-6.1909-2.814-9.0049-9.0049-2.814-6.3785-2.814-17.072v-31.517q0-8.4422 2.0636-14.821 2.0636-6.3785 5.4405-9.943 2.814-3.1892 8.4421-4.8777 5.8157-1.876 11.819-2.4388 6.7537-.37521 14.07-.37521 9.7554 0 14.633.56281 5.0653.37521 10.693 1.876 5.8157 1.6884 9.005 5.0653t5.4405 9.7554q2.0636 6.5661 2.0636 15.196v31.517q0 15.946-7.3165 23.263-3.0016 3.0016-8.6297 4.69-5.6281 1.6885-11.631 2.2513-7.1289.3752-14.258.3752zm0-11.069q7.8793 0 11.444-.3752 3.5645-.3752 6.9413-2.0636 3.3769-1.5009 4.6901-4.8777 1.5008-3.5645 1.5008-9.7554v-36.77q0-8.4421-2.0636-12.194-2.0636-3.9397-7.1289-5.0653-4.8777-1.3132-15.383-1.3132t-15.571 1.3132q-4.8777 1.1256-6.9413 5.0653-2.0636 3.7521-2.0636 12.194v36.77q0 6.1909 1.3132 9.7554 1.5008 3.3768 4.8777 4.8777 3.3768 1.6884 6.9413 2.0636 3.5644.3752 11.444.3752z" style="-inkscape-stroke:none;color:#000000"/><path d="m505.78 931.68h16.884v131.32h-16.884z" style="-inkscape-stroke:none;color:#000000"/><path d="m573.5 1064.3-35.082-92.113h18.385l25.326 74.103h.37521l22.888-74.103h17.072l-45.588 129.82h-17.635z" style="-inkscape-stroke:none;color:#000000"/><path d="m674.81 1064.9q-9.3802 0-13.695-.3752-4.1273-.3752-9.5678-1.8761-5.8157-1.5008-9.0049-4.5024-3.1892-3.0017-5.4405-8.8174-2.2512-5.6281-2.2512-14.07v-33.393q0-15.196 5.8157-21.762 3.1892-3.7521 6.3785-5.6281 3.3769-2.0636 8.6297-2.814t9.3802-.93801q4.1273-.37521 11.631-.37521 12.945 0 25.889 2.814v12.382q-15.008-3.7521-27.953-3.7521-9.7554 0-14.445 1.5008-4.5025 1.3132-6.3785 5.0653-1.6884 3.5645-1.6884 11.069v37.145q0 6.9413 1.876 10.318 2.0636 3.3768 7.1289 4.8777 5.2529 1.3132 15.383 1.3132 13.695 0 27.39-3.5645v12.757q-12.757 2.6265-29.078 2.6265z" style="-inkscape-stroke:none;color:#000000"/><path d="m725.27 931.68h16.884v51.591q2.6264-12.945 29.829-12.945 17.447 0 24.388 6.3785 7.1289 6.1909 7.1289 19.698v66.599h-16.884v-65.473q0-3.5645-.56281-5.8157-.56281-2.2512-2.2512-4.5025-3.7521-4.6901-16.697-4.6901-10.318 0-15.759 1.5008-5.2529 1.3132-7.3165 4.5025-1.876 3.1892-1.876 9.005v65.473h-16.884z" style="-inkscape-stroke:none;color:#000000"/><path d="m832.77 972.2h15.946v14.821q0-4.3149 3.7521-8.0669 3.7521-3.9397 9.5678-6.1909 5.8157-2.4388 11.444-2.4388h8.2545v14.445h-9.3802q-12.007 0-17.447 3.1892-5.2529 3.0016-5.2529 11.069v63.973h-16.884z" style="-inkscape-stroke:none;color:#000000"/><path d="m937.08 1064.9q-12.007 0-18.01-.938-6.0033-.7505-12.007-3.5645-6.1909-2.814-9.005-9.0049-2.814-6.3785-2.814-17.072v-31.517q0-8.4422 2.0636-14.821t5.4405-9.943q2.814-3.1892 8.4421-4.8777 5.8157-1.876 11.819-2.4388 6.7537-.37521 14.07-.37521 9.7554 0 14.633.56281 5.0653.37521 10.693 1.876 5.8157 1.6884 9.0049 5.0653 3.1893 3.3768 5.4405 9.7554 2.0636 6.5661 2.0636 15.196v31.517q0 15.946-7.3165 23.263-3.0016 3.0016-8.6297 4.69-5.6281 1.6885-11.631 2.2513-7.1289.3752-14.258.3752zm0-11.069q7.8793 0 11.444-.3752t6.9413-2.0636q3.3768-1.5009 4.6901-4.8777 1.5008-3.5645 1.5008-9.7554v-36.77q0-8.4421-2.0636-12.194-2.0636-3.9397-7.1289-5.0653-4.8777-1.3132-15.383-1.3132-10.506 0-15.571 1.3132-4.8777 1.1256-6.9413 5.0653-2.0636 3.7521-2.0636 12.194v36.77q0 6.1909 1.3132 9.7554 1.5008 3.3768 4.8777 4.8777 3.3769 1.6884 6.9413 2.0636 3.5645.3752 11.444.3752z" style="-inkscape-stroke:none;color:#000000"/><path d="m1005.2 972.2h16.884v11.069q2.6265-12.945 30.579-12.945 22.7 0 28.328 12.382 1.6884-6.0033 10.13-9.1926 8.6298-3.1892 21.012-3.1892 16.884 0 23.826 6.3785 6.9414 6.1909 6.9414 19.698v66.599h-16.884v-65.473q0-3.5645-.5628-5.8157-.5628-2.2512-2.2513-4.5025-3.752-4.6901-16.697-4.6901-9.943 0-14.821 1.3132-4.8776 1.3132-6.7537 4.5025-1.6884 3.1892-1.6884 9.1926v65.473h-16.884v-65.473q0-3.5645-.5628-5.8157-.5628-2.2512-2.2512-4.5025-3.7521-4.6901-16.509-4.6901-10.318 0-15.571 1.3132t-7.3165 4.5025q-2.0637 3.0016-2.0637 9.1926v65.473h-16.884z" style="-inkscape-stroke:none;color:#000000"/><path d="m1200.1 1064.9q-12.945 0-20.074-2.4389-6.9413-2.4388-10.13-8.6297-3.0017-6.1909-3.0017-17.822 0-10.318 2.8141-15.946 3.0016-5.8157 9.9429-8.2546 7.1289-2.4388 20.074-2.4388h27.202v-14.445q0-5.0653-2.0636-7.6917-1.8761-2.814-6.5661-3.9397-4.5025-1.1256-13.32-1.1256-14.07 0-31.142 2.2512v-12.382q18.573-1.6884 33.581-1.6884 15.759 0 23.263 2.4388 7.5042 2.2512 10.318 8.0669 2.8141 5.8157 2.8141 18.01v64.16h-16.322v-8.6297q-2.0636 10.506-27.39 10.506zm2.814-11.069q9.1926 0 15.571-1.3132 8.4421-1.6885 8.4421-7.8794v-24.764h-26.077q-8.067 0-11.631 1.3132-3.5645 1.1256-4.6901 4.5024-1.1256 3.3769-1.1256 10.881 0 6.7537 1.3132 10.506 1.3132 3.5644 4.6901 5.2529 3.3768 1.5008 10.131 1.5008z" style="-inkscape-stroke:none;color:#000000"/><path d="m1311.2 1064.9q-11.631 0-18.198-2.4389-6.5661-2.6264-9.5678-8.6297-2.814-6.1909-2.814-17.26v-53.279h-20.261v-11.069h20.261v-28.14h17.072v28.14h32.455v11.069h-32.455v54.217q0 6.7537 1.5008 10.131 1.6884 3.3768 5.6281 4.8777 4.1272 1.3132 11.819 1.3132 2.4388 0 13.507-1.5008v11.068q-9.5678 1.5009-18.948 1.5009z" style="-inkscape-stroke:none;color:#000000"/><path d="m1348.5 939.37h16.884v17.635h-16.884zm0 32.831h16.884v90.8h-16.884z" style="-inkscape-stroke:none;color:#000000"/><path d="m1431.2 1064.9q-9.3801 0-13.695-.3752-4.1273-.3752-9.5678-1.8761-5.8157-1.5008-9.0049-4.5024-3.1893-3.0017-5.4405-8.8174-2.2512-5.6281-2.2512-14.07v-33.393q0-15.196 5.8157-21.762 3.1892-3.7521 6.3785-5.6281 3.3768-2.0636 8.6297-2.814t9.3802-.93801q4.1272-.37521 11.631-.37521 12.945 0 25.889 2.814v12.382q-15.008-3.7521-27.953-3.7521-9.7553 0-14.445 1.5008-4.5025 1.3132-6.3785 5.0653-1.6884 3.5645-1.6884 11.069v37.145q0 6.9413 1.876 10.318 2.0636 3.3768 7.1289 4.8777 5.2529 1.3132 15.383 1.3132 13.695 0 27.39-3.5645v12.757q-12.757 2.6265-29.078 2.6265z" style="-inkscape-stroke:none;color:#000000"/></g></g></g></g></svg>
