<svg width="24" height="24" version="1.1" viewBox="0 0 24 24" xmlns="http://www.w3.org/2000/svg"><path d="m11.981 1v.0535c-.21979.01-.43803.0541-.64604.13497l-9.0743 3.4028c-.81581.30538-1.3568 1.0863-1.3568 1.9588v9.8202c0 .78963.44499 1.5182 1.1561 1.8716l9.0743 4.5371c.27875.1404.581.21344.88445.22094v-.0536c.29072-.0124.57953-.0844.84671-.21898l9.0743-4.5371c.71111-.35338 1.1561-1.082 1.1561-1.8716v-9.8203c0-.87252-.54095-1.6534-1.3568-1.9588l-9.0743-3.4028c-.21992-.0855-.45126-.13063-.68379-.13676zm.03775 2.8741 8.2893 3.1085v.048l-8.3271 3.3829v.0364l-8.2893-3.3677v-.048l8.3271-3.1226zm-11.224 2.2625c-.02066.11817-.031697.23908-.031697.36179v9.8203c0 .12295.010862.24416.031697.36265zm22.409.0517v10.545c.02084-.11848.0317-.2397.0317-.36265v-9.8202c0-.12272-.01104-.24363-.0317-.3618zm-2.8965 3.8525v5.8416l-6.9802 3.4901v-6.496zm-16.616.0516 6.9802 2.8357v6.496l-6.9802-3.4901z" style="fill:#00ff00;stroke-width:.043626"/></svg>
