<svg id="svg8" xmlns:rdf="http://www.w3.org/1999/02/22-rdf-syntax-ns#" xmlns="http://www.w3.org/2000/svg" height="24" width="24" version="1.1" xmlns:cc="http://creativecommons.org/ns#" xmlns:dc="http://purl.org/dc/elements/1.1/" viewBox="0 0 6.3499998 6.3500002">
 <metadata id="metadata5">
  <rdf:RDF>
   <cc:Work rdf:about="">
    <dc:format>image/svg+xml</dc:format>
    <dc:type rdf:resource="http://purl.org/dc/dcmitype/StillImage"/>
    <dc:title/>
   </cc:Work>
  </rdf:RDF>
 </metadata>
 <g id="layer1" transform="translate(0 -290.65)">
  <ellipse id="path4576-3" style="stroke-linejoin:round;paint-order:markers fill stroke;stroke:#000000;stroke-linecap:round;stroke-width:.13229;fill:#00ff00" rx="1.2611" ry=".66276" cy="296.05" cx="3.186"/>
  <path id="path4570" style="color-rendering:auto;text-decoration-color:#000000;color:#000000;font-variant-numeric:normal;text-orientation:mixed;shape-padding:0;shape-rendering:auto;solid-color:#000000;stroke:#001500;text-decoration-line:none;stroke-width:.13229;fill:#00ff00;fill-rule:evenodd;font-variant-position:normal;mix-blend-mode:normal;font-feature-settings:normal;font-variant-alternates:normal;text-indent:0;dominant-baseline:auto;font-variant-caps:normal;image-rendering:auto;white-space:normal;text-decoration-style:solid;font-variant-ligatures:normal;isolation:auto;stroke-linecap:round;text-transform:none" d="m3.1709 292.59c-.20497.003-.37388.17462-.37005.37971v2.5821c0 .10913.046482.21484.12013.28029.073647.0654.16434.0939.25269.0939.088341 0 .18042-.0284.25407-.0939.073647-.0654.12013-.17116.12013-.28029v-2.5821c.00389-.2078-.16939-.3808-.37696-.37971z"/>
  <path id="path4574" style="fill-rule:evenodd;stroke:#000000;stroke-width:.13229;fill:#00ff00" d="m1.5034 293.54s-.011105.46014 1.7173.46014c1.6444 0 1.6336-.43772 1.6336-.43772v-2.1018c0-.48144-1.0828.16465-1.6533.16465-.58851 0-1.7054-.71142-1.7054-.1786 0 .50766.0078 2.0933.0078 2.0933z"/>
  <ellipse id="path4576" style="stroke-linejoin:round;paint-order:markers fill stroke;stroke:#000000;stroke-linecap:round;stroke-width:.13229;fill:#00ff00" rx="1.6704" ry=".46945" cy="291.41" cx="3.1743"/>
 </g>
</svg>
