<svg width="24" height="24" version="1.1" viewBox="0 0 24 24" xmlns="http://www.w3.org/2000/svg"><path d="m20.25 9.25h-2.75v-1.6277c1.5984-.56804 2.75-2.0788 2.75-3.8723h-2.75v-1.375c0-.75926-.61574-1.375-1.375-1.375h-8.25c-.75926 0-1.375.61574-1.375 1.375v1.375h-2.75c0 1.7935 1.1516 3.3043 2.75 3.8723v1.6277h-2.75c0 1.7935 1.1516 3.3043 2.75 3.8723v1.6277h-2.75c0 1.8408 1.2139 3.3812 2.8785 3.9123.5341 2.478 2.7332 4.3377 5.3715 4.3377 2.6383 0 4.8374-1.8597 5.3715-4.3377 1.6646-.53109 2.8785-2.0715 2.8785-3.9123h-2.75v-1.6277c1.5984-.56804 2.75-2.0788 2.75-3.8723zm-8.25 9.625c-1.1391 0-2.0625-.9234-2.0625-2.0625s.9234-2.0625 2.0625-2.0625 2.0625.9234 2.0625 2.0625-.9234 2.0625-2.0625 2.0625zm0-5.5c-1.1391 0-2.0625-.9234-2.0625-2.0625s.9234-2.0625 2.0625-2.0625 2.0625.9234 2.0625 2.0625-.9234 2.0625-2.0625 2.0625zm0-5.5c-1.1391 0-2.0625-.9234-2.0625-2.0625s.9234-2.0625 2.0625-2.0625 2.0625.9234 2.0625 2.0625-.9234 2.0625-2.0625 2.0625z" style="fill:#00ff00;stroke-width:.042969"/></svg>
