<svg width="24" height="24" version="1.1" viewBox="0 0 24 24" xmlns="http://www.w3.org/2000/svg">
  <path d="m21.53 11.762-3.9577-1.4831v-4.4452c0-.61454-.38102-1.1635-.95869-1.3807l-4.097-1.5364c-.33186-.127-.70058-.127-1.0365 0l-4.097 1.5364c-.57768.21714-.95869.76614-.95869 1.3807v4.4452l-3.9577 1.4831c-.57357.21714-.95459.76614-.95459 1.3807v4.5108c0 .55719.31547 1.0693.8153 1.3192l4.097 2.0485c.41379.20894.90542.20894 1.3192 0l4.2567-2.1304 4.2567 2.1304c.4138.20894.90543.20894 1.3192 0l4.097-2.0485c.49982-.24992.81529-.76204.81529-1.3192v-4.5108c0-.61454-.38102-1.1635-.95869-1.3807zm-5.3506-1.4503-3.4824 1.3069v-2.7941l3.4824-1.5159zm-8.3578-4.5353 4.1789-1.565 4.1789 1.565v.0246l-4.1789 1.6962-4.1789-1.6962zm3.4415 11.926-3.4824 1.7412v-3.2407l3.4824-1.5896zm0-4.5886-4.1789 1.6961-4.1789-1.6961v-.0246l4.1789-1.565 4.1789 1.565zm9.8327 4.5886-3.4824 1.7412v-3.2407l3.4824-1.5896zm0-4.5886-4.1789 1.6961-4.1789-1.6961v-.0246l4.1789-1.565 4.1789 1.565z" style="fill:#00ff00;stroke-width:.04097"/>
</svg>
