<svg height="24" viewBox="0 0 24 24" width="24" xmlns="http://www.w3.org/2000/svg"><path d="m10.587 20.782-2.0967-.60839c-.21998-.0619-.34372-.29217-.28185-.51215l4.6918-16.162c.06187-.21999.29216-.34373.51215-.28186l2.0967.60839c.21998.0619.34372.29217.28185.51215l-4.6918 16.162c-.06531.21999-.29216.34716-.51215.28186zm-3.9184-3.8566 1.4952-1.5949c.15811-.16842.1478-.43652-.027498-.5912l-3.1141-2.7395 3.1141-2.7395c.1753-.15468.18905-.42278.027498-.59121l-1.4952-1.5949c-.15468-.16498-.41591-.17529-.58433-.0172l-4.9531 4.6403c-.1753.16155-.1753.43997 0 .60152l4.9531 4.6437c.16842.15811.42965.15123.58433-.0172zm11.247.0206 4.953-4.6437c.1753-.16155.1753-.43997 0-.60152l-4.953-4.6471c-.16499-.15467-.42622-.1478-.58433.0172l-1.4952 1.5949c-.15811.16842-.1478.43652.0275.5912l3.1141 2.7429-3.1141 2.7395c-.1753.15468-.18905.42278-.0275.5912l1.4952 1.5949c.15468.16842.4159.1753.58433.0206z" fill="#00ff00" stroke-width=".034372"/></svg>