<svg id="svg8" xmlns:rdf="http://www.w3.org/1999/02/22-rdf-syntax-ns#" xmlns="http://www.w3.org/2000/svg" height="24" width="24" version="1.1" xmlns:cc="http://creativecommons.org/ns#" xmlns:dc="http://purl.org/dc/elements/1.1/" viewBox="0 0 6.3499998 6.3500002">
 <metadata id="metadata5">
  <rdf:RDF>
   <cc:Work rdf:about="">
    <dc:format>image/svg+xml</dc:format>
    <dc:type rdf:resource="http://purl.org/dc/dcmitype/StillImage"/>
    <dc:title/>
   </cc:Work>
  </rdf:RDF>
 </metadata>
 <g id="layer1" transform="translate(0 -290.65)">
  <path id="path4518" style="stroke-width:.0090965;fill:#00ff00" d="m4.6309 292.37h-2.9109c-.80413 0-1.4554.6513-1.4554 1.4554 0 .80413.65131 1.4554 1.4554 1.4554.40752 0 .77502-.16737 1.0388-.43663h.83233c.26380.26926.63220.43663 1.0388.43663.80413 0 1.4554-.65131 1.4554-1.4554 0-.80413-.65040-1.4554-1.4545-1.4554zm-2.0376 1.6374c0 .06-.049121.10916-.10916.10916h-.4730v.47302c0 .06-.049121.10916-.10916.10916h-.36386c-.060037 0-.10916-.0491-.10916-.10916v-.47302h-.47288c-.060037 0-.10916-.0491-.10916-.10916v-.36386c0-.06.049120-.10915.10916-.10915h.47298v-.47302c0-.06.04912-.10916.10916-.10916h.36386c.060037 0 .10916.0491.10916.10916v.47302h.47302c.060037 0 .10916.0491.10916.10915zm1.6738.61856c-.24106 0-.43663-.19557-.43663-.43663 0-.24105.19557-.43662.43663-.43662s.43663.19557.43663.43662c0 .24106-.19557.43663-.43663.43663zm.72772-.72771c-.24106 0-.43663-.19558-.43663-.43663 0-.24107.19557-.43664.43663-.43664s.43663.19557.43663.43664c0 .24105-.19557.43663-.43663.43663z"/>
 </g>
</svg>
