<svg height="24" viewBox="0 0 6.3499998 6.3500002" width="24" xmlns="http://www.w3.org/2000/svg"><!-- Font Awesome Free 5.15 by @fontawesome - https://fontawesome.com License - https://fontawesome.com/license/free (Icons: CC BY 4.0) - This icon is remixed from the original --><path d="m4.6309 292.37h-2.9109c-.80413 0-1.4554.6513-1.4554 1.4554 0 .80413.65131 1.4554 1.4554 1.4554.40752 0 .77502-.16737 1.0388-.43663h.83233c.2638.26926.6322.43663 1.0388.43663.80413 0 1.4554-.65131 1.4554-1.4554 0-.80413-.6504-1.4554-1.4545-1.4554zm-2.0376 1.6374c0 .06-.049121.10916-.10916.10916h-.473v.47302c0 .06-.049121.10916-.10916.10916h-.36386c-.060037 0-.10916-.0491-.10916-.10916v-.47302h-.47288c-.060037 0-.10916-.0491-.10916-.10916v-.36386c0-.06.04912-.10915.10916-.10915h.47298v-.47302c0-.06.04912-.10916.10916-.10916h.36386c.060037 0 .10916.0491.10916.10916v.47302h.47302c.060037 0 .10916.0491.10916.10915zm1.6738.61856c-.24106 0-.43663-.19557-.43663-.43663 0-.24105.19557-.43662.43663-.43662s.43663.19557.43663.43662c0 .24106-.19557.43663-.43663.43663zm.72772-.72771c-.24106 0-.43663-.19558-.43663-.43663 0-.24107.19557-.43664.43663-.43664s.43663.19557.43663.43664c0 .24105-.19557.43663-.43663.43663z" fill="#00ff00" stroke-width=".009097" transform="translate(0 -290.65)"/></svg>
