<svg width="24" height="24" version="1.1" viewBox="0 0 24 24" xmlns="http://www.w3.org/2000/svg"><path d="m6.5 10.9v2.2h11v-2.2c0-1.2134.98656-2.2 2.2-2.2h1.1c0-1.8219-1.4781-3.3-3.3-3.3h-11c-1.8219 0-3.3 1.4781-3.3 3.3h1.1c1.2134 0 2.2.98656 2.2 2.2zm14.3-1.1h-1.1c-.60844 0-1.1.49156-1.1 1.1v3.3h-13.2v-3.3c0-.60844-.49156-1.1-1.1-1.1h-1.1c-1.2134 0-2.2.98656-2.2 2.2 0 .81125.44688 1.5125 1.1 1.8941v4.1559c0 .3025.2475.55.55.55h2.2c.3025 0 .55-.2475.55-.55v-.55h13.2v.55c0 .3025.2475.55.55.55h2.2c.3025 0 .55-.2475.55-.55v-4.1559c.65312-.38156 1.1-1.0828 1.1-1.8941 0-1.2134-.98656-2.2-2.2-2.2z" style="fill:#00ff00;stroke-width:.034375"/></svg>
