<svg width="24" height="24" version="1.1" viewBox="0 0 24 24" xmlns="http://www.w3.org/2000/svg"><path d="m22.45 18.6h-2.75v-11.5c0-.93706-.74009-1.6998-1.65-1.6998h-3.85v2.2h3.3v13.2h4.95c.30388 0 .55-.24613.55-.55v-1.1c0-.30388-.24612-.55001-.55-.55001zm-10.717-15.365-6.6 1.7098c-.48984.12684-.83325.58265-.83325 1.1058v12.55h-2.75c-.30388 0-.55.24613-.55.55001v1.1c0 .30387.24612.55.55.55h11.55v-16.459c0-.74181-.67238-1.286-1.3668-1.1058zm-1.6582 9.8653c-.45547 0-.825-.49259-.825-1.1 0-.60741.36953-1.1.825-1.1.45547 0 .825.49259.825 1.1 0 .60741-.36953 1.1-.825 1.1z" style="fill:#00ff00;stroke-width:.034375"/></svg>
