<svg height="24" viewBox="0 0 6.3499998 6.3500002" width="24" xmlns="http://www.w3.org/2000/svg"><g fill="#00ff00" stroke-width=".13229" transform="translate(0 -290.65)"><ellipse cx="3.186" cy="296.05" rx="1.2611" ry=".66276" stroke="#000000" stroke-linecap="round" stroke-linejoin="round"/><path d="m3.1709 292.59c-.20497.003-.37388.17462-.37005.37971v2.5821c0 .10913.046482.21484.12013.28029.073647.0654.16434.0939.25269.0939.088341 0 .18042-.0284.25407-.0939.073647-.0654.12013-.17116.12013-.28029v-2.5821c.00389-.2078-.16939-.3808-.37696-.37971z" fill-rule="evenodd" stroke="#001500" stroke-linecap="round"/><g stroke="#000000"><path d="m1.5034 293.54s-.011105.46014 1.7173.46014c1.6444 0 1.6336-.43772 1.6336-.43772v-2.1018c0-.48144-1.0828.16465-1.6533.16465-.58851 0-1.7054-.71142-1.7054-.1786 0 .50766.0078 2.0933.0078 2.0933z" fill-rule="evenodd"/><ellipse cx="3.1743" cy="291.41" rx="1.6704" ry=".46945" stroke-linecap="round" stroke-linejoin="round"/></g></g></svg>