<svg height="24" viewBox="0 0 24 24" width="24" xmlns="http://www.w3.org/2000/svg"><path d="m23 12c0 6.0766-4.9323 11-11.018 11-5.0476 0-9.2968-3.3843-10.601-8.0016l4.2226 1.7431c.28387 1.4238 1.548 2.5016 3.056 2.5016 1.7387 0 3.1891-1.4371 3.1137-3.2601l3.748-2.6702c2.3109.0577 4.2492-1.8141 4.2492-4.1472 0-2.2887-1.8629-4.1472-4.156-4.1472s-4.156 1.8629-4.156 4.1472v.0532l-2.6258 3.8012c-.6875-.0399-1.3617.15081-1.9294.53669l-5.9036-2.4395c.45242-5.6641 5.194-10.117 10.982-10.117 6.0855 0 11.018 4.9234 11.018 11zm-15.094 5.6907-1.3528-.55888a2.3415 2.3415 0 0 0 1.2065 1.1444c1.1931.49677 2.5637-.071 3.0605-1.2597.23952-.57661.24395-1.2109.0044-1.7875-.23948-.57661-.68746-1.029-1.2641-1.2686-.57218-.23951-1.1843-.23064-1.7254-.0266l1.3972.57661c.87823.36371 1.2952 1.3706.92702 2.2488-.36815.88267-1.375 1.2952-2.2532.93146zm7.7089-5.7617c-1.5258 0-2.7677-1.2419-2.7677-2.7633s1.2419-2.7633 2.7677-2.7633 2.7677 1.2419 2.7677 2.7633-1.2375 2.7633-2.7677 2.7633zm.0044-.69193c1.1488 0 2.0802-.93145 2.0802-2.0758 0-1.1488-.93145-2.0758-2.0802-2.0758s-2.0802.93146-2.0802 2.0758c.0044 1.1444.93589 2.0758 2.0802 2.0758z" fill="#00ff00" stroke-width=".044355"/></svg>