<svg height="24" viewBox="0 0 24 24" width="24" xmlns="http://www.w3.org/2000/svg"><path d="m22.532153 18.00107-5.03115-5.03115c-.99248-.99248-2.47476-1.18582-3.66918-.5972l-4.5800198-4.58002v-2.6681l-5.49946-4.1246-2.74973 2.74973 4.1246 5.49946h2.66809l4.5800298 4.58003c-.58432 1.19441-.39528 2.67669.5972 3.66917l5.03115 5.03115c.62728.62728 1.64125.62728 2.26423 0l2.26424-2.26423c.62298-.62729.62298-1.64125 0-2.26424zm-7.2782-7.33405c1.2159 0 2.35875.47261 3.21805 1.33191l.83351.83351c.67884-.29646 1.32331-.70892 1.88185-1.26746 1.59398-1.59398 2.13533-3.83673 1.62835-5.87325-.0945-.38668-.58002-.51987-.86359-.23631l-3.19656 3.19657-2.91729-.4855-.4855-2.9173 3.19656-3.19656c.28357-.28356.14608-.76906-.2449-.86788-2.03652-.50269-4.27927.0387-5.86895 1.62835-1.22449 1.22449-1.80022 2.83996-1.77014 4.45113l3.52739 3.52739c.34801-.0816.70891-.1246 1.06122-.1246zm-4.46402 3.5231-2.4360898-2.43609-6.54779 6.55209c-1.07412003 1.07412-1.07412003 2.81418 0 3.88829 1.07411 1.07412 2.81417 1.07412 3.88829 0l5.3104198-5.31041c-.32653-.855-.42535-1.78733-.21483-2.69388zm-7.0375898 7.08915c-.56713 0-1.03115-.46402-1.03115-1.03115 0-.57143.45972-1.03115 1.03115-1.03115s1.03115.45972 1.03115 1.03115c0 .56713-.45972 1.03115-1.03115 1.03115z" fill="#00ff00" stroke-width=".042965"/></svg>