<?xml version="1.0" encoding="UTF-8" standalone="no"?>
<svg
   xmlns:dc="http://purl.org/dc/elements/1.1/"
   xmlns:cc="http://creativecommons.org/ns#"
   xmlns:rdf="http://www.w3.org/1999/02/22-rdf-syntax-ns#"
   xmlns:svg="http://www.w3.org/2000/svg"
   xmlns="http://www.w3.org/2000/svg"
   height="24"
   width="24"
   id="svg4"
   version="1.1"
   viewBox="0 0 24 24">
  <metadata
     id="metadata10">
    <rdf:RDF>
      <cc:Work
         rdf:about="">
        <dc:format>image/svg+xml</dc:format>
        <dc:type
           rdf:resource="http://purl.org/dc/dcmitype/StillImage" />
        <dc:title></dc:title>
      </cc:Work>
    </rdf:RDF>
  </metadata>
  <defs
     id="defs8" />
  <path
     style="fill:#00ff00;stroke-width:0.04296456"
     d="m 22.532153,18.00107 -5.03115,-5.03115 c -0.99248,-0.99248 -2.47476,-1.18582 -3.66918,-0.5972 L 9.2518032,7.7927 V 5.1246 L 3.7523432,1 l -2.74973,2.74973 4.1246,5.49946 h 2.66809 l 4.5800298,4.58003 c -0.58432,1.19441 -0.39528,2.67669 0.5972,3.66917 l 5.03115,5.03115 c 0.62728,0.62728 1.64125,0.62728 2.26423,0 l 2.26424,-2.26423 c 0.62298,-0.62729 0.62298,-1.64125 0,-2.26424 z m -7.2782,-7.33405 c 1.2159,0 2.35875,0.47261 3.21805,1.33191 l 0.83351,0.83351 c 0.67884,-0.29646 1.32331,-0.70892 1.88185,-1.26746 1.59398,-1.59398 2.13533,-3.83673 1.62835,-5.87325 -0.0945,-0.38668 -0.58002,-0.51987 -0.86359,-0.23631 l -3.19656,3.19657 -2.91729,-0.4855 -0.4855,-2.9173 3.19656,-3.19656 c 0.28357,-0.28356 0.14608,-0.76906 -0.2449,-0.86788 -2.03652,-0.50269 -4.27927,0.0387 -5.86895,1.62835 -1.22449,1.22449 -1.80022,2.83996 -1.77014,4.45113 l 3.52739,3.52739 c 0.34801,-0.0816 0.70891,-0.1246 1.06122,-0.1246 z m -4.46402,3.5231 -2.4360898,-2.43609 -6.54779,6.55209 c -1.07412003,1.07412 -1.07412003,2.81418 0,3.88829 1.07411,1.07412 2.81417,1.07412 3.88829,0 L 11.004763,16.884 c -0.32653,-0.855 -0.42535,-1.78733 -0.21483,-2.69388 z m -7.0375898,7.08915 c -0.56713,0 -1.03115,-0.46402 -1.03115,-1.03115 0,-0.57143 0.45972,-1.03115 1.03115,-1.03115 0.57143,0 1.03115,0.45972 1.03115,1.03115 0,0.56713 -0.45972,1.03115 -1.03115,1.03115 z"
     id="path1474" />
</svg>
