<svg height="24" viewBox="0 0 24 24" width="24" xmlns="http://www.w3.org/2000/svg"><g fill="#00ff00" stroke="#000000" transform="matrix(.96592583 -.25881905 .25881905 .96592583 -2.390665 7.179098)"><g transform="matrix(1.282 0 0 1.282 7.9296 -373.12)"><path d="m.52917 291.18h5.2917v5.2917h-5.2917z" stroke-linecap="round" stroke-linejoin="round" stroke-width=".26458"/><path d="m1.5611 292.21h3.2278v3.2278h-3.2278z" stroke-linecap="round" stroke-linejoin="round" stroke-width=".21182"/><g stroke-width=".26458"><path d="m.52917 291.18 1.032 1.032"/><path d="m5.8208 291.18-1.032 1.032"/><path d="m5.8208 296.47-1.0319-1.03"/><path d="m1.5611 295.44-1.032 1.032"/></g></g><g transform="matrix(1.282 0 0 1.282 7.9296 -365.81)"><path d="m.52917 291.18h5.2917v5.2917h-5.2917z" stroke-linecap="round" stroke-linejoin="round" stroke-width=".26458"/><path d="m1.5611 292.21h3.2278v3.2278h-3.2278z" stroke-linecap="round" stroke-linejoin="round" stroke-width=".21182"/><g stroke-width=".26458"><path d="m.52917 291.18 1.032 1.032"/><path d="m5.8208 291.18-1.032 1.032"/><path d="m5.8208 296.47-1.0319-1.03"/><path d="m1.5611 295.44-1.032 1.032"/></g></g><g transform="matrix(1.282 0 0 1.282 15.274 -365.81)"><path d="m.52917 291.18h5.2917v5.2917h-5.2917z" stroke-linecap="round" stroke-linejoin="round" stroke-width=".26458"/><path d="m1.5611 292.21h3.2278v3.2278h-3.2278z" stroke-linecap="round" stroke-linejoin="round" stroke-width=".21182"/><g stroke-width=".26458"><path d="m.52917 291.18 1.032 1.032"/><path d="m5.8208 291.18-1.032 1.032"/><path d="m5.8208 296.47-1.0319-1.03"/><path d="m1.5611 295.44-1.032 1.032"/></g></g><g transform="matrix(1.282 0 0 1.282 .5537 -365.81)"><path d="m.52917 291.18h5.2917v5.2917h-5.2917z" stroke-linecap="round" stroke-linejoin="round" stroke-width=".26458"/><path d="m1.5611 292.21h3.2278v3.2278h-3.2278z" stroke-linecap="round" stroke-linejoin="round" stroke-width=".21182"/><g stroke-width=".26458"><path d="m.52917 291.18 1.032 1.032"/><path d="m5.8208 291.18-1.032 1.032"/><path d="m5.8208 296.47-1.0319-1.03"/><path d="m1.5611 295.44-1.032 1.032"/></g></g></g></svg>