<svg width="24" height="24" version="1.1" viewBox="0 0 24 24" xmlns="http://www.w3.org/2000/svg"><g transform="rotate(-15 26.07 12.669)" style="fill:#00ff00"><g transform="matrix(1.282 0 0 1.282 7.9296 -373.12)" style="fill:#00ff00"><rect x=".52917" y="291.18" width="5.2917" height="5.2917" style="fill:#00ff00;stroke-linecap:round;stroke-linejoin:round;stroke-width:.26458;stroke:#000000"/><rect x="1.5611" y="292.21" width="3.2278" height="3.2278" style="fill:#00ff00;stroke-linecap:round;stroke-linejoin:round;stroke-width:.21182;stroke:#000000"/><path d="m.52917 291.18 1.032 1.032" style="fill:#00ff00;stroke-width:.26458px;stroke:#000000"/><path d="m5.8208 291.18-1.032 1.032" style="fill:#00ff00;stroke-width:.26458px;stroke:#000000"/><path d="m5.8208 296.47-1.0319-1.03" style="fill:#00ff00;stroke-width:.26458px;stroke:#000000"/><path d="m1.5611 295.44-1.032 1.032" style="fill:#00ff00;stroke-width:.26458px;stroke:#000000"/></g><g transform="matrix(1.282 0 0 1.282 7.9296 -365.81)" style="fill:#00ff00"><rect x=".52917" y="291.18" width="5.2917" height="5.2917" style="fill:#00ff00;stroke-linecap:round;stroke-linejoin:round;stroke-width:.26458;stroke:#000000"/><rect x="1.5611" y="292.21" width="3.2278" height="3.2278" style="fill:#00ff00;stroke-linecap:round;stroke-linejoin:round;stroke-width:.21182;stroke:#000000"/><path d="m.52917 291.18 1.032 1.032" style="fill:#00ff00;stroke-width:.26458px;stroke:#000000"/><path d="m5.8208 291.18-1.032 1.032" style="fill:#00ff00;stroke-width:.26458px;stroke:#000000"/><path d="m5.8208 296.47-1.0319-1.03" style="fill:#00ff00;stroke-width:.26458px;stroke:#000000"/><path d="m1.5611 295.44-1.032 1.032" style="fill:#00ff00;stroke-width:.26458px;stroke:#000000"/></g><g transform="matrix(1.282 0 0 1.282 15.274 -365.81)" style="fill:#00ff00"><rect x=".52917" y="291.18" width="5.2917" height="5.2917" style="fill:#00ff00;stroke-linecap:round;stroke-linejoin:round;stroke-width:.26458;stroke:#000000"/><rect x="1.5611" y="292.21" width="3.2278" height="3.2278" style="fill:#00ff00;stroke-linecap:round;stroke-linejoin:round;stroke-width:.21182;stroke:#000000"/><path d="m.52917 291.18 1.032 1.032" style="fill:#00ff00;stroke-width:.26458px;stroke:#000000"/><path d="m5.8208 291.18-1.032 1.032" style="fill:#00ff00;stroke-width:.26458px;stroke:#000000"/><path d="m5.8208 296.47-1.0319-1.03" style="fill:#00ff00;stroke-width:.26458px;stroke:#000000"/><path d="m1.5611 295.44-1.032 1.032" style="fill:#00ff00;stroke-width:.26458px;stroke:#000000"/></g><g transform="matrix(1.282 0 0 1.282 .5537 -365.81)" style="fill:#00ff00"><rect x=".52917" y="291.18" width="5.2917" height="5.2917" style="fill:#00ff00;stroke-linecap:round;stroke-linejoin:round;stroke-width:.26458;stroke:#000000"/><rect x="1.5611" y="292.21" width="3.2278" height="3.2278" style="fill:#00ff00;stroke-linecap:round;stroke-linejoin:round;stroke-width:.21182;stroke:#000000"/><path d="m.52917 291.18 1.032 1.032" style="fill:#00ff00;stroke-width:.26458px;stroke:#000000"/><path d="m5.8208 291.18-1.032 1.032" style="fill:#00ff00;stroke-width:.26458px;stroke:#000000"/><path d="m5.8208 296.47-1.0319-1.03" style="fill:#00ff00;stroke-width:.26458px;stroke:#000000"/><path d="m1.5611 295.44-1.032 1.032" style="fill:#00ff00;stroke-width:.26458px;stroke:#000000"/></g></g></svg>
