<svg id="svg8" xmlns:rdf="http://www.w3.org/1999/02/22-rdf-syntax-ns#" xmlns="http://www.w3.org/2000/svg" height="24" width="24" version="1.1" xmlns:cc="http://creativecommons.org/ns#" xmlns:dc="http://purl.org/dc/elements/1.1/" viewBox="0 0 6.3499998 6.3500002">
 <metadata id="metadata5">
  <rdf:RDF>
   <cc:Work rdf:about="">
    <dc:format>image/svg+xml</dc:format>
    <dc:type rdf:resource="http://purl.org/dc/dcmitype/StillImage"/>
    <dc:title/>
   </cc:Work>
  </rdf:RDF>
 </metadata>
 <g id="layer1" transform="translate(0 -290.65)">
  <path id="path4684" style="stroke:#000000;stroke-width:.26458px;fill:none" d="m1.6156 291.94c.042424.69907.53658 2.0444.76005 2.5491.21940.49545.88508 1.7193 1.5717 1.6088.65402-.10524.72551-1.4875.76690-1.9245.04773-.50401-.32697-2.2882-.56127-2.8765-.19041-.47811-.90407-.1946-1.4029-.0682-0.396.10036-1.1592.30353-1.1345.71129z"/>
  <path id="path4686" style="fill-rule:evenodd;stroke:#000000;stroke-width:.26189px;fill:#00ff00" d="m1.9624 293.16s.47160.29371.73579.29462c.23151.0008.46348-.11196.64653-.2537.26103-.20212.28429-.6574.58106-.80203.13251-.0646.44193.0163.44193.0163s.25937.6604.32736 1.0066c.035841.18251.042738.37051.04092.5565-.00316.32328-.030779.64789-.090023.96571-.051431.27591-.07502.57565-.22915.81021-.10435.1588-.25654.3184-.44193.36009-.17816.0401-.37348-.0402-.53196-.13094-.25448-.14569-.44436-.39085-.61379-.63017-.18822-.26585-.30427-.57678-.43375-.87568-.11460-.26456-.30281-.8102-.30281-.8102z"/>
  <path id="path4688" style="fill-rule:evenodd;stroke:#000000;stroke-width:.26458;fill:#000000" d="m3.6597 296.1s.18859.28314.25632.43822c.076066.17418.13257.35848.16536.5457.036191.20661.033073.62839.033073.62839l.47129-.12403s-.17917-.29446-.23978-.45475c-.066203-.17507-.11853-.35904-.13229-.5457-.015667-.21252.057878-.63666.057878-.63666l-.28112.19017z"/>
 </g>
</svg>
