<svg id="svg4" xmlns:rdf="http://www.w3.org/1999/02/22-rdf-syntax-ns#" xmlns="http://www.w3.org/2000/svg" height="24" width="24" version="1.1" xmlns:cc="http://creativecommons.org/ns#" xmlns:dc="http://purl.org/dc/elements/1.1/" viewBox="0 0 24 24">
 <path id="path2" style="stroke-width:.052881" d="m13.83 5.3971 4.7699 4.7699c.20095.20095.20095.52881 0 .72976l-11.549 11.549-4.9074.54468c-.65573.074-1.211-.48122-1.1369-1.137l.5442-4.908 11.55-11.549c.20095-.20095.52881-.20095.72976 0zm8.5668-1.211-2.5806-2.5806c-.80380-.80380-2.11-.80380-2.919 0l-1.872 1.872c-.20095.20095-.20095.52881 0 .72976l4.7699 4.7699c.20095.20095.52881.20095.72976 0l1.872-1.872c.80380-.80908.80380-2.1152 0-2.919z"/>
</svg>
