<svg xmlns:rdf="http://www.w3.org/1999/02/22-rdf-syntax-ns#" xmlns="http://www.w3.org/2000/svg" height="20" width="20" version="1.1" xmlns:cc="http://creativecommons.org/ns#" xmlns:dc="http://purl.org/dc/elements/1.1/" viewBox="0 0 20 20">
 <path style="stroke-width:.031250" d="m19 2.75v3.9995c0 .67066-.81125.99938-1.2803.53035l-1.116-1.1159-7.6103 7.6101c-.29291.29291-.76775.29291-1.0607 0l-.7070-.707c-.29291-.29290-.29291-.76778 0-1.0607l7.61-7.6099-1.116-1.1158c-.471-.4709-.137-1.2803.531-1.2803h3.9993c.41422 0 0.75.33578 0.75.75001zm-5.2803 7.7123-0.5 0.5a.74997 .74997 0 0 0 -.21966 .53034v4.5073h-10v-9.999h8.25a.75009 .75009 0 0 0 .53031 -.21966l.5-.49999c.473-.4725.138-1.2803-.530-1.2803h-9.25c-.82844 0-1.5.67156-1.5 1.5v11c0 .82844.67156 1.5 1.5 1.5h11c.82844 0 1.5-.67156 1.5-1.5v-5.5074c0-.66819-.80787-1.0028-1.2803-.53032z"/>
</svg>
