<svg width="24" height="24" version="1.1" viewBox="0 0 24 24" xmlns="http://www.w3.org/2000/svg">
  <path d="m21.429 9.6429h-7.0714v-7.0714c0-.86772-.7037-1.5714-1.5714-1.5714h-1.5714c-.86772 0-1.5714.7037-1.5714 1.5714v7.0714h-7.0714c-.86772 0-1.5714.7037-1.5714 1.5714v1.5714c0 .86772.70371 1.5714 1.5714 1.5714h7.0714v7.0714c0 .86772.7037 1.5714 1.5714 1.5714h1.5714c.86772 0 1.5714-.7037 1.5714-1.5714v-7.0714h7.0714c.86772 0 1.5714-.70371 1.5714-1.5714v-1.5714c0-.86772-.7037-1.5714-1.5714-1.5714z" style="stroke-width:.049107"/>
</svg>
