<?xml version="1.0" encoding="UTF-8" standalone="no"?>
<svg
   xmlns:dc="http://purl.org/dc/elements/1.1/"
   xmlns:cc="http://creativecommons.org/ns#"
   xmlns:rdf="http://www.w3.org/1999/02/22-rdf-syntax-ns#"
   xmlns:svg="http://www.w3.org/2000/svg"
   xmlns="http://www.w3.org/2000/svg"
   height="24"
   width="24"
   id="svg4"
   version="1.1"
   viewBox="0 0 24 24">
  <metadata
     id="metadata10">
    <rdf:RDF>
      <cc:Work
         rdf:about="">
        <dc:format>image/svg+xml</dc:format>
        <dc:type
           rdf:resource="http://purl.org/dc/dcmitype/StillImage" />
        <dc:title></dc:title>
      </cc:Work>
    </rdf:RDF>
  </metadata>
  <defs
     id="defs8" />
  <path
     style="fill:#00ff00;stroke-width:0.02850993"
     d="m 14.753199,8.3507344 c -0.800841,0 -1.542098,0.1288612 -2.196972,0.3666372 L 12.910039,5.2075128 C 12.940824,4.909874 12.678818,4.6678244 12.380037,4.705167 10.107796,4.9902719 8.3507271,6.9149713 8.3507271,9.2468025 c 0,0.8008405 0.1288674,1.5420985 0.3666375,2.1969725 L 5.2075121,11.089971 c -0.2976454,-0.03078 -0.539695,0.231213 -0.502346,0.529994 0.2850985,2.27224 2.2098044,4.029311 4.541629,4.029311 0.8008469,0 1.5421039,-0.128869 2.1969709,-0.366639 l -0.353804,3.509853 c -0.02993,0.297361 0.231215,0.539695 0.530001,0.502346 2.272241,-0.285098 4.029304,-2.209805 4.029304,-4.54163 0,-0.80084 -0.128861,-1.542097 -0.366638,-2.196971 l 3.509859,0.353805 c 0.297646,0.02993 0.539696,-0.231214 0.502346,-0.530001 C 19.009736,10.107798 17.08503,8.3507344 14.753199,8.3507344 Z m -2.753202,4.5615886 a 0.9123175,0.9123175 0 1 1 0.912318,-0.912318 0.9123175,0.9123175 0 0 1 -0.912318,0.912318 z"
     id="path892" />
  <path
     style="opacity:0.2;fill:#00ff00;stroke-width:0.02850993"
     d="M 15.603886,9.1876587 C 14.830333,8.9803862 14.080982,8.9130049 13.38688,8.9731853 L 14.637055,5.674495 C 14.743827,5.3949659 14.553394,5.0933515 14.255129,5.0520917 11.986523,4.7393831 9.791176,6.1437368 9.1876537,8.3961127 8.9803811,9.1696657 8.9130054,9.9190187 8.97318,10.613117 L 5.6744944,9.3629517 c -0.2795353,-0.106773 -0.5811483,0.08365 -0.6224016,0.381918 -0.3127156,2.2686063 1.0916447,4.4639563 3.3440144,5.0674763 0.7735593,0.207274 1.5229113,0.274648 2.2170038,0.214473 l -1.2501655,3.298686 c -0.1058674,0.279483 0.083652,0.581147 0.3819246,0.622402 2.2686059,0.312716 4.4639489,-1.091646 5.0674689,-3.344016 0.207273,-0.773552 0.274653,-1.522903 0.214473,-2.217004 l 3.298692,1.250168 c 0.27976,0.105942 0.581148,-0.08365 0.622403,-0.381925 0.312716,-2.268605 -1.091646,-4.4639493 -3.344021,-5.0674713 z M 11.76387,12.881233 a 0.9123175,0.9123175 0 1 1 1.117357,-0.645105 0.9123175,0.9123175 0 0 1 -1.117357,0.645105 z"
     id="path892-6" />
  <rect
     ry="3.7123106"
     rx="3.7123106"
     y="2.8518057"
     x="2.6087379"
     height="18.296389"
     width="18.782524"
     id="rect991"
     style="opacity:1;fill:none;fill-opacity:0.94238156;stroke:#00ff00;stroke-width:1;stroke-linecap:round;stroke-linejoin:round;stroke-miterlimit:10;stroke-dasharray:none;stroke-dashoffset:0;stroke-opacity:1;paint-order:markers fill stroke" />
</svg>
