<?xml version="1.0" encoding="UTF-8" standalone="no"?>
<svg
   xmlns:dc="http://purl.org/dc/elements/1.1/"
   xmlns:cc="http://creativecommons.org/ns#"
   xmlns:rdf="http://www.w3.org/1999/02/22-rdf-syntax-ns#"
   xmlns:svg="http://www.w3.org/2000/svg"
   xmlns="http://www.w3.org/2000/svg"
   xmlns:xlink="http://www.w3.org/1999/xlink"
   version="1.1"
   id="svg2"
   viewBox="0 0 48 47.999998"
   height="48"
   width="48">
  <title
     id="title4854">Polychromatic Headset</title>
  <defs
     id="defs4">
    <linearGradient
       id="linearGradient4555">
      <stop
         offset="0"
         style="stop-color:#01ff1e;stop-opacity:1"
         id="stop4557" />
      <stop
         offset="1"
         style="stop-color:#5a5a5a"
         id="stop4559" />
    </linearGradient>
    <linearGradient
       id="linearGradient4616">
      <stop
         style="stop-color:#ff0000;stop-opacity:1"
         offset="0"
         id="stop4618" />
      <stop
         id="stop4620"
         offset="0.25"
         style="stop-color:#ffff00;stop-opacity:1" />
      <stop
         id="stop4622"
         offset="0.5"
         style="stop-color:#00ffff;stop-opacity:1" />
      <stop
         style="stop-color:#0000ff;stop-opacity:1"
         offset="0.75"
         id="stop4624" />
      <stop
         style="stop-color:#ff00ff;stop-opacity:1"
         offset="1"
         id="stop4626" />
    </linearGradient>
    <marker
       style="overflow:visible"
       id="marker4576"
       refX="0"
       refY="0"
       orient="auto">
      <path
         transform="matrix(0.8,0,0,0.8,5.92,0.8)"
         style="fill-rule:evenodd;stroke:#000000;stroke-width:1pt"
         d="m -2.5,-1 c 0,2.76 -2.24,5 -5,5 -2.76,0 -5,-2.24 -5,-5 0,-2.76 2.24,-5 5,-5 2.76,0 5,2.24 5,5 z"
         id="path4578" />
    </marker>
    <marker
       style="overflow:visible"
       id="DotL"
       refX="0"
       refY="0"
       orient="auto">
      <path
         transform="matrix(0.8,0,0,0.8,5.92,0.8)"
         style="fill-rule:evenodd;stroke:#000000;stroke-width:1pt"
         d="m -2.5,-1 c 0,2.76 -2.24,5 -5,5 -2.76,0 -5,-2.24 -5,-5 0,-2.76 2.24,-5 5,-5 2.76,0 5,2.24 5,5 z"
         id="path4286" />
    </marker>
    <marker
       style="overflow:visible"
       id="Arrow1Lend"
       refX="0"
       refY="0"
       orient="auto">
      <path
         transform="matrix(-0.8,0,0,-0.8,-10,0)"
         style="fill-rule:evenodd;stroke:#000000;stroke-width:1pt"
         d="M 0,0 5,-5 -12.5,0 5,5 Z"
         id="path4228" />
    </marker>
    <marker
       style="overflow:visible"
       id="marker4496"
       refX="0"
       refY="0"
       orient="auto">
      <path
         transform="matrix(0.8,0,0,0.8,10,0)"
         style="fill-rule:evenodd;stroke:#000000;stroke-width:1pt"
         d="M 0,0 5,-5 -12.5,0 5,5 Z"
         id="path4498" />
    </marker>
    <marker
       style="overflow:visible"
       id="marker4481"
       refX="0"
       refY="0"
       orient="auto">
      <path
         transform="matrix(0.8,0,0,0.8,10,0)"
         style="fill-rule:evenodd;stroke:#000000;stroke-width:1pt"
         d="M 0,0 5,-5 -12.5,0 5,5 Z"
         id="path4225" />
    </marker>
    <marker
       style="overflow:visible"
       id="Arrow1Lstart"
       refX="0"
       refY="0"
       orient="auto">
      <path
         transform="matrix(0.8,0,0,0.8,10,0)"
         style="fill:#00ff00;fill-opacity:1;fill-rule:evenodd;stroke:#000000;stroke-width:1pt;stroke-opacity:1"
         d="M 0,0 5,-5 -12.5,0 5,5 Z"
         id="path4461" />
    </marker>
    <linearGradient
       gradientUnits="userSpaceOnUse"
       y2="923.4082"
       x2="221.89511"
       y1="923.4082"
       x1="47.921783"
       id="linearGradient4219"
       xlink:href="#linearGradient4616" />
    <linearGradient
       id="linearGradient4190">
      <stop
         id="stop4192"
         offset="0" />
      <stop
         id="stop4194"
         style="stop-opacity:0"
         offset="1" />
    </linearGradient>
    <linearGradient
       id="linearGradient7603">
      <stop
         id="stop7605"
         style="stop-color:#afafaf"
         offset="0" />
      <stop
         id="stop7607"
         style="stop-color:#5a5a5a"
         offset="1" />
    </linearGradient>
    <linearGradient
       id="linearGradient4135"
       y2="44.5"
       xlink:href="#linearGradient7603"
       gradientUnits="userSpaceOnUse"
       x2="24.5"
       y1="3"
       x1="24.5" />
    <radialGradient
       id="radialGradient4143"
       gradientUnits="userSpaceOnUse"
       cy="10.895"
       cx="23.528"
       gradientTransform="matrix(1.3889,-2.8719e-7,4.4279e-7,2.1414,-9.1501,-13.541)"
       r="2.5">
      <stop
         id="stop4576"
         style="stop-color:#828282"
         offset="0" />
      <stop
         id="stop4578"
         style="stop-color:#646662"
         offset="1" />
    </radialGradient>
    <radialGradient
       id="radialGradient4172"
       gradientUnits="userSpaceOnUse"
       cy="16.539"
       cx="16.184"
       gradientTransform="matrix(4.3195,-0.085864,0.060478,3.0424,-54.725,-36.555)"
       r="13.477">
      <stop
         id="stop6546"
         style="stop-color:#fafafa"
         offset="0" />
      <stop
         id="stop6548"
         style="stop-color:#c8c8c8"
         offset="1" />
    </radialGradient>
    <linearGradient
       id="linearGradient4174"
       y2="45"
       xlink:href="#linearGradient7603"
       gradientUnits="userSpaceOnUse"
       x2="24.5"
       y1="3"
       x1="24.559" />
    <linearGradient
       xlink:href="#linearGradient4616"
       gradientTransform="translate(-3.2210808,-4.985006)"
       id="linearGradient4188"
       y2="44"
       gradientUnits="userSpaceOnUse"
       x2="24.559"
       y1="4.1101999"
       x1="23.823">
      <stop
         id="stop6969"
         style="stop-color:#fff"
         offset="0" />
      <stop
         id="stop6971"
         style="stop-color:#fff;stop-opacity:0"
         offset="1" />
    </linearGradient>
    <linearGradient
       id="linearGradient4198"
       y2="34"
       xlink:href="#linearGradient4190"
       gradientUnits="userSpaceOnUse"
       x2="13"
       y1="33"
       x1="16" />
    <linearGradient
       id="linearGradient4206"
       y2="34"
       xlink:href="#linearGradient4190"
       gradientUnits="userSpaceOnUse"
       x2="36"
       y1="33.049999"
       x1="32.990002" />
    <radialGradient
       id="radialGradient3626"
       xlink:href="#linearGradient4190"
       gradientUnits="userSpaceOnUse"
       cy="34.157001"
       cx="4.6022"
       gradientTransform="matrix(1,0,0,0.74569,0,8.6866)"
       r="8.3415003" />
    <linearGradient
       gradientTransform="matrix(0.79878884,0,0,0.79878884,169.7406,1042.3879)"
       x1="23.823"
       y1="4.1101999"
       x2="24.559"
       gradientUnits="userSpaceOnUse"
       y2="44"
       id="linearGradient4188-6">
      <stop
         offset="0"
         style="stop-color:#fff"
         id="stop6969-2" />
      <stop
         offset="1"
         style="stop-color:#fff;stop-opacity:0"
         id="stop6971-6" />
    </linearGradient>
    <radialGradient
       r="2.5"
       gradientTransform="matrix(2.0716025,-4.2835592e-7,6.6043984e-7,3.1939878,85.291306,997.87195)"
       cx="23.528"
       cy="10.895"
       gradientUnits="userSpaceOnUse"
       id="radialGradient4143-8">
      <stop
         offset="0"
         style="stop-color:#828282"
         id="stop4576-7" />
      <stop
         offset="1"
         style="stop-color:#646662"
         id="stop4578-9" />
    </radialGradient>
    <linearGradient
       x1="24.500002"
       y1="2.999995"
       x2="24.5"
       gradientUnits="userSpaceOnUse"
       xlink:href="#linearGradient4555"
       y2="44.5"
       id="linearGradient4135-2"
       gradientTransform="matrix(1.4915419,0,0,1.4915419,98.939063,1018.0689)" />
    <linearGradient
       y2="923.4082"
       x2="221.89511"
       y1="923.4082"
       x1="47.921783"
       gradientUnits="userSpaceOnUse"
       id="linearGradient7637"
       xlink:href="#linearGradient4616" />
  </defs>
  <metadata
     id="metadata7">
    <rdf:RDF>
      <cc:Work
         rdf:about="">
        <dc:format>image/svg+xml</dc:format>
        <dc:type
           rdf:resource="http://purl.org/dc/dcmitype/StillImage" />
        <dc:title>Polychromatic Headset</dc:title>
        <cc:license
           rdf:resource="https://www.gnu.org/licenses/old-licenses/gpl-2.0.en.html" />
        <dc:date />
        <dc:creator>
          <cc:Agent>
            <dc:title>Luke Horwell</dc:title>
          </cc:Agent>
        </dc:creator>
        <dc:rights>
          <cc:Agent>
            <dc:title />
          </cc:Agent>
        </dc:rights>
        <dc:description />
        <dc:contributor>
          <cc:Agent>
            <dc:title>- Headset outline adapted from GNOME symbolic headset icon.</dc:title>
          </cc:Agent>
        </dc:contributor>
        <dc:subject>
          <rdf:Bag />
        </dc:subject>
        <dc:coverage />
      </cc:Work>
    </rdf:RDF>
  </metadata>
  <g
     transform="translate(-35.09189,-847.07199)"
     id="layer1">
    <g
       style="stroke:url(#linearGradient4219);stroke-opacity:1"
       transform="matrix(1.2518953,0,0,1.2518953,-22.749081,-360.20666)"
       id="g4839">
      <g
         style="stroke:url(#linearGradient7637)"
         id="layer10"
         transform="matrix(1.0674014,0,0,1.0674014,-39.744011,466.96318)">
        <path
           id="path10296"
           style="fill:#00ff00;fill-opacity:1;stroke:#00ff00;stroke-width:2.09407;stroke-opacity:1"
           d="m 97.891972,467.7846 c -6.92196,0 -12.614489,6.29981 -12.498687,11.97558 0.129079,6.32871 1.955006,9.83273 2.355833,11.05922 h 2.93275 c -2.432267,-4.79856 -2.196893,-10.79746 -2.196893,-10.79746 0,-4.9684 4.202177,-9.03069 9.406787,-9.03069 5.204818,0 9.422908,4.02188 9.406788,9.16157 -0.049,3.50569 -0.35951,4.78203 -2.10497,10.07773 h 3.28917 c 0.47011,-1.3498 2.18631,-4.32114 2.18631,-10.26977 0,-5.92581 -5.70845,-12.1718 -12.630193,-12.1718 z" />
        <rect
           id="rect10298"
           style="fill:#00ff00;fill-opacity:1;stroke:#00ff00;stroke-width:2.09406;stroke-opacity:1"
           rx="3.8987319"
           ry="3.8980978"
           transform="matrix(-0.96317342,-0.26888095,-0.30267156,0.95309492,0,0)"
           width="6.5854187"
           y="436.12854"
           x="-252.04584"
           height="10.74652" />
        <rect
           id="rect10300"
           style="fill:#00ff00;fill-opacity:1;stroke:#00ff00;stroke-width:2.09406;stroke-opacity:1"
           rx="3.8987319"
           ry="3.8980978"
           transform="matrix(0.96317342,-0.26888095,0.30267156,0.95309492,0,0)"
           width="6.5854187"
           y="488.87891"
           x="-65.104813"
           height="10.74652" />
        <rect
           id="rect10302"
           style="color:#000000;fill:#00ff00;fill-opacity:1;stroke:none;stroke-width:2.09407;stroke-opacity:1"
           rx="2.0613639"
           ry="2.0613639"
           height="4.1228118"
           width="8.1798697"
           y="497.03879"
           x="93.900673" />
        <path
           id="path10304"
           style="color:#000000;text-indent:0;text-transform:none;fill:#00ff00;fill-opacity:1;stroke:none;stroke-width:2.09407;stroke-opacity:1"
           d="m 107.57706,487.48983 a 1.0471414,1.0471414 0 0 0 -0.13088,2.02863 l 3.0741,1.10986 -0.0654,3.66463 c -0.0103,1.11415 -0.28456,1.81705 -0.6544,2.22495 -0.36856,0.39788 -0.84182,0.58634 -1.50354,0.58634 h -8.703389 a 1.0471414,1.0471414 0 1 0 0,2.09408 h 8.703389 c 1.14661,0 2.28819,-0.44022 3.07577,-1.3088 0.78754,-0.86858 1.16431,-2.11292 1.17792,-3.59929 l 0.0649,-4.39756 v -0.71984 l -0.65439,-0.26175 -3.72997,-1.37424 a 1.0471414,1.0471414 0 0 0 -0.6544,-0.0653 z" />
      </g>
    </g>
  </g>
</svg>
