<svg width="48" height="48" version="1.1" viewBox="0 0 48 48" xmlns="http://www.w3.org/2000/svg" xmlns:xlink="http://www.w3.org/1999/xlink">
  <title>Polychromatic Keypad</title>
  <defs>
    <linearGradient id="linearGradient4219" x1="47.922" x2="221.9" y1="923.41" y2="923.41" gradientUnits="userSpaceOnUse">
      <stop style="stop-color:#ff0000" offset="0"/>
      <stop style="stop-color:#ffff00" offset=".25"/>
      <stop style="stop-color:#00ffff" offset=".5"/>
      <stop style="stop-color:#0000ff" offset=".75"/>
      <stop style="stop-color:#ff00ff" offset="1"/>
    </linearGradient>
  </defs>
  <g transform="translate(-35.092 -847.07)">
    <g transform="matrix(1.2519 0 0 1.2519 -22.749 -360.21)" style="stroke:url(#linearGradient4219)">
      <path d="m51.61 980.59-1.5136-9.4507 0.96669-2.6329 9.9849-2.5694 11.397 0.50878 1.0684 2.8492-1.2211 10.125 0.20352-0.0254 0.96669-6.4107 0.81405-0.96668 0.05088-1.5518 2.3404 0.94124 1.8316 6.5124-0.83949 4.1466-1.0176 1.9588 0.61054 0.50878 0.7123 2.1878 1.9334 0.71231 0.55966 1.3737-5.9273 2.9255-0.38158-0.0762-0.53422-3.3834-1.1956 1.1193-1.1956-0.0254-0.89037 0.636 0.89037 6.3343-0.38159 0.91583-2.9509 2.7983-2.0606 0.7123-3.4088 0.3561-2.7983-0.2544-3.1545-0.99213-1.4246-0.68685-3.8159-5.3931 0.05088-0.66145 2.9764-8.7002 1.7553-1.8316-3.765-1.3483-0.79378-1.0221" style="fill:none;stroke-width:1.5537;stroke:#00ff00"/>
      <g transform="matrix(1.9451 0 0 1.9451 -45.629 -911.44)" style="fill:#00ff00;stroke-width:.47927;stroke:#00ff00">
        <rect transform="rotate(-4.5914)" x="-26.873" y="968.22" width="1.4584" height="1.0577" style="fill:#00ff00;stroke-linejoin:round;stroke-width:.47927;stroke:#00ff00"/>
        <rect transform="rotate(-4.5914)" x="-26.865" y="970.23" width="1.4584" height="1.0577" style="fill:#00ff00;stroke-linejoin:round;stroke-width:.47927;stroke:#00ff00"/>
        <rect transform="rotate(-4.5914)" x="-26.828" y="972.28" width="1.4584" height="1.0577" style="fill:#00ff00;stroke-linejoin:round;stroke-width:.47927;stroke:#00ff00"/>
      </g>
      <g transform="matrix(1.9451 0 0 1.9451 -45.56 -911.48)" style="fill:#00ff00;stroke-width:.47927;stroke:#00ff00">
        <rect transform="rotate(.86557)" x="68.042" y="966.16" width="1.4584" height="1.0577" style="fill:#00ff00;stroke-linejoin:round;stroke-width:.47927;stroke:#00ff00"/>
        <rect transform="rotate(.86557)" x="70.461" y="966.13" width="1.4584" height="1.0577" style="fill:#00ff00;stroke-linejoin:round;stroke-width:.47927;stroke:#00ff00"/>
        <rect transform="rotate(.86557)" x="72.836" y="966.08" width="1.4584" height="1.0577" style="fill:#00ff00;stroke-linejoin:round;stroke-width:.47927;stroke:#00ff00"/>
      </g>
      <g transform="matrix(1.9451 0 0 1.9451 -45.577 -907.64)" style="fill:#00ff00;stroke-width:.47927;stroke:#00ff00">
        <rect transform="rotate(.86557)" x="68.042" y="966.16" width="1.4584" height="1.0577" style="fill:#00ff00;stroke-linejoin:round;stroke-width:.47927;stroke:#00ff00"/>
        <rect transform="rotate(.86557)" x="70.461" y="966.13" width="1.4584" height="1.0577" style="fill:#00ff00;stroke-linejoin:round;stroke-width:.47927;stroke:#00ff00"/>
        <rect transform="rotate(.86557)" x="72.836" y="966.08" width="1.4584" height="1.0577" style="fill:#00ff00;stroke-linejoin:round;stroke-width:.47927;stroke:#00ff00"/>
      </g>
      <g transform="matrix(1.9451 0 0 1.9451 -45.656 -903.62)" style="fill:#00ff00;stroke-width:.47927;stroke:#00ff00">
        <rect transform="rotate(.86557)" x="68.042" y="966.16" width="1.4584" height="1.0577" style="fill:#00ff00;stroke-linejoin:round;stroke-width:.47927;stroke:#00ff00"/>
        <rect transform="rotate(.86557)" x="70.461" y="966.13" width="1.4584" height="1.0577" style="fill:#00ff00;stroke-linejoin:round;stroke-width:.47927;stroke:#00ff00"/>
        <rect transform="rotate(.86557)" x="72.836" y="966.08" width="1.4584" height="1.0577" style="fill:#00ff00;stroke-linejoin:round;stroke-width:.47927;stroke:#00ff00"/>
      </g>
    </g>
  </g>
</svg>
