<svg width="48" height="48" version="1.1" viewBox="0 0 48 48" xmlns="http://www.w3.org/2000/svg">
  <path d="m47 15.011v-2.5113c0-1.27-1.03-2.3-2.3-2.3h-41.4c-1.27 0-2.3 1.03-2.3 2.3v2.5113c1.3369.47509 2.3 1.7387 2.3 3.2387s-.96312 2.7636-2.3 3.2387v7.1113h46v-7.1113c-1.3369-.4751-2.3-1.7387-2.3-3.2387s.96312-2.7636 2.3-3.2387zm-29.9 8.9887h-4.6v-9.2h4.6zm9.2 0h-4.6v-9.2h4.6zm9.2 0h-4.6v-9.2h4.6zm-34.5 13.8h4.6v-1.9169c0-.63537.51462-1.15 1.15-1.15s1.15.51463 1.15 1.15v1.9169h9.2v-1.9169c0-.63537.51462-1.15 1.15-1.15s1.15.51463 1.15 1.15v1.9169h9.2v-1.9169c0-.63537.51462-1.15 1.15-1.15s1.15.51463 1.15 1.15v1.9169h9.2v-1.9169c0-.63537.51462-1.15 1.15-1.15s1.15.51463 1.15 1.15v1.9169h4.6v-6.9h-46z" style="fill:#00ff00;stroke-width:.071875"/>
</svg>
