<?xml version="1.0" encoding="UTF-8" standalone="no"?>
<svg
   xmlns:dc="http://purl.org/dc/elements/1.1/"
   xmlns:cc="http://creativecommons.org/ns#"
   xmlns:rdf="http://www.w3.org/1999/02/22-rdf-syntax-ns#"
   xmlns:svg="http://www.w3.org/2000/svg"
   xmlns="http://www.w3.org/2000/svg"
   height="24"
   width="24"
   id="svg4"
   version="1.1"
   viewBox="0 0 24 24">
  <metadata
     id="metadata10">
    <rdf:RDF>
      <cc:Work
         rdf:about="">
        <dc:format>image/svg+xml</dc:format>
        <dc:type
           rdf:resource="http://purl.org/dc/dcmitype/StillImage" />
        <dc:title></dc:title>
      </cc:Work>
    </rdf:RDF>
  </metadata>
  <defs
     id="defs8" />
  <path
     style="fill:#00ff00;stroke-width:0.034375"
     d="M 23,7.701062 V 6.5 C 23,5.892596 22.507404,5.4 21.9,5.4 H 2.1 C 1.492591,5.4 1,5.892596 1,6.5 V 7.701062 C 1.639375,7.928279 2.1,8.532596 2.1,9.25 2.1,9.967404 1.639375,10.571716 1,10.798937 V 14.2 H 23 V 10.798937 C 22.360625,10.571716 21.9,9.967404 21.9,9.25 21.9,8.532596 22.360625,7.928279 23,7.701062 Z M 8.7,12 H 6.5 V 7.6 h 2.2 z m 4.4,0 H 10.9 V 7.6 h 2.2 z m 4.4,0 H 15.3 V 7.6 h 2.2 z M 1,18.6 h 2.2 v -0.916779 c 0,-0.303874 0.246125,-0.55 0.55,-0.55 0.303875,0 0.55,0.246126 0.55,0.55 V 18.6 h 4.4 v -0.916779 c 0,-0.303874 0.246125,-0.55 0.55,-0.55 0.303875,0 0.55,0.246126 0.55,0.55 V 18.6 h 4.4 v -0.916779 c 0,-0.303874 0.246125,-0.55 0.55,-0.55 0.303875,0 0.55,0.246126 0.55,0.55 V 18.6 h 4.4 v -0.916779 c 0,-0.303874 0.246125,-0.55 0.55,-0.55 0.303875,0 0.55,0.246126 0.55,0.55 V 18.6 H 23 V 15.3 H 1 Z"
     id="path1019" />
</svg>
