<svg width="48" height="48" version="1.1" viewBox="0 0 48 48" xmlns="http://www.w3.org/2000/svg" xmlns:xlink="http://www.w3.org/1999/xlink"><defs><linearGradient id="linearGradient3838" x1="25.072" x2="38.853" y1="25.353" y2="39.134" gradientTransform="matrix(1.1324 0 0 1.1324 -5.9351 -5.5903)" gradientUnits="userSpaceOnUse"><stop style="stop-color:#7c0404" offset="0"/><stop style="stop-color:#a40404;stop-opacity:0" offset="1"/></linearGradient></defs><path d="m46 24c0 12.152-9.85 22-22 22-12.149 0-22-9.848-22-22 0-12.146 9.8506-22 22-22 12.15 0 22 9.8542 22 22z" stroke-width=".08871" style="fill:#a40404"/><path d="m31.468 15.339 13.367 13.367-5.2265 9.0525-10.54 6.879-14.503-14.221z" style="fill-rule:evenodd;fill:url(#linearGradient3838)"/><path d="m33.031 18.482-5.5177 5.5177 5.5177 5.5177c.41694.41694.41694 1.0911 0 1.5081l-2.0048 2.0048c-.41694.41694-1.0911.41694-1.5081 0l-5.5177-5.5177-5.5177 5.5177c-.41694.41694-1.0911.41694-1.5081 0l-2.0048-2.0048c-.41694-.41694-.41694-1.0911 0-1.5081l5.5177-5.5177-5.5177-5.5177c-.41694-.41694-.41694-1.0911 0-1.5081l2.0048-2.0048c.41694-.41694 1.0911-.41694 1.5081 0l5.5177 5.5177 5.5177-5.5177c.41694-.41694 1.0911-.41694 1.5081 0l2.0048 2.0048c.41694.41694.41694 1.0911 0 1.5081z" style="fill:#ffffff;stroke-width:.08871"/></svg>
