<svg width="48" height="48" version="1.1" viewBox="0 0 48 48" xmlns="http://www.w3.org/2000/svg" xmlns:xlink="http://www.w3.org/1999/xlink"><defs><linearGradient id="linearGradient4265" x1="24.439" x2="43.982" y1="24.615" y2="40.925" gradientUnits="userSpaceOnUse"><stop style="stop-color:#ca9009" offset="0"/><stop style="stop-color:#000000;stop-opacity:0" offset="1"/></linearGradient></defs><path d="m45.505 38.057c1.41 2.444-.35986 5.499-3.176 5.499h-36.658c-2.8216 0-4.5832-3.0598-3.176-5.499l18.33-31.78c1.4107-2.4452 4.9438-2.4408 6.352 0z" stroke-width=".076388" style="fill:#fcb60b"/><path d="m21.446 38.565 6.897 4.9554h14.291l1.5584-.41758 1.2836-1.2836.54396-2.0301-.39708-1.4819-5.0988-8.8314-13.97-13.97-5.1086 16.935z" style="fill-rule:evenodd;fill:url(#linearGradient4265);opacity:.25"/><g transform="matrix(-.87477 0 0 -.87477 45.008 50.937)" style="fill:#ffffff;stroke-width:1px" aria-label="i"><path d="m21.096 14.143h5.84v4.72h-5.84zm0 7h5.84v19.36h-5.84z" style="-inkscape-stroke:none;color:#000000"/></g></svg>
