<svg width="128" height="128" version="1.1" viewBox="0 0 120 120" xmlns="http://www.w3.org/2000/svg" xmlns:xlink="http://www.w3.org/1999/xlink"><title>Polychromatic</title><defs><linearGradient id="linearGradient4616"><stop style="stop-color:#ff0000" offset="0"/><stop style="stop-color:#ffff00" offset=".25"/><stop style="stop-color:#00ffff" offset=".5"/><stop style="stop-color:#0000ff" offset=".75"/><stop style="stop-color:#ff00ff" offset="1"/></linearGradient><linearGradient id="linearGradient4730" x1="47.922" x2="221.9" y1="923.41" y2="923.41" gradientUnits="userSpaceOnUse" xlink:href="#linearGradient4616"/><linearGradient id="linearGradient4779" x1="43" x2="69" y1="994.36" y2="1017.4" gradientTransform="matrix(1.5369,0,0,1.5369,-9.2466,-526.67)" gradientUnits="userSpaceOnUse"><stop style="stop-color:#000000;stop-opacity:.57647" offset="0"/><stop style="stop-color:#000000;stop-opacity:.57647" offset=".47826"/><stop style="stop-color:#000000;stop-opacity:0" offset="1"/></linearGradient></defs><g transform="matrix(1.28 0 0 1.28 -17.92 -1249.7)"><rect x="14" y="976.36" width="93.75" height="93.75" ry="2.3176e-5" style="fill:#01ff20"/><rect x="17.074" y="979.44" width="87.602" height="87.602" ry="2.1656e-5" style="fill:#222222"/><path d="m86.04 993.87v24.59h-55.328l18.444 18.441 4.6095-7.6824c5.43 1.4683 11.576-3.7852 8.4733 1.0045-.50382.9906 6.0861 3.6454 5.3581 3.6049l-3.073 10.758-3.073 7.6855-4.6095 4.6095-7.6857 1e-4s9.0624 8.5731 14.844 10.172c13.089 3.6205 40.667-2.4876 40.667-2.4876l.0105-53.791z" style="fill-rule:evenodd;fill:url(#linearGradient4779)"/><g transform="matrix(1.4334,0,0,1.4334,1.4986,-421.48)"><g transform="matrix(1.3051,0,0,1.3051,40.629,-297.14)" style="opacity:0"><g transform="matrix(.18234 0 0 .18234 -23.79 814.03)" style="fill:none;stroke:url(#linearGradient4730)"><g transform="translate(1.8082)" style="fill:#01ff1f;stroke:url(#linearGradient4730)"></g><g transform="translate(1.8082,23.24)" style="fill:#01ff1f;stroke:url(#linearGradient4730)"></g></g></g><path d="m20.379 987.38v17.155h38.598v-17.155l-38.598 2e-5zm2.1444 2.1444 34.31-2e-5v12.866h-34.31z" style="color-rendering:auto;color:#000000;fill-rule:evenodd;fill:#01ff20;image-rendering:auto;isolation:auto;mix-blend-mode:normal;shape-rendering:auto;solid-color:#000000;text-decoration-color:#000000;text-decoration-line:none;text-decoration-style:solid;text-indent:0;text-transform:none;white-space:normal"/><path d="m58.373 998.37c1.247-.0939 2.5393.23294 3.5918.9082 1.0525.67527 1.8898 1.716 2.3242 2.8887.494 1.3333.46925 2.8796-.08789 4.1718-.55568 1.2889-1.6697 2.3616-2.9746 2.8379-1.4128.5157-3.0926.3892-4.7617.039-1.6776-.3513-3.4283-.9237-5.3477-1.0684-3.2803-.2472-6.6068.8899-9.0508 3.0918l-.68555.6172 1.2344 1.3711.68555-.6172c2.0557-1.852 4.9186-2.831 7.6777-2.623 1.629.1227 3.3022.6551 5.1074 1.0332 1.8137.3804 3.8436.595 5.7734-.1094 1.813-.6617 3.2787-2.0828 4.0371-3.8418.75692-1.7556.7822-3.7658.12305-5.5449-.57702-1.5573-1.6607-2.902-3.0586-3.7988-1.3979-.89682-3.0704-1.32-4.7266-1.1953z" style="color-rendering:auto;color:#000000;fill-rule:evenodd;fill:#01ff1f;image-rendering:auto;isolation:auto;mix-blend-mode:normal;shape-rendering:auto;solid-color:#000000;text-decoration-color:#000000;text-decoration-line:none;text-decoration-style:solid;text-indent:0;text-transform:none;white-space:normal"/><path d="m36.279 1011.3c-2.2045 2.6228-3.7169 5.967-4.3045 8.9803-.84885 1.8309-1.3302 2.9128-1.6963 4.218-.93162 2.925.78 6.1575 3.9052 7.4053 3.1271 1.2486 6.6182.088 7.998-2.6596 1.0092-1.8133 1.3122-3.0808 1.7022-4.1108 1.5547-3.3521 3.3309-6.4565 3.2844-9.6169-1.3772-1.5215-3.1115-2.9005-4.7846-3.6043-2.1252-.584-4.2434-1.2207-6.1044-.612zm9.0301 4.911c-.04511 2.3598-1.4148 5.1393-3.0876 8.1003-.68639 1.3785-1.0675 2.9116-1.7006 4.1116-.9122 1.8231-3.3182 2.7057-5.6423 1.7778-2.7059-1.0099-3.3257-3.4151-2.8175-5.1938.59747-1.7813 1.1103-2.9167 1.7103-4.2669.46646-2.5614 1.5039-5.5181 3.5494-7.8101.77982-.1568 2.6782.012 4.1409.6027 1.4627.5904 2.7589 1.4683 3.8475 2.6784z" style="color-rendering:auto;color:#000000;fill:#01ff1f;image-rendering:auto;isolation:auto;mix-blend-mode:normal;shape-rendering:auto;solid-color:#000000;text-decoration-color:#000000;text-decoration-line:none;text-decoration-style:solid;text-indent:0;text-transform:none;white-space:normal"/><path d="m41.391 1014.6c-.56774-.2267-1.2186.046-1.4478.6078l-.83276 2.04c-.22922.5615.04751 1.2049.61526 1.4316.56774.2267 1.2182-.047 1.4474-.608l.83276-2.04c.22922-.5615-.04708-1.2047-.61482-1.4314z" style="color-rendering:auto;color:#000000;fill:#01ff1f;image-rendering:auto;isolation:auto;mix-blend-mode:normal;shape-rendering:auto;solid-color:#000000;text-decoration-color:#000000;text-decoration-line:none;text-decoration-style:solid;text-indent:0;text-transform:none;white-space:normal"/><path transform="matrix(1.0052,0,0,1.0052,7.513,973.44)" d="m17.066 18.131v3.1992h3.1992v-3.1992zm5.332 0v3.1992h3.2012v-3.1992zm5.334 0v3.1992h3.2012v-3.1992zm5.334 0v3.1992h3.1992v-3.1992zm5.332 0v3.1992h3.2012v-3.1992zm5.334 0v3.1992h3.2012v-3.1992zm-26.666 5.334v3.1992h3.1992v-3.1992zm5.332 0v3.1992h3.2012v-3.1992zm5.334 0v3.1992h3.2012v-3.1992zm5.334 0v3.1992h3.1992v-3.1992zm5.332 0v3.1992h3.2012v-3.1992zm5.334 0v3.1992h3.2012v-3.1992z" style="fill:#01ff20"/></g></g></svg>
