<?xml version="1.0" encoding="UTF-8" standalone="no"?>
<svg id="BaseStation-v2"
 version="1.1"
 width="365.29172"
 height="396.00229"
 viewBox="0 0 342.46097 371.25215"
 xmlns:xlink="http://www.w3.org/1999/xlink"
 xmlns="http://www.w3.org/2000/svg"
 xmlns:svg="http://www.w3.org/2000/svg"
 xmlns:rdf="http://www.w3.org/1999/02/22-rdf-syntax-ns#"
 xmlns:cc="http://creativecommons.org/ns#"
 xmlns:dc="http://purl.org/dc/elements/1.1/">
 <metadata id="BaseStation-v2">
  <rdf:RDF>
  <cc:Work
   rdf:about="">
   <dc:format>image/svg+xml</dc:format>
   <dc:type
    rdf:resource="http://purl.org/dc/dcmitype/StillImage" />
  </cc:Work>
  </rdf:RDF>
 </metadata>
 <path id="background"
  style="color:#000000;display:inline;fill:#0f0f0f;stroke-width:14.9174;-inkscape-stroke:none"
  d="m 13.0836,200.16956 c 0,87.26724 70.804219,158.0113 158.14562,158.01131 87.34139,-1e-5 158.1456,-70.74409 158.1456,-158.01131 C 329.17737,116.37651 264.07952,43.032187 171.68302,42.459623 79.286417,41.887057 13.285938,116.37651 13.0836,200.16956 Z" />
 <path id="Logo" nostroke="true"
  style="color:#000000;font-style:normal;font-variant:normal;font-weight:normal;font-stretch:normal;font-size:medium;line-height:normal;font-family:sans-serif;font-variant-ligatures:normal;font-variant-position:normal;font-variant-caps:normal;font-variant-numeric:normal;font-variant-alternates:normal;font-feature-settings:normal;text-indent:0;text-align:start;text-decoration:none;text-decoration-line:none;text-decoration-style:solid;text-decoration-color:#000000;letter-spacing:normal;word-spacing:normal;text-transform:none;writing-mode:lr-tb;direction:ltr;text-orientation:mixed;dominant-baseline:auto;baseline-shift:baseline;text-anchor:start;white-space:normal;shape-padding:0;clip-rule:nonzero;display:inline;overflow:visible;visibility:visible;isolation:auto;mix-blend-mode:normal;color-interpolation:sRGB;color-interpolation-filters:linearRGB;solid-color:#000000;solid-opacity:1;fill:#606060;fill-opacity:1;fill-rule:evenodd;stroke:none;stroke-width:3.03562;stroke-linecap:round;stroke-linejoin:miter;stroke-miterlimit:4;stroke-dasharray:none;stroke-dashoffset:0;stroke-opacity:1;color-rendering:auto;image-rendering:auto;shape-rendering:auto;text-rendering:auto;enable-background:accumulate"
  d="m 196.86708,165.44813 -2.64218,1.23597 a 1.5177685,1.5177903 0 0 0 -1.09313,-0.44493 1.5177685,1.5177903 0 0 0 -0.81847,0.2583 c -0.204,0.1317 -0.42177,0.2427 -0.64818,0.32958 -0.55289,0.2127 -1.44114,0.30924 -2.49386,0.78006 -0.53189,0.2379 -1.09315,0.5847 -1.56004,1.13154 -0.47904,0.56118 -0.82584,1.29675 -0.81297,2.16432 0.0135,0.92226 0.397,1.56816 0.64271,2.00497 0.13695,0.2436 0.22275,0.40611 0.26916,0.51639 -0.073,0.001 -0.19491,-0.018 -0.3296,-0.0771 -0.14205,-0.0624 -0.30527,-0.1713 -0.48338,-0.32406 -0.35914,-0.30834 -0.75567,-0.81265 -1.29638,-1.39528 -0.54847,-0.591 -1.27409,-1.27023 -2.34004,-1.59849 -1.14501,-0.35256 -2.32632,-0.1656 -3.30683,0.38454 -0.96622,0.54207 -1.6589,1.38915 -2.0709,2.33458 -0.47151,1.08195 -0.55531,2.22735 -0.41199,3.2904 0.14235,1.05459 0.50255,2.01171 0.92285,2.86743 1.51075,3.07596 3.99588,5.28669 6.21266,7.35534 2.20783,2.06023 4.26143,4.1296 5.25139,6.56431 0.45704,1.12404 0.6407,2.28795 0.401,3.24099 -0.22711,0.90195 -0.89099,1.7589 -1.73031,2.24667 -0.84759,0.49257 -1.93941,0.66912 -2.9443,0.48342 -0.96431,-0.1782 -1.94979,-0.68739 -2.89486,-1.36785 -0.94997,-0.68397 -1.87973,-1.54503 -2.9278,-2.41146 -1.04988,-0.86796 -2.2328,-1.75005 -3.66937,-2.32911 -1.45427,-0.58617 -3.16143,-0.83781 -4.82844,-0.32409 -1.05582,0.32535 -1.99917,0.93477 -2.73005,1.76331 -0.17691,0.2004 -0.29175,0.44385 -0.43944,0.66468 -0.27702,-0.2322 -0.55013,-0.47799 -0.76353,-0.76905 -0.56865,-0.77553 -0.91672,-1.79262 -1.06567,-2.88393 -0.14985,-1.0989 -0.10995,-2.28783 -0.0168,-3.53757 0.0935,-1.25041 0.23908,-2.57233 0.23626,-3.97156 -0.003,-1.40229 -0.15667,-2.89152 -0.70864,-4.33407 -0.51253,-1.33965 -1.37732,-2.63469 -2.7026,-3.50466 -0.6638,-0.43575 -1.42847,-0.74904 -2.25216,-0.87339 -0.41354,-0.0624 -0.836,-0.0789 -1.2579,-0.0387 -0.42189,0.0405 -0.84303,0.1371 -1.25244,0.291 -0.89264,0.33633 -1.60653,0.90483 -2.16427,1.53261 -0.55335,0.62286 -0.94619,1.29177 -1.27438,1.9281 -1.53042,2.96718 -2.0563,6.18819 -2.49386,9.20653 -0.43686,3.01347 -0.81992,5.92566 -1.87315,8.47044 -0.26664,0.64443 -0.55434,1.18632 -0.88986,1.57107 -0.32211,0.3693 -0.72258,0.60576 -1.03271,0.65367 -0.24441,0.0378 -0.54399,-0.0327 -0.74156,-0.1647 -0.19575,-0.1311 -0.36309,-0.37806 -0.412,-0.59874 -0.0599,-0.2706 -0.001,-0.73416 0.18675,-1.3074 0.19209,-0.58512 0.52247,-1.3062 0.69212,-2.2467 0.0852,-0.47265 0.12486,-1.00164 0.0439,-1.56006 -0.0816,-0.56403 -0.28359,-1.1448 -0.67015,-1.66995 -0.39307,-0.53391 -0.94988,-0.97251 -1.66442,-1.17552 -0.73157,-0.2079 -1.53335,-0.1416 -2.24667,0.2967 -0.51659,0.31755 -0.83699,0.74265 -1.05467,1.12611 -0.21348,0.37605 -0.32166,0.70515 -0.41197,0.95031 -0.056,0.1521 -0.0931,0.2235 -0.12627,0.2967 -0.0554,-0.021 -0.10659,-0.0303 -0.20868,-0.1101 -0.30436,-0.2367 -0.69979,-0.82971 -1.45567,-1.49961 -0.31229,-0.2769 -0.65474,-0.52095 -1.02171,-0.71961 a 1.5177685,1.5177903 0 0 0 -1.6589,0.1152 l -0.26915,-0.2307 -2.24117,-0.73611 -0.006,-0.006 -0.006,0.012 v 0.006 l 2.00497,1.68642 a 1.5177685,1.5177903 0 0 0 0.7306,1.8237 c 0.16226,0.0876 0.3178,0.1962 0.45593,0.3186 0.33605,0.2979 0.75685,0.96675 1.60396,1.626 0.4302,0.33477 0.97238,0.64371 1.6589,0.75804 0.71192,0.1185 1.51055,0.012 2.20275,-0.50538 0.40654,-0.30324 0.65853,-0.66033 0.83493,-0.98328 0.17382,-0.3183 0.27,-0.5955 0.34608,-0.80202 0.0588,-0.1596 0.0914,-0.2316 0.13191,-0.32406 0.0252,0.0564 0.0534,0.096 0.0658,0.1815 0.0225,0.15 0.0141,0.35055 -0.0282,0.5823 -0.0844,0.46839 -0.3332,1.07067 -0.58775,1.84569 -0.25848,0.7869 -0.51341,1.78413 -0.26352,2.91138 0.22557,1.01835 0.82729,1.88628 1.68638,2.46092 0.85726,0.57345 1.88496,0.79866 2.89486,0.64272 1.21065,-0.1869 2.16705,-0.86856 2.85638,-1.65893 0.67593,-0.77499 1.08449,-1.62855 1.40624,-2.40603 1.26065,-3.04602 1.63966,-6.22089 2.07089,-9.19554 0.43051,-2.96977 0.94302,-5.83486 2.18624,-8.24521 0.2655,-0.5145 0.53929,-0.96222 0.84593,-1.30737 0.30231,-0.34026 0.64774,-0.58839 0.96678,-0.7086 0.28956,-0.1092 0.64473,-0.1455 0.98878,-0.0933 0.34745,0.0525 0.70637,0.1923 1.03267,0.4065 0.65503,0.42999 1.20416,1.18164 1.53808,2.05443 0.3684,0.96297 0.50848,2.08422 0.51085,3.25749 0.003,1.17636 -0.13215,2.42286 -0.23064,3.74081 -0.0984,1.31867 -0.16539,2.71628 0.0328,4.16933 0.19941,1.46061 0.67714,2.97216 1.63145,4.27365 0.38801,0.5292 0.85156,0.9951 1.36226,1.40625 l 1.10413,1.15908 a 1.5177685,1.5177903 0 0 0 1.16453,0.48339 1.5177685,1.5177903 0 0 0 0.0658,0 1.5177685,1.5177903 0 0 0 1.06016,-0.40101 c 0.34228,0.32937 0.62428,0.73413 0.77453,1.18101 0.17073,0.50793 0.20165,1.0871 0.0824,1.60952 -0.19015,0.83205 -0.79292,1.66686 -1.60398,2.30163 -0.82611,0.64653 -1.88511,1.1289 -3.04316,1.56006 -1.16029,0.43197 -2.43942,0.82008 -3.74079,1.40625 -1.30692,0.58866 -2.64163,1.38993 -3.69135,2.62023 -1.12057,1.3133 -1.79027,3.00008 -1.78526,4.76807 0.006,1.77749 0.69968,3.5243 2.00497,4.79 1.34399,1.30326 3.07615,1.87905 4.70209,2.1039 3.4293,0.47421 6.68182,-0.47106 9.61836,-1.36782 2.92483,-0.89313 5.73068,-1.75497 8.38794,-1.5765 0.73357,0.0492 1.41084,0.1803 1.98849,0.41745 0.56977,0.234 1.05475,0.59088 1.35677,0.99975 0.2554,0.34581 0.39989,0.76188 0.39553,1.11513 -0.003,0.33693 -0.16425,0.68886 -0.35705,0.86793 -0.19574,0.1818 -0.60293,0.36612 -1.16454,0.49437 -0.57277,0.1308 -1.32307,0.2151 -2.18076,0.51636 -0.43062,0.1512 -0.88637,0.36387 -1.31834,0.68115 -0.43561,0.31998 -0.83912,0.73734 -1.12608,1.28541 -0.29117,0.55611 -0.44417,1.20858 -0.35156,1.90611 0.0945,0.71223 0.43704,1.39539 1.06019,1.88415 0.49817,0.39081 1.02818,0.53955 1.47764,0.60975 0.44076,0.069 0.79353,0.063 1.05467,0.0657 0.41363,0.006 0.62186,0.0642 0.61523,0.0606 -0.0198,-0.012 0.0517,0.0462 0.0877,0.1482 0.0425,0.1197 0.0656,0.32568 0.0386,0.58779 -0.0554,0.53622 -0.37779,1.30857 -0.54929,2.39501 -0.0703,0.44583 -0.0939,0.89979 -0.0714,1.35132 a 1.5177685,1.5177903 0 0 0 0.89534,1.32384 l 0.0659,0.37905 1.25241,2.00499 0.0168,-0.006 -0.006,-0.006 -0.40648,-2.27415 a 1.5177685,1.5177903 0 0 0 1.21397,-1.57656 c -0.0105,-0.2418 4.8e-4,-0.4851 0.0386,-0.72507 0.0923,-0.58515 0.45264,-1.4072 0.5713,-2.55431 0.0598,-0.57933 0.0369,-1.2395 -0.20334,-1.91711 -0.24639,-0.69525 -0.70911,-1.36278 -1.46664,-1.78527 -0.80563,-0.44931 -1.55329,-0.43929 -2.05441,-0.44496 -0.28011,-0.003 -0.46412,-0.006 -0.58227,-0.021 0.0348,-0.0645 0.10665,-0.1599 0.22527,-0.2472 0.1251,-0.0921 0.30585,-0.1803 0.52734,-0.2583 0.44655,-0.1569 1.07627,-0.246 1.85119,-0.42297 0.78608,-0.1794 1.73705,-0.47145 2.55427,-1.23045 0.87785,-0.81534 1.30995,-1.93002 1.32381,-3.05421 0.0135,-1.10784 -0.37048,-2.13129 -0.98325,-2.96082 -0.70124,-0.94932 -1.65539,-1.5921 -2.64765,-1.9995 -0.98439,-0.40416 -1.98762,-0.57333 -2.93879,-0.63723 -3.41922,-0.22948 -6.5812,0.81738 -9.48108,1.70289 -2.8881,0.88194 -5.70756,1.62345 -8.31103,1.26342 -1.20192,-0.1662 -2.2992,-0.59028 -3.00468,-1.2744 -0.6677,-0.64746 -1.07939,-1.64946 -1.08215,-2.62021 -0.003,-0.98034 0.39138,-2.01315 1.05467,-2.79054 0.63652,-0.74598 1.5694,-1.3455 2.63119,-1.82373 1.0673,-0.48072 2.27964,-0.85488 3.55401,-1.32933 1.27658,-0.47529 2.63092,-1.0614 3.85064,-2.016 1.23478,-0.96639 2.30301,-2.31495 2.69161,-4.01553 0.24608,-1.07706 0.19265,-2.20465 -0.15918,-3.25192 -0.3521,-1.04724 -0.98784,-1.97655 -1.83467,-2.68614 a 1.5177685,1.5177903 0 0 0 -0.27477,-0.1815 c 0.29392,-0.2358 0.61775,-0.44007 0.97226,-0.5493 0.81567,-0.2514 1.84077,-0.1434 2.79599,0.2415 0.97296,0.39216 1.92048,1.05834 2.8729,1.84569 0.9542,0.78885 1.92878,1.70388 3.08709,2.53785 1.16325,0.83752 2.52401,1.59568 4.11432,1.88962 1.69761,0.3138 3.4921,0.0477 5.02066,-0.84045 1.53685,-0.89308 2.70408,-2.36752 3.14756,-4.13083 0.45663,-1.81557 0.0909,-3.60459 -0.52736,-5.12514 -1.30396,-3.207 -3.74809,-5.54617 -5.99294,-7.64095 -2.23587,-2.08644 -4.38489,-4.08594 -5.55899,-6.47646 -0.32414,-0.65991 -0.55375,-1.31472 -0.63719,-1.93359 -0.0824,-0.61041 -0.0168,-1.20939 0.18675,-1.67541 0.17184,-0.39408 0.46641,-0.72252 0.77453,-0.89538 0.29383,-0.1647 0.67686,-0.2091 0.92832,-0.132 0.25509,0.0786 0.61886,0.34131 1.01075,0.76356 0.39965,0.43065 0.84827,1.03935 1.53805,1.63149 0.34635,0.2973 0.7507,0.58653 1.24145,0.80196 0.49488,0.2175 1.06267,0.35517 1.68086,0.32961 0.62709,-0.024 1.27137,-0.219 1.82921,-0.64821 0.56951,-0.43797 0.98687,-1.07259 1.09862,-1.85667 0.0894,-0.62682 -0.0447,-1.16319 -0.2088,-1.58753 -0.1605,-0.41598 -0.3444,-0.71721 -0.47241,-0.94482 -0.20279,-0.36051 -0.25289,-0.56784 -0.25259,-0.56028 3e-4,0.024 0.012,-0.066 0.0825,-0.1482 0.0825,-0.0969 0.24839,-0.222 0.48884,-0.32958 0.4921,-0.2199 1.32441,-0.33039 2.35106,-0.7251 0.4217,-0.162 0.82337,-0.36474 1.20297,-0.60972 a 1.5177685,1.5177903 0 0 0 0.68665,-1.57656 l 0.61522,-0.2802 1.61497,-1.73586 z m -0.024,0.021 -1.58752,1.70838 -0.61522,0.2802 a 1.5177685,1.5177903 0 0 0 -0.4065,-0.76356 z m -61.50052,23.84582 2.21371,0.73053 0.26352,0.2307 a 1.5177685,1.5177903 0 0 0 -0.49989,0.70311 z m 47.87216,45.26362 a 1.5177685,1.5177903 0 0 0 0.89538,0.0987 l 0.401,2.24673 -1.23593,-1.97754 z" />
 <g id="x7-y0" class="LED">
  <path id="p70"
   style="color:#000000;display:inline;fill:#000000;fill-opacity:1;stroke:#c0c0c0;stroke-width:1.86468;stroke-miterlimit:4;stroke-dasharray:none;stroke-opacity:1"
   d="M 106.09896,47.838134 C 65.295883,65.008876 34.088869,97.98462 17.919034,137.80334 l 13.75122,5.68543 C 46.285354,107.18242 74.53589,77.1304 111.78805,61.527098 Z" />
 </g>
 <g id="x6-y0" class="LED">
  <path id="p60"
   style="color:#000000;display:inline;fill:#000000;fill-opacity:1;stroke:#c0c0c0;stroke-width:1.86468;stroke-miterlimit:4;stroke-dasharray:none;stroke-opacity:1"
   d="M 16.531095,141.28784 C 9.4911308,159.8029 5.6691937,179.71212 5.6198399,200.15075 v 0.009 0.011 c 0,23.10778 4.7798101,45.10278 13.3685291,65.08667 l 13.747559,-5.68359 c -7.828214,-18.21454 -12.183255,-38.28132 -12.185669,-59.3866 7e-6,-0.003 -6e-6,-0.005 0,-0.007 v -0.011 c 0.04673,-18.47623 3.46002,-36.45724 9.724732,-53.19763 z" />
 </g>
 <g id="x5-y0" class="LED">
  <path id="p50"
   style="color:#000000;display:inline;fill:#000000;fill-opacity:1;stroke:#c0c0c0;stroke-width:1.86468;stroke-miterlimit:4;stroke-dasharray:none;stroke-opacity:1"
   d="m 34.261197,262.99987 -13.754883,5.68543 c 17.475957,38.23471 49.092109,68.69786 88.161616,84.66797 l 5.6836,-13.73291 C 78.878094,325.18481 50.191587,297.6441 34.261197,262.99987 Z" />
 </g>
 <g id="x4-y0" class="LED">
  <path id="p40"
   style="color:#000000;display:inline;fill:#000000;fill-opacity:1;stroke:#c0c0c0;stroke-width:1.86468;stroke-miterlimit:4;stroke-dasharray:none;stroke-opacity:1"
   d="m 227.46127,339.87487 c -17.37529,6.97706 -36.33972,10.85266 -56.23169,10.85267 -18.81037,0 -36.79421,-3.46098 -53.38806,-9.7339 l -5.6836,13.73474 c 18.35759,7.01989 38.26091,10.90393 59.07166,10.90393 21.8985,-1.1e-4 42.79208,-4.2978 61.93542,-12.03185 z" />
 </g>
 <g id="x3-y0" class="LED">
  <path id="p30"
   style="color:#000000;display:inline;fill:#000000;fill-opacity:1;stroke:#c0c0c0;stroke-width:1.86468;stroke-miterlimit:4;stroke-dasharray:none;stroke-opacity:1"
   d="m 308.57149,262.04223 c -15.42224,34.16018 -43.1517,61.54792 -77.64037,76.40991 l 5.7019,13.72376 c 38.07916,-16.40203 68.78172,-46.67899 85.74646,-84.42444 z" />
 </g>
 <g id="x2-y0" class="LED">
  <path id="p20"
   style="color:#000000;display:inline;fill:#000000;fill-opacity:1;stroke:#c0c0c0;stroke-width:1.86468;stroke-miterlimit:4;stroke-dasharray:none;stroke-opacity:1"
   d="m 326.34737,142.24548 -13.73657,5.67993 c 5.99276,16.43334 9.25411,34.0705 9.2981,52.25281 -9.4e-4,20.74507 -4.26808,40.45556 -11.84327,58.42346 l 13.81348,5.71106 c 8.33285,-19.73236 12.96203,-41.39954 12.96203,-64.14185 v -0.011 -0.007 c -0.0474,-20.13669 -3.71876,-39.70009 -10.49377,-57.90709 z" />
 </g>
 <g id="x1-y0" class="LED">
  <path id="p10"
   style="color:#000000;display:inline;fill:#000000;fill-opacity:1;stroke:#c0c0c0;stroke-width:1.86468;stroke-miterlimit:4;stroke-dasharray:none;stroke-opacity:1"
   d="m 238.67648,48.989867 -5.65796,13.672485 c 36.58878,15.998345 64.1033,45.781178 78.2428,81.763918 l 13.72924,-5.67444 C 309.28074,99.274357 278.79938,66.563776 238.67648,48.989867 Z" />
 </g>
 <g id="x0-y0" class="LED">
  <path id="p00"
   style="color:#000000;display:inline;fill:#000000;fill-opacity:1;stroke:#c0c0c0;stroke-width:1.86468;stroke-miterlimit:4;stroke-dasharray:none;stroke-opacity:1"
   d="m 171.72945,35.007934 c -22.34868,-0.138491 -43.2209,3.992075 -62.14599,11.44226 l 5.68909,13.690796 c 17.13648,-6.666598 36.0578,-10.354114 56.36535,-10.228272 20.9759,0.129985 40.41787,4.191996 57.91442,11.31958 l 5.6598,-13.674315 C 215.97944,39.656661 194.65321,35.149989 171.72945,35.007934 Z" />
 </g>
 <path id="con"
  style="display:inline;fill:#0f0f0f;fill-opacity:1;stroke:#c0c0c0;stroke-width:0.9375px;stroke-linecap:butt;stroke-linejoin:miter;stroke-opacity:1"
  d="m 173.3005,5.1637459 c -2.35129,0.1497758 -3.74824,2.3976491 -6.6742,0.7708739 l 0.033,21.5496822 h -3.44421 v 2.955322 h 3.44421 v 3.197022 h -3.44421 v 9.472046 h 3.44421 v 2.741088 h -3.44421 v 4.332276 h 16.2561 V 45.84978 h -3.44238 v -2.741088 h 3.44238 v -9.472046 h -3.44238 v -3.197022 h 3.44238 v -2.955322 h -3.44238 l 0.033,-21.5496822 c -1.08795,-0.6374957 -1.97754,-0.820799 -2.76131,-0.7708739 z" />
</svg>
