<?xml version="1.0" encoding="UTF-8" standalone="no"?>
<svg
   width="600"
   height="400"
   viewBox="0 0 158.74999 105.83333"
   version="1.1"
   id="svg8"
   xmlns="http://www.w3.org/2000/svg"
   xmlns:svg="http://www.w3.org/2000/svg"
   xmlns:rdf="http://www.w3.org/1999/02/22-rdf-syntax-ns#"
   xmlns:cc="http://creativecommons.org/ns#">
  <defs
     id="defs7029" />
  <g
     id="LEDs"
     style="stroke:#646464;stroke-width:0.265;stroke-miterlimit:4;stroke-dasharray:none;stroke-opacity:1"
     transform="translate(0.12519,-4.1409932)">
    <path
       id="x0-y0"
       style="fill:#0fff0f;fill-opacity:1;fill-rule:evenodd;stroke:#646464;stroke-width:0.265;stroke-linecap:round;stroke-miterlimit:4;stroke-dasharray:none;stroke-opacity:1;paint-order:markers fill stroke"
       d="M 30.97491,22.831395 V 35.503003 H 52.632136 V 22.831395 Z"
       class="LED" />
    <path
       id="x1-y0"
       style="fill:#0fff0f;fill-opacity:1;fill-rule:evenodd;stroke:#646464;stroke-width:0.265;stroke-linecap:round;stroke-miterlimit:4;stroke-dasharray:none;stroke-opacity:1;paint-order:markers fill stroke"
       d="M 30.97491,35.503003 V 48.174612 H 52.632136 V 35.503003 Z"
       class="LED" />
    <path
       id="x2-y0"
       style="fill:#0fff0f;fill-opacity:1;fill-rule:evenodd;stroke:#646464;stroke-width:0.265;stroke-linecap:round;stroke-miterlimit:4;stroke-dasharray:none;stroke-opacity:1;paint-order:markers fill stroke"
       d="M 30.97491,48.174611 V 60.84622 H 52.632136 V 48.174611 Z"
       class="LED" />
    <path
       id="x3-y0"
       style="fill:#0fff0f;fill-opacity:1;fill-rule:evenodd;stroke:#646464;stroke-width:0.265;stroke-linecap:round;stroke-miterlimit:4;stroke-dasharray:none;stroke-opacity:1;paint-order:markers fill stroke"
       d="M 30.97491,60.846219 V 73.517828 H 52.632136 V 60.846219 Z"
       class="LED" />
    <path
       id="x4-y0"
       style="fill:#0fff0f;fill-opacity:1;fill-rule:evenodd;stroke:#646464;stroke-width:0.265;stroke-linecap:round;stroke-miterlimit:4;stroke-dasharray:none;stroke-opacity:1;paint-order:markers fill stroke"
       d="M 30.97491,73.517828 V 86.189437 H 52.632136 V 73.517828 Z"
       class="LED" />
    <path
       id="x5-y0"
       style="fill:#0fff0f;fill-opacity:1;fill-rule:evenodd;stroke:#646464;stroke-width:0.265;stroke-linecap:round;stroke-miterlimit:4;stroke-dasharray:none;stroke-opacity:1;paint-order:markers fill stroke"
       d="M 30.97491,86.189436 V 98.861045 H 52.632136 V 86.189436 Z"
       class="LED" />
    <path
       id="x6-y0"
       style="fill:#0fff0f;fill-opacity:1;fill-rule:evenodd;stroke:#646464;stroke-width:0.265;stroke-linecap:round;stroke-miterlimit:4;stroke-dasharray:none;stroke-opacity:1;paint-order:markers fill stroke"
       d="M 52.632137,86.189436 V 98.861045 H 70.377252 V 86.189436 Z"
       class="LED" />
    <path
       id="x7-y0"
       style="fill:#0fff0f;fill-opacity:1;fill-rule:evenodd;stroke:#646464;stroke-width:0.265;stroke-linecap:round;stroke-miterlimit:4;stroke-dasharray:none;stroke-opacity:1;paint-order:markers fill stroke"
       d="M 70.377252,86.189436 V 98.861045 H 88.122367 V 86.189436 Z"
       class="LED" />
    <path
       id="x8-y0"
       style="fill:#0fff0f;fill-opacity:1;fill-rule:evenodd;stroke:#646464;stroke-width:0.265;stroke-linecap:round;stroke-miterlimit:4;stroke-dasharray:none;stroke-opacity:1;paint-order:markers fill stroke"
       d="M 88.122367,86.189436 V 98.861045 H 105.86748 V 86.189436 Z"
       class="LED" />
    <path
       id="x9-y0"
       style="fill:#0fff0f;fill-opacity:1;fill-rule:evenodd;stroke:#646464;stroke-width:0.265;stroke-linecap:round;stroke-miterlimit:4;stroke-dasharray:none;stroke-opacity:1;paint-order:markers fill stroke"
       d="m 105.86748,86.189436 v 12.671609 h 21.65723 V 86.189436 Z"
       class="LED" />
    <path
       id="x10-y0"
       style="fill:#0fff0f;fill-opacity:1;fill-rule:evenodd;stroke:#646464;stroke-width:0.265;stroke-linecap:round;stroke-miterlimit:4;stroke-dasharray:none;stroke-opacity:1;paint-order:markers fill stroke"
       d="m 105.86748,73.517828 v 12.671609 h 21.65723 V 73.517828 Z"
       class="LED" />
    <path
       id="x11-y0"
       style="fill:#0fff0f;fill-opacity:1;fill-rule:evenodd;stroke:#646464;stroke-width:0.265;stroke-linecap:round;stroke-miterlimit:4;stroke-dasharray:none;stroke-opacity:1;paint-order:markers fill stroke"
       d="m 105.86748,60.84622 v 12.671609 h 21.65723 V 60.84622 Z"
       class="LED" />
    <path
       id="x12-y0"
       style="fill:#0fff0f;fill-opacity:1;fill-rule:evenodd;stroke:#646464;stroke-width:0.265;stroke-linecap:round;stroke-miterlimit:4;stroke-dasharray:none;stroke-opacity:1;paint-order:markers fill stroke"
       d="m 105.86748,48.174612 v 12.671609 h 21.65723 V 48.174612 Z"
       class="LED" />
    <path
       id="x13-y0"
       style="fill:#0fff0f;fill-opacity:1;fill-rule:evenodd;stroke:#646464;stroke-width:0.265;stroke-linecap:round;stroke-miterlimit:4;stroke-dasharray:none;stroke-opacity:1;paint-order:markers fill stroke"
       d="m 105.86748,35.503004 v 12.671609 h 21.65723 V 35.503004 Z"
       class="LED" />
    <path
       id="x14-y0"
       style="fill:#0fff0f;fill-opacity:1;fill-rule:evenodd;stroke:#646464;stroke-width:0.265;stroke-linecap:round;stroke-miterlimit:4;stroke-dasharray:none;stroke-opacity:1;paint-order:markers fill stroke"
       d="m 105.86748,22.831396 v 12.671608 h 21.65723 V 22.831396 Z"
       class="LED" />
  </g>
  <g
     id="base"
     transform="translate(0.12519,-4.1409932)">
    <path
       id="outer"
       style="color:#000000;font-style:normal;font-variant:normal;font-weight:normal;font-stretch:normal;font-size:medium;line-height:normal;font-family:sans-serif;font-variant-ligatures:normal;font-variant-position:normal;font-variant-caps:normal;font-variant-numeric:normal;font-variant-alternates:normal;font-feature-settings:normal;text-indent:0;text-align:start;text-decoration:none;text-decoration-line:none;text-decoration-style:solid;text-decoration-color:#000000;letter-spacing:normal;word-spacing:normal;text-transform:none;writing-mode:lr-tb;direction:ltr;text-orientation:mixed;dominant-baseline:auto;baseline-shift:baseline;text-anchor:start;white-space:normal;shape-padding:0;clip-rule:nonzero;display:inline;overflow:visible;visibility:visible;isolation:auto;mix-blend-mode:normal;color-interpolation:sRGB;color-interpolation-filters:linearRGB;solid-color:#000000;solid-opacity:1;fill:#0f0f0f;fill-opacity:1;fill-rule:evenodd;stroke:#646464;stroke-width:0.99999997;stroke-linecap:round;stroke-linejoin:miter;stroke-miterlimit:4;stroke-dasharray:none;stroke-dashoffset:0;stroke-opacity:1;color-rendering:auto;image-rendering:auto;shape-rendering:auto;text-rendering:auto;enable-background:accumulate"
       d="M 166.66406,57.153953 C 157.43183,57.153953 150,67.581061 150,80.532859 V 326.62109 C 150,339.57291 157.43183,350 166.66406,350 h 9.11524 v -0.23438 l 13.80078,-21.1621 h 220.83984 l 13.79297,21.11523 V 350 h 9.12305 C 442.56815,350 450,339.57291 450,326.62109 V 80.532859 c 0,-12.951798 -7.43185,-23.378906 -16.66406,-23.378906 z"
       transform="scale(0.26458333)" />
    <path
       id="inner"
       style="color:#000000;font-style:normal;font-variant:normal;font-weight:normal;font-stretch:normal;font-size:medium;line-height:normal;font-family:sans-serif;font-variant-ligatures:normal;font-variant-position:normal;font-variant-caps:normal;font-variant-numeric:normal;font-variant-alternates:normal;font-feature-settings:normal;text-indent:0;text-align:start;text-decoration:none;text-decoration-line:none;text-decoration-style:solid;text-decoration-color:#000000;letter-spacing:normal;word-spacing:normal;text-transform:none;writing-mode:lr-tb;direction:ltr;text-orientation:mixed;dominant-baseline:auto;baseline-shift:baseline;text-anchor:start;white-space:normal;shape-padding:0;clip-rule:nonzero;display:inline;overflow:visible;visibility:visible;isolation:auto;mix-blend-mode:normal;color-interpolation:sRGB;color-interpolation-filters:linearRGB;solid-color:#000000;solid-opacity:1;vector-effect:none;fill:#2d2d2d;fill-opacity:1;fill-rule:evenodd;stroke:none;stroke-width:0.359993;stroke-linecap:round;stroke-linejoin:miter;stroke-miterlimit:4;stroke-dasharray:none;stroke-dashoffset:0;stroke-opacity:1;color-rendering:auto;image-rendering:auto;shape-rendering:auto;text-rendering:auto;enable-background:accumulate"
       d="m 52.632136,22.831395 h 53.485724 c 1.8517,0 3.34242,2.091307 3.34242,4.689029 V 78.31291 c 0,2.597733 -1.49072,4.689028 -3.34242,4.689028 H 52.632136 c -1.851688,0 -3.342416,-2.091295 -3.342416,-4.689028 V 27.520424 c 0,-2.597722 1.490728,-4.689029 3.342416,-4.689029 z" />
    <path
       style="color:#000000;font-style:normal;font-variant:normal;font-weight:normal;font-stretch:normal;font-size:medium;line-height:normal;font-family:sans-serif;font-variant-ligatures:normal;font-variant-position:normal;font-variant-caps:normal;font-variant-numeric:normal;font-variant-alternates:normal;font-feature-settings:normal;text-indent:0;text-align:start;text-decoration:none;text-decoration-line:none;text-decoration-style:solid;text-decoration-color:#000000;letter-spacing:normal;word-spacing:normal;text-transform:none;writing-mode:lr-tb;direction:ltr;text-orientation:mixed;dominant-baseline:auto;baseline-shift:baseline;text-anchor:start;white-space:normal;shape-padding:0;clip-rule:nonzero;display:inline;overflow:visible;visibility:visible;opacity:0.15;isolation:auto;mix-blend-mode:normal;color-interpolation:sRGB;color-interpolation-filters:linearRGB;solid-color:#000000;solid-opacity:1;vector-effect:none;fill:#0f0f0f;fill-opacity:1;fill-rule:evenodd;stroke:none;stroke-width:1.48899;stroke-linecap:round;stroke-linejoin:miter;stroke-miterlimit:4;stroke-dasharray:none;stroke-dashoffset:0;stroke-opacity:1;color-rendering:auto;image-rendering:auto;shape-rendering:auto;text-rendering:auto;enable-background:accumulate"
       d="m 87.507847,43.656259 -0.698133,0.320103 c -0.07647,-0.07503 -0.18062,-0.116591 -0.288807,-0.115242 -0.07715,0.0014 -0.15224,0.02465 -0.216263,0.06687 -0.05393,0.03408 -0.111501,0.06285 -0.171324,0.08537 -0.146048,0.05506 -0.380761,0.08008 -0.658925,0.202021 -0.14043,0.06162 -0.288836,0.151417 -0.41219,0.293068 -0.126668,0.145333 -0.218228,0.335843 -0.214858,0.560536 0.0028,0.238856 0.105042,0.406143 0.169921,0.51928 0.03623,0.06308 0.05898,0.105167 0.07106,0.133743 -0.01966,5.04e-4 -0.0514,-0.0044 -0.08707,-0.01982 -0.03763,-0.01624 -0.08061,-0.04436 -0.12779,-0.08394 -0.09493,-0.07984 -0.199692,-0.210471 -0.342537,-0.361366 -0.144924,-0.153071 -0.336639,-0.328988 -0.618285,-0.414 -0.302514,-0.09132 -0.614662,-0.04288 -0.873726,0.09958 -0.255302,0.140406 -0.43831,0.359778 -0.547172,0.604643 -0.124702,0.28022 -0.146608,0.576868 -0.108974,0.852185 0.03763,0.273132 0.132847,0.52102 0.243787,0.74264 0.399158,0.796659 1.05578,1.369221 1.641513,1.904977 0.583346,0.533584 1.125939,1.069536 1.387532,1.700102 0.120769,0.291116 0.169358,0.592557 0.105884,0.839386 -0.0601,0.233596 -0.235361,0.455543 -0.457184,0.581872 -0.223845,0.127577 -0.512429,0.173305 -0.777953,0.125209 -0.25474,-0.04617 -0.515154,-0.178013 -0.764866,-0.354246 -0.251089,-0.177133 -0.496673,-0.400164 -0.7736,-0.624557 -0.277489,-0.224787 -0.589946,-0.453249 -0.969528,-0.603223 -0.384244,-0.151803 -0.835305,-0.216996 -1.275749,-0.08394 -0.278894,0.08427 -0.528242,0.242103 -0.721332,0.45668 -0.04662,0.05195 -0.07695,0.11494 -0.115995,0.172149 -0.07331,-0.06019 -0.145485,-0.123806 -0.201658,-0.199185 -0.15026,-0.200863 -0.242101,-0.464267 -0.28159,-0.746907 -0.0396,-0.284607 -0.02893,-0.592536 -0.0056,-0.916207 0.02527,-0.323851 0.06319,-0.666213 0.06235,-1.028598 -7.22e-4,-0.363189 -0.04128,-0.748882 -0.187334,-1.122494 -0.135375,-0.346957 -0.363938,-0.682362 -0.714086,-0.907674 -0.175256,-0.112849 -0.377447,-0.193982 -0.595085,-0.226192 -0.109255,-0.01624 -0.220756,-0.02037 -0.332342,-0.0099 -0.111501,0.01046 -0.222722,0.03548 -0.330937,0.07541 -0.235922,0.0871 -0.424464,0.234339 -0.57183,0.396927 -0.146328,0.161329 -0.249965,0.33456 -0.336723,0.499363 -0.404382,0.768476 -0.543324,1.602691 -0.658925,2.384419 -0.115434,0.780465 -0.216543,1.534693 -0.494931,2.19377 -0.0705,0.166891 -0.146609,0.307252 -0.23508,0.406891 -0.0851,0.09564 -0.190985,0.156897 -0.272996,0.169286 -0.0646,0.0096 -0.1438,-0.0085 -0.19604,-0.04267 -0.05168,-0.03395 -0.09605,-0.09793 -0.108973,-0.155081 -0.01685,-0.07007 -3.94e-4,-0.190125 0.04943,-0.338603 0.05083,-0.151529 0.137902,-0.338296 0.182839,-0.581879 0.02247,-0.122401 0.03314,-0.25942 0.01124,-0.404037 -0.02247,-0.146077 -0.07499,-0.296492 -0.176941,-0.432494 -0.103919,-0.138286 -0.251089,-0.251878 -0.439799,-0.304455 -0.193231,-0.05382 -0.40514,-0.0367 -0.593597,0.07684 -0.136497,0.08223 -0.221037,0.192357 -0.278613,0.291651 -0.05646,0.09741 -0.0851,0.182639 -0.108974,0.246124 -0.01404,0.03939 -0.02528,0.0579 -0.03343,0.07684 -0.01404,-0.0058 -0.02809,-0.0079 -0.05505,-0.02849 -0.08033,-0.06133 -0.184806,-0.214875 -0.384609,-0.388387 -0.08257,-0.07169 -0.17301,-0.134928 -0.269906,-0.186382 -0.139164,-0.07636 -0.311264,-0.06464 -0.43831,0.02987 l -0.07106,-0.05974 -0.592165,-0.190649 -0.0015,-0.0015 -0.0015,0.003 v 0.0015 l 0.529758,0.436765 c -0.06232,0.182515 0.01935,0.382421 0.192951,0.472331 0.04297,0.02285 0.08398,0.05085 0.120489,0.08251 0.08875,0.07714 0.199971,0.250391 0.423817,0.42112 0.113748,0.08669 0.256986,0.166725 0.438309,0.196321 0.188177,0.03066 0.399102,0.003 0.581998,-0.130881 0.107288,-0.07855 0.173852,-0.17102 0.220475,-0.254658 0.04606,-0.08246 0.07134,-0.154226 0.09156,-0.207718 0.01686,-0.04138 0.02528,-0.06002 0.03483,-0.08394 0.0056,0.01459 0.01404,0.02478 0.01685,0.04699 0.0056,0.03882 0.0028,0.0908 -0.0084,0.150812 -0.02247,0.121301 -0.08791,0.2773 -0.155316,0.47802 -0.06825,0.20381 -0.135655,0.462079 -0.06965,0.754028 0.05954,0.263742 0.218509,0.488529 0.445555,0.63736 0.226655,0.148528 0.498049,0.206837 0.764894,0.16645 0.319871,-0.04845 0.572589,-0.224953 0.754727,-0.429656 0.178627,-0.200726 0.286532,-0.421779 0.371549,-0.623135 0.333072,-0.788896 0.433226,-1.611166 0.547171,-2.38157 0.113748,-0.769155 0.249123,-1.511182 0.577645,-2.135446 0.07021,-0.133248 0.142395,-0.249207 0.223564,-0.338596 0.07976,-0.08812 0.171044,-0.152382 0.255301,-0.183519 0.07639,-0.02827 0.170482,-0.03766 0.2612,-0.02423 0.09184,0.01349 0.186772,0.04982 0.272715,0.105277 0.173009,0.111362 0.318157,0.306037 0.406403,0.532084 0.09718,0.249399 0.134252,0.539793 0.135094,0.843656 6.02e-4,0.304667 -0.03483,0.627499 -0.06095,0.968843 -0.02528,0.34153 -0.04382,0.7035 0.0084,1.079821 0.0528,0.378286 0.178908,0.769766 0.431064,1.106845 0.102514,0.137048 0.224969,0.257714 0.35995,0.364208 l 0.291728,0.300185 c 0.305239,0.03106 0.325734,0.01518 0.604554,0.02134 0.09044,0.08532 0.164865,0.190126 0.204747,0.305875 0.04522,0.131542 0.05336,0.281553 0.02247,0.41685 -0.05027,0.215508 -0.209522,0.43171 -0.423817,0.596102 -0.218229,0.167442 -0.498076,0.292381 -0.804074,0.404045 -0.306559,0.111884 -0.644545,0.212399 -0.988373,0.364208 -0.345318,0.152464 -0.697993,0.359982 -0.975342,0.678618 -0.296083,0.340132 -0.473024,0.776998 -0.471704,1.234887 0.0015,0.460359 0.184806,0.912768 0.529757,1.240575 0.35512,0.337534 0.81278,0.486662 1.242384,0.544892 0.906109,0.122813 1.765485,-0.121989 2.541387,-0.354251 0.772786,-0.231311 1.514144,-0.454521 2.216236,-0.408306 0.193794,0.01266 0.372786,0.04669 0.525405,0.108112 0.150541,0.0606 0.278613,0.153044 0.358489,0.258926 0.06741,0.08955 0.105604,0.197311 0.10448,0.28881 -7.22e-4,0.08724 -0.04353,0.178398 -0.09437,0.224787 -0.05168,0.04705 -0.159246,0.09482 -0.30768,0.128045 -0.151384,0.03387 -0.349587,0.05573 -0.576213,0.133743 -0.113748,0.03917 -0.234237,0.09424 -0.348322,0.176417 -0.115153,0.08287 -0.221599,0.190979 -0.297543,0.332913 -0.07696,0.144013 -0.117399,0.313005 -0.09296,0.493668 0.02527,0.184455 0.115433,0.361388 0.280016,0.487979 0.131724,0.101202 0.271592,0.139745 0.390396,0.157916 0.116557,0.0179 0.209802,0.01624 0.278613,0.01707 0.109254,0.0015 0.164303,0.01652 0.162617,0.01569 -0.0056,-0.003 0.01404,0.01184 0.02247,0.03838 0.01124,0.03103 0.01685,0.08436 0.01124,0.152216 -0.01404,0.138864 -0.09971,0.33891 -0.145205,0.62029 -0.01966,0.115462 -0.02528,0.233045 -0.01966,0.349979 0.0061,0.149006 0.09769,0.281799 0.236484,0.342867 l 0.01685,0.09817 0.330909,0.519279 0.0056,-0.0015 -0.0015,-0.0015 -0.107289,-0.588989 c 0.195709,-0.03885 0.332444,-0.212915 0.320742,-0.408312 -0.0028,-0.06264 1.41e-4,-0.12565 0.01123,-0.187786 0.02528,-0.151557 0.119646,-0.364457 0.150822,-0.661547 0.01685,-0.150041 0.0084,-0.321025 -0.05365,-0.496514 -0.06516,-0.18005 -0.187333,-0.352954 -0.387502,-0.462376 -0.212892,-0.116372 -0.41042,-0.113784 -0.542818,-0.115243 -0.07415,-7.08e-4 -0.122735,-0.0015 -0.15391,-0.0058 0.0084,-0.01679 0.02809,-0.04146 0.05954,-0.06404 0.03314,-0.02396 0.08089,-0.04669 0.139307,-0.06687 0.117962,-0.04064 0.284371,-0.06373 0.489118,-0.109545 0.207555,-0.04647 0.45898,-0.122098 0.674905,-0.31868 0.231991,-0.21116 0.346104,-0.499859 0.349783,-0.791014 0.0028,-0.286921 -0.09802,-0.551983 -0.259796,-0.76683 -0.185367,-0.245847 -0.437409,-0.412339 -0.699565,-0.517849 -0.260076,-0.104671 -0.525179,-0.1485 -0.776493,-0.165046 -0.903441,-0.05944 -1.738887,0.211682 -2.5051,0.44103 -0.763096,0.228422 -1.508049,0.420465 -2.195931,0.327218 -0.317596,-0.04306 -0.607499,-0.152877 -0.793906,-0.330058 -0.17638,-0.167689 -0.285213,-0.427197 -0.285915,-0.678618 -7.22e-4,-0.253886 0.103356,-0.52139 0.278613,-0.722725 0.168235,-0.19321 0.414689,-0.348473 0.69524,-0.472331 0.281983,-0.124493 0.602304,-0.221401 0.939026,-0.344286 0.337314,-0.12309 0.695157,-0.274893 1.017415,-0.522126 0.326275,-0.250281 0.608511,-0.599551 0.711193,-1.039985 0.06516,-0.278954 0.05083,-0.570995 -0.04213,-0.842229 -0.09296,-0.271232 -0.26092,-0.511907 -0.484765,-0.695684 -0.02235,-0.01819 -0.04664,-0.03395 -0.07246,-0.04699 0.0778,-0.06104 0.16318,-0.113977 0.256987,-0.142278 0.21542,-0.06511 0.486365,-0.03714 0.738745,0.06258 0.256987,0.10156 0.50743,0.274093 0.759081,0.478021 0.252212,0.204305 0.509619,0.441288 0.815672,0.657277 0.307373,0.216913 0.666902,0.413273 1.087096,0.489406 0.448533,0.08127 0.92268,0.01239 1.326557,-0.217657 0.406067,-0.231313 0.71448,-0.613172 0.831654,-1.069858 0.12077,-0.470212 0.02527,-0.933557 -0.139306,-1.327366 -0.344532,-0.830589 -0.99034,-1.436416 -1.58346,-1.978948 -0.59076,-0.540365 -1.158575,-1.058224 -1.468812,-1.677345 -0.08566,-0.17091 -0.146328,-0.340504 -0.168236,-0.500784 -0.02247,-0.15808 -0.0056,-0.313227 0.04943,-0.433916 0.0455,-0.102055 0.123297,-0.187125 0.204746,-0.23189 0.07752,-0.0427 0.178908,-0.05421 0.245191,-0.03416 0.06741,0.02037 0.163461,0.0884 0.267098,0.197751 0.105602,0.111527 0.224125,0.269195 0.406376,0.422537 0.09156,0.07701 0.198287,0.151915 0.328016,0.207719 0.13088,0.0563 0.280859,0.09197 0.444123,0.08537 0.165707,-0.0066 0.335936,-0.05674 0.483332,-0.167883 0.150541,-0.113425 0.260638,-0.277794 0.290268,-0.480863 0.02247,-0.162348 -0.01123,-0.301257 -0.05505,-0.411158 -0.04241,-0.107755 -0.091,-0.185748 -0.124983,-0.244719 -0.05365,-0.09336 -0.06685,-0.147068 -0.06685,-0.145114 8.5e-5,0.0058 0.0028,-0.01707 0.02247,-0.03838 0.02247,-0.02506 0.06572,-0.05749 0.129195,-0.08537 0.130038,-0.05696 0.349923,-0.08556 0.621177,-0.187786 0.111502,-0.04195 0.217667,-0.09446 0.317878,-0.157916 0.140888,-0.08615 0.213033,-0.248515 0.181434,-0.408315 l 0.162618,-0.07255 0.426711,-0.44957 z m -0.0056,0.0058 -0.419463,0.442453 -0.162618,0.07255 c -0.01544,-0.07472 -0.05272,-0.143428 -0.107289,-0.197753 z m -16.249675,6.175869 0.584891,0.189217 0.06965,0.05974 c -0.06104,0.04691 -0.106897,0.110174 -0.132004,0.182114 z m 12.6488,11.722905 c 0.07437,0.03179 0.15683,0.04071 0.236485,0.0256 l 0.105884,0.581878 -0.326556,-0.512163 z"
       id="logo"
       nostroke="true" />
  </g>
  <metadata
     id="metadata10032">
    <rdf:RDF>
      <cc:Work
         rdf:about="" />
    </rdf:RDF>
  </metadata>
</svg>
