<?xml version="1.0" encoding="UTF-8" standalone="no"?>
<!-- Created with Inkscape (http://www.inkscape.org/) -->

<svg
   width="257.90335"
   height="405"
   viewBox="0 0 68.23693 107.15625"
   version="1.1"
   id="svg5"
   xmlns:xlink="http://www.w3.org/1999/xlink"
   xmlns="http://www.w3.org/2000/svg"
   xmlns:svg="http://www.w3.org/2000/svg">
  <defs
     id="defs2">
    <linearGradient
       id="linearGradient1109">
      <stop
         style="stop-color:#646464;stop-opacity:1"
         offset="0"
         id="stop1105" />
      <stop
         style="stop-color:#4e4e4e;stop-opacity:0"
         offset="1"
         id="stop1107" />
    </linearGradient>
    <linearGradient
       xlink:href="#linearGradient1109"
       id="linearGradient1111"
       x1="73.357414"
       y1="91.768669"
       x2="73.357414"
       y2="175.34137"
       gradientUnits="userSpaceOnUse" />
    <linearGradient
       xlink:href="#linearGradient1109"
       id="linearGradient1140"
       gradientUnits="userSpaceOnUse"
       x1="73.357414"
       y1="91.768669"
       x2="73.357414"
       y2="175.34137"
       gradientTransform="matrix(-1,0,0,1,277.70045,5.0093141)" />
    <linearGradient
       xlink:href="#linearGradient1109"
       id="linearGradient1145"
       gradientUnits="userSpaceOnUse"
       gradientTransform="matrix(-1,0,0,1,232.62367,5.0716527)"
       x1="73.357414"
       y1="91.768669"
       x2="73.357414"
       y2="175.34137" />
    <linearGradient
       xlink:href="#linearGradient1109"
       id="linearGradient1147"
       gradientUnits="userSpaceOnUse"
       x1="73.357414"
       y1="91.768669"
       x2="73.357414"
       y2="175.34137"
       gradientTransform="translate(-45.113785,-0.01132338)" />
  </defs>
  <g
     id="g311"
     transform="matrix(0.55461054,0,0,0.55461054,2.6458335,2.6458332)">
    <g
       id="layer1"
       transform="matrix(0.80475215,0,0,0.80475215,-28.696859,-25.042377)">
      <g
         id="g7320"
         style="fill:#1a1a1a;stroke:#808080">
        <g
           id="g6374"
           transform="translate(7.1093694,24.321527)"
           style="fill:#1a1a1a;stroke:#808080">
          <path
             id="rect2503"
             style="opacity:1;fill:#1a1a1a;stroke:#808080;stroke-width:1.88976;stroke-linecap:round;stroke-linejoin:round"
             d="m 399.42773,27.046875 v 42.207031 h -2.47265 c -3.57661,0 -6.45508,2.880419 -6.45508,6.457032 v 47.746092 c -5.95002,-0.14046 -11.00693,-0.12227 -14.75,-0.0645 V 88 c 0,-16.5 -14.25,-6 -14.25,-6 0,0 -71,58.5 -92.25,76.25 C 248,176 240,193 233,207.25 c -3.77712,7.68914 -6.87639,40.72101 -9.01758,70.09961 -1.45943,2.52172 -2.85343,4.97473 -3.89453,6.9082 -3.71232,6.89429 -4.59766,17.67774 -4.59766,17.67774 L 213.51172,362.0625 188.75,387.75 c 0,0 -29,34.50001 -31.5,42.75 -2.5,8.25003 -6.75,18.74999 -9.25,83.75 -2.5,64.99997 0.25,84.25 0.25,84.25 0,0 0.25002,23.75 20.5,52 20.25,28.25 70.75,100.25 70.75,100.25 l 2.65625,-3.46289 18.18164,21.05273 -2.06641,4.52735 c 0,0 65.40695,79.37339 150.25977,76.1914 84.85281,-3.18198 132.75977,-60.98828 132.75977,-60.98828 l 17.85351,-21.21289 -2.09961,-5.02734 14.19922,-21.75196 L 574,742.5 c 0,0 1.75,-2.24996 9.5,-19.75 7.75,-17.49997 7.00003,-18.50004 13.75,-51.5 6.75001,-33.00004 4,-125 4,-125 0,0 -2.50001,-120.50002 -3,-158 -0.49999,-37.50003 -1.74998,-71.75 -4.5,-103 C 591.00002,254 584.75001,205.75 578,173.5 c -6.74997,-32.25 -21.75,-37.25 -21.75,-37.25 0,0 -82.00003,-57.250002 -98.25,-70 -16.25019,-12.749983 -16.5,0.25 -16.5,0.25 v 62.88672 c -4.63389,-1.20263 -9.53968,-2.20015 -14.58594,-2.97852 5.6e-4,-0.0351 0.002,-0.0702 0.002,-0.10547 V 75.710938 c 0,-3.576613 -2.88042,-6.457032 -6.45704,-6.457032 h -2.4707 v -35.3125 z"
             transform="scale(0.26458333)" />
          <path
             id="rect12303"
             style="opacity:1;fill:#1a1a1a;stroke:#808080;stroke-width:1.89109;stroke-linecap:round;stroke-linejoin:round"
             d="m 399.42773,27.046875 v 42.207031 h -2.47265 c -3.57661,0 -6.45508,2.880419 -6.45508,6.457032 v 47.746092 c -5.94529,-0.14035 -10.9961,-0.12216 -14.73828,-0.0645 V 468.4687 c 0,9.30089 7.42252,15.99502 15.38672,11.19141 l 40.60937,-24.49219 c 7.9643,-4.80378 9.76172,-7.33583 9.76172,-16.63672 0.0269,-18.22262 -0.0195,-309.14453 -0.0195,-309.14453 0,0 -9.53968,-2.20015 -14.58594,-2.97852 5.6e-4,-0.0351 0.002,-0.0702 0.002,-0.10547 V 75.710938 c 0,-3.576613 -2.88042,-6.457032 -6.45704,-6.457032 h -2.4707 v -35.3125 z"
             transform="scale(0.26458333)" />
          <path
             id="path9809"
             style="fill:#1a1a1a;fill-rule:evenodd;stroke:#808080;stroke-width:1.88976;stroke-linecap:butt;stroke-linejoin:miter;stroke-miterlimit:4;stroke-dasharray:none;stroke-opacity:1"
             d="m 399.42773,27.046875 v 42.207031 h -2.47265 c -3.57661,0 -6.45508,2.880419 -6.45508,6.457032 v 47.730472 c 4.5488,0.11076 18.45617,0.6271 36.6875,3.02148 -0.0944,-0.0147 -0.17891,-0.0401 -0.27344,-0.0547 5.6e-4,-0.0351 0.002,-0.0702 0.002,-0.10547 V 75.710938 c 0,-3.576613 -2.88042,-6.457032 -6.45704,-6.457032 h -2.4707 v -35.3125 z"
             transform="scale(0.26458333)" />
          <path
             id="rect9508"
             style="opacity:1;fill:#1a1a1a;stroke:#808080;stroke-width:1.88976;stroke-linecap:round;stroke-linejoin:round;stroke-miterlimit:4;stroke-dasharray:none"
             d="m 399.42773,27.046875 v 42.205078 h 18.56055 V 33.941406 Z"
             transform="scale(0.26458333)" />
          <path
             id="rect14822"
             style="opacity:1;fill:#1a1a1a;stroke:#808080;stroke-width:0.5;stroke-linecap:round;stroke-linejoin:round"
             d="m 104.63885,47.311752 h 6.99679 c 2.24852,0 4.0587,1.81018 4.0587,4.058699 v 37.077152 c 0,2.248519 -1.81018,4.058699 -4.0587,4.058699 h -6.99679 c -2.24852,0 -4.0587,-1.81018 -4.0587,-4.058699 V 51.370451 c 0,-2.248519 1.81018,-4.058699 4.0587,-4.058699 z" />
          <path
             id="rect15161"
             style="opacity:1;fill:#1a1a1a;stroke:#808080;stroke-width:0.499999;stroke-linecap:round;stroke-linejoin:round"
             d="m 105.70511,97.066925 h 4.8643 c 0.881,0 1.59026,0.709253 1.59026,1.590254 v 4.864301 c 0,0.88101 -0.70926,1.59026 -1.59026,1.59026 h -4.8643 c -0.881,0 -1.59026,-0.70925 -1.59026,-1.59026 v -4.864301 c 0,-0.881001 0.70926,-1.590254 1.59026,-1.590254 z" />
          <path
             id="rect15161-3"
             style="fill:#1a1a1a;stroke:#808080;stroke-width:1.88976;stroke-linecap:round;stroke-linejoin:round;stroke-miterlimit:4;stroke-dasharray:none"
             d="m 399.51562,414.79492 c -0.006,0 -0.0116,1e-5 -0.0174,2e-5 -3.32167,0.009 -5.99234,2.68579 -5.99234,6.00975 v 11.07617 7.3125 11.07617 c 0,3.3298 2.68001,4.4527 6.00976,2.51953 l 20.82618,-11.73828 c 3.32976,-1.93316 3.57031,-2.35379 3.57031,-5.68359 v -6.04297 -6.6211 -1.89843 c 0,-3.32977 -2.67805,-6.00977 -6.00781,-6.00977 z"
             transform="scale(0.26458333)" />
          <path
             id="path17169"
             style="fill:#1a1a1a;fill-rule:evenodd;stroke:#808080;stroke-width:1.88976;stroke-linecap:butt;stroke-linejoin:miter;stroke-miterlimit:4;stroke-dasharray:none;stroke-opacity:1"
             d="m 224.73438,267.94336 c -0.24719,3.15012 -0.52582,6.30347 -0.75196,9.40625 -1.45943,2.52172 -2.85343,4.97473 -3.89453,6.9082 -3.71232,6.89429 -4.59766,17.67774 -4.59766,17.67774 l -1.69531,51.50976 c 0.004,0.20182 3.1e-4,0.39745 -0.0137,0.58594 -0.01,0.13252 -0.0145,0.38669 -0.0234,0.53711 l -0.11523,3.51953 c -0.34453,19.44778 1.60742,85.81133 1.60742,90.41211 0,5.00001 8,10.25 8,10.25 l -0.125,8.5 c 0,0 -5.375,4.12502 -6.75,6.875 -1.375,2.75002 2.625,42.87501 4.75,61.375 2.125,18.49999 8.625,48.625 10.25,52.5 1.625,3.875 7.875,6.25 7.875,6.25 l 18.36328,-11.69336 -11.66601,-42.51758 C 244.06984,539.85405 242.23603,538.55191 241.375,534.5 239.25,524.50001 219.25,443.24999 220,375 c 0.60508,-55.06245 3.48325,-92.26451 4.73633,-107.05469 z"
             transform="scale(0.26458333)" />
          <path
             id="path18144"
             style="fill:#1a1a1a;fill-rule:evenodd;stroke:#808080;stroke-width:1.88976;stroke-linecap:butt;stroke-linejoin:miter;stroke-miterlimit:4;stroke-dasharray:none;stroke-opacity:1"
             d="m 224.73438,267.94336 c -0.24719,3.15012 -0.52582,6.30347 -0.75196,9.40625 -1.45943,2.52172 -2.85343,4.97473 -3.89453,6.9082 -3.71232,6.89429 -4.59766,17.67774 -4.59766,17.67774 l -1.69531,51.50976 c 0.004,0.20182 3.1e-4,0.39745 -0.0137,0.58594 -0.01,0.13252 -0.0145,0.38669 -0.0234,0.53711 l -0.11523,3.51953 c -0.34453,19.44778 1.60742,85.81133 1.60742,90.41211 0,5.00001 8,10.25 8,10.25 l -0.125,8.5 c 0,0 -4.05137,3.11196 -6.01758,5.73242 0.55736,22.59369 14.69506,88.83542 17.1211,98.71289 2.47486,10.07626 7.95507,9.19336 7.95507,9.19336 h 14.97071 l -11.19727,-40.8125 C 244.07654,539.89455 242.23738,538.55824 241.375,534.5 239.25,524.50001 219.25,443.24999 220,375 c 0.60508,-55.06245 3.48325,-92.26451 4.73633,-107.05469 z"
             transform="scale(0.26458333)" />
          <path
             id="path19387"
             style="opacity:1;fill:#1a1a1a;stroke:#808080;stroke-width:1.88976;stroke-linecap:round;stroke-linejoin:round"
             d="M 445.63867,60.726562 C 441.59815,61.422362 441.5,66.5 441.5,66.5 v 62.88672 c 0,0 0.0439,278.88996 0.0195,304.60937 31.12844,-18.41012 60.11037,-36.59119 81.20899,-51.98242 44.00557,-32.10163 64.01907,-49.99903 73.48046,-59.86914 C 595.55756,309.45674 594.78985,297.06641 593.75,285.25 591.00002,254 584.75001,205.75 578,173.5 c -6.74997,-32.25 -21.75,-37.25 -21.75,-37.25 0,0 -82.00003,-57.250002 -98.25,-70 -6.09382,-4.781244 -9.93702,-5.940917 -12.36133,-5.523438 z M 368.625,78.8125 C 365.0625,79.375 361.5,82 361.5,82 c 0,0 -71,58.5 -92.25,76.25 C 248,176 240,193 233,207.25 c -3.30465,6.72733 -6.04773,32.85258 -8.12695,58.95898 C 223.68849,280.02035 220.6233,318.27954 220,375 c -0.75,68.24999 19.25,149.50001 21.375,159.5 2.125,9.99999 10.17773,3.60742 10.17773,3.60742 0,0 58.6455,-30.01235 124.50782,-66.64648 -0.17572,-0.96169 -0.29883,-1.95302 -0.29883,-2.99219 V 123.39258 c -0.003,4e-5 -0.009,-5e-5 -0.0117,0 V 88 c 0,-8.25 -3.5625,-9.75 -7.125,-9.1875 z"
             transform="scale(0.26458333)" />
          <path
             id="path20556"
             style="opacity:1;fill:#1a1a1a;stroke:#808080;stroke-width:1.88976;stroke-linecap:round;stroke-linejoin:round;stroke-miterlimit:4;stroke-dasharray:none"
             d="m 213.79492,353.47461 -0.0351,1.05273 c 0.008,-0.15235 0.0124,-0.37369 0.0215,-0.49609 0.0133,-0.17907 0.0166,-0.3655 0.0137,-0.55664 z m -0.15234,4.61328 -0.13086,3.97461 L 188.75,387.75 c 0,0 -29,34.50001 -31.5,42.75 -2.5,8.25003 -6.75,18.74999 -9.25,83.75 -2.5,64.99997 0.25,84.25 0.25,84.25 0,0 0.25002,23.75 20.5,52 20.25,28.25 70.75,100.25 70.75,100.25 l 2.65625,-3.46289 0.0156,0.0195 12.91601,-23.22852 c 0,0 15.91023,-34.2958 15.20313,-44.54882 -0.70712,-10.25307 -2.8276,-35.0008 -7.77735,-63.99219 -2.11833,-12.40738 -4.99578,-23.00588 -7.61523,-31.25195 L 239.25,594.25 c 0,0 -6.25,-2.375 -7.875,-6.25 -1.625,-3.875 -8.125,-34.00001 -10.25,-52.5 -2.125,-18.49999 -6.125,-58.62498 -4.75,-61.375 1.375,-2.74998 6.75,-6.875 6.75,-6.875 l 0.125,-8.5 c 0,0 -8,-5.24999 -8,-10.25 0,-4.60078 -1.95195,-70.96433 -1.60742,-90.41211 z"
             transform="scale(0.26458333)" />
          <path
             id="path21113"
             style="fill:#1a1a1a;fill-rule:evenodd;stroke:#808080;stroke-width:1.88976;stroke-linecap:butt;stroke-linejoin:miter;stroke-miterlimit:4;stroke-dasharray:none;stroke-opacity:1"
             d="m 597.10742,344.48047 c -8.22709,11.09074 -25.79082,23.64593 -29.83008,27.28125 -5.30339,4.77297 -5.12695,8.30859 -5.12695,8.30859 0,0 -15.90949,107.83358 -21.91992,166.52344 -6.01039,58.68986 -10.25319,91.92448 1.41406,122.68359 11.63838,30.68304 30.63246,71.58841 30.72656,71.79102 L 574,742.5 c 0,0 1.75,-2.24996 9.5,-19.75 7.75,-17.49997 7.00003,-18.50004 13.75,-51.5 6.75001,-33.00004 4,-125 4,-125 0,0 -2.50001,-120.50002 -3,-158 -0.20322,-15.24186 -0.64119,-29.5847 -1.14258,-43.76953 z"
             transform="scale(0.26458333)" />
          <path
             id="path21991"
             style="fill:#1a1a1a;fill-rule:evenodd;stroke:#808080;stroke-width:1.88976;stroke-linecap:butt;stroke-linejoin:miter;stroke-miterlimit:4;stroke-dasharray:none;stroke-opacity:1"
             d="m 535.2832,422.40234 c -1.49776,0.0684 -2.96484,1.28711 -2.96484,1.28711 L 524.25,428.75 c 0,0 -57.99998,40.74998 -81.75,55.5 -23.74998,14.74998 -76.75,45.50001 -111.75,64 -35,18.49999 -45.875,21.12498 -53.25,24.375 -7.375,3.25002 -4.125,11.875 -4.125,11.875 0,0 11,54.00002 13.875,83.375 2.875,29.37502 -0.125,38.87501 -6.5,61.75 -6.375,22.87502 -21.25,41.75 -21.25,41.75 l -0.85156,0.66602 -0.37696,0.82617 c 0,0 65.40695,79.37339 150.25977,76.1914 84.85281,-3.18198 132.75977,-60.98828 132.75977,-60.98828 l 17.78906,-21.13672 c -0.429,-0.79382 -0.87445,-1.58643 -1.34961,-2.375 -16.617,-27.57717 -19.26923,-41.71907 -31.11328,-75.30664 C 514.77317,655.66439 516.18713,617.30458 519.72266,581.94922 523.25818,546.59389 539,428.50001 539,427.375 c 0,-1.12501 -0.44974,-3.28867 -2.26172,-4.57031 -0.45298,-0.32041 -0.95582,-0.42513 -1.45508,-0.40235 z"
             transform="scale(0.26458333)" />
        </g>
      </g>
      <g
         id="x0-y0"
         style="stroke-width:1.40625;stroke-miterlimit:4;stroke-dasharray:none"
         transform="matrix(0.55961307,0,0,0.55961307,61.354369,75.224659)"
         class="LED">
        <rect
           style="fill:none;fill-opacity:1;fill-rule:evenodd;stroke:#00ff00;stroke-width:1.40625;stroke-linecap:round;stroke-miterlimit:4;stroke-dasharray:none;stroke-opacity:1;paint-order:markers fill stroke"
           id="logo-outline"
           width="71.960533"
           height="72.373177"
           x="59.514393"
           y="213.00996"
           ry="2.4054468" />
        <path
           style="color:#000000;font-style:normal;font-variant:normal;font-weight:normal;font-stretch:normal;font-size:medium;line-height:normal;font-family:sans-serif;font-variant-ligatures:normal;font-variant-position:normal;font-variant-caps:normal;font-variant-numeric:normal;font-variant-alternates:normal;font-feature-settings:normal;text-indent:0;text-align:start;text-decoration:none;text-decoration-line:none;text-decoration-style:solid;text-decoration-color:#000000;letter-spacing:normal;word-spacing:normal;text-transform:none;writing-mode:lr-tb;direction:ltr;text-orientation:mixed;dominant-baseline:auto;baseline-shift:baseline;text-anchor:start;white-space:normal;shape-padding:0;clip-rule:nonzero;display:inline;overflow:visible;visibility:visible;opacity:1;isolation:auto;mix-blend-mode:normal;color-interpolation:sRGB;color-interpolation-filters:linearRGB;solid-color:#000000;solid-opacity:1;vector-effect:none;fill:none;fill-opacity:1;fill-rule:evenodd;stroke:#00ff00;stroke-width:1.25888;stroke-linecap:round;stroke-linejoin:miter;stroke-miterlimit:4;stroke-dasharray:none;stroke-dashoffset:0;stroke-opacity:1;color-rendering:auto;image-rendering:auto;shape-rendering:auto;text-rendering:auto;enable-background:accumulate"
           d="m 118.84383,221.44273 -2.10251,0.9835 a 1.2077723,1.2077723 0 0 0 -0.86988,-0.35405 1.2077723,1.2077723 0 0 0 -0.65129,0.20545 c -0.16226,0.10474 -0.33564,0.19314 -0.5158,0.26227 -0.43997,0.1692 -1.14678,0.24607 -1.9845,0.62072 -0.42326,0.18934 -0.86988,0.46526 -1.24141,0.90042 -0.3812,0.44656 -0.65718,1.03187 -0.64692,1.72223 0.0112,0.7339 0.31591,1.24786 0.51143,1.59547 0.10899,0.19381 0.17725,0.32315 0.21418,0.4109 -0.0582,0.002 -0.1551,-0.0134 -0.26228,-0.0613 -0.11302,-0.0497 -0.24291,-0.1363 -0.38465,-0.25787 -0.28579,-0.24535 -0.60133,-0.64667 -1.03159,-1.1103 -0.43646,-0.47028 -1.01387,-1.01079 -1.86211,-1.27199 -0.91114,-0.28055 -1.85118,-0.13181 -2.63142,0.30599 -0.76888,0.43136 -1.32008,1.1054 -1.64793,1.85774 -0.37521,0.86097 -0.4419,1.7724 -0.32785,2.61831 0.11325,0.83919 0.39991,1.60082 0.73436,2.28174 1.20218,2.44768 3.17975,4.20686 4.94376,5.85297 1.7569,1.63943 3.39106,3.28612 4.17882,5.22351 0.3637,0.89445 0.50985,1.82062 0.3191,2.57899 -0.18061,0.71774 -0.70901,1.39964 -1.3769,1.78778 -0.67448,0.39197 -1.5433,0.53245 -2.34295,0.38468 -0.76735,-0.1419 -1.55155,-0.54698 -2.3036,-1.08845 -0.75594,-0.54426 -1.49581,-1.22946 -2.32981,-1.9189 -0.83545,-0.69068 -1.77677,-1.39259 -2.91993,-1.85338 -1.15724,-0.46645 -2.515697,-0.66669 -3.842237,-0.25789 -0.84018,0.2589 -1.59086,0.74383 -2.17245,1.40313 -0.14078,0.15957 -0.23215,0.35319 -0.3497,0.52892 -0.22044,-0.18486 -0.43775,-0.38036 -0.60757,-0.61197 -0.45251,-0.61711 -0.72949,-1.42645 -0.84802,-2.29485 -0.11928,-0.87444 -0.0875,-1.82055 -0.0134,-2.81501 0.0743,-0.99503 0.19023,-2.04692 0.18799,-3.16034 -0.002,-1.11588 -0.12466,-2.30092 -0.56389,-3.44882 -0.40786,-1.06602 -1.09601,-2.09654 -2.15061,-2.78881 -0.52822,-0.34674 -1.13672,-0.59603 -1.79217,-0.695 -0.32908,-0.0497 -0.66525,-0.0627 -1.00098,-0.0307 -0.33573,0.0322 -0.67085,0.109 -0.99664,0.23168 -0.71032,0.26763 -1.2784,0.72 -1.72223,1.21955 -0.44033,0.49566 -0.75294,1.02793 -1.01409,1.53428 -1.21784,2.36112 -1.63631,4.92422 -1.9845,7.32604 -0.34764,2.39796 -0.65246,4.7153 -1.49057,6.74029 -0.21217,0.5128 -0.44112,0.94402 -0.70812,1.25016 -0.25632,0.29388 -0.57499,0.48205 -0.82178,0.52017 -0.19448,0.03 -0.43288,-0.026 -0.5901,-0.13115 -0.15576,-0.10429 -0.28893,-0.30084 -0.32785,-0.47646 -0.0477,-0.21529 -10e-4,-0.58419 0.14861,-1.04034 0.15286,-0.4656 0.41576,-1.03941 0.55076,-1.78781 0.0678,-0.3761 0.0994,-0.79705 0.0349,-1.24141 -0.0649,-0.44881 -0.22566,-0.91096 -0.53328,-1.32882 -0.31279,-0.42487 -0.75587,-0.77389 -1.32446,-0.93543 -0.58216,-0.16539 -1.22017,-0.1128 -1.78781,0.23604 -0.41108,0.2527 -0.66603,0.59098 -0.83926,0.89611 -0.16986,0.29924 -0.25596,0.56112 -0.32782,0.7562 -0.0445,0.12108 -0.0741,0.17793 -0.10049,0.23605 -0.0441,-0.0179 -0.0848,-0.0242 -0.16606,-0.0875 -0.2422,-0.18844 -0.55687,-0.66024 -1.15836,-1.19331 -0.24851,-0.22023 -0.52101,-0.41455 -0.81303,-0.57262 a 1.2077723,1.2077723 0 0 0 -1.32008,0.0917 l -0.21418,-0.18351 -1.78341,-0.58576 -0.004,-0.004 -0.004,0.009 v 0.004 l 1.59546,1.34194 a 1.2077723,1.2077723 0 0 0 0.58137,1.45121 c 0.12914,0.0698 0.2529,0.15621 0.36281,0.25352 0.26742,0.23701 0.60228,0.76928 1.27637,1.29387 0.34233,0.26639 0.77378,0.51224 1.32008,0.60322 0.56651,0.0942 1.20202,0.009 1.75284,-0.40216 0.32351,-0.2413 0.52404,-0.52546 0.66441,-0.78243 0.13831,-0.2533 0.21485,-0.47388 0.27539,-0.6382 0.0468,-0.12712 0.0727,-0.18441 0.10496,-0.25789 0.0201,0.045 0.0425,0.0763 0.0524,0.14436 0.0179,0.11928 0.0112,0.27892 -0.0224,0.46334 -0.0671,0.37272 -0.26514,0.85199 -0.4677,1.4687 -0.20568,0.62618 -0.40856,1.41972 -0.20971,2.31672 0.17949,0.81034 0.65832,1.501 1.34195,1.95827 0.68217,0.45631 1.49997,0.63551 2.3036,0.51143 0.96338,-0.14882 1.72444,-0.69114 2.27298,-1.3201 0.53787,-0.61668 0.86298,-1.2959 1.11901,-1.91456 1.00318,-2.42385 1.30477,-4.95025 1.64793,-7.3173 0.34258,-2.3632 0.75041,-4.64305 1.73971,-6.56108 0.21127,-0.40941 0.42914,-0.76568 0.67315,-1.04033 0.24057,-0.27076 0.51544,-0.46822 0.76932,-0.56387 0.23043,-0.0868 0.51305,-0.11571 0.78683,-0.0743 0.27648,0.0419 0.5621,0.15308 0.82176,0.32346 0.52123,0.34217 0.95821,0.94028 1.22393,1.63481 0.29316,0.76626 0.40463,1.65849 0.40651,2.59211 0.002,0.93607 -0.10518,1.92797 -0.18352,2.97673 -0.0783,1.04934 -0.13159,2.16148 0.0262,3.31772 0.15868,1.16227 0.53883,2.36508 1.29823,3.40074 0.30876,0.42109 0.67763,0.79184 1.08404,1.11902 l 0.8786,0.92231 a 1.2077723,1.2077723 0 0 0 0.92668,0.38465 1.2077723,1.2077723 0 0 0 0.0524,0 1.2077723,1.2077723 0 0 0 0.84362,-0.3191 c 0.27237,0.2621 0.49678,0.58419 0.61633,0.9398 0.13585,0.40418 0.16047,0.86506 0.0656,1.28075 -0.15129,0.66212 -0.63097,1.32641 -1.27637,1.83151 -0.65738,0.51448 -1.50008,0.89832 -2.42161,1.24141 -0.9233,0.34374 -1.94118,0.65257 -2.97676,1.11902 -1.03999,0.46842 -2.10209,1.10603 -2.93741,2.08503 -0.8917,1.04505 -1.42461,2.3873 -1.42063,3.79415 0.004,1.41443 0.55678,2.80445 1.59547,3.81163 1.06948,1.03706 2.44786,1.49525 3.74171,1.67415 2.72889,0.37736 5.3171,-0.37484 7.65387,-1.08841 2.327437,-0.71071 4.560197,-1.39651 6.674737,-1.25451 0.58374,0.0392 1.12268,0.14346 1.58235,0.33219 0.4534,0.18621 0.83933,0.47019 1.07967,0.79555 0.20321,0.27517 0.3182,0.60626 0.31473,0.88736 -0.002,0.26809 -0.1307,0.54816 -0.28412,0.69063 -0.15576,0.14458 -0.47979,0.29135 -0.9267,0.3934 -0.45577,0.10407 -1.05283,0.17121 -1.73534,0.4109 -0.34266,0.12041 -0.70534,0.28954 -1.04908,0.54201 -0.34664,0.25462 -0.66773,0.58674 -0.89608,1.02287 -0.2317,0.4425 -0.35345,0.9617 -0.27975,1.51677 0.0752,0.56674 0.34776,1.11036 0.84364,1.4993 0.39643,0.31098 0.81818,0.42935 1.17584,0.48521 0.35074,0.0548 0.63146,0.0501 0.83926,0.0524 0.32915,0.004 0.49485,0.051 0.48957,0.0481 -0.0157,-0.009 0.0412,0.0367 0.0698,0.11795 0.0338,0.0953 0.0521,0.25914 0.0307,0.46772 -0.0441,0.42668 -0.30064,1.04129 -0.43711,1.90582 -0.0559,0.35477 -0.0747,0.71599 -0.0568,1.0753 a 1.2077723,1.2077723 0 0 0 0.71248,1.05344 l 0.0524,0.30162 0.99661,1.59547 0.0134,-0.004 -0.004,-0.004 -0.32347,-1.80965 a 1.2077723,1.2077723 0 0 0 0.96603,-1.25453 c -0.009,-0.19247 3.8e-4,-0.38601 0.0307,-0.57698 0.0734,-0.46562 0.36018,-1.11978 0.45461,-2.03258 0.0477,-0.46099 0.0293,-0.98634 -0.16181,-1.52553 -0.19605,-0.55324 -0.56428,-1.08443 -1.16709,-1.42063 -0.64108,-0.35752 -1.23604,-0.34956 -1.63481,-0.35405 -0.22291,-0.002 -0.36932,-0.004 -0.46334,-0.0179 0.0277,-0.0512 0.0848,-0.12734 0.17927,-0.19672 0.0996,-0.0732 0.24338,-0.14346 0.41963,-0.20545 0.35535,-0.12488 0.85645,-0.19583 1.47309,-0.33658 0.62553,-0.14279 1.38227,-0.37516 2.03257,-0.97914 0.69856,-0.6488 1.04241,-1.5358 1.05344,-2.43036 0.0112,-0.88156 -0.29481,-1.69595 -0.78243,-2.35606 -0.55801,-0.7554 -1.31728,-1.2669 -2.10688,-1.59108 -0.78333,-0.3216 -1.58166,-0.45622 -2.33856,-0.50707 -2.72086,-0.18262 -5.23703,0.65042 -7.544607,1.35506 -2.29823,0.7018 -4.54183,1.29186 -6.61355,1.00537 -0.95644,-0.13227 -1.82961,-0.46972 -2.391,-1.0141 -0.53133,-0.51522 -0.85893,-1.31256 -0.86112,-2.08503 -0.002,-0.78009 0.31144,-1.60196 0.83926,-2.22055 0.50651,-0.59362 1.24886,-1.07067 2.09378,-1.45123 0.84931,-0.38252 1.81404,-0.68027 2.82813,-1.0578 1.01584,-0.37821 2.09356,-0.84461 3.06417,-1.60422 0.98259,-0.76898 1.83263,-1.8421 2.141857,-3.19532 0.19583,-0.85707 0.15331,-1.75437 -0.12667,-2.58772 -0.280177,-0.83333 -0.786077,-1.57282 -1.459947,-2.13747 a 1.2077723,1.2077723 0 0 0 -0.21866,-0.14435 c 0.2339,-0.18755 0.49158,-0.35019 0.77369,-0.43711 0.64907,-0.20008 1.464777,-0.11414 2.224907,0.19225 0.77424,0.31207 1.52823,0.84216 2.28612,1.4687 0.75932,0.62772 1.53484,1.35584 2.45657,2.01946 0.92567,0.66646 2.00849,1.26977 3.27399,1.50369 1.35089,0.24969 2.77887,0.038 3.99523,-0.66879 1.22295,-0.71069 2.15178,-1.88395 2.50467,-3.2871 0.36336,-1.44472 0.0723,-2.86833 -0.41963,-4.07829 -1.03764,-2.55196 -2.98258,-4.41335 -4.76892,-6.08025 -1.77921,-1.66026 -3.48931,-3.25136 -4.4236,-5.1536 -0.25793,-0.52513 -0.44064,-1.04618 -0.50704,-1.53864 -0.0656,-0.48572 -0.0134,-0.96237 0.1486,-1.33319 0.13674,-0.31359 0.37115,-0.57495 0.61633,-0.7125 0.23383,-0.13115 0.53863,-0.16651 0.73873,-0.10496 0.20299,0.0624 0.49245,0.2716 0.8043,0.6076 0.31802,0.34269 0.67501,0.82706 1.22391,1.29823 0.27561,0.23658 0.59737,0.46674 0.98789,0.63818 0.3938,0.173 0.84564,0.28261 1.33755,0.26227 0.49902,-0.0201 1.0117,-0.17434 1.45562,-0.5158 0.45317,-0.34853 0.7853,-0.85351 0.87421,-1.47743 0.0712,-0.49879 -0.0356,-0.9256 -0.16606,-1.26328 -0.12779,-0.33102 -0.27404,-0.57072 -0.37592,-0.75184 -0.16136,-0.28687 -0.2012,-0.45186 -0.20097,-0.44584 2.4e-4,0.0179 0.009,-0.0526 0.0656,-0.11794 0.0656,-0.077 0.19762,-0.17658 0.38901,-0.26228 0.39159,-0.17501 1.05391,-0.2629 1.87086,-0.57698 0.33557,-0.12891 0.65521,-0.29025 0.95729,-0.48518 a 1.2077723,1.2077723 0 0 0 0.5464,-1.25453 l 0.48956,-0.22291 1.28512,-1.38128 z m -0.0179,0.0179 -1.26328,1.35942 -0.48957,0.22291 a 1.2077723,1.2077723 0 0 0 -0.32346,-0.60758 z m -48.939357,18.97515 1.76157,0.58133 0.20971,0.18352 a 1.2077723,1.2077723 0 0 0 -0.39779,0.5595 z m 38.094527,36.01824 a 1.2077723,1.2077723 0 0 0 0.7125,0.0786 l 0.31909,1.7878 -0.9835,-1.5736 z"
           id="logo"
           nostroke="true" />
      </g>
      <path
         id="x1-y0"
         style="opacity:1;fill:#00ff00;stroke:none;stroke-width:0.499999;stroke-linecap:round;stroke-linejoin:round;stroke-miterlimit:4;stroke-dasharray:none"
         d="m 111.33402,73.15782 c -1.31841,0 -2.38022,1.061808 -2.38022,2.380218 v 37.385312 c 0,1.31841 1.06181,2.3797 2.38022,2.3797 h 0.43976 V 73.15782 Z m 7.38508,0 v 42.14523 h 0.44028 c 1.31841,0 2.3797,-1.06129 2.3797,-2.3797 V 75.538038 c 0,-1.31841 -1.06129,-2.380218 -2.3797,-2.380218 z"
         class="LED" />
      <path
         id="x2-y0"
         style="fill:#00ff00;fill-rule:evenodd;stroke:#000000;stroke-width:0.5;stroke-linecap:butt;stroke-linejoin:miter;stroke-miterlimit:4;stroke-dasharray:none;stroke-opacity:1"
         d="m 70.910125,75.085868 c -1.063606,0.811461 -2.036318,1.63604 -2.856674,2.462384 -5.622314,5.663348 -10.447933,14.703026 -11.547615,16.836181 -0.008,0.102595 -0.01994,0.197745 -0.02791,0.300239 -0.01005,0.0186 -0.02204,0.03827 -0.03204,0.05685 -2.74918,5.105606 -2.390553,8.640298 -2.390553,8.640298 -0.01352,0.16459 -0.02299,0.32949 -0.02842,0.49454 l -0.387573,11.79773 9.961666,4.44314 0.523481,-15.90859 c 0,0 0.234246,-2.85312 1.216464,-4.677231 0.275458,-0.511564 0.644287,-1.16059 1.030428,-1.827795 0.566523,-7.773088 1.386538,-16.51277 2.385901,-18.547188 0.625366,-1.273067 1.342371,-2.651948 2.15284,-4.070554 z"
         class="LED" />
      <path
         id="x3-y0"
         style="opacity:1;fill:#00ff00;stroke:#000000;stroke-width:0.499999;stroke-linecap:round;stroke-linejoin:round"
         d="m 64.451604,102.15037 c -0.245372,1.12979 -0.327112,2.05827 -0.327112,2.05827 0,0 0.09496,-0.9334 0.338481,-2.05827 z m -10.812259,13.52372 -0.0078,0.22841 -3.855577,3.99975 c -0.159052,0.16492 -0.312449,0.33521 -0.459923,0.51057 0,0 -2.006898,2.38531 -4.139797,5.10873 -1.066451,1.3617 -2.168716,2.80762 -3.161565,4.22868 -0.992849,1.42106 -1.797552,1.68092 -2.968294,5.54436 -0.21491,0.70922 -1.028785,3.26578 -1.555977,6.94635 -0.674363,4.4386 -0.907439,10.21023 -0.907439,10.21023 h 10.091375 c 0.653589,-10.12327 1.500163,-12.44274 2.040702,-14.22652 0.661458,-2.18281 8.334375,-11.31094 8.334375,-11.31094 l 6.551538,-6.79648 z"
         class="LED" />
      <path
         id="x4-y0"
         style="opacity:1;fill:#00ff00;stroke:#000000;stroke-width:0.5;stroke-linecap:round;stroke-linejoin:round;stroke-miterlimit:4;stroke-dasharray:none"
         d="m 36.583021,152.45117 c -0.144439,2.29621 -0.2926,4.47037 -0.410827,7.54424 -0.433744,11.27738 -0.242763,17.63652 -0.05168,21.01267 h 10.080522 c -0.173117,-2.52551 -0.402021,-8.43885 0.06666,-20.62458 0.125997,-3.27593 0.27985,-5.60727 0.433049,-7.93233 z"
         class="LED" />
      <path
         id="x5-y0"
         style="opacity:1;fill:#00ff00;stroke:#000000;stroke-width:0.499999;stroke-linecap:round;stroke-linejoin:round"
         d="m 36.332392,184.1035 -0.06201,-0.81235 c 0.186452,2.11148 1.285971,10.67125 7.276042,19.02777 4.690269,6.54322 14.72371,20.83524 17.075444,24.18612 l 7.837249,-6.40684 c 0.283768,0.40438 2.017964,2.85926 2.017964,2.85926 0,0 -13.361459,-19.05 -18.719271,-26.52448 -5.357807,-7.47448 -5.423958,-13.75833 -5.423958,-13.75833 0,0 -0.06725,-0.54641 -0.141595,-1.66657 H 36.120518 c 0,0 -0.05785,0.461 0.211874,3.09542 z m 39.111305,44.7058 c 0,0 0.338281,0.4037 0.936895,1.06143 -0.58938,-0.64716 -0.936895,-1.06143 -0.936895,-1.06143 z m 1.101744,1.2392 c 0.268785,0.29273 0.57713,0.61932 0.942059,0.99787 -0.360778,-0.37359 -0.674695,-0.70743 -0.942059,-0.99787 z m 1.244367,1.30638 c 0.369038,0.37778 0.772369,0.7778 1.223182,1.21594 -0.446627,-0.43344 -0.856493,-0.84138 -1.223182,-1.21594 z m 1.647444,1.62316 c 0.464243,0.44373 0.963861,0.90369 1.501719,1.38906 -0.534543,-0.48182 -1.039653,-0.94818 -1.501719,-1.38906 z m 2.013831,1.84794 c 0.573453,0.50765 1.186135,1.02627 1.83193,1.56063 -0.643173,-0.53174 -1.260314,-1.05529 -1.83193,-1.56063 z m -13.804326,0.40825 c 0,0 0.246198,0.30771 0.6041,0.74001 -0.278715,-0.34019 -0.6041,-0.74001 -0.6041,-0.74001 z m 1.144635,1.37924 c 0.131467,0.15284 0.254239,0.29137 0.40876,0.46664 -0.143383,-0.16277 -0.285408,-0.32335 -0.40876,-0.46664 z m 15.015104,0.20671 c 1.686238,1.36811 3.573603,2.78155 5.676654,4.15013 h 0.0062 c -2.099803,-1.3664 -3.997664,-2.78415 -5.682856,-4.15013 z M 70.2435,238.22629 c 0.1954,0.21081 0.363863,0.3949 0.580842,0.6227 -0.211047,-0.22164 -0.390255,-0.41716 -0.580842,-0.6227 z"
         class="LED" />
      <path
         id="x6-y0"
         style="fill:#00ff00;fill-rule:evenodd;stroke:#000000;stroke-width:0.5;stroke-linecap:butt;stroke-linejoin:miter;stroke-miterlimit:4;stroke-dasharray:none;stroke-opacity:1"
         d="m 68.459113,220.0982 -7.841382,6.40995 c 0.180911,0.2578 1.588016,2.2505 1.588016,2.2505 l 5.44101,6.47558 c 0,0 19.000041,24.9145 47.931963,23.82955 0.19604,-0.007 0.37773,-0.0362 0.57257,-0.0455 l -0.046,-10.12083 c -0.30654,0.0171 -0.59509,0.0592 -0.90537,0.0708 -22.450644,0.8419 -39.756233,-20.15897 -39.756233,-20.15897 l 0.546738,-1.19786 -4.810559,-5.5702 -0.702799,0.91622 c 0,0 -1.734196,-2.45488 -2.017964,-2.85926 z"
         class="LED" />
      <path
         id="x7-y0"
         style="opacity:1;fill:#00ff00;stroke:#000000;stroke-width:0.499999;stroke-linecap:round;stroke-linejoin:round;stroke-miterlimit:4;stroke-dasharray:none"
         d="m 158.25105,220.13386 -3.75688,5.7552 0.55552,1.33015 -4.72374,5.61258 c 0,0 -12.33937,14.8702 -34.22065,16.08378 l 0.046,10.10274 c 13.48453,0.002 31.65564,-8.0686 41.95352,-19.73988 l -0.0491,0.0589 4.72375,-5.61258 4.61057,-7.48533 -8.09977,-6.01152 c -0.20033,0.37053 -0.31006,0.54674 -0.31006,0.54674 z"
         class="LED" />
      <path
         id="x8-y0"
         style="fill:#00ff00;fill-rule:evenodd;stroke:#000000;stroke-width:0.5;stroke-linecap:butt;stroke-linejoin:miter;stroke-miterlimit:4;stroke-dasharray:none;stroke-opacity:1"
         d="m 166.03714,160.8026 c 0.0405,1.97892 0.15296,8.04757 0.15296,8.04757 0,0 0.72761,24.34165 -1.05833,33.07291 -1.78593,8.73124 -1.5875,8.99585 -3.63802,13.62605 -1.40738,3.17794 -1.93234,4.18713 -2.20762,4.67568 l 8.1039,6.01462 1.0728,-1.7415 c 0.50454,-0.98665 1.19424,-2.43213 2.26859,-4.8581 2.20594,-4.98114 2.54999,-7.14403 4.29845,-15.69206 1.31633,-6.43539 1.36102,-14.39655 1.40353,-21.77697 0.0425,-7.38042 -0.14521,-13.62242 -0.14521,-13.62242 l 0.003,0.092 c 0,0 -0.10999,-5.94121 -0.14882,-7.83776 z"
         class="LED" />
      <path
         id="x9-y0"
         style="opacity:1;fill:#00ff00;stroke:#000000;stroke-width:0.499999;stroke-linecap:round;stroke-linejoin:round;stroke-miterlimit:4;stroke-dasharray:none"
         d="m 164.9478,111.31776 c 0.2301,4.99367 0.37504,10.21489 0.44855,15.72824 0.0211,5.38676 1.09081,55.94582 0.64079,33.7566 h 10.09499 c -0.18521,-9.07565 -0.53357,-26.35355 -0.63407,-33.89148 -0.0723,-5.42059 -0.21058,-10.60072 -0.43408,-15.59336 z"
         class="LED" />
      <path
         id="x10-y0"
         style="fill:#00ff00;stroke:#000000;stroke-width:0.499999;stroke-linecap:round;stroke-linejoin:round"
         d="m 155.73751,61.344071 c 1.31754,1.176041 3.2119,3.679008 4.30103,8.882663 1.78594,8.532813 3.43959,21.298958 4.16718,29.567187 0.3233,3.673769 0.55808,7.530859 0.74208,11.523839 h 10.11618 c -0.19148,-4.2771 -0.44329,-8.42116 -0.79427,-12.409574 -0.48358,-5.495255 -1.33856,-12.586549 -2.37505,-19.428787 -0.72059,-3.059142 -1.81383,-6.200294 -3.1874,-8.385535 -2.05798,-3.274047 -7.90473,-6.78198 -12.34809,-9.541536 -0.13048,-0.08104 -0.39483,-0.141759 -0.62166,-0.208257 z"
         class="LED" />
    </g>
  </g>
</svg>
