<?xml version="1.0" encoding="UTF-8"?>
<svg width="724" height="262" viewBox="0 0 724 262" version="1.1" xmlns="http://www.w3.org/2000/svg">
  <rect x="1" y="1" width="722" height="260" rx="10" style="fill:#181818;stroke:#555;stroke-width:2" nochange="true"/>
  <rect x="6" y="6" width="712" height="250" rx="7" style="fill:#222;stroke:#333;stroke-width:1" nochange="true"/>
  <g id="x0-y0" class="LED"><rect x="8" y="8" width="36" height="36" rx="4" style="fill:#00ff00;stroke:#008000;stroke-width:1.5"/><text class="label" x="26" y="30" text-anchor="middle" style="font-family:sans-serif;font-size:8px;fill:#111;stroke:none">Esc</text></g>
  <g id="x1-y0" class="LED"><rect x="50" y="8" width="36" height="36" rx="4" style="fill:#00ff00;stroke:#008000;stroke-width:1.5"/><text class="label" x="68" y="30" text-anchor="middle" style="font-family:sans-serif;font-size:8px;fill:#111;stroke:none"></text></g>
  <g id="x2-y0" class="LED"><rect x="92" y="8" width="36" height="36" rx="4" style="fill:#00ff00;stroke:#008000;stroke-width:1.5"/><text class="label" x="110" y="30" text-anchor="middle" style="font-family:sans-serif;font-size:8px;fill:#111;stroke:none">F1</text></g>
  <g id="x3-y0" class="LED"><rect x="134" y="8" width="36" height="36" rx="4" style="fill:#00ff00;stroke:#008000;stroke-width:1.5"/><text class="label" x="152" y="30" text-anchor="middle" style="font-family:sans-serif;font-size:8px;fill:#111;stroke:none">F2</text></g>
  <g id="x4-y0" class="LED"><rect x="176" y="8" width="36" height="36" rx="4" style="fill:#00ff00;stroke:#008000;stroke-width:1.5"/><text class="label" x="194" y="30" text-anchor="middle" style="font-family:sans-serif;font-size:8px;fill:#111;stroke:none">F3</text></g>
  <g id="x5-y0" class="LED"><rect x="218" y="8" width="36" height="36" rx="4" style="fill:#00ff00;stroke:#008000;stroke-width:1.5"/><text class="label" x="236" y="30" text-anchor="middle" style="font-family:sans-serif;font-size:8px;fill:#111;stroke:none">F4</text></g>
  <g id="x6-y0" class="LED"><rect x="260" y="8" width="36" height="36" rx="4" style="fill:#00ff00;stroke:#008000;stroke-width:1.5"/><text class="label" x="278" y="30" text-anchor="middle" style="font-family:sans-serif;font-size:8px;fill:#111;stroke:none">F5</text></g>
  <g id="x7-y0" class="LED"><rect x="302" y="8" width="36" height="36" rx="4" style="fill:#00ff00;stroke:#008000;stroke-width:1.5"/><text class="label" x="320" y="30" text-anchor="middle" style="font-family:sans-serif;font-size:8px;fill:#111;stroke:none">F6</text></g>
  <g id="x8-y0" class="LED"><rect x="344" y="8" width="36" height="36" rx="4" style="fill:#00ff00;stroke:#008000;stroke-width:1.5"/><text class="label" x="362" y="30" text-anchor="middle" style="font-family:sans-serif;font-size:8px;fill:#111;stroke:none">F7</text></g>
  <g id="x9-y0" class="LED"><rect x="386" y="8" width="36" height="36" rx="4" style="fill:#00ff00;stroke:#008000;stroke-width:1.5"/><text class="label" x="404" y="30" text-anchor="middle" style="font-family:sans-serif;font-size:8px;fill:#111;stroke:none">F8</text></g>
  <g id="x10-y0" class="LED"><rect x="428" y="8" width="36" height="36" rx="4" style="fill:#00ff00;stroke:#008000;stroke-width:1.5"/><text class="label" x="446" y="30" text-anchor="middle" style="font-family:sans-serif;font-size:8px;fill:#111;stroke:none">F9</text></g>
  <g id="x11-y0" class="LED"><rect x="470" y="8" width="36" height="36" rx="4" style="fill:#00ff00;stroke:#008000;stroke-width:1.5"/><text class="label" x="488" y="30" text-anchor="middle" style="font-family:sans-serif;font-size:8px;fill:#111;stroke:none">F10</text></g>
  <g id="x12-y0" class="LED"><rect x="512" y="8" width="36" height="36" rx="4" style="fill:#00ff00;stroke:#008000;stroke-width:1.5"/><text class="label" x="530" y="30" text-anchor="middle" style="font-family:sans-serif;font-size:8px;fill:#111;stroke:none">F11</text></g>
  <g id="x13-y0" class="LED"><rect x="554" y="8" width="36" height="36" rx="4" style="fill:#00ff00;stroke:#008000;stroke-width:1.5"/><text class="label" x="572" y="30" text-anchor="middle" style="font-family:sans-serif;font-size:8px;fill:#111;stroke:none">F12</text></g>
  <g id="x14-y0" class="LED"><rect x="596" y="8" width="36" height="36" rx="4" style="fill:#00ff00;stroke:#008000;stroke-width:1.5"/><text class="label" x="614" y="30" text-anchor="middle" style="font-family:sans-serif;font-size:8px;fill:#111;stroke:none">Prt</text></g>
  <g id="x15-y0" class="LED"><rect x="638" y="8" width="36" height="36" rx="4" style="fill:#00ff00;stroke:#008000;stroke-width:1.5"/><text class="label" x="656" y="30" text-anchor="middle" style="font-family:sans-serif;font-size:8px;fill:#111;stroke:none">Scr</text></g>
  <g id="x16-y0" class="LED"><rect x="680" y="8" width="36" height="36" rx="4" style="fill:#00ff00;stroke:#008000;stroke-width:1.5"/><text class="label" x="698" y="30" text-anchor="middle" style="font-family:sans-serif;font-size:8px;fill:#111;stroke:none">Pse</text></g>
  <g id="x0-y1" class="LED"><rect x="8" y="50" width="36" height="36" rx="4" style="fill:#00ff00;stroke:#008000;stroke-width:1.5"/><text class="label" x="26" y="72" text-anchor="middle" style="font-family:sans-serif;font-size:8px;fill:#111;stroke:none">`</text></g>
  <g id="x1-y1" class="LED"><rect x="50" y="50" width="36" height="36" rx="4" style="fill:#00ff00;stroke:#008000;stroke-width:1.5"/><text class="label" x="68" y="72" text-anchor="middle" style="font-family:sans-serif;font-size:8px;fill:#111;stroke:none">1</text></g>
  <g id="x2-y1" class="LED"><rect x="92" y="50" width="36" height="36" rx="4" style="fill:#00ff00;stroke:#008000;stroke-width:1.5"/><text class="label" x="110" y="72" text-anchor="middle" style="font-family:sans-serif;font-size:8px;fill:#111;stroke:none">2</text></g>
  <g id="x3-y1" class="LED"><rect x="134" y="50" width="36" height="36" rx="4" style="fill:#00ff00;stroke:#008000;stroke-width:1.5"/><text class="label" x="152" y="72" text-anchor="middle" style="font-family:sans-serif;font-size:8px;fill:#111;stroke:none">3</text></g>
  <g id="x4-y1" class="LED"><rect x="176" y="50" width="36" height="36" rx="4" style="fill:#00ff00;stroke:#008000;stroke-width:1.5"/><text class="label" x="194" y="72" text-anchor="middle" style="font-family:sans-serif;font-size:8px;fill:#111;stroke:none">4</text></g>
  <g id="x5-y1" class="LED"><rect x="218" y="50" width="36" height="36" rx="4" style="fill:#00ff00;stroke:#008000;stroke-width:1.5"/><text class="label" x="236" y="72" text-anchor="middle" style="font-family:sans-serif;font-size:8px;fill:#111;stroke:none">5</text></g>
  <g id="x6-y1" class="LED"><rect x="260" y="50" width="36" height="36" rx="4" style="fill:#00ff00;stroke:#008000;stroke-width:1.5"/><text class="label" x="278" y="72" text-anchor="middle" style="font-family:sans-serif;font-size:8px;fill:#111;stroke:none">6</text></g>
  <g id="x7-y1" class="LED"><rect x="302" y="50" width="36" height="36" rx="4" style="fill:#00ff00;stroke:#008000;stroke-width:1.5"/><text class="label" x="320" y="72" text-anchor="middle" style="font-family:sans-serif;font-size:8px;fill:#111;stroke:none">7</text></g>
  <g id="x8-y1" class="LED"><rect x="344" y="50" width="36" height="36" rx="4" style="fill:#00ff00;stroke:#008000;stroke-width:1.5"/><text class="label" x="362" y="72" text-anchor="middle" style="font-family:sans-serif;font-size:8px;fill:#111;stroke:none">8</text></g>
  <g id="x9-y1" class="LED"><rect x="386" y="50" width="36" height="36" rx="4" style="fill:#00ff00;stroke:#008000;stroke-width:1.5"/><text class="label" x="404" y="72" text-anchor="middle" style="font-family:sans-serif;font-size:8px;fill:#111;stroke:none">9</text></g>
  <g id="x10-y1" class="LED"><rect x="428" y="50" width="36" height="36" rx="4" style="fill:#00ff00;stroke:#008000;stroke-width:1.5"/><text class="label" x="446" y="72" text-anchor="middle" style="font-family:sans-serif;font-size:8px;fill:#111;stroke:none">0</text></g>
  <g id="x11-y1" class="LED"><rect x="470" y="50" width="36" height="36" rx="4" style="fill:#00ff00;stroke:#008000;stroke-width:1.5"/><text class="label" x="488" y="72" text-anchor="middle" style="font-family:sans-serif;font-size:8px;fill:#111;stroke:none">-</text></g>
  <g id="x12-y1" class="LED"><rect x="512" y="50" width="36" height="36" rx="4" style="fill:#00ff00;stroke:#008000;stroke-width:1.5"/><text class="label" x="530" y="72" text-anchor="middle" style="font-family:sans-serif;font-size:8px;fill:#111;stroke:none">=</text></g>
  <g id="x13-y1" class="LED"><rect x="554" y="50" width="36" height="36" rx="4" style="fill:#00ff00;stroke:#008000;stroke-width:1.5"/><text class="label" x="572" y="72" text-anchor="middle" style="font-family:sans-serif;font-size:8px;fill:#111;stroke:none">Bksp</text></g>
  <g id="x14-y1" class="LED"><rect x="596" y="50" width="36" height="36" rx="4" style="fill:#00ff00;stroke:#008000;stroke-width:1.5"/><text class="label" x="614" y="72" text-anchor="middle" style="font-family:sans-serif;font-size:8px;fill:#111;stroke:none">Ins</text></g>
  <g id="x15-y1" class="LED"><rect x="638" y="50" width="36" height="36" rx="4" style="fill:#00ff00;stroke:#008000;stroke-width:1.5"/><text class="label" x="656" y="72" text-anchor="middle" style="font-family:sans-serif;font-size:8px;fill:#111;stroke:none">Home</text></g>
  <g id="x16-y1" class="LED"><rect x="680" y="50" width="36" height="36" rx="4" style="fill:#00ff00;stroke:#008000;stroke-width:1.5"/><text class="label" x="698" y="72" text-anchor="middle" style="font-family:sans-serif;font-size:8px;fill:#111;stroke:none">PgUp</text></g>
  <g id="x0-y2" class="LED"><rect x="8" y="92" width="36" height="36" rx="4" style="fill:#00ff00;stroke:#008000;stroke-width:1.5"/><text class="label" x="26" y="114" text-anchor="middle" style="font-family:sans-serif;font-size:8px;fill:#111;stroke:none">Tab</text></g>
  <g id="x1-y2" class="LED"><rect x="50" y="92" width="36" height="36" rx="4" style="fill:#00ff00;stroke:#008000;stroke-width:1.5"/><text class="label" x="68" y="114" text-anchor="middle" style="font-family:sans-serif;font-size:8px;fill:#111;stroke:none">Q</text></g>
  <g id="x2-y2" class="LED"><rect x="92" y="92" width="36" height="36" rx="4" style="fill:#00ff00;stroke:#008000;stroke-width:1.5"/><text class="label" x="110" y="114" text-anchor="middle" style="font-family:sans-serif;font-size:8px;fill:#111;stroke:none">W</text></g>
  <g id="x3-y2" class="LED"><rect x="134" y="92" width="36" height="36" rx="4" style="fill:#00ff00;stroke:#008000;stroke-width:1.5"/><text class="label" x="152" y="114" text-anchor="middle" style="font-family:sans-serif;font-size:8px;fill:#111;stroke:none">E</text></g>
  <g id="x4-y2" class="LED"><rect x="176" y="92" width="36" height="36" rx="4" style="fill:#00ff00;stroke:#008000;stroke-width:1.5"/><text class="label" x="194" y="114" text-anchor="middle" style="font-family:sans-serif;font-size:8px;fill:#111;stroke:none">R</text></g>
  <g id="x5-y2" class="LED"><rect x="218" y="92" width="36" height="36" rx="4" style="fill:#00ff00;stroke:#008000;stroke-width:1.5"/><text class="label" x="236" y="114" text-anchor="middle" style="font-family:sans-serif;font-size:8px;fill:#111;stroke:none">T</text></g>
  <g id="x6-y2" class="LED"><rect x="260" y="92" width="36" height="36" rx="4" style="fill:#00ff00;stroke:#008000;stroke-width:1.5"/><text class="label" x="278" y="114" text-anchor="middle" style="font-family:sans-serif;font-size:8px;fill:#111;stroke:none">Y</text></g>
  <g id="x7-y2" class="LED"><rect x="302" y="92" width="36" height="36" rx="4" style="fill:#00ff00;stroke:#008000;stroke-width:1.5"/><text class="label" x="320" y="114" text-anchor="middle" style="font-family:sans-serif;font-size:8px;fill:#111;stroke:none">U</text></g>
  <g id="x8-y2" class="LED"><rect x="344" y="92" width="36" height="36" rx="4" style="fill:#00ff00;stroke:#008000;stroke-width:1.5"/><text class="label" x="362" y="114" text-anchor="middle" style="font-family:sans-serif;font-size:8px;fill:#111;stroke:none">I</text></g>
  <g id="x9-y2" class="LED"><rect x="386" y="92" width="36" height="36" rx="4" style="fill:#00ff00;stroke:#008000;stroke-width:1.5"/><text class="label" x="404" y="114" text-anchor="middle" style="font-family:sans-serif;font-size:8px;fill:#111;stroke:none">O</text></g>
  <g id="x10-y2" class="LED"><rect x="428" y="92" width="36" height="36" rx="4" style="fill:#00ff00;stroke:#008000;stroke-width:1.5"/><text class="label" x="446" y="114" text-anchor="middle" style="font-family:sans-serif;font-size:8px;fill:#111;stroke:none">P</text></g>
  <g id="x11-y2" class="LED"><rect x="470" y="92" width="36" height="36" rx="4" style="fill:#00ff00;stroke:#008000;stroke-width:1.5"/><text class="label" x="488" y="114" text-anchor="middle" style="font-family:sans-serif;font-size:8px;fill:#111;stroke:none">[</text></g>
  <g id="x12-y2" class="LED"><rect x="512" y="92" width="36" height="36" rx="4" style="fill:#00ff00;stroke:#008000;stroke-width:1.5"/><text class="label" x="530" y="114" text-anchor="middle" style="font-family:sans-serif;font-size:8px;fill:#111;stroke:none">]</text></g>
  <g id="x13-y2" class="LED"><rect x="554" y="92" width="36" height="36" rx="4" style="fill:#00ff00;stroke:#008000;stroke-width:1.5"/><text class="label" x="572" y="114" text-anchor="middle" style="font-family:sans-serif;font-size:8px;fill:#111;stroke:none">\</text></g>
  <g id="x14-y2" class="LED"><rect x="596" y="92" width="36" height="36" rx="4" style="fill:#00ff00;stroke:#008000;stroke-width:1.5"/><text class="label" x="614" y="114" text-anchor="middle" style="font-family:sans-serif;font-size:8px;fill:#111;stroke:none">Del</text></g>
  <g id="x15-y2" class="LED"><rect x="638" y="92" width="36" height="36" rx="4" style="fill:#00ff00;stroke:#008000;stroke-width:1.5"/><text class="label" x="656" y="114" text-anchor="middle" style="font-family:sans-serif;font-size:8px;fill:#111;stroke:none">End</text></g>
  <g id="x16-y2" class="LED"><rect x="680" y="92" width="36" height="36" rx="4" style="fill:#00ff00;stroke:#008000;stroke-width:1.5"/><text class="label" x="698" y="114" text-anchor="middle" style="font-family:sans-serif;font-size:8px;fill:#111;stroke:none">PgDn</text></g>
  <g id="x0-y3" class="LED"><rect x="8" y="134" width="36" height="36" rx="4" style="fill:#00ff00;stroke:#008000;stroke-width:1.5"/><text class="label" x="26" y="156" text-anchor="middle" style="font-family:sans-serif;font-size:8px;fill:#111;stroke:none">Caps</text></g>
  <g id="x1-y3" class="LED"><rect x="50" y="134" width="36" height="36" rx="4" style="fill:#00ff00;stroke:#008000;stroke-width:1.5"/><text class="label" x="68" y="156" text-anchor="middle" style="font-family:sans-serif;font-size:8px;fill:#111;stroke:none">A</text></g>
  <g id="x2-y3" class="LED"><rect x="92" y="134" width="36" height="36" rx="4" style="fill:#00ff00;stroke:#008000;stroke-width:1.5"/><text class="label" x="110" y="156" text-anchor="middle" style="font-family:sans-serif;font-size:8px;fill:#111;stroke:none">S</text></g>
  <g id="x3-y3" class="LED"><rect x="134" y="134" width="36" height="36" rx="4" style="fill:#00ff00;stroke:#008000;stroke-width:1.5"/><text class="label" x="152" y="156" text-anchor="middle" style="font-family:sans-serif;font-size:8px;fill:#111;stroke:none">D</text></g>
  <g id="x4-y3" class="LED"><rect x="176" y="134" width="36" height="36" rx="4" style="fill:#00ff00;stroke:#008000;stroke-width:1.5"/><text class="label" x="194" y="156" text-anchor="middle" style="font-family:sans-serif;font-size:8px;fill:#111;stroke:none">F</text></g>
  <g id="x5-y3" class="LED"><rect x="218" y="134" width="36" height="36" rx="4" style="fill:#00ff00;stroke:#008000;stroke-width:1.5"/><text class="label" x="236" y="156" text-anchor="middle" style="font-family:sans-serif;font-size:8px;fill:#111;stroke:none">G</text></g>
  <g id="x6-y3" class="LED"><rect x="260" y="134" width="36" height="36" rx="4" style="fill:#00ff00;stroke:#008000;stroke-width:1.5"/><text class="label" x="278" y="156" text-anchor="middle" style="font-family:sans-serif;font-size:8px;fill:#111;stroke:none">H</text></g>
  <g id="x7-y3" class="LED"><rect x="302" y="134" width="36" height="36" rx="4" style="fill:#00ff00;stroke:#008000;stroke-width:1.5"/><text class="label" x="320" y="156" text-anchor="middle" style="font-family:sans-serif;font-size:8px;fill:#111;stroke:none">J</text></g>
  <g id="x8-y3" class="LED"><rect x="344" y="134" width="36" height="36" rx="4" style="fill:#00ff00;stroke:#008000;stroke-width:1.5"/><text class="label" x="362" y="156" text-anchor="middle" style="font-family:sans-serif;font-size:8px;fill:#111;stroke:none">K</text></g>
  <g id="x9-y3" class="LED"><rect x="386" y="134" width="36" height="36" rx="4" style="fill:#00ff00;stroke:#008000;stroke-width:1.5"/><text class="label" x="404" y="156" text-anchor="middle" style="font-family:sans-serif;font-size:8px;fill:#111;stroke:none">L</text></g>
  <g id="x10-y3" class="LED"><rect x="428" y="134" width="36" height="36" rx="4" style="fill:#00ff00;stroke:#008000;stroke-width:1.5"/><text class="label" x="446" y="156" text-anchor="middle" style="font-family:sans-serif;font-size:8px;fill:#111;stroke:none">;</text></g>
  <g id="x11-y3" class="LED"><rect x="470" y="134" width="36" height="36" rx="4" style="fill:#00ff00;stroke:#008000;stroke-width:1.5"/><text class="label" x="488" y="156" text-anchor="middle" style="font-family:sans-serif;font-size:8px;fill:#111;stroke:none">'</text></g>
  <g id="x12-y3" class="LED"><rect x="512" y="134" width="36" height="36" rx="4" style="fill:#00ff00;stroke:#008000;stroke-width:1.5"/><text class="label" x="530" y="156" text-anchor="middle" style="font-family:sans-serif;font-size:8px;fill:#111;stroke:none">#</text></g>
  <g id="x13-y3" class="LED"><rect x="554" y="134" width="36" height="36" rx="4" style="fill:#00ff00;stroke:#008000;stroke-width:1.5"/><text class="label" x="572" y="156" text-anchor="middle" style="font-family:sans-serif;font-size:8px;fill:#111;stroke:none">Enter</text></g>
  <g id="x14-y3" class="LED"><rect x="596" y="134" width="36" height="36" rx="4" style="fill:#00ff00;stroke:#008000;stroke-width:1.5"/><text class="label" x="614" y="156" text-anchor="middle" style="font-family:sans-serif;font-size:8px;fill:#111;stroke:none"></text></g>
  <g id="x15-y3" class="LED"><rect x="638" y="134" width="36" height="36" rx="4" style="fill:#00ff00;stroke:#008000;stroke-width:1.5"/><text class="label" x="656" y="156" text-anchor="middle" style="font-family:sans-serif;font-size:8px;fill:#111;stroke:none"></text></g>
  <g id="x16-y3" class="LED"><rect x="680" y="134" width="36" height="36" rx="4" style="fill:#00ff00;stroke:#008000;stroke-width:1.5"/><text class="label" x="698" y="156" text-anchor="middle" style="font-family:sans-serif;font-size:8px;fill:#111;stroke:none"></text></g>
  <g id="x0-y4" class="LED"><rect x="8" y="176" width="36" height="36" rx="4" style="fill:#00ff00;stroke:#008000;stroke-width:1.5"/><text class="label" x="26" y="198" text-anchor="middle" style="font-family:sans-serif;font-size:8px;fill:#111;stroke:none">Shift</text></g>
  <g id="x1-y4" class="LED"><rect x="50" y="176" width="36" height="36" rx="4" style="fill:#00ff00;stroke:#008000;stroke-width:1.5"/><text class="label" x="68" y="198" text-anchor="middle" style="font-family:sans-serif;font-size:8px;fill:#111;stroke:none">Z</text></g>
  <g id="x2-y4" class="LED"><rect x="92" y="176" width="36" height="36" rx="4" style="fill:#00ff00;stroke:#008000;stroke-width:1.5"/><text class="label" x="110" y="198" text-anchor="middle" style="font-family:sans-serif;font-size:8px;fill:#111;stroke:none">X</text></g>
  <g id="x3-y4" class="LED"><rect x="134" y="176" width="36" height="36" rx="4" style="fill:#00ff00;stroke:#008000;stroke-width:1.5"/><text class="label" x="152" y="198" text-anchor="middle" style="font-family:sans-serif;font-size:8px;fill:#111;stroke:none">C</text></g>
  <g id="x4-y4" class="LED"><rect x="176" y="176" width="36" height="36" rx="4" style="fill:#00ff00;stroke:#008000;stroke-width:1.5"/><text class="label" x="194" y="198" text-anchor="middle" style="font-family:sans-serif;font-size:8px;fill:#111;stroke:none">V</text></g>
  <g id="x5-y4" class="LED"><rect x="218" y="176" width="36" height="36" rx="4" style="fill:#00ff00;stroke:#008000;stroke-width:1.5"/><text class="label" x="236" y="198" text-anchor="middle" style="font-family:sans-serif;font-size:8px;fill:#111;stroke:none">B</text></g>
  <g id="x6-y4" class="LED"><rect x="260" y="176" width="36" height="36" rx="4" style="fill:#00ff00;stroke:#008000;stroke-width:1.5"/><text class="label" x="278" y="198" text-anchor="middle" style="font-family:sans-serif;font-size:8px;fill:#111;stroke:none">N</text></g>
  <g id="x7-y4" class="LED"><rect x="302" y="176" width="36" height="36" rx="4" style="fill:#00ff00;stroke:#008000;stroke-width:1.5"/><text class="label" x="320" y="198" text-anchor="middle" style="font-family:sans-serif;font-size:8px;fill:#111;stroke:none">M</text></g>
  <g id="x8-y4" class="LED"><rect x="344" y="176" width="36" height="36" rx="4" style="fill:#00ff00;stroke:#008000;stroke-width:1.5"/><text class="label" x="362" y="198" text-anchor="middle" style="font-family:sans-serif;font-size:8px;fill:#111;stroke:none">,</text></g>
  <g id="x9-y4" class="LED"><rect x="386" y="176" width="36" height="36" rx="4" style="fill:#00ff00;stroke:#008000;stroke-width:1.5"/><text class="label" x="404" y="198" text-anchor="middle" style="font-family:sans-serif;font-size:8px;fill:#111;stroke:none">.</text></g>
  <g id="x10-y4" class="LED"><rect x="428" y="176" width="36" height="36" rx="4" style="fill:#00ff00;stroke:#008000;stroke-width:1.5"/><text class="label" x="446" y="198" text-anchor="middle" style="font-family:sans-serif;font-size:8px;fill:#111;stroke:none">/</text></g>
  <g id="x11-y4" class="LED"><rect x="470" y="176" width="36" height="36" rx="4" style="fill:#00ff00;stroke:#008000;stroke-width:1.5"/><text class="label" x="488" y="198" text-anchor="middle" style="font-family:sans-serif;font-size:8px;fill:#111;stroke:none">Shift</text></g>
  <g id="x12-y4" class="LED"><rect x="512" y="176" width="36" height="36" rx="4" style="fill:#00ff00;stroke:#008000;stroke-width:1.5"/><text class="label" x="530" y="198" text-anchor="middle" style="font-family:sans-serif;font-size:8px;fill:#111;stroke:none"></text></g>
  <g id="x13-y4" class="LED"><rect x="554" y="176" width="36" height="36" rx="4" style="fill:#00ff00;stroke:#008000;stroke-width:1.5"/><text class="label" x="572" y="198" text-anchor="middle" style="font-family:sans-serif;font-size:8px;fill:#111;stroke:none">Up</text></g>
  <g id="x14-y4" class="LED"><rect x="596" y="176" width="36" height="36" rx="4" style="fill:#00ff00;stroke:#008000;stroke-width:1.5"/><text class="label" x="614" y="198" text-anchor="middle" style="font-family:sans-serif;font-size:8px;fill:#111;stroke:none"></text></g>
  <g id="x15-y4" class="LED"><rect x="638" y="176" width="36" height="36" rx="4" style="fill:#00ff00;stroke:#008000;stroke-width:1.5"/><text class="label" x="656" y="198" text-anchor="middle" style="font-family:sans-serif;font-size:8px;fill:#111;stroke:none"></text></g>
  <g id="x16-y4" class="LED"><rect x="680" y="176" width="36" height="36" rx="4" style="fill:#00ff00;stroke:#008000;stroke-width:1.5"/><text class="label" x="698" y="198" text-anchor="middle" style="font-family:sans-serif;font-size:8px;fill:#111;stroke:none"></text></g>
  <g id="x0-y5" class="LED"><rect x="8" y="218" width="36" height="36" rx="4" style="fill:#00ff00;stroke:#008000;stroke-width:1.5"/><text class="label" x="26" y="240" text-anchor="middle" style="font-family:sans-serif;font-size:8px;fill:#111;stroke:none">Ctrl</text></g>
  <g id="x1-y5" class="LED"><rect x="50" y="218" width="36" height="36" rx="4" style="fill:#00ff00;stroke:#008000;stroke-width:1.5"/><text class="label" x="68" y="240" text-anchor="middle" style="font-family:sans-serif;font-size:8px;fill:#111;stroke:none">Fn</text></g>
  <g id="x2-y5" class="LED"><rect x="92" y="218" width="36" height="36" rx="4" style="fill:#00ff00;stroke:#008000;stroke-width:1.5"/><text class="label" x="110" y="240" text-anchor="middle" style="font-family:sans-serif;font-size:8px;fill:#111;stroke:none">Win</text></g>
  <g id="x3-y5" class="LED"><rect x="134" y="218" width="36" height="36" rx="4" style="fill:#00ff00;stroke:#008000;stroke-width:1.5"/><text class="label" x="152" y="240" text-anchor="middle" style="font-family:sans-serif;font-size:8px;fill:#111;stroke:none">Alt</text></g>
  <g id="x4-y5" class="LED"><rect x="176" y="218" width="36" height="36" rx="4" style="fill:#00ff00;stroke:#008000;stroke-width:1.5"/><text class="label" x="194" y="240" text-anchor="middle" style="font-family:sans-serif;font-size:8px;fill:#111;stroke:none"></text></g>
  <g id="x5-y5" class="LED"><rect x="218" y="218" width="36" height="36" rx="4" style="fill:#00ff00;stroke:#008000;stroke-width:1.5"/><text class="label" x="236" y="240" text-anchor="middle" style="font-family:sans-serif;font-size:8px;fill:#111;stroke:none">Space</text></g>
  <g id="x6-y5" class="LED"><rect x="260" y="218" width="36" height="36" rx="4" style="fill:#00ff00;stroke:#008000;stroke-width:1.5"/><text class="label" x="278" y="240" text-anchor="middle" style="font-family:sans-serif;font-size:8px;fill:#111;stroke:none"></text></g>
  <g id="x7-y5" class="LED"><rect x="302" y="218" width="36" height="36" rx="4" style="fill:#00ff00;stroke:#008000;stroke-width:1.5"/><text class="label" x="320" y="240" text-anchor="middle" style="font-family:sans-serif;font-size:8px;fill:#111;stroke:none"></text></g>
  <g id="x8-y5" class="LED"><rect x="344" y="218" width="36" height="36" rx="4" style="fill:#00ff00;stroke:#008000;stroke-width:1.5"/><text class="label" x="362" y="240" text-anchor="middle" style="font-family:sans-serif;font-size:8px;fill:#111;stroke:none"></text></g>
  <g id="x9-y5" class="LED"><rect x="386" y="218" width="36" height="36" rx="4" style="fill:#00ff00;stroke:#008000;stroke-width:1.5"/><text class="label" x="404" y="240" text-anchor="middle" style="font-family:sans-serif;font-size:8px;fill:#111;stroke:none">Alt</text></g>
  <g id="x10-y5" class="LED"><rect x="428" y="218" width="36" height="36" rx="4" style="fill:#00ff00;stroke:#008000;stroke-width:1.5"/><text class="label" x="446" y="240" text-anchor="middle" style="font-family:sans-serif;font-size:8px;fill:#111;stroke:none">Menu</text></g>
  <g id="x11-y5" class="LED"><rect x="470" y="218" width="36" height="36" rx="4" style="fill:#00ff00;stroke:#008000;stroke-width:1.5"/><text class="label" x="488" y="240" text-anchor="middle" style="font-family:sans-serif;font-size:8px;fill:#111;stroke:none">Ctrl</text></g>
  <g id="x12-y5" class="LED"><rect x="512" y="218" width="36" height="36" rx="4" style="fill:#00ff00;stroke:#008000;stroke-width:1.5"/><text class="label" x="530" y="240" text-anchor="middle" style="font-family:sans-serif;font-size:8px;fill:#111;stroke:none">Left</text></g>
  <g id="x13-y5" class="LED"><rect x="554" y="218" width="36" height="36" rx="4" style="fill:#00ff00;stroke:#008000;stroke-width:1.5"/><text class="label" x="572" y="240" text-anchor="middle" style="font-family:sans-serif;font-size:8px;fill:#111;stroke:none">Down</text></g>
  <g id="x14-y5" class="LED"><rect x="596" y="218" width="36" height="36" rx="4" style="fill:#00ff00;stroke:#008000;stroke-width:1.5"/><text class="label" x="614" y="240" text-anchor="middle" style="font-family:sans-serif;font-size:8px;fill:#111;stroke:none">Right</text></g>
  <g id="x15-y5" class="LED"><rect x="638" y="218" width="36" height="36" rx="4" style="fill:#00ff00;stroke:#008000;stroke-width:1.5"/><text class="label" x="656" y="240" text-anchor="middle" style="font-family:sans-serif;font-size:8px;fill:#111;stroke:none"></text></g>
  <g id="x16-y5" class="LED"><rect x="680" y="218" width="36" height="36" rx="4" style="fill:#00ff00;stroke:#008000;stroke-width:1.5"/><text class="label" x="698" y="240" text-anchor="middle" style="font-family:sans-serif;font-size:8px;fill:#111;stroke:none"></text></g>
</svg>
