<?xml version="1.0" encoding="UTF-8" standalone="no"?>
<svg
   xmlns:dc="http://purl.org/dc/elements/1.1/"
   xmlns:cc="http://creativecommons.org/ns#"
   xmlns:rdf="http://www.w3.org/1999/02/22-rdf-syntax-ns#"
   xmlns:svg="http://www.w3.org/2000/svg"
   xmlns="http://www.w3.org/2000/svg"
   xmlns:xlink="http://www.w3.org/1999/xlink"
   width="700"
   height="500"
   viewBox="0 0 185.20833 132.29167"
   version="1.1"
   id="svg8">
  <defs
     id="defs7029">
    <linearGradient
       id="linearGradient1637">
      <stop
         style="stop-color:#111111;stop-opacity:1"
         offset="0"
         id="stop1633" />
      <stop
         style="stop-color:#1e1e1e;stop-opacity:1"
         offset="1"
         id="stop1635" />
    </linearGradient>
    <linearGradient
       xlink:href="#linearGradient1637"
       id="linearGradient2751"
       gradientUnits="userSpaceOnUse"
       gradientTransform="translate(-0.07124728,0.0954601)"
       x1="92.725937"
       y1="14.050924"
       x2="92.725937"
       y2="22.423756" />
  </defs>
  <g
     id="LEDs"
     style="stroke-width:1.000125;stroke-miterlimit:4;stroke-dasharray:none;">
    <path
       style="fill:#0fff0f;fill-opacity:1;fill-rule:evenodd;stroke:none;stroke-width:3.78;stroke-linecap:round;stroke-miterlimit:4;stroke-dasharray:none;stroke-opacity:1;paint-order:markers fill stroke"
       d="m 104.55078,44.143842 c -16.995079,0 -37.453137,21.851602 -37.453137,38.92647 V 136.8418 H 136.8278 l 0,-92.697958 z"
       transform="scale(0.26458333)"
       class="LED"
       id="x14-y0" />
    <path
       id="x13-y0"
       style="fill:#0fff0f;fill-opacity:1;fill-rule:evenodd;stroke:none;stroke-width:3.78;stroke-linecap:round;stroke-miterlimit:4;stroke-dasharray:none;stroke-opacity:1;paint-order:markers fill stroke"
       d="m 67.097643,136.8418 v 78.09375 l 68.342657,0 V 136.8418 Z"
       transform="scale(0.26458333)"
       class="LED" />
    <path
       id="x12-y0"
       style="fill:#0fff0f;fill-opacity:1;fill-rule:evenodd;stroke:none;stroke-width:3.78;stroke-linecap:round;stroke-miterlimit:4;stroke-dasharray:none;stroke-opacity:1;paint-order:markers fill stroke"
       d="m 67.097643,214.93555 v 78.09179 l 68.342657,0 v -78.09179 z"
       transform="scale(0.26458333)"
       class="LED" />
    <path
       id="x11-y0"
       style="fill:#0fff0f;fill-opacity:1;fill-rule:evenodd;stroke:none;stroke-width:3.78;stroke-linecap:round;stroke-miterlimit:4;stroke-dasharray:none;stroke-opacity:1;paint-order:markers fill stroke"
       d="m 67.097643,293.02734 v 78.09375 l 68.342657,0 v -78.09375 z"
       transform="scale(0.26458333)"
       class="LED" />
    <path
       id="x10-y0"
       style="fill:#0fff0f;fill-opacity:1;fill-rule:evenodd;stroke:none;stroke-width:3.78;stroke-linecap:round;stroke-miterlimit:4;stroke-dasharray:none;stroke-opacity:1;paint-order:markers fill stroke"
       d="m 67.097643,371.12109 v 45.8086 c 0,17.07487 20.458058,40.60678 37.453137,40.60678 h 50.17774 v -86.41538 z"
       class="LED"
       transform="scale(0.26458333)" />
    <path
       id="x9-y0"
       style="fill:#0fff0f;fill-opacity:1;fill-rule:evenodd;stroke:none;stroke-width:3.78;stroke-linecap:round;stroke-miterlimit:4;stroke-dasharray:none;stroke-opacity:1;paint-order:markers fill stroke"
       d="m 154.72852,371.12109 0,86.41538 h 81.10546 l 0,-86.41538 z"
       class="LED"
       transform="scale(0.26458333)" />
    <path
       id="x8-y0"
       style="fill:#0fff0f;fill-opacity:1;fill-rule:evenodd;stroke:none;stroke-width:3.78;stroke-linecap:round;stroke-miterlimit:4;stroke-dasharray:none;stroke-opacity:1;paint-order:markers fill stroke"
       d="m 235.83398,371.12109 0,86.41538 h 81.10352 l 0,-86.41538 z"
       class="LED"
       transform="scale(0.26458333)" />
    <path
       id="x7-y0"
       style="fill:#0fff0f;fill-opacity:1;fill-rule:evenodd;stroke:none;stroke-width:3.78;stroke-linecap:round;stroke-miterlimit:4;stroke-dasharray:none;stroke-opacity:1;paint-order:markers fill stroke"
       d="m 316.9375,371.12109 0,86.41538 h 81.10547 l 0,-86.41538 z"
       class="LED"
       transform="scale(0.26458333)" />
    <path
       id="x6-y0"
       style="fill:#0fff0f;fill-opacity:1;fill-rule:evenodd;stroke:none;stroke-width:0;stroke-linecap:round;stroke-miterlimit:4;stroke-dasharray:none;stroke-opacity:1;paint-order:markers fill stroke"
       d="m 398.04297,371.12109 0,86.41538 h 81.10351 l 0,-86.41538 z"
       class="LED"
       transform="scale(0.26458333)" />
    <path
       id="x5-y0"
       style="fill:#0fff0f;fill-opacity:1;fill-rule:evenodd;stroke:none;stroke-width:3.78;stroke-linecap:round;stroke-miterlimit:4;stroke-dasharray:none;stroke-opacity:1;paint-order:markers fill stroke"
       d="m 479.14648,371.12109 0,86.41538 h 81.10547 l 0,-86.41538 z"
       class="LED"
       transform="scale(0.26458333)" />
    <path
       id="x4-y0"
       style="fill:#0fff0f;fill-opacity:1;fill-rule:evenodd;stroke:none;stroke-width:0;stroke-linecap:round;stroke-miterlimit:4;stroke-dasharray:none;stroke-opacity:1;paint-order:markers fill stroke"
       d="m 560.25195,371.12109 v 86.41538 h 35.19727 c 16.99508,0 36.94595,-23.53191 36.94595,-40.60678 v -45.8086 z"
       class="LED"
       transform="scale(0.26458333)" />
    <path
       id="x3-y0"
       style="fill:#0fff0f;fill-opacity:1;fill-rule:evenodd;stroke:none;stroke-width:3.78;stroke-linecap:round;stroke-miterlimit:4;stroke-dasharray:none;stroke-opacity:1;paint-order:markers fill stroke"
       d="m 560.25195,293.02734 v 78.09375 l 72.14322,0 v -78.09375 z"
       transform="scale(0.26458333)"
       class="LED" />
    <path
       id="x2-y0"
       style="fill:#0fff0f;fill-opacity:1;fill-rule:evenodd;stroke:none;stroke-width:3.78;stroke-linecap:round;stroke-miterlimit:4;stroke-dasharray:none;stroke-opacity:1;paint-order:markers fill stroke"
       d="m 560.25195,214.93555 v 78.09179 l 72.14322,0 v -78.09179 z"
       transform="scale(0.26458333)"
       class="LED" />
    <path
       id="x1-y0"
       style="fill:#0fff0f;fill-opacity:1;fill-rule:evenodd;stroke:none;stroke-width:3.78;stroke-linecap:round;stroke-miterlimit:4;stroke-dasharray:none;stroke-opacity:1;paint-order:markers fill stroke"
       d="m 526.74253,136.8418 33.50942,78.09375 h 72.14322 V 136.8418 Z"
       transform="scale(0.26458333)"
       class="LED" />
    <path
       id="x0-y0"
       style="mix-blend-mode:normal;fill:#0fff0f;fill-opacity:1;fill-rule:evenodd;stroke:none;stroke-width:3.78;stroke-linecap:round;stroke-miterlimit:4;stroke-dasharray:none;stroke-opacity:1;paint-order:markers fill stroke"
       d="m 560.25195,44.143842 v 46.348979 l -57.17899,36.665339 23.66957,9.68364 H 632.39517 V 83.070312 c 0,-17.074868 -19.95087,-38.92647 -36.94595,-38.92647 z"
       transform="scale(0.26458333)"
       class="LED" />
  </g>
  <g
     id="hints"
     style="stroke-width:0.52916667;stroke-miterlimit:4;stroke-dasharray:none;stroke:#646464;stroke-opacity:1"
     transform="translate(46.509135,-49.773906)">
    <path
       style="fill:none;fill-opacity:1;fill-rule:evenodd;stroke:#646464;stroke-width:0.529167;stroke-linecap:round;stroke-miterlimit:4;stroke-dasharray:none;stroke-opacity:1;paint-order:markers fill stroke"
       d="m 101.72419,61.453631 v 12.263165 l 5.79947,0.451377 1.39985,11.811788 11.88857,0 v -14.22704 c 0,-4.51772 -5.27867,-10.29929 -9.77528,-10.29929 z m 4.22978,24.52633 -4.22978,20.662309 h 19.08789 V 85.979961 Z m -4.22978,20.662309 v 20.66178 h 19.08789 v -20.66178 z m 0,20.66178 v 20.6623 h 19.08789 v -20.6623 z m 0,20.6623 v 22.86407 h 9.31261 c 4.49661,0 9.77528,-6.22615 9.77528,-10.74387 v -12.1202 z m -21.459156,0 v 22.86407 h 21.459156 v -22.86407 z m -21.45863,0 v 22.86407 h 21.45863 v -22.86407 z m -21.45916,0 v 22.86407 h 21.45916 v -22.86407 z m -21.458639,0 v 22.86407 h 21.458639 v -22.86407 z m -21.4591527,0 v 22.86407 H 15.888605 v -22.86407 z m -23.1856693,0 v 12.1202 c 0,4.51772 5.412861,10.74387 9.909476,10.74387 h 13.2761933 v -22.86407 z m 0,-20.6623 v 20.6623 h 18.082328 v -20.6623 z m 0,-20.66178 v 20.66178 h 18.082328 v -20.66178 z m 0,-20.662309 v 20.662309 h 18.082328 V 85.979961 Z m 9.909476,-24.52633 c -4.496615,0 -9.909476,5.78157 -9.909476,10.29929 v 14.22704 h 18.449437 v -24.52633 z"
       id="led-outline" />
  </g>
  <path
     id="logo"
     style="color:#000000;font-style:normal;font-variant:normal;font-weight:normal;font-stretch:normal;font-size:medium;line-height:normal;font-family:sans-serif;font-variant-ligatures:normal;font-variant-position:normal;font-variant-caps:normal;font-variant-numeric:normal;font-variant-alternates:normal;font-feature-settings:normal;text-indent:0;text-align:start;text-decoration:none;text-decoration-line:none;text-decoration-style:solid;text-decoration-color:#000000;letter-spacing:normal;word-spacing:normal;text-transform:none;writing-mode:lr-tb;direction:ltr;text-orientation:mixed;dominant-baseline:auto;baseline-shift:baseline;text-anchor:start;white-space:normal;shape-padding:0;clip-rule:nonzero;display:inline;overflow:visible;visibility:visible;isolation:auto;mix-blend-mode:normal;color-interpolation:sRGB;color-interpolation-filters:linearRGB;solid-color:#000000;solid-opacity:1;vector-effect:none;fill:#0f0f0f;fill-opacity:1;fill-rule:evenodd;stroke:none;stroke-width:0.673666;stroke-linecap:round;stroke-linejoin:miter;stroke-miterlimit:4;stroke-dasharray:none;stroke-dashoffset:0;stroke-opacity:1;color-rendering:auto;image-rendering:auto;shape-rendering:auto;text-rendering:auto;enable-background:accumulate"
     d="m 152.9973,25.286321 -0.58644,0.274316 a 0.33686699,0.33686699 0 0 0 -0.2426,-0.09876 0.33686699,0.33686699 0 0 0 -0.18167,0.05731 c -0.0453,0.02921 -0.0937,0.05386 -0.14391,0.07316 -0.12268,0.04718 -0.31985,0.06863 -0.55351,0.173122 -0.11796,0.0528 -0.24262,0.12976 -0.34624,0.251148 -0.10641,0.124546 -0.18332,0.287804 -0.18049,0.480358 0.002,0.20469 0.0882,0.348048 0.14274,0.445002 0.0304,0.05405 0.0495,0.09012 0.0597,0.114613 -0.0165,4.31e-4 -0.0432,-0.0038 -0.0731,-0.01699 -0.0316,-0.01392 -0.0677,-0.03801 -0.10735,-0.07193 -0.0797,-0.06842 -0.16774,-0.180366 -0.28773,-0.309677 -0.12174,-0.131175 -0.28278,-0.281929 -0.51937,-0.354781 -0.25411,-0.07826 -0.51632,-0.03676 -0.73394,0.08534 -0.21446,0.120322 -0.36819,0.308315 -0.45963,0.518155 -0.10475,0.240137 -0.12316,0.494353 -0.0915,0.730288 0.0316,0.234063 0.11159,0.446493 0.20478,0.636414 0.3353,0.682704 0.88687,1.173367 1.3789,1.632489 0.49001,0.45726 0.9458,0.916549 1.16554,1.456919 0.10145,0.249476 0.14227,0.507798 0.089,0.71932 -0.0505,0.200184 -0.19771,0.390383 -0.38404,0.498642 -0.18804,0.109328 -0.43045,0.148516 -0.6535,0.107299 -0.21398,-0.03956 -0.43273,-0.152549 -0.64249,-0.303575 -0.21092,-0.151795 -0.41722,-0.342924 -0.64984,-0.53522 -0.23309,-0.192634 -0.49556,-0.388417 -0.81442,-0.516938 -0.32277,-0.13009 -0.70166,-0.185957 -1.07164,-0.07193 -0.23428,0.07222 -0.44373,0.207474 -0.60593,0.391357 -0.0392,0.0445 -0.0649,0.0985 -0.0974,0.147525 -0.0616,-0.05155 -0.12221,-0.106096 -0.1694,-0.170693 -0.12622,-0.172132 -0.20336,-0.397859 -0.23654,-0.64007 -0.0333,-0.243896 -0.0243,-0.507779 -0.005,-0.785153 0.0212,-0.277527 0.0531,-0.570918 0.0524,-0.881468 -6.1e-4,-0.311238 -0.0347,-0.641761 -0.15736,-0.961932 -0.11372,-0.297328 -0.30571,-0.584757 -0.59984,-0.777842 -0.14746,-0.09671 -0.31706,-0.166233 -0.49988,-0.193837 -0.0918,-0.01392 -0.18544,-0.01746 -0.27918,-0.0085 -0.0937,0.009 -0.18708,0.03041 -0.27799,0.06462 -0.19818,0.07465 -0.35655,0.200821 -0.48034,0.340152 -0.12292,0.138252 -0.20998,0.286704 -0.28285,0.427934 -0.33969,0.658553 -0.4564,1.373442 -0.55351,2.043352 -0.097,0.668828 -0.1819,1.315171 -0.41575,1.879974 -0.0592,0.143018 -0.12292,0.263303 -0.19747,0.348689 -0.0715,0.08196 -0.16043,0.134454 -0.22932,0.145071 -0.0543,0.0083 -0.1208,-0.0073 -0.16468,-0.03657 -0.0434,-0.02909 -0.0807,-0.08392 -0.0915,-0.132898 -0.0142,-0.06004 -3.3e-4,-0.16293 0.0415,-0.29017 0.0427,-0.129854 0.11584,-0.289906 0.15358,-0.498647 0.0189,-0.104892 0.0278,-0.222313 0.009,-0.346243 -0.0189,-0.125182 -0.063,-0.254083 -0.14863,-0.37063 -0.0873,-0.118506 -0.21092,-0.215849 -0.36944,-0.260906 -0.16232,-0.04612 -0.34032,-0.03145 -0.49863,0.06585 -0.11466,0.07047 -0.18567,0.164841 -0.23404,0.249933 -0.0474,0.08347 -0.0715,0.156513 -0.0915,0.210918 -0.0118,0.03376 -0.0212,0.04962 -0.0281,0.06585 -0.0118,-0.005 -0.0236,-0.0068 -0.0462,-0.02442 -0.0675,-0.05257 -0.15524,-0.184141 -0.32308,-0.332833 -0.0694,-0.06143 -0.14533,-0.115628 -0.22673,-0.159722 a 0.33686699,0.33686699 0 0 0 -0.36818,0.0256 l -0.0597,-0.0512 -0.49743,-0.163379 -0.001,-0.0013 -0.001,0.0026 v 0.0012 l 0.445,0.374289 a 0.33686699,0.33686699 0 0 0 0.16209,0.40477 c 0.0361,0.01958 0.0705,0.04357 0.10121,0.07071 0.0745,0.06611 0.16798,0.214551 0.35601,0.360882 0.0956,0.07429 0.21587,0.142877 0.36819,0.168239 0.15807,0.02628 0.33525,0.0026 0.48888,-0.11216 0.0904,-0.06731 0.14604,-0.146557 0.18544,-0.218231 0.0387,-0.07066 0.0599,-0.132166 0.0769,-0.178007 0.0142,-0.03546 0.0212,-0.05143 0.0293,-0.07193 0.005,0.0125 0.0118,0.02123 0.0141,0.04027 0.005,0.03327 0.002,0.07781 -0.007,0.129241 -0.0189,0.103949 -0.0738,0.237634 -0.13047,0.409643 -0.0573,0.174656 -0.11395,0.395983 -0.0585,0.646171 0.05,0.226017 0.18355,0.418651 0.37427,0.546193 0.19016,0.127282 0.41837,0.177251 0.64252,0.142641 0.2687,-0.04152 0.48099,-0.192775 0.63398,-0.368198 0.15005,-0.172014 0.2407,-0.361449 0.31211,-0.534003 0.27979,-0.676051 0.36392,-1.380704 0.45963,-2.04091 0.0956,-0.659135 0.20927,-1.295023 0.48523,-1.829992 0.059,-0.114189 0.11962,-0.213561 0.1878,-0.290164 0.067,-0.07552 0.14368,-0.130585 0.21446,-0.157268 0.0642,-0.02423 0.1432,-0.03227 0.21941,-0.02076 0.0771,0.01156 0.15689,0.0427 0.22908,0.09022 0.14533,0.09543 0.26726,0.26226 0.34139,0.455974 0.0816,0.213726 0.11277,0.462581 0.11324,0.72298 5.2e-4,0.261087 -0.0292,0.537741 -0.0512,0.830259 -0.0212,0.292678 -0.0368,0.602872 0.007,0.925364 0.0444,0.324177 0.15029,0.659659 0.3621,0.948523 0.0861,0.117444 0.18898,0.22085 0.30237,0.312111 l 0.24505,0.257247 a 0.33686699,0.33686699 0 0 0 0.25846,0.107276 0.33686699,0.33686699 0 0 0 0.0142,0 0.33686699,0.33686699 0 0 0 0.23521,-0.08899 c 0.076,0.07311 0.13849,0.162931 0.17199,0.262124 0.038,0.112725 0.0448,0.241279 0.0189,0.357223 -0.0422,0.184683 -0.176,0.369958 -0.35601,0.510836 -0.18332,0.143491 -0.4184,0.250559 -0.67544,0.34625 -0.25751,0.09588 -0.54142,0.182017 -0.83025,0.312112 -0.29007,0.130656 -0.58632,0.30849 -0.8193,0.581549 -0.24871,0.291479 -0.39734,0.665856 -0.39623,1.058249 0.001,0.394509 0.15523,0.782206 0.445,1.063123 0.2983,0.289253 0.68275,0.41705 1.04362,0.46695 0.76114,0.105247 1.48303,-0.104562 2.1348,-0.303578 0.64915,-0.198225 1.2719,-0.389507 1.86167,-0.349902 0.16279,0.01085 0.31315,0.04001 0.44135,0.09265 0.12645,0.05193 0.23404,0.131152 0.30113,0.221889 0.0566,0.07675 0.0887,0.169088 0.0878,0.247498 -6.1e-4,0.07476 -0.0366,0.15288 -0.0793,0.192634 -0.0434,0.04032 -0.13377,0.08125 -0.25846,0.109729 -0.12716,0.02902 -0.29366,0.04775 -0.48403,0.114613 -0.0956,0.03357 -0.19676,0.08076 -0.29259,0.151182 -0.0967,0.07101 -0.18615,0.163662 -0.24994,0.285294 -0.0647,0.123413 -0.0986,0.268233 -0.0781,0.423053 0.0212,0.158071 0.097,0.309696 0.23522,0.418179 0.11064,0.08673 0.22814,0.119756 0.32793,0.135327 0.0979,0.01534 0.17624,0.01392 0.23404,0.01463 0.0918,0.0012 0.13802,0.01416 0.1366,0.01345 -0.005,-0.0026 0.0118,0.01014 0.0189,0.03289 0.009,0.02659 0.0142,0.07229 0.009,0.130467 -0.0118,0.119001 -0.0838,0.290432 -0.12197,0.531563 -0.0165,0.09895 -0.0212,0.199711 -0.0165,0.299919 a 0.33686699,0.33686699 0 0 0 0.19864,0.293822 l 0.0142,0.08413 0.27797,0.445001 0.005,-0.0012 -0.001,-0.0012 -0.0901,-0.50474 a 0.33686699,0.33686699 0 0 0 0.26943,-0.349907 c -0.002,-0.05367 1.2e-4,-0.107677 0.009,-0.160926 0.0212,-0.129877 0.1005,-0.312323 0.12669,-0.566918 0.0142,-0.12858 0.007,-0.275107 -0.0451,-0.425493 -0.0547,-0.154296 -0.15736,-0.302467 -0.32551,-0.396238 -0.17883,-0.09973 -0.34476,-0.09748 -0.45597,-0.09876 -0.0623,-6.23e-4 -0.1031,-0.0012 -0.12929,-0.005 0.007,-0.01439 0.0236,-0.03553 0.05,-0.05488 0.0278,-0.02053 0.0679,-0.04001 0.11701,-0.05731 0.0991,-0.03482 0.23888,-0.05462 0.41087,-0.09388 0.17435,-0.03982 0.38555,-0.104633 0.56693,-0.273096 0.19488,-0.180955 0.29073,-0.428359 0.29382,-0.677868 0.002,-0.24588 -0.0823,-0.473027 -0.21823,-0.657142 -0.15571,-0.210682 -0.36743,-0.353358 -0.58764,-0.443777 -0.21847,-0.0897 -0.44116,-0.127258 -0.65227,-0.141437 -0.7589,-0.05094 -1.46069,0.181403 -2.10432,0.377946 -0.64101,0.195748 -1.26678,0.360321 -1.84461,0.280413 -0.26679,-0.0369 -0.51031,-0.13101 -0.66689,-0.282848 -0.14817,-0.143702 -0.23959,-0.366091 -0.24018,-0.581548 -6.1e-4,-0.217571 0.0868,-0.446811 0.23404,-0.619347 0.14132,-0.165573 0.34835,-0.298628 0.58401,-0.404769 0.23687,-0.106686 0.50595,-0.189732 0.7888,-0.29504 0.28335,-0.105482 0.58394,-0.235572 0.85464,-0.447441 0.27408,-0.21448 0.51116,-0.51379 0.59741,-0.891225 0.0545,-0.239052 0.0427,-0.48932 -0.0354,-0.721757 -0.0781,-0.232435 -0.21918,-0.438684 -0.40721,-0.596174 a 0.33686699,0.33686699 0 0 0 -0.0611,-0.04027 c 0.0654,-0.0523 0.13707,-0.09767 0.21587,-0.121926 0.18096,-0.0558 0.40856,-0.03183 0.62056,0.05363 0.21587,0.08703 0.42625,0.234888 0.63764,0.409645 0.21186,0.175081 0.42809,0.378167 0.68518,0.56326 0.25819,0.185886 0.5602,0.354158 0.91317,0.419401 0.37678,0.06965 0.77507,0.01062 1.11433,-0.186523 0.3411,-0.198225 0.60017,-0.525464 0.6986,-0.916826 0.10145,-0.402952 0.0212,-0.800021 -0.11702,-1.137499 -0.28941,-0.711782 -0.8319,-1.230952 -1.33013,-1.69588 -0.49625,-0.463071 -0.97322,-0.906855 -1.23382,-1.437418 -0.072,-0.146463 -0.12292,-0.291798 -0.14132,-0.429152 -0.0189,-0.135469 -0.005,-0.268423 0.0415,-0.371848 0.0382,-0.08746 0.10357,-0.160359 0.17199,-0.198721 0.0651,-0.03657 0.15029,-0.04643 0.20597,-0.02928 0.0566,0.01746 0.1373,0.07576 0.22436,0.169466 0.0887,0.09557 0.18827,0.230688 0.34136,0.362097 0.0769,0.06599 0.16657,0.130184 0.27554,0.178006 0.10994,0.04825 0.23593,0.07882 0.37307,0.07316 0.1392,-0.0057 0.28219,-0.04863 0.40601,-0.143868 0.12645,-0.0972 0.21894,-0.238059 0.24383,-0.412081 0.0189,-0.139125 -0.009,-0.258164 -0.0462,-0.352346 -0.0356,-0.09234 -0.0764,-0.159179 -0.10475,-0.209715 -0.0451,-0.08 -0.0562,-0.126031 -0.0562,-0.124356 7e-5,0.005 0.002,-0.01463 0.0189,-0.03289 0.0189,-0.02147 0.0552,-0.04926 0.10852,-0.07316 0.10924,-0.04881 0.29394,-0.07333 0.5218,-0.160925 0.0937,-0.03596 0.18284,-0.08095 0.26702,-0.135328 a 0.33686699,0.33686699 0 0 0 0.15241,-0.349909 l 0.1366,-0.06217 0.35844,-0.385262 z m -0.005,0.005 -0.35235,0.379165 -0.1366,0.06217 a 0.33686699,0.33686699 0 0 0 -0.0901,-0.169466 z m -13.64996,5.292474 0.49132,0.162152 0.0585,0.0512 a 0.33686699,0.33686699 0 0 0 -0.11088,0.156065 z m 10.62518,10.046063 a 0.33686699,0.33686699 0 0 0 0.19865,0.02194 l 0.0889,0.498647 -0.27431,-0.438903 z M 33.253373,18.613234 H 151.80261 c 4.10422,0 7.40834,3.304116 7.40834,7.408333 V 106.2701 c 0,4.10422 -3.30412,7.40833 -7.40834,7.40833 H 33.253373 c -4.104217,0 -7.408334,-3.30411 -7.408334,-7.40833 V 26.021567 c 0,-4.104217 3.304117,-7.408333 7.408334,-7.408333 z" />
  <path
     style="fill:url(#linearGradient2751);fill-opacity:1;fill-rule:evenodd;stroke:#1e1e1e;stroke-width:1.05833;stroke-linecap:butt;stroke-linejoin:miter;stroke-miterlimit:4;stroke-dasharray:none;stroke-opacity:1"
     d="M 78.524552,14.537132 H 106.1847 l 3.37145,4.241969 -3.90396,3.413931 H 79.125469 l -3.91494,-3.413931 z"
     id="top" />
  <metadata
     id="metadata7927">
    <rdf:RDF>
      <cc:Work
         rdf:about="">
        <dc:title></dc:title>
      </cc:Work>
    </rdf:RDF>
  </metadata>
</svg>
