<?xml version="1.0" encoding="UTF-8" standalone="no"?>
<svg
   id="svg3039"
   height="211.98726"
   width="600.04498"
   version="1.1"
   xmlns:xlink="http://www.w3.org/1999/xlink"
   xmlns="http://www.w3.org/2000/svg"
   xmlns:svg="http://www.w3.org/2000/svg"
   xmlns:rdf="http://www.w3.org/1999/02/22-rdf-syntax-ns#"
   xmlns:cc="http://creativecommons.org/ns#"
   xmlns:dc="http://purl.org/dc/elements/1.1/">
  <metadata
     id="metadata3045">
    <rdf:RDF>
      <cc:Work
         rdf:about="">
        <dc:format>image/svg+xml</dc:format>
        <dc:type
           rdf:resource="http://purl.org/dc/dcmitype/StillImage" />
      </cc:Work>
    </rdf:RDF>
  </metadata>
  <defs
     id="defs3043">
    <linearGradient
       id="linearGradient7580">
      <stop
         style="stop-color:#181818;stop-opacity:1;"
         offset="0"
         id="stop7576" />
      <stop
         style="stop-color:#1e1e1e;stop-opacity:1"
         offset="1"
         id="stop7578" />
    </linearGradient>
    <linearGradient
       id="linearGradient4076"
       y2="448.69"
       gradientUnits="userSpaceOnUse"
       x2="516.63"
       y1="448.69"
       x1="442.82999">
      <stop
         id="stop5171"
         style="stop-color:#141414"
         offset="0" />
      <stop
         id="stop5173"
         style="stop-color:#1d1d1d"
         offset="1" />
    </linearGradient>
    <clipPath
       id="clipPath7578"
       clipPathUnits="userSpaceOnUse">
      <path
         id="path7580"
         style="color:#000000;text-indent:0;text-decoration:none;text-decoration-line:none;text-transform:none;fill:#1a1a1a"
         d="m 413.5,-63.886 c -5.5087,-0.01007 -11.255,0.2211 -17.247,0.69883 -151.44,12.196 -111.28,172.19 -113.52,225.76 -2.7656,39.179 -10.709,70.055 -37.655,108.36 -31.657,37.646 -76.227,98.577 -97.341,162 -9.9648,29.935 -14.707,60.446 -10.327,89.324 -1.3718,1.2285 -2.6778,2.5156 -3.9196,3.8413 -9.2946,9.9228 -16.162,21.946 -23.815,30.041 -7.1493,7.1316 -17.335,9.8442 -28.529,13.86 -11.198,4.0177 -23.492,9.941 -30.955,24.261 0,0 0,0.005 -0.005,0.007 -0.01218,0.0238 -0.02547,0.0461 -0.03816,0.0703 -6.7556,12.618 -4.7473,27.149 -2.6841,40.611 2.0633,13.462 4.152,26.183 1.3795,34.814 -8.8623,24.223 -9.9937,40.978 -3.755,53.132 6.252,12.179 19.107,17.555 33.635,20.589 29.057,6.0689 68.409,4.5608 99.422,20.998 l 2.6656,-5.0297 -2.638,5.0447 c 33.201,17.359 66.861,23.524 93.715,17.39 19.47,-4.447 35.275,-16.04 43.392,-33.879 21.004,-0.10329 44.053,-8.9992 80.974,-11.032 25.047,-2.0176 56.336,8.8946 92.325,6.8962 0.94075,3.9046 2.3023,7.6602 4.166,11.229 0.0191,0.0367 0.037,0.073 0.0565,0.10928 13.951,27.898 39.874,40.659 67.5,38.479 27.662,-2.183 57.073,-18.494 80.846,-46.786 l -4.3583,-3.6627 4.3916,3.6224 c 22.66,-27.476 60.272,-38.869 85.212,-53.911 12.47,-7.5212 22.588,-16.939 23.37,-30.618 0.78137,-13.672 -7.2451,-28.993 -25.702,-49.481 l -0.005,-0.005 c -0.007,-0.009 -0.0144,-0.017 -0.0216,-0.0255 -6.0643,-6.853 -8.9573,-19.554 -12.066,-33.08 -3.1068,-13.518 -6.5748,-28.099 -17.673,-37.549 -0.0222,-0.0196 -0.0446,-0.0371 -0.0668,-0.0565 -4.4168,-3.8487 -9.0066,-6.4608 -13.629,-8.2157 15.429,-45.76 9.3756,-91.326 -6.1994,-132.5 -19.115,-50.534 -52.487,-94.566 -77.974,-124.69 -28.528,-35.984 -56.431,-70.148 -55.882,-120.61 0.84975,-77.011 8.471,-219.83 -127.05,-220.01 z m 18.346,118.64 c 7.6898,0 14.257,2.254 21.004,7.1506 6.8535,4.9743 11.791,11.201 15.77,19.897 3.9057,8.4748 5.7849,16.765 5.9692,26.603 0,0.25793 0,0.47896 0.0737,0.7369 0.0737,10.096 -1.6581,18.681 -5.4902,27.451 -2.1866,5.004 -4.6977,9.2039 -7.7033,12.84 -1.0204,-0.48987 -2.0801,-0.96088 -3.1792,-1.4128 -7.6184,-3.263 -13.463,-5.3395 -18.334,-7.0297 1.7657,-2.1224 3.2359,-4.6395 4.5287,-7.7862 1.9529,-4.7532 2.9109,-9.396 3.0951,-14.923 0,-0.22114 0.0737,-0.40539 0.0737,-0.66331 0.1105,-5.3058 -0.58955,-9.8381 -2.1371,-14.481 -1.6213,-4.8637 -3.6847,-8.3641 -6.6693,-11.275 -2.9846,-2.911 -5.9692,-4.2374 -9.5434,-4.348 -0.16756,-0.0101 -0.33463,-0.0101 -0.49969,-0.0101 -3.362,0.0101 -6.2812,1.163 -9.3015,3.6916 -3.1688,2.6531 -5.527,6.0428 -7.4799,10.759 -1.9529,4.7163 -2.9109,9.3958 -3.0951,14.96 -0.037,0.22114 -0.037,0.40539 -0.037,0.62643 -0.0637,3.0584 0.13058,5.86 0.6022,8.5806 -6.8791,-3.4278 -13.362,-5.7647 -19.446,-7.2128 -0.34682,-2.6309 -0.54743,-5.3458 -0.61148,-8.1845 v -0.77387 c -0.11056,-10.059 1.5476,-18.681 5.4165,-27.451 3.8689,-8.7696 8.659,-15.07 15.402,-20.192 6.743,-5.1217 13.375,-7.4798 21.224,-7.5536 h 0.36733 z m -105.25,8.3331 c 5.1013,0.0121 9.6659,1.7163 14.388,5.4868 5.1217,4.0899 8.9906,9.3221 12.233,16.692 3.2425,7.3694 4.9743,14.739 5.4533,23.435 v 0.0732 c 0.23218,3.6522 0.20379,7.09 -0.0841,10.419 -1.0089,0.28676 -1.9976,0.59704 -2.9662,0.93048 -5.5004,1.8934 -10.348,4.4736 -14.573,7.2635 0.41314,-2.9183 0.47463,-5.8793 0.15775,-9.1807 -0.0371,-0.18425 -0.0371,-0.33162 -0.0371,-0.51578 -0.44217,-4.3848 -1.3633,-8.0694 -2.9109,-11.791 -1.6581,-3.8688 -3.5004,-6.5955 -5.9324,-8.6959 -2.2039,-1.9033 -4.2862,-2.7773 -6.5771,-2.76 -0.23701,0 -0.47671,0.0131 -0.71849,0.0332 -2.5793,0.2209 -4.7164,1.4737 -6.743,3.9425 -2.0266,2.4687 -3.353,5.527 -4.311,9.5801 -0.95803,4.0532 -1.216,8.0327 -0.81066,12.602 0,0.18416 0.0371,0.33171 0.0371,0.51586 0.44211,4.4217 1.3264,8.1063 2.9109,11.828 1.6213,3.832 3.5004,6.5587 5.9324,8.6589 0.40727,0.35174 0.81019,0.6677 1.2113,0.94998 -2.5295,1.9468 -3.7374,2.8444 -5.8102,4.3675 -1.3295,0.97552 -2.9129,2.137 -4.7532,3.4936 -4.0134,-3.7597 -7.1444,-8.4849 -9.8819,-14.706 -3.2425,-7.3693 -4.9743,-14.739 -5.4902,-23.435 v -0.0732 c -0.47899,-8.6958 0.36847,-16.176 2.7635,-23.914 2.395,-7.7379 5.6008,-13.339 10.243,-17.945 4.6427,-4.6058 9.3223,-6.9271 14.96,-7.2218 0.44042,-0.0242 0.87692,-0.0352 1.3092,-0.0332 z m 47.867,60.329 c 11.857,-0.0458 26.124,3.8414 43.397,14.947 10.61,6.8996 18.866,7.4763 37.876,15.618 l 0.0228,0.0101 0.0233,0.009 c 9.1467,3.7529 14.515,8.6445 17.138,13.796 2.6229,5.1512 2.6871,10.737 0.49165,16.613 -4.3907,11.753 -18.406,24.121 -38.073,30.263 l -0.0186,0.008 -0.0175,0.008 c -9.5896,3.1157 -17.952,9.9961 -27.81,15.633 -9.8581,5.637 -21.013,10.184 -36.181,9.3061 v 0 c -12.913,-0.75261 -20.632,-5.1363 -27.611,-10.745 -6.9796,-5.6093 -13.062,-12.656 -21.968,-17.886 l -0.0228,-0.0137 -0.0233,-0.0137 c -14.346,-8.1084 -22.178,-17.487 -24.636,-25.617 -2.4581,-8.1301 -0.15126,-15.07 6.9663,-20.404 8.0022,-5.9971 13.561,-10.076 17.264,-12.794 3.6785,-2.6993 5.2089,-3.7114 6.3803,-4.8362 0.006,-0.009 0.0123,-0.0128 0.0185,-0.0183 l 0.005,-0.009 c 6.0126,-5.6914 15.597,-16.06 30.045,-21.034 4.9726,-1.7118 10.521,-2.8162 16.732,-2.8407 z m 82.91,49.035 c -5.1165,0.30507 -10.475,2.9394 -16.715,6.4229 -6.2395,3.4834 -13.256,7.9394 -20.86,12.328 -15.208,8.7762 -32.714,17.169 -50.112,17.169 -17.425,0 -31.346,-8.0474 -41.788,-16.322 -5.2209,-4.1373 -9.5298,-8.3046 -12.972,-11.528 -1.7213,-1.612 -3.2141,-2.9859 -4.607,-4.059 -1.3927,-1.0731 -2.5263,-2.1371 -4.8569,-2.1371 l -0.11168,4.8972 c -0.16687,1.6386 -0.33834,1.5881 -0.27059,1.6328 0.10871,0.0714 0.64946,0.25783 1.2804,0.74386 1.024,0.78889 2.4455,2.0749 4.1326,3.6547 3.3742,3.1598 7.8577,7.5042 13.378,11.879 11.04,8.7486 26.393,17.724 45.816,17.724 19.449,0 37.85,-9.0906 53.354,-18.038 7.7519,-4.4736 14.792,-8.9391 20.779,-12.281 5.9866,-3.3424 11.023,-5.4384 13.94,-5.6123 z m 17.288,23.274 c 12.918,50.921 42.963,124.47 62.273,160.36 10.264,19.043 30.685,59.504 39.508,108.25 5.5905,-0.17127 11.746,0.64098 18.338,2.3271 23.068,-59.802 -19.561,-124.22 -39.054,-142.16 -7.8699,-7.6366 -8.2482,-11.058 -4.3468,-10.896 21.149,18.703 48.913,56.32 59.015,98.781 4.606,19.361 5.5881,39.715 0.64599,59.802 2.4179,1.0045 4.8736,2.0966 7.3624,3.2748 37.028,18.031 50.722,33.71 44.138,55.109 -2.1686,-0.0761 -4.3018,-0.0675 -6.3825,-0.0175 -0.19419,0.005 -0.38692,0.0101 -0.58039,0.0148 5.362,-16.962 -6.5167,-29.473 -38.17,-43.795 -32.831,-14.444 -58.992,-13.007 -63.413,16.286 -0.28298,1.5347 -0.51061,3.0985 -0.68399,4.6841 -2.4528,0.85176 -4.9189,1.9392 -7.3912,3.292 -15.416,8.4352 -23.83,23.741 -28.51,42.513 -4.6761,18.757 -6.0166,41.433 -7.3072,66.924 v 0.0132 c -0.78851,12.818 -6.0583,30.154 -11.403,48.516 -53.781,38.363 -128.43,54.984 -191.8,11.733 -4.2949,-6.7942 -9.2218,-13.526 -14.293,-20.165 -3.2385,-4.24 -6.5652,-8.454 -9.8726,-12.609 6.5058,0.005 12.036,-1.0604 16.505,-3.0869 5.5579,-2.5202 9.4629,-6.568 11.395,-11.765 3.8638,-10.393 -0.0169,-25.055 -12.386,-41.797 -12.369,-16.741 -33.317,-35.636 -64.099,-54.514 0,0 -0.005,0 -0.005,-0.005 -22.614,-14.069 -35.261,-31.314 -41.181,-50.037 -5.9202,-18.725 -5.0901,-38.972 -0.52737,-58.963 8.7578,-38.371 31.26,-75.69 45.617,-99.11 3.8655,-2.8442 1.3811,5.2794 -14.535,34.835 -14.264,27.022 -40.931,89.384 -4.4193,138.06 0.97573,-34.642 9.2489,-69.973 23.137,-103.02 20.23,-45.857 62.543,-125.38 65.904,-188.76 1.7327,1.2582 7.687,5.2757 10.34,6.7845 0.005,0.008 0.0117,0.008 0.017,0.009 7.7625,4.5712 13.592,11.253 21.143,17.322 7.5657,6.0803 17.017,11.332 31.297,12.164 16.667,0.96445 29.37,-4.1979 39.777,-10.149 10.392,-5.9422 18.693,-12.518 26.559,-15.085 0.0123,-0.008 0.0239,-0.008 0.0355,-0.0113 16.62,-5.1972 29.834,-14.396 37.353,-25.125 z m 105.56,291.52 c 6.7316,-0.0312 14.886,2.2131 23.812,6.2064 24.024,11.091 31.541,20.597 24.982,34.562 -5.527,10.538 -29.183,27.303 -45.395,22.882 -16.544,-4.2742 -24.614,-28.114 -21.924,-46.132 1.4408,-12.235 8.3614,-17.471 18.525,-17.518 z m -27.181,32.926 c 1.358,22.034 12.259,44.505 31.539,49.369 21.098,5.5587 51.516,-12.543 64.359,-27.308 2.5608,-0.1025 5.0645,-0.22799 7.496,-0.28668 11.266,-0.27202 20.715,0.37107 30.369,8.8144 l 0.0334,0.0286 0.0344,0.0286 c 7.419,6.2855 10.946,18.164 14.004,31.471 3.0584,13.307 5.5042,27.799 14.677,38.124 l 0.0137,0.0148 0.0127,0.0148 c 17.634,19.568 23.302,32.795 22.82,41.237 -0.48253,8.4424 -6.5951,14.71 -17.882,21.517 -22.564,13.61 -62.545,25.444 -88.082,56.377 -22.174,26.388 -49.213,40.881 -73.026,42.761 -23.813,1.8792 -44.358,-8.004 -56.47,-32.315 l -0.0276,-0.0551 -0.0286,-0.0542 c -7.5142,-14.294 -4.384,-36.852 1.9459,-60.646 6.3301,-23.794 15.425,-48.226 16.642,-68.084 v -0.0614 c 1.2879,-25.443 2.712,-47.663 6.986,-64.807 4.2739,-17.144 11.004,-28.755 22.928,-35.28 0.55528,-0.3038 1.1065,-0.59044 1.6546,-0.8613 z m -387.23,1.6627 c 1.7798,0.007 3.6632,0.1558 5.6698,0.45944 13.498,2.0446 25.268,11.482 36.608,26.864 11.34,15.382 21.892,36.379 32.74,59.67 l 0.0138,0.0286 0.0127,0.0276 c 8.7168,18.193 27.111,38.198 42.699,58.606 15.588,20.408 27.652,40.893 26.081,56.571 l -0.007,0.0681 -0.005,0.0679 c -2.0322,26.741 -17.117,41.298 -40.272,46.587 -23.149,5.2872 -54.531,0.017 -85.876,-16.365 -0.009,-0.005 -0.0186,-0.009 -0.0276,-0.0148 -34.69,-18.38 -75.95,-16.55 -102.41,-22.08 -13.237,-2.76 -21.873,-6.92 -25.837,-14.64 -3.964,-7.72 -4.053,-21.2 4.371,-44.16 l 0.03705,-0.1014 0.03333,-0.10255 c 4.1657,-12.85 1.0829,-26.909 -0.93959,-40.105 -2.02249,-13.196 -3.0115,-25.2 1.4946,-33.566 l 0.02074,-0.0382 0.02054,-0.0392 c 5.7694,-11.121 14.232,-15.096 24.735,-18.864 10.503,-3.7682 22.957,-6.7276 32.791,-16.583 l 0.0509,-0.052 0.0508,-0.053 c 9.0917,-9.5912 15.921,-21.614 23.914,-30.146 6.7438,-7.1996 13.493,-11.971 23.665,-12.042 h 0.35465 z" />
    </clipPath>
    <marker
       style="overflow:visible"
       id="Arrow1Lstart"
       refX="0"
       refY="0"
       orient="auto">
      <path
         transform="matrix(0.8,0,0,0.8,10,0)"
         style="fill:#00ff00;fill-opacity:1;fill-rule:evenodd;stroke:#000000;stroke-width:1pt;stroke-opacity:1"
         d="M 0,0 5,-5 -12.5,0 5,5 Z"
         id="path4461" />
    </marker>
    <marker
       style="overflow:visible"
       id="Arrow1Lstart-3"
       refX="0"
       refY="0"
       orient="auto">
      <path
         transform="matrix(0.8,0,0,0.8,10,0)"
         style="fill:#00ff00;fill-opacity:1;fill-rule:evenodd;stroke:#000000;stroke-width:1pt;stroke-opacity:1"
         d="M 0,0 5,-5 -12.5,0 5,5 Z"
         id="path4461-6" />
    </marker>
    <linearGradient
       xlink:href="#linearGradient7580"
       id="linearGradient7582"
       x1="876.35358"
       y1="31.018541"
       x2="934.2027"
       y2="88.96048"
       gradientUnits="userSpaceOnUse" />
    <clipPath
       clipPathUnits="userSpaceOnUse"
       id="clipPath129600">
      <path
         id="path129602"
         style="fill:#ff0000;fill-opacity:1;fill-rule:nonzero;stroke:none"
         d="m 700.06489,590.95175 v 12.08036 h 46.50706 v -12.08036 z m 30.50942,4.46234 c 0.004,-7e-4 0.007,-9e-5 0.0111,0 0.0632,10e-4 0.0848,0.1085 0.0111,0.16874 0.007,-4.5e-4 0.0136,3e-4 0.0206,0 0.002,-10e-4 0.005,-0.002 0.006,0 0,0 0.002,0 0.002,0 0.007,-2.1e-4 0.0146,-1.4e-4 0.0222,0 -0.004,0.0393 -0.004,0.0789 -0.008,0.11813 0.002,0.0196 0.004,0.0385 0.006,0.0579 -0.005,-1.9e-4 -0.0106,-4e-5 -0.0158,0 -0.002,0.0111 -0.014,0.002 -0.0221,0.002 -0.004,10e-6 -0.009,0 -0.0126,0 -0.0103,7.5e-4 -0.0198,10e-4 -0.0301,0.002 -0.0151,0.0149 -0.0338,0.0141 -0.0538,0.0145 -0.0475,0 -0.095,-0.004 -0.14241,-0.002 -0.005,10e-4 -0.009,0.004 -0.0143,0.005 -0.006,9.3e-4 -0.0184,0.01 -0.019,0 -8.1e-4,-0.0186 -0.002,-0.0368 -0.002,-0.0554 -0.004,-10e-4 -0.008,-0.005 -0.0111,-0.01 -0.0602,-0.11072 -0.0343,-0.10504 0.0142,-0.17599 0.0109,-0.004 0.0203,-0.009 0.0317,-0.01 0.0218,-0.002 0.004,0.0111 0.038,-0.007 0.0377,-0.02 0.0921,-0.0618 0.12659,-0.0868 v -0.002 c 0.0145,-0.0111 0.0288,-0.0172 0.0412,-0.0193 z m -0.18197,1.86111 v 0.002 c 0.004,-10e-4 0.006,5.2e-4 0.008,0.002 h 0.002 c 8.1e-4,-3e-4 0.003,-10e-4 0.003,0 0.058,-0.007 0.0881,0.0389 0.0886,0.0844 0.003,0.002 0.006,0.004 0.009,0.007 0.002,0.002 0.002,0.002 0.005,0.005 h 0.002 c 0.005,-10e-4 0.0122,-8.3e-4 0.0253,-0.005 -8.1e-4,0.006 -0.002,0.0111 -0.003,0.0169 0.003,10e-4 0.006,8.2e-4 0.009,0.005 h 0.002 c 0.0136,-3.1e-4 0.0275,0 0.0412,0 8.1e-4,-5e-5 0.004,-0.001 0.003,0 -0.007,0.0248 -0.0127,0.0442 -0.0174,0.0627 0.008,0.0263 0.0177,0.0615 0.0317,0.11097 0.002,0.007 -0.0101,0.002 -0.0158,0.002 -0.0227,10e-4 -0.0454,0 -0.0681,0 -8.1e-4,3e-5 -0.002,-2e-5 -0.003,0 0.009,0.0648 -0.0331,0.1206 -0.10127,0.0699 -0.032,-0.0238 -0.0672,-0.0412 -0.0855,-0.0699 -0.0174,-4.3e-4 -0.0412,10e-4 -0.068,0 -0.003,-8e-5 -0.007,1.3e-4 -0.0111,0 -0.0105,-2.9e-4 -0.0173,3.4e-4 -0.0301,0 -0.002,-0.006 -0.005,-0.0111 -0.008,-0.0169 -0.0129,4e-5 -0.0267,-9.8e-4 -0.0395,0 -5.6e-4,10e-4 3e-5,0.004 -0.002,0.005 -4.3e-4,10e-4 -8.1e-4,-0.005 0,-0.005 h 0.002 c 0.005,-0.0146 0.0107,-0.0288 0.0158,-0.0434 -0.0205,-0.037 -0.0406,-0.0737 -0.0522,-0.11813 -0.004,-0.0162 0.0232,-0.0133 0.0348,-0.0144 0.0296,-0.002 0.0589,10e-4 0.0886,0 0.01,0 0.0198,1.4e-4 0.0301,0 0.004,-0.0221 0.009,-0.0454 0.0111,-0.0675 0.0159,-0.006 0.0313,-0.01 0.0475,-0.0144 0.002,-0.01 0.0104,-0.01 0.0317,-0.0123 0.004,-6.2e-4 0.01,-0.005 0.0143,-0.007 z m -0.10443,3.9175 c 0.01,0.002 0.0562,0.0124 0.057,0.0124 0.0177,10e-4 0.036,10e-4 0.0538,0.002 0.003,5.1e-4 0.006,0.002 0.009,0.002 h 0.002 c 0.0125,-0.005 0.0271,-0.01 0.0443,-0.007 0.0128,0.002 0.025,0.005 0.038,0.007 h 0.002 c 0.0107,-0.004 0.0208,-0.006 0.0253,0.002 h 0.003 c 0.0229,0.002 0.0388,0.004 0.0412,0.0241 0.0158,-0.005 0.0345,-0.0149 0.0427,0.002 7.4e-4,10e-4 3.9e-4,0.004 0.002,0.005 0.025,-6.3e-4 0.039,0.009 0.0269,0.0627 v 0.002 c 0.0398,0.10566 0.0101,0.10998 -0.0364,0.11084 h -0.002 c -0.005,0.006 -0.0122,0.005 -0.0206,0.002 -0.003,-0.001 -0.009,-0.001 -0.0126,-0.002 -0.002,-10e-5 -0.006,6e-5 -0.008,0 h -0.002 c -0.002,-5e-5 -0.006,4e-5 -0.008,0 1.3e-4,0.004 -1e-5,0.006 0,0.0123 8e-5,0.009 -0.009,0.001 -0.0158,0 h -0.002 c -0.009,0.002 -0.0178,0.005 -0.0269,0.007 -0.003,0.01 -0.008,0.0232 -0.0126,0.0362 0.004,0.0281 -0.002,0.0391 -0.0158,0.041 l -0.005,0.01 c -0.002,0.004 -0.0862,0.0238 -0.087,0.0241 3.1e-4,-0.006 -0.002,-0.006 -0.006,-0.005 h -0.002 c -0.0138,0.005 -0.0399,0.026 -0.0427,0.007 -2.1e-4,-10e-4 2.1e-4,-0.004 0,-0.005 -0.0219,10e-4 -0.051,0.007 -0.0649,-0.0169 -0.0154,-0.0276 -0.0192,-0.0655 -0.0284,-0.0989 -0.002,-0.007 -0.004,-0.0162 -0.005,-0.0217 -0.007,0.001 -0.014,7.6e-4 -0.0174,-0.007 v -0.002 c -8.1e-4,-3.7e-4 -0.003,0.002 -0.003,0 -6e-5,-0.002 3e-5,-0.005 0,-0.007 -0.0182,-0.0501 -0.0254,-0.10936 -0.0237,-0.16635 4.2e-4,-0.016 0.0211,-0.006 0.0317,-0.01 0.0335,-0.007 0.0471,-0.0123 0.0649,-0.0123 6.9e-4,-0.004 0.002,-0.009 0.003,-0.0123 z m -0.002,0.21214 c -0.008,4e-4 -0.0158,0.002 -0.0237,0.002 0.0176,0.0174 0.0382,0.0443 0.057,0.065 -1.6e-4,-0.001 1.3e-4,-0.004 0,-0.005 -8.1e-4,-0.0111 -0.003,-0.0234 -0.003,-0.0337 v -0.002 c -8.1e-4,-0.009 -0.002,-0.0181 -0.003,-0.0265 -0.009,6.2e-4 -0.0179,-4.2e-4 -0.0269,0 z m 0.0601,0.0796 c -0.002,6.6e-4 -0.004,0.001 -0.006,0.002 -8.1e-4,1.8e-4 -0.002,-5.2e-4 -0.003,0 v 0.002 c 0.009,0.009 0.0153,0.0147 0.019,0.0145 -6e-4,-0.004 -3.9e-4,-0.009 -0.002,-0.0123 -0.004,-10e-4 -0.006,-10e-4 -0.009,-0.002 -0.002,-10e-4 0.002,-0.004 0.002,-0.005 z" />
    </clipPath>
    <clipPath
       clipPathUnits="userSpaceOnUse"
       id="clipPath129456">
      <path
         id="path129458"
         style="fill:#ff0000;fill-opacity:1;fill-rule:nonzero;stroke:none"
         d="m 730.38601,590.95175 v 1.48985 h 0.15666 l -0.002,0.002 h 0.0206 c 0.0146,-0.01 0.0289,-0.0198 0.0395,-0.0193 0.006,2.4e-4 0.0109,6.4e-4 0.0143,0.01 0.011,-0.004 0.0198,-0.005 0.0206,0.01 2.4e-4,0.004 4e-4,0.0111 0.002,0.0169 0.12771,0.0507 0.17165,0.20136 0.13134,0.32062 v 0.002 c 0.0215,0.10751 0.0308,0.22061 -0.005,0.30858 -0.0187,0.0467 -0.1367,0.10652 -0.26267,0.16152 0.0433,-10e-4 0.0865,-10e-4 0.12975,-0.005 0.005,0 0.0143,-0.0137 0.0126,-0.007 -0.0177,0.0785 -0.0376,0.15619 -0.057,0.23384 0.0126,-2.7e-4 0.0254,2.6e-4 0.038,0 0.10941,-0.004 0.21973,-0.0111 0.32913,-0.01 0.12593,0.002 0.37039,-0.0164 0.269,0.36885 0.094,0.0135 0.18598,0.0498 0.16299,0.13019 -0.0237,0.0827 -0.0497,0.14972 -0.0775,0.20491 0.01,8.7e-4 0.0199,0.004 0.0285,0.01 0.0262,-0.007 0.0479,-0.005 0.0554,0.0289 0.0117,0.052 0.0181,0.10887 0.019,0.16635 v 0.002 c 0.016,0.10739 0.01,0.2264 -0.0126,0.32545 -0.008,0.0371 -0.0348,0.0374 -0.0649,0.0289 h -0.002 c -0.0206,0.0174 -0.0485,0.0148 -0.0775,0.01 0.0156,0.24558 -0.0154,0.28567 -0.1171,0.32064 0.055,0.0643 0.0334,0.18501 -0.13766,0.43634 -0.003,0.005 -0.006,0.01 -0.009,0.0144 -0.0233,0.0333 -0.0643,-0.004 -0.0965,-0.005 l -0.1155,-0.005 c -0.0298,-8.7e-4 -0.0588,-0.002 -0.0886,-0.002 -0.006,0.0356 -0.0128,0.07 -0.0253,0.10121 -0.0212,0.053 -0.0755,0.0471 -0.11393,0.0675 -0.053,0.0279 -0.10856,0.0402 -0.16457,0.0458 v 1.71887 c 0.0327,-0.002 0.0322,-0.002 0.0744,-0.005 0.0505,-0.004 0.0935,0.006 0.12817,0.0241 0,0 0.002,0 0.002,0 0.0147,-0.002 0.0296,-0.002 0.0443,-0.005 0.0104,-10e-4 0.0211,-0.004 0.0317,-0.005 0.0132,-10e-4 0.0264,-0.004 0.0395,-0.005 0.0346,-0.005 0.0699,-0.009 0.10444,-0.0144 0.0193,-10e-4 0.0357,-0.002 0.0523,-0.005 0.006,-7.6e-4 0.0126,-10e-4 0.019,-0.002 0.0117,-0.001 0.0232,-0.004 0.0348,-0.005 0.0219,-0.002 0.0544,-0.0246 0.0775,-0.0289 0.0139,-0.002 0.0237,0.002 0.0269,0.0217 0.006,0.0343 0.008,0.0594 0.0126,0.0892 0.002,0.0111 0.005,0.0239 0.006,0.0385 0.003,0.0218 0.007,0.0481 0.009,0.0675 0.0784,-0.0293 0.15745,-0.0622 0.22628,-0.0193 0.065,0.0405 0.18104,0.10541 0.15982,0.20733 -0.0291,0.13981 -0.0885,0.22829 -0.16141,0.28447 -1.6e-4,0.002 3.8e-4,0.005 0,0.007 -0.008,0.0548 -0.0411,0.0605 -0.0854,0.0458 0.005,0.0712 0.002,0.14339 -0.0111,0.20973 -0.003,0.0167 -0.01,0.0241 -0.019,0.0313 0.0138,-4.4e-4 0.0274,5e-4 0.0412,0 0.2141,-0.007 0.49336,-0.0574 0.31489,0.41949 0.0522,5.3e-4 0.1187,-0.0378 0.15191,0.0217 0.065,0.11652 0.16154,0.31532 0.0981,0.43393 -0.0474,0.0886 -0.26193,0.14443 -0.47629,0.1784 8.1e-4,0.0548 -8.1e-4,0.10973 -0.005,0.16393 0.0395,-10e-4 0.0792,-10e-4 0.11868,-0.002 0.0371,-10e-4 0.0746,-0.0157 0.11077,-0.002 0.0465,0.017 0.0878,0.059 0.13133,0.0892 -0.0386,0.14835 -0.0534,0.31763 -0.11551,0.446 -0.006,0.0123 -0.0135,0.0211 -0.0222,0.0265 0.002,0.004 0.002,0.006 0.003,0.0123 0.0435,0.52438 0.0361,0.46851 -0.15665,0.52072 -0.15922,0.0338 -0.3204,0.0621 -0.48104,0.082 2.2e-4,0.025 2.1e-4,0.0501 0.002,0.0747 -0.01,10e-5 -0.02,-7e-5 -0.03,0 -0.004,0.0135 -0.0212,0.0123 -0.0317,0.0144 -0.0364,0.01 -0.0724,0.018 -0.10918,0.0241 0.002,0.11442 0.003,0.2286 -0.005,0.34233 -2.5e-4,0.0416 -7.8e-4,0.0839 -0.002,0.12535 -1.9e-4,0.01 -0.009,0.004 -0.0174,0 -0.007,0.001 -0.0615,6.1e-4 -0.13292,0 -8.1e-4,0 -0.002,2e-5 -0.003,0 -0.002,0.0394 -0.0288,0.0611 -0.0949,0.0506 -0.0207,-0.004 -0.041,-0.006 -0.0617,-0.01 v 1.65378 h 5.39584 v -12.08036 z m 0.7627,4.04045 c 5.4e-4,0.002 3.9e-4,0.005 0.002,0.007 0.005,-10e-4 0.0141,-0.007 0.0111,-0.007 -0.004,6e-5 -0.008,-7e-5 -0.0126,0 z m -0.71523,6.35237 c 0.006,0.002 0.0272,0.005 0.0348,0 -0.0114,2e-4 -0.0232,1.8e-4 -0.0348,0 z" />
    </clipPath>
    <clipPath
       id="clipPath7578-4"
       clipPathUnits="userSpaceOnUse">
      <path
         id="path7580-1"
         style="color:#000000;text-indent:0;text-decoration:none;text-decoration-line:none;text-transform:none;fill:#1a1a1a"
         d="m 413.5,-63.886 c -5.5087,-0.01007 -11.255,0.2211 -17.247,0.69883 -151.44,12.196 -111.28,172.19 -113.52,225.76 -2.7656,39.179 -10.709,70.055 -37.655,108.36 -31.657,37.646 -76.227,98.577 -97.341,162 -9.9648,29.935 -14.707,60.446 -10.327,89.324 -1.3718,1.2285 -2.6778,2.5156 -3.9196,3.8413 -9.2946,9.9228 -16.162,21.946 -23.815,30.041 -7.1493,7.1316 -17.335,9.8442 -28.529,13.86 -11.198,4.0177 -23.492,9.941 -30.955,24.261 0,0 0,0.005 -0.005,0.007 -0.01218,0.0238 -0.02547,0.0461 -0.03816,0.0703 -6.7556,12.618 -4.7473,27.149 -2.6841,40.611 2.0633,13.462 4.152,26.183 1.3795,34.814 -8.8623,24.223 -9.9937,40.978 -3.755,53.132 6.252,12.179 19.107,17.555 33.635,20.589 29.057,6.0689 68.409,4.5608 99.422,20.998 l 2.6656,-5.0297 -2.638,5.0447 c 33.201,17.359 66.861,23.524 93.715,17.39 19.47,-4.447 35.275,-16.04 43.392,-33.879 21.004,-0.10329 44.053,-8.9992 80.974,-11.032 25.047,-2.0176 56.336,8.8946 92.325,6.8962 0.94075,3.9046 2.3023,7.6602 4.166,11.229 0.0191,0.0367 0.037,0.073 0.0565,0.10928 13.951,27.898 39.874,40.659 67.5,38.479 27.662,-2.183 57.073,-18.494 80.846,-46.786 l -4.3583,-3.6627 4.3916,3.6224 c 22.66,-27.476 60.272,-38.869 85.212,-53.911 12.47,-7.5212 22.588,-16.939 23.37,-30.618 0.78137,-13.672 -7.2451,-28.993 -25.702,-49.481 l -0.005,-0.005 c -0.007,-0.009 -0.0144,-0.017 -0.0216,-0.0255 -6.0643,-6.853 -8.9573,-19.554 -12.066,-33.08 -3.1068,-13.518 -6.5748,-28.099 -17.673,-37.549 -0.0222,-0.0196 -0.0446,-0.0371 -0.0668,-0.0565 -4.4168,-3.8487 -9.0066,-6.4608 -13.629,-8.2157 15.429,-45.76 9.3756,-91.326 -6.1994,-132.5 -19.115,-50.534 -52.487,-94.566 -77.974,-124.69 -28.528,-35.984 -56.431,-70.148 -55.882,-120.61 0.84975,-77.011 8.471,-219.83 -127.05,-220.01 z m 18.346,118.64 c 7.6898,0 14.257,2.254 21.004,7.1506 6.8535,4.9743 11.791,11.201 15.77,19.897 3.9057,8.4748 5.7849,16.765 5.9692,26.603 0,0.25793 0,0.47896 0.0737,0.7369 0.0737,10.096 -1.6581,18.681 -5.4902,27.451 -2.1866,5.004 -4.6977,9.2039 -7.7033,12.84 -1.0204,-0.48987 -2.0801,-0.96088 -3.1792,-1.4128 -7.6184,-3.263 -13.463,-5.3395 -18.334,-7.0297 1.7657,-2.1224 3.2359,-4.6395 4.5287,-7.7862 1.9529,-4.7532 2.9109,-9.396 3.0951,-14.923 0,-0.22114 0.0737,-0.40539 0.0737,-0.66331 0.1105,-5.3058 -0.58955,-9.8381 -2.1371,-14.481 -1.6213,-4.8637 -3.6847,-8.3641 -6.6693,-11.275 -2.9846,-2.911 -5.9692,-4.2374 -9.5434,-4.348 -0.16756,-0.0101 -0.33463,-0.0101 -0.49969,-0.0101 -3.362,0.0101 -6.2812,1.163 -9.3015,3.6916 -3.1688,2.6531 -5.527,6.0428 -7.4799,10.759 -1.9529,4.7163 -2.9109,9.3958 -3.0951,14.96 -0.037,0.22114 -0.037,0.40539 -0.037,0.62643 -0.0637,3.0584 0.13058,5.86 0.6022,8.5806 -6.8791,-3.4278 -13.362,-5.7647 -19.446,-7.2128 -0.34682,-2.6309 -0.54743,-5.3458 -0.61148,-8.1845 v -0.77387 c -0.11056,-10.059 1.5476,-18.681 5.4165,-27.451 3.8689,-8.7696 8.659,-15.07 15.402,-20.192 6.743,-5.1217 13.375,-7.4798 21.224,-7.5536 h 0.36733 z m -105.25,8.3331 c 5.1013,0.0121 9.6659,1.7163 14.388,5.4868 5.1217,4.0899 8.9906,9.3221 12.233,16.692 3.2425,7.3694 4.9743,14.739 5.4533,23.435 v 0.0732 c 0.23218,3.6522 0.20379,7.09 -0.0841,10.419 -1.0089,0.28676 -1.9976,0.59704 -2.9662,0.93048 -5.5004,1.8934 -10.348,4.4736 -14.573,7.2635 0.41314,-2.9183 0.47463,-5.8793 0.15775,-9.1807 -0.0371,-0.18425 -0.0371,-0.33162 -0.0371,-0.51578 -0.44217,-4.3848 -1.3633,-8.0694 -2.9109,-11.791 -1.6581,-3.8688 -3.5004,-6.5955 -5.9324,-8.6959 -2.2039,-1.9033 -4.2862,-2.7773 -6.5771,-2.76 -0.23701,0 -0.47671,0.0131 -0.71849,0.0332 -2.5793,0.2209 -4.7164,1.4737 -6.743,3.9425 -2.0266,2.4687 -3.353,5.527 -4.311,9.5801 -0.95803,4.0532 -1.216,8.0327 -0.81066,12.602 0,0.18416 0.0371,0.33171 0.0371,0.51586 0.44211,4.4217 1.3264,8.1063 2.9109,11.828 1.6213,3.832 3.5004,6.5587 5.9324,8.6589 0.40727,0.35174 0.81019,0.6677 1.2113,0.94998 -2.5295,1.9468 -3.7374,2.8444 -5.8102,4.3675 -1.3295,0.97552 -2.9129,2.137 -4.7532,3.4936 -4.0134,-3.7597 -7.1444,-8.4849 -9.8819,-14.706 -3.2425,-7.3693 -4.9743,-14.739 -5.4902,-23.435 v -0.0732 c -0.47899,-8.6958 0.36847,-16.176 2.7635,-23.914 2.395,-7.7379 5.6008,-13.339 10.243,-17.945 4.6427,-4.6058 9.3223,-6.9271 14.96,-7.2218 0.44042,-0.0242 0.87692,-0.0352 1.3092,-0.0332 z m 47.867,60.329 c 11.857,-0.0458 26.124,3.8414 43.397,14.947 10.61,6.8996 18.866,7.4763 37.876,15.618 l 0.0228,0.0101 0.0233,0.009 c 9.1467,3.7529 14.515,8.6445 17.138,13.796 2.6229,5.1512 2.6871,10.737 0.49165,16.613 -4.3907,11.753 -18.406,24.121 -38.073,30.263 l -0.0186,0.008 -0.0175,0.008 c -9.5896,3.1157 -17.952,9.9961 -27.81,15.633 -9.8581,5.637 -21.013,10.184 -36.181,9.3061 v 0 c -12.913,-0.75261 -20.632,-5.1363 -27.611,-10.745 -6.9796,-5.6093 -13.062,-12.656 -21.968,-17.886 l -0.0228,-0.0137 -0.0233,-0.0137 c -14.346,-8.1084 -22.178,-17.487 -24.636,-25.617 -2.4581,-8.1301 -0.15126,-15.07 6.9663,-20.404 8.0022,-5.9971 13.561,-10.076 17.264,-12.794 3.6785,-2.6993 5.2089,-3.7114 6.3803,-4.8362 0.006,-0.009 0.0123,-0.0128 0.0185,-0.0183 l 0.005,-0.009 c 6.0126,-5.6914 15.597,-16.06 30.045,-21.034 4.9726,-1.7118 10.521,-2.8162 16.732,-2.8407 z m 82.91,49.035 c -5.1165,0.30507 -10.475,2.9394 -16.715,6.4229 -6.2395,3.4834 -13.256,7.9394 -20.86,12.328 -15.208,8.7762 -32.714,17.169 -50.112,17.169 -17.425,0 -31.346,-8.0474 -41.788,-16.322 -5.2209,-4.1373 -9.5298,-8.3046 -12.972,-11.528 -1.7213,-1.612 -3.2141,-2.9859 -4.607,-4.059 -1.3927,-1.0731 -2.5263,-2.1371 -4.8569,-2.1371 l -0.11168,4.8972 c -0.16687,1.6386 -0.33834,1.5881 -0.27059,1.6328 0.10871,0.0714 0.64946,0.25783 1.2804,0.74386 1.024,0.78889 2.4455,2.0749 4.1326,3.6547 3.3742,3.1598 7.8577,7.5042 13.378,11.879 11.04,8.7486 26.393,17.724 45.816,17.724 19.449,0 37.85,-9.0906 53.354,-18.038 7.7519,-4.4736 14.792,-8.9391 20.779,-12.281 5.9866,-3.3424 11.023,-5.4384 13.94,-5.6123 z m 17.288,23.274 c 12.918,50.921 42.963,124.47 62.273,160.36 10.264,19.043 30.685,59.504 39.508,108.25 5.5905,-0.17127 11.746,0.64098 18.338,2.3271 23.068,-59.802 -19.561,-124.22 -39.054,-142.16 -7.8699,-7.6366 -8.2482,-11.058 -4.3468,-10.896 21.149,18.703 48.913,56.32 59.015,98.781 4.606,19.361 5.5881,39.715 0.64599,59.802 2.4179,1.0045 4.8736,2.0966 7.3624,3.2748 37.028,18.031 50.722,33.71 44.138,55.109 -2.1686,-0.0761 -4.3018,-0.0675 -6.3825,-0.0175 -0.19419,0.005 -0.38692,0.0101 -0.58039,0.0148 5.362,-16.962 -6.5167,-29.473 -38.17,-43.795 -32.831,-14.444 -58.992,-13.007 -63.413,16.286 -0.28298,1.5347 -0.51061,3.0985 -0.68399,4.6841 -2.4528,0.85176 -4.9189,1.9392 -7.3912,3.292 -15.416,8.4352 -23.83,23.741 -28.51,42.513 -4.6761,18.757 -6.0166,41.433 -7.3072,66.924 v 0.0132 c -0.78851,12.818 -6.0583,30.154 -11.403,48.516 -53.781,38.363 -128.43,54.984 -191.8,11.733 -4.2949,-6.7942 -9.2218,-13.526 -14.293,-20.165 -3.2385,-4.24 -6.5652,-8.454 -9.8726,-12.609 6.5058,0.005 12.036,-1.0604 16.505,-3.0869 5.5579,-2.5202 9.4629,-6.568 11.395,-11.765 3.8638,-10.393 -0.0169,-25.055 -12.386,-41.797 -12.369,-16.741 -33.317,-35.636 -64.099,-54.514 0,0 -0.005,0 -0.005,-0.005 -22.614,-14.069 -35.261,-31.314 -41.181,-50.037 -5.9202,-18.725 -5.0901,-38.972 -0.52737,-58.963 8.7578,-38.371 31.26,-75.69 45.617,-99.11 3.8655,-2.8442 1.3811,5.2794 -14.535,34.835 -14.264,27.022 -40.931,89.384 -4.4193,138.06 0.97573,-34.642 9.2489,-69.973 23.137,-103.02 20.23,-45.857 62.543,-125.38 65.904,-188.76 1.7327,1.2582 7.687,5.2757 10.34,6.7845 0.005,0.008 0.0117,0.008 0.017,0.009 7.7625,4.5712 13.592,11.253 21.143,17.322 7.5657,6.0803 17.017,11.332 31.297,12.164 16.667,0.96445 29.37,-4.1979 39.777,-10.149 10.392,-5.9422 18.693,-12.518 26.559,-15.085 0.0123,-0.008 0.0239,-0.008 0.0355,-0.0113 16.62,-5.1972 29.834,-14.396 37.353,-25.125 z m 105.56,291.52 c 6.7316,-0.0312 14.886,2.2131 23.812,6.2064 24.024,11.091 31.541,20.597 24.982,34.562 -5.527,10.538 -29.183,27.303 -45.395,22.882 -16.544,-4.2742 -24.614,-28.114 -21.924,-46.132 1.4408,-12.235 8.3614,-17.471 18.525,-17.518 z m -27.181,32.926 c 1.358,22.034 12.259,44.505 31.539,49.369 21.098,5.5587 51.516,-12.543 64.359,-27.308 2.5608,-0.1025 5.0645,-0.22799 7.496,-0.28668 11.266,-0.27202 20.715,0.37107 30.369,8.8144 l 0.0334,0.0286 0.0344,0.0286 c 7.419,6.2855 10.946,18.164 14.004,31.471 3.0584,13.307 5.5042,27.799 14.677,38.124 l 0.0137,0.0148 0.0127,0.0148 c 17.634,19.568 23.302,32.795 22.82,41.237 -0.48253,8.4424 -6.5951,14.71 -17.882,21.517 -22.564,13.61 -62.545,25.444 -88.082,56.377 -22.174,26.388 -49.213,40.881 -73.026,42.761 -23.813,1.8792 -44.358,-8.004 -56.47,-32.315 l -0.0276,-0.0551 -0.0286,-0.0542 c -7.5142,-14.294 -4.384,-36.852 1.9459,-60.646 6.3301,-23.794 15.425,-48.226 16.642,-68.084 v -0.0614 c 1.2879,-25.443 2.712,-47.663 6.986,-64.807 4.2739,-17.144 11.004,-28.755 22.928,-35.28 0.55528,-0.3038 1.1065,-0.59044 1.6546,-0.8613 z m -387.23,1.6627 c 1.7798,0.007 3.6632,0.1558 5.6698,0.45944 13.498,2.0446 25.268,11.482 36.608,26.864 11.34,15.382 21.892,36.379 32.74,59.67 l 0.0138,0.0286 0.0127,0.0276 c 8.7168,18.193 27.111,38.198 42.699,58.606 15.588,20.408 27.652,40.893 26.081,56.571 l -0.007,0.0681 -0.005,0.0679 c -2.0322,26.741 -17.117,41.298 -40.272,46.587 -23.149,5.2872 -54.531,0.017 -85.876,-16.365 -0.009,-0.005 -0.0186,-0.009 -0.0276,-0.0148 -34.69,-18.38 -75.95,-16.55 -102.41,-22.08 -13.237,-2.76 -21.873,-6.92 -25.837,-14.64 -3.964,-7.72 -4.053,-21.2 4.371,-44.16 l 0.03705,-0.1014 0.03333,-0.10255 c 4.1657,-12.85 1.0829,-26.909 -0.93959,-40.105 -2.02249,-13.196 -3.0115,-25.2 1.4946,-33.566 l 0.02074,-0.0382 0.02054,-0.0392 c 5.7694,-11.121 14.232,-15.096 24.735,-18.864 10.503,-3.7682 22.957,-6.7276 32.791,-16.583 l 0.0509,-0.052 0.0508,-0.053 c 9.0917,-9.5912 15.921,-21.614 23.914,-30.146 6.7438,-7.1996 13.493,-11.971 23.665,-12.042 h 0.35465 z" />
    </clipPath>
  </defs>
  <g
     transform="matrix(1,0,0,1.0008916,-34.670574,-179.77548)"
     id="keys">
    <g
       id="g133725">
      <g
         id="g133365">
        <g
           id="g132661"
           style="stroke-width:0;stroke-miterlimit:4;stroke-dasharray:none"
           transform="matrix(0.81668903,0,0,0.7448983,6.3554966,92.197784)">
          <rect
             style="display:inline;fill:#1a1a1a;fill-opacity:1;stroke:#00ff00;stroke-width:0;stroke-linejoin:round;stroke-miterlimit:4;stroke-dasharray:none;stroke-opacity:1"
             id="rect44970"
             width="734.72925"
             height="284.332"
             x="34.670574"
             y="117.35502"
             rx="10"
             ry="10" />
        </g>
        <g
           id="g133009">
          <g
             id="x1-y0"
             class="LED"
             transform="translate(-22.713628,30.039364)">
            <path
               id="path4121"
               d="m 71.96,164.34 c -8.36e-4,-1.6888 1.7043,-3.387 3.4472,-3.398 l 27.234,-0.004 c 1.7285,-0.0229 3.4475,1.6978 3.4322,3.3808 l 0.0156,27.332 c 0.006,1.6859 -1.7051,3.3906 -3.406,3.3893 l -27.296,0.004 c -1.7242,0.003 -3.4578,-1.6921 -3.4194,-3.4147 z"
               style="fill:#1e1e1e;stroke:#00ff00;stroke-width:1.891" />
            <text
               id="text4123"
               y="176.11948"
               x="78.482513"
               xml:space="preserve"
               style="line-height:0%;font-family:Play;letter-spacing:0px;word-spacing:0px;fill:#00ff00"
               class="label"><tspan
                 id="tspan4125"
                 x="78.482513"
                 style="font-size:14px;line-height:1.25"
                 y="176.11948">esc</tspan></text>
          </g>
          <g
             id="x2-y0"
             class="LED"
             transform="translate(-22.99643,-16.490679)">
            <path
               id="path4528"
               d="m 110.96,211.14 c -8.4e-4,-1.6888 1.7043,-3.387 3.4472,-3.398 l 27.234,-0.004 c 1.7285,-0.0229 3.4475,1.6978 3.4322,3.3808 l 0.0156,27.332 c 0.006,1.6859 -1.7051,3.3906 -3.406,3.3893 l -27.296,0.004 c -1.7242,0.003 -3.4578,-1.6921 -3.4194,-3.4147 z"
               style="fill:#1e1e1e;stroke:#00ff00;stroke-width:1.891" />
            <text
               id="text4530"
               y="234.18341"
               x="111.37826"
               xml:space="preserve"
               style="font-style:normal;font-variant:normal;font-weight:normal;font-stretch:normal;font-size:14.3569px;line-height:0%;font-family:Play;-inkscape-font-specification:'Play, Normal';font-variant-ligatures:normal;font-variant-caps:normal;font-variant-numeric:normal;font-variant-east-asian:normal;letter-spacing:0px;word-spacing:0px;fill:#00ff00;stroke-width:1.19642"
               class="label"
               transform="scale(1.0513372,0.95116963)"><tspan
                 id="tspan1"
                 x="111.37826"
                 y="234.18341"
                 style="stroke-width:1.19642">1  !</tspan></text>
          </g>
          <g
             id="x3-y0"
             class="LED"
             transform="translate(-23.22055,-16.399509)">
            <path
               id="path4536"
               d="m 149.86,211.14 c -8.4e-4,-1.6888 1.7043,-3.387 3.4472,-3.398 l 27.234,-0.004 c 1.7285,-0.0229 3.4475,1.6978 3.4322,3.3808 l 0.0156,27.332 c 0.006,1.6859 -1.7051,3.3906 -3.406,3.3893 l -27.296,0.004 c -1.7242,0.003 -3.4578,-1.6921 -3.4194,-3.4147 z"
               style="fill:#1e1e1e;stroke:#00ff00;stroke-width:1.891" />
            <text
               id="text4538"
               y="220.82077"
               x="156.48584"
               xml:space="preserve"
               style="font-style:normal;font-variant:normal;font-weight:normal;font-stretch:normal;font-size:13.6903px;line-height:0%;font-family:Sans;-inkscape-font-specification:'Sans, Normal';font-variant-ligatures:normal;font-variant-caps:normal;font-variant-numeric:normal;font-variant-east-asian:normal;letter-spacing:0px;word-spacing:0px;fill:#00ff00;stroke-width:0.977881"
               class="label"
               transform="scale(0.99084729,1.0092373)"><tspan
                 id="tspan2"
                 x="156.48584"
                 y="220.82077"
                 style="stroke-width:0.977881">2 @</tspan></text>
          </g>
          <g
             id="x4-y0"
             class="LED"
             transform="translate(-23.40377,-16.519649)">
            <path
               id="path4544"
               d="m 188.26,211.14 c -8.4e-4,-1.6888 1.7043,-3.387 3.4472,-3.398 l 27.234,-0.004 c 1.7285,-0.0229 3.4475,1.6978 3.4322,3.3808 l 0.0156,27.332 c 0.006,1.6859 -1.7051,3.3906 -3.406,3.3893 l -27.296,0.004 c -1.7242,0.003 -3.4578,-1.6921 -3.4194,-3.4147 z"
               style="fill:#1e1e1e;stroke:#00ff00;stroke-width:1.891" />
            <text
               id="text4546"
               y="215.42082"
               x="201.43359"
               xml:space="preserve"
               style="font-style:normal;font-variant:normal;font-weight:normal;font-stretch:normal;font-size:13.2302px;line-height:0%;font-family:Play;-inkscape-font-specification:'Play, Normal';font-variant-ligatures:normal;font-variant-caps:normal;font-variant-numeric:normal;font-variant-east-asian:normal;letter-spacing:0px;word-spacing:0px;fill:#00ff00;stroke-width:1.10253"
               class="label"
               transform="scale(0.96597497,1.0352235)"><tspan
                 id="tspan3"
                 x="201.43359"
                 y="215.42082"
                 style="stroke-width:1.10253">3  #</tspan></text>
          </g>
          <g
             id="x5-y0"
             class="LED"
             transform="translate(-23.42264,-16.614679)">
            <path
               id="path4552"
               d="m 227.06,211.14 c -8.4e-4,-1.6888 1.7043,-3.387 3.4472,-3.398 l 27.234,-0.004 c 1.7285,-0.0229 3.4475,1.6978 3.4322,3.3808 l 0.0156,27.332 c 0.006,1.6859 -1.7051,3.3906 -3.406,3.3893 l -27.296,0.004 c -1.7242,0.003 -3.4578,-1.6921 -3.4194,-3.4147 z"
               style="fill:#1e1e1e;stroke:#00ff00;stroke-width:1.891" />
            <text
               id="text4554"
               y="224.24092"
               x="232.56264"
               xml:space="preserve"
               style="font-style:normal;font-variant:normal;font-weight:normal;font-stretch:normal;font-size:13.9532px;line-height:0%;font-family:Sans;-inkscape-font-specification:'Sans, Normal';font-variant-ligatures:normal;font-variant-caps:normal;font-variant-numeric:normal;font-variant-east-asian:normal;letter-spacing:0px;word-spacing:0px;fill:#00ff00;stroke-width:0.996658"
               class="label"
               transform="scale(1.0046379,0.99538351)"><tspan
                 id="tspan6"
                 x="232.56264"
                 y="224.24092">4 $</tspan></text>
          </g>
          <g
             id="x6-y0"
             class="LED"
             transform="translate(-23.53174,-16.614679)">
            <path
               id="path4560"
               d="m 265.96,211.14 c -8.4e-4,-1.6888 1.7043,-3.387 3.4472,-3.398 l 27.234,-0.004 c 1.7285,-0.0229 3.4475,1.6978 3.4322,3.3808 l 0.0156,27.332 c 0.006,1.6859 -1.7051,3.3906 -3.406,3.3893 l -27.296,0.004 c -1.7242,0.003 -3.4578,-1.6921 -3.4194,-3.4147 z"
               style="fill:#1e1e1e;stroke:#00ff00;stroke-width:1.891" />
            <text
               id="text4562"
               y="223.08553"
               x="271.57462"
               xml:space="preserve"
               style="font-style:normal;font-variant:normal;font-weight:normal;font-stretch:normal;font-size:14px;line-height:0%;font-family:Sans;-inkscape-font-specification:'Sans, Normal';font-variant-ligatures:normal;font-variant-caps:normal;font-variant-numeric:normal;font-variant-east-asian:normal;letter-spacing:0px;word-spacing:0px;fill:#00ff00"
               class="label"><tspan
                 id="tspan5"
                 x="271.57462"
                 y="223.08553">5 %</tspan></text>
          </g>
          <g
             id="x7-y0"
             class="LED"
             transform="translate(-23.60913,-16.746619)">
            <path
               id="path4568"
               d="m 304.36,211.14 c -8.4e-4,-1.6888 1.7043,-3.387 3.4472,-3.398 l 27.234,-0.004 c 1.7285,-0.0229 3.4475,1.6978 3.4322,3.3808 l 0.0156,27.332 c 0.006,1.6859 -1.7051,3.3906 -3.406,3.3893 l -27.296,0.004 c -1.7242,0.003 -3.4578,-1.6921 -3.4194,-3.4147 z"
               style="fill:#1e1e1e;stroke:#00ff00;stroke-width:1.891" />
            <text
               id="text4570"
               y="213.16228"
               x="325.91571"
               xml:space="preserve"
               style="font-style:normal;font-variant:normal;font-weight:normal;font-stretch:normal;font-size:12.6754px;line-height:0%;font-family:Play;-inkscape-font-specification:'Play, Normal';font-variant-ligatures:normal;font-variant-caps:normal;font-variant-numeric:normal;font-variant-east-asian:normal;letter-spacing:0px;word-spacing:0px;fill:#00ff00;stroke-width:1.05628"
               class="label"
               transform="scale(0.95589428,1.0461408)"><tspan
                 id="tspan7"
                 x="325.91571"
                 y="213.16228"
                 style="stroke-width:1.05628">6  ^</tspan></text>
          </g>
          <g
             id="x8-y0"
             class="LED"
             transform="translate(-23.69265,-16.655629)">
            <path
               id="path4576"
               d="m 343.16,211.14 c -8.4e-4,-1.6888 1.7043,-3.387 3.4472,-3.398 l 27.234,-0.004 c 1.7285,-0.0229 3.4475,1.6978 3.4322,3.3808 l 0.0156,27.332 c 0.006,1.6859 -1.7051,3.3906 -3.406,3.3893 l -27.296,0.004 c -1.7242,0.003 -3.4578,-1.6921 -3.4194,-3.4147 z"
               style="fill:#1e1e1e;stroke:#00ff00;stroke-width:1.891" />
            <text
               id="text4578"
               y="200.57419"
               x="390.42419"
               xml:space="preserve"
               style="font-style:normal;font-variant:normal;font-weight:normal;font-stretch:normal;font-size:12.2521px;line-height:0%;font-family:Play;-inkscape-font-specification:'Play, Normal';font-variant-ligatures:normal;font-variant-caps:normal;font-variant-numeric:normal;font-variant-east-asian:normal;letter-spacing:0px;word-spacing:0px;fill:#00ff00;stroke-width:1.02101"
               class="label"
               transform="scale(0.89955352,1.1116626)"><tspan
                 id="tspan8"
                 x="390.42419"
                 y="200.57419"
                 style="stroke-width:1.02101">7  &amp;</tspan></text>
          </g>
          <g
             id="x9-y0"
             class="LED"
             transform="translate(-24.09523,-16.397149)">
            <path
               id="path4584"
               d="m 382.06,211.14 c -8.4e-4,-1.6888 1.7043,-3.387 3.4472,-3.398 l 27.234,-0.004 c 1.7285,-0.0229 3.4475,1.6978 3.4322,3.3808 l 0.0156,27.332 c 0.006,1.6859 -1.7051,3.3906 -3.406,3.3893 l -27.296,0.004 c -1.7242,0.003 -3.4578,-1.6921 -3.4194,-3.4147 z"
               style="fill:#1e1e1e;stroke:#00ff00;stroke-width:1.891" />
            <text
               id="text4586"
               y="224.25854"
               x="386.34244"
               xml:space="preserve"
               style="font-style:normal;font-variant:normal;font-weight:normal;font-stretch:normal;font-size:13.67px;line-height:0%;font-family:Sans;-inkscape-font-specification:'Sans, Normal';font-variant-ligatures:normal;font-variant-caps:normal;font-variant-numeric:normal;font-variant-east-asian:normal;letter-spacing:0px;word-spacing:0px;fill:#00ff00;stroke-width:0.976428"
               class="label"
               transform="scale(1.006247,0.99379177)"><tspan
                 id="tspan9"
                 x="386.34244"
                 y="224.25854"
                 style="stroke-width:0.976428">8  *</tspan></text>
          </g>
          <g
             id="x10-y0"
             class="LED"
             transform="translate(-24.09523,-16.397149)">
            <path
               id="path4592"
               d="m 420.46,211.14 c -8.4e-4,-1.6888 1.7043,-3.387 3.4472,-3.398 l 27.234,-0.004 c 1.7285,-0.0229 3.4475,1.6978 3.4322,3.3808 l 0.0156,27.332 c 0.006,1.6859 -1.7051,3.3906 -3.406,3.3893 l -27.296,0.004 c -1.7242,0.003 -3.4578,-1.6921 -3.4194,-3.4147 z"
               style="fill:#1e1e1e;stroke:#00ff00;stroke-width:1.891" />
            <text
               id="text4594"
               y="218.21762"
               x="436.53113"
               xml:space="preserve"
               style="font-style:normal;font-variant:normal;font-weight:normal;font-stretch:normal;font-size:13.2097px;line-height:0%;font-family:Play;-inkscape-font-specification:'Play, Normal';font-variant-ligatures:normal;font-variant-caps:normal;font-variant-numeric:normal;font-variant-east-asian:normal;letter-spacing:0px;word-spacing:0px;fill:#00ff00;stroke-width:1.10081"
               class="label"
               transform="scale(0.9800327,1.0203741)"><tspan
                 id="tspan10"
                 x="436.53113"
                 y="218.21762"
                 style="stroke-width:1.10081">9  (</tspan></text>
          </g>
          <g
             id="x11-y0"
             class="LED"
             transform="translate(-24.09523,-16.397149)">
            <path
               id="path4600"
               d="m 459.26,211.14 c -8.4e-4,-1.6888 1.7043,-3.387 3.4472,-3.398 l 27.234,-0.004 c 1.7285,-0.0229 3.4475,1.6978 3.4322,3.3808 l 0.0156,27.332 c 0.006,1.6859 -1.7051,3.3906 -3.406,3.3893 l -27.296,0.004 c -1.7242,0.003 -3.4578,-1.6921 -3.4194,-3.4147 z"
               style="fill:#1e1e1e;stroke:#00ff00;stroke-width:1.891" />
            <text
               id="text4602"
               y="219.78554"
               x="473.75244"
               xml:space="preserve"
               style="font-style:normal;font-variant:normal;font-weight:normal;font-stretch:normal;font-size:13.3339px;line-height:0%;font-family:Play;-inkscape-font-specification:'Play, Normal';font-variant-ligatures:normal;font-variant-caps:normal;font-variant-numeric:normal;font-variant-east-asian:normal;letter-spacing:0px;word-spacing:0px;fill:#00ff00;stroke-width:1.11116"
               class="label"
               transform="scale(0.98703287,1.0131375)"><tspan
                 id="tspan11"
                 x="473.75244"
                 y="219.78554"
                 style="stroke-width:1.11116">0  )</tspan></text>
          </g>
          <g
             id="x12-y0"
             class="LED"
             transform="translate(-24.12764,-16.623979)">
            <path
               id="path4608"
               d="m 498.16,211.14 c -8.4e-4,-1.6888 1.7043,-3.387 3.4472,-3.398 l 27.234,-0.004 c 1.7285,-0.0229 3.4475,1.6978 3.4322,3.3808 l 0.0156,27.332 c 0.006,1.6859 -1.7051,3.3906 -3.406,3.3893 l -27.296,0.004 c -1.7242,0.003 -3.4578,-1.6921 -3.4194,-3.4147 z"
               style="fill:#1e1e1e;stroke:#00ff00;stroke-width:1.891" />
            <text
               id="text4610"
               y="200.48669"
               x="554.36304"
               xml:space="preserve"
               style="font-style:normal;font-variant:normal;font-weight:normal;font-stretch:normal;font-size:15.2036px;line-height:0%;font-family:Play;-inkscape-font-specification:'Play, Normal';font-variant-ligatures:normal;font-variant-caps:normal;font-variant-numeric:normal;font-variant-east-asian:normal;letter-spacing:0px;word-spacing:0px;fill:#00ff00;stroke-width:1.26697"
               class="label"
               transform="scale(0.91335594,1.0948634)"><tspan
                 id="tspan12"
                 x="554.36304"
                 y="200.48669"
                 style="stroke-width:1.26697">-  _</tspan></text>
          </g>
          <g
             id="x13-y0"
             class="LED"
             transform="translate(-24.27757,-16.564469)">
            <path
               id="path4616"
               d="m 536.56,211.14 c -8.4e-4,-1.6888 1.7043,-3.387 3.4472,-3.398 l 27.234,-0.004 c 1.7285,-0.0229 3.4475,1.6978 3.4322,3.3808 l 0.0156,27.332 c 0.006,1.6859 -1.7051,3.3906 -3.406,3.3893 l -27.296,0.004 c -1.7242,0.003 -3.4578,-1.6921 -3.4194,-3.4147 z"
               style="fill:#1e1e1e;stroke:#00ff00;stroke-width:1.891" />
            <text
               id="text4618"
               y="221.73436"
               x="541.93866"
               xml:space="preserve"
               style="font-style:normal;font-variant:normal;font-weight:normal;font-stretch:normal;font-size:14.2911px;line-height:0%;font-family:Play;-inkscape-font-specification:'Play, Normal';font-variant-ligatures:normal;font-variant-caps:normal;font-variant-numeric:normal;font-variant-east-asian:normal;letter-spacing:0px;word-spacing:0px;fill:#00ff00;stroke-width:1.19093"
               class="label"><tspan
                 id="tspan13"
                 x="541.93866"
                 y="221.73436"
                 style="stroke-width:1.19093">=  +</tspan></text>
          </g>
          <g
             id="x14-y0"
             class="LED"
             transform="translate(-23.92864,-16.493709)">
            <path
               id="path4624"
               d="m 644.02,207.78 c 1.5556,-0.005 3.3298,2.064 3.3547,3.434 v 27.13 c -0.0139,1.7031 -2.0178,3.4175 -3.3547,3.4191 l -65.933,0.0159 c -1.6868,-0.0267 -3.4173,-1.5859 -3.3547,-3.3929 l -0.004,-27.192 c -0.009,-1.6454 1.8526,-3.3864 3.3587,-3.4063 z"
               style="fill:#1e1e1e;stroke:#00ff00;stroke-width:1.891" />
            <path
               id="path2200"
               style="fill:#00ff00;fill-opacity:1;stroke-width:0.829368"
               d="m 601.41286,219.23778 -0.56371,-0.59287 0.56371,-0.54104 3.25428,-3.183 c 0,1.39657 -0.009,1.63184 -0.009,2.77807 h 16.59568 v 1.94386 h -16.62924 c 0,0.60825 -0.0281,1.33135 -0.0289,2.77807 z"
               nostroke="true"
               class="label" />
          </g>
          <g
             id="x2-y1"
             class="LED"
             transform="translate(-22.96179,-16.491279)">
            <path
               id="path4633"
               d="m 130.06,249.74 c -8.4e-4,-1.6888 1.7043,-3.387 3.4472,-3.398 l 27.234,-0.004 c 1.7285,-0.0229 3.4475,1.6978 3.4322,3.3808 l 0.0156,27.332 c 0.006,1.6859 -1.7051,3.3906 -3.406,3.3893 l -27.296,0.004 c -1.7242,0.003 -3.4578,-1.6921 -3.4194,-3.4147 z"
               style="fill:#1e1e1e;stroke:#00ff00;stroke-width:1.891" />
            <text
               id="text4635"
               y="261.44382"
               x="141.90204"
               xml:space="preserve"
               style="line-height:0%;font-family:Play;letter-spacing:0px;word-spacing:0px;fill:#00ff00"
               class="label"><tspan
                 id="tspan4637"
                 x="141.90204"
                 style="font-size:14px;line-height:1.25"
                 y="261.44382">Q</tspan></text>
          </g>
          <g
             id="x3-y1"
             class="LED"
             transform="translate(-22.96179,-16.491279)">
            <path
               id="path4641"
               d="m 168.86,249.74 c -8.4e-4,-1.6888 1.7043,-3.387 3.4472,-3.398 l 27.234,-0.004 c 1.7285,-0.0229 3.4475,1.6978 3.4322,3.3808 l 0.0156,27.332 c 0.006,1.6859 -1.7051,3.3906 -3.406,3.3893 l -27.296,0.004 c -1.7242,0.003 -3.4578,-1.6921 -3.4194,-3.4147 z"
               style="fill:#1e1e1e;stroke:#00ff00;stroke-width:1.891" />
            <text
               id="text4643"
               y="261.41928"
               x="179.14804"
               xml:space="preserve"
               style="line-height:0%;font-family:Play;letter-spacing:0px;word-spacing:0px;fill:#00ff00"
               class="label"><tspan
                 id="tspan4645"
                 x="179.14804"
                 style="font-size:14px;line-height:1.25"
                 y="261.41928">W</tspan></text>
          </g>
          <g
             id="x4-y1"
             class="LED"
             transform="translate(-23.55061,-16.319649)">
            <path
               id="path4649"
               d="m 207.76,249.74 c -8.4e-4,-1.6888 1.7043,-3.387 3.4472,-3.398 l 27.234,-0.004 c 1.7285,-0.0229 3.4475,1.6978 3.4322,3.3808 l 0.0156,27.332 c 0.006,1.6859 -1.7051,3.3906 -3.406,3.3893 l -27.296,0.004 c -1.7242,0.003 -3.4578,-1.6921 -3.4194,-3.4147 z"
               style="fill:#1e1e1e;stroke:#00ff00;stroke-width:1.891" />
            <text
               id="text4651"
               y="261.41928"
               x="220.52603"
               xml:space="preserve"
               style="line-height:0%;font-family:Play;letter-spacing:0px;word-spacing:0px;fill:#00ff00"
               class="label"><tspan
                 id="tspan4653"
                 x="220.52603"
                 style="font-size:14px;line-height:1.25"
                 y="261.41928">E</tspan></text>
          </g>
          <g
             id="x5-y1"
             class="LED"
             transform="translate(-23.55061,-16.319649)">
            <path
               id="path4658"
               d="m 246.16,249.74 c -8.4e-4,-1.6888 1.7043,-3.387 3.4472,-3.398 l 27.234,-0.004 c 1.7285,-0.0229 3.4475,1.6978 3.4322,3.3808 l 0.0156,27.332 c 0.006,1.6859 -1.7051,3.3906 -3.406,3.3893 l -27.296,0.004 c -1.7242,0.003 -3.4578,-1.6921 -3.4194,-3.4147 z"
               style="fill:#1e1e1e;stroke:#00ff00;stroke-width:1.891" />
            <text
               id="text4660"
               y="261.50766"
               x="258.57602"
               xml:space="preserve"
               style="line-height:0%;font-family:Play;letter-spacing:0px;word-spacing:0px;fill:#00ff00"
               class="label"><tspan
                 id="tspan4662"
                 x="258.57602"
                 style="font-size:14px;line-height:1.25"
                 y="261.50766">R</tspan></text>
          </g>
          <g
             id="x6-y1"
             class="LED"
             transform="translate(-23.55061,-16.319649)">
            <path
               id="path4666"
               d="m 284.96,249.74 c -8.4e-4,-1.6888 1.7043,-3.387 3.4472,-3.398 l 27.234,-0.004 c 1.7285,-0.0229 3.4475,1.6978 3.4322,3.3808 l 0.0156,27.332 c 0.006,1.6859 -1.7051,3.3906 -3.406,3.3893 l -27.296,0.004 c -1.7242,0.003 -3.4578,-1.6921 -3.4194,-3.4147 z"
               style="fill:#1e1e1e;stroke:#00ff00;stroke-width:1.891" />
            <text
               id="text4668"
               y="261.50769"
               x="297.92905"
               xml:space="preserve"
               style="line-height:0%;font-family:Play;letter-spacing:0px;word-spacing:0px;fill:#00ff00"
               class="label"><tspan
                 id="tspan4670"
                 x="297.92905"
                 style="font-size:14px;line-height:1.25"
                 y="261.50769">T</tspan></text>
          </g>
          <g
             id="x7-y1"
             class="LED"
             transform="translate(-23.89508,-16.266559)">
            <path
               id="path4674"
               d="m 323.86,249.74 c -8.4e-4,-1.6888 1.7043,-3.387 3.4472,-3.398 l 27.234,-0.004 c 1.7285,-0.0229 3.4475,1.6978 3.4322,3.3808 l 0.0156,27.332 c 0.006,1.6859 -1.7051,3.3906 -3.406,3.3893 l -27.296,0.004 c -1.7242,0.003 -3.4578,-1.6921 -3.4194,-3.4147 z"
               style="fill:#1e1e1e;stroke:#00ff00;stroke-width:1.891" />
            <text
               id="text4676"
               y="261.3309"
               x="336.83603"
               xml:space="preserve"
               style="line-height:0%;font-family:Play;letter-spacing:0px;word-spacing:0px;fill:#00ff00"
               class="label"><tspan
                 id="tspan4678"
                 x="336.83603"
                 style="font-size:14px;line-height:1.25"
                 y="261.3309">Y</tspan></text>
          </g>
          <g
             id="x8-y1"
             class="LED"
             transform="translate(-23.89508,-16.266559)">
            <path
               id="path4682"
               d="m 362.26,249.74 c -8.4e-4,-1.6888 1.7043,-3.387 3.4472,-3.398 l 27.234,-0.004 c 1.7285,-0.0229 3.4475,1.6978 3.4322,3.3808 l 0.0156,27.332 c 0.006,1.6859 -1.7051,3.3906 -3.406,3.3893 l -27.296,0.004 c -1.7242,0.003 -3.4578,-1.6921 -3.4194,-3.4147 z"
               style="fill:#1e1e1e;stroke:#00ff00;stroke-width:1.891" />
            <text
               id="text4684"
               y="261.08151"
               x="374.59903"
               xml:space="preserve"
               style="line-height:0%;font-family:Play;letter-spacing:0px;word-spacing:0px;fill:#00ff00"
               class="label"><tspan
                 id="tspan4686"
                 x="374.59903"
                 style="font-size:14px;line-height:1.25"
                 y="261.08151">U</tspan></text>
          </g>
          <g
             id="x9-y1"
             class="LED"
             transform="translate(-23.89508,-16.266559)">
            <path
               id="path4690"
               d="m 401.06,249.74 c -8.4e-4,-1.6888 1.7043,-3.387 3.4472,-3.398 l 27.234,-0.004 c 1.7285,-0.0229 3.4475,1.6978 3.4322,3.3808 l 0.0156,27.332 c 0.006,1.6859 -1.7051,3.3906 -3.406,3.3893 l -27.296,0.004 c -1.7242,0.003 -3.4578,-1.6921 -3.4194,-3.4147 z"
               style="fill:#1e1e1e;stroke:#00ff00;stroke-width:1.891" />
            <text
               id="text4692"
               y="261.3309"
               x="416.26904"
               xml:space="preserve"
               style="line-height:0%;font-family:Play;letter-spacing:0px;word-spacing:0px;fill:#00ff00"
               class="label"><tspan
                 id="tspan4694"
                 x="416.26904"
                 style="font-size:14px;line-height:1.25"
                 y="261.3309">I</tspan></text>
          </g>
          <g
             id="x10-y1"
             class="LED"
             transform="translate(-23.89508,-16.266559)">
            <path
               id="path4698"
               d="m 439.96,249.74 c -8.4e-4,-1.6888 1.7043,-3.387 3.4472,-3.398 l 27.234,-0.004 c 1.7285,-0.0229 3.4475,1.6978 3.4322,3.3808 l 0.0156,27.332 c 0.006,1.6859 -1.7051,3.3906 -3.406,3.3893 l -27.296,0.004 c -1.7242,0.003 -3.4578,-1.6921 -3.4194,-3.4147 z"
               style="fill:#1e1e1e;stroke:#00ff00;stroke-width:1.891" />
            <text
               id="text4700"
               y="261.43069"
               x="452.27103"
               xml:space="preserve"
               style="line-height:0%;font-family:Play;letter-spacing:0px;word-spacing:0px;fill:#00ff00"
               class="label"><tspan
                 id="tspan4702"
                 x="452.27103"
                 style="font-size:14px;line-height:1.25"
                 y="261.43069">O</tspan></text>
          </g>
          <g
             id="x11-y1"
             class="LED"
             transform="translate(-24.04518,-16.491279)">
            <path
               id="path4707"
               d="m 478.36,249.74 c -8.4e-4,-1.6888 1.7043,-3.387 3.4472,-3.398 l 27.234,-0.004 c 1.7285,-0.0229 3.4475,1.6978 3.4322,3.3808 l 0.0156,27.332 c 0.006,1.6859 -1.7051,3.3906 -3.406,3.3893 l -27.296,0.004 c -1.7242,0.003 -3.4578,-1.6921 -3.4194,-3.4147 z"
               style="fill:#1e1e1e;stroke:#00ff00;stroke-width:1.891" />
            <text
               id="text4709"
               y="261.06573"
               x="491.16104"
               xml:space="preserve"
               style="line-height:0%;font-family:Play;letter-spacing:0px;word-spacing:0px;fill:#00ff00"
               class="label"><tspan
                 id="tspan4711"
                 x="491.16104"
                 style="font-size:14px;line-height:1.25"
                 y="261.06573">P</tspan></text>
          </g>
          <g
             id="x12-y1"
             class="LED"
             transform="translate(-24.04518,-16.491279)">
            <path
               id="path4715"
               d="m 517.16,249.74 c -8.4e-4,-1.6888 1.7043,-3.387 3.4472,-3.398 l 27.234,-0.004 c 1.7285,-0.0229 3.4475,1.6978 3.4322,3.3808 l 0.0156,27.332 c 0.006,1.6859 -1.7051,3.3906 -3.406,3.3893 l -27.296,0.004 c -1.7242,0.003 -3.4578,-1.6921 -3.4194,-3.4147 z"
               style="fill:#1e1e1e;stroke:#00ff00;stroke-width:1.891" />
            <text
               id="text4717"
               y="255.07291"
               x="537.02478"
               xml:space="preserve"
               style="font-style:normal;font-variant:normal;font-weight:normal;font-stretch:normal;font-size:11.5658px;line-height:0%;font-family:Sans;-inkscape-font-specification:'Sans, Normal';font-variant-ligatures:normal;font-variant-caps:normal;font-variant-numeric:normal;font-variant-east-asian:normal;letter-spacing:0px;word-spacing:0px;fill:#00ff00;stroke-width:1.08426"
               class="label"
               transform="scale(0.98316411,1.0171242)"><tspan
                 id="tspan14"
                 x="537.02478"
                 y="255.07291"
                 style="stroke-width:1.08426">[  {</tspan></text>
          </g>
          <g
             id="x13-y1"
             class="LED"
             transform="translate(-24.1452,-16.491279)">
            <path
               id="path4723"
               d="m 556.06,249.74 c -8.4e-4,-1.6888 1.7043,-3.387 3.4472,-3.398 l 27.234,-0.004 c 1.7285,-0.0229 3.4475,1.6978 3.4322,3.3808 l 0.0156,27.332 c 0.006,1.6859 -1.7051,3.3906 -3.406,3.3893 l -27.296,0.004 c -1.7242,0.003 -3.4578,-1.6921 -3.4194,-3.4147 z"
               style="fill:#1e1e1e;stroke:#00ff00;stroke-width:1.891" />
            <text
               id="text4725"
               y="260.34421"
               x="565.05463"
               xml:space="preserve"
               style="font-style:normal;font-variant:normal;font-weight:normal;font-stretch:normal;font-size:11.8307px;line-height:0%;font-family:Play;-inkscape-font-specification:'Play, Normal';font-variant-ligatures:normal;font-variant-caps:normal;font-variant-numeric:normal;font-variant-east-asian:normal;letter-spacing:0px;word-spacing:0px;fill:#00ff00;stroke-width:0.985894"
               class="label"
               transform="scale(1.0034579,0.99655403)"><tspan
                 id="tspan15"
                 x="565.05463"
                 y="260.34421"
                 style="stroke-width:0.985894">]  }</tspan></text>
          </g>
          <g
             id="x14-y2"
             class="LED"
             transform="matrix(1.0079281,0,0,1,-29.30062,-16.577269)">
            <path
               id="path4732"
               d="m 643.71,285.18238 c 1.7369,0.0136 3.38,1.8476 3.406,3.4628 l 4.1e-4,27.10631 c -0.003,1.6102 -1.6928,3.416 -3.4064,3.448 h -74.1052 c -1.5994,-0.0113 -3.3866,-1.6247 -3.406,-3.448 0,-10.7319 -0.0781,-14.03466 -0.0781,-27.12671 0.004,-1.5278 1.6945,-3.3992 3.409,-3.4348 z"
               style="fill:#1e1e1e;stroke:#00ff00;stroke-width:1.891" />
            <text
               id="text4734"
               y="297.82706"
               x="592.38715"
               xml:space="preserve"
               style="font-size:13.1013px;line-height:0;font-family:Play;letter-spacing:0px;word-spacing:0px;fill:#00ff00;stroke-width:1.09177"
               class="label"><tspan
                 id="tspan4736"
                 x="592.38715"
                 style="font-size:11.646px;line-height:1.25;stroke-width:1.09177"
                 y="297.82706"
                 dy="0 0 0 0 0">enter</tspan></text>
          </g>
          <g
             id="x2-y2"
             class="LED"
             transform="translate(-22.88595,-16.577269)">
            <path
               id="path4740"
               d="m 139.66,288.54 c -8.4e-4,-1.6888 1.7043,-3.387 3.4472,-3.398 l 27.234,-0.004 c 1.7285,-0.0229 3.4475,1.6978 3.4322,3.3808 l 0.0156,27.332 c 0.006,1.6859 -1.7051,3.3906 -3.406,3.3893 l -27.296,0.004 c -1.7242,0.003 -3.4578,-1.6921 -3.4194,-3.4147 z"
               style="fill:#1e1e1e;stroke:#00ff00;stroke-width:1.891" />
            <text
               id="text4742"
               y="300.7496"
               x="152.16003"
               xml:space="preserve"
               style="line-height:0%;font-family:Play;letter-spacing:0px;word-spacing:0px;fill:#00ff00"
               class="label"><tspan
                 id="tspan4744"
                 x="152.16003"
                 style="font-size:14px;line-height:1.25"
                 y="300.7496">A</tspan></text>
          </g>
          <g
             id="x3-y2"
             class="LED"
             transform="translate(-22.88595,-16.577269)">
            <path
               id="path4748"
               d="m 178.46,288.54 c -8.4e-4,-1.6888 1.7043,-3.387 3.4472,-3.398 l 27.234,-0.004 c 1.7285,-0.0229 3.4475,1.6978 3.4322,3.3808 l 0.0156,27.332 c 0.006,1.6859 -1.7051,3.3906 -3.406,3.3893 l -27.296,0.004 c -1.7242,0.003 -3.4578,-1.6921 -3.4194,-3.4147 z"
               style="fill:#1e1e1e;stroke:#00ff00;stroke-width:1.891" />
            <text
               id="text4750"
               y="300.93777"
               x="191.50603"
               xml:space="preserve"
               style="line-height:0%;font-family:Play;letter-spacing:0px;word-spacing:0px;fill:#00ff00"
               class="label"><tspan
                 id="tspan4752"
                 x="191.50603"
                 style="font-size:14px;line-height:1.25"
                 y="300.93777">S</tspan></text>
          </g>
          <g
             id="x4-y2"
             class="LED"
             transform="translate(-23.4047,-16.577269)">
            <path
               id="path4757"
               d="m 217.36,288.54 c -8.4e-4,-1.6888 1.7043,-3.387 3.4472,-3.398 l 27.234,-0.004 c 1.7285,-0.0229 3.4475,1.6978 3.4322,3.3808 l 0.0156,27.332 c 0.006,1.6859 -1.7051,3.3906 -3.406,3.3893 l -27.296,0.004 c -1.7242,0.003 -3.4578,-1.6921 -3.4194,-3.4147 z"
               style="fill:#1e1e1e;stroke:#00ff00;stroke-width:1.891" />
            <text
               id="text4759"
               y="300.83798"
               x="229.53104"
               xml:space="preserve"
               style="line-height:0%;font-family:Play;letter-spacing:0px;word-spacing:0px;fill:#00ff00"
               class="label"><tspan
                 id="tspan4761"
                 x="229.53104"
                 style="font-size:14px;line-height:1.25"
                 y="300.83798">D</tspan></text>
          </g>
          <g
             id="x5-y2"
             class="LED"
             transform="translate(-23.29237,-16.577269)">
            <path
               id="path4765"
               d="m 255.76,288.54 c -8.4e-4,-1.6888 1.7043,-3.387 3.4472,-3.398 l 27.234,-0.004 c 1.7285,-0.0229 3.4475,1.6978 3.4322,3.3808 l 0.0156,27.332 c 0.006,1.6859 -1.7051,3.3906 -3.406,3.3893 l -27.296,0.004 c -1.7242,0.003 -3.4578,-1.6921 -3.4194,-3.4147 z"
               style="fill:#1e1e1e;stroke:#00ff00;stroke-width:1.891" />
            <text
               id="text4767"
               y="300.83798"
               x="268.52603"
               xml:space="preserve"
               style="line-height:0%;font-family:Play;letter-spacing:0px;word-spacing:0px;fill:#00ff00"
               class="label"><tspan
                 id="tspan4769"
                 x="268.52603"
                 style="font-size:14px;line-height:1.25"
                 y="300.83798">F</tspan></text>
          </g>
          <g
             id="x6-y2"
             class="LED"
             transform="translate(-23.54359,-16.577269)">
            <path
               id="path4773"
               d="m 294.56,288.54 c -8.4e-4,-1.6888 1.7043,-3.387 3.4472,-3.398 l 27.234,-0.004 c 1.7285,-0.0229 3.4475,1.6978 3.4322,3.3808 l 0.0156,27.332 c 0.006,1.6859 -1.7051,3.3906 -3.406,3.3893 l -27.296,0.004 c -1.7242,0.003 -3.4578,-1.6921 -3.4194,-3.4147 z"
               style="fill:#1e1e1e;stroke:#00ff00;stroke-width:1.891" />
            <text
               id="text4775"
               y="301.02615"
               x="306.96204"
               xml:space="preserve"
               style="line-height:0%;font-family:Play;letter-spacing:0px;word-spacing:0px;fill:#00ff00"
               class="label"><tspan
                 id="tspan4777"
                 x="306.96204"
                 style="font-size:14px;line-height:1.25"
                 y="301.02615">G</tspan></text>
          </g>
          <g
             id="x7-y2"
             class="LED"
             transform="translate(-23.82193,-16.577269)">
            <path
               id="path4782"
               d="m 333.46,288.54 c -8.4e-4,-1.6888 1.7043,-3.387 3.4472,-3.398 l 27.234,-0.004 c 1.7285,-0.0229 3.4475,1.6978 3.4322,3.3808 l 0.0156,27.332 c 0.006,1.6859 -1.7051,3.3906 -3.406,3.3893 l -27.296,0.004 c -1.7242,0.003 -3.4578,-1.6921 -3.4194,-3.4147 z"
               style="fill:#1e1e1e;stroke:#00ff00;stroke-width:1.891" />
            <text
               id="text4784"
               y="300.66122"
               x="345.57504"
               xml:space="preserve"
               style="line-height:0%;font-family:Play;letter-spacing:0px;word-spacing:0px;fill:#00ff00"
               class="label"><tspan
                 id="tspan4786"
                 x="345.57504"
                 style="font-size:14px;line-height:1.25"
                 y="300.66122">H</tspan></text>
          </g>
          <g
             id="x8-y2"
             class="LED"
             transform="translate(-23.30289,-16.577269)">
            <path
               id="path4790"
               d="m 371.86,288.54 c -8.4e-4,-1.6888 1.7043,-3.387 3.4472,-3.398 l 27.234,-0.004 c 1.7285,-0.0229 3.4475,1.6978 3.4322,3.3808 l 0.0156,27.332 c 0.006,1.6859 -1.7051,3.3906 -3.406,3.3893 l -27.296,0.004 c -1.7242,0.003 -3.4578,-1.6921 -3.4194,-3.4147 z"
               style="fill:#1e1e1e;stroke:#00ff00;stroke-width:1.891" />
            <text
               id="text4792"
               y="300.76541"
               x="386.55103"
               xml:space="preserve"
               style="line-height:0%;font-family:Play;letter-spacing:0px;word-spacing:0px;fill:#00ff00"
               class="label"><tspan
                 id="tspan4794"
                 x="386.55103"
                 style="font-size:14px;line-height:1.25"
                 y="300.76541">J</tspan></text>
          </g>
          <g
             id="x9-y2"
             class="LED"
             transform="translate(-23.63165,-16.577269)">
            <path
               id="path4798"
               d="m 410.66,288.54 c -8.4e-4,-1.6888 1.7043,-3.387 3.4472,-3.398 l 27.234,-0.004 c 1.7285,-0.0229 3.4475,1.6978 3.4322,3.3808 l 0.0156,27.332 c 0.006,1.6859 -1.7051,3.3906 -3.406,3.3893 l -27.296,0.004 c -1.7242,0.003 -3.4578,-1.6921 -3.4194,-3.4147 z"
               style="fill:#1e1e1e;stroke:#00ff00;stroke-width:1.891" />
            <text
               id="text4800"
               y="300.83798"
               x="422.80304"
               xml:space="preserve"
               style="line-height:0%;font-family:Play;letter-spacing:0px;word-spacing:0px;fill:#00ff00"
               class="label"><tspan
                 id="tspan4802"
                 x="422.80304"
                 style="font-size:14px;line-height:1.25"
                 y="300.83798">K</tspan></text>
          </g>
          <g
             id="x10-y2"
             class="LED"
             transform="translate(-23.79934,-16.577269)">
            <path
               id="path4807"
               d="m 449.56,288.54 c -8.4e-4,-1.6888 1.7043,-3.387 3.4472,-3.398 l 27.234,-0.004 c 1.7285,-0.0229 3.4475,1.6978 3.4322,3.3808 l 0.0156,27.332 c 0.006,1.6859 -1.7051,3.3906 -3.406,3.3893 l -27.296,0.004 c -1.7242,0.003 -3.4578,-1.6921 -3.4194,-3.4147 z"
               style="fill:#1e1e1e;stroke:#00ff00;stroke-width:1.891" />
            <text
               id="text4809"
               y="300.83798"
               x="462.53604"
               xml:space="preserve"
               style="line-height:0%;font-family:Play;letter-spacing:0px;word-spacing:0px;fill:#00ff00"
               class="label"><tspan
                 id="tspan4811"
                 x="462.53604"
                 style="font-size:14px;line-height:1.25"
                 y="300.83798">L</tspan></text>
          </g>
          <g
             id="x11-y2"
             class="LED"
             transform="translate(-23.74352,-16.577269)">
            <path
               id="path4815"
               d="m 487.96,288.54 c -8.4e-4,-1.6888 1.7043,-3.387 3.4472,-3.398 l 27.234,-0.004 c 1.7285,-0.0229 3.4475,1.6978 3.4322,3.3808 l 0.0156,27.332 c 0.006,1.6859 -1.7051,3.3906 -3.406,3.3893 l -27.296,0.004 c -1.7242,0.003 -3.4578,-1.6921 -3.4194,-3.4147 z"
               style="fill:#1e1e1e;stroke:#00ff00;stroke-width:1.891" />
            <text
               id="text4817"
               y="302.04117"
               x="492.80142"
               xml:space="preserve"
               style="font-style:normal;font-variant:normal;font-weight:normal;font-stretch:normal;font-size:14.3802px;line-height:0%;font-family:Play;-inkscape-font-specification:'Play, Normal';font-variant-ligatures:normal;font-variant-caps:normal;font-variant-numeric:normal;font-variant-east-asian:normal;letter-spacing:0px;word-spacing:0px;fill:#00ff00;stroke-width:1.19835"
               class="label"
               transform="scale(1.0104,0.98970705)"><tspan
                 id="tspan17"
                 x="492.80142"
                 y="302.04117"
                 style="stroke-width:1.19835">;  :</tspan></text>
          </g>
          <g
             id="x12-y2"
             class="LED"
             transform="translate(-23.86812,-16.577269)">
            <path
               id="path4823"
               d="m 526.76,288.54 c -8.4e-4,-1.6888 1.7043,-3.387 3.4472,-3.398 l 27.234,-0.004 c 1.7285,-0.0229 3.4475,1.6978 3.4322,3.3808 l 0.0156,27.332 c 0.006,1.6859 -1.7051,3.3906 -3.406,3.3893 l -27.296,0.004 c -1.7242,0.003 -3.4578,-1.6921 -3.4194,-3.4147 z"
               style="fill:#1e1e1e;stroke:#00ff00;stroke-width:1.891" />
            <text
               id="text4825"
               y="297.95978"
               x="543.19891"
               xml:space="preserve"
               style="font-style:normal;font-variant:normal;font-weight:normal;font-stretch:normal;font-size:16.0724px;line-height:0%;font-family:Sans;-inkscape-font-specification:'Sans, Normal';font-variant-ligatures:normal;font-variant-caps:normal;font-variant-numeric:normal;font-variant-east-asian:normal;letter-spacing:0px;word-spacing:0px;fill:#00ff00;stroke-width:1.14803"
               class="label"
               transform="scale(0.98446263,1.0157826)"><tspan
                 id="tspan18"
                 x="543.19891"
                 y="297.95978"
                 style="stroke-width:1.14803">'  &quot;</tspan></text>
          </g>
          <g
             id="x3-y3"
             class="LED"
             transform="translate(-22.88595,-16.577269)">
            <path
               id="path4832"
               d="m 159.16,327.14 c -8.4e-4,-1.6888 1.7043,-3.387 3.4472,-3.398 l 27.234,-0.004 c 1.7285,-0.0229 3.4475,1.6978 3.4322,3.3808 l 0.0156,27.332 c 0.006,1.6859 -1.7051,3.3906 -3.406,3.3893 l -27.296,0.004 c -1.7242,0.003 -3.4578,-1.6921 -3.4194,-3.4147 z"
               style="fill:#1e1e1e;stroke:#00ff00;stroke-width:1.891" />
            <text
               id="text4834"
               y="339.01535"
               x="172.16403"
               xml:space="preserve"
               style="line-height:0%;font-family:Play;letter-spacing:0px;word-spacing:0px;fill:#00ff00"
               class="label"><tspan
                 id="tspan4836"
                 x="172.16403"
                 style="font-size:14px;line-height:1.25"
                 y="339.01535">Z</tspan></text>
          </g>
          <g
             id="x4-y3"
             class="LED"
             transform="translate(-23.28566,-16.577269)">
            <path
               id="path4840"
               d="m 197.96,327.14 c -8.4e-4,-1.6888 1.7043,-3.387 3.4472,-3.398 l 27.234,-0.004 c 1.7285,-0.0229 3.4475,1.6978 3.4322,3.3808 l 0.0156,27.332 c 0.006,1.6859 -1.7051,3.3906 -3.406,3.3893 l -27.296,0.004 c -1.7242,0.003 -3.4578,-1.6921 -3.4194,-3.4147 z"
               style="fill:#1e1e1e;stroke:#00ff00;stroke-width:1.891" />
            <text
               id="text4842"
               y="339.01535"
               x="210.79604"
               xml:space="preserve"
               style="line-height:0%;font-family:Play;letter-spacing:0px;word-spacing:0px;fill:#00ff00"
               class="label"><tspan
                 id="tspan4844"
                 x="210.79604"
                 style="font-size:14px;line-height:1.25"
                 y="339.01535">X</tspan></text>
          </g>
          <g
             id="x5-y3"
             class="LED"
             transform="translate(-23.35062,-16.577269)">
            <path
               id="path4848"
               d="m 236.86,327.14 c -8.4e-4,-1.6888 1.7043,-3.387 3.4472,-3.398 l 27.234,-0.004 c 1.7285,-0.0229 3.4475,1.6978 3.4322,3.3808 l 0.0156,27.332 c 0.006,1.6859 -1.7051,3.3906 -3.406,3.3893 l -27.296,0.004 c -1.7242,0.003 -3.4578,-1.6921 -3.4194,-3.4147 z"
               style="fill:#1e1e1e;stroke:#00ff00;stroke-width:1.891" />
            <text
               id="text4850"
               y="339.18835"
               x="249.84303"
               xml:space="preserve"
               style="line-height:0%;font-family:Play;letter-spacing:0px;word-spacing:0px;fill:#00ff00"
               class="label"><tspan
                 id="tspan4852"
                 x="249.84303"
                 style="font-size:14px;line-height:1.25"
                 y="339.18835">C</tspan></text>
          </g>
          <g
             id="x6-y3"
             class="LED"
             transform="translate(-23.3639,-16.577269)">
            <path
               id="path4857"
               d="m 275.26,327.14 c -8.4e-4,-1.6888 1.7043,-3.387 3.4472,-3.398 l 27.234,-0.004 c 1.7285,-0.0229 3.4475,1.6978 3.4322,3.3808 l 0.0156,27.332 c 0.006,1.6859 -1.7051,3.3906 -3.406,3.3893 l -27.296,0.004 c -1.7242,0.003 -3.4578,-1.6921 -3.4194,-3.4147 z"
               style="fill:#1e1e1e;stroke:#00ff00;stroke-width:1.891" />
            <text
               id="text4859"
               y="339.01535"
               x="287.76004"
               xml:space="preserve"
               style="line-height:0%;font-family:Play;letter-spacing:0px;word-spacing:0px;fill:#00ff00"
               class="label"><tspan
                 id="tspan4861"
                 x="287.76004"
                 style="font-size:14px;line-height:1.25"
                 y="339.01535">V</tspan></text>
          </g>
          <g
             id="x7-y3"
             class="LED"
             transform="translate(-23.51968,-16.577269)">
            <path
               id="path4865"
               d="m 314.06,327.14 c -8.4e-4,-1.6888 1.7043,-3.387 3.4472,-3.398 l 27.234,-0.004 c 1.7285,-0.0229 3.4475,1.6978 3.4322,3.3808 l 0.0156,27.332 c 0.006,1.6859 -1.7051,3.3906 -3.406,3.3893 l -27.296,0.004 c -1.7242,0.003 -3.4578,-1.6921 -3.4194,-3.4147 z"
               style="fill:#1e1e1e;stroke:#00ff00;stroke-width:1.891" />
            <text
               id="text4867"
               y="339.14035"
               x="326.66504"
               xml:space="preserve"
               style="line-height:0%;font-family:Play;letter-spacing:0px;word-spacing:0px;fill:#00ff00"
               class="label"><tspan
                 id="tspan4869"
                 x="326.66504"
                 style="font-size:14px;line-height:1.25"
                 y="339.14035">B</tspan></text>
          </g>
          <g
             id="x8-y3"
             class="LED"
             transform="translate(-23.84196,-16.577269)">
            <path
               id="path4873"
               d="m 352.96,327.14 c -8.4e-4,-1.6888 1.7043,-3.387 3.4472,-3.398 l 27.234,-0.004 c 1.7285,-0.0229 3.4475,1.6978 3.4322,3.3808 l 0.0156,27.332 c 0.006,1.6859 -1.7051,3.3906 -3.406,3.3893 l -27.296,0.004 c -1.7242,0.003 -3.4578,-1.6921 -3.4194,-3.4147 z"
               style="fill:#1e1e1e;stroke:#00ff00;stroke-width:1.891" />
            <text
               id="text4875"
               y="339.01535"
               x="364.96304"
               xml:space="preserve"
               style="line-height:0%;font-family:Play;letter-spacing:0px;word-spacing:0px;fill:#00ff00"
               class="label"><tspan
                 id="tspan4877"
                 x="364.96304"
                 style="font-size:14px;line-height:1.25"
                 y="339.01535">N</tspan></text>
          </g>
          <g
             id="x9-y3"
             class="LED"
             transform="translate(-23.55951,-16.577269)">
            <path
               id="path4882"
               d="m 391.36,327.14 c -8.4e-4,-1.6888 1.7043,-3.387 3.4472,-3.398 l 27.234,-0.004 c 1.7285,-0.0229 3.4475,1.6978 3.4322,3.3808 l 0.0156,27.332 c 0.006,1.6859 -1.7051,3.3906 -3.406,3.3893 l -27.296,0.004 c -1.7242,0.003 -3.4578,-1.6921 -3.4194,-3.4147 z"
               style="fill:#1e1e1e;stroke:#00ff00;stroke-width:1.891" />
            <text
               id="text4884"
               y="338.89035"
               x="402.39703"
               xml:space="preserve"
               style="line-height:0%;font-family:Play;letter-spacing:0px;word-spacing:0px;fill:#00ff00"
               class="label"><tspan
                 id="tspan4886"
                 x="402.39703"
                 style="font-size:14px;line-height:1.25"
                 y="338.89035">M</tspan></text>
          </g>
          <g
             id="x10-y3"
             class="LED"
             transform="translate(-23.96255,-16.577269)">
            <path
               id="path4890"
               d="m 430.16,327.14 c -8.4e-4,-1.6888 1.7043,-3.387 3.4472,-3.398 l 27.234,-0.004 c 1.7285,-0.0229 3.4475,1.6978 3.4322,3.3808 l 0.0156,27.332 c 0.006,1.6859 -1.7051,3.3906 -3.406,3.3893 l -27.296,0.004 c -1.7242,0.003 -3.4578,-1.6921 -3.4194,-3.4147 z"
               style="fill:#1e1e1e;stroke:#00ff00;stroke-width:1.891" />
            <text
               id="text4892"
               y="336.17218"
               x="439.77771"
               xml:space="preserve"
               style="font-style:normal;font-variant:normal;font-weight:normal;font-stretch:normal;font-size:12px;line-height:0%;font-family:Play;-inkscape-font-specification:'Play, Normal';font-variant-ligatures:normal;font-variant-caps:normal;font-variant-numeric:normal;font-variant-east-asian:normal;letter-spacing:0px;word-spacing:0px;fill:#00ff00"
               class="label"><tspan
                 id="tspan19"
                 x="439.77771"
                 y="336.17218">,  &lt;</tspan></text>
          </g>
          <g
             id="x11-y3"
             class="LED"
             transform="translate(-24.25866,-16.577269)">
            <path
               id="path4898"
               d="m 469.06,327.14 c -8.4e-4,-1.6888 1.7043,-3.387 3.4472,-3.398 l 27.234,-0.004 c 1.7285,-0.0229 3.4475,1.6978 3.4322,3.3808 l 0.0156,27.332 c 0.006,1.6859 -1.7051,3.3906 -3.406,3.3893 l -27.296,0.004 c -1.7242,0.003 -3.4578,-1.6921 -3.4194,-3.4147 z"
               style="fill:#1e1e1e;stroke:#00ff00;stroke-width:1.891" />
            <text
               id="text4900"
               y="337.22031"
               x="478.15155"
               xml:space="preserve"
               style="font-style:normal;font-variant:normal;font-weight:normal;font-stretch:normal;font-size:14px;line-height:0%;font-family:Sans;-inkscape-font-specification:'Sans, Normal';font-variant-ligatures:normal;font-variant-caps:normal;font-variant-numeric:normal;font-variant-east-asian:normal;letter-spacing:0px;word-spacing:0px;fill:#00ff00"
               class="label"><tspan
                 id="tspan20"
                 x="478.15155"
                 y="337.22031">.  &gt;</tspan></text>
          </g>
          <g
             id="x12-y3"
             class="LED"
             transform="translate(-23.88995,-16.577269)">
            <path
               id="path4907"
               d="m 507.46,327.14 c -8.4e-4,-1.6888 1.7043,-3.387 3.4472,-3.398 l 27.234,-0.004 c 1.7285,-0.0229 3.4475,1.6978 3.4322,3.3808 l 0.0156,27.332 c 0.006,1.6859 -1.7051,3.3906 -3.406,3.3893 l -27.296,0.004 c -1.7242,0.003 -3.4578,-1.6921 -3.4194,-3.4147 z"
               style="fill:#1e1e1e;stroke:#00ff00;stroke-width:1.891" />
            <text
               id="text4909"
               y="339.00037"
               x="515.73419"
               xml:space="preserve"
               style="font-style:normal;font-variant:normal;font-weight:normal;font-stretch:normal;font-size:14px;line-height:0%;font-family:Sans;-inkscape-font-specification:'Sans, Normal';font-variant-ligatures:normal;font-variant-caps:normal;font-variant-numeric:normal;font-variant-east-asian:normal;letter-spacing:0px;word-spacing:0px;fill:#00ff00"
               class="label"><tspan
                 id="tspan21"
                 x="515.73419"
                 y="339.00037">/  ?</tspan></text>
          </g>
          <g
             id="x1-y1"
             class="LED"
             transform="translate(-22.96179,-16.491279)">
            <path
               id="path4915"
               d="m 121.86,246.23 c 1.7369,0.0136 3.38,1.8476 3.406,3.4628 l 4.1e-4,27.357 c -0.003,1.6102 -1.6928,3.4157 -3.4064,3.4477 l -46.366,0.016 c -1.8932,-0.008 -3.4035,-1.8356 -3.406,-3.4213 l -0.003,-27.42 c 0.004,-1.5278 1.6945,-3.3992 3.409,-3.4348 z"
               style="fill:#1e1e1e;stroke:#00ff00;stroke-width:1.891" />
            <text
               id="text4917"
               y="258.38449"
               x="90.916908"
               xml:space="preserve"
               style="font-size:15.845px;line-height:0%;font-family:Play;letter-spacing:0px;word-spacing:0px;fill:#00ff00;stroke-width:1.32042"
               class="label"><tspan
                 id="tspan4919"
                 x="90.916908"
                 style="font-size:10.5634px;line-height:1.25;stroke-width:1.32042"
                 y="258.38449">tab</tspan></text>
          </g>
          <g
             id="x1-y2"
             class="LED"
             transform="translate(-22.88595,-16.577269)">
            <path
               id="path4923"
               d="m 131.64,285.11 c 1.6601,2.7e-4 3.3645,1.7075 3.406,3.448 l 9.3e-4,27.239 c -0.0263,1.6755 -1.8572,3.4526 -3.4069,3.4329 l -56.076,0.0159 c -1.6424,-0.0307 -3.3953,-1.9064 -3.4025,-3.4066 l -0.006,-27.3 c 0.01943,-1.593 1.7072,-3.3628 3.406,-3.42 z"
               style="fill:#1e1e1e;stroke:#00ff00;stroke-width:1.891" />
            <text
               id="text4925"
               y="297.00815"
               x="92.500786"
               xml:space="preserve"
               style="font-size:16.0257px;line-height:0%;font-family:Play;letter-spacing:0px;word-spacing:0px;fill:#00ff00;stroke-width:1.33547"
               class="label"><tspan
                 id="tspan4927"
                 x="92.500786"
                 style="font-size:10.6838px;line-height:0.9;stroke-width:1.33547"
                 y="297.00815">caps</tspan></text>
          </g>
          <g
             id="x1-y3"
             class="LED"
             transform="translate(-22.88595,-16.577269)">
            <path
               id="path4933"
               d="m 151.32314,323.84 c 1.6764,0.002 3.397,1.9382 3.4051,3.421 l 8.6e-4,27.026 c -0.0345,1.6624 -1.3706,3.4257 -3.406,3.406 l -75.62414,0.0158 c -1.6988,0.0334 -3.3885,-1.8222 -3.406,-3.38 l -0.004,-27.1 c 0.0321,-1.6614 1.7546,-3.3781 3.4109,-3.3933 z"
               style="fill:#1e1e1e;stroke:#00ff00;stroke-width:1.891" />
            <text
               id="text4935"
               y="337.16711"
               x="102.49859"
               xml:space="preserve"
               style="font-size:15.625px;line-height:0%;font-family:Play;letter-spacing:0px;word-spacing:0px;fill:#00ff00;stroke-width:1.30209"
               class="label"><tspan
                 id="tspan4937"
                 x="102.49859"
                 style="font-size:10.4167px;line-height:1.25;stroke-width:1.30209"
                 y="337.16711">shift</tspan></text>
          </g>
          <g
             id="x1-y4"
             class="LED"
             transform="matrix(0.8561328,0,0,1,-13.01696,-15.611199)">
            <path
               id="path4941"
               d="m 121.86,361.93 c 1.7369,0.0136 3.38,1.8476 3.406,3.4628 l 4.1e-4,27.357 c -0.003,1.6102 -1.6928,3.4157 -3.4064,3.4477 l -46.366,0.016 c -1.8932,-0.008 -3.4035,-1.8356 -3.406,-3.4213 l -0.003,-27.42 c 0.004,-1.5278 1.6945,-3.3992 3.409,-3.4348 z"
               style="fill:#1e1e1e;stroke:#00ff00;stroke-width:1.891" />
            <text
               id="text4943"
               y="376.19012"
               x="91.043671"
               xml:space="preserve"
               style="font-size:15.845px;line-height:0%;font-family:Play;letter-spacing:0px;word-spacing:0px;fill:#00ff00;stroke-width:1.32042"
               class="label"><tspan
                 id="tspan4945"
                 x="91.043671"
                 style="font-size:10.5634px;line-height:1.25;stroke-width:1.32042"
                 y="376.19012">ctrl</tspan></text>
          </g>
          <g
             id="x3-y4"
             class="LED"
             transform="matrix(0.86319741,0,0,1,0.03942047,-16.120399)">
            <path
               id="path4949"
               style="fill:#1e1e1e;stroke:#00ff00;stroke-width:1.891"
               d="m 218.51,361.93 c 1.7369,0.0136 3.38,1.8476 3.406,3.4628 l 4.1e-4,27.357 c -0.003,1.6102 -1.6928,3.4157 -3.4064,3.4477 l -46.366,0.016 c -1.8932,-0.008 -3.4035,-1.8356 -3.406,-3.4213 l -0.003,-27.42 c 0.004,-1.5278 1.6945,-3.3992 3.409,-3.4348 z" />
            <text
               id="text4951"
               y="375.76498"
               x="188.90318"
               style="font-size:15.8451px;line-height:0%;font-family:Play;letter-spacing:0px;word-spacing:0px;fill:#00ff00;stroke-width:1.32043"
               xml:space="preserve"
               class="label"><tspan
                 id="tspan4953"
                 y="375.76498"
                 x="188.90318"
                 style="font-size:10.5634px;line-height:1.25;stroke-width:1.32043">alt</tspan></text>
          </g>
          <g
             id="x11-y4"
             class="LED"
             transform="matrix(0.85027228,0,0,1,44.75937,-16.600629)">
            <path
               d="m 508.51,361.93 c 1.7369,0.0136 3.38,1.8476 3.406,3.4628 l 4.1e-4,27.357 c -0.003,1.6102 -1.6928,3.4157 -3.4064,3.4477 l -46.366,0.016 c -1.8932,-0.008 -3.4035,-1.8356 -3.406,-3.4213 l -0.003,-27.42 c 0.004,-1.5278 1.6945,-3.3992 3.409,-3.4348 z"
               style="fill:#1e1e1e;stroke:#00ff00;stroke-width:1.891;stroke-miterlimit:4;stroke-dasharray:none"
               id="path404" />
            <text
               id="text4959"
               y="375.52203"
               x="478.90317"
               xml:space="preserve"
               style="font-size:15.845px;line-height:0%;font-family:Play;letter-spacing:0px;word-spacing:0px;fill:#00ff00;stroke-width:1.32043"
               class="label"><tspan
                 id="tspan4961"
                 x="478.90317"
                 style="font-size:10.5634px;line-height:1.25;stroke-width:1.32043"
                 y="375.52203">alt</tspan></text>
          </g>
          <g
             id="x14-y4"
             class="LED"
             transform="matrix(0.82859863,0,0,1,88.030685,-16.577269)">
            <path
               id="path4965"
               d="m 643.71,361.93 c 1.7369,0.0136 3.38,1.8476 3.406,3.4628 l 4.1e-4,27.357 c -0.003,1.6102 -1.6928,3.4157 -3.4064,3.4477 l -46.366,0.016 c -1.8932,-0.008 -3.4035,-1.8356 -3.406,-3.4213 l -0.003,-27.42 c 0.004,-1.5278 1.6945,-3.3992 3.409,-3.4348 z"
               style="fill:#1e1e1e;stroke:#00ff00;stroke-width:1.891" />
            <text
               id="text4967"
               y="376.19022"
               x="612.89368"
               xml:space="preserve"
               style="font-size:15.8452px;line-height:0%;font-family:Play;letter-spacing:0px;word-spacing:0px;fill:#00ff00;stroke:none;stroke-width:1.32043"
               class="label"><tspan
                 id="tspan4969"
                 x="612.89368"
                 style="font-size:10.5634px;line-height:1.25;stroke:none;stroke-width:1.32043"
                 y="376.19022">ctrl</tspan></text>
          </g>
          <g
             id="x14-y3"
             class="LED"
             transform="translate(-22.88595,-16.577269)">
            <path
               id="path4973"
               d="m 643.34919,323.96 c 1.5774,-0.005 3.3869,1.6907 3.4065,3.3978 l 0.001,26.843 c -0.031,1.4812 -1.7855,3.3933 -3.4075,3.383 l -95.038,0.0157 c -1.5883,-0.003 -3.3755,-1.9066 -3.406,-3.3571 l -0.006,-26.905 c 0.0105,-1.488 1.6894,-3.3517 3.4125,-3.3703 z"
               style="fill:#1e1e1e;stroke:#00ff00;stroke-width:1.891" />
            <text
               id="text4975"
               y="337.08966"
               x="585.1283"
               xml:space="preserve"
               style="font-size:15.625px;line-height:0%;font-family:Play;letter-spacing:0px;word-spacing:0px;fill:#00ff00;stroke-width:1.30209"
               class="label"><tspan
                 id="tspan4977"
                 style="font-size:10.4167px;line-height:1.25;stroke-width:1.30209"
                 y="337.08966"
                 x="585.1283">shift</tspan></text>
          </g>
          <g
             id="x7-y4"
             class="LED"
             transform="matrix(1.0330043,0,0,1.0330043,-38.41768,-29.088339)">
            <path
               id="x6-y5"
               d="m 451.36,361.96 c 1.6665,0.0544 3.4331,1.7791 3.4304,3.4571 6.4e-4,9.1042 0.001,18.208 0.002,27.313 0,1.5922 -1.9321,3.4421 -3.4323,3.4421 l -221.85,0.016 c -1.6745,0 -3.4181,-1.572 -3.4181,-3.4157 -0.004,-9.125 -0.008,-18.25 -0.0123,-27.375 0,-1.648 1.8083,-3.4292 3.4303,-3.4292 z"
               style="fill:#1e1e1e;stroke:#00ff00;stroke-width:1.891;stroke-miterlimit:4;stroke-dasharray:none" />
            <path
               style="color:#000000;font-style:normal;font-variant:normal;font-weight:normal;font-stretch:normal;font-size:medium;line-height:normal;font-family:sans-serif;font-variant-ligatures:normal;font-variant-position:normal;font-variant-caps:normal;font-variant-numeric:normal;font-variant-alternates:normal;font-variant-east-asian:normal;font-feature-settings:normal;font-variation-settings:normal;text-indent:0;text-align:start;text-decoration:none;text-decoration-line:none;text-decoration-style:solid;text-decoration-color:#000000;letter-spacing:normal;word-spacing:normal;text-transform:none;writing-mode:lr-tb;direction:ltr;text-orientation:mixed;dominant-baseline:auto;baseline-shift:baseline;text-anchor:start;white-space:normal;shape-padding:0;shape-margin:0;inline-size:0;clip-rule:nonzero;display:inline;overflow:visible;visibility:visible;isolation:auto;mix-blend-mode:normal;color-interpolation:sRGB;color-interpolation-filters:linearRGB;solid-color:#000000;solid-opacity:1;vector-effect:none;fill:#00ff00;fill-opacity:1;fill-rule:nonzero;stroke:none;stroke-width:1.9;stroke-linecap:round;stroke-linejoin:miter;stroke-miterlimit:4;stroke-dasharray:none;stroke-dashoffset:0;stroke-opacity:1;color-rendering:auto;image-rendering:auto;shape-rendering:auto;text-rendering:auto;enable-background:accumulate;stop-color:#000000;stop-opacity:1"
               d="m 329.08984,368.19922 a 0.94999999,0.94999999 0 0 0 -0.94922,0.95117 0.94999999,0.94999999 0 0 0 0.94922,0.94922 h 22.69727 a 0.94999999,0.94999999 0 0 0 0.95117,-0.94922 0.94999999,0.94999999 0 0 0 -0.95117,-0.95117 z"
               id="path5430"
               nostroke="true"
               class="label" />
          </g>
          <g
             id="x12-y4"
             class="LED"
             transform="translate(-22.88595,-16.577269)">
            <path
               id="path4996"
               d="m 506.9616,365.61426 c -10e-4,-1.67776 2.14351,-3.36487 4.33557,-3.3758 l 34.25242,-0.004 c 2.17395,-0.0227 4.33595,1.68671 4.31671,3.35871 l 0.0196,27.15348 c 0.008,1.67489 -2.14452,3.36845 -4.28375,3.36716 l -34.33041,0.004 c -2.16854,0.003 -4.3489,-1.68104 -4.30061,-3.39239 z"
               style="fill:#1e1e1e;stroke:#00ff00;stroke-width:2.11377" />
            <text
               id="text4998"
               y="375.68976"
               x="524.45868"
               xml:space="preserve"
               style="font-size:15.845px;line-height:0%;font-family:Play;letter-spacing:0px;word-spacing:0px;fill:#00ff00;stroke-width:1.32043"
               class="label"><tspan
                 id="tspan5000"
                 x="524.45868"
                 style="font-size:10.5634px;line-height:1.25;stroke-width:1.32043"
                 y="375.68976">fn</tspan></text>
          </g>
          <g
             id="x2-y4"
             class="LED"
             transform="translate(-31.54408,-15.796499)">
            <path
               id="path5005"
               d="m 130.06726,365.52586 c -0.001,-1.67818 2.12628,-3.3657 4.30072,-3.37663 l 33.97708,-0.004 c 2.15648,-0.0228 4.3011,1.68712 4.28201,3.35953 l 0.0195,27.16009 c 0.007,1.6753 -2.12728,3.36928 -4.24932,3.36799 l -34.05443,0.004 c -2.15111,0.003 -4.31395,-1.68146 -4.26604,-3.39322 z"
               style="fill:#1e1e1e;stroke:#00ff00;stroke-width:2.10552" />
            <g
               id="g7582"
               transform="matrix(0.051199,0,0,0.051199,131.67494,373.88192)"
               nochange="true">
              <circle
                 id="path7531-3"
                 style="fill:#8e8e8e;stroke:#000000;stroke-width:5.9712;stroke-opacity:0.64314"
                 cy="108.07"
                 cx="397.14001"
                 r="196.31"
                 class="label"
                 nochange="true" />
              <circle
                 id="path7531"
                 style="fill:#000000"
                 clip-path="url(#clipPath7578-4)"
                 transform="matrix(0.76554,0,0,0.76554,93.114,25.339)"
                 cy="108.79"
                 cx="400.70999"
                 r="256.42999"
                 class="label"
                 nochange="true" />
            </g>
          </g>
          <g
             id="x13-y4"
             class="LED"
             transform="translate(-13.17709,-16.577269)">
            <path
               id="path6154"
               d="m 545.35601,365.44 c -10e-4,-1.6888 2.1839,-3.387 4.41725,-3.398 l 34.89772,-0.004 c 2.2149,-0.0229 4.41763,1.6978 4.39803,3.3808 l 0.02,27.332 c 0.008,1.6859 -2.18492,3.3906 -4.36446,3.3893 l -34.97716,0.004 c -2.2094,0.003 -4.43083,-1.6921 -4.38163,-3.4147 z"
               style="fill:#1e1e1e;stroke:#00ff00;stroke-width:2.14059" />
            <path
               id="path1357"
               style="fill:#00ff00"
               d="m 562.24558,365.80226 v 0.3607 10.40534 h 9.57349 v -10.76604 z m 0.72265,0.72142 h 8.12819 v 9.3232 h -8.12819 z m 1.86733,1.78882 v 0.72142 h 4.39476 v -0.72142 z m 0,2.51146 v 0.72141 h 4.39476 v -0.72141 z m 0,2.51268 v 0.72266 h 4.39476 v -0.72266 z m -5.3e-4,-4.6638 h 4.39471 z m 0,2.51175 h 4.39471 z m 0,2.5135 h 4.39471 z"
               nostroke="true"
               class="label" />
          </g>
          <g
             id="x14-y1"
             class="LED"
             transform="translate(4.9160005,-55.291279)">
            <path
               id="path4823-1"
               d="m 565.56,288.54 c -8.4e-4,-1.6888 1.7043,-3.387 3.4472,-3.398 l 45.60795,-0.004 c 1.7285,-0.0229 3.4476,1.6975 3.4323,3.3806 l 0.0155,27.332 c 0.006,1.6859 -1.7051,3.3906 -3.406,3.3893 l -45.66995,0.004 c -1.7242,0.003 -3.4578,-1.6921 -3.4194,-3.4147 z"
               style="fill:#1e1e1e;stroke:#00ff00;stroke-width:1.891" />
            <text
               id="text4825-3"
               y="305.34787"
               x="571.03418"
               xml:space="preserve"
               style="font-style:normal;font-variant:normal;font-weight:normal;font-stretch:normal;font-size:11.2492px;line-height:0%;font-family:Play;-inkscape-font-specification:'Play, Normal';font-variant-ligatures:normal;font-variant-caps:normal;font-variant-numeric:normal;font-variant-east-asian:normal;letter-spacing:0px;word-spacing:0px;fill:#00ff00;stroke-width:0.93743"
               class="label"
               transform="scale(1.0241246,0.97644369)"><tspan
                 id="tspan16"
                 x="571.03418"
                 y="305.34787"
                 style="stroke-width:0.93743">\  |</tspan></text>
          </g>
        </g>
      </g>
    </g>
  </g>
</svg>
