<?xml version="1.0" encoding="UTF-8" standalone="no"?>
<svg
   xmlns:dc="http://purl.org/dc/elements/1.1/"
   xmlns:cc="http://creativecommons.org/ns#"
   xmlns:rdf="http://www.w3.org/1999/02/22-rdf-syntax-ns#"
   xmlns:svg="http://www.w3.org/2000/svg"
   xmlns="http://www.w3.org/2000/svg"
   xmlns:xlink="http://www.w3.org/1999/xlink"
   id="svg3039"
   version="1.1"
   width="300"
   height="387.69022"
   viewBox="0 0 281.24999 363.45958">
  <defs
     id="defs3043">
    <linearGradient
       id="linearGradient1109">
      <stop
         style="stop-color:#646464;stop-opacity:1"
         offset="0"
         id="stop1105" />
      <stop
         style="stop-color:#4e4e4e;stop-opacity:0"
         offset="1"
         id="stop1107" />
    </linearGradient>
    <linearGradient
       xlink:href="#linearGradient1109"
       id="linearGradient1111"
       x1="73.357414"
       y1="91.768669"
       x2="73.357414"
       y2="175.34137"
       gradientUnits="userSpaceOnUse" />
    <linearGradient
       xlink:href="#linearGradient1109"
       id="linearGradient1140"
       gradientUnits="userSpaceOnUse"
       x1="73.357414"
       y1="91.768669"
       x2="73.357414"
       y2="175.34137"
       gradientTransform="matrix(-1,0,0,1,277.70045,5.0093141)" />
    <linearGradient
       xlink:href="#linearGradient1109"
       id="linearGradient1145"
       gradientUnits="userSpaceOnUse"
       gradientTransform="matrix(-1,0,0,1,232.62367,5.0716527)"
       x1="73.357414"
       y1="91.768669"
       x2="73.357414"
       y2="175.34137" />
    <linearGradient
       xlink:href="#linearGradient1109"
       id="linearGradient1147"
       gradientUnits="userSpaceOnUse"
       x1="73.357414"
       y1="91.768669"
       x2="73.357414"
       y2="175.34137"
       gradientTransform="translate(-45.113785,-0.01132338)" />
  </defs>
  <path
     style="fill:#00ff00;fill-opacity:1;fill-rule:evenodd;stroke:#646464;stroke-width:1.17484px;stroke-linecap:butt;stroke-linejoin:miter;stroke-opacity:1"
     d="M 262.70326,82.013492 V 114.44926 H 209.10781 V 82.201152 Z"
     id="x7-y0"
     class="LED" />
  <path
     style="fill:#00ff00;fill-opacity:1;fill-rule:evenodd;stroke:#646464;stroke-width:1.17484px;stroke-linecap:butt;stroke-linejoin:miter;stroke-opacity:1"
     d="m 209.10781,114.44926 h 53.59545 l -8.83477,32.9718 h -45.42758 z"
     id="x8-y0"
     class="LED" />
  <path
     style="fill:#00ff00;fill-opacity:1;fill-rule:evenodd;stroke:#646464;stroke-width:1.17484px;stroke-linecap:butt;stroke-linejoin:miter;stroke-opacity:1"
     d="m 208.44091,147.42106 h 45.42758 v 32.50974 h -45.74112 z"
     id="x9-y0"
     class="LED" />
  <path
     style="fill:#00ff00;fill-opacity:1;fill-rule:evenodd;stroke:#646464;stroke-width:1.17484px;stroke-linecap:butt;stroke-linejoin:miter;stroke-opacity:1"
     d="m 208.12737,179.9308 h 45.74112 l 8.74526,32.63772 h -55.14898 z"
     id="x10-y0"
     class="LED" />
  <path
     style="fill:#00ff00;fill-opacity:1;fill-rule:evenodd;stroke:#646464;stroke-width:1.17484px;stroke-linecap:butt;stroke-linejoin:miter;stroke-opacity:1"
     d="m 262.61376,212.56852 v 32.44174 h -54.50569 v -32.96159 z"
     id="x11-y0"
     class="LED" />
  <path
     style="fill:#00ff00;fill-opacity:1;fill-rule:evenodd;stroke:#646464;stroke-width:1.17484px;stroke-linecap:butt;stroke-linejoin:miter;stroke-opacity:1"
     d="m 262.61377,245.01026 -8.95111,33.40599 h -46.5092 V 244.6928 Z"
     id="x12-y0"
     class="LED" />
  <path
     style="fill:#00ff00;fill-opacity:1;fill-rule:evenodd;stroke:#646464;stroke-width:1.17484px;stroke-linecap:butt;stroke-linejoin:miter;stroke-opacity:1"
     d="m 253.66266,278.41625 -8.67218,32.36499 H 200.49269 V 277.8935 Z"
     id="x13-y0"
     class="LED" />
  <path
     style="fill:#00ff00;fill-opacity:1;fill-rule:evenodd;stroke:#646464;stroke-width:1.40624998;stroke-linecap:round;stroke-linejoin:round;stroke-opacity:1;stroke-miterlimit:4;stroke-dasharray:none"
     d="M 83.57396,83.327325 H 10.592447 l 8.652381,32.291185 h 73.682769 z"
     id="x0-y0"
     class="LED" />
  <path
     style="fill:#00ff00;fill-opacity:1;fill-rule:evenodd;stroke:#646464;stroke-width:1.40624998;stroke-linecap:round;stroke-linejoin:round;stroke-opacity:1;stroke-miterlimit:4;stroke-dasharray:none"
     d="m 19.244828,115.61851 8.733976,32.59563 h 66.093311 l -8.727243,-32.57051 z"
     id="x1-y0"
     class="LED" />
  <path
     style="fill:#00ff00;fill-opacity:1;fill-rule:evenodd;stroke:#646464;stroke-width:1.40624998;stroke-linecap:round;stroke-linejoin:round;stroke-opacity:1;stroke-miterlimit:4;stroke-dasharray:none"
     d="m 27.978804,148.21414 v 32.26087 h 80.331326 v -32.33628 z"
     id="x2-y0"
     class="LED" />
  <path
     style="fill:#00ff00;fill-opacity:1;fill-rule:evenodd;stroke:#646464;stroke-width:1.40624998;stroke-linecap:round;stroke-linejoin:round;stroke-opacity:1;stroke-miterlimit:4;stroke-dasharray:none"
     d="m 27.978804,180.47502 v 32.75645 h 80.062246 v -32.84646 z"
     id="x3-y0"
     class="LED" />
  <path
     style="fill:#00ff00;fill-opacity:1;fill-rule:evenodd;stroke:#646464;stroke-width:1.40624998;stroke-linecap:round;stroke-linejoin:round;stroke-opacity:1;stroke-miterlimit:4;stroke-dasharray:none"
     d="m 27.978804,213.23147 -8.64932,32.27972 h 81.032676 l 8.68694,-32.42011 z"
     id="x4-y0"
     class="LED" />
  <path
     style="fill:#00ff00;fill-opacity:1;fill-rule:evenodd;stroke:#646464;stroke-width:1.40624998;stroke-linecap:round;stroke-linejoin:round;stroke-opacity:1;stroke-miterlimit:4;stroke-dasharray:none"
     d="m 19.329484,245.51119 v 32.73029 h 84.590406 v -33.09667 z"
     id="x5-y0"
     class="LED" />
  <path
     style="fill:#00ff00;fill-opacity:1;fill-rule:evenodd;stroke:#646464;stroke-width:1.10343748;stroke-linecap:round;stroke-linejoin:round;stroke-opacity:1;stroke-miterlimit:4;stroke-dasharray:none"
     d="m 19.329484,278.24149 8.727514,32.57152 h 85.832362 l -8.75383,-32.66971 z"
     id="x6-y0"
     class="LED" />
  <g
     id="base"
     transform="translate(45.13034)">
    <path
       style="fill:#0f0f0f;fill-opacity:1;stroke:#646464;stroke-width:0.9375px;stroke-linecap:butt;stroke-linejoin:miter;stroke-opacity:1"
       d="m 185.81656,240.95917 -0.24416,-29.91451 c -0.89644,-28.69992 -8.04789,-55.59282 -8.52731,-86.09974 -0.52046,-10.77926 1.75156,-46.62945 0.44105,-67.073359 l -12.6885,-12.515899 -55.61431,-24.095938 -3.03897,1.455209 0.0952,12.894287 c -1.82439,-0.856479 -3.61368,-1.392354 -5.56092,-1.536255 -9.337203,-0.01563 -4.149927,0 -16.256031,0 -1.947235,0.143899 -3.7347,0.679769 -5.559075,1.536255 L 78.958766,22.714933 78.004785,21.676725 22.668483,40.351652 9.0069799,53.423552 C 7.6964768,73.867466 7.4664893,94.70561 9.202908,115.64096 l -4.030153,1.17919 4.030153,44.62281 4.32495,0.98328 -3.931275,3.14391 0.1959188,48.94776 2.2613532,1.7688 c -3.5711251,28.60182 -4.5864094,74.60129 9.534309,92.09655 17.331459,21.39403 38.889093,34.13805 70.963396,33.81042 44.16733,0.0496 85.18502,-36.32444 93.265,-101.23451 z"
       id="unit" />
    <path
       id="scroll-inlay"
       style="fill:#000000;fill-opacity:1;fill-rule:evenodd;stroke-width:0.148659;stroke-linecap:round;paint-order:markers fill stroke"
       d="m 93.717441,33.841266 c 5.506511,0 8.785299,-0.0017 12.522119,1.767954 l 1.4548,65.25567 c 0.15435,6.92356 -5.57522,12.50049 -12.500489,12.50049 h -3.829842 c -6.925271,0 -12.500487,-5.57521 -12.500488,-12.50049 l -7e-6,-65.25567 c 4.256874,-1.834043 9.768057,-1.767954 14.853907,-1.767954 z" />
    <path
       style="fill:none;fill-rule:evenodd;stroke:#000000;stroke-width:4.6875;stroke-linecap:butt;stroke-linejoin:miter;stroke-miterlimit:4;stroke-dasharray:none;stroke-opacity:1"
       d="m 93.27895,110.22531 v 75.79734"
       id="dpi-button-line" />
    <path
       id="dpi-down"
       style="fill:#000000;fill-opacity:1;fill-rule:evenodd;stroke:#000000;stroke-width:4.43294;stroke-linecap:round;stroke-miterlimit:4;stroke-dasharray:none;stroke-opacity:1;paint-order:markers fill stroke"
       d="m 99.294397,148.58295 v 21.0637 c 0,1.23177 -0.991642,2.22341 -2.223412,2.22341 h -7.584076 c -1.231771,0 -2.223413,-0.99164 -2.223413,-2.22341 v -21.0637 c 4.238921,0 7.139692,0 12.030901,0 z" />
    <path
       id="dpi-up"
       style="fill:#000000;fill-opacity:1;fill-rule:evenodd;stroke:#000000;stroke-width:4.43294;stroke-linecap:round;stroke-miterlimit:4;stroke-dasharray:none;stroke-opacity:1;paint-order:markers fill stroke"
       d="m 89.486909,120.73399 h 7.584072 c 1.231771,0 2.223413,0.99164 2.223413,2.22341 v 19.92504 c -4.061617,0 -6.536845,0 -12.030898,0 V 122.9574 c 0,-1.23177 0.991642,-2.22341 2.223413,-2.22341 z" />
    <path
       style="fill:none;fill-rule:evenodd;stroke:url(#linearGradient1147);stroke-width:0.9375px;stroke-linecap:butt;stroke-linejoin:miter;stroke-opacity:1"
       d="m 22.330885,40.689109 c 1.895089,1.967182 0.07318,38.534104 2.477844,57.770365 3.185539,25.482926 10.781666,77.553886 10.781666,77.553886"
       id="btn-left" />
    <path
       style="fill:none;fill-rule:evenodd;stroke:url(#linearGradient1145);stroke-width:0.9375px;stroke-linecap:butt;stroke-linejoin:miter;stroke-opacity:1"
       d="m 165.21791,45.784963 c -1.98328,2.01211 -0.11208,38.521226 -2.51675,57.757477 -3.18554,25.48293 -10.78167,77.55389 -10.78167,77.55389"
       id="btn-right" />
  </g>
  <path
     id="x15-y0"
     style="fill:#00ff00;fill-opacity:1;fill-rule:evenodd;stroke:#646464;stroke-width:0.9375;stroke-linecap:round;stroke-miterlimit:4;stroke-dasharray:none;stroke-opacity:1;paint-order:markers fill stroke"
     d="m 136.42856,60.650212 c -6.92526,0 -12.65313,5.577051 -12.49878,12.500611 0.0158,0.710167 0.0155,1.264797 0.0275,1.935425 -0.0222,6.935954 -0.11624,14.133967 0.0147,22.836917 -0.003,0.953934 -0.0147,1.577475 -0.0147,2.614745 h 0.0696 c 0.34538,6.61187 5.76683,11.83594 12.46765,11.83594 h 3.83057 c 6.67483,0 12.22145,-5.18503 12.4768,-11.75904 h 0.0256 c 0,-8.701219 0.0847,-14.95075 -0.009,-23.043822 0.0118,-1.572728 0.0238,-3.126803 0.0238,-4.826659 h -0.10254 c -0.21513,-6.733933 -5.69258,-12.094117 -12.48059,-12.094117 z"
     class="LED" />
  <metadata
     id="metadata1255">
    <rdf:RDF>
      <cc:Work
         rdf:about="">
        <dc:title></dc:title>
      </cc:Work>
    </rdf:RDF>
  </metadata>
  <g
     id="x14-y0"
     style="stroke-width:1.40625;stroke-miterlimit:4;stroke-dasharray:none"
     transform="matrix(0.74743509,0,0,0.74743509,69.248939,62.938304)"
     class="LED">
    <rect
       style="fill:none;fill-opacity:1;fill-rule:evenodd;stroke:#646464;stroke-width:1.40625;stroke-linecap:round;stroke-miterlimit:4;stroke-dasharray:none;stroke-opacity:1;paint-order:markers fill stroke"
       id="logo-outline"
       width="71.960533"
       height="72.373177"
       x="59.514393"
       y="213.00996"
       ry="2.4054468" />
    <path
       style="color:#000000;font-style:normal;font-variant:normal;font-weight:normal;font-stretch:normal;font-size:medium;line-height:normal;font-family:sans-serif;font-variant-ligatures:normal;font-variant-position:normal;font-variant-caps:normal;font-variant-numeric:normal;font-variant-alternates:normal;font-feature-settings:normal;text-indent:0;text-align:start;text-decoration:none;text-decoration-line:none;text-decoration-style:solid;text-decoration-color:#000000;letter-spacing:normal;word-spacing:normal;text-transform:none;writing-mode:lr-tb;direction:ltr;text-orientation:mixed;dominant-baseline:auto;baseline-shift:baseline;text-anchor:start;white-space:normal;shape-padding:0;clip-rule:nonzero;display:inline;overflow:visible;visibility:visible;opacity:1;isolation:auto;mix-blend-mode:normal;color-interpolation:sRGB;color-interpolation-filters:linearRGB;solid-color:#000000;solid-opacity:1;vector-effect:none;fill:none;fill-opacity:1;fill-rule:evenodd;stroke:#646464;stroke-width:1.25888;stroke-linecap:round;stroke-linejoin:miter;stroke-miterlimit:4;stroke-dasharray:none;stroke-dashoffset:0;stroke-opacity:1;color-rendering:auto;image-rendering:auto;shape-rendering:auto;text-rendering:auto;enable-background:accumulate"
       d="m 118.84383,221.44273 -2.10251,0.9835 a 1.2077723,1.2077723 0 0 0 -0.86988,-0.35405 1.2077723,1.2077723 0 0 0 -0.65129,0.20545 c -0.16226,0.10474 -0.33564,0.19314 -0.5158,0.26227 -0.43997,0.1692 -1.14678,0.24607 -1.9845,0.62072 -0.42326,0.18934 -0.86988,0.46526 -1.24141,0.90042 -0.3812,0.44656 -0.65718,1.03187 -0.64692,1.72223 0.0112,0.7339 0.31591,1.24786 0.51143,1.59547 0.10899,0.19381 0.17725,0.32315 0.21418,0.4109 -0.0582,0.002 -0.1551,-0.0134 -0.26228,-0.0613 -0.11302,-0.0497 -0.24291,-0.1363 -0.38465,-0.25787 -0.28579,-0.24535 -0.60133,-0.64667 -1.03159,-1.1103 -0.43646,-0.47028 -1.01387,-1.01079 -1.86211,-1.27199 -0.91114,-0.28055 -1.85118,-0.13181 -2.63142,0.30599 -0.76888,0.43136 -1.32008,1.1054 -1.64793,1.85774 -0.37521,0.86097 -0.4419,1.7724 -0.32785,2.61831 0.11325,0.83919 0.39991,1.60082 0.73436,2.28174 1.20218,2.44768 3.17975,4.20686 4.94376,5.85297 1.7569,1.63943 3.39106,3.28612 4.17882,5.22351 0.3637,0.89445 0.50985,1.82062 0.3191,2.57899 -0.18061,0.71774 -0.70901,1.39964 -1.3769,1.78778 -0.67448,0.39197 -1.5433,0.53245 -2.34295,0.38468 -0.76735,-0.1419 -1.55155,-0.54698 -2.3036,-1.08845 -0.75594,-0.54426 -1.49581,-1.22946 -2.32981,-1.9189 -0.83545,-0.69068 -1.77677,-1.39259 -2.91993,-1.85338 -1.15724,-0.46645 -2.515697,-0.66669 -3.842237,-0.25789 -0.84018,0.2589 -1.59086,0.74383 -2.17245,1.40313 -0.14078,0.15957 -0.23215,0.35319 -0.3497,0.52892 -0.22044,-0.18486 -0.43775,-0.38036 -0.60757,-0.61197 -0.45251,-0.61711 -0.72949,-1.42645 -0.84802,-2.29485 -0.11928,-0.87444 -0.0875,-1.82055 -0.0134,-2.81501 0.0743,-0.99503 0.19023,-2.04692 0.18799,-3.16034 -0.002,-1.11588 -0.12466,-2.30092 -0.56389,-3.44882 -0.40786,-1.06602 -1.09601,-2.09654 -2.15061,-2.78881 -0.52822,-0.34674 -1.13672,-0.59603 -1.79217,-0.695 -0.32908,-0.0497 -0.66525,-0.0627 -1.00098,-0.0307 -0.33573,0.0322 -0.67085,0.109 -0.99664,0.23168 -0.71032,0.26763 -1.2784,0.72 -1.72223,1.21955 -0.44033,0.49566 -0.75294,1.02793 -1.01409,1.53428 -1.21784,2.36112 -1.63631,4.92422 -1.9845,7.32604 -0.34764,2.39796 -0.65246,4.7153 -1.49057,6.74029 -0.21217,0.5128 -0.44112,0.94402 -0.70812,1.25016 -0.25632,0.29388 -0.57499,0.48205 -0.82178,0.52017 -0.19448,0.03 -0.43288,-0.026 -0.5901,-0.13115 -0.15576,-0.10429 -0.28893,-0.30084 -0.32785,-0.47646 -0.0477,-0.21529 -10e-4,-0.58419 0.14861,-1.04034 0.15286,-0.4656 0.41576,-1.03941 0.55076,-1.78781 0.0678,-0.3761 0.0994,-0.79705 0.0349,-1.24141 -0.0649,-0.44881 -0.22566,-0.91096 -0.53328,-1.32882 -0.31279,-0.42487 -0.75587,-0.77389 -1.32446,-0.93543 -0.58216,-0.16539 -1.22017,-0.1128 -1.78781,0.23604 -0.41108,0.2527 -0.66603,0.59098 -0.83926,0.89611 -0.16986,0.29924 -0.25596,0.56112 -0.32782,0.7562 -0.0445,0.12108 -0.0741,0.17793 -0.10049,0.23605 -0.0441,-0.0179 -0.0848,-0.0242 -0.16606,-0.0875 -0.2422,-0.18844 -0.55687,-0.66024 -1.15836,-1.19331 -0.24851,-0.22023 -0.52101,-0.41455 -0.81303,-0.57262 a 1.2077723,1.2077723 0 0 0 -1.32008,0.0917 l -0.21418,-0.18351 -1.78341,-0.58576 -0.004,-0.004 -0.004,0.009 v 0.004 l 1.59546,1.34194 a 1.2077723,1.2077723 0 0 0 0.58137,1.45121 c 0.12914,0.0698 0.2529,0.15621 0.36281,0.25352 0.26742,0.23701 0.60228,0.76928 1.27637,1.29387 0.34233,0.26639 0.77378,0.51224 1.32008,0.60322 0.56651,0.0942 1.20202,0.009 1.75284,-0.40216 0.32351,-0.2413 0.52404,-0.52546 0.66441,-0.78243 0.13831,-0.2533 0.21485,-0.47388 0.27539,-0.6382 0.0468,-0.12712 0.0727,-0.18441 0.10496,-0.25789 0.0201,0.045 0.0425,0.0763 0.0524,0.14436 0.0179,0.11928 0.0112,0.27892 -0.0224,0.46334 -0.0671,0.37272 -0.26514,0.85199 -0.4677,1.4687 -0.20568,0.62618 -0.40856,1.41972 -0.20971,2.31672 0.17949,0.81034 0.65832,1.501 1.34195,1.95827 0.68217,0.45631 1.49997,0.63551 2.3036,0.51143 0.96338,-0.14882 1.72444,-0.69114 2.27298,-1.3201 0.53787,-0.61668 0.86298,-1.2959 1.11901,-1.91456 1.00318,-2.42385 1.30477,-4.95025 1.64793,-7.3173 0.34258,-2.3632 0.75041,-4.64305 1.73971,-6.56108 0.21127,-0.40941 0.42914,-0.76568 0.67315,-1.04033 0.24057,-0.27076 0.51544,-0.46822 0.76932,-0.56387 0.23043,-0.0868 0.51305,-0.11571 0.78683,-0.0743 0.27648,0.0419 0.5621,0.15308 0.82176,0.32346 0.52123,0.34217 0.95821,0.94028 1.22393,1.63481 0.29316,0.76626 0.40463,1.65849 0.40651,2.59211 0.002,0.93607 -0.10518,1.92797 -0.18352,2.97673 -0.0783,1.04934 -0.13159,2.16148 0.0262,3.31772 0.15868,1.16227 0.53883,2.36508 1.29823,3.40074 0.30876,0.42109 0.67763,0.79184 1.08404,1.11902 l 0.8786,0.92231 a 1.2077723,1.2077723 0 0 0 0.92668,0.38465 1.2077723,1.2077723 0 0 0 0.0524,0 1.2077723,1.2077723 0 0 0 0.84362,-0.3191 c 0.27237,0.2621 0.49678,0.58419 0.61633,0.9398 0.13585,0.40418 0.16047,0.86506 0.0656,1.28075 -0.15129,0.66212 -0.63097,1.32641 -1.27637,1.83151 -0.65738,0.51448 -1.50008,0.89832 -2.42161,1.24141 -0.9233,0.34374 -1.94118,0.65257 -2.97676,1.11902 -1.03999,0.46842 -2.10209,1.10603 -2.93741,2.08503 -0.8917,1.04505 -1.42461,2.3873 -1.42063,3.79415 0.004,1.41443 0.55678,2.80445 1.59547,3.81163 1.06948,1.03706 2.44786,1.49525 3.74171,1.67415 2.72889,0.37736 5.3171,-0.37484 7.65387,-1.08841 2.327437,-0.71071 4.560197,-1.39651 6.674737,-1.25451 0.58374,0.0392 1.12268,0.14346 1.58235,0.33219 0.4534,0.18621 0.83933,0.47019 1.07967,0.79555 0.20321,0.27517 0.3182,0.60626 0.31473,0.88736 -0.002,0.26809 -0.1307,0.54816 -0.28412,0.69063 -0.15576,0.14458 -0.47979,0.29135 -0.9267,0.3934 -0.45577,0.10407 -1.05283,0.17121 -1.73534,0.4109 -0.34266,0.12041 -0.70534,0.28954 -1.04908,0.54201 -0.34664,0.25462 -0.66773,0.58674 -0.89608,1.02287 -0.2317,0.4425 -0.35345,0.9617 -0.27975,1.51677 0.0752,0.56674 0.34776,1.11036 0.84364,1.4993 0.39643,0.31098 0.81818,0.42935 1.17584,0.48521 0.35074,0.0548 0.63146,0.0501 0.83926,0.0524 0.32915,0.004 0.49485,0.051 0.48957,0.0481 -0.0157,-0.009 0.0412,0.0367 0.0698,0.11795 0.0338,0.0953 0.0521,0.25914 0.0307,0.46772 -0.0441,0.42668 -0.30064,1.04129 -0.43711,1.90582 -0.0559,0.35477 -0.0747,0.71599 -0.0568,1.0753 a 1.2077723,1.2077723 0 0 0 0.71248,1.05344 l 0.0524,0.30162 0.99661,1.59547 0.0134,-0.004 -0.004,-0.004 -0.32347,-1.80965 a 1.2077723,1.2077723 0 0 0 0.96603,-1.25453 c -0.009,-0.19247 3.8e-4,-0.38601 0.0307,-0.57698 0.0734,-0.46562 0.36018,-1.11978 0.45461,-2.03258 0.0477,-0.46099 0.0293,-0.98634 -0.16181,-1.52553 -0.19605,-0.55324 -0.56428,-1.08443 -1.16709,-1.42063 -0.64108,-0.35752 -1.23604,-0.34956 -1.63481,-0.35405 -0.22291,-0.002 -0.36932,-0.004 -0.46334,-0.0179 0.0277,-0.0512 0.0848,-0.12734 0.17927,-0.19672 0.0996,-0.0732 0.24338,-0.14346 0.41963,-0.20545 0.35535,-0.12488 0.85645,-0.19583 1.47309,-0.33658 0.62553,-0.14279 1.38227,-0.37516 2.03257,-0.97914 0.69856,-0.6488 1.04241,-1.5358 1.05344,-2.43036 0.0112,-0.88156 -0.29481,-1.69595 -0.78243,-2.35606 -0.55801,-0.7554 -1.31728,-1.2669 -2.10688,-1.59108 -0.78333,-0.3216 -1.58166,-0.45622 -2.33856,-0.50707 -2.72086,-0.18262 -5.23703,0.65042 -7.544607,1.35506 -2.29823,0.7018 -4.54183,1.29186 -6.61355,1.00537 -0.95644,-0.13227 -1.82961,-0.46972 -2.391,-1.0141 -0.53133,-0.51522 -0.85893,-1.31256 -0.86112,-2.08503 -0.002,-0.78009 0.31144,-1.60196 0.83926,-2.22055 0.50651,-0.59362 1.24886,-1.07067 2.09378,-1.45123 0.84931,-0.38252 1.81404,-0.68027 2.82813,-1.0578 1.01584,-0.37821 2.09356,-0.84461 3.06417,-1.60422 0.98259,-0.76898 1.83263,-1.8421 2.141857,-3.19532 0.19583,-0.85707 0.15331,-1.75437 -0.12667,-2.58772 -0.280177,-0.83333 -0.786077,-1.57282 -1.459947,-2.13747 a 1.2077723,1.2077723 0 0 0 -0.21866,-0.14435 c 0.2339,-0.18755 0.49158,-0.35019 0.77369,-0.43711 0.64907,-0.20008 1.464777,-0.11414 2.224907,0.19225 0.77424,0.31207 1.52823,0.84216 2.28612,1.4687 0.75932,0.62772 1.53484,1.35584 2.45657,2.01946 0.92567,0.66646 2.00849,1.26977 3.27399,1.50369 1.35089,0.24969 2.77887,0.038 3.99523,-0.66879 1.22295,-0.71069 2.15178,-1.88395 2.50467,-3.2871 0.36336,-1.44472 0.0723,-2.86833 -0.41963,-4.07829 -1.03764,-2.55196 -2.98258,-4.41335 -4.76892,-6.08025 -1.77921,-1.66026 -3.48931,-3.25136 -4.4236,-5.1536 -0.25793,-0.52513 -0.44064,-1.04618 -0.50704,-1.53864 -0.0656,-0.48572 -0.0134,-0.96237 0.1486,-1.33319 0.13674,-0.31359 0.37115,-0.57495 0.61633,-0.7125 0.23383,-0.13115 0.53863,-0.16651 0.73873,-0.10496 0.20299,0.0624 0.49245,0.2716 0.8043,0.6076 0.31802,0.34269 0.67501,0.82706 1.22391,1.29823 0.27561,0.23658 0.59737,0.46674 0.98789,0.63818 0.3938,0.173 0.84564,0.28261 1.33755,0.26227 0.49902,-0.0201 1.0117,-0.17434 1.45562,-0.5158 0.45317,-0.34853 0.7853,-0.85351 0.87421,-1.47743 0.0712,-0.49879 -0.0356,-0.9256 -0.16606,-1.26328 -0.12779,-0.33102 -0.27404,-0.57072 -0.37592,-0.75184 -0.16136,-0.28687 -0.2012,-0.45186 -0.20097,-0.44584 2.4e-4,0.0179 0.009,-0.0526 0.0656,-0.11794 0.0656,-0.077 0.19762,-0.17658 0.38901,-0.26228 0.39159,-0.17501 1.05391,-0.2629 1.87086,-0.57698 0.33557,-0.12891 0.65521,-0.29025 0.95729,-0.48518 a 1.2077723,1.2077723 0 0 0 0.5464,-1.25453 l 0.48956,-0.22291 1.28512,-1.38128 z m -0.0179,0.0179 -1.26328,1.35942 -0.48957,0.22291 a 1.2077723,1.2077723 0 0 0 -0.32346,-0.60758 z m -48.939357,18.97515 1.76157,0.58133 0.20971,0.18352 a 1.2077723,1.2077723 0 0 0 -0.39779,0.5595 z m 38.094527,36.01824 a 1.2077723,1.2077723 0 0 0 0.7125,0.0786 l 0.31909,1.7878 -0.9835,-1.5736 z"
       id="logo"
       nostroke="true" />
  </g>
</svg>
