<?xml version="1.0" encoding="UTF-8" standalone="no"?>
<svg
   xmlns:dc="http://purl.org/dc/elements/1.1/"
   xmlns:cc="http://creativecommons.org/ns#"
   xmlns:rdf="http://www.w3.org/1999/02/22-rdf-syntax-ns#"
   xmlns:svg="http://www.w3.org/2000/svg"
   xmlns="http://www.w3.org/2000/svg"
   xmlns:xlink="http://www.w3.org/1999/xlink"
   xmlns:sodipodi="http://sodipodi.sourceforge.net/DTD/sodipodi-0.dtd"
   xmlns:inkscape="http://www.inkscape.org/namespaces/inkscape"
   id="svg3039"
   version="1.1"
   inkscape:version="1.0.2 (e86c870879, 2021-01-15)"
   width="1021.5667"
   height="392.36667"
   sodipodi:docname="mambaelite.svg"
   viewBox="0 0 957.71875 367.84375">
  <metadata
     id="metadata3045">
    <rdf:RDF>
      <cc:Work
         rdf:about="">
        <dc:format>image/svg+xml</dc:format>
        <dc:type
           rdf:resource="http://purl.org/dc/dcmitype/StillImage" />
        <dc:title />
      </cc:Work>
    </rdf:RDF>
  </metadata>
  <defs
     id="defs3043">
    <linearGradient
       id="linearGradient5169">
      <stop
         style="stop-color:#141414;stop-opacity:1;"
         offset="0"
         id="stop5171" />
      <stop
         style="stop-color:#1d1d1d;stop-opacity:1;"
         offset="1"
         id="stop5173" />
    </linearGradient>
    <filter
       id="filter4377"
       inkscape:label="Glow"
       inkscape:menu="Shadows and Glows"
       inkscape:menu-tooltip="Glow of object's own color at the edges"
       style="color-interpolation-filters:sRGB">
      <feGaussianBlur
         id="feGaussianBlur4379"
         stdDeviation="0"
         result="result91" />
      <feComposite
         id="feComposite4381"
         in2="result91"
         in="SourceGraphic"
         operator="over" />
    </filter>
    <filter
       id="filter4383"
       inkscape:label="Glow"
       inkscape:menu="Shadows and Glows"
       inkscape:menu-tooltip="Glow of object's own color at the edges"
       style="color-interpolation-filters:sRGB">
      <feGaussianBlur
         id="feGaussianBlur4385"
         stdDeviation="5"
         result="result91" />
      <feComposite
         id="feComposite4387"
         in2="result91"
         in="SourceGraphic"
         operator="over" />
    </filter>
    <filter
       id="filter4389"
       inkscape:label="Glow"
       inkscape:menu="Shadows and Glows"
       inkscape:menu-tooltip="Glow of object's own color at the edges"
       style="color-interpolation-filters:sRGB">
      <feGaussianBlur
         id="feGaussianBlur4391"
         stdDeviation="5"
         result="result91" />
      <feComposite
         id="feComposite4393"
         in2="result91"
         in="SourceGraphic"
         operator="over" />
    </filter>
    <filter
       id="filter4395"
       inkscape:label="Glow"
       inkscape:menu="Shadows and Glows"
       inkscape:menu-tooltip="Glow of object's own color at the edges"
       style="color-interpolation-filters:sRGB">
      <feGaussianBlur
         id="feGaussianBlur4397"
         stdDeviation="5"
         result="result91" />
      <feComposite
         id="feComposite4399"
         in2="result91"
         in="SourceGraphic"
         operator="over" />
    </filter>
    <filter
       id="filter4401"
       inkscape:label="Glow"
       inkscape:menu="Shadows and Glows"
       inkscape:menu-tooltip="Glow of object's own color at the edges"
       style="color-interpolation-filters:sRGB">
      <feGaussianBlur
         id="feGaussianBlur4403"
         stdDeviation="5"
         result="result91" />
      <feComposite
         id="feComposite4405"
         in2="result91"
         in="SourceGraphic"
         operator="over" />
    </filter>
    <radialGradient
       r="165.38348"
       fy="352.44836"
       fx="183.53534"
       cy="352.44836"
       cx="183.53534"
       gradientTransform="matrix(1,0,0,0.283537,0,252.5164)"
       gradientUnits="userSpaceOnUse"
       id="r1"
       xlink:href="#l1" />
    <radialGradient
       id="radialGradient919"
       r="165.38348"
       fy="352.44836"
       fx="183.53534"
       cy="352.44836"
       cx="183.53534"
       gradientTransform="matrix(1,0,0,0.283537,0,252.5164)"
       gradientUnits="userSpaceOnUse"
       xlink:href="#l1" />
    <radialGradient
       id="radialGradient918"
       r="165.38348"
       fy="352.44836"
       fx="183.53534"
       cy="352.44836"
       cx="183.53534"
       gradientTransform="matrix(1,0,0,0.283537,0,252.5164)"
       gradientUnits="userSpaceOnUse"
       xlink:href="#l1" />
    <radialGradient
       id="radialGradient917"
       gradientUnits="userSpaceOnUse"
       gradientTransform="matrix(1,0,0,0.283537,0,252.5164)"
       r="165.38348"
       fy="352.44836"
       fx="183.53534"
       cy="352.44836"
       cx="183.53534"
       xlink:href="#l1" />
    <marker
       id="marker915"
       orient="auto"
       markerHeight="3"
       markerWidth="4"
       markerUnits="strokeWidth"
       refY="5"
       refX="10"
       viewBox="0 0 10 10">
      <path
         id="path916"
         d="M 10,0 0,5 10,10 Z"
         inkscape:connector-curvature="0" />
    </marker>
    <marker
       id="marker913"
       orient="auto"
       markerHeight="3"
       markerWidth="4"
       markerUnits="strokeWidth"
       refY="5"
       refX="0"
       viewBox="0 0 10 10">
      <path
         id="path914"
         d="M 0,0 10,5 0,10 Z"
         inkscape:connector-curvature="0" />
    </marker>
    <linearGradient
       id="l1">
      <stop
         id="stop911"
         offset="0"
         style="stop-color:#000000;stop-opacity:0.50196081" />
      <stop
         id="stop912"
         offset="1"
         style="stop-color:#000000;stop-opacity:0" />
    </linearGradient>
    <linearGradient
       y2="923.4082"
       x2="221.89511"
       y1="923.4082"
       x1="47.921783"
       gradientUnits="userSpaceOnUse"
       id="linearGradient4269"
       xlink:href="#linearGradient4616"
       inkscape:collect="always" />
    <linearGradient
       y2="923.4082"
       x2="221.89511"
       y1="923.4082"
       x1="47.921783"
       gradientUnits="userSpaceOnUse"
       id="linearGradient4267"
       xlink:href="#linearGradient4616"
       inkscape:collect="always" />
    <linearGradient
       y2="923.4082"
       x2="221.89511"
       y1="923.4082"
       x1="47.921783"
       gradientUnits="userSpaceOnUse"
       id="linearGradient4255"
       xlink:href="#linearGradient4616"
       inkscape:collect="always" />
    <linearGradient
       y2="923.4082"
       x2="221.89511"
       y1="923.4082"
       x1="47.921783"
       gradientUnits="userSpaceOnUse"
       id="linearGradient4253"
       xlink:href="#linearGradient4616"
       inkscape:collect="always" />
    <linearGradient
       y2="923.4082"
       x2="221.89511"
       y1="923.4082"
       x1="47.921783"
       gradientUnits="userSpaceOnUse"
       id="linearGradient4249"
       xlink:href="#linearGradient4616"
       inkscape:collect="always" />
    <linearGradient
       y2="923.4082"
       x2="221.89511"
       y1="923.4082"
       x1="47.921783"
       gradientUnits="userSpaceOnUse"
       id="linearGradient4237"
       xlink:href="#linearGradient4616"
       inkscape:collect="always" />
    <linearGradient
       y2="923.4082"
       x2="221.89511"
       y1="923.4082"
       x1="47.921783"
       gradientUnits="userSpaceOnUse"
       id="linearGradient4235"
       xlink:href="#linearGradient4616"
       inkscape:collect="always" />
    <linearGradient
       gradientUnits="userSpaceOnUse"
       y2="923.4082"
       x2="221.89511"
       y1="923.4082"
       x1="47.921783"
       id="linearGradient4219"
       xlink:href="#linearGradient4616"
       inkscape:collect="always" />
    <inkscape:path-effect
       is_visible="true"
       id="path-effect4161-4-0"
       effect="spiro" />
    <inkscape:path-effect
       is_visible="true"
       id="path-effect4745-00"
       effect="spiro" />
    <inkscape:path-effect
       is_visible="true"
       id="path-effect4745-0"
       effect="spiro" />
    <inkscape:path-effect
       is_visible="true"
       id="path-effect4161-4-5"
       effect="spiro" />
    <inkscape:path-effect
       is_visible="true"
       id="path-effect4161-4"
       effect="spiro" />
    <inkscape:path-effect
       is_visible="true"
       id="path-effect4161"
       effect="spiro" />
    <inkscape:path-effect
       is_visible="true"
       id="path-effect4224"
       effect="spiro" />
    <marker
       inkscape:isstock="true"
       style="overflow:visible"
       id="Arrow1Lstart"
       refX="0"
       refY="0"
       orient="auto"
       inkscape:stockid="Arrow1Lstart">
      <path
         inkscape:connector-curvature="0"
         transform="matrix(0.8,0,0,0.8,10,0)"
         style="fill:#00ff00;fill-opacity:1;fill-rule:evenodd;stroke:#000000;stroke-width:1.00000003pt;stroke-opacity:1"
         d="M 0,0 5,-5 -12.5,0 5,5 Z"
         id="path4461" />
    </marker>
    <inkscape:path-effect
       is_visible="true"
       id="path-effect4745"
       effect="spiro" />
    <inkscape:path-effect
       is_visible="true"
       id="path-effect4835"
       effect="spiro" />
    <marker
       inkscape:isstock="true"
       style="overflow:visible"
       id="marker4481"
       refX="0"
       refY="0"
       orient="auto"
       inkscape:stockid="Arrow1Lstart">
      <path
         inkscape:connector-curvature="0"
         transform="matrix(0.8,0,0,0.8,10,0)"
         style="fill-rule:evenodd;stroke:#000000;stroke-width:1.00000003pt"
         d="M 0,0 5,-5 -12.5,0 5,5 Z"
         id="path4225" />
    </marker>
    <marker
       inkscape:isstock="true"
       style="overflow:visible"
       id="marker4496"
       refX="0"
       refY="0"
       orient="auto"
       inkscape:stockid="Arrow1Lstart">
      <path
         inkscape:connector-curvature="0"
         transform="matrix(0.8,0,0,0.8,10,0)"
         style="fill-rule:evenodd;stroke:#000000;stroke-width:1.00000003pt"
         d="M 0,0 5,-5 -12.5,0 5,5 Z"
         id="path4498" />
    </marker>
    <marker
       inkscape:isstock="true"
       style="overflow:visible"
       id="Arrow1Lend"
       refX="0"
       refY="0"
       orient="auto"
       inkscape:stockid="Arrow1Lend">
      <path
         inkscape:connector-curvature="0"
         transform="matrix(-0.8,0,0,-0.8,-10,0)"
         style="fill-rule:evenodd;stroke:#000000;stroke-width:1.00000003pt"
         d="M 0,0 5,-5 -12.5,0 5,5 Z"
         id="path4228" />
    </marker>
    <marker
       inkscape:isstock="true"
       style="overflow:visible"
       id="DotL"
       refX="0"
       refY="0"
       orient="auto"
       inkscape:stockid="DotL">
      <path
         inkscape:connector-curvature="0"
         transform="matrix(0.8,0,0,0.8,5.92,0.8)"
         style="fill-rule:evenodd;stroke:#000000;stroke-width:1.00000003pt"
         d="m -2.5,-1 c 0,2.76 -2.24,5 -5,5 -2.76,0 -5,-2.24 -5,-5 0,-2.76 2.24,-5 5,-5 2.76,0 5,2.24 5,5 z"
         id="path4286" />
    </marker>
    <marker
       inkscape:isstock="true"
       style="overflow:visible"
       id="marker4576"
       refX="0"
       refY="0"
       orient="auto"
       inkscape:stockid="DotL">
      <path
         inkscape:connector-curvature="0"
         transform="matrix(0.8,0,0,0.8,5.92,0.8)"
         style="fill-rule:evenodd;stroke:#000000;stroke-width:1.00000003pt"
         d="m -2.5,-1 c 0,2.76 -2.24,5 -5,5 -2.76,0 -5,-2.24 -5,-5 0,-2.76 2.24,-5 5,-5 2.76,0 5,2.24 5,5 z"
         id="path4578" />
    </marker>
    <linearGradient
       inkscape:collect="always"
       id="linearGradient4616">
      <stop
         style="stop-color:#ff0000;stop-opacity:1"
         offset="0"
         id="stop4618" />
      <stop
         id="stop4620"
         offset="0.25"
         style="stop-color:#ffff00;stop-opacity:1" />
      <stop
         id="stop4622"
         offset="0.5"
         style="stop-color:#00ffff;stop-opacity:1" />
      <stop
         style="stop-color:#0000ff;stop-opacity:1"
         offset="0.75"
         id="stop4624" />
      <stop
         style="stop-color:#ff00ff;stop-opacity:1"
         offset="1"
         id="stop4626" />
    </linearGradient>
    <linearGradient
       inkscape:collect="always"
       id="linearGradient4616-0">
      <stop
         style="stop-color:#ff0000;stop-opacity:1"
         offset="0"
         id="stop4618-5" />
      <stop
         id="stop4620-4"
         offset="0.25"
         style="stop-color:#ffff00;stop-opacity:1" />
      <stop
         id="stop4622-1"
         offset="0.5"
         style="stop-color:#00ffff;stop-opacity:1" />
      <stop
         style="stop-color:#0000ff;stop-opacity:1"
         offset="0.75"
         id="stop4624-0" />
      <stop
         style="stop-color:#ff00ff;stop-opacity:1"
         offset="1"
         id="stop4626-0" />
    </linearGradient>
    <inkscape:path-effect
       is_visible="true"
       id="path-effect4161-5"
       effect="spiro" />
    <inkscape:path-effect
       is_visible="true"
       id="path-effect4161-4-4"
       effect="spiro" />
    <inkscape:path-effect
       is_visible="true"
       id="path-effect4224-3"
       effect="spiro" />
    <linearGradient
       y2="923.4082"
       x2="221.89511"
       y1="923.4082"
       x1="47.921783"
       gradientUnits="userSpaceOnUse"
       id="linearGradient4308"
       xlink:href="#linearGradient4616-0"
       inkscape:collect="always" />
    <inkscape:path-effect
       is_visible="true"
       id="path-effect4745-7"
       effect="spiro" />
    <inkscape:path-effect
       is_visible="true"
       id="path-effect4745-0-2"
       effect="spiro" />
    <inkscape:path-effect
       is_visible="true"
       id="path-effect4745-00-8"
       effect="spiro" />
    <clipPath
       clipPathUnits="userSpaceOnUse"
       id="clipPath7578">
      <path
         inkscape:connector-curvature="0"
         style="color:#000000;font-style:normal;font-variant:normal;font-weight:normal;font-stretch:normal;font-size:medium;line-height:normal;font-family:'Bitstream Vera Sans';-inkscape-font-specification:'Bitstream Vera Sans';text-indent:0;text-align:start;text-decoration:none;text-decoration-line:none;letter-spacing:normal;word-spacing:normal;text-transform:none;writing-mode:lr-tb;direction:ltr;baseline-shift:baseline;text-anchor:start;display:inline;overflow:visible;visibility:visible;fill:#1a1a1a;fill-opacity:1;stroke:none;stroke-width:309;marker:none;enable-background:accumulate"
         d="m 413.49688,-63.885865 c -5.50873,-0.01007 -11.25467,0.221097 -17.24663,0.698832 -151.44034,12.19639 -111.27731,172.185293 -113.52498,225.760433 -2.76559,39.17912 -10.7093,70.05493 -37.65515,108.35728 -31.65734,37.64621 -76.22729,98.57709 -97.34124,162.00402 -9.96481,29.93478 -14.70669,60.44635 -10.32746,89.32352 -1.3718,1.22846 -2.67777,2.51556 -3.91957,3.84127 -9.29459,9.92281 -16.16224,21.94573 -23.81454,30.04053 -7.14928,7.13157 -17.335193,9.84418 -28.528671,13.86011 -11.197757,4.01773 -23.49204,9.94102 -30.954745,24.26137 0,0 0,0.005 -0.005,0.007 -0.01218,0.0238 -0.02547,0.0461 -0.03816,0.0703 v 0 c -6.755617,12.61799 -4.747277,27.1486 -2.684066,40.61093 2.063272,13.46217 4.152016,26.18346 1.379482,34.81434 -8.862262,24.22286 -9.993724,40.9783 -3.754978,53.13208 6.252047,12.17909 19.106775,17.55476 33.635407,20.58924 29.057351,6.06892 68.408611,4.56076 99.421961,20.99815 l 2.66563,-5.02968 -2.63804,5.04467 c 33.2013,17.35854 66.86088,23.52414 93.71531,17.39039 19.4699,-4.44703 35.27484,-16.04026 43.39171,-33.87948 21.00445,-0.10329 44.05315,-8.9992 80.97431,-11.03212 25.04734,-2.01755 56.33588,8.8946 92.32544,6.89621 0.94075,3.90462 2.30228,7.66025 4.166,11.22902 0.0191,0.0367 0.037,0.073 0.0565,0.10928 13.95143,27.89813 39.87419,40.65877 67.49992,38.47853 27.66216,-2.18303 57.07262,-18.49393 80.84647,-46.78632 l -4.35833,-3.6627 4.39165,3.62239 c 22.66004,-27.47602 60.27198,-38.86926 85.21172,-53.91132 12.46992,-7.52124 22.58833,-16.93894 23.37012,-30.61751 0.78137,-13.6717 -7.24514,-28.99303 -25.70186,-49.48067 0,0 -0.005,-0.005 -0.005,-0.005 -0.007,-0.009 -0.0144,-0.017 -0.0216,-0.0255 -6.06426,-6.85303 -8.95726,-19.55446 -12.06623,-33.08031 -3.10684,-13.51762 -6.57481,-28.09935 -17.67261,-37.54916 v 0 c -0.0222,-0.0196 -0.0446,-0.0371 -0.0668,-0.0565 0,0 0,0 0,0 -4.41677,-3.84869 -9.00656,-6.46081 -13.62872,-8.21572 15.42945,-45.75986 9.37563,-91.32556 -6.19944,-132.50113 -19.115,-50.53385 -52.48693,-94.56634 -77.97362,-124.68843 -28.5282,-35.98392 -56.43129,-70.14776 -55.88163,-120.60662 0.84975,-77.011218 8.47096,-219.826209 -127.04556,-220.011161 z m 18.34628,118.643307 c 7.68981,0 14.25742,2.25397 21.0038,7.15062 6.85352,4.97429 11.79099,11.20136 15.77046,19.89724 3.90574,8.47479 5.78493,16.765228 5.96918,26.603428 0,0.25793 0,0.47896 0.0737,0.7369 0.0737,10.096 -1.65808,18.68131 -5.49019,27.45088 -2.18659,5.00397 -4.69769,9.20386 -7.70326,12.83995 -1.02037,-0.48987 -2.08011,-0.96088 -3.17921,-1.41285 v 0 c -7.61844,-3.263 -13.4627,-5.33952 -18.33357,-7.02968 1.76566,-2.12238 3.23589,-4.63951 4.52871,-7.78619 1.95288,-4.75319 2.9109,-9.39599 3.09513,-14.92295 0,-0.22114 0.0737,-0.40539 0.0737,-0.66331 0.1105,-5.30584 -0.58955,-9.83807 -2.13711,-14.4808 -1.62126,-4.86374 -3.6847,-8.364138 -6.66927,-11.275048 -2.98459,-2.91102 -5.96917,-4.2374 -9.54336,-4.34805 -0.16756,-0.0101 -0.33463,-0.0101 -0.49969,-0.0101 -3.36198,0.0101 -6.28124,1.16298 -9.30153,3.6916 -3.16882,2.65307 -5.527,6.042818 -7.47993,10.759258 -1.95287,4.71634 -2.9109,9.39585 -3.09508,14.95979 -0.037,0.22114 -0.037,0.40539 -0.037,0.62643 -0.0637,3.05835 0.13058,5.86005 0.6022,8.58065 -6.87909,-3.42776 -13.36178,-5.76468 -19.44586,-7.21275 -0.34682,-2.63091 -0.54743,-5.34583 -0.61148,-8.18451 v -0.77387 c -0.11056,-10.05921 1.54757,-18.681298 5.4165,-27.450778 3.86894,-8.76959 8.65901,-15.07045 15.40197,-20.19214 6.74295,-5.12168 13.37535,-7.47985 21.22375,-7.55355 0.12265,0 0.24528,0 0.36733,0 z m -105.25063,8.33313 c 5.10126,0.0121 9.66594,1.71632 14.38753,5.48676 5.1217,4.08989 8.99062,9.32212 12.23314,16.69153 3.24251,7.3694 4.97432,14.738698 5.45331,23.434588 v 0.0732 c 0.23218,3.65219 0.20379,7.09001 -0.0841,10.41947 -1.00892,0.28676 -1.99763,0.59704 -2.96615,0.93048 -5.50045,1.89336 -10.34796,4.47365 -14.57292,7.26346 0.41314,-2.91831 0.47463,-5.87927 0.15775,-9.18071 -0.0371,-0.18425 -0.0371,-0.33162 -0.0371,-0.51578 -0.44217,-4.38478 -1.36333,-8.06945 -2.91089,-11.79101 -1.65808,-3.86877 -3.50045,-6.59553 -5.93236,-8.69586 -2.20386,-1.903278 -4.28619,-2.777298 -6.57714,-2.759988 -0.23701,0 -0.47671,0.0131 -0.71849,0.0332 -2.57929,0.2209 -4.7164,1.47368 -6.743,3.942498 -2.02656,2.46871 -3.35302,5.52702 -4.31104,9.58008 -0.95803,4.05318 -1.21596,8.03266 -0.81066,12.6016 0,0.18416 0.0371,0.33171 0.0371,0.51586 0.44211,4.42167 1.32645,8.10626 2.91088,11.82791 1.62126,3.83204 3.50045,6.55868 5.93236,8.65891 0.40727,0.35174 0.81019,0.6677 1.21129,0.94998 -2.52954,1.94681 -3.7374,2.84435 -5.81024,4.36747 -1.32948,0.97552 -2.91286,2.13703 -4.75322,3.49357 -4.01343,-3.75973 -7.14438,-8.48491 -9.8819,-14.70649 -3.24251,-7.36927 -4.97432,-14.73871 -5.49018,-23.4346 v -0.0732 c -0.47899,-8.69577 0.36847,-16.17572 2.76352,-23.913518 2.39505,-7.73789 5.60075,-13.33852 10.2434,-17.94451 4.6427,-4.60579 9.32229,-6.92711 14.95985,-7.2218 0.44042,-0.0242 0.87692,-0.0352 1.30918,-0.0332 z m 47.86748,60.328528 c 11.85658,-0.0458 26.12439,3.84137 43.39749,14.94721 10.60991,6.89962 18.8657,7.47626 37.87621,15.61839 l 0.0228,0.0101 0.0233,0.009 c 9.14674,3.75287 14.51541,8.64454 17.13839,13.7956 2.62293,5.15116 2.68708,10.73707 0.49165,16.61331 -4.39072,11.75274 -18.40589,24.12121 -38.07313,30.2628 l -0.0186,0.008 -0.0175,0.008 c -9.58965,3.11567 -17.95175,9.9961 -27.81012,15.63339 -9.85808,5.63699 -21.01325,10.1836 -36.18123,9.30614 0,-8e-5 0,0 0,0 -12.91279,-0.75261 -20.63157,-5.1363 -27.61094,-10.74548 -6.97955,-5.60927 -13.0616,-12.65611 -21.96762,-17.88568 l -0.0228,-0.0137 -0.0233,-0.0137 c -14.34552,-8.10836 -22.1775,-17.48651 -24.63551,-25.6166 -2.45809,-8.13013 -0.15126,-15.06986 6.96633,-20.40398 8.00219,-5.99706 13.56097,-10.07641 17.26382,-12.79381 3.67848,-2.69928 5.2089,-3.71141 6.3803,-4.8362 0.006,-0.009 0.0123,-0.0128 0.0185,-0.0183 0,0 0.005,-0.009 0.005,-0.009 6.01265,-5.69136 15.59728,-16.06039 30.04507,-21.0337 4.97264,-1.71177 10.52135,-2.81616 16.73192,-2.8407 z m 82.90989,49.03512 c -5.1165,0.30507 -10.47514,2.93936 -16.71458,6.42286 -6.2395,3.48341 -13.25602,7.9394 -20.85995,12.32752 -15.20781,8.77624 -32.71394,17.16948 -50.11162,17.16948 -17.42471,0 -31.34606,-8.04745 -41.78774,-16.32197 -5.22086,-4.13728 -9.52984,-8.30459 -12.97238,-11.52842 -1.72127,-1.61201 -3.21407,-2.98586 -4.60701,-4.05895 -1.39268,-1.07307 -2.52631,-2.1371 -4.85688,-2.1371 l -0.11168,4.89716 c -0.16687,1.63864 -0.33834,1.58812 -0.27059,1.63278 0.10871,0.0714 0.64946,0.25783 1.28044,0.74386 1.02404,0.78889 2.44551,2.07487 4.13257,3.65474 3.37415,3.15979 7.85768,7.50416 13.37774,11.87851 11.04,8.7486 26.39345,17.72443 45.81553,17.72443 19.44908,0 37.8502,-9.0906 53.3542,-18.03767 7.75193,-4.47357 14.79245,-8.93912 20.77931,-12.28148 5.98655,-3.34245 11.02348,-5.43837 13.93957,-5.61227 z m 17.28809,23.27447 c 12.91771,50.92115 42.9627,124.47072 62.27343,160.36425 10.26433,19.04333 30.68512,59.50377 39.50787,108.25133 5.59046,-0.17127 11.74615,0.64098 18.33819,2.32708 23.06771,-59.80219 -19.56113,-124.2171 -39.0542,-142.15612 -7.86992,-7.63655 -8.2482,-11.05804 -4.34675,-10.8963 21.14919,18.70291 48.91343,56.32043 59.01476,98.78056 4.60604,19.36109 5.58806,39.71497 0.64599,59.80235 2.41794,1.00448 4.87363,2.09659 7.36243,3.27477 37.02795,18.03073 50.72215,33.70986 44.13786,55.109 -2.16863,-0.0761 -4.30183,-0.0675 -6.38252,-0.0175 -0.19419,0.005 -0.38692,0.0101 -0.58039,0.0148 5.36205,-16.9624 -6.5167,-29.47308 -38.16979,-43.79469 -32.83054,-14.44394 -58.99175,-13.00693 -63.41335,16.28631 -0.28298,1.53469 -0.51061,3.09853 -0.68399,4.68414 -2.45279,0.85176 -4.91893,1.93925 -7.39125,3.29204 -15.41611,8.43525 -23.8304,23.7408 -28.51025,42.51314 -4.67608,18.75716 -6.01663,41.43346 -7.30717,66.92419 0,0.005 0,0.009 0,0.0132 -0.78851,12.81759 -6.05827,30.15383 -11.40294,48.5158 -53.78147,38.36325 -128.42502,54.98431 -191.80023,11.73339 -4.29494,-6.79423 -9.2218,-13.52602 -14.29316,-20.16546 -3.2385,-4.23996 -6.56524,-8.454 -9.87265,-12.60867 6.5058,0.005 12.03576,-1.06037 16.50509,-3.08692 5.55787,-2.52017 9.46294,-6.56804 11.39488,-11.76454 3.86384,-10.39316 -0.0169,-25.0546 -12.38629,-41.79711 -12.36863,-16.74135 -33.31667,-35.63553 -64.09851,-54.51358 0,0 -0.005,0 -0.005,-0.005 -22.61406,-14.0691 -35.26118,-31.31359 -41.18086,-50.03678 -5.92024,-18.72483 -5.09014,-38.97245 -0.52737,-58.96299 8.7578,-38.3711 31.25988,-75.69006 45.61747,-99.10986 3.86549,-2.8442 1.38107,5.27944 -14.5349,34.83522 -14.26425,27.02229 -40.93131,89.38371 -4.41932,138.06271 0.97573,-34.64244 9.24887,-69.97344 23.13748,-103.02138 20.22983,-45.85661 62.54332,-125.37763 65.90401,-188.75699 1.73273,1.25821 7.68701,5.27572 10.34013,6.78451 0.005,0.008 0.0117,0.008 0.017,0.009 7.76249,4.57119 13.59244,11.25324 21.14318,17.32153 7.5657,6.0803 17.01729,11.33203 31.29675,12.16406 v 0 c 16.66707,0.96445 29.36983,-4.19787 39.77727,-10.14905 10.39178,-5.94216 18.69349,-12.51837 26.55852,-15.08535 0.0123,-0.008 0.0239,-0.008 0.0355,-0.0113 16.61951,-5.19718 29.83377,-14.39595 37.35342,-25.12494 z m 105.55922,291.52274 c 6.73161,-0.0312 14.88609,2.21313 23.81226,6.20638 24.02409,11.09092 31.54084,20.59739 24.98213,34.56235 -5.527,10.53819 -29.18268,27.30348 -45.39528,22.88189 -16.54418,-4.27423 -24.61366,-28.11415 -21.92387,-46.1322 1.44083,-12.23549 8.36135,-17.47091 18.52476,-17.51842 z m -27.18143,32.9261 c 1.35802,22.03362 12.25934,44.50549 31.53855,49.36899 21.09753,5.55873 51.51581,-12.54314 64.35873,-27.3081 2.56085,-0.1025 5.06453,-0.22799 7.49602,-0.28668 11.26569,-0.27202 20.71453,0.37107 30.36871,8.81438 l 0.0334,0.0286 0.0344,0.0286 c 7.419,6.28553 10.9455,18.16389 14.0041,31.47065 3.05844,13.3068 5.50422,27.79937 14.67654,38.12376 l 0.0137,0.0148 0.0127,0.0148 c 17.63401,19.56838 23.30213,32.7951 22.81967,41.23729 -0.48253,8.44241 -6.59507,14.70976 -17.88217,21.51734 -22.56443,13.60962 -62.54539,25.44424 -88.08231,56.37684 -22.17411,26.3884 -49.21298,40.88134 -73.02578,42.76074 -23.81279,1.87925 -44.35761,-8.00399 -56.47007,-32.31472 l -0.0276,-0.0551 -0.0286,-0.0542 c -7.51419,-14.29408 -4.38399,-36.85208 1.94594,-60.64633 6.33007,-23.79442 15.42469,-48.2261 16.64212,-68.08383 v -0.0312 -0.0302 c 1.28789,-25.44312 2.71199,-47.66251 6.98596,-64.80656 4.27391,-17.14405 11.00373,-28.75506 22.92793,-35.27967 0.55528,-0.3038 1.10651,-0.59044 1.65463,-0.8613 z m -387.22543,1.66273 c 1.77975,0.007 3.66318,0.1558 5.66981,0.45944 13.49768,2.04462 25.26814,11.48208 36.60841,26.86358 11.34037,15.38173 21.89234,36.37883 32.73959,59.67004 l 0.0138,0.0286 0.0127,0.0276 c 8.71684,18.1933 27.11081,38.19813 42.69857,58.60595 15.58768,20.4078 27.65156,40.89263 26.08057,56.57134 l -0.007,0.0681 -0.005,0.0679 c -2.03222,26.7408 -17.11654,41.2982 -40.27247,46.58714 -23.14903,5.28718 -54.53105,0.017 -85.87605,-16.36472 -0.009,-0.005 -0.0186,-0.009 -0.0276,-0.0148 C 148.76682,736.04312 107.51204,737.86747 81.048337,732.34037 67.812892,729.57594 59.176711,725.42001 55.21297,717.69821 51.248957,709.97668 51.160488,696.50496 59.583868,673.5352 l 0.03705,-0.1014 0.03333,-0.10255 c 4.165689,-12.84964 1.082883,-26.9091 -0.939592,-40.10545 -2.022476,-13.19641 -3.011543,-25.1997 1.494601,-33.56614 l 0.02074,-0.0382 0.02054,-0.0392 c 5.769358,-11.12094 14.231783,-15.09641 24.734594,-18.86442 10.502751,-3.76822 22.956789,-6.72755 32.791339,-16.58338 l 0.0509,-0.052 0.0508,-0.053 c 9.09167,-9.59117 15.92092,-21.61352 23.91357,-30.14646 6.7438,-7.19963 13.49253,-11.97133 23.66489,-12.04201 0.1177,0 0.236,0 0.35465,0 z"
         id="path7580"
         clip-path="none" />
    </clipPath>
    <clipPath
       clipPathUnits="userSpaceOnUse"
       id="clipPath7578-3">
      <path
         inkscape:connector-curvature="0"
         style="color:#000000;font-style:normal;font-variant:normal;font-weight:normal;font-stretch:normal;font-size:medium;line-height:normal;font-family:'Bitstream Vera Sans';-inkscape-font-specification:'Bitstream Vera Sans';text-indent:0;text-align:start;text-decoration:none;text-decoration-line:none;letter-spacing:normal;word-spacing:normal;text-transform:none;writing-mode:lr-tb;direction:ltr;baseline-shift:baseline;text-anchor:start;display:inline;overflow:visible;visibility:visible;fill:#1a1a1a;fill-opacity:1;stroke:none;stroke-width:309;marker:none;enable-background:accumulate"
         d="m 413.49688,-63.885865 c -5.50873,-0.01007 -11.25467,0.221097 -17.24663,0.698832 -151.44034,12.19639 -111.27731,172.185293 -113.52498,225.760433 -2.76559,39.17912 -10.7093,70.05493 -37.65515,108.35728 -31.65734,37.64621 -76.22729,98.57709 -97.34124,162.00402 -9.96481,29.93478 -14.70669,60.44635 -10.32746,89.32352 -1.3718,1.22846 -2.67777,2.51556 -3.91957,3.84127 -9.29459,9.92281 -16.16224,21.94573 -23.81454,30.04053 -7.14928,7.13157 -17.335193,9.84418 -28.528671,13.86011 -11.197757,4.01773 -23.49204,9.94102 -30.954745,24.26137 0,0 0,0.005 -0.005,0.007 -0.01218,0.0238 -0.02547,0.0461 -0.03816,0.0703 v 0 c -6.755617,12.61799 -4.747277,27.1486 -2.684066,40.61093 2.063272,13.46217 4.152016,26.18346 1.379482,34.81434 -8.862262,24.22286 -9.993724,40.9783 -3.754978,53.13208 6.252047,12.17909 19.106775,17.55476 33.635407,20.58924 29.057351,6.06892 68.408611,4.56076 99.421961,20.99815 l 2.66563,-5.02968 -2.63804,5.04467 c 33.2013,17.35854 66.86088,23.52414 93.71531,17.39039 19.4699,-4.44703 35.27484,-16.04026 43.39171,-33.87948 21.00445,-0.10329 44.05315,-8.9992 80.97431,-11.03212 25.04734,-2.01755 56.33588,8.8946 92.32544,6.89621 0.94075,3.90462 2.30228,7.66025 4.166,11.22902 0.0191,0.0367 0.037,0.073 0.0565,0.10928 13.95143,27.89813 39.87419,40.65877 67.49992,38.47853 27.66216,-2.18303 57.07262,-18.49393 80.84647,-46.78632 l -4.35833,-3.6627 4.39165,3.62239 c 22.66004,-27.47602 60.27198,-38.86926 85.21172,-53.91132 12.46992,-7.52124 22.58833,-16.93894 23.37012,-30.61751 0.78137,-13.6717 -7.24514,-28.99303 -25.70186,-49.48067 0,0 -0.005,-0.005 -0.005,-0.005 -0.007,-0.009 -0.0144,-0.017 -0.0216,-0.0255 -6.06426,-6.85303 -8.95726,-19.55446 -12.06623,-33.08031 -3.10684,-13.51762 -6.57481,-28.09935 -17.67261,-37.54916 v 0 c -0.0222,-0.0196 -0.0446,-0.0371 -0.0668,-0.0565 0,0 0,0 0,0 -4.41677,-3.84869 -9.00656,-6.46081 -13.62872,-8.21572 15.42945,-45.75986 9.37563,-91.32556 -6.19944,-132.50113 -19.115,-50.53385 -52.48693,-94.56634 -77.97362,-124.68843 -28.5282,-35.98392 -56.43129,-70.14776 -55.88163,-120.60662 0.84975,-77.011218 8.47096,-219.826209 -127.04556,-220.011161 z m 18.34628,118.643307 c 7.68981,0 14.25742,2.25397 21.0038,7.15062 6.85352,4.97429 11.79099,11.20136 15.77046,19.89724 3.90574,8.47479 5.78493,16.765228 5.96918,26.603428 0,0.25793 0,0.47896 0.0737,0.7369 0.0737,10.096 -1.65808,18.68131 -5.49019,27.45088 -2.18659,5.00397 -4.69769,9.20386 -7.70326,12.83995 -1.02037,-0.48987 -2.08011,-0.96088 -3.17921,-1.41285 v 0 c -7.61844,-3.263 -13.4627,-5.33952 -18.33357,-7.02968 1.76566,-2.12238 3.23589,-4.63951 4.52871,-7.78619 1.95288,-4.75319 2.9109,-9.39599 3.09513,-14.92295 0,-0.22114 0.0737,-0.40539 0.0737,-0.66331 0.1105,-5.30584 -0.58955,-9.83807 -2.13711,-14.4808 -1.62126,-4.86374 -3.6847,-8.364138 -6.66927,-11.275048 -2.98459,-2.91102 -5.96917,-4.2374 -9.54336,-4.34805 -0.16756,-0.0101 -0.33463,-0.0101 -0.49969,-0.0101 -3.36198,0.0101 -6.28124,1.16298 -9.30153,3.6916 -3.16882,2.65307 -5.527,6.042818 -7.47993,10.759258 -1.95287,4.71634 -2.9109,9.39585 -3.09508,14.95979 -0.037,0.22114 -0.037,0.40539 -0.037,0.62643 -0.0637,3.05835 0.13058,5.86005 0.6022,8.58065 -6.87909,-3.42776 -13.36178,-5.76468 -19.44586,-7.21275 -0.34682,-2.63091 -0.54743,-5.34583 -0.61148,-8.18451 v -0.77387 c -0.11056,-10.05921 1.54757,-18.681298 5.4165,-27.450778 3.86894,-8.76959 8.65901,-15.07045 15.40197,-20.19214 6.74295,-5.12168 13.37535,-7.47985 21.22375,-7.55355 0.12265,0 0.24528,0 0.36733,0 z m -105.25063,8.33313 c 5.10126,0.0121 9.66594,1.71632 14.38753,5.48676 5.1217,4.08989 8.99062,9.32212 12.23314,16.69153 3.24251,7.3694 4.97432,14.738698 5.45331,23.434588 v 0.0732 c 0.23218,3.65219 0.20379,7.09001 -0.0841,10.41947 -1.00892,0.28676 -1.99763,0.59704 -2.96615,0.93048 -5.50045,1.89336 -10.34796,4.47365 -14.57292,7.26346 0.41314,-2.91831 0.47463,-5.87927 0.15775,-9.18071 -0.0371,-0.18425 -0.0371,-0.33162 -0.0371,-0.51578 -0.44217,-4.38478 -1.36333,-8.06945 -2.91089,-11.79101 -1.65808,-3.86877 -3.50045,-6.59553 -5.93236,-8.69586 -2.20386,-1.903278 -4.28619,-2.777298 -6.57714,-2.759988 -0.23701,0 -0.47671,0.0131 -0.71849,0.0332 -2.57929,0.2209 -4.7164,1.47368 -6.743,3.942498 -2.02656,2.46871 -3.35302,5.52702 -4.31104,9.58008 -0.95803,4.05318 -1.21596,8.03266 -0.81066,12.6016 0,0.18416 0.0371,0.33171 0.0371,0.51586 0.44211,4.42167 1.32645,8.10626 2.91088,11.82791 1.62126,3.83204 3.50045,6.55868 5.93236,8.65891 0.40727,0.35174 0.81019,0.6677 1.21129,0.94998 -2.52954,1.94681 -3.7374,2.84435 -5.81024,4.36747 -1.32948,0.97552 -2.91286,2.13703 -4.75322,3.49357 -4.01343,-3.75973 -7.14438,-8.48491 -9.8819,-14.70649 -3.24251,-7.36927 -4.97432,-14.73871 -5.49018,-23.4346 v -0.0732 c -0.47899,-8.69577 0.36847,-16.17572 2.76352,-23.913518 2.39505,-7.73789 5.60075,-13.33852 10.2434,-17.94451 4.6427,-4.60579 9.32229,-6.92711 14.95985,-7.2218 0.44042,-0.0242 0.87692,-0.0352 1.30918,-0.0332 z m 47.86748,60.328528 c 11.85658,-0.0458 26.12439,3.84137 43.39749,14.94721 10.60991,6.89962 18.8657,7.47626 37.87621,15.61839 l 0.0228,0.0101 0.0233,0.009 c 9.14674,3.75287 14.51541,8.64454 17.13839,13.7956 2.62293,5.15116 2.68708,10.73707 0.49165,16.61331 -4.39072,11.75274 -18.40589,24.12121 -38.07313,30.2628 l -0.0186,0.008 -0.0175,0.008 c -9.58965,3.11567 -17.95175,9.9961 -27.81012,15.63339 -9.85808,5.63699 -21.01325,10.1836 -36.18123,9.30614 0,-8e-5 0,0 0,0 -12.91279,-0.75261 -20.63157,-5.1363 -27.61094,-10.74548 -6.97955,-5.60927 -13.0616,-12.65611 -21.96762,-17.88568 l -0.0228,-0.0137 -0.0233,-0.0137 c -14.34552,-8.10836 -22.1775,-17.48651 -24.63551,-25.6166 -2.45809,-8.13013 -0.15126,-15.06986 6.96633,-20.40398 8.00219,-5.99706 13.56097,-10.07641 17.26382,-12.79381 3.67848,-2.69928 5.2089,-3.71141 6.3803,-4.8362 0.006,-0.009 0.0123,-0.0128 0.0185,-0.0183 0,0 0.005,-0.009 0.005,-0.009 6.01265,-5.69136 15.59728,-16.06039 30.04507,-21.0337 4.97264,-1.71177 10.52135,-2.81616 16.73192,-2.8407 z m 82.90989,49.03512 c -5.1165,0.30507 -10.47514,2.93936 -16.71458,6.42286 -6.2395,3.48341 -13.25602,7.9394 -20.85995,12.32752 -15.20781,8.77624 -32.71394,17.16948 -50.11162,17.16948 -17.42471,0 -31.34606,-8.04745 -41.78774,-16.32197 -5.22086,-4.13728 -9.52984,-8.30459 -12.97238,-11.52842 -1.72127,-1.61201 -3.21407,-2.98586 -4.60701,-4.05895 -1.39268,-1.07307 -2.52631,-2.1371 -4.85688,-2.1371 l -0.11168,4.89716 c -0.16687,1.63864 -0.33834,1.58812 -0.27059,1.63278 0.10871,0.0714 0.64946,0.25783 1.28044,0.74386 1.02404,0.78889 2.44551,2.07487 4.13257,3.65474 3.37415,3.15979 7.85768,7.50416 13.37774,11.87851 11.04,8.7486 26.39345,17.72443 45.81553,17.72443 19.44908,0 37.8502,-9.0906 53.3542,-18.03767 7.75193,-4.47357 14.79245,-8.93912 20.77931,-12.28148 5.98655,-3.34245 11.02348,-5.43837 13.93957,-5.61227 z m 17.28809,23.27447 c 12.91771,50.92115 42.9627,124.47072 62.27343,160.36425 10.26433,19.04333 30.68512,59.50377 39.50787,108.25133 5.59046,-0.17127 11.74615,0.64098 18.33819,2.32708 23.06771,-59.80219 -19.56113,-124.2171 -39.0542,-142.15612 -7.86992,-7.63655 -8.2482,-11.05804 -4.34675,-10.8963 21.14919,18.70291 48.91343,56.32043 59.01476,98.78056 4.60604,19.36109 5.58806,39.71497 0.64599,59.80235 2.41794,1.00448 4.87363,2.09659 7.36243,3.27477 37.02795,18.03073 50.72215,33.70986 44.13786,55.109 -2.16863,-0.0761 -4.30183,-0.0675 -6.38252,-0.0175 -0.19419,0.005 -0.38692,0.0101 -0.58039,0.0148 5.36205,-16.9624 -6.5167,-29.47308 -38.16979,-43.79469 -32.83054,-14.44394 -58.99175,-13.00693 -63.41335,16.28631 -0.28298,1.53469 -0.51061,3.09853 -0.68399,4.68414 -2.45279,0.85176 -4.91893,1.93925 -7.39125,3.29204 -15.41611,8.43525 -23.8304,23.7408 -28.51025,42.51314 -4.67608,18.75716 -6.01663,41.43346 -7.30717,66.92419 0,0.005 0,0.009 0,0.0132 -0.78851,12.81759 -6.05827,30.15383 -11.40294,48.5158 -53.78147,38.36325 -128.42502,54.98431 -191.80023,11.73339 -4.29494,-6.79423 -9.2218,-13.52602 -14.29316,-20.16546 -3.2385,-4.23996 -6.56524,-8.454 -9.87265,-12.60867 6.5058,0.005 12.03576,-1.06037 16.50509,-3.08692 5.55787,-2.52017 9.46294,-6.56804 11.39488,-11.76454 3.86384,-10.39316 -0.0169,-25.0546 -12.38629,-41.79711 -12.36863,-16.74135 -33.31667,-35.63553 -64.09851,-54.51358 0,0 -0.005,0 -0.005,-0.005 -22.61406,-14.0691 -35.26118,-31.31359 -41.18086,-50.03678 -5.92024,-18.72483 -5.09014,-38.97245 -0.52737,-58.96299 8.7578,-38.3711 31.25988,-75.69006 45.61747,-99.10986 3.86549,-2.8442 1.38107,5.27944 -14.5349,34.83522 -14.26425,27.02229 -40.93131,89.38371 -4.41932,138.06271 0.97573,-34.64244 9.24887,-69.97344 23.13748,-103.02138 20.22983,-45.85661 62.54332,-125.37763 65.90401,-188.75699 1.73273,1.25821 7.68701,5.27572 10.34013,6.78451 0.005,0.008 0.0117,0.008 0.017,0.009 7.76249,4.57119 13.59244,11.25324 21.14318,17.32153 7.5657,6.0803 17.01729,11.33203 31.29675,12.16406 v 0 c 16.66707,0.96445 29.36983,-4.19787 39.77727,-10.14905 10.39178,-5.94216 18.69349,-12.51837 26.55852,-15.08535 0.0123,-0.008 0.0239,-0.008 0.0355,-0.0113 16.61951,-5.19718 29.83377,-14.39595 37.35342,-25.12494 z m 105.55922,291.52274 c 6.73161,-0.0312 14.88609,2.21313 23.81226,6.20638 24.02409,11.09092 31.54084,20.59739 24.98213,34.56235 -5.527,10.53819 -29.18268,27.30348 -45.39528,22.88189 -16.54418,-4.27423 -24.61366,-28.11415 -21.92387,-46.1322 1.44083,-12.23549 8.36135,-17.47091 18.52476,-17.51842 z m -27.18143,32.9261 c 1.35802,22.03362 12.25934,44.50549 31.53855,49.36899 21.09753,5.55873 51.51581,-12.54314 64.35873,-27.3081 2.56085,-0.1025 5.06453,-0.22799 7.49602,-0.28668 11.26569,-0.27202 20.71453,0.37107 30.36871,8.81438 l 0.0334,0.0286 0.0344,0.0286 c 7.419,6.28553 10.9455,18.16389 14.0041,31.47065 3.05844,13.3068 5.50422,27.79937 14.67654,38.12376 l 0.0137,0.0148 0.0127,0.0148 c 17.63401,19.56838 23.30213,32.7951 22.81967,41.23729 -0.48253,8.44241 -6.59507,14.70976 -17.88217,21.51734 -22.56443,13.60962 -62.54539,25.44424 -88.08231,56.37684 -22.17411,26.3884 -49.21298,40.88134 -73.02578,42.76074 -23.81279,1.87925 -44.35761,-8.00399 -56.47007,-32.31472 l -0.0276,-0.0551 -0.0286,-0.0542 c -7.51419,-14.29408 -4.38399,-36.85208 1.94594,-60.64633 6.33007,-23.79442 15.42469,-48.2261 16.64212,-68.08383 v -0.0312 -0.0302 c 1.28789,-25.44312 2.71199,-47.66251 6.98596,-64.80656 4.27391,-17.14405 11.00373,-28.75506 22.92793,-35.27967 0.55528,-0.3038 1.10651,-0.59044 1.65463,-0.8613 z m -387.22543,1.66273 c 1.77975,0.007 3.66318,0.1558 5.66981,0.45944 13.49768,2.04462 25.26814,11.48208 36.60841,26.86358 11.34037,15.38173 21.89234,36.37883 32.73959,59.67004 l 0.0138,0.0286 0.0127,0.0276 c 8.71684,18.1933 27.11081,38.19813 42.69857,58.60595 15.58768,20.4078 27.65156,40.89263 26.08057,56.57134 l -0.007,0.0681 -0.005,0.0679 c -2.03222,26.7408 -17.11654,41.2982 -40.27247,46.58714 -23.14903,5.28718 -54.53105,0.017 -85.87605,-16.36472 -0.009,-0.005 -0.0186,-0.009 -0.0276,-0.0148 C 148.76682,736.04312 107.51204,737.86747 81.048337,732.34037 67.812892,729.57594 59.176711,725.42001 55.21297,717.69821 51.248957,709.97668 51.160488,696.50496 59.583868,673.5352 l 0.03705,-0.1014 0.03333,-0.10255 c 4.165689,-12.84964 1.082883,-26.9091 -0.939592,-40.10545 -2.022476,-13.19641 -3.011543,-25.1997 1.494601,-33.56614 l 0.02074,-0.0382 0.02054,-0.0392 c 5.769358,-11.12094 14.231783,-15.09641 24.734594,-18.86442 10.502751,-3.76822 22.956789,-6.72755 32.791339,-16.58338 l 0.0509,-0.052 0.0508,-0.053 c 9.09167,-9.59117 15.92092,-21.61352 23.91357,-30.14646 6.7438,-7.19963 13.49253,-11.97133 23.66489,-12.04201 0.1177,0 0.236,0 0.35465,0 z"
         id="path7580-1"
         clip-path="none" />
    </clipPath>
    <inkscape:path-effect
       is_visible="true"
       id="path-effect4161-8"
       effect="spiro" />
    <inkscape:path-effect
       is_visible="true"
       id="path-effect4161-4-52"
       effect="spiro" />
    <inkscape:path-effect
       is_visible="true"
       id="path-effect4224-7"
       effect="spiro" />
    <inkscape:path-effect
       is_visible="true"
       id="path-effect4745-2"
       effect="spiro" />
    <inkscape:path-effect
       is_visible="true"
       id="path-effect4745-0-7"
       effect="spiro" />
    <inkscape:path-effect
       is_visible="true"
       id="path-effect4745-00-3"
       effect="spiro" />
    <linearGradient
       id="linearGradient4076"
       y2="448.69"
       gradientUnits="userSpaceOnUse"
       x2="516.63"
       y1="448.69"
       x1="442.82999">
      <stop
         id="stop5171-7"
         style="stop-color:#141414"
         offset="0" />
      <stop
         id="stop5173-8"
         style="stop-color:#1d1d1d"
         offset="1" />
    </linearGradient>
    <linearGradient
       id="linearGradient4076-4"
       y2="448.69"
       gradientUnits="userSpaceOnUse"
       x2="516.63"
       y1="454.17664"
       x1="453.31149">
      <stop
         id="stop5171-7-3"
         style="stop-color:#141414"
         offset="0" />
      <stop
         id="stop5173-8-1"
         style="stop-color:#1d1d1d"
         offset="1" />
    </linearGradient>
  </defs>
  <sodipodi:namedview
     pagecolor="#ffffff"
     bordercolor="#666666"
     borderopacity="1"
     objecttolerance="10"
     gridtolerance="10"
     guidetolerance="10"
     inkscape:pageopacity="0"
     inkscape:pageshadow="2"
     inkscape:window-width="1865"
     inkscape:window-height="1056"
     id="namedview3041"
     showgrid="false"
     showguides="true"
     inkscape:guide-bbox="true"
     inkscape:zoom="13.921099"
     inkscape:cx="520.55071"
     inkscape:cy="82.968838"
     inkscape:window-x="55"
     inkscape:window-y="0"
     inkscape:window-maximized="1"
     inkscape:current-layer="x0-y0"
     fit-margin-top="0"
     fit-margin-left="0"
     fit-margin-right="0"
     fit-margin-bottom="0"
     inkscape:document-rotation="0" />
  <path
     style="fill:#0f0f0f;fill-opacity:1;stroke:#c0c0c0;stroke-width:1px;stroke-linecap:butt;stroke-linejoin:miter;stroke-opacity:1"
     d="m 615.71806,266.87394 -0.26044,-31.90882 c -0.9562,-30.61324 -8.58441,-59.29901 -9.0958,-91.83972 -0.55515,-11.49788 1.86834,-49.738082 0.47046,-71.544919 l -13.5344,-13.350292 -59.32193,-25.702334 -3.24157,1.552223 0.10156,13.753906 c -1.94601,-0.913578 -3.85459,-1.485178 -5.93164,-1.638672 v -4.615234 h -3.67188 V 38.65625 h 3.67188 V 28.552734 h -3.67188 v -3.410156 h 3.67188 v -3.152344 h -3.67188 l 0.0352,-22.98632775 c -4.64162,-2.71998225 -5.90311,2.31363585 -10.06446,0 l 0.0352,22.98632775 h -3.67383 v 3.152344 h 3.67383 v 3.410156 h -3.67383 V 38.65625 h 3.67383 v 2.923828 h -3.67383 v 4.615234 c -2.07705,0.153492 -3.98368,0.725087 -5.92968,1.638672 l 0.10156,-13.753906 -1.01758,-1.107422 -59.02539,19.919922 -14.57227,13.94336 c -1.39787,21.806843 -1.64319,44.034192 0.20899,66.365232 l -4.29883,1.25781 4.29883,47.59766 4.61328,1.04883 -4.19336,3.35351 0.20898,52.21094 2.41211,1.88672 c -3.8092,30.50861 -4.89217,79.57471 10.16993,98.23633 18.48689,22.8203 41.4817,36.41392 75.69429,36.06445 47.11182,0.0529 90.86402,-38.74607 99.48267,-107.98348 z"
     transform="scale(0.93749998)"
     id="back"
     inkscape:connector-curvature="0"
     sodipodi:nodetypes="ccccccccccccccccccccccccccccccccccccccccccccccc"
     inkscape:label="#back" />
  <g
     class="LED"
     id="x11-y0"
     inkscape:label="#key0-11"
     transform="translate(0,-103.125)">
    <path
       inkscape:connector-curvature="0"
       id="k11"
       d="m 552.15983,202.40515 c -0.2221,9.64139 -0.55268,18.89401 -0.66284,25.82777 l 11.25183,-0.10671 c 0.11196,-6.92438 0.43999,-16.12685 0.66101,-25.72106 z"
       style="display:inline;fill:#3c3c3c;fill-opacity:1;stroke:#c0c0c0;stroke-width:1.875;stroke-miterlimit:4;stroke-dasharray:none;stroke-opacity:1" />
  </g>
  <g
     class="LED"
     id="x12-y0"
     inkscape:label="#key0-12"
     transform="translate(0,-103.125)">
    <path
       sodipodi:nodetypes="ccccccc"
       inkscape:connector-curvature="0"
       id="k12"
       d="m 551.49699,230.03607 c -0.053,3.33896 -0.0702,6.29974 0.0293,8.20499 0.0831,4.89105 0.37623,9.67631 0.79284,14.39262 l 11.24817,-0.0254 c -0.41539,-4.70814 -0.70807,-9.48491 -0.79101,-14.36721 -0.10046,-1.92461 -0.0549,-6.61944 -0.0276,-8.31189 z"
       style="display:inline;fill:#3c3c3c;fill-opacity:1;stroke:#c0c0c0;stroke-width:1.875;stroke-miterlimit:4;stroke-dasharray:none;stroke-opacity:1" />
  </g>
  <g
     class="LED"
     id="x13-y0"
     inkscape:label="#key0-13"
     transform="translate(0,-103.125)">
    <path
       inkscape:connector-curvature="0"
       id="k13"
       d="m 563.75474,254.41927 -11.24817,0.0271 c 0.68457,7.74798 1.72807,15.28909 2.83265,22.75175 h 11.25 c -1.10586,-7.47132 -2.14995,-15.02141 -2.83448,-22.77885 z"
       style="display:inline;fill:#3c3c3c;fill-opacity:1;stroke:#c0c0c0;stroke-width:1.875;stroke-miterlimit:4;stroke-dasharray:none;stroke-opacity:1" />
  </g>
  <g
     class="LED"
     id="x14-y0"
     inkscape:label="#key0-14"
     transform="translate(0,-103.125)">
    <path
       inkscape:connector-curvature="0"
       id="k14"
       d="m 555.62084,278.97968 c 1.12729,7.6162 2.30964,15.15525 3.24646,22.71787 l 11.25732,0.0542 c -0.93784,-7.58087 -2.1238,-15.13765 -3.25378,-22.77207 z"
       style="display:inline;fill:#3c3c3c;fill-opacity:1;stroke:#c0c0c0;stroke-width:1.875;stroke-miterlimit:4;stroke-dasharray:none;stroke-opacity:1" />
  </g>
  <g
     class="LED"
     id="x15-y0"
     inkscape:label="#key0-15"
     transform="translate(0,-103.125)">
    <path
       inkscape:connector-curvature="0"
       id="k15"
       d="m 559.05423,303.44912 c 0.81025,6.54092 1.42997,13.10827 1.65526,19.78074 l 0.0275,3.02013 11.25,0.083 -0.0275,-3.10313 c -0.22467,-6.65401 -0.84098,-13.20357 -1.64794,-19.72654 z"
       style="display:inline;fill:#3c3c3c;fill-opacity:1;stroke:#c0c0c0;stroke-width:1.875;stroke-miterlimit:4;stroke-dasharray:none;stroke-opacity:1" />
  </g>
  <g
     class="LED"
     id="x16-y0"
     inkscape:label="#key0-16"
     transform="translate(0,-103.125)">
    <path
       inkscape:connector-curvature="0"
       id="k16"
       d="m 560.73682,328.03497 0.19959,22.55864 11.25182,0.23545 -0.20141,-22.71109 z"
       style="display:inline;fill:#3c3c3c;fill-opacity:1;stroke:#c0c0c0;stroke-width:1.875;stroke-miterlimit:4;stroke-dasharray:none;stroke-opacity:1" />
  </g>
  <g
     class="LED"
     id="x18-y0"
     inkscape:label="#key0-18"
     transform="translate(0,-103.125)">
    <path
       inkscape:connector-curvature="0"
       id="k17"
       d="m 567.29536,376.91588 -11.25,0.0254 c -2.38145,8.14237 -5.4449,15.64915 -9.0802,22.50106 l 11.19874,0.0305 c 3.65684,-6.86541 6.73847,-14.38998 9.13146,-22.55695 z"
       style="display:inline;fill:#3c3c3c;fill-opacity:1;stroke:#c0c0c0;stroke-width:1.875;stroke-miterlimit:4;stroke-dasharray:none;stroke-opacity:1" />
  </g>
  <g
     class="LED"
     id="x19-y0"
     inkscape:label="#key0-19"
     transform="translate(0,-103.125)">
    <path
       inkscape:connector-curvature="0"
       id="k19"
       d="m 545.99321,401.258 c -4.82815,9.08507 -10.66279,17.01777 -17.26136,23.73418 h 11.17126 c 6.60103,-6.71011 12.44247,-14.62756 17.2815,-23.69522 z"
       style="display:inline;fill:#3c3c3c;fill-opacity:1;stroke:#c0c0c0;stroke-width:1.875;stroke-miterlimit:4;stroke-dasharray:none;stroke-opacity:1" />
  </g>
  <g
     class="LED"
     id="x17-y0"
     inkscape:label="#key0-17"
     transform="translate(0,-103.125)">
    <path
       inkscape:connector-curvature="0"
       id="path115"
       d="m 560.93698,352.36913 0.0183,2.0936 c -0.98021,7.2843 -2.44842,14.17546 -4.34693,20.66662 l 11.25,-0.0254 c 1.89906,-6.48123 3.36761,-13.36354 4.34693,-20.64122 l -0.0165,-1.85815 z"
       style="display:inline;fill:#3c3c3c;fill-opacity:1;stroke:#c0c0c0;stroke-width:1.875;stroke-miterlimit:4;stroke-dasharray:none;stroke-opacity:1" />
  </g>
  <g
     id="x0-y0"
     class="LED"
     transform="matrix(0.60390885,0,0,1.462477,28.036458,-301.28053)"
     inkscape:label="#key0-0">
    <path
       sodipodi:nodetypes="ccccccccc"
       inkscape:connector-curvature="0"
       id="path5551"
       d="m 737.56701,248.84 c -8.4e-4,-1.68878 1.70434,-3.38699 3.44721,-3.39804 l 27.23399,-0.004 c 1.72848,-0.0229 3.44751,1.69777 3.43225,3.38081 l 0.0156,27.33198 c 0.006,1.68587 -1.70509,3.39058 -3.40595,3.38928 l -27.29635,0.004 c -1.72417,0.003 -3.45778,-1.69209 -3.41939,-3.4147 z"
       style="display:inline;fill:#3c3c3c;fill-opacity:1;stroke:#c0c0c0;stroke-width:1.891;stroke-miterlimit:4;stroke-dasharray:none;stroke-opacity:1" />
    <path
       id="wheel-edges"
       style="color:#000000;font-style:normal;font-variant:normal;font-weight:normal;font-stretch:normal;font-size:medium;line-height:normal;font-family:sans-serif;font-variant-ligatures:normal;font-variant-position:normal;font-variant-caps:normal;font-variant-numeric:normal;font-variant-alternates:normal;font-variant-east-asian:normal;font-feature-settings:normal;font-variation-settings:normal;text-indent:0;text-align:start;text-decoration:none;text-decoration-line:none;text-decoration-style:solid;text-decoration-color:#000000;letter-spacing:normal;word-spacing:normal;text-transform:none;writing-mode:lr-tb;direction:ltr;text-orientation:mixed;dominant-baseline:auto;baseline-shift:baseline;text-anchor:start;white-space:normal;shape-padding:0;shape-margin:0;inline-size:0;clip-rule:nonzero;display:inline;overflow:visible;visibility:visible;opacity:1;isolation:auto;mix-blend-mode:normal;color-interpolation:sRGB;color-interpolation-filters:linearRGB;solid-color:#000000;solid-opacity:1;vector-effect:none;fill:#fff400;fill-opacity:1;fill-rule:nonzero;stroke:none;stroke-width:1.00244;stroke-linecap:butt;stroke-linejoin:miter;stroke-miterlimit:4;stroke-dasharray:none;stroke-dashoffset:0;stroke-opacity:1;color-rendering:auto;image-rendering:auto;shape-rendering:auto;text-rendering:auto;enable-background:accumulate;stop-color:#000000;stop-opacity:1"
       d="M 508.35742 68.025391 C 508.06441 68.595406 508.04056 69.239832 508.35742 69.773438 L 523.875 69.773438 C 524.20477 69.279939 524.18124 68.560681 523.875 68.025391 L 508.35742 68.025391 z M 508.35742 74.402344 C 508.06441 74.972359 508.04056 75.616785 508.35742 76.150391 L 523.875 76.150391 C 524.20477 75.656892 524.18124 74.937634 523.875 74.402344 L 508.35742 74.402344 z M 508.35742 80.779297 C 508.06441 81.349312 508.04056 81.993739 508.35742 82.527344 L 523.875 82.527344 C 524.20477 82.033845 524.18124 81.314587 523.875 80.779297 L 508.35742 80.779297 z M 508.35742 87.15625 C 508.06441 87.726265 508.04056 88.370692 508.35742 88.904297 L 523.875 88.904297 C 524.20477 88.410799 524.18124 87.69154 523.875 87.15625 L 508.35742 87.15625 z M 508.35742 93.535156 C 508.06441 94.105187 508.04056 94.751535 508.35742 95.285156 L 523.875 95.285156 C 524.20477 94.791658 524.18124 94.070446 523.875 93.535156 L 508.35742 93.535156 z M 508.35742 99.912109 C 508.06441 100.48212 508.04056 101.1285 508.35742 101.66211 L 523.875 101.66211 C 524.20477 101.16861 524.18124 100.4474 523.875 99.912109 L 508.35742 99.912109 z M 508.35742 106.29297 C 508.06441 106.86298 508.04056 107.50741 508.35742 108.04102 L 523.875 108.04102 C 524.20477 107.54752 524.18124 106.82826 523.875 106.29297 L 508.35742 106.29297 z "
       transform="matrix(1.5523866,0,0,0.64103571,-46.424983,206.00702)"
       nostroke="true" />
  </g>
  <g
     class="LED"
     id="x4-y0"
     inkscape:label="#key0-4"
     transform="translate(0,-103.125)">
    <path
       inkscape:connector-curvature="0"
       id="k4"
       d="m 420.55271,255.17346 -11.28871,0.0407 c 0.95652,8.86421 1.67886,16.53341 1.60821,20.1769 -0.008,0.41954 -0.0539,1.81745 -0.068,2.4196 l 11.29239,0.039 c 0.0144,-0.61467 0.0603,-2.03228 0.068,-2.45857 0.0708,-3.64913 -0.65311,-11.33574 -1.61189,-20.21757 z"
       style="fill:#3c3c3c;fill-opacity:1;stroke:#c0c0c0;stroke-width:1.80707;stroke-miterlimit:4;stroke-dasharray:none;stroke-opacity:1" />
  </g>
  <g
     class="LED"
     id="x5-y0"
     inkscape:label="#key0-5"
     transform="translate(0,-103.125)">
    <path
       inkscape:connector-curvature="0"
       id="k5"
       d="m 410.7099,279.47531 c -0.104,4.43965 -0.35529,12.76302 -0.76091,22.79983 l 11.29239,-0.0271 c 0.40415,-10.0042 0.65648,-18.28736 0.76091,-22.73374 z"
       style="fill:#3c3c3c;fill-opacity:1;stroke:#c0c0c0;stroke-width:1.80707;stroke-miterlimit:4;stroke-dasharray:none;stroke-opacity:1" />
  </g>
  <g
     class="LED"
     id="x6-y0"
     inkscape:label="#key0-6"
     transform="translate(0,-103.125)">
    <path
       inkscape:connector-curvature="0"
       id="k6"
       d="m 421.14777,303.99127 -11.29239,0.0271 c -0.30863,7.63721 -0.68494,15.6542 -1.12116,22.66258 l 11.29424,-0.039 c 0.43575,-7.00829 0.81104,-15.0193 1.11931,-22.65072 z"
       style="fill:#3c3c3c;fill-opacity:1;stroke:#c0c0c0;stroke-width:1.80707;stroke-miterlimit:4;stroke-dasharray:none;stroke-opacity:1" />
  </g>
  <g
     class="LED"
     id="x7-y0"
     inkscape:label="#key0-7"
     transform="translate(0,-103.125)">
    <path
       sodipodi:nodetypes="ccccccc"
       inkscape:connector-curvature="0"
       id="k7"
       d="m 408.64014,328.43589 c -0.40126,6.44685 -0.84532,11.99077 -1.32148,15.1886 -0.26141,1.93012 -0.4981,4.5382 -0.68188,7.54346 l 11.29239,-0.0119 c 0.1837,-3.00024 0.42081,-5.60396 0.68188,-7.5316 0.47709,-3.20403 1.12269,-11.99603 1.32363,-15.22758 z"
       style="fill:#3c3c3c;fill-opacity:1;stroke:#c0c0c0;stroke-width:1.80749996;stroke-miterlimit:4;stroke-dasharray:none;stroke-opacity:1" />
  </g>
  <g
     class="LED"
     id="x9-y0"
     inkscape:label="#key0-9"
     transform="translate(0,-103.125)">
    <path
       inkscape:connector-curvature="0"
       id="k9"
       d="m 406.6669,377.25476 c 0.47265,7.63683 1.46181,15.59611 3.26421,22.79983 l 11.27402,-0.0796 c -1.78389,-7.15859 -2.76749,-15.0569 -3.24032,-22.64225 z"
       style="fill:#3c3c3c;fill-opacity:1;stroke:#c0c0c0;stroke-width:1.80707;stroke-miterlimit:4;stroke-dasharray:none;stroke-opacity:1" />
  </g>
  <g
     class="LED"
     id="x10-y0"
     inkscape:label="#key0-10"
     transform="translate(0,-103.125)">
    <path
       sodipodi:nodetypes="ccccccc"
       inkscape:connector-curvature="0"
       id="k10"
       d="m 410.39585,401.85233 c 1.90536,7.62049 4.70978,14.39161 8.75419,19.01115 1.42034,1.61634 2.91787,3.09119 4.39821,4.5986 h 11.26667 c -1.47433,-1.50178 -2.95775,-2.98864 -4.37249,-4.5986 -4.05835,-4.63548 -7.81955,-15.26405 -8.77239,-19.09036 z"
       style="fill:#3c3c3c;fill-opacity:1;stroke:#c0c0c0;stroke-width:1.80707;stroke-miterlimit:4;stroke-dasharray:none;stroke-opacity:1" />
  </g>
  <g
     class="LED"
     id="x8-y0"
     inkscape:label="#key0-8"
     transform="translate(0,-103.125)">
    <path
       inkscape:connector-curvature="0"
       id="k8"
       d="m 417.83576,352.88285 -11.29239,0.0119 c -0.37703,6.16516 -0.49481,14.17891 0.0294,22.64903 l 11.29791,0.0779 c -0.53008,-8.50372 -0.41366,-16.5534 -0.0349,-22.73883 z"
       style="fill:#3c3c3c;fill-opacity:1;stroke:#c0c0c0;stroke-width:1.80707;stroke-miterlimit:4;stroke-dasharray:none;stroke-opacity:1" />
  </g>
  <g
     class="LED"
     id="x2-y0"
     inkscape:label="#key0-2"
     transform="translate(0,-103.125)">
    <path
       onclick=""
       inkscape:connector-curvature="0"
       id="k02"
       d="m 404.81569,203.19762 c -9.7e-4,6.26192 0.12206,11.89514 0.46868,15.74775 0.29825,3.03132 0.66287,6.39376 1.04395,9.84615 l 11.27953,-0.11691 c -0.3762,-3.41056 -0.73619,-6.73195 -1.03109,-9.72924 -0.34662,-3.85261 -0.46965,-9.48583 -0.46868,-15.74775 z"
       style="fill:#3c3c3c;fill-opacity:1;stroke:#c0c0c0;stroke-width:1.80707;stroke-miterlimit:4;stroke-dasharray:none;stroke-opacity:1" />
  </g>
  <g
     class="LED"
     id="x3-y0"
     inkscape:label="#key0-3"
     transform="translate(0,-103.125)">
    <path
       onclick=""
       inkscape:connector-curvature="0"
       id="k03"
       d="m 417.79946,230.42725 -11.28137,0.1 c 0.83176,7.53414 1.76807,15.60304 2.55844,22.92691 l 11.28688,-0.0407 c -0.793,-7.3456 -1.73124,-15.43888 -2.56395,-22.98621 z"
       style="fill:#3c3c3c;fill-opacity:1;stroke:#c0c0c0;stroke-width:1.80707;stroke-miterlimit:4;stroke-dasharray:none;stroke-opacity:1" />
  </g>
  <g
     id="x1-y0"
     class="LED"
     transform="matrix(0.93749998,0,0,0.93749998,42.410812,-169.05843)"
     inkscape:label="#x1-y0">
    <path
       d="m 457.38503,432.488 c 8.9693,-8.80495 29.0842,-8.80495 38.0535,0 10.29058,10.10206 10.29058,32.75729 0,42.85932 -8.9693,8.80496 -29.0842,8.80496 -38.0535,0 -10.29059,-10.10203 -10.29059,-32.75726 0,-42.85932 z"
       style="color:#000000;fill:#3c3c3c;fill-opacity:1;stroke:#c0c0c0;stroke-width:1.54658;stroke-miterlimit:4;stroke-dasharray:none;stroke-opacity:1"
       id="path42"
       sodipodi:nodetypes="aaaaa" />
    <path
       style="color:#000000;font-style:normal;font-variant:normal;font-weight:normal;font-stretch:normal;font-size:medium;line-height:normal;font-family:sans-serif;font-variant-ligatures:normal;font-variant-position:normal;font-variant-caps:normal;font-variant-numeric:normal;font-variant-alternates:normal;font-feature-settings:normal;text-indent:0;text-align:start;text-decoration:none;text-decoration-line:none;text-decoration-style:solid;text-decoration-color:#000000;letter-spacing:normal;word-spacing:normal;text-transform:none;writing-mode:lr-tb;direction:ltr;text-orientation:mixed;dominant-baseline:auto;baseline-shift:baseline;text-anchor:start;white-space:normal;shape-padding:0;clip-rule:nonzero;display:inline;overflow:visible;visibility:visible;opacity:1;isolation:auto;mix-blend-mode:normal;color-interpolation:sRGB;color-interpolation-filters:linearRGB;solid-color:#000000;solid-opacity:1;vector-effect:none;fill:#fff400;fill-opacity:1;fill-rule:evenodd;stroke:none;stroke-width:1.07921;stroke-linecap:round;stroke-linejoin:miter;stroke-miterlimit:4;stroke-dasharray:none;stroke-dashoffset:0;stroke-opacity:1;color-rendering:auto;image-rendering:auto;shape-rendering:auto;text-rendering:auto;enable-background:accumulate"
       d="m 485.92947,442.4161 -0.93945,0.43945 a 0.53965946,0.53965946 0 0 0 -0.38868,-0.1582 0.53965946,0.53965946 0 0 0 -0.29101,0.0918 c -0.0725,0.0468 -0.14997,0.0863 -0.23047,0.11719 -0.19659,0.0756 -0.51241,0.10995 -0.88672,0.27735 -0.18912,0.0846 -0.38868,0.20789 -0.55469,0.40233 -0.17033,0.19953 -0.29364,0.46106 -0.28906,0.76953 0.005,0.32792 0.14116,0.55757 0.22852,0.71289 0.0487,0.0866 0.0792,0.14439 0.0957,0.1836 -0.026,7e-4 -0.0693,-0.006 -0.11719,-0.0274 -0.0505,-0.0222 -0.10854,-0.0609 -0.17187,-0.11522 -0.1277,-0.10963 -0.26869,-0.28895 -0.46094,-0.49611 -0.19502,-0.21013 -0.45302,-0.45164 -0.83203,-0.56835 -0.40712,-0.12536 -0.82715,-0.0589 -1.17578,0.13672 -0.34355,0.19274 -0.58984,0.49392 -0.73633,0.83008 -0.16765,0.3847 -0.19745,0.79195 -0.14649,1.16992 0.0506,0.37497 0.17869,0.71528 0.32813,1.01953 0.53716,1.09368 1.42078,1.87972 2.20898,2.61524 0.78502,0.73253 1.5152,1.46831 1.86719,2.33398 0.16251,0.39966 0.22781,0.81349 0.14258,1.15235 -0.0807,0.3207 -0.3168,0.62539 -0.61523,0.79882 -0.30137,0.17514 -0.68958,0.23791 -1.04688,0.17188 -0.34287,-0.0634 -0.69327,-0.2444 -1.0293,-0.48634 -0.33777,-0.24319 -0.66836,-0.54935 -1.04101,-0.85741 -0.3733,-0.30861 -0.7939,-0.62224 -1.30469,-0.82813 -0.51708,-0.20842 -1.12407,-0.29789 -1.7168,-0.11523 -0.37541,0.11568 -0.71083,0.33236 -0.9707,0.62695 -0.0629,0.0713 -0.10373,0.15781 -0.15625,0.23633 -0.0985,-0.0826 -0.1956,-0.16995 -0.27148,-0.27344 -0.20219,-0.27574 -0.32595,-0.63737 -0.37891,-1.02539 -0.0533,-0.39072 -0.0391,-0.81346 -0.006,-1.25781 0.0332,-0.4446 0.085,-0.91461 0.084,-1.41211 -9.7e-4,-0.4986 -0.0557,-1.0281 -0.25196,-1.54101 -0.18224,-0.47632 -0.48972,-0.93678 -0.96094,-1.2461 -0.23602,-0.15493 -0.50791,-0.26632 -0.80078,-0.31054 -0.14704,-0.0222 -0.29725,-0.028 -0.44726,-0.0137 -0.15001,0.0144 -0.29975,0.0487 -0.44532,0.10352 -0.31739,0.11958 -0.57122,0.32171 -0.76953,0.54492 -0.19675,0.22147 -0.33643,0.4593 -0.45312,0.68555 -0.54416,1.055 -0.73114,2.20025 -0.88672,3.27344 -0.15533,1.07146 -0.29153,2.1069 -0.66602,3.01171 -0.0948,0.22913 -0.1971,0.42181 -0.3164,0.5586 -0.11453,0.13131 -0.25692,0.21539 -0.36719,0.23242 -0.0869,0.0134 -0.19342,-0.0116 -0.26367,-0.0586 -0.0696,-0.0466 -0.1291,-0.13442 -0.14649,-0.21289 -0.0213,-0.0962 -5.3e-4,-0.26103 0.0664,-0.46485 0.0683,-0.20804 0.18577,-0.46443 0.24609,-0.79883 0.0303,-0.16805 0.0444,-0.35614 0.0156,-0.55469 -0.029,-0.20054 -0.10083,-0.40704 -0.23828,-0.59375 -0.13976,-0.18984 -0.33774,-0.34579 -0.5918,-0.41797 -0.26012,-0.0739 -0.5452,-0.0504 -0.79883,0.10547 -0.18368,0.11291 -0.2976,0.26406 -0.375,0.4004 -0.0759,0.13371 -0.11437,0.25072 -0.14648,0.33789 -0.0199,0.0541 -0.0331,0.0795 -0.0449,0.10547 -0.0197,-0.008 -0.0379,-0.0108 -0.0742,-0.0391 -0.10822,-0.0842 -0.24882,-0.29501 -0.51758,-0.5332 -0.11104,-0.0984 -0.2328,-0.18523 -0.36328,-0.25586 a 0.53965946,0.53965946 0 0 0 -0.58984,0.041 l -0.0957,-0.082 -0.79687,-0.26173 -0.002,-0.002 -0.002,0.004 v 0.002 l 0.71289,0.59961 a 0.53965946,0.53965946 0 0 0 0.25977,0.64843 c 0.0577,0.0312 0.113,0.0698 0.16211,0.11328 0.11949,0.1059 0.26911,0.34373 0.57031,0.57813 0.15296,0.11903 0.34574,0.22888 0.58984,0.26953 0.25313,0.0421 0.53709,0.004 0.78321,-0.17969 0.14455,-0.10782 0.23415,-0.23479 0.29687,-0.34961 0.0618,-0.11318 0.096,-0.21174 0.12305,-0.28516 0.0209,-0.0568 0.0325,-0.0824 0.0469,-0.11523 0.009,0.0201 0.019,0.0341 0.0234,0.0645 0.008,0.0533 0.005,0.12463 -0.01,0.20703 -0.03,0.16654 -0.11847,0.38069 -0.20898,0.65625 -0.0919,0.27979 -0.18255,0.63436 -0.0937,1.03516 0.0802,0.36208 0.29415,0.67068 0.59961,0.875 0.30481,0.20389 0.67022,0.28396 1.0293,0.22852 0.43046,-0.0665 0.77052,-0.30882 1.01562,-0.58985 0.24033,-0.27555 0.3856,-0.57904 0.5,-0.85547 0.44824,-1.08303 0.583,-2.21188 0.73633,-3.26953 0.15307,-1.05593 0.3353,-2.07462 0.77734,-2.93164 0.0944,-0.18293 0.19175,-0.34212 0.30078,-0.46484 0.10749,-0.12098 0.23031,-0.20921 0.34375,-0.25195 0.10296,-0.0388 0.22924,-0.0517 0.35157,-0.0332 0.12354,0.0187 0.25116,0.0684 0.36718,0.14453 0.2329,0.15289 0.42815,0.42014 0.54688,0.73047 0.13099,0.34238 0.1808,0.74105 0.18164,1.15821 8.3e-4,0.41826 -0.047,0.86146 -0.082,1.33007 -0.035,0.46887 -0.0588,0.9658 0.0117,1.48243 0.0709,0.51933 0.24076,1.05677 0.58008,1.51953 0.13796,0.18815 0.30278,0.35381 0.48437,0.5 l 0.39258,0.41211 a 0.53965946,0.53965946 0 0 0 0.41406,0.17187 0.53965946,0.53965946 0 0 0 0.0234,0 0.53965946,0.53965946 0 0 0 0.37695,-0.14258 c 0.1217,0.11711 0.22197,0.26103 0.27539,0.41992 0.0607,0.1806 0.0717,0.38653 0.0293,0.57227 -0.0676,0.29585 -0.28193,0.59267 -0.57031,0.81836 -0.29373,0.22988 -0.67027,0.40139 -1.08203,0.55469 -0.41255,0.15359 -0.86736,0.29158 -1.33008,0.5 -0.46469,0.2093 -0.93926,0.4942 -1.3125,0.93164 -0.39843,0.46695 -0.63655,1.0667 -0.63477,1.69531 0.002,0.632 0.24878,1.25309 0.71289,1.70312 0.47787,0.46338 1.09376,0.66811 1.67188,0.74805 1.21933,0.16861 2.3758,-0.16749 3.41992,-0.48633 1.03995,-0.31756 2.0376,-0.62399 2.98242,-0.56054 0.26083,0.0175 0.50164,0.0641 0.70703,0.14843 0.20259,0.0832 0.37503,0.21009 0.48242,0.35547 0.0908,0.12295 0.14218,0.27089 0.14063,0.39649 -10e-4,0.11979 -0.0584,0.24493 -0.12695,0.30859 -0.0696,0.0646 -0.21438,0.13018 -0.41407,0.17578 -0.20365,0.0465 -0.47043,0.0765 -0.77539,0.1836 -0.15311,0.0538 -0.31516,0.12937 -0.46875,0.24218 -0.15489,0.11377 -0.29836,0.26217 -0.40039,0.45704 -0.10353,0.19772 -0.15793,0.42971 -0.125,0.67773 0.0336,0.25323 0.15539,0.49613 0.37696,0.66992 0.17713,0.13895 0.36558,0.19184 0.52539,0.2168 0.15672,0.0245 0.28215,0.0224 0.375,0.0234 0.14707,0.002 0.22111,0.0228 0.21875,0.0215 -0.007,-0.004 0.0184,0.0164 0.0312,0.0527 0.0151,0.0426 0.0233,0.11579 0.0137,0.20899 -0.0197,0.19065 -0.13433,0.46527 -0.19531,0.85156 -0.025,0.15852 -0.0334,0.31992 -0.0254,0.48047 a 0.53965946,0.53965946 0 0 0 0.31835,0.4707 l 0.0234,0.13477 0.44531,0.71289 0.006,-0.002 -0.002,-0.002 -0.14453,-0.80859 a 0.53965946,0.53965946 0 0 0 0.43164,-0.56055 c -0.004,-0.086 1.7e-4,-0.17248 0.0137,-0.25781 0.0328,-0.20805 0.16094,-0.50034 0.20313,-0.9082 0.0213,-0.20598 0.0131,-0.44072 -0.0723,-0.68164 -0.0876,-0.2472 -0.25213,-0.48455 -0.52148,-0.63477 -0.28645,-0.15975 -0.55229,-0.15619 -0.73047,-0.1582 -0.0996,-10e-4 -0.16502,-0.002 -0.20703,-0.008 0.0124,-0.0229 0.0379,-0.0569 0.0801,-0.0879 0.0445,-0.0327 0.10875,-0.0641 0.1875,-0.0918 0.15878,-0.0558 0.38268,-0.0875 0.65821,-0.15039 0.2795,-0.0638 0.61763,-0.16763 0.9082,-0.4375 0.31213,-0.2899 0.46577,-0.68623 0.4707,-1.08594 0.005,-0.3939 -0.13173,-0.75779 -0.34961,-1.05274 -0.24933,-0.33753 -0.58859,-0.56608 -0.9414,-0.71093 -0.35001,-0.1437 -0.70672,-0.20385 -1.04492,-0.22657 -1.21574,-0.0816 -2.34002,0.29062 -3.3711,0.60547 -1.0269,0.31358 -2.02939,0.57723 -2.95508,0.44922 -0.42736,-0.0591 -0.81751,-0.20988 -1.06835,-0.45312 -0.23741,-0.23021 -0.38379,-0.58648 -0.38477,-0.93164 -9.7e-4,-0.34856 0.13916,-0.71579 0.375,-0.99219 0.22632,-0.26524 0.55802,-0.4784 0.93555,-0.64844 0.37949,-0.17092 0.81055,-0.30396 1.26367,-0.47265 0.4539,-0.16899 0.93545,-0.37739 1.36914,-0.7168 0.43904,-0.3436 0.81886,-0.82309 0.95703,-1.42774 0.0875,-0.38296 0.0685,-0.78389 -0.0566,-1.15625 -0.12519,-0.37235 -0.35124,-0.70277 -0.65234,-0.95507 a 0.53965946,0.53965946 0 0 0 -0.0977,-0.0645 c 0.10451,-0.0838 0.21965,-0.15647 0.3457,-0.19531 0.29002,-0.0894 0.6545,-0.051 0.99414,0.0859 0.34595,0.13944 0.68285,0.3763 1.02149,0.65625 0.33928,0.28048 0.6858,0.60582 1.09765,0.90234 0.41361,0.29779 0.89744,0.56736 1.46289,0.67188 0.60361,0.11157 1.24166,0.017 1.78516,-0.29883 0.54644,-0.31755 0.96146,-0.84179 1.11914,-1.46875 0.16236,-0.64553 0.0323,-1.28163 -0.1875,-1.82227 -0.46364,-1.14027 -1.33268,-1.97198 -2.13086,-2.71679 -0.79499,-0.74184 -1.5591,-1.45278 -1.97656,-2.30274 -0.11525,-0.23464 -0.19689,-0.46746 -0.22656,-0.6875 -0.0293,-0.21703 -0.006,-0.43001 0.0664,-0.5957 0.0611,-0.14012 0.16584,-0.2569 0.27539,-0.31836 0.10448,-0.0586 0.24067,-0.0744 0.33008,-0.0469 0.0907,0.0279 0.22004,0.12136 0.35938,0.27149 0.1421,0.15312 0.30161,0.36955 0.54687,0.58008 0.12315,0.10571 0.26692,0.20855 0.44141,0.28515 0.17596,0.0773 0.37785,0.12628 0.59765,0.11719 0.22297,-0.009 0.45205,-0.0779 0.6504,-0.23047 0.20249,-0.15573 0.35089,-0.38137 0.39062,-0.66015 0.0318,-0.22287 -0.0159,-0.41358 -0.0742,-0.56446 -0.0571,-0.14791 -0.12245,-0.25501 -0.16797,-0.33594 -0.0721,-0.12818 -0.0899,-0.2019 -0.0898,-0.19921 1.1e-4,0.008 0.004,-0.0235 0.0293,-0.0527 0.0293,-0.0344 0.0883,-0.0789 0.17382,-0.11719 0.17497,-0.0782 0.47091,-0.11747 0.83594,-0.25781 0.14994,-0.0576 0.29276,-0.12969 0.42774,-0.21679 a 0.53965946,0.53965946 0 0 0 0.24414,-0.56055 l 0.21875,-0.0996 0.57422,-0.61719 z m -0.008,0.008 -0.56446,0.60742 -0.21875,0.0996 a 0.53965946,0.53965946 0 0 0 -0.14453,-0.27148 z m -21.86719,8.47852 0.78711,0.25975 0.0937,0.082 a 0.53965946,0.53965946 0 0 0 -0.17774,0.25 z m 17.02148,16.09375 a 0.53965946,0.53965946 0 0 0 0.31836,0.0351 l 0.14258,0.79883 -0.43945,-0.70312 z"
       id="path44"
       nostroke="true" />
  </g>
</svg>
