<svg width="340" height="546" viewBox="0 0 340 546" fill="none" xmlns="http://www.w3.org/2000/svg">
    <g xmlns="http://www.w3.org/2000/svg" id="x6-y0" class="LED">
        <path
            id="p06"
            d="M66.943 136.075C39.8604 160.512 21.4618 194.391 16.9342 232.527H2.9469C7.53684 189.19 28.6026 150.771 59.7682 123.648L66.943 136.075Z"
            fill="black" stroke="white" stroke-width="2" stroke-linejoin="round" />
    </g>
    <g xmlns="http://www.w3.org/2000/svg" id="x5-y0" class="LED">
        <path
            id="p05"
            d="M170.008 82.4208C211.523 82.4211 249.517 97.482 278.835 122.434L272.011 134.202C245.278 110.948 210.482 96.7203 172.374 96.2762L170.535 96.2655C131.812 96.2656 96.4126 110.497 69.2792 134.011L62.1298 121.627C90.857 97.5409 127.758 82.8867 168.071 82.4315L170.008 82.4208Z"
            fill="black" stroke="white" stroke-width="2" stroke-linejoin="round" />
    </g>
    <g xmlns="http://www.w3.org/2000/svg" id="x4-y0" class="LED">
        <path
            id="p04"
            d="M281.186 124.472C311.835 151.546 332.523 189.627 337.066 232.528H324.135C319.62 194.493 301.305 160.696 274.341 136.274L281.186 124.472Z"
            fill="black" stroke="white" stroke-width="2" stroke-linejoin="round" />
    </g>
    <g xmlns="http://www.w3.org/2000/svg" id="x7-y0" class="LED">
        <path
            id="p07"
            d="M16.6055 235.583C16.1062 240.64 15.8447 245.768 15.8447 250.956V372.43C15.8447 381.452 16.6199 390.294 18.1025 398.894H3.83203C2.62706 390.776 2.00002 382.469 2 374.015V250.428L2.01172 248.439C2.06236 244.112 2.28075 239.826 2.65234 235.583H16.6055Z"
            fill="black" stroke="white" stroke-width="2" stroke-linejoin="round" />
    </g>
    <g xmlns="http://www.w3.org/2000/svg" id="x3-y0" class="LED">
        <path
            id="p03"
            d="M337.361 235.583C337.79 240.475 338.015 245.426 338.015 250.428V374.015C338.015 382.469 337.387 390.776 336.182 398.894H322.967C324.449 390.294 325.226 381.452 325.226 372.43V250.956C325.226 245.768 324.964 240.64 324.465 235.583H337.361Z"
            fill="black" stroke="white" stroke-width="2" stroke-linejoin="round" />
    </g>
    <g xmlns="http://www.w3.org/2000/svg" id="x2-y0" class="LED">
        <path
            id="p02"
            d="M335.696 401.95C329.173 440.927 309.232 475.358 280.776 500.332L273.553 487.823C298.281 465.732 315.865 435.811 322.408 401.95H335.696Z"
            fill="black" stroke="white" stroke-width="2" stroke-linejoin="round" />
    </g>
    <g xmlns="http://www.w3.org/2000/svg" id="x1-y0" class="LED">
        <path
            id="p01"
            d="M69.4664 489.536C96.1472 512.583 130.787 526.67 168.707 527.11L170.536 527.12C208.983 527.12 244.153 513.089 271.21 489.874L278.418 502.36C249.156 527.101 211.327 542.022 170.007 542.022L168.065 542.01C127.639 541.552 90.6471 526.814 61.8863 502.607L69.4664 489.536Z"
            fill="black" stroke="white" stroke-width="2" stroke-linejoin="round" />
    </g>
    <g xmlns="http://www.w3.org/2000/svg" id="x0-y0" class="LED">
        <path
            id="p00"
            d="M18.6618 401.95C25.1708 435.633 42.6051 465.418 67.1286 487.475L59.5261 500.583C30.9169 475.59 10.8623 441.059 4.31708 401.95H18.6618Z"
            fill="black" stroke="white" stroke-width="2" stroke-linejoin="round" />
    </g>
    <g filter="url(#filter0_i_9_2)">
        <g filter="url(#filter1_i_9_2)">
            <rect x="162.833" width="9.33333" height="56" fill="black" />
        </g>
        <path
            d="M150 70.8333C150 61.9968 157.163 54.8333 166 54.8333H168C177.389 54.8333 185 62.4445 185 71.8333V119.233H150V70.8333Z"
            fill="#141414" />
        <path
            d="M168.6 108.205H164.236V106.73C164.236 106.39 164.295 106.11 164.411 105.891C164.526 105.672 164.684 105.51 164.886 105.405C165.088 105.3 165.317 105.248 165.574 105.248C165.832 105.248 166.059 105.3 166.258 105.405C166.457 105.51 166.613 105.672 166.727 105.889C166.839 106.106 166.895 106.384 166.895 106.722V107.915H166.418V106.739C166.418 106.506 166.384 106.319 166.316 106.177C166.248 106.033 166.151 105.929 166.026 105.865C165.9 105.8 165.749 105.767 165.574 105.767C165.4 105.767 165.247 105.8 165.116 105.865C164.986 105.931 164.885 106.035 164.814 106.179C164.741 106.322 164.705 106.512 164.705 106.748V107.677H168.6V108.205ZM166.64 106.151L168.6 105.077V105.691L166.64 106.748V106.151ZM168.6 102.501V103.055L164.236 101.452V100.907L168.6 99.3045V99.8585L164.927 101.162V101.197L168.6 102.501ZM166.895 102.296V100.063H167.364V102.296H166.895ZM168.6 97.0822H168.216L164.705 94.73V97.1078H164.236V94.0993H164.62L168.131 96.4516V94.0737H168.6V97.0822ZM168.6 91.4999H164.236V88.8663H164.705V90.9714H166.18V89.0027H166.648V90.9714H168.131V88.8322H168.6V91.4999ZM168.6 86.2264H164.236V84.752C164.236 84.4111 164.295 84.1312 164.411 83.9125C164.526 83.6937 164.684 83.5318 164.886 83.4267C165.088 83.3216 165.317 83.269 165.574 83.269C165.832 83.269 166.059 83.3216 166.258 83.4267C166.457 83.5318 166.613 83.693 166.727 83.9104C166.839 84.1277 166.895 84.4054 166.895 84.7435V85.9366H166.418V84.7605C166.418 84.5275 166.384 84.34 166.316 84.198C166.248 84.0545 166.151 83.9508 166.026 83.8869C165.9 83.8216 165.749 83.7889 165.574 83.7889C165.4 83.7889 165.247 83.8216 165.116 83.8869C164.986 83.9523 164.885 84.0567 164.814 84.2001C164.741 84.3436 164.705 84.5332 164.705 84.769V85.698H168.6V86.2264ZM166.64 84.1724L168.6 83.0986V83.7122L166.64 84.769V84.1724Z"
            fill="black" />
    </g>
    <path
        d="M21 253C21 170.157 88.1573 103 171 103C253.843 103 321 170.157 321 253V370C321 452.843 253.843 520 171 520C88.1573 520 21 452.843 21 370V253Z"
        fill="black" />
    <path
        d="M27 259.885C27 180.419 91.4195 116 170.885 116C250.35 116 314.77 180.419 314.77 259.885V372.115C314.77 451.581 250.35 516 170.885 516C91.4195 516 27 451.581 27 372.115V259.885Z"
        fill="#1A1A1A" />
    <path d="M178 370L154 398.5L167.5 401.5L160.5 422L186.5 392.5L173 390L178 370Z" fill="black" stroke="black" />
    <path
        d="M195.5 377L190.5 382.5C194.889 390.965 194.889 401.035 190.5 409.5L195.5 414C201.74 402.456 201.74 388.544 195.5 377Z"
        fill="black" stroke="black" />
    <path
        d="M203.5 366L198 371.5C208.204 386.056 208.204 405.444 198 420L203.5 425.5C215.341 407.434 215.341 384.066 203.5 366Z"
        fill="black" stroke="black" />
    <path
        d="M145.5 377L150.5 382.5C146.111 390.965 146.111 401.035 150.5 409.5L145.5 414C139.26 402.456 139.26 388.544 145.5 377Z"
        fill="black" stroke="black" />
    <path
        d="M137.5 366L143 371.5C132.796 386.056 132.796 405.444 143 420L137.5 425.5C125.659 407.434 125.659 384.066 137.5 366Z"
        fill="black" stroke="black" />
    <path d="M100 140V140C143.862 114.362 198.138 114.362 242 140V140" stroke="black" />
    <defs>
        <filter id="filter0_i_9_2" x="150" y="0" width="35" height="123.233" filterUnits="userSpaceOnUse"
            color-interpolation-filters="sRGB">
            <feFlood flood-opacity="0" result="BackgroundImageFix" />
            <feBlend mode="normal" in="SourceGraphic" in2="BackgroundImageFix" result="shape" />
            <feColorMatrix in="SourceAlpha" type="matrix" values="0 0 0 0 0 0 0 0 0 0 0 0 0 0 0 0 0 0 127 0"
                result="hardAlpha" />
            <feOffset dy="4" />
            <feGaussianBlur stdDeviation="2" />
            <feComposite in2="hardAlpha" operator="arithmetic" k2="-1" k3="1" />
            <feColorMatrix type="matrix" values="0 0 0 0 0 0 0 0 0 0 0 0 0 0 0 0 0 0 0.33 0" />
            <feBlend mode="normal" in2="shape" result="effect1_innerShadow_9_2" />
        </filter>
        <filter id="filter1_i_9_2" x="162.833" y="0" width="9.33331" height="60" filterUnits="userSpaceOnUse"
            color-interpolation-filters="sRGB">
            <feFlood flood-opacity="0" result="BackgroundImageFix" />
            <feBlend mode="normal" in="SourceGraphic" in2="BackgroundImageFix" result="shape" />
            <feColorMatrix in="SourceAlpha" type="matrix" values="0 0 0 0 0 0 0 0 0 0 0 0 0 0 0 0 0 0 127 0"
                result="hardAlpha" />
            <feOffset dy="12" />
            <feGaussianBlur stdDeviation="2" />
            <feComposite in2="hardAlpha" operator="arithmetic" k2="-1" k3="1" />
            <feColorMatrix type="matrix" values="0 0 0 0 0.0784314 0 0 0 0 0.0784314 0 0 0 0 0.0784314 0 0 0 1 0" />
            <feBlend mode="normal" in2="shape" result="effect1_innerShadow_9_2" />
        </filter>
    </defs>
</svg>