<svg width="24" height="24" version="1.1" viewBox="0 0 24 24" xmlns="http://www.w3.org/2000/svg"><g transform="matrix(2.5251 0 0 2.5251 -76.774 -2589)"><path d="m36.407 1032.7v.4374c0 .1634-.10437.3021-.25.3536v.1464c0 .207-.168.375-.37491.375h-1.25c-.20738 0-.37527-.168-.37527-.375v-.1465c-.14564-.051-.25-.1901-.25-.3535v-.4374c0-.1036.08395-.1874.1875-.1874h2.125c.10354 0 .1875.084.1875.1874zm-2.2502-3.9374c0-.5514.44858-1.0001.99999-1.0001.13808 0 .25-.1118.25-.25 0-.138-.11192-.25-.25-.25-.82712 0-1.5.6729-1.5 1.5001 0 .1381.11193.25.25.25.13807 0 .25-.1119.25-.25zm.99999-2.0001c1.1052 0 2 .8946 2 2.0001 0 1.2125-.5841.9449-1.2653 2.4999h-1.4692c-.68221-1.5574-1.2653-1.2836-1.2653-2.5001 0-1.1053.89458-2 2-2m0-.75c-1.5186 0-2.75 1.2313-2.75 2.75 0 1.5895.80778 1.4303 1.4143 3.0104.05545.1444.19484.2393.3496.2393h1.9721c.15478 0 .29416-.095.34962-.2394.60654-1.58 1.4142-1.4207 1.4142-3.0103 0-1.5187-1.2313-2.75-2.7498-2.75z" style="fill:#00ff00;stroke-width:.015625"/></g></svg>
