<?xml version="1.0" encoding="UTF-8" standalone="no"?>
<!-- Created with Inkscape (http://www.inkscape.org/) -->

<svg
   xmlns:dc="http://purl.org/dc/elements/1.1/"
   xmlns:cc="http://creativecommons.org/ns#"
   xmlns:rdf="http://www.w3.org/1999/02/22-rdf-syntax-ns#"
   xmlns:svg="http://www.w3.org/2000/svg"
   xmlns="http://www.w3.org/2000/svg"
   xmlns:sodipodi="http://sodipodi.sourceforge.net/DTD/sodipodi-0.dtd"
   xmlns:inkscape="http://www.inkscape.org/namespaces/inkscape"
   id="svg3014"
   height="22"
   width="23"
   version="1.1"
   inkscape:version="0.48.2 r9819"
   sodipodi:docname="redraw.svg"
   inkscape:export-filename="/home/sladen/h2/keyboard/redraw-23x22.png"
   inkscape:export-xdpi="90"
   inkscape:export-ydpi="90">
  <defs
     id="defs11" />
  <sodipodi:namedview
     pagecolor="#ffffff"
     bordercolor="#666666"
     borderopacity="1"
     objecttolerance="10"
     gridtolerance="10000"
     guidetolerance="10"
     inkscape:pageopacity="0"
     inkscape:pageshadow="2"
     inkscape:window-width="1400"
     inkscape:window-height="1026"
     id="namedview9"
     showgrid="false"
     inkscape:zoom="15.170655"
     inkscape:cx="16.682242"
     inkscape:cy="9.0726186"
     inkscape:window-x="0"
     inkscape:window-y="24"
     inkscape:window-maximized="1"
     inkscape:current-layer="svg3014"
     showguides="true">
    <inkscape:grid
       type="xygrid"
       id="grid3007"
       empspacing="5"
       visible="true"
       enabled="true"
       snapvisiblegridlinesonly="true" />
  </sodipodi:namedview>
  <metadata
     id="metadata3019">
    <rdf:RDF>
      <cc:Work
         rdf:about="">
        <dc:format>image/svg+xml</dc:format>
        <dc:type
           rdf:resource="http://purl.org/dc/dcmitype/StillImage" />
        <dc:title></dc:title>
      </cc:Work>
    </rdf:RDF>
  </metadata>
  <g
     id="g3951"
     transform="translate(23,0)">
    <path
       sodipodi:nodetypes="sssssssssssssssssssssssssssssssssssssssssssssssssssssssssssssssssssssssssssssssssssssssssssssssssssssssssssssssssssssssssssssssssssssss"
       style="opacity:0.3;color:#ffffff;fill:none;stroke:#3c3c3c;stroke-width:0.5;stroke-linecap:round;stroke-linejoin:miter;stroke-miterlimit:4;stroke-opacity:1;stroke-dasharray:none;stroke-dashoffset:0;marker:none;visibility:visible;display:inline;overflow:visible;enable-background:accumulate"
       d="m -21,5.2330507 c -1.108,0 -2,0.892 -2,2 l 0,8.0000013 c 0,1.108 0.892,2 2,2 l 19,0 c 1.108,0 2,-0.892 2,-2 L 0,7.2330507 c 0,-1.108 -0.892,-2 -2,-2 z m 1.5,1.7033747 1,0 c 0.276994,0 0.5,0.223 0.5,0.5 l 0,1.2966253 c 0,0.277 -0.223006,0.5 -0.5,0.5 l -1,0 c -0.276995,0 -0.5,-0.223 -0.5,-0.5 l 0,-1.2966253 c 0,-0.277 0.223005,-0.5 0.5,-0.5 z m 3,0 1,0 c 0.276994,0 0.5,0.223 0.5,0.5 l 0,1.2966253 c 0,0.277 -0.223006,0.5 -0.5,0.5 l -1,0 c -0.276995,0 -0.5,-0.223 -0.5,-0.5 l 0,-1.2966253 c 0,-0.277 0.223005,-0.5 0.5,-0.5 z m 3,0 1,0 c 0.276994,0 0.5,0.223 0.5,0.5 l 0,1.2966253 c 0,0.277 -0.223006,0.5 -0.5,0.5 l -1,0 c -0.276995,0 -0.5,-0.223 -0.5,-0.5 l 0,-1.2966253 c 0,-0.277 0.223005,-0.5 0.5,-0.5 z m 3,0 1,0 c 0.2769944,0 0.5,0.223 0.5,0.5 l 0,1.2966253 c 0,0.277 -0.2230056,0.5 -0.5,0.5 l -1,0 c -0.276994,0 -0.5,-0.223 -0.5,-0.5 l 0,-1.2966253 c 0,-0.277 0.223006,-0.5 0.5,-0.5 z m 3,0 1,0 c 0.2769944,0 0.5,0.223 0.5,0.5 l 0,1.2966253 c 0,0.277 -0.2230056,0.5 -0.5,0.5 l -1,0 c -0.2769945,0 -0.5,-0.223 -0.5,-0.5 l 0,-1.2966253 c 0,-0.277 0.2230055,-0.5 0.5,-0.5 z m 3,0 1,0 c 0.2769945,0 0.5,0.223 0.5,0.5 l 0,1.2966253 c 0,0.277 -0.2230055,0.5 -0.5,0.5 l -1,0 c -0.2769944,0 -0.5,-0.223 -0.5,-0.5 l 0,-1.2966253 c 0,-0.277 0.2230056,-0.5 0.5,-0.5 z m -15,3.0402707 2,0 c 0.276994,0 0.5,0.2229999 0.5,0.4999999 l 0,1.256356 c 0,0.277 -0.223006,0.5 -0.5,0.5 l -2,0 c -0.276994,0 -0.5,-0.223 -0.5,-0.5 l 0,-1.256356 c 0,-0.277 0.223006,-0.4999999 0.5,-0.4999999 z m 4,0 1,0 c 0.276994,0 0.5,0.2229999 0.5,0.4999999 l 0,1.256356 c 0,0.277 -0.223006,0.5 -0.5,0.5 l -1,0 c -0.276995,0 -0.5,-0.223 -0.5,-0.5 l 0,-1.256356 c 0,-0.277 0.223005,-0.4999999 0.5,-0.4999999 z m 3,0 1,0 c 0.276994,0 0.5,0.2229999 0.5,0.4999999 l 0,1.256356 c 0,0.277 -0.223006,0.5 -0.5,0.5 l -1,0 c -0.276995,0 -0.5,-0.223 -0.5,-0.5 l 0,-1.256356 c 0,-0.277 0.223005,-0.4999999 0.5,-0.4999999 z m 3,0 1,0 c 0.2769944,0 0.5,0.2229999 0.5,0.4999999 l 0,1.256356 c 0,0.277 -0.2230056,0.5 -0.5,0.5 l -1,0 c -0.2769945,0 -0.5,-0.223 -0.5,-0.5 l 0,-1.256356 c 0,-0.277 0.2230055,-0.4999999 0.5,-0.4999999 z m 3,0 3,0 c 0.2769945,0 0.5,0.2229999 0.5,0.4999999 l 0,1.256356 c 0,0.277 -0.2230055,0.5 -0.5,0.5 l -3,0 c -0.2769945,0 -0.5,-0.223 -0.5,-0.5 l 0,-1.256356 c 0,-0.277 0.2230055,-0.4999999 0.5,-0.4999999 z m -13,2.9999999 1,0 c 0.276994,0 0.5,0.223 0.5,0.5 l 0,1.256356 c 0,0.277 -0.223006,0.5 -0.5,0.5 l -1,0 c -0.276995,0 -0.5,-0.223 -0.5,-0.5 l 0,-1.256356 c 0,-0.277 0.223005,-0.5 0.5,-0.5 z m 3,0 10,0 c 0.2769945,0 0.5,0.223 0.5,0.5 l 0,1.256356 c 0,0.277 -0.2230055,0.5 -0.5,0.5 l -10,0 c -0.276995,0 -0.5,-0.223 -0.5,-0.5 l 0,-1.256356 c 0,-0.277 0.223005,-0.5 0.5,-0.5 z m 12,0 1,0 c 0.2769945,0 0.5,0.223 0.5,0.5 l 0,1.256356 c 0,0.277 -0.2230055,0.5 -0.5,0.5 l -1,0 c -0.2769944,0 -0.5,-0.223 -0.5,-0.5 l 0,-1.256356 c 0,-0.277 0.2230056,-0.5 0.5,-0.5 z"
       id="path3932"
       inkscape:connector-curvature="0" />
    <path
       sodipodi:nodetypes="sssssssssssssssssssssssssssssssssssssssssssssssssssssssssssssssssssssssssssssssssssssssssssssssssssssssssssssssssssssssssssssssssssssss"
       style="opacity:0.3;color:#ffffff;fill:#ffffff;fill-opacity:1;fill-rule:nonzero;stroke-width:1;stroke-linecap:butt;stroke-linejoin:miter;stroke-miterlimit:4;stroke-opacity:1;stroke-dasharray:none;stroke-dashoffset:0;marker:none;visibility:visible;display:inline;overflow:visible;enable-background:accumulate"
       d="m -21,6 c -1.108,0 -2,0.892 -2,2 l 0,8 c 0,1.108 0.892,2 2,2 l 19,0 c 1.108,0 2,-0.892 2,-2 L 0,8 C 0,6.892 -0.892,6 -2,6 z m 1.5,0 1,0 c 0.276994,0 0.5,0.223 0.5,0.5 l 0,1 c 0,0.277 -0.223006,0.5 -0.5,0.5 l -1,0 C -19.776995,8 -20,7.777 -20,7.5 l 0,-1 C -20,6.223 -19.776995,6 -19.5,6 z m 3,0 1,0 c 0.276994,0 0.5,0.223 0.5,0.5 l 0,1 c 0,0.277 -0.223006,0.5 -0.5,0.5 l -1,0 C -16.776995,8 -17,7.777 -17,7.5 l 0,-1 C -17,6.223 -16.776995,6 -16.5,6 z m 3,0 1,0 c 0.276994,0 0.5,0.223 0.5,0.5 l 0,1 c 0,0.277 -0.223006,0.5 -0.5,0.5 l -1,0 C -13.776995,8 -14,7.777 -14,7.5 l 0,-1 C -14,6.223 -13.776995,6 -13.5,6 z m 3,0 1,0 C -9.2230056,6 -9,6.223 -9,6.5 l 0,1 C -9,7.777 -9.2230056,8 -9.5,8 l -1,0 C -10.776994,8 -11,7.777 -11,7.5 l 0,-1 C -11,6.223 -10.776994,6 -10.5,6 z m 3,0 1,0 C -6.2230056,6 -6,6.223 -6,6.5 l 0,1 C -6,7.777 -6.2230056,8 -6.5,8 l -1,0 C -7.7769945,8 -8,7.777 -8,7.5 l 0,-1 C -8,6.223 -7.7769945,6 -7.5,6 z m 3,0 1,0 C -3.2230055,6 -3,6.223 -3,6.5 l 0,1 C -3,7.777 -3.2230055,8 -3.5,8 l -1,0 C -4.7769944,8 -5,7.777 -5,7.5 l 0,-1 C -5,6.223 -4.7769944,6 -4.5,6 z m -15,3 2,0 c 0.276994,0 0.5,0.223 0.5,0.5 l 0,1 c 0,0.277 -0.223006,0.5 -0.5,0.5 l -2,0 c -0.276994,0 -0.5,-0.223 -0.5,-0.5 l 0,-1 C -20,9.223 -19.776994,9 -19.5,9 z m 4,0 1,0 c 0.276994,0 0.5,0.223 0.5,0.5 l 0,1 c 0,0.277 -0.223006,0.5 -0.5,0.5 l -1,0 c -0.276995,0 -0.5,-0.223 -0.5,-0.5 l 0,-1 C -16,9.223 -15.776995,9 -15.5,9 z m 3,0 1,0 c 0.276994,0 0.5,0.223 0.5,0.5 l 0,1 c 0,0.277 -0.223006,0.5 -0.5,0.5 l -1,0 c -0.276995,0 -0.5,-0.223 -0.5,-0.5 l 0,-1 C -13,9.223 -12.776995,9 -12.5,9 z m 3,0 1,0 C -8.2230056,9 -8,9.223 -8,9.5 l 0,1 c 0,0.277 -0.2230056,0.5 -0.5,0.5 l -1,0 C -9.7769945,11 -10,10.777 -10,10.5 l 0,-1 C -10,9.223 -9.7769945,9 -9.5,9 z m 3,0 3,0 C -3.2230055,9 -3,9.223 -3,9.5 l 0,1 c 0,0.277 -0.2230055,0.5 -0.5,0.5 l -3,0 C -6.7769945,11 -7,10.777 -7,10.5 l 0,-1 C -7,9.223 -6.7769945,9 -6.5,9 z m -13,3 1,0 c 0.276994,0 0.5,0.223 0.5,0.5 l 0,1 c 0,0.277 -0.223006,0.5 -0.5,0.5 l -1,0 c -0.276995,0 -0.5,-0.223 -0.5,-0.5 l 0,-1 c 0,-0.277 0.223005,-0.5 0.5,-0.5 z m 3,0 10,0 c 0.2769945,0 0.5,0.223 0.5,0.5 l 0,1 c 0,0.277 -0.2230055,0.5 -0.5,0.5 l -10,0 c -0.276995,0 -0.5,-0.223 -0.5,-0.5 l 0,-1 c 0,-0.277 0.223005,-0.5 0.5,-0.5 z m 12,0 1,0 c 0.2769945,0 0.5,0.223 0.5,0.5 l 0,1 c 0,0.277 -0.2230055,0.5 -0.5,0.5 l -1,0 C -4.7769944,14 -5,13.777 -5,13.5 l 0,-1 C -5,12.223 -4.7769944,12 -4.5,12 z"
       id="path3101"
       inkscape:connector-curvature="0" />
    <path
       inkscape:connector-curvature="0"
       id="path3081"
       d="m -21,5 c -1.108,0 -2,0.892 -2,2 l 0,8 c 0,1.108 0.892,2 2,2 l 19,0 c 1.108,0 2,-0.892 2,-2 L 0,7 C 0,5.892 -0.892,5 -2,5 l -19,0 z m 1.5,2 1,0 c 0.276994,0 0.5,0.223 0.5,0.5 l 0,1 c 0,0.277 -0.223006,0.5 -0.5,0.5 l -1,0 C -19.776995,9 -20,8.777 -20,8.5 l 0,-1 C -20,7.223 -19.776995,7 -19.5,7 z m 3,0 1,0 c 0.276994,0 0.5,0.223 0.5,0.5 l 0,1 c 0,0.277 -0.223006,0.5 -0.5,0.5 l -1,0 C -16.776995,9 -17,8.777 -17,8.5 l 0,-1 C -17,7.223 -16.776995,7 -16.5,7 z m 3,0 1,0 c 0.276994,0 0.5,0.223 0.5,0.5 l 0,1 c 0,0.277 -0.223006,0.5 -0.5,0.5 l -1,0 C -13.776995,9 -14,8.777 -14,8.5 l 0,-1 C -14,7.223 -13.776995,7 -13.5,7 z m 3,0 1,0 C -9.2230056,7 -9,7.223 -9,7.5 l 0,1 C -9,8.777 -9.2230056,9 -9.5,9 l -1,0 C -10.776994,9 -11,8.777 -11,8.5 l 0,-1 C -11,7.223 -10.776994,7 -10.5,7 z m 3,0 1,0 C -6.2230056,7 -6,7.223 -6,7.5 l 0,1 C -6,8.777 -6.2230056,9 -6.5,9 l -1,0 C -7.7769945,9 -8,8.777 -8,8.5 l 0,-1 C -8,7.223 -7.7769945,7 -7.5,7 z m 3,0 1,0 C -3.2230055,7 -3,7.223 -3,7.5 l 0,1 C -3,8.777 -3.2230055,9 -3.5,9 l -1,0 C -4.7769944,9 -5,8.777 -5,8.5 l 0,-1 C -5,7.223 -4.7769944,7 -4.5,7 z m -15,3 2,0 c 0.276994,0 0.5,0.223 0.5,0.5 l 0,1 c 0,0.277 -0.223006,0.5 -0.5,0.5 l -2,0 c -0.276994,0 -0.5,-0.223 -0.5,-0.5 l 0,-1 c 0,-0.277 0.223006,-0.5 0.5,-0.5 z m 4,0 1,0 c 0.276994,0 0.5,0.223 0.5,0.5 l 0,1 c 0,0.277 -0.223006,0.5 -0.5,0.5 l -1,0 c -0.276995,0 -0.5,-0.223 -0.5,-0.5 l 0,-1 c 0,-0.277 0.223005,-0.5 0.5,-0.5 z m 3,0 1,0 c 0.276994,0 0.5,0.223 0.5,0.5 l 0,1 c 0,0.277 -0.223006,0.5 -0.5,0.5 l -1,0 c -0.276995,0 -0.5,-0.223 -0.5,-0.5 l 0,-1 c 0,-0.277 0.223005,-0.5 0.5,-0.5 z m 3,0 1,0 c 0.2769944,0 0.5,0.223 0.5,0.5 l 0,1 c 0,0.277 -0.2230056,0.5 -0.5,0.5 l -1,0 C -9.7769945,12 -10,11.777 -10,11.5 l 0,-1 c 0,-0.277 0.2230055,-0.5 0.5,-0.5 z m 3,0 3,0 c 0.2769945,0 0.5,0.223 0.5,0.5 l 0,1 c 0,0.277 -0.2230055,0.5 -0.5,0.5 l -3,0 C -6.7769945,12 -7,11.777 -7,11.5 l 0,-1 C -7,10.223 -6.7769945,10 -6.5,10 z m -13,3 1,0 c 0.276994,0 0.5,0.223 0.5,0.5 l 0,1 c 0,0.277 -0.223006,0.5 -0.5,0.5 l -1,0 c -0.276995,0 -0.5,-0.223 -0.5,-0.5 l 0,-1 c 0,-0.277 0.223005,-0.5 0.5,-0.5 z m 3,0 10,0 c 0.2769945,0 0.5,0.223 0.5,0.5 l 0,1 c 0,0.277 -0.2230055,0.5 -0.5,0.5 l -10,0 c -0.276995,0 -0.5,-0.223 -0.5,-0.5 l 0,-1 c 0,-0.277 0.223005,-0.5 0.5,-0.5 z m 12,0 1,0 c 0.2769945,0 0.5,0.223 0.5,0.5 l 0,1 c 0,0.277 -0.2230055,0.5 -0.5,0.5 l -1,0 C -4.7769944,15 -5,14.777 -5,14.5 l 0,-1 C -5,13.223 -4.7769944,13 -4.5,13 z"
       style="fill:#3c3c3c" />
  </g>
</svg>
