<svg height="48" viewBox="0 0 48 48" width="48" xmlns="http://www.w3.org/2000/svg"><path d="m17.101 24c5.0818 0 9.2004-4.1186 9.2004-9.2004s-4.1186-9.2004-9.2004-9.2004-9.2004 4.1186-9.2004 9.2004 4.1186 9.2004 9.2004 9.2004zm6.4403 2.3001h-1.2004c-1.5957.73316-3.3711 1.15-5.2399 1.15s-3.637-.41689-5.2399-1.15h-1.2004c-5.3333 0-9.6604 4.327-9.6604 9.6604v2.9901c0 1.9048 1.5454 3.4501 3.4501 3.4501h19.759c-.1725-.48877-.24438-1.0063-.18688-1.531l.48877-4.3774.08625-.79785 6.124-6.124c-1.761-1.991-4.3127-3.2704-7.1806-3.2704zm3.2561 10.444-.48877 4.3845c-.07906.73315.53908 1.3513 1.265 1.265l4.3774-.48877 9.912-9.912-5.1536-5.1536zm19.702-11.817-2.7242-2.7242c-.66847-.66846-1.761-.66846-2.4295 0l-3.0117 3.0117 5.1608 5.1536 3.0045-3.0045c.66846-.67565.66846-1.761 0-2.4367z" fill="#00ff00" stroke-width=".071878"/></svg>