<svg width="24" height="24" version="1.1" viewBox="0 0 24 24" xmlns="http://www.w3.org/2000/svg"><path d="m23 4.2647v15.469c0 .28359-.23203.51562-.51562.51562h-1.7188c-.28359 0-.51562-.23203-.51562-.51562v-6.527l-7.3691 6.7246c-.88516.73906-2.2559.12031-2.2559-1.057v-5.6676l-7.3691 6.7246c-.88516.73906-2.2559.12031-2.2559-1.057v-13.75c0-1.1773 1.3707-1.7918 2.2559-1.057l7.3691 6.6773v-5.6203c0-1.1773 1.3707-1.7918 2.2559-1.057l7.3691 6.6773v-6.4797c0-.28359.23203-.51562.51562-.51562h1.7188c.28359 0 .51562.23203.51562.51562z" style="fill:#00ff00;stroke-width:.042969"/></svg>
