<svg width="48" height="48" version="1.1" viewBox="0 0 48 48" xmlns="http://www.w3.org/2000/svg">
  <path d="m45.884 22.231-5.2188-2.3655-14.522 6.5826c-.67919.30815-1.4006.46447-2.1436.46447s-1.4635-.1564-2.1436-.46447l-14.521-6.5826-5.2197 2.3655c-1.4869.67381-1.4869 2.9198 0 3.5936l20.927 9.4863c.61091.2767 1.3018.2767 1.9127 0l20.928-9.4863c1.4869-.67381 1.4869-2.9198 0-3.5936zm0 11.482-5.199-2.3565-14.542 6.5916c-.67919.30814-1.4006.46447-2.1436.46447s-1.4635-.1564-2.1436-.46447l-14.541-6.5916-5.1999 2.3565c-1.4869.67381-1.4869 2.9198 0 3.5936l20.927 9.4863c.61091.2767 1.3018.2767 1.9127 0l20.928-9.4863c1.4869-.67381 1.4869-2.9198 0-3.5936z" style="fill-opacity:.98853;fill:#808080;stroke-width:.08984"/>
  <path d="m2.1162 14.299 20.927 9.4934c.61091.27762 1.3018.27762 1.9127 0l20.927-9.4934c1.4869-.67471 1.4869-2.9216 0-3.5964l-20.926-9.4944c-.60734-.2776-1.3054-.2776-1.9127 0l-20.928 9.4934c-1.4869.67471-1.4869 2.9225 0 3.5971z" style="fill-opacity:.99771;fill:#00ff00;stroke-width:.08984"/>
</svg>
