<svg width="24" height="24" version="1.1" viewBox="0 0 24 24" xmlns="http://www.w3.org/2000/svg"><g transform="matrix(.43478 0 0 .43478 1.565 12.584)" stroke-width=".089842" style="fill-opacity:.4;fill:#808080;stroke-opacity:.25;stroke-width:2.3;stroke:#808080"><path d="m2.1161 14.299 20.928 9.4936c.61092.27763 1.3018.27763 1.9127 0l20.928-9.4936c1.4869-.67472 1.4869-2.9217 0-3.5965l-20.927-9.4946c-.60736-.27758-1.3054-.27758-1.9127 0l-20.929 9.4936c-1.4869.67472-1.4869 2.9226 0 3.5972z" fill="#808080" style="fill-opacity:.4;fill:#808080;stroke-opacity:.25;stroke-width:2.3;stroke:#808080"/></g><g transform="matrix(.43478 0 0 .43478 1.565 6.5651)" stroke-width=".089842" style="fill-opacity:.5;fill:#808080;stroke-opacity:.25098;stroke-width:2.3;stroke:#808080"><path d="m2.1161 14.299 20.928 9.4936c.61092.27763 1.3018.27763 1.9127 0l20.928-9.4936c1.4869-.67472 1.4869-2.9217 0-3.5965l-20.927-9.4946c-.60736-.27758-1.3054-.27758-1.9127 0l-20.929 9.4936c-1.4869.67472-1.4869 2.9226 0 3.5972z" style="fill-opacity:.5;fill:#808080;stroke-opacity:.25098;stroke-width:2.3;stroke:#808080"/></g><g transform="matrix(.43478 0 0 .43478 1.5649 1.5653)" stroke-width=".089842" style="fill-opacity:.7;fill:#00ff00;stroke-opacity:.25098;stroke-width:2.3;stroke:#00ff00"><path d="m2.1161 14.299 20.928 9.4936c.61092.27763 1.3018.27763 1.9127 0l20.928-9.4936c1.4869-.67472 1.4869-2.9217 0-3.5965l-20.927-9.4946c-.60736-.27758-1.3054-.27758-1.9127 0l-20.929 9.4936c-1.4869.67472-1.4869 2.9226 0 3.5972z" fill="#00ff00" style="fill-opacity:.7;fill:#00ff00;stroke-opacity:.25098;stroke-width:2.3;stroke:#00ff00"/></g></svg>
