<svg height="48" viewBox="0 0 48 48" width="48" xmlns="http://www.w3.org/2000/svg"><!-- Font Awesome Free 5.15 by @fontawesome - https://fontawesome.com License - https://fontawesome.com/license/free (Icons: CC BY 4.0) - This icon is remixed from the original --><g fill-opacity=".98853" stroke-width=".089842"><path d="m45.885 22.231-5.2189-2.3655-14.522 6.5828c-.67921.30815-1.4006.46448-2.1436.46448-.74299 0-1.4635-.1564-2.1436-.46448l-14.521-6.5828-5.2198 2.3655c-1.4869.67382-1.4869 2.9198 0 3.5937l20.928 9.4865c.61092.27671 1.3018.27671 1.9127 0l20.929-9.4865c1.4869-.67383 1.4869-2.9198 0-3.5937z" fill="#00ff00"/><path d="m2.1161 14.299 20.928 9.4936c.61092.27763 1.3018.27763 1.9127 0l20.928-9.4936c1.4869-.67472 1.4869-2.9217 0-3.5965l-20.927-9.4946c-.60736-.27758-1.3054-.27758-1.9127 0l-20.929 9.4936c-1.4869.67472-1.4869 2.9226 0 3.5972zm43.769 19.413-5.1991-2.3566-14.542 6.5918c-.67921.30815-1.4006.46448-2.1436.46448-.74299 0-1.4635-.1564-2.1436-.46448l-14.541-6.5918-5.2 2.3566c-1.4869.67383-1.4869 2.9198 0 3.5937l20.928 9.4865c.61092.27671 1.3018.27671 1.9127 0l20.929-9.4865c1.4869-.67382 1.4869-2.9198 0-3.5937z" fill="#808080"/></g></svg>
