<svg height="24" viewBox="0 0 24 24" width="24" xmlns="http://www.w3.org/2000/svg"><!-- Font Awesome Free 5.15 by @fontawesome - https://fontawesome.com License - https://fontawesome.com/license/free (Icons: CC BY 4.0) - This icon is remixed from the original --><path d="m8.5245 14.084c-1.5672.10078-2.9894.69764-3.7964 2.8242-.091795.24258-.31249.38984-.56991.38984-.43398 0-1.7757-1.0808-2.1582-1.3418.0003906 3.2167 1.482 6.044 5.0003 6.044 2.9632 0 4.9999-1.7097 4.9999-4.6948 0-.12148-.02539-.2375-.03789-.35663zm11.362-12.084c-.59218 0-1.1472.2621-1.5707.64257-7.9846 7.1327-8.8155 7.3002-8.8155 9.3998 0 .53515.12695 1.0453.34101 1.5117l2.4929 2.0773c.28164.0703.57186.11835.87459.11835 2.4261 0 3.8323-1.7761 8.2483-10.018.288-.5598.543-1.1652.543-1.7957 0-1.1293-1.016-1.9355-2.114-1.9355z" fill="#00FF00" stroke-width=".039062"/></svg>
