<svg width="24" height="24" version="1.1" viewBox="0 0 24 24" xmlns="http://www.w3.org/2000/svg"><!-- Font Awesome Free 5.15 by @fontawesome - https://fontawesome.com License - https://fontawesome.com/license/free (Icons: CC BY 4.0) - This icon is remixed from the original --><path d="m2.991 19.272c.07131-.40538.10742-.71163.31607-1.0737.20866-.36211.68251-.78009.92526-1.1125.6748-.924 5.41-5.2618 5.41-5.2618l6.4105-1.5563s-7.11 8.9099-10.264 10.412c-.46327.22068-1.0337.26383-1.5327.14402-.3789-.091-.7767-.298-.9871-.625-.1481-.231-.3254-.657-.2779-.927z" fill="#00ff00" fill-rule="evenodd" style="fill:#008000"/><g fill="#808080" style="fill:#00ff00"><path d="m18.978 2.6729c-.58933 2e-7-1.179.2225-1.6281.67162l-14.074 14.074c-.74254.74254-.8603 1.8643-.37518 2.7397-.068964.01647-.13589.04557-.18991.09959l-.62761.6253c-.1554.1554-.1554.40737 0 .56277l.43771.43771c.1554.1554.40505.1554.56045 0l.62761-.62761c.055568-.05557.083756-.12571.099585-.19685.87303.47449 1.9856.35347 2.7235-.38444l14.072-14.073c.89824-.89824.89824-2.3579 0-3.2562-.44912-.44912-1.0364-.67162-1.6258-.67162zm0 .58593c.43596 0 .86998.16825 1.2066.50487.67324.67324.67324 1.7446 0 2.4178l-14.072 14.074c-.67324.67324-1.7446.67324-2.4178 0-.67324-.67324-.67324-1.7446 0-2.4178l14.074-14.074c.33662-.33662.77294-.50487 1.2089-.50487z" style="fill:#00ff00"/><rect transform="matrix(.70711 .70711 -.70711 .70711 0 0)" x="12.287" y="-8.6253" width="9.425" height="1.7191" ry=".85957" style="fill:#00ff00"/><path d="m20.103 8.1299c-1.958-1.958-2.041-2.0239-4.202-4.1823.87798-.87797 3.1635-3.1968 5.2763-1.084 2.0911 2.0911-.19606 4.3883-1.074 5.2663z" style="fill:#00ff00"/></g></svg>
