<svg height="24" viewBox="0 0 24 24" width="24" xmlns="http://www.w3.org/2000/svg"><!-- Font Awesome Free 5.15 by @fontawesome - https://fontawesome.com License - https://fontawesome.com/license/free (Icons: CC BY 4.0) - This icon is remixed from the original --><path d="m20.71 10.019c.65356 2.4567.28331 4.9455-.84868 7.013l1.678.9688c.71035.41015.57024 1.4744-.22206 1.6867l-4.9675 1.331c-.49116.1316-.99599-.15986-1.1276-.65102l-1.331-4.9675c-.2123-.7923.63928-1.4457 1.3497-1.0356l1.9615 1.1325c.7644-1.4306.96104-3.0694.55334-4.6452-.887-3.4312-4.431-5.5748-7.9606-4.5973-3.3482.92724-5.435 4.4023-4.5035 7.8786.40834 1.5239 1.3382 2.8185 2.6382 3.6867.20128.13444.26302.40237.14202.612l-1.0759 1.8634c-.13216.2289-.42887.29884-.65076.15523-1.9083-1.234-3.3832-3.154-4.0179-5.522-1.3599-5.0757 1.652-10.292 6.7271-11.652 5.0694-1.3587 10.307 1.6719 11.656 6.744z" stroke-width=".038362" fill="#00ff00"/></svg>
