<svg height="24" viewBox="0 0 24 24" width="24" xmlns="http://www.w3.org/2000/svg"><!-- Font Awesome Free 5.15 by @fontawesome - https://fontawesome.com License - https://fontawesome.com/license/free (Icons: CC BY 4.0) - This icon is remixed from the original --><g stroke-width=".044642" transform="matrix(.86774 0 0 1 .25609 .000097)"><path d="m.8573 21.464v-18.928c0-.29464.24106-.5357.5357-.5357h2.1428c.29464 0 .5357.24106.5357.5357v7.875l8.7275-8.0804c.91962-.76337 2.3437-.125 2.3437 1.0982v17.142c0 1.2232-1.4241 1.8616-2.3437 1.0982l-8.7275-8.031v7.8257c0 .29464-.24106.5357-.5357.5357h-2.1428c-.29463 0-.5357-.24106-.5357-.5357z" fill="#00ff00"/><path d="m15.139 10.411 8.7275-8.0804c.91962-.76337 2.3437-.125 2.3437 1.0982v17.142c0 1.2232-1.4241 1.8616-2.3437 1.0982l-8.7275-8.031c-1.7448-1.6055-2.1163-1.2676 0-3.227z" fill="#00ff00"/></g></svg>
