<svg width="24" height="24" version="1.1" viewBox="0 0 24 24" xmlns="http://www.w3.org/2000/svg">
<path d="m10.716 19.983-1.9061-.55307c-.19998-.056272-.31247-.2656-.25622-.46558l4.2652-14.692c.05625-.19999.2656-.31248.46558-.25623l1.9061.55307c.19998.056272.31247.2656.25622.46558l-4.2652 14.692c-.05937.19999-.2656.3156-.46558.25623zm-3.5621-3.5059 1.3592-1.4499c.14373-.15311.13436-.39683-.024998-.53745l-2.831-2.4904 2.831-2.4904c.15936-.14062.17186-.38434.024998-.53745l-1.3592-1.4499c-.14062-.14998-.37809-.15935-.5312-.015636l-4.5027 4.2184c-.15936.14686-.15936.39997 0 .54683l4.5027 4.2215c.15311.14373.39058.13748.5312-.01564zm10.224.01873 4.5026-4.2215c.15936-.14686.15936-.39997 0-.54683l-4.5026-4.2246c-.14999-.14061-.38747-.13436-.5312.015636l-1.3592 1.4499c-.14373.15311-.13436.39683.025.53745l2.831 2.4935-2.831 2.4904c-.15936.14062-.17186.38434-.025.53744l1.3592 1.4499c.14062.15311.37808.15936.5312.01873z" fill="#00ff00" stroke-width=".031247"/>
</svg>
