<svg width="24" height="24" version="1.1" viewBox="0 0 24 24" xmlns="http://www.w3.org/2000/svg"><!-- Font Awesome Free 5.15 by @fontawesome - https://fontawesome.com License - https://fontawesome.com/license/free (Icons: CC BY 4.0) - This icon is remixed from the original --><path d="m20.25 6.2397v.26035h-5.5v-5.5h.26035c.2735 0 .53582.10867.72922.30203l4.2084 4.2084a1.0315 1.0315 0 01.30203.72922zm-5.8438 1.6353c-.56719 0-1.0312-.46406-1.0312-1.0312v-5.8438h-8.5938c-.56955 0-1.0312.4617-1.0312 1.0312v19.938c0 .56955.4617 1.0312 1.0312 1.0312h14.438c.56955 0 1.0312-.4617 1.0312-1.0312v-14.094zm-5.3622 10.334a.23203.23203 0 01-.32798.01057l-2.7872-2.613a.23203.23203 0 010-.33855l2.7872-2.613a.23203.23203 0 01.32798.01057l.84129.8974a.23203.23203 0 01-.015984.33288l-1.7515 1.5415 1.7515 1.5415a.23203.23203 0 01.015984.33288zm2.2041 2.169-1.1796-.34246a.23212.23212 0 01-.15817-.28755l2.64-9.0933a.23212.23212 0 01.28755-.15817l1.1796.34246a.23203.23203 0 01.15812.28755l-2.64 9.0933a.2319.2319 0 01-.28746.15817zm6.909-4.7715-2.7872 2.613a.23203.23203 0 01-.32798-.010567l-.84133-.8974a.23203.23203 0 01.01598-.33288l1.7516-1.5414-1.7515-1.5415a.23203.23203 0 01-.01598-.33288l.84133-.8974a.23203.23203 0 01.32798-.01057l2.7872 2.613a.23203.23203 0 01-4.3e-5.33855z" fill="#00ff00" style="stroke-width:.042969"/></svg>
