<svg width="24" height="24" version="1.1" viewBox="0 0 24 24" xmlns="http://www.w3.org/2000/svg"><rect x="2.2927" y="11.032" width="20.127" height="12.185" style="fill-rule:evenodd;fill:#008000;paint-order:markers fill stroke;stroke-linecap:round;stroke:#00ff00"/><path d="m21.092.89753-19.396 5.373.59766 2.1543v2.6074h20.127v-2.7109h-17.977l17.373-4.8105z" style="fill-rule:evenodd;fill:#008000;paint-order:markers fill stroke;stroke-linecap:round;stroke:#00ff00"/><g transform="translate(.18569 .88581)"><path d="m5.1742 10.24 1.4607-2.5301" style="fill-rule:evenodd;fill:#008000;stroke-width:1px;stroke:#00ff00"/><path d="m8.1989 10.176 1.4607-2.5301" style="fill-rule:evenodd;fill:#008000;stroke-width:1px;stroke:#00ff00"/><path d="m11.224 10.152 1.4607-2.5301" style="fill-rule:evenodd;fill:#008000;stroke-width:1px;stroke:#00ff00"/><path d="m14.248 10.19 1.4607-2.5301" style="fill-rule:evenodd;fill:#008000;stroke-width:1px;stroke:#00ff00"/><path d="m17.273 10.002 1.4607-2.5301" style="fill-rule:evenodd;fill:#008000;stroke-width:1px;stroke:#00ff00"/><path d="m21.845 8.489-.39905 1.232-.86195-.019599 1.273-2.2407" style="fill-rule:evenodd;fill:#008000;stroke-width:1px;stroke:#00ff00"/><path d="m21.116 3.0206-.21903-2.5675-.70296 2.553" style="fill-rule:evenodd;fill:#008000;stroke-width:1px;stroke:#00ff00"/><path d="m18.129 1.0287-.75613 2.8219" style="fill-rule:evenodd;fill:#008000;stroke-width:1px;stroke:#00ff00"/><path d="m15.234 1.8342-.75613 2.8219" style="fill-rule:evenodd;fill:#008000;stroke-width:1px;stroke:#00ff00"/><path d="m12.339 2.5806-.75613 2.8219" style="fill-rule:evenodd;fill:#008000;stroke-width:1px;stroke:#00ff00"/><path d="m9.444 3.3225-.75613 2.8219" style="fill-rule:evenodd;fill:#008000;stroke-width:1px;stroke:#00ff00"/><path d="m6.5491 3.9609-.75613 2.8219" style="fill-rule:evenodd;fill:#008000;stroke-width:1px;stroke:#00ff00"/></g><circle cx="3.383" cy="7.1599" r=".5" style="fill-rule:evenodd;fill:#00ff00;paint-order:markers fill stroke"/><g transform="matrix(.16812 0 0 .16812 5.9548 -152.59)" fill="#00ff00" stroke-width="9.0643" style="fill:#00ff00;opacity:.5"><path d="m17.393 987.38v17.155h38.598v-17.155l-38.598 2e-5zm2.1444 2.1444 34.31-2e-5v12.866h-34.31z" fill-rule="evenodd" style="fill:#00ff00"/><g transform="translate(-2.7033)" style="fill:#00ff00"><path d="m58.373 998.37c1.247-.0939 2.5393.23294 3.5918.9082 1.0525.67527 1.8898 1.716 2.3242 2.8887.494 1.3333.46925 2.8796-.08789 4.1718-.55568 1.2889-1.6697 2.3616-2.9746 2.8379-1.4128.5157-3.0926.3892-4.7617.039-1.6776-.3513-3.4283-.9237-5.3477-1.0684-3.2803-.2472-6.6068.8899-9.0508 3.0918l-.68555.6172 1.2344 1.3711.68555-.6172c2.0557-1.852 4.9186-2.831 7.6777-2.623 1.629.1227 3.3022.6551 5.1074 1.0332 1.8137.3804 3.8436.595 5.7734-.1094 1.813-.6617 3.2787-2.0828 4.0371-3.8418.75692-1.7556.7822-3.7658.12305-5.5449-.57702-1.5573-1.6607-2.902-3.0586-3.7988-1.3979-.89682-3.0704-1.32-4.7266-1.1953z" fill-rule="evenodd" style="fill:#00ff00"/><path d="m36.279 1011.3c-2.2045 2.6228-3.7169 5.967-4.3045 8.9803-.84885 1.8309-1.3302 2.9128-1.6963 4.218-.93162 2.925.78 6.1575 3.9052 7.4053 3.1271 1.2486 6.6182.088 7.998-2.6596 1.0092-1.8133 1.3122-3.0808 1.7022-4.1108 1.5547-3.3521 3.3309-6.4565 3.2844-9.6169-1.3772-1.5215-3.1115-2.9005-4.7846-3.6043-2.1252-.584-4.2434-1.2207-6.1044-.612zm9.0301 4.911c-.04511 2.3598-1.4148 5.1393-3.0876 8.1003-.68639 1.3785-1.0675 2.9116-1.7006 4.1116-.9122 1.8231-3.3182 2.7057-5.6423 1.7778-2.7059-1.0099-3.3257-3.4151-2.8175-5.1938.59747-1.7813 1.1103-2.9167 1.7103-4.2669.46646-2.5614 1.5039-5.5181 3.5494-7.8101.77982-.1568 2.6782.012 4.1409.6027 1.4627.5904 2.7589 1.4683 3.8475 2.6784z" style="fill:#00ff00"/><path d="m41.391 1014.6c-.56774-.2267-1.2186.046-1.4478.6078l-.83276 2.04c-.22922.5615.04751 1.2049.61526 1.4316.56774.2267 1.2182-.047 1.4474-.608l.83276-2.04c.22922-.5615-.04708-1.2047-.61482-1.4314z" style="fill:#00ff00"/></g><path d="m21.682 991.67v3.2157h3.2157v-3.2157zm5.3596 0v3.2157h3.2177v-3.2157zm5.3615 0v3.2157h3.2177v-3.2157zm5.3615 0v3.2157h3.2157v-3.2157zm5.3596 0v3.2157h3.2177v-3.2157zm5.3615 0v3.2157h3.2177v-3.2157zm-26.804 5.3615v3.2157h3.2157v-3.2157zm5.3596 0v3.2157h3.2177v-3.2157zm5.3615 0v3.2157h3.2177v-3.2157zm5.3615 0v3.2157h3.2157v-3.2157zm5.3596 0v3.2157h3.2177v-3.2157zm5.3615 0v3.2157h3.2177v-3.2157z" style="fill:#00ff00;stroke-width:9.1111"/></g></svg>
