<svg width="24" height="24" version="1.1" viewBox="0 0 24 24" xmlns="http://www.w3.org/2000/svg"><path d="m14.063 9.2489v1.3749c0 .28357-.23204.51558-.51565.51558h-7.2191c-.28361 0-.51565-.23201-.51565-.51558v-1.3749c0-.28357.23204-.51558.51565-.51558h7.2191c.28361 0 .51565.23201.51565.51558zm8.6371 12.232-1.2161 1.2159c-.40393.40387-1.0571.40387-1.4567 0l-4.2885-4.2836c-.19337-.19334-.3008-.45542-.3008-.7304v-.70032c-1.5169 1.1858-3.4248 1.8904-5.5003 1.8904-4.9374 0-8.9379-4-8.9379-8.9366 0-4.9367 4.0006-8.9366 8.9379-8.9366 4.9374 0 8.9379 4 8.9379 8.9366 0 2.0752-.70472 3.9828-1.8907 5.4995h.70042c.27501 0 .53714.10741.7305.30076l4.2842 4.2836c.39963.40387.39963 1.0569 0 1.4608zm-6.9183-11.544c0-3.2309-2.6126-5.8432-5.844-5.8432-3.2314 0-5.844 2.6122-5.844 5.8432 0 3.2309 2.6126 5.8432 5.844 5.8432 3.2314 0 5.844-2.6122 5.844-5.8432z" fill="#00ff00" style="stroke-width:.042968"/></svg>
