<svg width="24" height="24" version="1.1" viewBox="0 0 24 24" xmlns="http://www.w3.org/2000/svg"><path d="m22.7 21.481-1.2161 1.2159c-.40393.40386-1.0571.40386-1.4567 0l-4.2885-4.2836c-.19337-.19334-.3008-.45542-.3008-.7304v-.70032c-1.5169 1.1858-3.4248 1.8904-5.5003 1.8904-4.9374 0-8.9379-4-8.9379-8.9366 0-4.9367 4.0006-8.9366 8.9379-8.9366 4.9373 0 8.9379 4 8.9379 8.9366 0 2.0752-.70472 3.9828-1.8907 5.4995h.70042c.27501 0 .53714.10742.7305.30076l4.2842 4.2836c.39963.40386.39963 1.0569 0 1.4608zm-6.9183-11.544c0-3.2309-2.6126-5.8432-5.844-5.8432-3.2314 0-5.844 2.6122-5.844 5.8432 0 3.2309 2.6126 5.8432 5.844 5.8432 3.2314 0 5.844-2.6122 5.844-5.8432z" fill="#00ff00" style="stroke-width:.042968"/><path d="m9.742 6.1153c1.0535.00179 2.01.41695 2.7162 1.0917l.56776-.56768c.24036-.24032.65134-.070113.65134.26976v2.1309c0 .21069-.17082.38148-.38153.38148h-2.1312c-.33991 0-.51013-.41093-.2698-.65125l.66371-.66361c-.49067-.45934-1.1256-.71379-1.8001-.71959-1.4689-.012686-2.7071 1.1758-2.6943 2.6933.012043 1.4395 1.1792 2.6473 2.6706 2.6473.65382 0 1.2717-.23331 1.7587-.66052.07541-.06614.18927-.06211.26021.0088l.63052.63043c.07745.07744.07362.20369-.0077.2771-.69908.63136-1.6255 1.0159-2.6417 1.0159-2.1774 0-3.9425-1.7648-3.9425-3.9419-1.8e-5-2.1746 1.7749-3.9459 3.9497-3.9419z" fill="#00ff00" stroke-width=".015896"/></svg>
