<svg width="24" height="24" version="1.1" viewBox="0 0 24 24" xmlns="http://www.w3.org/2000/svg"><path d="m14.063 9.2492v1.3749c0 .28357-.23204.51558-.51566.51558h-2.4064v2.406c0 .28357-.23204.51558-.51564.51558h-1.3751c-.28361 0-.51565-.23201-.51565-.51558v-2.406h-2.4064c-.28361 0-.51564-.23201-.51564-.51558v-1.3749c0-.28357.23204-.51557.51564-.51557h2.4064v-2.406c0-.28357.23204-.51557.51565-.51557h1.3751c.28361 0 .51564.23201.51564.51557v2.406h2.4064c.28361 0 .51566.23201.51566.51557zm8.6372 12.232-1.2161 1.2159c-.40393.40387-1.0571.40387-1.4567 0l-4.2885-4.2836c-.19337-.19334-.30079-.45542-.30079-.7304v-.70032c-1.5168 1.1858-3.4248 1.8904-5.5003 1.8904-4.9373 0-8.9379-4-8.9379-8.9366 0-4.9366 4.0006-8.9366 8.9379-8.9366 4.9373 0 8.9379 4 8.9379 8.9366 0 2.0752-.70472 3.9828-1.8907 5.4995h.70042c.27501 0 .53714.10741.73051.30075l4.2842 4.2836c.39963.40387.39963 1.0569 0 1.4608zm-6.9183-11.545c0-3.2309-2.6126-5.8432-5.8441-5.8432-3.2314 0-5.8441 2.6122-5.8441 5.8432 0 3.2309 2.6126 5.8432 5.8441 5.8432 3.2314 0 5.8441-2.6122 5.8441-5.8432z" fill="#00ff00" style="stroke-width:.042967"/></svg>
