<svg id="svg8" xmlns:rdf="http://www.w3.org/1999/02/22-rdf-syntax-ns#" xmlns="http://www.w3.org/2000/svg" height="24" width="24" version="1.1" xmlns:cc="http://creativecommons.org/ns#" xmlns:xlink="http://www.w3.org/1999/xlink" viewBox="0 0 6.3499998 6.3500002" xmlns:dc="http://purl.org/dc/elements/1.1/">
 <defs id="defs2">
  <linearGradient id="redyel" gradientUnits="userSpaceOnUse" y1="-123.29" gradientTransform="scale(1.2329 .81113)" x2="70.244" y2="-61.643">
   <stop id="stop2" stop-color="#ff0000" offset="0"/>
   <stop id="stop4" stop-color="#ffff00" offset="1"/>
  </linearGradient>
  <linearGradient id="linearGradient910" y2="25.238" gradientUnits="userSpaceOnUse" x2="171.57" gradientTransform="scale(.50475 1.9812)" y1="-25.238" x1="171.57">
   <stop id="stop7" stop-color="#ffff00" offset="0"/>
   <stop id="stop9" stop-color="#00ff00" offset="1"/>
  </linearGradient>
  <linearGradient id="linearGradient912" y2="123.29" gradientUnits="userSpaceOnUse" x2="-2.3054e-14" gradientTransform="scale(1.2329 .81113)" y1="61.643" x1="70.244">
   <stop id="stop12" stop-color="#00ff00" offset="0"/>
   <stop id="stop14" stop-color="#00ffff" offset="1"/>
  </linearGradient>
  <linearGradient id="linearGradient914" y2="61.643" gradientUnits="userSpaceOnUse" x2="-70.244" gradientTransform="scale(1.2329 .81113)" y1="123.29" x1="-2.3054e-14">
   <stop id="stop17" stop-color="#00ffff" offset="0"/>
   <stop id="stop19" stop-color="#0000ff" offset="1"/>
  </linearGradient>
  <linearGradient id="linearGradient916" y2="-25.238" gradientUnits="userSpaceOnUse" x2="-171.57" gradientTransform="scale(.50475 1.9812)" y1="25.238" x1="-171.57">
   <stop id="stop22" stop-color="#0000ff" offset="0"/>
   <stop id="stop24" stop-color="#ff00ff" offset="1"/>
  </linearGradient>
  <linearGradient id="linearGradient918" y2="-123.29" gradientUnits="userSpaceOnUse" x2="0" gradientTransform="scale(1.2329 .81113)" y1="-61.643" x1="-70.244">
   <stop id="stop27" stop-color="#ff00ff" offset="0"/>
   <stop id="stop29" stop-color="#ff0000" offset="1"/>
  </linearGradient>
 </defs>
 <metadata id="metadata5">
  <rdf:RDF>
   <cc:Work rdf:about="">
    <dc:format>image/svg+xml</dc:format>
    <dc:type rdf:resource="http://purl.org/dc/dcmitype/StillImage"/>
    <dc:title/>
   </cc:Work>
  </rdf:RDF>
 </metadata>
 <g id="layer1" transform="translate(0 -290.65)">
  <g id="g4905" transform="matrix(.025094 0 0 .025094 -1.1863 289.46)">
   <g id="g46" style="stroke-width:20;fill:none" transform="matrix(-.45458 .78731 .78735 .45455 173.8 173.79)">
    <path id="path34" style="stroke:url(#redyel);stroke-width:46.391" d="m0-100a100 100 0 0 1 86.6 50"/>
    <path id="path36" style="stroke:url(#linearGradient910);stroke-width:46.391" d="m86.6-50a100 100 0 0 1 0 100"/>
    <path id="path38" style="stroke:url(#linearGradient912);stroke-width:46.391" d="m86.6 50a100 100 0 0 1 -86.6 50"/>
    <path id="path40" style="stroke:url(#linearGradient914);stroke-width:46.391" d="m0 100a100 100 0 0 1 -86.6 -50"/>
    <path id="path42" style="stroke:url(#linearGradient916);stroke-width:46.391" d="m-86.6 50a100 100 0 0 1 0 -100"/>
    <path id="path44" style="stroke:url(#linearGradient918);stroke-width:46.391" d="m-86.6-50a100 100 0 0 1 86.6 -50"/>
   </g>
  </g>
 </g>
</svg>
