<?xml version="1.0" encoding="UTF-8" standalone="no"?>
<svg
   xmlns:dc="http://purl.org/dc/elements/1.1/"
   xmlns:cc="http://creativecommons.org/ns#"
   xmlns:rdf="http://www.w3.org/1999/02/22-rdf-syntax-ns#"
   xmlns:svg="http://www.w3.org/2000/svg"
   xmlns="http://www.w3.org/2000/svg"
   xmlns:sodipodi="http://sodipodi.sourceforge.net/DTD/sodipodi-0.dtd"
   xmlns:inkscape="http://www.inkscape.org/namespaces/inkscape"
   viewBox="0 0 24 24"
   version="1.1"
   id="svg4"
   sodipodi:docname="author.svg"
   width="24"
   height="24"
   inkscape:version="1.0 (4035a4fb49, 2020-05-01)">
  <metadata
     id="metadata10">
    <rdf:RDF>
      <cc:Work
         rdf:about="">
        <dc:format>image/svg+xml</dc:format>
        <dc:type
           rdf:resource="http://purl.org/dc/dcmitype/StillImage" />
        <dc:title></dc:title>
      </cc:Work>
    </rdf:RDF>
  </metadata>
  <defs
     id="defs8" />
  <sodipodi:namedview
     inkscape:document-rotation="0"
     pagecolor="#ffffff"
     bordercolor="#666666"
     borderopacity="1"
     objecttolerance="10"
     gridtolerance="10"
     guidetolerance="10"
     inkscape:pageopacity="0"
     inkscape:pageshadow="2"
     inkscape:window-width="640"
     inkscape:window-height="480"
     id="namedview6"
     showgrid="false"
     inkscape:zoom="12.625"
     inkscape:cx="26.057654"
     inkscape:cy="15.034481"
     inkscape:current-layer="svg4" />
  <path
     d="m 8.7003008,11.999791 c 2.4304072,0 4.4001722,-1.969765 4.4001722,-4.4001721 0,-2.4304075 -1.969765,-4.4001719 -4.4001722,-4.4001719 -2.4304074,0 -4.4001719,1.9697644 -4.4001719,4.4001719 0,2.4304071 1.9697645,4.4001721 4.4001719,4.4001721 z m 3.0801202,1.100043 h -0.574085 c -0.763155,0.350639 -1.6122503,0.550021 -2.5060352,0.550021 -0.8937849,0 -1.739443,-0.199382 -2.5060354,-0.550021 H 5.6201805 C 3.0694558,13.099834 1,15.169289 1,17.720014 v 1.430056 c 0,0.910974 0.7390914,1.650064 1.6500644,1.650064 h 9.4500566 c -0.0825,-0.233759 -0.116879,-0.481268 -0.08938,-0.732215 l 0.233759,-2.09352 0.04125,-0.381578 0.271574,-0.271572 2.657292,-2.657291 c -0.842223,-0.952225 -2.062584,-1.564124 -3.434199,-1.564124 z m 1.557249,4.994883 -0.23376,2.096956 c -0.03781,0.350639 0.257823,0.646276 0.605024,0.605024 l 2.093519,-0.233759 4.740498,-4.740498 -2.464784,-2.464784 z m 9.422555,-5.651471 -1.302863,-1.302864 c -0.319701,-0.3197 -0.842221,-0.3197 -1.161921,0 l -1.299425,1.299426 -0.140943,0.140943 2.468221,2.464784 1.436931,-1.436931 c 0.3197,-0.323138 0.3197,-0.842221 0,-1.165358 z"
     id="path2"
     style="fill:#00ff00;stroke-width:0.0343764" />
</svg>
