<?xml version="1.0" encoding="UTF-8" standalone="no"?>
<!-- Created with Inkscape (http://www.inkscape.org/) -->

<svg
   xmlns:dc="http://purl.org/dc/elements/1.1/"
   xmlns:cc="http://creativecommons.org/ns#"
   xmlns:rdf="http://www.w3.org/1999/02/22-rdf-syntax-ns#"
   xmlns:svg="http://www.w3.org/2000/svg"
   xmlns="http://www.w3.org/2000/svg"
   xmlns:sodipodi="http://sodipodi.sourceforge.net/DTD/sodipodi-0.dtd"
   xmlns:inkscape="http://www.inkscape.org/namespaces/inkscape"
   width="22"
   height="22"
   viewBox="0 0 22 22"
   id="svg2"
   version="1.1"
   inkscape:version="0.92.3 (unknown)"
   sodipodi:docname="dpi-fast.svg">
  <defs
     id="defs4">
    <linearGradient
       id="linearGradient5716">
      <stop
         style="stop-color:#000000;stop-opacity:1;"
         offset="0"
         id="stop5718" />
      <stop
         style="stop-color:#484848;stop-opacity:1;"
         offset="1"
         id="stop5720" />
    </linearGradient>
  </defs>
  <sodipodi:namedview
     id="base"
     pagecolor="#ffffff"
     bordercolor="#666666"
     borderopacity="1.0"
     inkscape:pageopacity="0.0"
     inkscape:pageshadow="2"
     inkscape:zoom="22.627417"
     inkscape:cx="10.549295"
     inkscape:cy="10.939664"
     inkscape:document-units="px"
     inkscape:current-layer="layer1"
     showgrid="false"
     units="px"
     inkscape:window-width="1920"
     inkscape:window-height="1004"
     inkscape:window-x="0"
     inkscape:window-y="24"
     inkscape:window-maximized="1" />
  <metadata
     id="metadata7">
    <rdf:RDF>
      <cc:Work
         rdf:about="">
        <dc:format>image/svg+xml</dc:format>
        <dc:type
           rdf:resource="http://purl.org/dc/dcmitype/StillImage" />
        <dc:title></dc:title>
      </cc:Work>
    </rdf:RDF>
  </metadata>
  <g
     inkscape:label="Layer 1"
     inkscape:groupmode="layer"
     id="layer1"
     transform="translate(0,-1030.3622)">
    <path
       style="fill:#00ff00;fill-opacity:1;fill-rule:evenodd;stroke:#000000;stroke-width:0.5;stroke-linecap:butt;stroke-linejoin:miter;stroke-miterlimit:4;stroke-dasharray:none;stroke-opacity:1"
       d="m 1.4488298,1041.1996 c 1.371509,-0.8946 2.8142598,-1.3138 4.2787119,-2.0464 0.6174138,-0.3089 1.3877576,-0.4233 2.0382524,-0.6545 1.297909,-0.4613 2.7073729,-0.6288 4.0848209,-0.625 0.949232,0 1.871192,0.5688 2.8125,0.4464 0.34686,-0.045 0.678456,-0.3005 1.022957,-0.361 0.323189,-0.057 0.592385,0.036 0.919008,0 0.919782,-0.089 1.659859,-0.8434 2.552302,-0.6038 0.608566,0.5351 1.163157,0.4534 1.577162,0.5814 0.227906,0.2044 0.415999,0.5201 0.401786,0.8259 -0.01131,0.2435 -0.169822,0.5007 -0.379465,0.625 -0.563779,0.3343 -1.355535,-0.1539 -1.964285,0.089 -0.274349,0.1095 -0.529424,0.3204 -0.669643,0.5804 -0.10689,0.1982 -0.201508,0.4744 -0.08929,0.6696 0.28923,0.5032 0.353483,0.2098 0.758929,0.6251 0.200763,0.2056 0.280496,0.636 0.32604,0.9197 0.04489,0.2796 0.278806,1.3456 3e-6,1.3952 -0.04227,0.01 -0.61951,0.076 -0.658548,0.048 -0.307513,-0.2164 -0.309929,-1.9797 -0.381778,-1.6939 -0.07943,0.3159 -0.481399,1.1119 -0.805653,1.5905 -0.09102,0.069 -0.75873,-0.1747 -0.79205,-0.1915 -0.143233,-0.072 0.388823,-1.1475 0.645695,-1.7525 0.254195,-0.4845 -2.082428,0.5618 -3.699777,0.027 -0.411721,-0.1186 -1.074836,-0.3359 -1.486607,-0.4543 -0.350595,-0.1008 -0.706663,-0.229 -1.071428,-0.2232 -0.221947,0 -0.457159,0.042 -0.647322,0.1563 -0.3657753,0.2202 -0.5167636,0.6907 -0.848214,0.9598 -0.3388677,0.2752 -0.7373994,0.4748 -1.1383929,0.6473 -0.3286467,0.1414 -0.7055571,0.155 -1.0267857,0.3125 -0.3929642,0.1927 -0.7457902,0.4665 -1.0714286,0.7589 -0.3177012,0.2853 -0.7878278,0.5372 -0.8482143,0.9599 -0.019768,0.1384 0.2476551,0.2579 0.1785715,0.3794 -0.151487,0.2664 -0.6882048,0.295 -0.9151786,0.089 -0.165288,-0.15 -0.040392,-0.4501 0,-0.6696 0.030262,-0.1645 0.107712,-0.3173 0.1785714,-0.4688 0.1482228,-0.3168 0.280131,-0.6545 0.5133929,-0.9152 0.3235826,-0.3616 0.8042658,-0.5449 1.1830357,-0.8482 0.2879515,-0.2306 0.5987098,-0.446 0.8258928,-0.7366 0.4764849,-0.7757 -0.010282,-0.3161 -0.5580357,0.1563 -0.5014616,0.2889 -1.1875939,0.016 -1.71875,0.2455 -0.3060806,0.1324 -0.4868079,0.4684 -0.78125,0.625 -0.2202371,0.1171 -0.4653484,0.2072 -0.7142857,0.2232 -0.1281812,0.01 -0.2668517,-0.01 -0.3794643,-0.067 -0.1061804,-0.058 -0.2658002,-0.1484 -0.2455357,-0.2678 0.057929,-0.3413 0.642429,-0.2779 0.9151786,-0.4911 0.2531476,-0.1979 0.3704824,-0.5512 0.6473214,-0.7143 0.5333331,-0.3143 1.2562996,-0.1434 1.8080357,-0.4241 0.3150392,-0.1603 0.6018606,-0.4016 0.8035715,-0.6919 0.1222564,-0.1759 0.4362744,-0.6251 0.2232142,-0.6027 -0.5880147,0.062 -1.2133141,0.2576 -1.8080357,0.5357 -0.9133146,0.4271 -1.8030901,0.9028 -2.7008928,1.3616 -0.4178403,0.2135 -0.794097,0.5363 -1.25,0.6474 -0.1879563,0.046 -0.4548345,0.1472 -0.58035715,0 -0.12224373,-0.1434 0.00145,-0.3914 0.0892859,-0.5581 0.095662,-0.1815 0.2745716,-0.3117 0.4464286,-0.4238 z"
       id="path10368"
       inkscape:connector-curvature="0"
       sodipodi:nodetypes="cssssssccssssssccsscsccssssssssssssssccssssssssssssssssc" />
    <path
       style="fill:none;fill-rule:evenodd;stroke:#000000;stroke-width:0.5;stroke-linecap:butt;stroke-linejoin:miter;stroke-miterlimit:4;stroke-dasharray:none;stroke-opacity:1"
       d="m 18.104678,1042.0013 -3.083682,-1.4254"
       id="path10372"
       inkscape:connector-curvature="0"
       sodipodi:nodetypes="cc" />
  </g>
</svg>
