<svg width="48" height="48" version="1.1" viewBox="0 0 48 48" xmlns="http://www.w3.org/2000/svg">
  <path d="m2.1162 14.299 20.927 9.4935c.61091.27763 1.3018.27763 1.9127 0l20.927-9.4935c1.4869-.67471 1.4869-2.9216 0-3.5964l-20.927-9.4944c-.60735-.27758-1.3054-.27758-1.9127 0l-20.927 9.4933c-1.4869.67471-1.4869 2.9225 0 3.5971zm43.768 7.9311-5.2188-2.3655-14.522 6.5827c-.6792.30815-1.4006.46448-2.1436.46448-.74298 0-1.4635-.1564-2.1436-.46448l-14.521-6.5827-5.2197 2.3655c-1.4869.67382-1.4869 2.9198 0 3.5937l20.927 9.4864c.61091.27671 1.3018.27671 1.9127 0l20.928-9.4864c1.4869-.67382 1.4869-2.9198 0-3.5937z" style="fill-opacity:.98853;fill:#808080;stroke-width:.089841"/>
  <path d="m45.884 33.712-5.199-2.3565-14.542 6.5917c-.6792.30815-1.4006.46448-2.1436.46448-.74298 0-1.4635-.1564-2.1436-.46448l-14.541-6.5917-5.2 2.3565c-1.4869.67382-1.4869 2.9198 0 3.5937l20.927 9.4864c.61091.27671 1.3018.27671 1.9127 0l20.928-9.4864c1.4869-.67382 1.4869-2.9198 0-3.5937z" style="fill-opacity:.98853;fill:#00ff00;stroke-width:.089841"/>
</svg>
