<svg id="svg4" xmlns:rdf="http://www.w3.org/1999/02/22-rdf-syntax-ns#" xmlns="http://www.w3.org/2000/svg" height="24" width="24" version="1.1" xmlns:cc="http://creativecommons.org/ns#" xmlns:dc="http://purl.org/dc/elements/1.1/" viewBox="0 0 24 24">
 <metadata id="metadata10">
  <rdf:RDF>
   <cc:Work rdf:about="">
    <dc:format>image/svg+xml</dc:format>
    <dc:type rdf:resource="http://purl.org/dc/dcmitype/StillImage"/>
    <dc:title/>
   </cc:Work>
  </rdf:RDF>
 </metadata>
 <path id="path2" style="fill-opacity:.98853;stroke-width:.039062;fill:#808080" d="m21.515 11.231-2.2691-1.0285-6.314 2.8621c-.29531.13398-.60898.20195-.93202.20195s-.63632-.068-.93202-.20195l-6.3136-2.8621-2.2695 1.0285c-.64648.29297-.64648 1.2695 0 1.5625l9.0991 4.1246c.26562.12031.56601.12031.83163 0l9.0995-4.1246c.64648-.29297.64648-1.2695 0-1.5625zm0 4.9921-2.2605-1.0246-6.3226 2.866c-.29531.13398-.60898.20195-.93202.20195s-.63632-.068-.93202-.20195l-6.3222-2.866-2.2609 1.0246c-.64648.29297-.64648 1.2695 0 1.5625l9.0991 4.1246c.26562.12031.56601.12031.83163 0l9.0995-4.1246c.64648-.29297.64648-1.2695 0-1.5625z"/>
 <path id="path2-3" style="fill-opacity:.99771;stroke-width:.039062;fill:#00ff00" d="m2.4849 7.7822 9.0991 4.1277c.26562.12071.56601.12071.83163 0l9.0991-4.1277c.64648-.29336.64648-1.2703 0-1.5637l-9.0987-4.1281c-.26407-.1207-.56756-.1207-.83163 0l-9.0995 4.1277c-.64648.29336-.64648 1.2707 0 1.564z"/>
</svg>
