<svg width="48" height="48" enable-background="new" version="1.1" viewBox="0 0 48 48" xmlns="http://www.w3.org/2000/svg">
  <defs>
    <filter id="filter1186" x="-.058817" y="-.061232" width="1.1176" height="1.1225" style="color-interpolation-filters:sRGB">
      <feGaussianBlur stdDeviation="0.29956168"/>
    </filter>
    <filter id="filter1190" x="-.11763" y="-.12246" width="1.2353" height="1.2449" style="color-interpolation-filters:sRGB">
      <feGaussianBlur stdDeviation="0.59912336"/>
    </filter>
  </defs>
  <g transform="translate(0 -1030.4)">
    <circle cx="24" cy="1054.4" r="21.231" style="fill:none;stroke-linecap:round;stroke-linejoin:round;stroke-width:3.5385;stroke:#01ff1f"/>
    <path d="m3.7416 1052.6c6.1099.5823 12.015 3.1454 16.613 7.2107 4.5708 4.0411 7.8274 9.5458 9.1684 15.498" style="fill:none;stroke-width:2.359px;stroke:#01ff1f"/>
    <path transform="matrix(2.359 0 0 2.359 -1.9487 -1402.2)" d="m3.7538 1037c2.9654.032 5.9058 1.1741 8.116 3.1514 2.428 2.1722 3.9411 5.3364 4.1076 8.59" style="fill:none;filter:url(#filter1186);stroke-width:1px;stroke:#01ff1f"/>
    <path transform="matrix(2.359 0 0 2.359 -1.9487 -1402.2)" d="m6.3313 1034.1c2.9654.032 5.9058 1.1741 8.116 3.1514 2.428 2.1722 3.9411 5.3364 4.1076 8.59" style="fill:none;filter:url(#filter1190);stroke-width:1px;stroke:#01ff1f"/>
  </g>
</svg>
