<svg width="48" height="48" enable-background="new" version="1.1" viewBox="0 0 48 48" xmlns="http://www.w3.org/2000/svg">
  <g transform="translate(0 -1030.4)">
    <circle cx="24" cy="1054.4" r="21.231" style="fill:none;stroke-linecap:round;stroke-linejoin:round;stroke-width:3.5385;stroke:#01ff1f"/>
    <path d="m20.001 1047.8-2.6203-.8886-2.2175 1.6548.03536-2.7666-2.2591-1.5976 2.6422-.8214.82132-2.6422 1.5976 2.2591 2.7667-.035-1.6548 2.2175z" style="fill:#00ff00"/>
    <path transform="matrix(3.6832 2.1265 -2.1265 3.6832 2194.9 -2801.5)" d="m14.286 1040.8-1.3024-.4416-1.1022.8225.01758-1.3752-1.1228-.7941 1.3133-.4082.40823-1.3133.79407 1.1229 1.3751-.018-.82251 1.1022z" style="fill:#00ff00"/>
    <path transform="matrix(2.6801 -.71812 .71812 2.6801 -763.05 -1712.7)" d="m14.286 1040.8-1.3024-.4416-1.1022.8225.01758-1.3752-1.1228-.7941 1.3133-.4082.40823-1.3133.79407 1.1229 1.3751-.018-.82251 1.1022z" style="fill:#00ff00"/>
  </g>
</svg>
