<?xml version="1.0" encoding="UTF-8" standalone="no"?>
<svg id="svg4896" xmlns="http://www.w3.org/2000/svg" height="22" width="22" version="1.1" enable-background="new" viewBox="0 0 22 22">
 <g id="layer1" style="" transform="translate(0 -1030.4)">
  <circle id="path5448" stroke-linejoin="round" cx="11" stroke-linecap="round" stroke="#01ff1f" cy="1041.4" r="9" stroke-width="1.5" fill="none"/>
  <path id="path2" stroke-width=".019531" fill="#00ff00" d="m10.375 1038.2.3125-.625.625-.3125-.625-.3125-.3125-.625-.3125.625-0.625.3125 0.625.3125zm-2.8125 1.25.52070-1.0416 1.0418-.5209-1.0418-.5209l-.5207-1-.5207 1-1.0418.5 1.0418.5209zm6.875 2.5-.52070 1.0416-1.0418.5209 1.0418.5209.52070 1.0416.52070-1.0416 1.0418-.5209-1.0418-.5209zm1.3793-3.7846-1.6572-1.6572c-.12188-.1222-.28184-.1832-.44180-.1832s-.31992.061-.44199.1832l-7.0926 7.0925c-.24414.2442-.24414.6399 0 .8839l1.6572 1.6572c.12207.1221.28203.183.44180.183.15996 0 .31992-.061.44199-.183l7.0926-7.0927c.24414-.244.24414-.6397 0-.8837zm-2.7963 2.1334-.99434-.9943 1.6914-1.6914.99434.9943z"/>
 </g>
</svg>
