<?xml version="1.0" encoding="UTF-8" standalone="no"?>
<svg id="svg4" xmlns="http://www.w3.org/2000/svg" height="24" width="24" version="1.1" viewBox="0 0 24 24">
 <path id="path2" stroke-width=".042969" fill="#00ff00" d="m15.438 19.391v1.2031c0 .44898-.28703.83076-.6875.97234v.40266c0 .569-.462 1.031-1.031 1.031h-3.4375c-.5703 0-1.032-.462-1.032-1.031v-.403c-.4005-.141-.6875-.523-.6875-.972v-1.2031c0-.28475.23087-.51562.51562-.51562h5.8438c.28475 0 .51562.23087.51562.51562zm-6.188-10.828c0-1.5164 1.2336-2.75 2.75-2.75.37972 0 .6875-.30783.6875-.6875s-.30778-.6875-.6875-.6875c-2.2746 0-4.125 1.8504-4.125 4.125 0 .3797.3078.6875.6875.6875s.6875-.3078.6875-.6875zm2.75-5.5c3.0394 0 5.5 2.4601 5.5 5.5 0 3.3345-1.6063 2.5986-3.4796 6.875h-4.0404c-1.8761-4.283-3.4796-3.53-3.4796-6.8755 0-3.0394 2.4601-5.5 5.5-5.5m0-2.0625c-4.1763 0-7.5625 3.3861-7.5625 7.5625 0 4.3712 2.2214 3.9334 3.8894 8.279.1525.397.5358.658.9614.658h5.4233c.42565 0 .80893-.26116.96147-.65854 1.668-4.345 3.889-3.907 3.889-8.2785 0-4.1764-3.386-7.5625-7.562-7.5625z"/>
</svg>
