<svg id="svg6" xmlns:rdf="http://www.w3.org/1999/02/22-rdf-syntax-ns#" xmlns="http://www.w3.org/2000/svg" height="24" width="24" version="1.1" xmlns:cc="http://creativecommons.org/ns#" xmlns:dc="http://purl.org/dc/elements/1.1/" viewBox="0 0 24 24">
 <metadata id="metadata2">
  <rdf:RDF>
   <cc:Work rdf:about="">
    <dc:format>image/svg+xml</dc:format>
    <dc:type rdf:resource="http://purl.org/dc/dcmitype/StillImage"/>
    <dc:title/>
   </cc:Work>
  </rdf:RDF>
 </metadata>
 <path id="path4" style="fill:#00ff00" stroke-width=".04464" d="m20.571 9.8568h-6.4287v-6.4283c0-.7888-.640-1.4285-1.428-1.4285h-1.429c-.788 0-1.4282.6397-1.4282 1.4285v6.4283h-6.4283c-.7888 0-1.4285.6402-1.4285 1.4282v1.4285c0 .78880.63970 1.4285 1.4285 1.4285h6.4282v6.4282c.0001.790.6403 1.43 1.4283 1.43h1.4285c.78879 0 1.4285-.63970 1.4285-1.4285v-6.4282h6.4282c.790-.002 1.43-.642 1.43-1.43v-1.429c0-.788-.640-1.4279-1.428-1.4279z"/>
</svg>
