<svg xmlns:rdf="http://www.w3.org/1999/02/22-rdf-syntax-ns#" xmlns="http://www.w3.org/2000/svg" height="24" width="24" version="1.1" xmlns:cc="http://creativecommons.org/ns#" xmlns:dc="http://purl.org/dc/elements/1.1/" viewBox="0 0 24 24">
 <path stroke-width=".042969" fill="#00ff00" d="m9.7782 1.2164c-4.2712.83361-7.713 4.2669-8.5552 8.5251-1.5899 8.0353 5.6591 14.025 11.12 13.179 1.7703-.275 2.6383-2.3461 1.8262-3.9403-.99259-1.9508.42540-4.2282 2.6168-4.2282h3.4247c1.5383 0 2.7844-1.2719 2.7887-2.8059-.022-6.7722-6.183-12.1-13.222-10.73zm-4.6536 13.536c-.76056 0-1.375-.61446-1.375-1.375 0-.76055.61446-1.375 1.375-1.375.76056 0 1.375.61446 1.375 1.375 0 .76056-.61446 1.375-1.375 1.375zm1.375-5.5001c-.76056 0-1.375-.61447-1.375-1.375 0-.76056.61446-1.375 1.375-1.375.76056 0 1.375.61446 1.375 1.375 0 .76056-.61446 1.375-1.375 1.375zm5.5004-2.7503c-.76056 0-1.375-.61446-1.375-1.375 0-.76056.61446-1.375 1.375-1.375.76056 0 1.375.61447 1.375 1.375 0 .76055-.61446 1.375-1.375 1.375zm5.5001 2.75c-.76056 0-1.375-.61447-1.375-1.375 0-.76056.61446-1.375 1.375-1.375.76056 0 1.375.61446 1.375 1.375 0 .76056-.61446 1.375-1.375 1.375z"/>
</svg>
