<?xml version="1.0" encoding="UTF-8" standalone="no"?>
<svg id="svg4522" xmlns="http://www.w3.org/2000/svg" height="24" width="24" version="1.1" viewBox="0 0 24 24">
 <path id="path4520" stroke-width=".042969" fill="#00ff00" d="m20.938 1h-13.75c-1.1396 0-2.063.9234-2.063 2.0625v2.0625h-2.0625c-1.1391 0-2.0625.9234-2.0625 2.0625v13.75c0 1.139.9234 2.062 2.0625 2.062h13.75c1.1391 0 2.0625-.9234 2.0625-2.0625v-2.063h2.0625c1.141 0 2.064-.923 2.064-2.063v-13.75c0-1.1386-.923-2.062-2.062-2.062zm-4.383 19.938h-13.235a.25781 .25781 0 0 1 -.2575 -.258v-13.235a.25781 .25781 0 0 1 .2578 -.2575h1.8047v9.625c0 1.1391.92340 2.0625 2.0625 2.0625h9.625v1.8047a.25781 .25781 0 0 1 -.25781 .25781zm4.125-4.125h-13.235a.25781 .25781 0 0 1 -.2575 -.258v-13.235a.25781 .25781 0 0 1 .2578 -.2575h13.235a.25781 .25781 0 0 1 .258 .2578v13.234a.25781 .25781 0 0 1 -.25781 .25781z"/>
</svg>
