<?xml version="1.0" encoding="UTF-8" standalone="no"?>
<svg id="svg5075" xmlns="http://www.w3.org/2000/svg" viewBox="0 0 24 24" height="24" width="24" version="1.1">
 <path id="path5073" stroke-width=".044355" fill="#00ff00" d="m12 1c-6.0766 0-11 4.9234-11 11 0 6.077 4.9234 11 11 11 6.077 0 11-4.923 11-11 0-6.0766-4.923-11-11-11zm0 19.871c-4.9012 0-8.871-3.97-8.871-8.871 0-4.9012 3.9698-8.871 8.871-8.871s8.871 3.9698 8.871 8.871-3.9698 8.871-8.871 8.871zm2.7411-4.6306-3.7657-2.7367c-.1375-.10202-.21734-.26169-.21734-.43024v-7.2827c0-.29275.23952-.53226.53226-.53226h1.4194c.29274 0 .53226.23952.53226.53226v6.2851l2.9629 2.1556c.23952.17298.28831.50564.11532.74516l-.833 1.149c-.17298.23508-.50564.28831-.74516.11533z"/>
</svg>
