<?xml version="1.0" encoding="UTF-8" standalone="no"?>
<svg xmlns:rdf="http://www.w3.org/1999/02/22-rdf-syntax-ns#" xmlns="http://www.w3.org/2000/svg" height="24" width="24" version="1.1" xmlns:cc="http://creativecommons.org/ns#" xmlns:dc="http://purl.org/dc/elements/1.1/" viewBox="0 0 24 24">
 <metadata>
  <rdf:RDF>
   <cc:Work rdf:about="">
    <dc:format>image/svg+xml</dc:format>
    <dc:type rdf:resource="http://purl.org/dc/dcmitype/StillImage"/>
    <dc:title/>
   </cc:Work>
  </rdf:RDF>
 </metadata>
 <path stroke-width=".044355" fill="#ff0000" d="m23 12c0 6.076-4.925 11-11 11-6.0747 0-11-4.924-11-11 0-6.0729 4.9253-11 11-11 6.075 0 11 4.9271 11 11zm-11 2.2177c-1.1268 0-2.0403.91349-2.0403 2.0403s.91349 2.0403 2.0403 2.0403 2.0403-.91349 2.0403-2.0403-.91349-2.0403-2.0403-2.0403zm-1.9371-7.3339.32902 6.0323c.01539.28227.24879.50325.53146.50325h2.1532c.28267 0 .51607-.22098.53146-.50325l.32902-6.0323c.01664-.30489-.22612-.56126-.53146-.56126h-2.8113c-.30534 0-.54805.25637-.53142.56126z"/>
</svg>
