<?xml version="1.0" encoding="UTF-8" standalone="no"?>
<svg
   xmlns:dc="http://purl.org/dc/elements/1.1/"
   xmlns:cc="http://creativecommons.org/ns#"
   xmlns:rdf="http://www.w3.org/1999/02/22-rdf-syntax-ns#"
   xmlns:svg="http://www.w3.org/2000/svg"
   xmlns="http://www.w3.org/2000/svg"
   xmlns:xlink="http://www.w3.org/1999/xlink"
   xmlns:sodipodi="http://sodipodi.sourceforge.net/DTD/sodipodi-0.dtd"
   xmlns:inkscape="http://www.inkscape.org/namespaces/inkscape"
   version="1.1"
   id="svg2"
   viewBox="0 0 24 23.999999"
   height="24"
   width="24"
   inkscape:version="0.91 r13725"
   sodipodi:docname="generic-application.svg">
  <sodipodi:namedview
     pagecolor="#ffffff"
     bordercolor="#666666"
     borderopacity="1"
     objecttolerance="10"
     gridtolerance="10"
     guidetolerance="10"
     inkscape:pageopacity="0"
     inkscape:pageshadow="2"
     inkscape:window-width="1036"
     inkscape:window-height="707"
     id="namedview74"
     showgrid="true"
     showguides="false"
     inkscape:zoom="16"
     inkscape:cx="13.576849"
     inkscape:cy="11.315488"
     inkscape:window-x="39"
     inkscape:window-y="47"
     inkscape:window-maximized="0"
     inkscape:current-layer="layer1" />
  <defs
     id="defs4">
    <linearGradient
       id="linearGradient4555">
      <stop
         offset="0"
         style="stop-color:#01ff1e;stop-opacity:1"
         id="stop4557" />
      <stop
         offset="1"
         style="stop-color:#5a5a5a"
         id="stop4559" />
    </linearGradient>
    <linearGradient
       id="linearGradient4616">
      <stop
         style="stop-color:#ff0000;stop-opacity:1"
         offset="0"
         id="stop4618" />
      <stop
         id="stop4620"
         offset="0.25"
         style="stop-color:#ffff00;stop-opacity:1" />
      <stop
         id="stop4622"
         offset="0.5"
         style="stop-color:#00ffff;stop-opacity:1" />
      <stop
         style="stop-color:#0000ff;stop-opacity:1"
         offset="0.75"
         id="stop4624" />
      <stop
         style="stop-color:#ff00ff;stop-opacity:1"
         offset="1"
         id="stop4626" />
    </linearGradient>
    <marker
       style="overflow:visible"
       id="marker4576"
       refX="0"
       refY="0"
       orient="auto">
      <path
         transform="matrix(0.8,0,0,0.8,5.92,0.8)"
         style="fill-rule:evenodd;stroke:#000000;stroke-width:1pt"
         d="m -2.5,-1 c 0,2.76 -2.24,5 -5,5 -2.76,0 -5,-2.24 -5,-5 0,-2.76 2.24,-5 5,-5 2.76,0 5,2.24 5,5 z"
         id="path4578" />
    </marker>
    <marker
       style="overflow:visible"
       id="DotL"
       refX="0"
       refY="0"
       orient="auto">
      <path
         transform="matrix(0.8,0,0,0.8,5.92,0.8)"
         style="fill-rule:evenodd;stroke:#000000;stroke-width:1pt"
         d="m -2.5,-1 c 0,2.76 -2.24,5 -5,5 -2.76,0 -5,-2.24 -5,-5 0,-2.76 2.24,-5 5,-5 2.76,0 5,2.24 5,5 z"
         id="path4286" />
    </marker>
    <marker
       style="overflow:visible"
       id="Arrow1Lend"
       refX="0"
       refY="0"
       orient="auto">
      <path
         transform="matrix(-0.8,0,0,-0.8,-10,0)"
         style="fill-rule:evenodd;stroke:#000000;stroke-width:1pt"
         d="M 0,0 5,-5 -12.5,0 5,5 0,0 Z"
         id="path4228" />
    </marker>
    <marker
       style="overflow:visible"
       id="marker4496"
       refX="0"
       refY="0"
       orient="auto">
      <path
         transform="matrix(0.8,0,0,0.8,10,0)"
         style="fill-rule:evenodd;stroke:#000000;stroke-width:1pt"
         d="M 0,0 5,-5 -12.5,0 5,5 0,0 Z"
         id="path4498" />
    </marker>
    <marker
       style="overflow:visible"
       id="marker4481"
       refX="0"
       refY="0"
       orient="auto">
      <path
         transform="matrix(0.8,0,0,0.8,10,0)"
         style="fill-rule:evenodd;stroke:#000000;stroke-width:1pt"
         d="M 0,0 5,-5 -12.5,0 5,5 0,0 Z"
         id="path4225" />
    </marker>
    <marker
       style="overflow:visible"
       id="Arrow1Lstart"
       refX="0"
       refY="0"
       orient="auto">
      <path
         transform="matrix(0.8,0,0,0.8,10,0)"
         style="fill:#00ff00;fill-opacity:1;fill-rule:evenodd;stroke:#000000;stroke-width:1pt;stroke-opacity:1"
         d="M 0,0 5,-5 -12.5,0 5,5 0,0 Z"
         id="path4461" />
    </marker>
    <linearGradient
       id="linearGradient4190">
      <stop
         id="stop4192"
         offset="0" />
      <stop
         id="stop4194"
         style="stop-opacity:0"
         offset="1" />
    </linearGradient>
    <linearGradient
       id="linearGradient7603">
      <stop
         id="stop7605"
         style="stop-color:#afafaf"
         offset="0" />
      <stop
         id="stop7607"
         style="stop-color:#5a5a5a"
         offset="1" />
    </linearGradient>
    <linearGradient
       id="linearGradient4135"
       y2="44.5"
       xlink:href="#linearGradient7603"
       gradientUnits="userSpaceOnUse"
       x2="24.5"
       y1="3"
       x1="24.5" />
    <radialGradient
       id="radialGradient4143"
       gradientUnits="userSpaceOnUse"
       cy="10.895"
       cx="23.528"
       gradientTransform="matrix(1.3889,-2.8719e-7,4.4279e-7,2.1414,-9.1501,-13.541)"
       r="2.5">
      <stop
         id="stop4576"
         style="stop-color:#828282"
         offset="0" />
      <stop
         id="stop4578"
         style="stop-color:#646662"
         offset="1" />
    </radialGradient>
    <radialGradient
       id="radialGradient4172"
       gradientUnits="userSpaceOnUse"
       cy="16.539"
       cx="16.184"
       gradientTransform="matrix(4.3195,-0.085864,0.060478,3.0424,-54.725,-36.555)"
       r="13.477">
      <stop
         id="stop6546"
         style="stop-color:#fafafa"
         offset="0" />
      <stop
         id="stop6548"
         style="stop-color:#c8c8c8"
         offset="1" />
    </radialGradient>
    <linearGradient
       id="linearGradient4174"
       y2="45"
       xlink:href="#linearGradient7603"
       gradientUnits="userSpaceOnUse"
       x2="24.5"
       y1="3"
       x1="24.559" />
    <linearGradient
       xlink:href="#linearGradient4616"
       gradientTransform="translate(-3.2210808,-4.985006)"
       id="linearGradient4188"
       y2="44"
       gradientUnits="userSpaceOnUse"
       x2="24.559"
       y1="4.1101999"
       x1="23.823">
      <stop
         id="stop6969"
         style="stop-color:#fff"
         offset="0" />
      <stop
         id="stop6971"
         style="stop-color:#fff;stop-opacity:0"
         offset="1" />
    </linearGradient>
    <linearGradient
       id="linearGradient4198"
       y2="34"
       xlink:href="#linearGradient4190"
       gradientUnits="userSpaceOnUse"
       x2="13"
       y1="33"
       x1="16" />
    <linearGradient
       id="linearGradient4206"
       y2="34"
       xlink:href="#linearGradient4190"
       gradientUnits="userSpaceOnUse"
       x2="36"
       y1="33.049999"
       x1="32.990002" />
    <radialGradient
       id="radialGradient3626"
       xlink:href="#linearGradient4190"
       gradientUnits="userSpaceOnUse"
       cy="34.157001"
       cx="4.6022"
       gradientTransform="matrix(1,0,0,0.74569,0,8.6866)"
       r="8.3415003" />
    <linearGradient
       gradientTransform="matrix(0.79878884,0,0,0.79878884,169.7406,1042.3879)"
       x1="23.823"
       y1="4.1101999"
       x2="24.559"
       gradientUnits="userSpaceOnUse"
       y2="44"
       id="linearGradient4188-6">
      <stop
         offset="0"
         style="stop-color:#fff"
         id="stop6969-2" />
      <stop
         offset="1"
         style="stop-color:#fff;stop-opacity:0"
         id="stop6971-6" />
    </linearGradient>
    <radialGradient
       r="2.5"
       gradientTransform="matrix(2.0716025,-4.2835592e-7,6.6043984e-7,3.1939878,85.291306,997.87195)"
       cx="23.528"
       cy="10.895"
       gradientUnits="userSpaceOnUse"
       id="radialGradient4143-8">
      <stop
         offset="0"
         style="stop-color:#828282"
         id="stop4576-7" />
      <stop
         offset="1"
         style="stop-color:#646662"
         id="stop4578-9" />
    </radialGradient>
    <linearGradient
       x1="24.500002"
       y1="2.999995"
       x2="24.5"
       gradientUnits="userSpaceOnUse"
       xlink:href="#linearGradient4555"
       y2="44.5"
       id="linearGradient4135-2"
       gradientTransform="matrix(1.4915419,0,0,1.4915419,98.939063,1018.0689)" />
    <linearGradient
       y2="923.4082"
       x2="221.89511"
       y1="923.4082"
       x1="47.921783"
       gradientUnits="userSpaceOnUse"
       id="linearGradient4296"
       xlink:href="#linearGradient4616" />
  </defs>
  <metadata
     id="metadata7">
    <rdf:RDF>
      <cc:Work
         rdf:about="">
        <dc:format>image/svg+xml</dc:format>
        <dc:type
           rdf:resource="http://purl.org/dc/dcmitype/StillImage" />
        <dc:title></dc:title>
        <cc:license
           rdf:resource="https://www.gnu.org/licenses/old-licenses/gpl-2.0.en.html" />
        <dc:date />
        <dc:creator>
          <cc:Agent>
            <dc:title />
          </cc:Agent>
        </dc:creator>
        <dc:rights>
          <cc:Agent>
            <dc:title>GPL</dc:title>
          </cc:Agent>
        </dc:rights>
        <dc:description>https://github.com/GNOME/adwaita-icon-theme</dc:description>
        <dc:contributor>
          <cc:Agent>
            <dc:title />
          </cc:Agent>
        </dc:contributor>
        <dc:subject>
          <rdf:Bag />
        </dc:subject>
        <dc:coverage />
        <dc:source>Modified Adwaita (GNOME) Symbolic Executable Icon</dc:source>
      </cc:Work>
    </rdf:RDF>
  </metadata>
  <g
     transform="matrix(1.0833793,0,0,1.1402528,-40.101758,-966.41899)"
     id="layer1"
     style="stroke:#01ff1f;stroke-opacity:1;fill:#808080;fill-opacity:1">
    <g
       transform="matrix(0.12199515,0,0,0.12199515,31.640377,742.48025)"
       id="g4528"
       style="stroke:#01ff1f;stroke-opacity:1;fill:#808080;fill-opacity:1" />
    <g
       transform="matrix(1.3959561,0,0,1.3263286,-745.82453,421.857)"
       id="layer14"
       style="fill:#006000;fill-opacity:1;stroke:#01ff1d;stroke-opacity:1;stroke-width:0.49591698;stroke-miterlimit:4;stroke-dasharray:none;stroke-linejoin:miter">
      <path
         d="m 569,321.97 c -0.25562,0 -0.52288,0.0854 -0.71875,0.28125 l -6.0312,6.0312 c -0.39174,0.39174 -0.39174,1.0458 0,1.4375 l 4.3438,4.3438 1,-0.53125 c -0.017,-0.16809 -0.0312,-0.3274 -0.0312,-0.5 0,-0.1726 0.0141,-0.33191 0.0312,-0.5 l -1.8438,-1 c 0.0975,-0.44488 0.22853,-0.87248 0.40625,-1.2812 l 2.0938,0.28125 c 0.1695,-0.29 0.37133,-0.56351 0.59375,-0.8125 l -0.90625,-1.9062 c 0.33555,-0.29842 0.67387,-0.58239 1.0625,-0.8125 l 1.5312,1.4688 c 0.3057,-0.13661 0.63429,-0.2392 0.96875,-0.3125 l 0.40625,-2.0938 c 0.21544,-0.0199 0.4356,-0.0312 0.65625,-0.0312 0.22065,0 0.44081,0.0113 0.65625,0.0312 l 0.40625,2.0938 c 0.33446,0.0733 0.66305,0.17589 0.96875,0.3125 l 0.6875,-0.65625 -5.5625,-5.5625 c -0.19587,-0.19587 -0.46313,-0.28125 -0.71875,-0.28125 z m 3.5625,8.0625 c -1.6568,0 -3,1.3432 -3,3 0,0.79675 0.30578,1.5253 0.8125,2.0625 l 4.25,-4.25 c -0.53719,-0.50672 -1.2658,-0.8125 -2.0625,-0.8125 z m -4.3125,5.5 -0.15625,0.0312 0.1875,0.1875 c 0.0605,0.0605 0.14862,0.0832 0.21875,0.125 -0.0839,-0.11796 -0.17712,-0.21905 -0.25,-0.34375 z"
         style="color:#000000;fill:#006000;fill-opacity:1;stroke:#01ff1d;stroke-opacity:1;enable-background:new;stroke-width:0.49591698;stroke-miterlimit:4;stroke-dasharray:none;stroke-linejoin:miter"
         id="rect26937"
         inkscape:connector-curvature="0" />
    </g>
  </g>
</svg>
