<svg height="48" viewBox="0 0 48 48" width="48" xmlns="http://www.w3.org/2000/svg"><path d="m6.5807 20.036c-1.3071 4.9134-.56662 9.891 1.6974 14.026l-3.356 1.9376c-1.4207.8203-1.1405 2.9488.44412 3.3734l9.935 2.662c.98232.2632 1.992-.31972 2.2552-1.302l2.662-9.935c.4246-1.5846-1.2786-2.8914-2.6994-2.0712l-3.923 2.265c-1.5288-2.8612-1.9221-6.1388-1.1067-9.2904 1.774-6.8624 8.862-11.15 15.921-9.1946 6.6964 1.8545 10.87 8.8046 9.007 15.757-.81668 3.0478-2.6764 5.637-5.2764 7.3734-.40256.26888-.52604.80474-.28404 1.224l2.1518 3.7268c.26432.4578.85774.59768 1.3015.31046 3.8166-2.468 6.7664-6.308 8.0358-11.044 2.7198-10.151-3.304-20.584-13.454-23.304-10.139-2.7174-20.614 3.3438-23.312 13.488z" fill="#00ff00" stroke-width=".076724"/></svg>