<svg width="24" height="24" version="1.1" viewBox="0 0 24 24" xmlns="http://www.w3.org/2000/svg"><!-- Font Awesome Free 5.15 by @fontawesome - https://fontawesome.com License - https://fontawesome.com/license/free (Icons: CC BY 4.0) - This icon is remixed from the original -->
<path d="m28.995 7.875h-4.9586l1.8305-5.5773c.17188-.65313-.32226-1.2977-.99688-1.2977h-6.1875c-.51562 0-.95391.38242-1.0227.89375l-1.375 10.313c-.08164.61875.39961 1.1688 1.0227 1.1688h5.1004l-1.9809 8.3574c-.15469.65313.34375 1.2676 1.0012 1.2676.36094 0 .70469-.18906.89375-.51563l7.5625-13.063c.39961-.6832-.09453-1.5469-.88945-1.5469z" fill="#00ff00" stroke-width=".042969" style="opacity:.0625;stroke-width:.0625;stroke:#008000"/>
<path d="m25.278 7.875h-4.9586l1.8305-5.5773c.17188-.65313-.32226-1.2977-.99688-1.2977h-6.1875c-.51562 0-.95391.38242-1.0227.89375l-1.375 10.313c-.08164.61875.39961 1.1688 1.0227 1.1688h5.1004l-1.9809 8.3574c-.15469.65313.34375 1.2676 1.0012 1.2676.36094 0 .70469-.18906.89375-.51563l7.5625-13.063c.39961-.6832-.09453-1.5469-.88945-1.5469z" fill="#00ff00" stroke-width=".042969" style="opacity:.125;stroke-width:.125;stroke:#008000"/>
<path d="m21.561 7.875h-4.9586l1.8305-5.5773c.17188-.65313-.32226-1.2977-.99688-1.2977h-6.1875c-.51562 0-.95391.38242-1.0227.89375l-1.375 10.313c-.08164.61875.39961 1.1688 1.0227 1.1688h5.1004l-1.9809 8.3574c-.15469.65313.34375 1.2676 1.0012 1.2676.36094 0 .70469-.18906.89375-.51563l7.5625-13.063c.39961-.6832-.09453-1.5469-.88945-1.5469z" fill="#00ff00" stroke-width=".042969" style="opacity:.25;stroke-width:.25;stroke:#008000"/>
<path d="m17.844 7.875h-4.9586l1.8305-5.5773c.17188-.65313-.32226-1.2977-.99688-1.2977h-6.1875c-.51562 0-.95391.38242-1.0227.89375l-1.375 10.312c-.08164.61875.39961 1.1688 1.0227 1.1688h5.1004l-1.9809 8.3574c-.15469.65313.34375 1.2676 1.0012 1.2676.36094 0 .70469-.18906.89375-.51563l7.5625-13.062c.39961-.6832-.09453-1.5469-.88945-1.5469z" fill="#00ff00" stroke-width=".042969" style="opacity:.5;stroke-width:.25;stroke:#008000"/>
<path d="m14.127 7.875h-4.9586l1.8305-5.5773c.17188-.65313-.32226-1.2977-.99688-1.2977h-6.1875c-.51562 0-.95391.38242-1.0227.89375l-1.375 10.313c-.081641.61875.39961 1.1688 1.0227 1.1688h5.1004l-1.9809 8.3574c-.15469.65313.34375 1.2676 1.0012 1.2676.36094 0 .70469-.18906.89375-.51563l7.5625-13.063c.39961-.6832-.09453-1.5469-.88945-1.5469z" fill="#00ff00" stroke-width=".042969" style="stroke-width:.25;stroke:#008000"/>
</svg>
