<svg height="24" viewBox="0 0 24 24" width="24" xmlns="http://www.w3.org/2000/svg"><g transform="matrix(1.4962578 0 0 1.4962578 -6.501511 -1530.31098)"><g fill="#00ff00" fill-rule="evenodd"><path d="m5.6395491 1031.4042c.3253089-.6545.8395318-1.2072 1.3616071-1.7187.5272282-.5166 1.09303-1.0304 1.7633929-1.3393.7952657-.3665 1.6915259-.5393 2.5669639-.558.78513-.017 1.582461.1359 2.321429.4017.508029.1827.981766.47 1.40625.8036.749011.5887 1.583593 1.2026 1.964286 2.0759.09237.2119.127785.4763.04464.692-.126811.3289-.468821.5363-.758928.7366-.750514.5182-1.615482.8634-2.477679 1.1607-.721762.2489-1.472356.4385-2.232143.5134-.75559.074-1.527052.053-2.2767852-.067-.7508816-.1201-1.4863345-.353-2.1875-.6473-.4238041-.1779-.8663275-.3593-1.2053571-.6696-.2055083-.1881-.4212248-.4175-.46875-.692-.040637-.2347.072545-.4787.1785734-.692z" stroke="#000000"/><path d="m16.369764 1029.9738c.710102-.4572 1.323087-2.3409 1.790079-3.1887.209457-.3801.531041-.6077.826128-.5849.293797.023.698221.1993.792409.7081.08855.4781-.138682 1.0805-.370915 1.3545-.236222.2786-.472082-.012-.707473.2687-.38711.4622-.310642.6294-.584365 1.3101-.371146.9584-1.134248 2.2701-1.70168 2.8474.207656-.5974.840731-1.1232-.04418-2.7152z" stroke="#000000" stroke-width=".499576"/><path d="m16.41717 1032.7105c.415267.018.859718.2897 1.06266.6525.285207.5098.413056 1.3393 0 1.7524-.316385.3164-1.025923.3164-1.342308 0-.215309-.2153.122237-.6346 0-.9135-.173022-.3947-1.011149-.4495-.950803-.8762.0642-.454.772324-.6352 1.230451-.6152z" stroke="#000000" stroke-width=".5"/><path d="m5.949681 1033.812c-.5772448.3065-.9713883.6856-1.0111777.9743.150163.2667.9685723.4615 1.3330283.531.4879245.093.6797947.074 1.0937983-.2.4223327-.28 1.2952116-1.1446.8089422-1.287-.3058505-.093-1.3878074-.5086-1.5443442-.3398z" stroke="#000000" stroke-width=".5"/></g><circle cx="18.989082" cy="-1027.2384" fill="#003300" r=".375" transform="scale(1 -1)"/><path d="m7.5892857 1029.2595s2.9408043 1.6947 3.7053573 1.6742c.795921-.021 3.147321-1.942 3.147321-1.942" fill="none" stroke="#000000" stroke-width=".499576"/><path d="m8.2589286 1033.5006 1.7633924-2.8795" fill="none" stroke="#000000" stroke-width=".5"/><path d="m14.207589 1033.3556-1.763392-2.8795" fill="none" stroke="#000000" stroke-width=".5"/></g></svg>