<?xml version="1.0" encoding="UTF-8" standalone="no"?>
<!-- Created with Inkscape (http://www.inkscape.org/) -->

<svg
   xmlns:dc="http://purl.org/dc/elements/1.1/"
   xmlns:cc="http://creativecommons.org/ns#"
   xmlns:rdf="http://www.w3.org/1999/02/22-rdf-syntax-ns#"
   xmlns:svg="http://www.w3.org/2000/svg"
   xmlns="http://www.w3.org/2000/svg"
   xmlns:xlink="http://www.w3.org/1999/xlink"
   xmlns:sodipodi="http://sodipodi.sourceforge.net/DTD/sodipodi-0.dtd"
   xmlns:inkscape="http://www.inkscape.org/namespaces/inkscape"
   width="250"
   height="250"
   viewBox="0 0 250.00001 250"
   id="svg2"
   version="1.1"
   inkscape:version="0.91 r13725"
   sodipodi:docname="loading-1.svg">
  <title
     id="title4152">Polychromatic Loading</title>
  <defs
     id="defs4">
    <linearGradient
       inkscape:collect="always"
       id="linearGradient4182">
      <stop
         style="stop-color:#f5c71f;stop-opacity:1"
         offset="0"
         id="stop4184" />
      <stop
         style="stop-color:#e90001;stop-opacity:1"
         offset="1"
         id="stop4186" />
    </linearGradient>
    <inkscape:path-effect
       effect="spiro"
       id="path-effect4180"
       is_visible="true" />
    <inkscape:path-effect
       effect="spiro"
       id="path-effect4157"
       is_visible="true" />
    <inkscape:path-effect
       effect="spiro"
       id="path-effect4153"
       is_visible="true" />
    <inkscape:path-effect
       effect="spiro"
       id="path-effect4149"
       is_visible="true" />
    <linearGradient
       inkscape:collect="always"
       xlink:href="#linearGradient4182"
       id="linearGradient4192"
       x1="183.12602"
       y1="515.15997"
       x2="183.12602"
       y2="391.41629"
       gradientUnits="userSpaceOnUse"
       gradientTransform="translate(93.801645,-7.4110886)" />
  </defs>
  <sodipodi:namedview
     id="base"
     pagecolor="#ffffff"
     bordercolor="#666666"
     borderopacity="1.0"
     inkscape:pageopacity="0.0"
     inkscape:pageshadow="2"
     inkscape:zoom="1.979899"
     inkscape:cx="-30.261045"
     inkscape:cy="141.55635"
     inkscape:document-units="px"
     inkscape:current-layer="layer1"
     showgrid="false"
     inkscape:window-width="1920"
     inkscape:window-height="1004"
     inkscape:window-x="0"
     inkscape:window-y="24"
     inkscape:window-maximized="1"
     fit-margin-top="0"
     fit-margin-left="0"
     fit-margin-right="0"
     fit-margin-bottom="0"
     units="px" />
  <metadata
     id="metadata7">
    <rdf:RDF>
      <cc:Work
         rdf:about="">
        <dc:format>image/svg+xml</dc:format>
        <dc:type
           rdf:resource="http://purl.org/dc/dcmitype/StillImage" />
        <dc:title>Polychromatic Loading</dc:title>
        <dc:date>April 2017</dc:date>
        <dc:creator>
          <cc:Agent>
            <dc:title>Luke Horwell</dc:title>
          </cc:Agent>
        </dc:creator>
        <dc:description>A &quot;Chroma&quot; inspired chasing snake piece of the loading animation.</dc:description>
      </cc:Work>
    </rdf:RDF>
  </metadata>
  <g
     inkscape:label="Layer 1"
     inkscape:groupmode="layer"
     id="layer1"
     transform="translate(-221.79208,-351.9259)">
    <path
       style="fill:url(#linearGradient4192);fill-opacity:1;fill-rule:evenodd;stroke:none;stroke-width:1px;stroke-linecap:butt;stroke-linejoin:miter;stroke-opacity:1"
       d="m 263.0664,508.43231 c -3.71037,-10.05341 -6.42174,-20.47523 -8.08123,-31.0622 -0.86412,-5.51277 -1.44447,-11.09038 -1.26269,-16.66751 0.19957,-6.12321 1.31446,-12.17715 2.52539,-18.18275 1.49413,-7.41013 3.14401,-14.80663 5.55583,-21.97082 2.28831,-6.79733 5.26589,-13.37866 9.09138,-19.44543 3.07157,-4.87114 6.73687,-9.45159 11.36421,-12.87945 3.49422,-2.58846 7.47833,-4.47304 11.61676,-5.80837 2.53094,-0.81665 5.17499,-1.43744 7.82868,-1.2627 1.89333,0.12467 3.79625,0.67806 5.3033,1.83091 0.73611,0.5631 1.37052,1.26561 1.81909,2.07661 0.44858,0.81101 0.70784,1.73169 0.70629,2.65848 -0.002,1.02516 -0.31875,2.02986 -0.77284,2.94897 -0.45408,0.9191 -1.04341,1.76352 -1.62627,2.60686 -2.71029,3.9215 -5.33572,7.91061 -8.33376,11.61676 -4.95445,6.12465 -10.86038,11.3971 -16.41498,16.98319 -1.41794,1.42598 -2.81555,2.87522 -4.10374,4.41942 -1.87186,2.24386 -3.5049,4.67933 -4.98763,7.19733 -1.90188,3.22981 -3.56007,6.59939 -5.05076,10.03839 -1.67449,3.86303 -3.14031,7.81987 -4.29315,11.8693 -0.89912,3.15821 -1.6068,6.36857 -2.20971,9.59645 -0.41434,2.21831 -0.77965,4.44739 -1.01015,6.69226 -0.24125,2.34961 -0.33434,4.71154 -0.44194,7.07106 -0.14201,3.11408 -0.15512,6.23424 0.0631,9.34391 l 0.50508,7.19734 2.20974,13.13199 z"
       id="path4151"
       inkscape:path-effect="#path-effect4153"
       inkscape:original-d="m 263.0664,508.43231 c 0,0 -6.32323,-20.50889 -8.08123,-31.0622 -0.91554,-5.49602 -1.43648,-11.09846 -1.26269,-16.66751 0.19086,-6.11612 1.35266,-12.17708 2.52539,-18.18275 1.44775,-7.4141 3.01876,-14.85547 5.55583,-21.97082 2.4031,-6.73963 5.16918,-13.46096 9.09138,-19.44543 3.13844,-4.78862 6.82622,-9.38842 11.36421,-12.87945 3.43142,-2.63975 7.49617,-4.48034 11.61676,-5.80837 2.51585,-0.81084 5.19522,-1.49042 7.82868,-1.2627 1.8632,0.16111 3.88095,0.61666 5.3033,1.83091 1.36048,1.16143 2.45177,2.94779 2.52538,4.73509 0.083,2.01552 -1.40561,3.80022 -2.39911,5.55583 -2.3471,4.14757 -5.28066,7.95756 -8.33376,11.61676 -5.04394,6.04527 -11.00023,11.26767 -16.41498,16.98319 -1.38258,1.45938 -2.84407,2.85271 -4.10374,4.41942 -1.82898,2.27478 -3.49676,4.68793 -4.98763,7.19733 -1.91325,3.22033 -3.5693,6.59799 -5.05076,10.03839 -1.66398,3.86425 -3.10342,7.83373 -4.29315,11.8693 -0.92823,3.14855 -1.59601,6.3718 -2.20971,9.59645 -0.42178,2.21624 -0.7712,4.44893 -1.01015,6.69226 -0.25013,2.34834 -0.37622,4.71036 -0.44194,7.07106 -0.0867,3.1135 0.0631,9.34391 0.0631,9.34391 l 0.50508,7.19734 z"
       inkscape:connector-curvature="0"
       sodipodi:nodetypes="cssssssssssssssssssssccc" />
  </g>
</svg>
