<svg height="96" viewBox="0 0 95.999998 95.999994" width="96" xmlns="http://www.w3.org/2000/svg"><linearGradient gradientUnits="userSpaceOnUse" x1="47.921783" x2="221.89511" y1="923.4082" y2="923.4082"><stop offset="0" stop-color="#ff0000"/><stop offset=".25" stop-color="#ffff00"/><stop offset=".5" stop-color="#00ffff"/><stop offset=".75" stop-color="#0000ff"/><stop offset="1" stop-color="#ff00ff"/></linearGradient><g fill="none" stroke="none" stroke-width="9.06429" transform="matrix(1.99516225111 0 0 1.99516225111 -38.65841817044 -1966.8975313727)"><path d="m20.378502 987.37736v17.15484h38.598367v-17.15482l-38.598367.00002zm2.144354 2.14439 34.309659-.00002v12.86617h-34.309659z" fill="#01ff20" fill-rule="evenodd"/><g fill="#00ff00"><path d="m58.372592 998.36724c1.246991-.0939 2.539271.23294 3.591797.9082 1.05253.67527 1.88975 1.71596 2.324219 2.88866.493998 1.3333.469246 2.8796-.08789 4.1718-.555685 1.2889-1.669676 2.3616-2.974609 2.8379-1.412828.5157-3.092572.3892-4.761719.039-1.677569-.3513-3.428335-.9237-5.347656-1.0684-3.280309-.2472-6.606768.8899-9.050781 3.0918l-.685547.6172 1.234375 1.3711.685547-.6172c2.055661-1.852 4.918641-2.831 7.677734-2.623 1.62899.1227 3.302183.6551 5.107422 1.0332 1.813661.3804 3.843581.595 5.773437-.1094 1.812951-.6617 3.278737-2.0828 4.03711-3.8418.756921-1.7556.782201-3.7658.123047-5.5449-.577019-1.55734-1.66074-2.90198-3.058594-3.79879-1.397858-.89682-3.070436-1.31995-4.726563-1.19532z" fill-rule="evenodd"/><path d="m36.278774 1011.3015c-2.204463 2.6228-3.716895 5.967-4.304499 8.9803-.848854 1.8309-1.330154 2.9128-1.696287 4.218-.931623 2.925.779999 6.1575 3.905229 7.4053 3.127132 1.2486 6.618179.088 7.997956-2.6596 1.00923-1.8133 1.312193-3.0808 1.702222-4.1108 1.554712-3.3521 3.330945-6.4565 3.284398-9.6169-1.377211-1.5215-3.111514-2.9005-4.784598-3.6043-2.125214-.584-4.243365-1.2207-6.104421-.612zm9.030082 4.911c-.04511 2.3598-1.414786 5.1393-3.08757 8.1003-.68639 1.3785-1.067489 2.9116-1.700557 4.1116-.912205 1.8231-3.318219 2.7057-5.642341 1.7778-2.705942-1.0099-3.325695-3.4151-2.817549-5.1938.597467-1.7813 1.110277-2.9167 1.710254-4.2669.466456-2.5614 1.503868-5.5181 3.549442-7.8101.779815-.1568 2.678229.012 4.140854.6027 1.462661.5904 2.758904 1.4683 3.847467 2.6784z"/><path d="m41.390862 1014.5981c-.567741-.2267-1.218623.046-1.447837.6078l-.832762 2.04c-.229215.5615.04751 1.2049.615255 1.4316.567743.2267 1.218192-.047 1.447407-.608l.832761-2.04c.229215-.5615-.04708-1.2047-.614824-1.4314z"/></g><path d="m17.066406 18.130859v3.199219h3.199219v-3.199219zm5.332032 0v3.199219h3.201171v-3.199219zm5.333984 0v3.199219h3.201172v-3.199219zm5.333984 0v3.199219h3.199219v-3.199219zm5.332032 0v3.199219h3.201171v-3.199219zm5.333984 0v3.199219h3.201172v-3.199219zm-26.666016 5.333985v3.199218h3.199219v-3.199218zm5.332032 0v3.199218h3.201171v-3.199218zm5.333984 0v3.199218h3.201172v-3.199218zm5.333984 0v3.199218h3.199219v-3.199218zm5.332032 0v3.199218h3.201171v-3.199218zm5.333984 0v3.199218h3.201172v-3.199218z" fill="#01ff20" transform="matrix(1.0051658 0 0 1.0051658 7.513021 973.44141)"/></g></svg>
