<svg width="24" height="24" version="1.1" viewBox="0 0 24 24" xmlns="http://www.w3.org/2000/svg"><path d="m13.498 10.046v1.4704h.7352v1.4704h-.7352v1.4704h-11.028v-4.4112h11.028m.3676-1.4704h-11.763c-.60907 0-1.1028.49373-1.1028 1.1028v5.1464c0 .60907.49373 1.1028 1.1028 1.1028h11.763c.60907 0 1.1028-.49373 1.1028-1.1028v-.3676h.1838c.30453 0 .5514-.24687.5514-.5514v-3.3084c0-.30453-.24687-.5514-.5514-.5514h-.1838v-.3676c0-.60907-.49373-1.1028-1.1028-1.1028z" style="fill:#00ff00;stroke-width:.022975"/><path d="m23.122 9.7854h-2.6622l.98274-2.9944c.092275-.35065-.17302-.69669-.5352-.69669h-3.3219c-.27683 0-.51213.20531-.54904.47984l-.73821 5.5366c-.04383.33219.21454.62748.54904.62748h2.7383l-1.0635 4.4869c-.08305.35065.18455.68054.53751.68054.19378 0 .37833-.10151.47984-.27683l4.0601-7.013c.21454-.3668-.05075-.83048-.47753-.83048z" style="fill:#00ff00;stroke-width:.023069"/><path d="m6.3414 10.781h3.264v2.9408h-3.264z" style="fill-opacity:.60784;fill:#00ff00;stroke-width:.024055"/><path d="m3.0774 10.781h3.264v2.9408h-3.264z" style="fill:#00ff00;stroke-width:.024055"/><path d="m9.6053 10.781h3.264v2.9408h-3.264z" style="fill-opacity:.21569;fill:#00ff00;stroke-width:.024055"/></svg>
