<svg xmlns:rdf="http://www.w3.org/1999/02/22-rdf-syntax-ns#" xmlns="http://www.w3.org/2000/svg" height="16" width="16" version="1.1" xmlns:cc="http://creativecommons.org/ns#" xmlns:dc="http://purl.org/dc/elements/1.1/" viewBox="0 0 16 16">
 <path stroke-width=".027778" d="m15.909 9.0028-2.0118 3.4488a1.7777 1.7777 0 0 1 -1.5356 .88206h-11.11c-.51455 0-.83515-.55816-.57588-1.0026l2.0114-3.4488a1.7778 1.7778 0 0 1 1.5357 -.8822h11.11c.51455 0 .83515.55816.57585 1.0026zm-11.686-1.8917h9.1108v-1.3336c0-.73639-.59696-1.3333-1.3333-1.3333h-4.4451l-1.778-1.7779h-4.4446c-.73634 0-1.3333.5970-1.3333 1.3334v7.7243l1.9189-3.2899c.4760-.8161 1.3587-1.323 2.3035-1.323z"/>
</svg>
