<?xml version="1.0" encoding="UTF-8" standalone="no"?>
<!-- Created with Inkscape (http://www.inkscape.org/) -->

<svg
   xmlns:dc="http://purl.org/dc/elements/1.1/"
   xmlns:cc="http://creativecommons.org/ns#"
   xmlns:rdf="http://www.w3.org/1999/02/22-rdf-syntax-ns#"
   xmlns:svg="http://www.w3.org/2000/svg"
   xmlns="http://www.w3.org/2000/svg"
   xmlns:sodipodi="http://sodipodi.sourceforge.net/DTD/sodipodi-0.dtd"
   xmlns:inkscape="http://www.inkscape.org/namespaces/inkscape"
   width="24"
   height="24"
   viewBox="0 0 24 24"
   id="svg2"
   version="1.1"
   inkscape:version="0.92.4 (unknown)"
   sodipodi:docname="dpi-slow.svg">
  <defs
     id="defs4">
    <inkscape:path-effect
       effect="spiro"
       id="path-effect10319"
       is_visible="true" />
    <inkscape:path-effect
       effect="spiro"
       id="path-effect10288"
       is_visible="true" />
    <linearGradient
       id="linearGradient5716">
      <stop
         style="stop-color:#000000;stop-opacity:1;"
         offset="0"
         id="stop5718" />
      <stop
         style="stop-color:#484848;stop-opacity:1;"
         offset="1"
         id="stop5720" />
    </linearGradient>
  </defs>
  <sodipodi:namedview
     id="base"
     pagecolor="#ffffff"
     bordercolor="#666666"
     borderopacity="1.0"
     inkscape:pageopacity="0.0"
     inkscape:pageshadow="2"
     inkscape:zoom="31.678384"
     inkscape:cx="9.7859927"
     inkscape:cy="11.799613"
     inkscape:document-units="px"
     inkscape:current-layer="layer1"
     showgrid="false"
     units="px"
     inkscape:window-width="1920"
     inkscape:window-height="1004"
     inkscape:window-x="0"
     inkscape:window-y="24"
     inkscape:window-maximized="1"
     showguides="true"
     inkscape:guide-bbox="true" />
  <metadata
     id="metadata7">
    <rdf:RDF>
      <cc:Work
         rdf:about="">
        <dc:format>image/svg+xml</dc:format>
        <dc:type
           rdf:resource="http://purl.org/dc/dcmitype/StillImage" />
        <dc:title></dc:title>
      </cc:Work>
    </rdf:RDF>
  </metadata>
  <g
     inkscape:label="Layer 1"
     inkscape:groupmode="layer"
     id="layer1"
     transform="translate(0,-1028.3622)">
    <g
       id="g10355"
       transform="matrix(1.4962578,0,0,1.4962578,-6.5015109,-501.94878)">
      <path
         sodipodi:nodetypes="ssssssssssssssss"
         inkscape:connector-curvature="0"
         id="path10278"
         d="m 5.6395491,1031.4042 c 0.3253089,-0.6545 0.8395318,-1.2072 1.3616071,-1.7187 0.5272282,-0.5166 1.09303,-1.0304 1.7633929,-1.3393 0.7952657,-0.3665 1.6915259,-0.5393 2.5669639,-0.558 0.78513,-0.017 1.582461,0.1359 2.321429,0.4017 0.508029,0.1827 0.981766,0.47 1.40625,0.8036 0.749011,0.5887 1.583593,1.2026 1.964286,2.0759 0.09237,0.2119 0.127785,0.4763 0.04464,0.692 -0.126811,0.3289 -0.468821,0.5363 -0.758928,0.7366 -0.750514,0.5182 -1.615482,0.8634 -2.477679,1.1607 -0.721762,0.2489 -1.472356,0.4385 -2.232143,0.5134 -0.75559,0.074 -1.527052,0.053 -2.2767852,-0.067 -0.7508816,-0.1201 -1.4863345,-0.353 -2.1875,-0.6473 -0.4238041,-0.1779 -0.8663275,-0.3593 -1.2053571,-0.6696 -0.2055083,-0.1881 -0.4212248,-0.4175 -0.46875,-0.692 -0.040637,-0.2347 0.072545,-0.4787 0.1785734,-0.692 z"
         style="fill:#00ff00;fill-rule:evenodd;stroke:#000000;stroke-width:1px;stroke-linecap:butt;stroke-linejoin:miter;stroke-opacity:1" />
      <path
         sodipodi:nodetypes="cssssscccc"
         inkscape:connector-curvature="0"
         id="path10280"
         d="m 16.369764,1029.9738 c 0.710102,-0.4572 1.323087,-2.3409 1.790079,-3.1887 0.209457,-0.3801 0.531041,-0.6077 0.826128,-0.5849 0.293797,0.023 0.698221,0.1993 0.792409,0.7081 0.08855,0.4781 -0.138682,1.0805 -0.370915,1.3545 -0.236222,0.2786 -0.472082,-0.012 -0.707473,0.2687 -0.38711,0.4622 -0.310642,0.6294 -0.584365,1.3101 -0.371146,0.9584 -1.134248,2.2701 -1.70168,2.8474 0.207656,-0.5974 0.840731,-1.1232 -0.04418,-2.7152 z"
         style="fill:#00ff00;fill-opacity:1;fill-rule:evenodd;stroke:#000000;stroke-width:0.49957576;stroke-linecap:butt;stroke-linejoin:miter;stroke-miterlimit:4;stroke-dasharray:none;stroke-opacity:1" />
      <path
         sodipodi:nodetypes="sssssss"
         inkscape:connector-curvature="0"
         id="path10282"
         d="m 16.41717,1032.7105 c 0.415267,0.018 0.859718,0.2897 1.06266,0.6525 0.285207,0.5098 0.413056,1.3393 0,1.7524 -0.316385,0.3164 -1.025923,0.3164 -1.342308,0 -0.215309,-0.2153 0.122237,-0.6346 0,-0.9135 -0.173022,-0.3947 -1.011149,-0.4495 -0.950803,-0.8762 0.0642,-0.454 0.772324,-0.6352 1.230451,-0.6152 z"
         style="fill:#00ff00;fill-opacity:1;fill-rule:evenodd;stroke:#000000;stroke-width:0.5;stroke-linecap:butt;stroke-linejoin:miter;stroke-miterlimit:4;stroke-dasharray:none;stroke-opacity:1" />
      <path
         sodipodi:nodetypes="ccssccc"
         inkscape:connector-curvature="0"
         id="path10284"
         d="m 5.949681,1033.812 c -0.5772448,0.3065 -0.9713883,0.6856 -1.0111777,0.9743 0.150163,0.2667 0.9685723,0.4615 1.3330283,0.531 0.4879245,0.093 0.6797947,0.074 1.0937983,-0.2 0.4223327,-0.28 1.2952116,-1.1446 0.8089422,-1.287 -0.3058505,-0.093 -1.3878074,-0.5086 -1.5443442,-0.3398 z"
         style="fill:#00ff00;fill-opacity:1;fill-rule:evenodd;stroke:#000000;stroke-width:0.5;stroke-linecap:butt;stroke-linejoin:miter;stroke-miterlimit:4;stroke-dasharray:none;stroke-opacity:1" />
      <circle
         r="0.375"
         transform="scale(1,-1)"
         cy="-1027.2384"
         cx="18.989082"
         id="path10298"
         style="opacity:1;fill:#003300;fill-opacity:1;stroke:none;stroke-width:0.73445201;stroke-linecap:round;stroke-linejoin:round;stroke-miterlimit:4;stroke-dasharray:none;stroke-dashoffset:0;stroke-opacity:1" />
      <path
         sodipodi:nodetypes="csc"
         inkscape:connector-curvature="0"
         id="path10321"
         d="m 7.5892857,1029.2595 c 0,0 2.9408043,1.6947 3.7053573,1.6742 0.795921,-0.021 3.147321,-1.942 3.147321,-1.942"
         style="fill:none;fill-rule:evenodd;stroke:#000000;stroke-width:0.49957576;stroke-linecap:butt;stroke-linejoin:miter;stroke-miterlimit:4;stroke-dasharray:none;stroke-opacity:1" />
      <path
         sodipodi:nodetypes="cc"
         inkscape:connector-curvature="0"
         id="path10329"
         d="m 8.2589286,1033.5006 1.7633924,-2.8795"
         style="fill:none;fill-rule:evenodd;stroke:#000000;stroke-width:0.5;stroke-linecap:butt;stroke-linejoin:miter;stroke-miterlimit:4;stroke-dasharray:none;stroke-opacity:1" />
      <path
         sodipodi:nodetypes="cc"
         inkscape:connector-curvature="0"
         id="path10329-6"
         d="m 14.207589,1033.3556 -1.763392,-2.8795"
         style="fill:none;fill-rule:evenodd;stroke:#000000;stroke-width:0.5;stroke-linecap:butt;stroke-linejoin:miter;stroke-miterlimit:4;stroke-dasharray:none;stroke-opacity:1" />
    </g>
  </g>
</svg>
