<?xml version="1.0" encoding="UTF-8" standalone="no"?>
<svg
   xmlns:dc="http://purl.org/dc/elements/1.1/"
   xmlns:cc="http://creativecommons.org/ns#"
   xmlns:rdf="http://www.w3.org/1999/02/22-rdf-syntax-ns#"
   xmlns:svg="http://www.w3.org/2000/svg"
   xmlns="http://www.w3.org/2000/svg"
   xmlns:sodipodi="http://sodipodi.sourceforge.net/DTD/sodipodi-0.dtd"
   xmlns:inkscape="http://www.inkscape.org/namespaces/inkscape"
   viewBox="0 0 24 24"
   version="1.1"
   id="svg4"
   sodipodi:docname="effects.svg"
   inkscape:version="0.92.3 (unknown)"
   width="24"
   height="24">
  <metadata
     id="metadata10">
    <rdf:RDF>
      <cc:Work
         rdf:about="">
        <dc:format>image/svg+xml</dc:format>
        <dc:type
           rdf:resource="http://purl.org/dc/dcmitype/StillImage" />
        <dc:title></dc:title>
      </cc:Work>
    </rdf:RDF>
  </metadata>
  <defs
     id="defs8" />
  <sodipodi:namedview
     pagecolor="#ffffff"
     bordercolor="#666666"
     borderopacity="1"
     objecttolerance="10"
     gridtolerance="10"
     guidetolerance="10"
     inkscape:pageopacity="0"
     inkscape:pageshadow="2"
     inkscape:window-width="640"
     inkscape:window-height="480"
     id="namedview6"
     showgrid="false"
     inkscape:zoom="5.28125"
     inkscape:cx="16.642687"
     inkscape:cy="13.725768"
     inkscape:current-layer="svg4" />
  <path
     d="m 10.625,5.125215 0.6875,-1.375 1.375,-0.6875 -1.375,-0.6875 -0.6875,-1.375 -0.6875,1.375 -1.375,0.6875 1.375,0.6875 z m -6.1875,2.75 L 5.5830469,5.583695 7.875,4.437715 5.5830469,3.291735 4.4375,1.000215 3.2919531,3.291735 1,4.437715 3.2919531,5.583695 Z m 15.125,5.5 -1.145547,2.29152 -2.291953,1.14598 2.291953,1.14598 1.145547,2.29152 1.145547,-2.29152 L 23,16.812715 20.708047,15.666735 Z m 3.034453,-8.32606 -3.645898,-3.64589 c -0.268125,-0.26899 -0.620039,-0.40305 -0.971953,-0.40305 -0.351915,0 -0.703829,0.13406 -0.972383,0.40305 L 1.4030469,17.006935 c -0.5371094,0.53711 -0.5371094,1.40765 0,1.94433 l 3.6458984,3.6459 c 0.2685547,0.26856 0.6204688,0.40262 0.9719531,0.40262 0.3519141,0 0.7038282,-0.13406 0.9723828,-0.40262 L 22.596953,6.993065 c 0.537109,-0.53625 0.537109,-1.40723 0,-1.94391 z m -6.151836,4.69348 -2.187539,-2.18754 3.721094,-3.72109 2.187539,2.18754 z"
     id="path2"
     style="fill:#00ff00;stroke-width:0.04296875"
     inkscape:connector-curvature="0" />
</svg>
