<?xml version="1.0" encoding="UTF-8" standalone="no"?>
<!-- Created with Inkscape (http://www.inkscape.org/) -->

<svg
   xmlns:dc="http://purl.org/dc/elements/1.1/"
   xmlns:cc="http://creativecommons.org/ns#"
   xmlns:rdf="http://www.w3.org/1999/02/22-rdf-syntax-ns#"
   xmlns:svg="http://www.w3.org/2000/svg"
   xmlns="http://www.w3.org/2000/svg"
   xmlns:xlink="http://www.w3.org/1999/xlink"
   xmlns:sodipodi="http://sodipodi.sourceforge.net/DTD/sodipodi-0.dtd"
   xmlns:inkscape="http://www.inkscape.org/namespaces/inkscape"
   width="250"
   height="250"
   viewBox="0 0 250.00001 250"
   id="svg2"
   version="1.1"
   inkscape:version="0.91 r13725"
   sodipodi:docname="loading-3.svg">
  <title
     id="title4152">Polychromatic Loading</title>
  <defs
     id="defs4">
    <linearGradient
       inkscape:collect="always"
       id="linearGradient4210">
      <stop
         style="stop-color:#a3ff09;stop-opacity:1"
         offset="0"
         id="stop4212" />
      <stop
         style="stop-color:#0febdc;stop-opacity:1"
         offset="1"
         id="stop4214" />
    </linearGradient>
    <inkscape:path-effect
       effect="spiro"
       id="path-effect4180"
       is_visible="true" />
    <inkscape:path-effect
       effect="spiro"
       id="path-effect4157"
       is_visible="true" />
    <inkscape:path-effect
       effect="spiro"
       id="path-effect4153"
       is_visible="true" />
    <inkscape:path-effect
       effect="spiro"
       id="path-effect4149"
       is_visible="true" />
    <linearGradient
       inkscape:collect="always"
       xlink:href="#linearGradient4210"
       id="linearGradient4216"
       x1="270.87875"
       y1="647.68292"
       x2="427.901"
       y2="647.68292"
       gradientUnits="userSpaceOnUse"
       gradientTransform="translate(12.484365,-113.4771)" />
  </defs>
  <sodipodi:namedview
     id="base"
     pagecolor="#ffffff"
     bordercolor="#666666"
     borderopacity="1.0"
     inkscape:pageopacity="0.0"
     inkscape:pageshadow="2"
     inkscape:zoom="1.979899"
     inkscape:cx="16.205972"
     inkscape:cy="141.55635"
     inkscape:document-units="px"
     inkscape:current-layer="layer1"
     showgrid="false"
     inkscape:window-width="1920"
     inkscape:window-height="1004"
     inkscape:window-x="0"
     inkscape:window-y="24"
     inkscape:window-maximized="1"
     fit-margin-top="0"
     fit-margin-left="0"
     fit-margin-right="0"
     fit-margin-bottom="0"
     units="px" />
  <metadata
     id="metadata7">
    <rdf:RDF>
      <cc:Work
         rdf:about="">
        <dc:format>image/svg+xml</dc:format>
        <dc:type
           rdf:resource="http://purl.org/dc/dcmitype/StillImage" />
        <dc:title>Polychromatic Loading</dc:title>
        <dc:description>A &quot;Chroma&quot; inspired chasing snake piece of the loading animation.</dc:description>
        <dc:date>April 2017</dc:date>
        <dc:creator>
          <cc:Agent>
            <dc:title>Luke Horwell</dc:title>
          </cc:Agent>
        </dc:creator>
      </cc:Work>
    </rdf:RDF>
  </metadata>
  <g
     inkscape:label="Layer 1"
     inkscape:groupmode="layer"
     id="layer1"
     transform="translate(-221.79208,-351.9259)">
    <path
       style="fill:url(#linearGradient4216);fill-opacity:1;fill-rule:evenodd;stroke:none;stroke-width:1px;stroke-linecap:butt;stroke-linejoin:miter;stroke-opacity:1"
       d="m 439.89507,495.40296 c -1.90194,3.8887 -3.95765,7.70219 -6.16071,11.42857 -3.14705,5.3231 -6.60415,10.48048 -10.625,15.17857 -4.29921,5.02333 -9.23227,9.50324 -14.64286,13.30358 -5.03605,3.53727 -10.49175,6.48894 -16.25,8.66071 -4.80586,1.81257 -9.81828,3.08005 -14.91071,3.75 -2.7827,0.36608 -5.58708,0.55413 -8.39286,0.625 -3.09581,0.0782 -6.1949,0.0139 -9.28571,-0.17857 -2.212,-0.13777 -4.42244,-0.34154 -6.60715,-0.71429 -2.84867,-0.48603 -5.642,-1.25743 -8.39285,-2.14285 -4.96837,-1.59918 -9.8073,-3.57116 -14.64286,-5.53572 -5.12567,-2.08243 -10.25486,-4.15922 -15.44643,-6.07143 -2.89714,-1.0671 -5.81332,-2.0828 -8.75,-3.03571 -2.57178,-0.83451 -5.17482,-1.62428 -7.85714,-1.96429 -2.4477,-0.31027 -4.97734,-0.23419 -7.32143,0.53572 -1.35582,0.44531 -2.65325,1.13213 -3.66072,2.14285 -1.10131,1.10487 -1.80845,2.5446 -2.32142,4.01786 -0.54851,1.57532 -0.89862,3.25286 -0.71429,4.91072 0.23487,2.11244 1.30835,4.02437 2.32143,5.89285 1.10041,2.02955 2.15868,4.09047 3.48214,5.98215 1.90031,2.7162 4.31555,5.03615 6.875,7.14285 3.12255,2.57019 6.4893,4.85354 10.08929,6.69643 3.6036,1.84473 7.42792,3.24159 11.33928,4.28572 3.4833,0.92986 7.04002,1.58227 10.625,1.96428 4.53348,0.48309 9.105,0.53373 13.66072,0.35714 4.39417,-0.17032 8.78327,-0.55204 13.125,-1.25 4.27963,-0.68797 8.50632,-1.68205 12.67857,-2.85714 4.52447,-1.27429 8.99469,-2.76452 13.30357,-4.64286 5.67667,-2.47459 11.04838,-5.61254 16.16071,-9.10714 3.12615,-2.13692 6.15928,-4.40888 9.10715,-6.78571 2.52925,-2.0393 4.99788,-4.15767 7.32143,-6.42857 2.88134,-2.81605 5.53309,-5.86046 8.03571,-9.01786 2.4276,-3.06275 4.7189,-6.23665 6.78571,-9.55357 2.02237,-3.24561 3.82757,-6.62472 5.44643,-10.08929 1.57761,-3.37629 2.97895,-6.83493 4.19643,-10.35714 l 1.42857,-7.14286 z"
       id="path4178"
       inkscape:path-effect="#path-effect4180"
       inkscape:original-d="m 439.89507,495.40296 c 0,0 -3.88918,7.74486 -6.16071,11.42857 -3.24158,5.25683 -6.54338,10.54364 -10.625,15.17857 -4.35831,4.94913 -9.25121,9.50636 -14.64286,13.30358 -5.0183,3.53428 -10.52305,6.45241 -16.25,8.66071 -4.78183,1.84386 -9.85145,2.93168 -14.91071,3.75 -2.76937,0.44794 -5.58856,0.54772 -8.39286,0.625 -3.09463,0.0853 -6.19613,0.0178 -9.28571,-0.17857 -2.21076,-0.14048 -4.42726,-0.32024 -6.60715,-0.71429 -2.84131,-0.51361 -5.63936,-1.27384 -8.39285,-2.14285 -4.97616,-1.57049 -9.77407,-3.65862 -14.64286,-5.53572 -5.16193,-1.99012 -10.25763,-4.15247 -15.44643,-6.07143 -2.89554,-1.07085 -5.79122,-2.15451 -8.75,-3.03571 -2.58734,-0.77058 -5.16746,-1.73249 -7.85714,-1.96429 -2.43796,-0.21011 -4.98467,-0.19049 -7.32143,0.53572 -1.35022,0.41962 -2.66376,1.14022 -3.66072,2.14285 -1.09062,1.09682 -1.81409,2.55667 -2.32142,4.01786 -0.54255,1.56263 -0.90478,3.26759 -0.71429,4.91072 0.24312,2.09716 1.40083,3.99293 2.32143,5.89285 1.00609,2.07636 2.09185,4.1408 3.48214,5.98215 1.99128,2.63732 4.33735,5.02602 6.875,7.14285 3.09961,2.58559 6.49723,4.85523 10.08929,6.69643 3.59586,1.84315 7.44721,3.19982 11.33928,4.28572 3.46919,0.96791 7.04296,1.58868 10.625,1.96428 4.53029,0.47503 9.10829,0.51384 13.66072,0.35714 4.3922,-0.15118 8.78515,-0.5572 13.125,-1.25 4.278,-0.68292 8.51358,-1.66528 12.67857,-2.85714 4.51557,-1.29219 9.02357,-2.7085 13.30357,-4.64286 5.63464,-2.54659 10.97761,-5.73524 16.16071,-9.10714 3.17332,-2.06442 6.16455,-4.40393 9.10715,-6.78571 2.52442,-2.0433 5.01655,-4.14049 7.32143,-6.42857 2.85737,-2.83654 5.52687,-5.86886 8.03571,-9.01786 2.43397,-3.05503 4.72314,-6.23646 6.78571,-9.55357 2.01809,-3.24557 3.81864,-6.63145 5.44643,-10.08929 1.58654,-3.37023 4.19643,-10.35714 4.19643,-10.35714 z"
       inkscape:connector-curvature="0"
       sodipodi:nodetypes="cssssssssssssssssssssssssssssssssscc" />
  </g>
</svg>
