<?xml version="1.0" encoding="UTF-8" standalone="no"?>
<!-- Created with Inkscape (http://www.inkscape.org/) -->

<svg
   xmlns:dc="http://purl.org/dc/elements/1.1/"
   xmlns:cc="http://creativecommons.org/ns#"
   xmlns:rdf="http://www.w3.org/1999/02/22-rdf-syntax-ns#"
   xmlns:svg="http://www.w3.org/2000/svg"
   xmlns="http://www.w3.org/2000/svg"
   xmlns:xlink="http://www.w3.org/1999/xlink"
   xmlns:sodipodi="http://sodipodi.sourceforge.net/DTD/sodipodi-0.dtd"
   xmlns:inkscape="http://www.inkscape.org/namespaces/inkscape"
   width="250"
   height="250"
   viewBox="0 0 250.00001 250"
   id="svg2"
   version="1.1"
   inkscape:version="0.91 r13725"
   sodipodi:docname="loading-2.svg">
  <title
     id="title4152">Polychromatic Loading</title>
  <defs
     id="defs4">
    <linearGradient
       inkscape:collect="always"
       id="linearGradient4194">
      <stop
         style="stop-color:#bd00f0;stop-opacity:1"
         offset="0"
         id="stop4196" />
      <stop
         style="stop-color:#15ebfb;stop-opacity:1"
         offset="1"
         id="stop4198" />
    </linearGradient>
    <inkscape:path-effect
       effect="spiro"
       id="path-effect4180"
       is_visible="true" />
    <inkscape:path-effect
       effect="spiro"
       id="path-effect4157"
       is_visible="true" />
    <inkscape:path-effect
       effect="spiro"
       id="path-effect4153"
       is_visible="true" />
    <inkscape:path-effect
       effect="spiro"
       id="path-effect4149"
       is_visible="true" />
    <linearGradient
       inkscape:collect="always"
       xlink:href="#linearGradient4194"
       id="linearGradient4200"
       x1="516.36127"
       y1="416.86911"
       x2="516.36127"
       y2="535.56207"
       gradientUnits="userSpaceOnUse"
       gradientTransform="translate(-126.91669,-18.01769)" />
  </defs>
  <sodipodi:namedview
     id="base"
     pagecolor="#ffffff"
     bordercolor="#666666"
     borderopacity="1.0"
     inkscape:pageopacity="0.0"
     inkscape:pageshadow="2"
     inkscape:zoom="1.979899"
     inkscape:cx="16.205972"
     inkscape:cy="141.55635"
     inkscape:document-units="px"
     inkscape:current-layer="layer1"
     showgrid="false"
     inkscape:window-width="1920"
     inkscape:window-height="1004"
     inkscape:window-x="0"
     inkscape:window-y="24"
     inkscape:window-maximized="1"
     fit-margin-top="0"
     fit-margin-left="0"
     fit-margin-right="0"
     fit-margin-bottom="0"
     units="px" />
  <metadata
     id="metadata7">
    <rdf:RDF>
      <cc:Work
         rdf:about="">
        <dc:format>image/svg+xml</dc:format>
        <dc:type
           rdf:resource="http://purl.org/dc/dcmitype/StillImage" />
        <dc:title>Polychromatic Loading</dc:title>
        <dc:description>A &quot;Chroma&quot; inspired chasing snake piece of the loading animation.</dc:description>
        <dc:date>April 2017</dc:date>
        <dc:creator>
          <cc:Agent>
            <dc:title>Luke Horwell</dc:title>
          </cc:Agent>
        </dc:creator>
      </cc:Work>
    </rdf:RDF>
  </metadata>
  <g
     inkscape:label="Layer 1"
     inkscape:groupmode="layer"
     id="layer1"
     transform="translate(-221.79208,-351.9259)">
    <path
       style="fill:url(#linearGradient4200);fill-opacity:1;fill-rule:evenodd;stroke:none;stroke-width:1px;stroke-linecap:butt;stroke-linejoin:miter;stroke-opacity:1"
       d="m 347.19046,398.27308 14.10714,5.17857 c 3.98305,1.46213 7.94392,3.0377 11.60714,5.17857 3.49938,2.04512 6.72553,4.52684 9.82143,7.14286 4.72492,3.99253 9.23142,8.39118 12.32143,13.75 2.57663,4.46851 4.08773,9.46477 5.35714,14.46429 1.42435,5.60973 2.57842,11.36082 2.32143,17.14285 -0.3515,7.90852 -3.3117,15.44326 -4.82143,23.21429 -0.75371,3.87956 -1.14621,7.83433 -1.07143,11.78571 0.067,3.54133 0.5091,7.07211 1.25,10.53572 0.56924,2.66113 1.35275,5.36149 3.03572,7.5 1.21698,1.54638 2.90881,2.7514 4.82142,3.21428 2.35493,0.56993 4.82763,3e-5 7.14286,-0.71428 3.1229,-0.9635 6.21499,-2.22305 8.75,-4.28572 2.99594,-2.43771 5.03267,-5.84407 6.78572,-9.28571 1.75808,-3.4515 3.29746,-7.02075 4.46428,-10.71429 0.62705,-1.98492 1.14694,-4.00896 1.42857,-6.07143 0.5007,-3.66679 0.24152,-7.39453 -0.17857,-11.07142 -0.40601,-3.55367 -0.96403,-7.10164 -1.96428,-10.53572 -1.00243,-3.44157 -2.44008,-6.73907 -3.92858,-10 -1.45943,-3.19725 -2.9726,-6.37193 -4.64285,-9.46428 -2.47493,-4.58215 -5.29783,-8.98542 -8.57143,-13.03572 -3.89998,-4.82529 -8.42988,-9.13396 -13.39286,-12.85714 -4.73271,-3.55044 -9.84412,-6.56237 -15,-9.46429 -3.13393,-1.76389 -6.289,-3.49025 -9.46428,-5.17857 -4.09312,-1.12424 -8.20072,-2.19579 -12.32143,-3.21428 -3.2658,-0.80719 -6.53984,-1.58105 -9.82143,-2.32143 l -8.03571,-0.89286 z"
       id="path4155"
       inkscape:path-effect="#path-effect4157"
       inkscape:original-d="m 347.19046,398.27308 14.10714,5.17857 c 0,0 7.93941,3.05795 11.60714,5.17857 3.50446,2.02622 6.81701,4.42989 9.82143,7.14286 4.56766,4.12457 9.14313,8.4799 12.32143,13.75 2.65524,4.4028 4.11178,9.4759 5.35714,14.46429 1.39674,5.59472 2.52374,11.37996 2.32143,17.14285 -0.27728,7.89836 -3.6582,15.39713 -4.82143,23.21429 -0.58061,3.90181 -1.12553,7.84131 -1.07143,11.78571 0.0485,3.53621 0.37043,7.11031 1.25,10.53572 0.67078,2.61228 1.3321,5.40915 3.03572,7.5 1.22009,1.49741 2.94717,2.74733 4.82142,3.21428 2.32185,0.57846 4.84161,-0.0586 7.14286,-0.71428 3.12343,-0.88991 6.26095,-2.19948 8.75,-4.28572 2.93808,-2.4626 4.90442,-5.94544 6.78572,-9.28571 1.89868,-3.37113 3.27316,-7.03315 4.46428,-10.71429 0.64006,-1.9781 1.20554,-4.00435 1.42857,-6.07143 0.39595,-3.66965 0.19074,-7.39899 -0.17857,-11.07142 -0.35745,-3.55449 -0.97932,-7.10176 -1.96428,-10.53572 -0.98741,-3.44253 -2.48396,-6.72295 -3.92858,-10 -1.41743,-3.21536 -2.90032,-6.41285 -4.64285,-9.46428 -2.57885,-4.51596 -5.24624,-9.03729 -8.57143,-13.03572 -3.95696,-4.75811 -8.51897,-9.0437 -13.39286,-12.85714 -4.6562,-3.64312 -9.90432,-6.46653 -15,-9.46429 -3.09956,-1.82345 -9.46428,-5.17857 -9.46428,-5.17857 l -12.32143,-3.21428 -9.82143,-2.32143 z"
       inkscape:connector-curvature="0"
       sodipodi:nodetypes="ccsssssssssssssssssssssscccc" />
  </g>
</svg>
