<?xml version="1.0" encoding="UTF-8" standalone="no"?>
<svg id="svg4" xmlns="http://www.w3.org/2000/svg" viewBox="0 0 24 24" height="24" width="24" version="1.1">
 <path id="path2" stroke-width=".042969" fill="#00ff00" d="m22.817 5.6878c-.097-.3880-.582-.5195-.865-.2367l-3.195 3.1951-2.917-.4860-.486-2.9167 3.195-3.1951c.285-.2845.148-.7692-.243-.8663-2.036-.50442-4.277.0391-5.869 1.6298-1.703 1.7033-2.172 4.1723-1.463 6.325l-9.1691 9.1691c-1.0738 1.0738-1.0738 2.8149 0 3.8887s2.8149 1.0738 3.8887 0l9.1613-9.1613c2.1536.71801 4.6178.24406 6.3323-1.4704 1.5928-1.5928 2.1355-3.838 1.6289-5.8751zm-19.067 15.593c-.56933 0-1.0312-.46191-1.0312-1.0312 0-.56976.46191-1.0312 1.0312-1.0312.56933 0 1.0312.46148 1.0312 1.0312 0 .56933-.46191 1.0312-1.0312 1.0312z"/>
</svg>
