<svg width="24" height="24" version="1.1" viewBox="0 0 24 24" xmlns="http://www.w3.org/2000/svg">
  <path d="m17 3.6662-5.0003 5.0003-5.0003-5.0003c-.61357-.61357-1.6088-.61357-2.2223 0l-1.1112 1.1112c-.61357.61357-.61357 1.6088 1e-7 2.2223l5.0003 5.0003-5.0003 5.0003c-.61357.61357-.61357 1.6088 3e-7 2.2223l1.1112 1.1112c.61357.61357 1.6088.61357 2.2223 1e-6l5.0003-5.0003 5.0003 5.0003c.61357.61357 1.6088.61357 2.2223 0l1.1112-1.1112c.61357-.61357.61357-1.6088 0-2.2223l-5.0003-5.0003 5.0003-5.0003c.61357-.61357.61357-1.6088 0-2.2223l-1.1112-1.1112c-.61357-.61357-1.6088-.61357-2.2223 0z" style="stroke-width:.049107"/>
</svg>
