<svg width="24" height="24" version="1.1" viewBox="0 0 24 24" xmlns="http://www.w3.org/2000/svg"><path d="m12.02 1c2.9394.00528 5.6081 1.1635 7.5784 3.0465l1.5841-1.5841c.67064-.6706 1.8173-.19565 1.8173.75275v5.9461c0 .58792-.47659 1.0645-1.0645 1.0645h-5.9461c-.94838 0-1.4233-1.1467-.75275-1.8173l1.8518-1.8518c-1.369-1.2818-3.1404-1.9918-5.0223-2.008-4.0983-.035392-7.5529 3.2812-7.5174 7.5156.033623 4.0168 3.2902 7.3874 7.4513 7.3874 1.8242 0 3.5482-.65104 4.9069-1.8432.21038-.18456.52809-.17334.726.02453l1.7592 1.7592c.2161.2161.20541.56841-.02138.77324-1.9505 1.7618-4.5353 2.8346-7.3707 2.8346-6.0751-1e-6-11-4.9249-11-11-4.437e-5-6.0681 4.952-11.011 11.02-11z" style="stroke-width:.044355"/></svg>
