<svg width="24" height="24" version="1.1" viewBox="0 0 24 24" xmlns="http://www.w3.org/2000/svg">
  <path d="m23 13.833v3.6667c0 1.0125-.8208 1.8333-1.8333 1.8333h-18.333c-1.0125 0-1.8333-.8208-1.8333-1.8333v-3.6667c0-1.0125.8208-1.8333 1.8333-1.8333h18.333c1.0125 0 1.8333.8208 1.8333 1.8333zm-1.8333-3.0556a3.0386 3.0386 0 011.1755.23547l-3.6868-5.5302a1.8334 1.8334 0 00-1.5254-.81637h-10.26a1.8333 1.8333 0 00-1.5254.81637l-3.6868 5.5302a3.0386 3.0386 0 011.1755-.23547zm-1.8333 3.6667c-.67501 0-1.2222.54721-1.2222 1.2222 0 .67501.54721 1.2222 1.2222 1.2222s1.2222-.54721 1.2222-1.2222c0-.67501-.54721-1.2222-1.2222-1.2222zm-3.6667 0c-.67501 0-1.2222.54721-1.2222 1.2222 0 .67501.54721 1.2222 1.2222 1.2222s1.2222-.54721 1.2222-1.2222c0-.67501-.54721-1.2222-1.2222-1.2222z" style="stroke-width:.038194"/>
</svg>
