<svg height="22" width="23" xmlns="http://www.w3.org/2000/svg"><g transform="translate(23)"><path d="m-21 5.2331c-1.108 0-2 .892-2 2v8c0 1.108.892 2 2 2h19c1.108 0 2-.892 2-2v-7.9999c0-1.108-.892-2-2-2zm1.5 1.7034h1c.27699 0 .5.223.5.5v1.2966c0 .277-.22301.5-.5.5h-1c-.277 0-.5-.223-.5-.5v-1.2966c0-.277.223-.5.5-.5zm3 0h1c.27699 0 .5.223.5.5v1.2966c0 .277-.22301.5-.5.5h-1c-.277 0-.5-.223-.5-.5v-1.2966c0-.277.223-.5.5-.5zm3 0h1c.27699 0 .5.223.5.5v1.2966c0 .277-.22301.5-.5.5h-1c-.277 0-.5-.223-.5-.5v-1.2966c0-.277.223-.5.5-.5zm3 0h1c.27699 0 .5.223.5.5v1.2966c0 .277-.22301.5-.5.5h-1c-.27699 0-.5-.223-.5-.5v-1.2966c0-.277.22301-.5.5-.5zm3 0h1c.27699 0 .5.223.5.5v1.2966c0 .277-.22301.5-.5.5h-1c-.27699 0-.5-.223-.5-.5v-1.2966c0-.277.22301-.5.5-.5zm3 0h1c.27699 0 .5.223.5.5v1.2966c0 .277-.22301.5-.5.5h-1c-.27699 0-.5-.223-.5-.5v-1.2966c0-.277.22301-.5.5-.5zm-15 3.0403h2c.27699 0 .5.223.5.5v1.2564c0 .277-.22301.5-.5.5h-2c-.27699 0-.5-.223-.5-.5v-1.2564c0-.277.22301-.5.5-.5zm4 0h1c.27699 0 .5.223.5.5v1.2564c0 .277-.22301.5-.5.5h-1c-.277 0-.5-.223-.5-.5v-1.2564c0-.277.223-.5.5-.5zm3 0h1c.27699 0 .5.223.5.5v1.2564c0 .277-.22301.5-.5.5h-1c-.277 0-.5-.223-.5-.5v-1.2564c0-.277.223-.5.5-.5zm3 0h1c.27699 0 .5.223.5.5v1.2564c0 .277-.22301.5-.5.5h-1c-.27699 0-.5-.223-.5-.5v-1.2564c0-.277.22301-.5.5-.5zm3 0h3c.27699 0 .5.223.5.5v1.2564c0 .277-.22301.5-.5.5h-3c-.27699 0-.5-.223-.5-.5v-1.2564c0-.277.22301-.5.5-.5zm-13 3h1c.27699 0 .5.223.5.5v1.2564c0 .277-.22301.5-.5.5h-1c-.277 0-.5-.223-.5-.5v-1.2564c0-.277.223-.5.5-.5zm3 0h10c.27699 0 .5.223.5.5v1.2564c0 .277-.22301.5-.5.5h-10c-.277 0-.5-.223-.5-.5v-1.2564c0-.277.223-.5.5-.5zm12 0h1c.27699 0 .5.223.5.5v1.2564c0 .277-.22301.5-.5.5h-1c-.27699 0-.5-.223-.5-.5v-1.2564c0-.277.22301-.5.5-.5z" fill="none" opacity=".3" stroke="#dfdbd2" stroke-linecap="round" stroke-width=".5"/><path d="m-21 6c-1.108 0-2 .892-2 2v8c0 1.108.892 2 2 2h19c1.108 0 2-.892 2-2v-8c0-1.108-.892-2-2-2zm1.5 0h1c.27699 0 .5.223.5.5v1c0 .277-.22301.5-.5.5h-1c-.277 0-.5-.223-.5-.5v-1c0-.277.223-.5.5-.5zm3 0h1c.27699 0 .5.223.5.5v1c0 .277-.22301.5-.5.5h-1c-.277 0-.5-.223-.5-.5v-1c0-.277.223-.5.5-.5zm3 0h1c.27699 0 .5.223.5.5v1c0 .277-.22301.5-.5.5h-1c-.277 0-.5-.223-.5-.5v-1c0-.277.223-.5.5-.5zm3 0h1c.277 0 .5.223.5.5v1c0 .277-.223.5-.5.5h-1c-.277 0-.5-.223-.5-.5v-1c0-.277.223-.5.5-.5zm3 0h1c.277 0 .5.223.5.5v1c0 .277-.223.5-.5.5h-1c-.277 0-.5-.223-.5-.5v-1c0-.277.223-.5.5-.5zm3 0h1c.277 0 .5.223.5.5v1c0 .277-.223.5-.5.5h-1c-.277 0-.5-.223-.5-.5v-1c0-.277.223-.5.5-.5zm-15 3h2c.27699 0 .5.223.5.5v1c0 .277-.22301.5-.5.5h-2c-.27699 0-.5-.223-.5-.5v-1c0-.277.223-.5.5-.5zm4 0h1c.27699 0 .5.223.5.5v1c0 .277-.22301.5-.5.5h-1c-.277 0-.5-.223-.5-.5v-1c0-.277.223-.5.5-.5zm3 0h1c.27699 0 .5.223.5.5v1c0 .277-.22301.5-.5.5h-1c-.277 0-.5-.223-.5-.5v-1c0-.277.223-.5.5-.5zm3 0h1c.277 0 .5.223.5.5v1c0 .277-.22301.5-.5.5h-1c-.277 0-.5-.223-.5-.5v-1c0-.277.223-.5.5-.5zm3 0h3c.277 0 .5.223.5.5v1c0 .277-.22301.5-.5.5h-3c-.277 0-.5-.223-.5-.5v-1c0-.277.223-.5.5-.5zm-13 3h1c.27699 0 .5.223.5.5v1c0 .277-.22301.5-.5.5h-1c-.277 0-.5-.223-.5-.5v-1c0-.277.223-.5.5-.5zm3 0h10c.27699 0 .5.223.5.5v1c0 .277-.22301.5-.5.5h-10c-.277 0-.5-.223-.5-.5v-1c0-.277.223-.5.5-.5zm12 0h1c.27699 0 .5.223.5.5v1c0 .277-.22301.5-.5.5h-1c-.277 0-.5-.223-.5-.5v-1c0-.277.223-.5.5-.5z" opacity=".3"/><path d="m-21 5c-1.108 0-2 .892-2 2v8c0 1.108.892 2 2 2h19c1.108 0 2-.892 2-2v-8c0-1.108-.892-2-2-2zm1.5 2h1c.27699 0 .5.223.5.5v1c0 .277-.22301.5-.5.5h-1c-.277 0-.5-.223-.5-.5v-1c0-.277.223-.5.5-.5zm3 0h1c.27699 0 .5.223.5.5v1c0 .277-.22301.5-.5.5h-1c-.277 0-.5-.223-.5-.5v-1c0-.277.223-.5.5-.5zm3 0h1c.27699 0 .5.223.5.5v1c0 .277-.22301.5-.5.5h-1c-.277 0-.5-.223-.5-.5v-1c0-.277.223-.5.5-.5zm3 0h1c.277 0 .5.223.5.5v1c0 .277-.223.5-.5.5h-1c-.277 0-.5-.223-.5-.5v-1c0-.277.223-.5.5-.5zm3 0h1c.277 0 .5.223.5.5v1c0 .277-.223.5-.5.5h-1c-.277 0-.5-.223-.5-.5v-1c0-.277.223-.5.5-.5zm3 0h1c.277 0 .5.223.5.5v1c0 .277-.223.5-.5.5h-1c-.277 0-.5-.223-.5-.5v-1c0-.277.223-.5.5-.5zm-15 3h2c.27699 0 .5.223.5.5v1c0 .277-.22301.5-.5.5h-2c-.27699 0-.5-.223-.5-.5v-1c0-.277.22301-.5.5-.5zm4 0h1c.27699 0 .5.223.5.5v1c0 .277-.22301.5-.5.5h-1c-.277 0-.5-.223-.5-.5v-1c0-.277.223-.5.5-.5zm3 0h1c.27699 0 .5.223.5.5v1c0 .277-.22301.5-.5.5h-1c-.277 0-.5-.223-.5-.5v-1c0-.277.223-.5.5-.5zm3 0h1c.27699 0 .5.223.5.5v1c0 .277-.22301.5-.5.5h-1c-.277 0-.5-.223-.5-.5v-1c0-.277.22301-.5.5-.5zm3 0h3c.27699 0 .5.223.5.5v1c0 .277-.22301.5-.5.5h-3c-.277 0-.5-.223-.5-.5v-1c0-.277.223-.5.5-.5zm-13 3h1c.27699 0 .5.223.5.5v1c0 .277-.22301.5-.5.5h-1c-.277 0-.5-.223-.5-.5v-1c0-.277.223-.5.5-.5zm3 0h10c.27699 0 .5.223.5.5v1c0 .277-.22301.5-.5.5h-10c-.277 0-.5-.223-.5-.5v-1c0-.277.223-.5.5-.5zm12 0h1c.27699 0 .5.223.5.5v1c0 .277-.22301.5-.5.5h-1c-.277 0-.5-.223-.5-.5v-1c0-.277.223-.5.5-.5z" fill="#dfdbd2"/></g></svg>