<svg width="40" height="40" version="1.1" viewBox="0 0 40 40" xmlns="http://www.w3.org/2000/svg">
  <path d="m35.436 1.0026h-23.748c-1.9683 0-3.5631 1.5949-3.5631 3.5623v3.5623h-3.5623c-1.9674 0-3.5623 1.5949-3.5623 3.5623v23.748c0 1.9672 1.5949 3.5614 3.5623 3.5614h23.748c1.9674 0 3.5623-1.5949 3.5623-3.5623v-3.5631h3.5623c1.9707 0 3.5648-1.5942 3.5648-3.5631v-23.748c0-1.9665-1.5942-3.5614-3.5614-3.5614zm-7.5701 34.436h-22.859a.44528.44528 0 01-.44474-.44561v-22.859a.44528.44528 0 01.44526-.44474h3.117v16.624c0 1.9674 1.5949 3.5623 3.5623 3.5623h16.624v3.117a.44528.44528 0 01-.44528.44528zm7.1245-7.1245h-22.859a.44528.44528 0 01-.44474-.44561v-22.859a.44528.44528 0 01.44526-.44474h22.859a.44528.44528 0 01.44561.44526v22.857a.44528.44528 0 01-.44528.44528z" fill="#c4c4c4" stroke-width=".074214"/>
</svg>
