<svg width="48" height="48" version="1.1" viewBox="0 0 48 48" xmlns="http://www.w3.org/2000/svg" xmlns:xlink="http://www.w3.org/1999/xlink">
  <defs>
    <linearGradient id="linearGradient4219" x1="47.922" x2="221.9" y1="923.41" y2="923.41" gradientUnits="userSpaceOnUse">
      <stop style="stop-color:#ff0000" offset="0"/>
      <stop style="stop-color:#ffff00" offset=".25"/>
      <stop style="stop-color:#00ffff" offset=".5"/>
      <stop style="stop-color:#0000ff" offset=".75"/>
      <stop style="stop-color:#ff00ff" offset="1"/>
    </linearGradient>
  </defs>
  <g transform="matrix(1.5071 -.40381 .40381 1.5071 -397.91 -1260.6)">
    <g transform="matrix(1.2519,0,0,1.2519,-22.749,-360.21)" style="stroke:url(#linearGradient4219)">
      <path d="m63.969 969.3-16.248-.0212.01187 9.8361h16.24v-9.8193" style="fill:none;stroke-linecap:round;stroke-linejoin:round;stroke-width:1.1982;stroke:#00ff00"/>
      <g transform="matrix(.091753 0 0 .091753 43.481 885.1)" style="fill:#00ff00;stroke-miterlimit:0;stroke-width:7.9674;stroke:#00ff00">
        <g transform="translate(-2.3384,43.77)" style="fill:#00ff00;stroke-miterlimit:0;stroke-width:8.7058;stroke:#00ff00">
          <g transform="translate(2.6206 .20158)" style="stroke-miterlimit:0;stroke-width:8.7058">
            <rect x="65.511" y="891.96" width="9.5964" height="9.5964" rx="1.8367" ry="1.8014" style="fill:#00ff00;stroke-linecap:round;stroke-linejoin:round;stroke-miterlimit:0;stroke-width:8.7058;stroke:#00ff00"/>
            <g transform="translate(30.715,-64.319)" style="fill:#00ff00;stroke-miterlimit:0;stroke-width:8.7058;stroke:#00ff00">
              <rect x="60.211" y="956.28" width="9.5964" height="9.5964" rx="1.8367" ry="1.8014" style="fill:#00ff00;stroke-linecap:round;stroke-linejoin:round;stroke-miterlimit:0;stroke-width:8.7058;stroke:#00ff00"/>
            </g>
            <g transform="translate(56.13,-64.319)" style="fill:#00ff00;stroke-miterlimit:0;stroke-width:8.7058;stroke:#00ff00">
              <rect x="60.211" y="956.28" width="9.5964" height="9.5964" rx="1.8367" ry="1.8014" style="fill:#00ff00;stroke-linecap:round;stroke-linejoin:round;stroke-miterlimit:0;stroke-width:8.7058;stroke:#00ff00"/>
            </g>
            <g transform="translate(81.545,-64.319)" style="fill:#00ff00;stroke-miterlimit:0;stroke-width:8.7058;stroke:#00ff00">
              <rect x="60.211" y="956.28" width="9.5964" height="9.5964" rx="1.8367" ry="1.8014" style="fill:#00ff00;stroke-linecap:round;stroke-linejoin:round;stroke-miterlimit:0;stroke-width:8.7058;stroke:#00ff00"/>
            </g>
            <rect x="167.17" y="891.96" width="9.5964" height="9.5964" rx="1.8367" ry="1.8014" style="fill:#00ff00;stroke-linecap:round;stroke-linejoin:round;stroke-miterlimit:0;stroke-width:8.7058;stroke:#00ff00"/>
            <rect x="192.59" y="891.96" width="9.5964" height="9.5964" rx="1.8367" ry="1.8014" style="fill:#00ff00;stroke-linecap:round;stroke-linejoin:round;stroke-miterlimit:0;stroke-width:8.7058;stroke:#00ff00"/>
          </g>
          <g transform="translate(2.6206,26.287)" style="fill:#00ff00;stroke-miterlimit:0;stroke-width:8.7058;stroke:#00ff00">
            <rect x="65.511" y="891.96" width="9.5964" height="9.5964" rx="1.8367" ry="1.8014" style="fill:#00ff00;stroke-linecap:round;stroke-linejoin:round;stroke-miterlimit:0;stroke-width:8.7058;stroke:#00ff00"/>
            <g transform="translate(30.715,-64.319)" style="fill:#00ff00;stroke-miterlimit:0;stroke-width:8.7058;stroke:#00ff00">
              <rect x="60.211" y="956.28" width="9.5964" height="9.5964" rx="1.8367" ry="1.8014" style="fill:#00ff00;stroke-linecap:round;stroke-linejoin:round;stroke-miterlimit:0;stroke-width:8.7058;stroke:#00ff00"/>
            </g>
            <g transform="translate(56.13,-64.319)" style="fill:#00ff00;stroke-miterlimit:0;stroke-width:8.7058;stroke:#00ff00">
              <rect x="60.211" y="956.28" width="9.5964" height="9.5964" rx="1.8367" ry="1.8014" style="fill:#00ff00;stroke-linecap:round;stroke-linejoin:round;stroke-miterlimit:0;stroke-width:8.7058;stroke:#00ff00"/>
            </g>
            <g transform="translate(81.545,-64.319)" style="fill:#00ff00;stroke-miterlimit:0;stroke-width:8.7058;stroke:#00ff00">
              <rect x="60.211" y="956.28" width="9.5964" height="9.5964" rx="1.8367" ry="1.8014" style="fill:#00ff00;stroke-linecap:round;stroke-linejoin:round;stroke-miterlimit:0;stroke-width:8.7058;stroke:#00ff00"/>
            </g>
            <rect x="167.17" y="891.96" width="9.5964" height="9.5964" rx="1.8367" ry="1.8014" style="fill:#00ff00;stroke-linecap:round;stroke-linejoin:round;stroke-miterlimit:0;stroke-width:8.7058;stroke:#00ff00"/>
            <rect x="192.59" y="891.96" width="9.5964" height="9.5964" rx="1.8367" ry="1.8014" style="fill:#00ff00;stroke-linecap:round;stroke-linejoin:round;stroke-miterlimit:0;stroke-width:8.7058;stroke:#00ff00"/>
          </g>
          <g transform="translate(2.6206,55.113)" style="fill:#00ff00;stroke-miterlimit:0;stroke-width:8.7058;stroke:#00ff00">
            <rect x="65.511" y="891.96" width="9.5964" height="9.5964" rx="1.8367" ry="1.8014" style="fill:#00ff00;stroke-linecap:round;stroke-linejoin:round;stroke-miterlimit:0;stroke-width:8.7058;stroke:#00ff00"/>
            <g transform="translate(30.715,-64.319)" style="fill:#00ff00;stroke-miterlimit:0;stroke-width:8.7058;stroke:#00ff00">
              <rect x="60.211" y="956.28" width="9.5964" height="9.5964" rx="1.8367" ry="1.8014" style="fill:#00ff00;stroke-linecap:round;stroke-linejoin:round;stroke-miterlimit:0;stroke-width:8.7058;stroke:#00ff00"/>
            </g>
            <g transform="translate(56.13,-64.319)" style="fill:#00ff00;stroke-miterlimit:0;stroke-width:8.7058;stroke:#00ff00">
              <rect x="60.211" y="956.28" width="9.5964" height="9.5964" rx="1.8367" ry="1.8014" style="fill:#00ff00;stroke-linecap:round;stroke-linejoin:round;stroke-miterlimit:0;stroke-width:8.7058;stroke:#00ff00"/>
            </g>
            <g transform="translate(81.545,-64.319)" style="fill:#00ff00;stroke-miterlimit:0;stroke-width:8.7058;stroke:#00ff00">
              <rect x="60.211" y="956.28" width="9.5964" height="9.5964" rx="1.8367" ry="1.8014" style="fill:#00ff00;stroke-linecap:round;stroke-linejoin:round;stroke-miterlimit:0;stroke-width:8.7058;stroke:#00ff00"/>
            </g>
            <rect x="167.17" y="891.96" width="9.5964" height="9.5964" rx="1.8367" ry="1.8014" style="fill:#00ff00;stroke-linecap:round;stroke-linejoin:round;stroke-miterlimit:0;stroke-width:8.7058;stroke:#00ff00"/>
            <rect x="192.59" y="891.96" width="9.5964" height="9.5964" rx="1.8367" ry="1.8014" style="fill:#00ff00;stroke-linecap:round;stroke-linejoin:round;stroke-miterlimit:0;stroke-width:8.7058;stroke:#00ff00"/>
          </g>
        </g>
        <g transform="matrix(1.413,0,0,1.125,-36.087,-183.22)" style="fill:#00ff00;stroke-miterlimit:0;stroke-width:7.5956">
          <g transform="translate(56.444,122.75)" style="fill:#00ff00;stroke-miterlimit:0;stroke-width:7.5956;stroke:#00ff00">
            <rect x="34.382" y="920.28" width="59.132" height="9.5964" rx="1.8367" ry="1.8014" style="fill:#00ff00;stroke-linecap:round;stroke-linejoin:round;stroke-miterlimit:0;stroke-width:7.5956;stroke:#00ff00"/>
          </g>
        </g>
      </g>
    </g>
  </g>
  <g transform="matrix(.51145 .88301 -.88301 .51145 769.52 -443.25)">
    <g transform="matrix(1.2519,0,0,1.2519,-22.749,-360.21)" style="stroke:url(#linearGradient4219)">
      <g transform="matrix(.18527 -.072267 .072267 .18527 -46.207 789.35)" style="stroke:url(#linearGradient4219)">
        <g transform="rotate(21.985,161.26,1069.4)" style="stroke:#00ff00">
          <path d="m135.06 1018.4c-11.691-1.0291-17.675 2.2612-21.423 5.5741-6.2098 13.41-4.8224 25.851-1.9476 39.086.0453.1755.0679.3561.0673.5373-.36864 9.7465-1.0163 9.711-.0673 18.67.00035.022.00035.045 0 .067.0581.1295.10306.2645.13424.4029.82085 10.8 10.751 19.475 23.102 19.475s22.214-8.6672 23.035-19.475c.0208-.046.0432-.091.0672-.1345 1.0805-9.3416.16224-9.3043 0-18.535-.002-.1818.02-.3631.0645-.5394 2.957-13.42 4.5967-25.999-1.6784-39.555-3.75-3.3199-12.494-5.5747-21.355-5.5747z" style="fill:none;stroke-width:7.8002;stroke:#00ff00"/>
          <rect x="131.75" y="1027.6" width="7.4728" height="16.814" rx="3.7364" ry="3.7364" style="fill:#00ff00;stroke-linecap:round;stroke-linejoin:round;stroke-width:1.8682;stroke:#00ff00"/>
          <path d="m135.59 1022.1v30.354" style="fill:none;stroke-linecap:round;stroke-linejoin:round;stroke-width:1.997;stroke:#00ff00"/>
        </g>
      </g>
    </g>
  </g>
</svg>
