<svg height="48" viewBox="0 0 48 48" width="48" xmlns="http://www.w3.org/2000/svg"><linearGradient gradientUnits="userSpaceOnUse" x1="47.922" x2="221.9" y1="923.41" y2="923.41"><stop offset="0" stop-color="#ff0000"/><stop offset=".25" stop-color="#ffff00"/><stop offset=".5" stop-color="#00ffff"/><stop offset=".75" stop-color="#0000ff"/><stop offset="1" stop-color="#ff00ff"/></linearGradient><g stroke="#00ff00"><g stroke-linecap="round" stroke-linejoin="round" transform="matrix(1.88673849 -.505529739 .505529739 1.88673849 -577.651418 -1794.28621731)"><path d="m63.969 969.3-16.248-.0212.01187 9.8361h16.24v-9.8193" fill="none" stroke-width="1.1982"/><g fill="#00ff00" stroke-miterlimit="0" stroke-width="7.9674" transform="matrix(.091753 0 0 .091753 43.481 885.1)"><g stroke-width="8.7058"><g><rect height="9.5964" rx="1.8367" ry="1.8014" width="9.5964" x="65.7932" y="935.93158"/><rect height="9.5964" rx="1.8367" ry="1.8014" width="9.5964" x="91.2082" y="935.93258"/><rect height="9.5964" rx="1.8367" ry="1.8014" width="9.5964" x="116.6232" y="935.93258"/><rect height="9.5964" rx="1.8367" ry="1.8014" width="9.5964" x="142.0382" y="935.93258"/><rect height="9.5964" rx="1.8367" ry="1.8014" width="9.5964" x="167.4522" y="935.93158"/><rect height="9.5964" rx="1.8367" ry="1.8014" width="9.5964" x="192.8722" y="935.93158"/></g><g><rect height="9.5964" rx="1.8367" ry="1.8014" width="9.5964" x="65.7932" y="962.017"/><rect height="9.5964" rx="1.8367" ry="1.8014" width="9.5964" x="91.2082" y="962.018"/><rect height="9.5964" rx="1.8367" ry="1.8014" width="9.5964" x="116.6232" y="962.018"/><rect height="9.5964" rx="1.8367" ry="1.8014" width="9.5964" x="142.0382" y="962.018"/><rect height="9.5964" rx="1.8367" ry="1.8014" width="9.5964" x="167.4522" y="962.017"/><rect height="9.5964" rx="1.8367" ry="1.8014" width="9.5964" x="192.8722" y="962.017"/></g><g><rect height="9.5964" rx="1.8367" ry="1.8014" width="9.5964" x="65.7932" y="990.843"/><rect height="9.5964" rx="1.8367" ry="1.8014" width="9.5964" x="91.2082" y="990.844"/><rect height="9.5964" rx="1.8367" ry="1.8014" width="9.5964" x="116.6232" y="990.844"/><rect height="9.5964" rx="1.8367" ry="1.8014" width="9.5964" x="142.0382" y="990.844"/><rect height="9.5964" rx="1.8367" ry="1.8014" width="9.5964" x="167.4522" y="990.843"/><rect height="9.5964" rx="1.8367" ry="1.8014" width="9.5964" x="192.8722" y="990.843"/></g></g><rect height="9.5964" rx="1.8367" ry="1.8014" stroke-width="7.5956" transform="matrix(1.413 0 0 1.125 43.668372 -45.12625)" width="59.132" x="34.382" y="920.28"/></g></g><g transform="matrix(.12472766707 .22132106306 -.22132106306 .12472766707 252.83275196114 -124.45752400597)"><path d="m135.06 1018.4c-11.691-1.0291-17.675 2.2612-21.423 5.5741-6.2098 13.41-4.8224 25.851-1.9476 39.086.0453.1755.0679.3561.0673.5373-.36864 9.7465-1.0163 9.711-.0673 18.67.00035.022.00035.045 0 .067.0581.1295.10306.2645.13424.4029.82085 10.8 10.751 19.475 23.102 19.475s22.214-8.6672 23.035-19.475c.0208-.046.0432-.091.0672-.1345 1.0805-9.3416.16224-9.3043 0-18.535-.002-.1818.02-.3631.0645-.5394 2.957-13.42 4.5967-25.999-1.6784-39.555-3.75-3.3199-12.494-5.5747-21.355-5.5747z" fill="none" stroke-width="7.8002"/><g stroke-linecap="round" stroke-linejoin="round"><rect fill="#00ff00" height="16.814" rx="3.7364" stroke-width="1.8682" width="7.4728" x="131.75" y="1027.6"/><path d="m135.59 1022.1v30.354" fill="none" stroke-width="1.997"/></g></g></g></svg>