<svg width="48" height="48" version="1.1" viewBox="0 0 48 48" xmlns="http://www.w3.org/2000/svg"><path d="m43.167 3.5556h-38.333c-2.1163 0-3.8333 1.717-3.8333 3.8333v25.556c0 2.1163 1.717 3.8333 3.8333 3.8333h15.333l-1.2778 3.8333h-5.75c-1.0622 0-1.9167.85451-1.9167 1.9167 0 1.0622.85451 1.9167 1.9167 1.9167h21.722c1.0622 0 1.9167-.85452 1.9167-1.9167 0-1.0622-.85451-1.9167-1.9167-1.9167h-5.75l-1.2778-3.8333h15.333c2.1163 0 3.8333-1.717 3.8333-3.8333v-25.556c0-2.1163-1.717-3.8333-3.8333-3.8333zm-1.2778 28.111h-35.778v-23h35.778z" style="fill:#00ff00;stroke-width:.079861"/></svg>
