<svg width="48" height="48" version="1.1" viewBox="0 0 48 48" xmlns="http://www.w3.org/2000/svg">
  <path d="m30.402 15.514c-1.8622 0-3.5858 0.29964-5.1085 0.85254l0.82271-8.1614c0.07159-0.6921-0.53765-1.255-1.2324-1.1681-5.2836 0.66295-9.3693 5.1384-9.3693 10.561 0 1.8622 0.29966 3.5858 0.85254 5.1085l-8.1614-0.8227c-0.69211-0.07158-1.255 0.53764-1.1681 1.2324 0.66294 5.2836 5.1384 9.3693 10.561 9.3693 1.8622 0 3.5858-0.29966 5.1085-0.85254l-0.8227 8.1614c-0.06959 0.69145 0.53764 1.255 1.2324 1.1681 5.2836-0.66294 9.3693-5.1384 9.3693-10.561 0-1.8622-0.29964-3.5858-0.85254-5.1085l8.1614 0.8227c0.69211 0.06959 1.255-0.53764 1.1681-1.2324-0.66294-5.2836-5.1384-9.3693-10.561-9.3693zm-6.402 10.607a2.1214 2.1214 0 1 1 2.1214-2.1214 2.1214 2.1214 0 0 1-2.1214 2.1214z" style="fill:#00ff00;stroke-width:.066294"/>
  <path d="m32.38 17.46c-1.7987-0.48196-3.5412-0.63865-5.1552-0.49872l2.9071-7.6704c0.24827-0.64999-0.19453-1.3513-0.88808-1.4473-5.2751-0.72714-10.38 2.5384-11.783 7.7758-0.48196 1.7987-0.63864 3.5412-0.49872 5.1552l-7.6704-2.907c-0.65-0.24828-1.3513 0.19451-1.4473 0.88807-0.72715 5.2751 2.5384 10.38 7.7758 11.783 1.7987 0.48197 3.5412 0.63864 5.1552 0.49872l-2.907 7.6704c-0.24618 0.64988 0.19451 1.3513 0.88808 1.4473 5.2751 0.72715 10.38-2.5384 11.783-7.7758 0.48197-1.7987 0.63865-3.5412 0.49872-5.1552l7.6704 2.907c0.65052 0.24634 1.3513-0.19451 1.4473-0.88808 0.72715-5.2751-2.5384-10.38-7.7758-11.783zm-8.9291 8.5886a2.1214 2.1214 0 1 1 2.5982-1.5 2.1214 2.1214 0 0 1-2.5982 1.5z" style="fill:#00ff00;opacity:.2;stroke-width:.066294"/>
  <rect x="2.1626" y="2.7277" width="43.675" height="42.545" rx="8.6322" ry="8.6322" style="fill:none;paint-order:markers fill stroke;stroke-linecap:round;stroke-linejoin:round;stroke-miterlimit:10;stroke-width:2.3253;stroke:#00ff00"/>
</svg>
