<svg height="48" viewBox="0 0 48 48" width="48" xmlns="http://www.w3.org/2000/svg"><path d="m30.402 15.514c-1.8622 0-3.5858.29964-5.1085.85254l.82271-8.1614c.07159-.6921-.53765-1.255-1.2324-1.1681-5.2836.66295-9.3693 5.1384-9.3693 10.561 0 1.8622.29966 3.5858.85254 5.1085l-8.1614-.8227c-.69211-.07158-1.255.53764-1.1681 1.2324.66294 5.2836 5.1384 9.3693 10.561 9.3693 1.8622 0 3.5858-.29966 5.1085-.85254l-.8227 8.1614c-.06959.69145.53764 1.255 1.2324 1.1681 5.2836-.66294 9.3693-5.1384 9.3693-10.561 0-1.8622-.29964-3.5858-.85254-5.1085l8.1614.8227c.69211.06959 1.255-.53764 1.1681-1.2324-.66294-5.2836-5.1384-9.3693-10.561-9.3693zm-6.402 10.607a2.1214 2.1214 0 1 1 2.1214-2.1214 2.1214 2.1214 0 0 1 -2.1214 2.1214z" fill="#00ff00" stroke-width=".066294"/><path d="m32.38 17.46c-1.7987-.48196-3.5412-.63865-5.1552-.49872l2.9071-7.6704c.24827-.64999-.19453-1.3513-.88808-1.4473-5.2751-.72714-10.38 2.5384-11.783 7.7758-.48196 1.7987-.63864 3.5412-.49872 5.1552l-7.6704-2.907c-.65-.24828-1.3513.19451-1.4473.88807-.72715 5.2751 2.5384 10.38 7.7758 11.783 1.7987.48197 3.5412.63864 5.1552.49872l-2.907 7.6704c-.24618.64988.19451 1.3513.88808 1.4473 5.2751.72715 10.38-2.5384 11.783-7.7758.48197-1.7987.63865-3.5412.49872-5.1552l7.6704 2.907c.65052.24634 1.3513-.19451 1.4473-.88808.72715-5.2751-2.5384-10.38-7.7758-11.783zm-8.9291 8.5886a2.1214 2.1214 0 1 1 2.5982-1.5 2.1214 2.1214 0 0 1 -2.5982 1.5z" fill="#00ff00" opacity=".2" stroke-width=".066294"/><rect height="42.545" rx="8.6322" style="fill:none;stroke-linecap:round;stroke-linejoin:round;stroke-miterlimit:10;stroke-width:2.3253;stroke:#00ff00" width="43.675" x="2.1626" y="2.7277"/></svg>