<svg height="48" viewBox="0 0 48 48" width="48" xmlns="http://www.w3.org/2000/svg"><path d="m10.818 33.161v5.3623h3.5775v-1.49c0-.49392.3985-.89243.89242-.89243s.89242.3985.89242.89243v1.49h7.1549v-1.49c0-.49392.3985-.89243.89242-.89243s.89242.3985.89242.89243v1.49h5.9366v-5.3623z" fill="#00ff00" stroke-width=".055873"/><rect height="18.487" rx="2.6894" ry="2.8956" style="fill:none;stroke-linecap:round;stroke-linejoin:round;stroke-miterlimit:10;stroke-width:1.9282;stroke:#00ff00" width="38.879" x="7.1571" y="13.988"/><path d="m1 9.4768v1.9866h5.1528v27.06h1.9866v-29.046z" fill="#00ff00" fill-rule="evenodd"/><g stroke-miterlimit="10" stroke-width="2.9552" transform="matrix(.67981 0 0 .67981 10.088 14.77)"><path d="m14.753 8.3507c-.80084 0-1.5421.12886-2.197.36664l.35381-3.5099c.030785-.29764-.23122-.53969-.53-.50235-2.2722.2851-4.0293 2.2098-4.0293 4.5416 0 .80084.12887 1.5421.36664 2.197l-3.5099-.3538c-.29765-.03078-.5397.23121-.50235.52999.2851 2.2722 2.2098 4.0293 4.5416 4.0293.80085 0 1.5421-.12887 2.197-.36664l-.3538 3.5099c-.02993.29736.23122.5397.53.50235 2.2722-.2851 4.0293-2.2098 4.0293-4.5416 0-.80084-.12886-1.5421-.36664-2.197l3.5099.3538c.29765.02993.5397-.23121.50235-.53-.2851-2.2722-2.2098-4.0293-4.5416-4.0293zm-2.7532 4.5616a.91232.91232 0 1 1 .91232-.91232.91232.91232 0 0 1 -.91232.91232z" fill="#00ff00"/><path d="m15.604 9.1877c-.77355-.20727-1.5229-.27465-2.217-.21447l1.2502-3.2987c.10677-.27953-.083661-.58114-.38193-.6224-2.2686-.31271-4.464 1.0916-5.0675 3.344-.20727.77355-.27465 1.5229-.21447 2.217l-3.2987-1.2502c-.27954-.10677-.58115.08365-.6224.38192-.31272 2.2686 1.0916 4.464 3.344 5.0675.77356.20727 1.5229.27465 2.217.21447l-1.2502 3.2987c-.10587.27948.083652.58115.38192.6224 2.2686.31272 4.4639-1.0916 5.0675-3.344.20727-.77355.27465-1.5229.21447-2.217l3.2987 1.2502c.27976.10594.58115-.08365.6224-.38192.31272-2.2686-1.0916-4.4639-3.344-5.0675zm-3.84 3.6936a.91232.91232 0 1 1 1.1174-.6451.91232.91232 0 0 1 -1.1174.6451z" fill="#00ff00" opacity=".2"/><rect fill="none" height="18.296" rx="9.1482" stroke="#00ff00" stroke-linecap="round" stroke-linejoin="round" width="18.783" x="2.6087" y="2.8518"/></g><g stroke-miterlimit="10" stroke-width="2.9552" transform="matrix(.4807 .4807 -.4807 .4807 34.532 11.449)"><path d="m14.753 8.3507c-.80084 0-1.5421.12886-2.197.36664l.35381-3.5099c.030785-.29764-.23122-.53969-.53-.50235-2.2722.2851-4.0293 2.2098-4.0293 4.5416 0 .80084.12887 1.5421.36664 2.197l-3.5099-.3538c-.29765-.03078-.5397.23121-.50235.52999.2851 2.2722 2.2098 4.0293 4.5416 4.0293.80085 0 1.5421-.12887 2.197-.36664l-.3538 3.5099c-.02993.29736.23122.5397.53.50235 2.2722-.2851 4.0293-2.2098 4.0293-4.5416 0-.80084-.12886-1.5421-.36664-2.197l3.5099.3538c.29765.02993.5397-.23121.50235-.53-.2851-2.2722-2.2098-4.0293-4.5416-4.0293zm-2.7532 4.5616a.91232.91232 0 1 1 .91232-.91232.91232.91232 0 0 1 -.91232.91232z" fill="#00ff00"/><path d="m15.604 9.1877c-.77355-.20727-1.5229-.27465-2.217-.21447l1.2502-3.2987c.10677-.27953-.083661-.58114-.38193-.6224-2.2686-.31271-4.464 1.0916-5.0675 3.344-.20727.77355-.27465 1.5229-.21447 2.217l-3.2987-1.2502c-.27954-.10677-.58115.08365-.6224.38192-.31272 2.2686 1.0916 4.464 3.344 5.0675.77356.20727 1.5229.27465 2.217.21447l-1.2502 3.2987c-.10587.27948.083652.58115.38192.6224 2.2686.31272 4.4639-1.0916 5.0675-3.344.20727-.77355.27465-1.5229.21447-2.217l3.2987 1.2502c.27976.10594.58115-.08365.6224-.38192.31272-2.2686-1.0916-4.4639-3.344-5.0675zm-3.84 3.6936a.91232.91232 0 1 1 1.1174-.6451.91232.91232 0 0 1 -1.1174.6451z" fill="#00ff00" opacity=".2"/><rect fill="none" height="18.296" rx="9.1482" stroke="#00ff00" stroke-linecap="round" stroke-linejoin="round" width="18.783" x="2.6087" y="2.8518"/></g><g fill="#00ff00"><path d="m37.59 33.161v5.3623h2.3669v-1.49c0-.49392.3985-.89243.89242-.89243s.89242.3985.89242.89243v1.49h2.2427v-5.3623z" stroke-width=".055873"/><path d="m5.1675 14.97h1.0773v6.1327h-1.0773z"/><path d="m5.1675 27.471h1.0773v6.1327h-1.0773z"/><path d="m5.1675 22.974h1.0773v2.6251h-1.0773z"/></g></svg>