<svg height="48" viewBox="0 0 48 48" width="48" xmlns="http://www.w3.org/2000/svg" xmlns:xlink="http://www.w3.org/1999/xlink"><linearGradient id="a" gradientUnits="userSpaceOnUse" x1="47.922" x2="221.9" y1="923.41" y2="923.41"><stop offset="0" stop-color="#ff0000"/><stop offset=".25" stop-color="#ffff00"/><stop offset=".5" stop-color="#00ffff"/><stop offset=".75" stop-color="#0000ff"/><stop offset="1" stop-color="#ff00ff"/></linearGradient><g fill="#00ff00" stroke="url(#a)" transform="matrix(1.33627806 0 0 1.33627806 -107.5965136 -622.692776)"><g stroke="#00ff00" stroke-width="2.0941"><path d="m97.892 467.78c-6.922 0-12.614 6.2998-12.499 11.976.12908 6.3287 1.955 9.8327 2.3558 11.059h2.9328c-2.4323-4.7986-2.1969-10.797-2.1969-10.797 0-4.9684 4.2022-9.0307 9.4068-9.0307 5.2048 0 9.4229 4.0219 9.4068 9.1616-.049 3.5057-.35951 4.782-2.105 10.078h3.2892c.47011-1.3498 2.1863-4.3211 2.1863-10.27 0-5.9258-5.7084-12.172-12.63-12.172z"/><rect height="10.747" rx="3.8987" ry="3.8981" transform="matrix(-.96317 -.26888 -.30267 .95309 0 0)" width="6.5854" x="-252.05" y="436.13"/><rect height="10.747" rx="3.8987" ry="3.8981" transform="matrix(.96317 -.26888 .30267 .95309 0 0)" width="6.5854" x="-65.105" y="488.88"/></g><rect height="4.1228" rx="2.0614" stroke="none" width="8.1799" x="93.901" y="497.04"/><path d="m107.58 487.49a1.0471 1.0471 0 0 0 -.13088 2.0286l3.0741 1.1099-.0654 3.6646c-.0103 1.1142-.28456 1.817-.6544 2.225-.36856.39788-.84182.58634-1.5035.58634h-8.7034a1.0471 1.0471 0 1 0 0 2.0941h8.7034c1.1466 0 2.2882-.44022 3.0758-1.3088.78754-.86858 1.1643-2.1129 1.1779-3.5993l.0649-4.3976v-.71984l-.65439-.26175-3.73-1.3742a1.0471 1.0471 0 0 0 -.6544-.0653z" stroke="none"/></g></svg>