<svg height="48" viewBox="0 0 48 48" width="48" xmlns="http://www.w3.org/2000/svg"><linearGradient gradientUnits="userSpaceOnUse" x1="47.922" x2="221.9" y1="923.41" y2="923.41"><stop offset="0" stop-color="#ff0000"/><stop offset=".25" stop-color="#ffff00"/><stop offset=".5" stop-color="#00ffff"/><stop offset=".75" stop-color="#0000ff"/><stop offset="1" stop-color="#ff00ff"/></linearGradient><g stroke="#00ff00" transform="matrix(1.2519 0 0 1.2519 -57.841 -1207.28)"><path d="m51.61 980.59-1.5136-9.4507.96669-2.6329 9.9849-2.5694 11.397.50878 1.0684 2.8492-1.2211 10.125.20352-.0254.96669-6.4107.81405-.96668.05088-1.5518 2.3404.94124 1.8316 6.5124-.83949 4.1466-1.0176 1.9588.61054.50878.7123 2.1878 1.9334.71231.55966 1.3737-5.9273 2.9255-.38158-.0762-.53422-3.3834-1.1956 1.1193-1.1956-.0254-.89037.636.89037 6.3343-.38159.91583-2.9509 2.7983-2.0606.7123-3.4088.3561-2.7983-.2544-3.1545-.99213-1.4246-.68685-3.8159-5.3931.05088-.66145 2.9764-8.7002 1.7553-1.8316-3.765-1.3483-.79378-1.0221" fill="none" stroke-width="1.5537"/><g fill="#00ff00" stroke-linejoin="round" stroke-width=".47927"><g transform="matrix(1.93885797959 -.15570391288 .15570391288 1.93885797959 -45.629 -911.44)"><path d="m-26.873 968.22h1.4584v1.0577h-1.4584z"/><path d="m-26.865 970.23h1.4584v1.0577h-1.4584z"/><path d="m-26.828 972.28h1.4584v1.0577h-1.4584z"/></g><g transform="matrix(1.94487804464 .0293835948 -.0293835948 1.94487804464 -45.56 -911.48)"><path d="m68.042 966.16h1.4584v1.0577h-1.4584z"/><path d="m70.461 966.13h1.4584v1.0577h-1.4584z"/><path d="m72.836 966.08h1.4584v1.0577h-1.4584z"/></g><g transform="matrix(1.94487804464 .0293835948 -.0293835948 1.94487804464 -45.577 -907.64)"><path d="m68.042 966.16h1.4584v1.0577h-1.4584z"/><path d="m70.461 966.13h1.4584v1.0577h-1.4584z"/><path d="m72.836 966.08h1.4584v1.0577h-1.4584z"/></g><g transform="matrix(1.94487804464 .0293835948 -.0293835948 1.94487804464 -45.656 -903.62)"><path d="m68.042 966.16h1.4584v1.0577h-1.4584z"/><path d="m70.461 966.13h1.4584v1.0577h-1.4584z"/><path d="m72.836 966.08h1.4584v1.0577h-1.4584z"/></g></g></g></svg>