<svg width="48" height="48" version="1.1" viewBox="0 0 48 48" xmlns="http://www.w3.org/2000/svg"><!-- Font Awesome Free 5.15 by @fontawesome - https://fontawesome.com License - https://fontawesome.com/license/free (Icons: CC BY 4.0) - This icon is remixed from the original --><path d="m44.9 35h-16.669c-.050875 1.3619-1.0113 2.2-2.2509 2.2h-4.18c-1.2849 0-2.2701-1.2011-2.2529-2.2h-16.447c-.605 0-1.1.495-1.1 1.1v1.1c0 2.42 1.98 4.4 4.4 4.4h35.2c2.42 0 4.4-1.98 4.4-4.4v-1.1c0-.605-.495-1.1-1.1-1.1zm-3.3-25.3c0-1.815-1.485-3.3-3.3-3.3h-28.6c-1.815 0-3.3 1.485-3.3 3.3v23.1h35.2zm-4.4 18.7h-26.4v-17.6h26.4z" style="fill:#00ff00;stroke-width:.06875"/></svg>
