<svg height="48" viewBox="0 0 48 48" width="48" xmlns="http://www.w3.org/2000/svg"><linearGradient gradientUnits="userSpaceOnUse" x1="47.922" x2="221.9" y1="923.41" y2="923.41"><stop offset="0" stop-color="#ff0000"/><stop offset=".25" stop-color="#ffff00"/><stop offset=".5" stop-color="#00ffff"/><stop offset=".75" stop-color="#0000ff"/><stop offset="1" stop-color="#ff00ff"/></linearGradient><g stroke="#00ff00" transform="matrix(.2489424024 .00293759373 -.00293759373 .2489424024 -18.53821742699 -252.33870574985)"><path d="m183.71 1023.5c-17.857 0-35.624 4.5573-43.177 11.234-12.515 27.028-9.7193 52.1-3.9252 78.776.0912.3537.13681.7176.13564 1.0829-.74297 19.644-2.0483 19.572-.13564 37.627.00071.045.00071.09 0 .135.11709.261.20772.533.27055.8121 1.6544 21.767 21.669 39.252 46.561 39.252s44.772-17.468 46.426-39.252c.0419-.092.0871-.1824.13544-.2711 2.1777-18.828.32698-18.752 0-37.357-.003-.3664.0403-.7318.13-1.0871 5.9598-27.048 9.2644-52.399-3.3827-79.72-7.558-6.6911-25.181-11.232-43.038-11.232z" fill="none" stroke-width="15.721"/><g stroke-linecap="round" stroke-linejoin="round"><rect fill="#00ff00" height="33.887" rx="7.5305" stroke-width="3.7653" width="15.061" x="177.03" y="1042"/><path d="m184.78 1031v61.177" fill="none" stroke-width="4.0248"/></g></g></svg>