<svg width="48" height="48" version="1.1" viewBox="0 0 48 48" xmlns="http://www.w3.org/2000/svg" xmlns:xlink="http://www.w3.org/1999/xlink">
  <title>Polychromatic Mouse</title>
  <defs>
    <linearGradient id="linearGradient4219" x1="47.922" x2="221.9" y1="923.41" y2="923.41" gradientUnits="userSpaceOnUse">
      <stop style="stop-color:#ff0000" offset="0"/>
      <stop style="stop-color:#ffff00" offset=".25"/>
      <stop style="stop-color:#00ffff" offset=".5"/>
      <stop style="stop-color:#0000ff" offset=".75"/>
      <stop style="stop-color:#ff00ff" offset="1"/>
    </linearGradient>
  </defs>
  <g transform="translate(-35.092 -847.07)">
    <g transform="matrix(1.2519 0 0 1.2519 -22.749 -360.21)" style="stroke:url(#linearGradient4219)">
      <g transform="matrix(.18527 -.072267 .072267 .18527 -46.207 789.35)" style="stroke:url(#linearGradient4219)">
        <g transform="rotate(21.985 161.26 1069.4)" style="stroke:#00ff00">
          <path d="m183.71 1023.5c-17.857 0-35.624 4.5573-43.177 11.234-12.515 27.028-9.7193 52.1-3.9252 78.776 0.0912 0.3537 0.13681 0.7176 0.13564 1.0829-0.74297 19.644-2.0483 19.572-0.13564 37.627 7.1e-4 0.045 7.1e-4 0.09 0 0.135 0.11709 0.261 0.20772 0.533 0.27055 0.8121 1.6544 21.767 21.669 39.252 46.561 39.252s44.772-17.468 46.426-39.252c0.0419-0.092 0.0871-0.1824 0.13544-0.2711 2.1777-18.828 0.32698-18.752 0-37.357-3e-3 -0.3664 0.0403-0.7318 0.13-1.0871 5.9598-27.048 9.2644-52.399-3.3827-79.72-7.558-6.6911-25.181-11.232-43.038-11.232z" style="fill:none;stroke-width:15.721;stroke:#00ff00"/>
          <rect x="177.03" y="1042" width="15.061" height="33.887" rx="7.5305" ry="7.5305" style="fill:#00ff00;stroke-linecap:round;stroke-linejoin:round;stroke-width:3.7653;stroke:#00ff00"/>
          <path d="m184.78 1031v61.177" style="fill:none;stroke-linecap:round;stroke-linejoin:round;stroke-width:4.0248;stroke:#00ff00"/>
        </g>
      </g>
    </g>
  </g>
</svg>
