<svg height="300" viewBox="0 0 300 300" width="300" xmlns="http://www.w3.org/2000/svg"><linearGradient gradientUnits="userSpaceOnUse" x1="47.922" x2="221.9" y1="923.41" y2="923.41"><stop offset="0" stop-color="#ff0000"/><stop offset=".25" stop-color="#ffff00"/><stop offset=".5" stop-color="#00ffff"/><stop offset=".75" stop-color="#0000ff"/><stop offset="1" stop-color="#ff00ff"/></linearGradient><g fill="#808080" opacity=".25" stroke="none" stroke-width="9.0643" transform="matrix(4.44156588599 0 0 4.44156588599 -42.9191692211 -4335.57911177088)"><path d="m20.379 987.38v17.155h38.598v-17.155l-38.598.00002zm2.1444 2.1444 34.31-.00002v12.866h-34.31z" fill-rule="evenodd" opacity="1"/><path d="m58.373 998.37c1.247-.0939 2.5393.23294 3.5918.9082 1.0525.67527 1.8898 1.716 2.3242 2.8887.494 1.3333.46925 2.8796-.08789 4.1718-.55568 1.2889-1.6697 2.3616-2.9746 2.8379-1.4128.5157-3.0926.3892-4.7617.039-1.6776-.3513-3.4283-.9237-5.3477-1.0684-3.2803-.2472-6.6068.8899-9.0508 3.0918l-.68555.6172 1.2344 1.3711.68555-.6172c2.0557-1.852 4.9186-2.831 7.6777-2.623 1.629.1227 3.3022.6551 5.1074 1.0332 1.8137.3804 3.8436.595 5.7734-.1094 1.813-.6617 3.2787-2.0828 4.0371-3.8418.75692-1.7556.7822-3.7658.12305-5.5449-.57702-1.5573-1.6607-2.902-3.0586-3.7988-1.3979-.89682-3.0704-1.32-4.7266-1.1953z" fill-rule="evenodd" opacity="1"/><path d="m36.279 1011.3c-2.2045 2.6228-3.7169 5.967-4.3045 8.9803-.84885 1.8309-1.3302 2.9128-1.6963 4.218-.93162 2.925.78 6.1575 3.9052 7.4053 3.1271 1.2486 6.6182.088 7.998-2.6596 1.0092-1.8133 1.3122-3.0808 1.7022-4.1108 1.5547-3.3521 3.3309-6.4565 3.2844-9.6169-1.3772-1.5215-3.1115-2.9005-4.7846-3.6043-2.1252-.584-4.2434-1.2207-6.1044-.612zm9.0301 4.911c-.04511 2.3598-1.4148 5.1393-3.0876 8.1003-.68639 1.3785-1.0675 2.9116-1.7006 4.1116-.9122 1.8231-3.3182 2.7057-5.6423 1.7778-2.7059-1.0099-3.3257-3.4151-2.8175-5.1938.59747-1.7813 1.1103-2.9167 1.7103-4.2669.46646-2.5614 1.5039-5.5181 3.5494-7.8101.77982-.1568 2.6782.012 4.1409.6027 1.4627.5904 2.7589 1.4683 3.8475 2.6784z" opacity="1"/><path d="m41.391 1014.6c-.56774-.2267-1.2186.046-1.4478.6078l-.83276 2.04c-.22922.5615.04751 1.2049.61526 1.4316.56774.2267 1.2182-.047 1.4474-.608l.83276-2.04c.22922-.5615-.04708-1.2047-.61482-1.4314z" opacity="1"/><path d="m17.066 18.131v3.1992h3.1992v-3.1992zm5.332 0v3.1992h3.2012v-3.1992zm5.334 0v3.1992h3.2012v-3.1992zm5.334 0v3.1992h3.1992v-3.1992zm5.332 0v3.1992h3.2012v-3.1992zm5.334 0v3.1992h3.2012v-3.1992zm-26.666 5.334v3.1992h3.1992v-3.1992zm5.332 0v3.1992h3.2012v-3.1992zm5.334 0v3.1992h3.2012v-3.1992zm5.334 0v3.1992h3.1992v-3.1992zm5.332 0v3.1992h3.2012v-3.1992zm5.334 0v3.1992h3.2012v-3.1992z" opacity="1" transform="matrix(1.0052 0 0 1.0052 7.513 973.44)"/></g></svg>