<svg height="48" viewBox="0 0 48 48" width="48" xmlns="http://www.w3.org/2000/svg"><path d="m10.014 16.49q0-1.7026.53414-2.9378.56753-1.2686 1.4689-1.9363 1.0349-.80121 1.6692-1.2018 2.003-1.3354 2.003-3.4719v-1.0015q0-1.5023-.96813-2.0364-.93475-.53414-3.2382-.53414-2.3369 0-6.3763.70106v-2.437q3.4052-.63429 7.0106-.63429 3.6055 0 5.1745 1.0683 1.6024 1.0683 1.6024 3.6388v1.6692q0 1.2352-.43399 2.2367-.43399.96813-1.1351 1.569-1.3354 1.2018-2.9378 2.1366-.70106.43399-1.1351 1.1017t-.43399 1.4355v1.4355h-2.8042zm-.56753 2.9044h3.8725v3.6055h-3.8725z" fill="#c0c0c0" stroke-width=".8346" transform="matrix(2.0909 0 0 2.0909 -1.0917 -1.0908)"/></svg>