<svg height="22" viewBox="0 0 22 22" width="22" xmlns="http://www.w3.org/2000/svg" xmlns:xlink="http://www.w3.org/1999/xlink"><filter id="a" color-interpolation-filters="sRGB" height="1.2083" width="1.2045" x="-.10226" y="-.10415"><feGaussianBlur stdDeviation=".70236019"/></filter><g fill="none" stroke="#00ff00" stroke-width="1.6" transform="matrix(1.25 0 0 1.25 -100.25 -395.26)"><g filter="url(#a)" transform="matrix(.88972 0 0 .88972 9.825 35.764)"><path d="m89.022 316.99v3.2"/><path d="m94.842 319.18-2.2627 2.2627"/><path d="m97.23 324.96h-3.2"/><path d="m94.791 330.74-2.2627-2.2627"/><path d="m89.013 333.18.000002-3.2"/><path d="m83.21 330.84 2.2627-2.2627"/><path d="m80.747 324.96h3.2"/><path d="m83.21 319.18 2.2627 2.2627"/><circle cx="89" cy="325" r="2.854" stroke-linejoin="round"/></g><g transform="matrix(.88972 0 0 .88972 9.825 35.764)"><path d="m89.022 316.99v3.2"/><path d="m94.842 319.18-2.2627 2.2627"/><path d="m97.23 324.96h-3.2"/><path d="m94.791 330.74-2.2627-2.2627"/><path d="m89.013 333.18.000002-3.2"/><path d="m83.21 330.84 2.2627-2.2627"/><path d="m80.747 324.96h3.2"/><path d="m83.21 319.18 2.2627 2.2627"/></g><circle cx="89.01008" cy="324.923" r="2.53926088" stroke-linejoin="round" stroke-width="1.423552"/></g></svg>