<svg width="24" height="24" version="1.1" viewBox="0 0 22.5 22.5" xmlns="http://www.w3.org/2000/svg" xmlns:cc="http://creativecommons.org/ns#" xmlns:dc="http://purl.org/dc/elements/1.1/" xmlns:rdf="http://www.w3.org/1999/02/22-rdf-syntax-ns#"><metadata><rdf:RDF><cc:Work rdf:about=""><dc:format>image/svg+xml</dc:format><dc:type rdf:resource="http://purl.org/dc/dcmitype/StillImage"/><dc:title/></cc:Work></rdf:RDF></metadata><g transform="translate(637.04 -161.34)"><g style="fill:#01ff1c;stroke-width:1.1959" aria-label="G"><path d="m-625.51 176.19q-.60272 0-1.0655-.0538t-.91486-.18297q-.48433-.12916-.79646-.34442-.31213-.22602-.50586-.5812-.19374-.37671-.19374-.86104v-2.906q0-.52739.21526-.94715.21526-.43052.58121-.67806.34441-.22603.81798-.38747.48434-.16145.94715-.21526.38747-.043.93638-.043 1.4853 0 2.8414.22602v1.27q-1.2485-.30136-2.8414-.30136-1.819 0-1.819 1.0548v2.8092q0 .51662.48434.73188.4951.21526 1.4853.21526.52739 0 1.1301-.16145v-1.6252h-1.1409v-1.0978h2.7446v3.6271q-.53815.19373-1.3777.32289-.82875.12915-1.5284.12915z" style="stroke-width:1.1959"/></g><g transform="matrix(1.1959 0 0 1.1959 -1633.4 -51.072)" style="stroke:#00ff00"><path d="m842.47 195.64v-4.1462" style="fill:none;stroke-width:1.149px;stroke:#01ff1c"/><circle transform="matrix(.77975 0 0 .77975 186.86 40.073)" cx="840.9" cy="188.27" r="8.3306" style="fill:none;stroke-width:2;stroke:#01ff1c"/><path d="m842.47 182.54v-4.1462" style="fill:none;stroke-width:1.149px;stroke:#01ff1c"/><path d="m834.04 187.12h4.1462" style="color:#000000;fill:none;stroke-width:1.149px;stroke:#01ff1c"/><path d="m846.84 187.12h4.1462" style="color:#000000;fill:none;stroke-width:1.149px;stroke:#01ff1c"/></g></g></svg>
