<svg height="24" viewBox="0 0 22.499999 22.5" width="24" xmlns="http://www.w3.org/2000/svg"><path d="m-628.3329 178.22985q-.504 0-.891-.045-.387-.045-.765-.153-.405-.108-.666-.288-.261-.189-.423-.486-.162-.315-.162-.72v-2.43q0-.441.18-.792.18-.36.486-.567.288-.189.684-.324.405-.135.792-.18.324-.036.783-.036 1.242 0 2.376.189v1.062q-1.044-.252-2.376-.252-1.521 0-1.521.882v2.349q0 .432.405.612.414.18 1.242.18.441 0 .945-.135v-1.359h-.954v-.918h2.295v3.033q-.45.162-1.152.27-.693.108-1.278.108z" fill="#808080" transform="matrix(1.1959343 0 0 1.1959343 762.98016 -198.300828)"/><g fill="none" stroke="#808080" transform="matrix(1.1959343 0 0 1.1959343 -996.33616 -212.414273)"><path d="m842.4745 195.6435v-4.14624" stroke-width="1.148999"/><circle cx="842.56193611794" cy="186.87566228595" r="6.49581898232" stroke-width="1.5595077"/><g stroke-width="1.148999"><path d="m842.4745 182.54381v-4.14624"/><path d="m834.03646 187.11871h4.14624"/><path d="m846.8365 187.11871h4.14624"/></g></g></svg>