<svg height="24" viewBox="0 0 22.5 22.5" width="24" xmlns="http://www.w3.org/2000/svg"><path d="m-625.51 176.19q-.60272 0-1.0655-.0538t-.91486-.18297q-.48433-.12916-.79646-.34442-.31213-.22602-.50586-.5812-.19374-.37671-.19374-.86104v-2.906q0-.52739.21526-.94715.21526-.43052.58121-.67806.34441-.22603.81798-.38747.48434-.16145.94715-.21526.38747-.043.93638-.043 1.4853 0 2.8414.22602v1.27q-1.2485-.30136-2.8414-.30136-1.819 0-1.819 1.0548v2.8092q0 .51662.48434.73188.4951.21526 1.4853.21526.52739 0 1.1301-.16145v-1.6252h-1.1409v-1.0978h2.7446v3.6271q-.53815.19373-1.3777.32289-.82875.12915-1.5284.12915z" fill="#00ff00" stroke-width="1.1959" transform="translate(637.04 -161.34)"/><g fill="none" stroke="#00ff00" transform="matrix(1.1959 0 0 1.1959 -996.36 -212.412)"><path d="m842.47 195.64v-4.1462" stroke-width="1.149"/><circle cx="842.551775" cy="186.8765325" r="6.49578535" stroke-width="1.5595"/><g stroke-width="1.149"><path d="m842.47 182.54v-4.1462"/><path d="m834.04 187.12h4.1462"/><path d="m846.84 187.12h4.1462"/></g></g></svg>
