<svg width="48" height="48" enable-background="new" version="1.1" viewBox="0 0 48 48" xmlns="http://www.w3.org/2000/svg"><filter id="a" x="-.016002" y="-.058782" width="1.0724" height="1.0772" color-interpolation-filters="sRGB"></filter><filter id="b" x="-.00044139" y="-.042582" width="1.0413" height="1.0448" color-interpolation-filters="sRGB"></filter><g transform="translate(0 -1030.4)" fill="none" stroke="#00ff00"><circle cx="24" cy="1054.4" r="21.231" stroke-linecap="round" stroke-linejoin="round" stroke-width="3.5385"/><path d="m3.7416 1052.6c6.1099.5823 12.015 3.1454 16.613 7.2107 4.5708 4.0411 7.8274 9.5458 9.1684 15.498" stroke-width="2.359"/><path transform="matrix(2.359 0 0 2.359 -1.9487 -1402.2)" d="m3.7538 1037c2.9654.032 5.9058 1.1741 8.116 3.1514 2.428 2.1722 3.9411 5.3364 4.1076 8.59"/><path transform="matrix(2.359 0 0 2.359 -1.9487 -1402.2)" d="m6.3313 1034.1c2.9654.032 5.9058 1.1741 8.116 3.1514 2.428 2.1722 3.9411 5.3364 4.1076 8.59"/></g></svg>
