<svg enable-background="new" height="48" viewBox="0 0 48 48" width="48" xmlns="http://www.w3.org/2000/svg" xmlns:xlink="http://www.w3.org/1999/xlink"><filter id="a" color-interpolation-filters="sRGB" height="1.1225" width="1.1176" x="-.058817" y="-.061232"><feGaussianBlur stdDeviation=".29956168"/></filter><filter id="b" color-interpolation-filters="sRGB" height="1.2449" width="1.2353" x="-.11763" y="-.12246"><feGaussianBlur stdDeviation=".59912336"/></filter><g fill="none" stroke="#00ff00" transform="translate(0 -1030.4)"><circle cx="24" cy="1054.4" r="21.231" stroke-linecap="round" stroke-linejoin="round" stroke-width="3.5385"/><path d="m3.7416 1052.6c6.1099.5823 12.015 3.1454 16.613 7.2107 4.5708 4.0411 7.8274 9.5458 9.1684 15.498" stroke-width="2.359"/><path d="m3.7538 1037c2.9654.032 5.9058 1.1741 8.116 3.1514 2.428 2.1722 3.9411 5.3364 4.1076 8.59" filter="url(#a)" transform="matrix(2.359 0 0 2.359 -1.9487 -1402.2)"/><path d="m6.3313 1034.1c2.9654.032 5.9058 1.1741 8.116 3.1514 2.428 2.1722 3.9411 5.3364 4.1076 8.59" filter="url(#b)" transform="matrix(2.359 0 0 2.359 -1.9487 -1402.2)"/></g></svg>
