<svg width="48" height="48" enable-background="new" version="1.1" viewBox="0 0 48 48" xmlns="http://www.w3.org/2000/svg" xmlns:xlink="http://www.w3.org/1999/xlink">
  <defs>
    <linearGradient id="linearGradient1465" x1="10.641" x2="10.641" y1="1038.6" y2="1049.6" gradientTransform="matrix(2.359 0 0 2.359 -1.9487 -1402.2)" gradientUnits="userSpaceOnUse">
      <stop style="stop-color:#000000;stop-opacity:0" offset="0"/>
      <stop style="stop-color:#01ff1f;stop-opacity:.75" offset="1"/>
    </linearGradient>
  </defs>
  <g transform="translate(0 -1030.4)">
    <circle cx="24" cy="1054.4" r="21.231" style="fill:none;stroke-linecap:round;stroke-linejoin:round;stroke-width:3.5385;stroke:#01ff1f"/>
    <path d="m3.3422 1060.2c3.4526-2.5448 6.6757-5.4007 9.6176-8.5218 1.578-1.6741 3.1289-3.4659 5.189-4.4899 1.4313-.7114 3.05-1.0115 4.6478-.9675 1.5978.044 3.1758.4241 4.662 1.0125 3.5619 1.4102 6.6223 4.0531 8.5361 7.3718-1.5066-.6096-3.1701-.8266-4.7827-.6239-1.6126.2026-3.1707.8245-4.4796 1.788-.78038.5744-1.4776 1.2744-1.98 2.103-.63727 1.0511-.94368 2.288-.94708 3.5171-.0034 1.2292.2891 2.4502.77874 3.5776 1.0166 2.3408 2.9082 4.2894 5.2179 5.375s5.017 1.2986 7.468.5877l-4.7973 2.3371c-1.947.9485-3.9764 1.8037-6.1285 2.0464-2.1521.2427-4.3327-.083-6.428-.6317-4.0951-1.0714-8.0521-2.9327-11.118-5.8515-2.4796-2.3607-4.324-5.3824-5.2903-8.6669" style="fill-rule:evenodd;fill:url(#linearGradient1465);stroke-linejoin:round;stroke-width:3.603;stroke:#01ff1f"/>
  </g>
</svg>
