<svg width="48" height="48" enable-background="new" version="1.1" viewBox="0 0 48 48" xmlns="http://www.w3.org/2000/svg"><path transform="rotate(-90)" d="m-2.769 24a21.231 21.231 0 01-17.089 20.823 21.231 21.231 0 01-23.757-12.698 21.231 21.231 0 017.8196-25.778 21.231 21.231 0 0126.808 2.6403l-15.013 15.013z" style="fill-opacity:.12;fill:#00ff00;stroke-linecap:round;stroke-linejoin:round;stroke-width:.25;stroke:#00ff00"/><path transform="rotate(-90)" d="m-2.769 24a21.231 21.231 0 01-13.106 19.615 21.231 21.231 0 01-23.137-4.6023 21.231 21.231 0 01-4.6023-23.137 21.231 21.231 0 0119.615-13.106v21.231z" style="fill-opacity:.12;fill:#00ff00;stroke-linecap:round;stroke-linejoin:round;stroke-width:.25;stroke:#00ff00"/><path transform="rotate(-90)" d="m-2.769 24a21.231 21.231 0 01-10.616 18.387 21.231 21.231 0 01-21.231 0 21.231 21.231 0 01-10.616-18.387h21.231z" style="fill-opacity:.12;fill:#00ff00;stroke-linecap:round;stroke-linejoin:round;stroke-width:.25;stroke:#00ff00"/><path transform="rotate(225)" d="m-12.71 1.5346e-6a21.231 21.231 0 01-21.231 21.231 21.231 21.231 0 01-21.231-21.231 21.231 21.231 0 0121.231-21.231 21.231 21.231 0 0121.231 21.231z" style="fill-opacity:.12;fill:#00ff00;stroke-linecap:round;stroke-linejoin:round;stroke-width:.25;stroke:#00ff00"/><path transform="rotate(-90)" d="m-2.769 23.943a21.231 21.231 0 01-15.736 20.508 21.231 21.231 0 01-23.882-9.8921 21.231 21.231 0 013.374-25.628l15.013 15.013z" style="fill-opacity:.12;fill:#00ff00;stroke-linecap:round;stroke-linejoin:round;stroke-width:.25;stroke:#00ff00"/><circle transform="rotate(-90)" cx="-24" cy="24" r="21.231" fill="none" stroke-linecap="round" stroke-linejoin="round" stroke-width="3.5385" style="stroke:#00ff00"/><path transform="rotate(-90)" d="m-2.769 23.943a21.231 21.231 0 01-6.2184 15.013l-15.013-15.013z" style="fill-opacity:.12;fill:#00ff00;stroke-linecap:round;stroke-linejoin:round;stroke-width:.25;stroke:#00ff00"/><path transform="rotate(-90)" d="m-2.769 24a21.231 21.231 0 01-21.231 21.231v-21.231z" style="fill-opacity:.12;fill:#00ff00;stroke-linecap:round;stroke-linejoin:round;stroke-width:.25;stroke:#00ff00"/><path transform="rotate(-90)" d="m-2.769 23.943a21.231 21.231 0 01-13.106 19.615 21.231 21.231 0 01-23.137-4.6023l15.013-15.013z" style="fill-opacity:.12;fill:#00ff00;stroke-linecap:round;stroke-linejoin:round;stroke-width:.25;stroke:#00ff00"/></svg>
