<svg width="80" height="80" version="1.1" viewBox="0 0 80 80" xmlns="http://www.w3.org/2000/svg"><path d="m54.971 19.788v.61501h-12.992v-12.992h.61501c.64607 0 1.2657.25671 1.7226.71347l9.9413 9.9413c.45679.4569.71343 1.0765.71347 1.7226zm-13.805 3.863c-1.3398 0-2.436-1.0962-2.436-2.436v-13.805h-20.301c-1.3454 0-2.4359 1.0906-2.4359 2.436v47.098c0 1.3454 1.0906 2.436 2.4359 2.436h34.106c1.3454 0 2.436-1.0906 2.436-2.436v-33.294z" style="fill-opacity:.99058;fill:#808080;opacity:.5"/><path d="m41.836 38.681v30.839l6.9638-6.7979 3.9793 8.1244c.97468 2.1973 6.0418.43056 4.601-2.5079l-3.9378-8.4354h8.7876z" style="fill:#818181;stroke-miterlimit:10;stroke-width:1.5132;stroke:#000000"/></svg>
