<svg width="80" height="80" version="1.1" viewBox="0 0 80 80" xmlns="http://www.w3.org/2000/svg"><path d="m72 40c0 17.678-14.348 32-32.052 32-14.684 0-27.045-9.8453-30.839-23.278l12.284 5.0709c.82579 4.142 4.5032 7.2774 8.8901 7.2774 5.058 0 9.2773-4.1807 9.0579-9.484l10.903-7.7679c6.7225.16786 12.361-5.2774 12.361-12.065 0-6.6581-5.4193-12.065-12.09-12.065-6.6707 0-12.09 5.4194-12.09 12.065v.15476l-7.6386 11.058c-2-.11607-3.9613.43872-5.6127 1.5613l-17.174-7.0968c1.3161-16.478 15.11-29.432 31.947-29.432 17.703 0 32.052 14.323 32.052 32zm-43.909 16.555-3.9354-1.6258a6.8115 6.8117 0 003.5098 3.3292c3.4708 1.4452 7.4579-.20655 8.9032-3.6646.69678-1.6774.70966-3.5226.0128-5.2-.69666-1.6774-1.9999-2.9935-3.6773-3.6905-1.6645-.69676-3.4452-.67096-5.0193-.07739l4.0645 1.6774c2.5548 1.0581 3.7678 3.9872 2.6968 6.542-1.071 2.5678-3.9999 3.7679-6.5547 2.7097zm22.426-16.761c-4.4386 0-8.0514-3.6128-8.0514-8.0388s3.6128-8.0388 8.0514-8.0388c4.4386 0 8.0514 3.6128 8.0514 8.0388s-3.5999 8.0388-8.0514 8.0388zm.0128-2.0129c3.3419 0 6.0514-2.7097 6.0514-6.0387 0-3.342-2.7096-6.0387-6.0514-6.0387-3.3418 0-6.0514 2.7097-6.0514 6.0387.0128 3.3292 2.7225 6.0387 6.0514 6.0387z" style="fill:#808080;opacity:.75"/></svg>
