<?xml version="1.0" encoding="UTF-8" standalone="no"?>
<svg xmlns:rdf="http://www.w3.org/1999/02/22-rdf-syntax-ns#" xmlns="http://www.w3.org/2000/svg" height="24" width="24" version="1.1" xmlns:cc="http://creativecommons.org/ns#" xmlns:dc="http://purl.org/dc/elements/1.1/" viewBox="0 0 24.000004 24">
 <metadata>
  <rdf:RDF>
   <cc:Work rdf:about="">
    <dc:format>image/svg+xml</dc:format>
    <dc:type rdf:resource="http://purl.org/dc/dcmitype/StillImage"/>
    <dc:title/>
   </cc:Work>
  </rdf:RDF>
 </metadata>
 <path stroke-width=".053529" fill="#00ff00" d="m23.979 23.986c-2.1543.01659-4.7524.009-7.4308.009v-9.2806h3.1158l.46577-3.618h-3.587v-2.3122c0-1.049.28910-1.7609 1.7935-1.7609h1.917v-3.238c-.33193-.042788-1.4669-.14451-2.7946-.14451-2.7625 0-4.6577 1.6859-4.6577 4.7848v2.6707h-3.127v3.618h3.127v9.286h-12.8c-.00050796-9.512-.00099976-16.06-.00099976-24 6.7113.055584 16.587.022494 23.982.022494.042 7.0295-.003 16.519-.003 23.964z"/>
</svg>
