<?xml version="1.0" encoding="UTF-8" standalone="no"?>
<svg xmlns:rdf="http://www.w3.org/1999/02/22-rdf-syntax-ns#" xmlns="http://www.w3.org/2000/svg" height="24" width="24" version="1.1" xmlns:cc="http://creativecommons.org/ns#" xmlns:dc="http://purl.org/dc/elements/1.1/" viewBox="0 0 24 24">
 <metadata>
  <rdf:RDF>
   <cc:Work rdf:about="">
    <dc:format>image/svg+xml</dc:format>
    <dc:type rdf:resource="http://purl.org/dc/dcmitype/StillImage"/>
    <dc:title/>
   </cc:Work>
  </rdf:RDF>
 </metadata>
 <path stroke-width=".053591" fill="#00ff00" d="m23.962 0h-23.962c1.3749e-7 5.8923.21108 18.81.042425 24h23.835c.21212-6.7977.08485-17.113.08485-24zm-9.1235 20.555c-.45033.08034-.61653-.19821-.61653-.42857 0-.28929.01072-1.7679.01072-2.9625 0-.83572-.27878-1.3661-.60580-1.6446 1.9836-.21965 4.0744-.49286 4.0744-3.9161 0-.97499-.34847-1.4625-.91675-2.0893.092-.2301.397-1.1783-.091-2.4104-.745-.2304-2.45.9589-2.45.9589-.707-.1982-1.474-0.3-2.23-0.3-.75591 0-1.5225.10179-2.2302 0.3 0 0-1.7048-1.1893-2.45-.95892-.48786 1.2268-.18764 2.175-.091138 2.4107-.56828.62679-.83633 1.1143-.83633 2.0893 0 3.4071 1.9997 3.6964 3.9833 3.9161-.25733.23035-.48786.62679-.56828 1.1946-.50930.23036-1.812.62679-2.5894-.74464-.48786-.84643-1.3671-.91608-1.3671-.91608-.86850-.01069-.058972.54643-.058972.54643 0.579.26786.98644 1.2964.98644 1.2964.52003 1.5911 3.0076 1.0554 3.0076 1.0554 0 .74464.01072 1.9554.01072 2.175 0 .23036-.16083.50894-.61652.42857-3.5382-1.185-6.0151-4.549-6.0151-8.481 0-4.9179 3.7635-8.6518 8.685-8.6518s8.9101 3.7339 8.9101 8.6518c.0054 3.9321-2.3964 7.3018-5.9347 8.4804zm-5.2592-3.2732c-.10186.02138-.19836-.02148-.20908-.09103-.010722-.08034.058972-.15.16083-.17143.10186-.01069.19836.03218.20908.10178.01608.06965-.05361.13929-.16083.16072zm-.50930-.04817c0 .06965-.080416.12857-.18764.12857-.11794.01069-.19836-.04817-.19836-.12857 0-.06965.080416-.12858.18764-.12858.10186-.01069.19836.04817.19836.12858zm-.73447-.05896c-.021444.06965-.12867.10178-.21980.06965-.10186-.02148-.17155-.10179-.15011-.17143.021444-.06965.12867-.10178.21980-.08034.10722.03218.17692.11250.15011.18214zm-.6590-.289c-.04825.05896-.15011.04816-.23053-.03218-.080416-.06965-.10186-.17143-.04825-.21965.04825-.05896.15011-.04816.23053.03218.069694.06965.0965.17679.04825.21965zm-.48786-.48750c-.04825.03218-.13939 0-.19836-.08034-.058972-.08034-.058972-.17142 0-.20893.058972-.04816.15011-.01069.19836.06965.058972.08034.058972.17679 0 .21965zm-.3484-.519c-.04825.04817-.12867.02148-.18764-.03218-.058972-.06965-.069694-.15-.021444-.18749.04825-.04817.12867-.02138.18764.03218.058972.06965.069694.15.021444.18750zm-.3592-.397c-.021444.04817-.091139.05896-.15011.02138-.069694-.03218-.10186-.09103-.080416-.13928.021444-.03218.080416-.04817.15011-.02148.069694.03747.10186.09643.080416.13929z"/>
</svg>
