<?xml version="1.0" encoding="UTF-8" standalone="no"?>
<svg xmlns:rdf="http://www.w3.org/1999/02/22-rdf-syntax-ns#" xmlns="http://www.w3.org/2000/svg" enable-background="new 0 0 789.322 336.807" xml:space="preserve" height="32" viewBox="0 0 32 31.999999" width="32" version="1.1" y="0px" x="0px" xmlns:cc="http://creativecommons.org/ns#" xmlns:dc="http://purl.org/dc/elements/1.1/"><metadata><rdf:RDF><cc:Work rdf:about=""><dc:format>image/svg+xml</dc:format><dc:type rdf:resource="http://purl.org/dc/dcmitype/StillImage"/><dc:title/></cc:Work></rdf:RDF></metadata>
<g transform="translate(0 -304.81)"><path d="m0 0v32h32v-32h-32zm4 6h4.6445v1.5664h-2.6289v16.868h2.6289v1.566h-4.6445v-20zm19.355 0h4.645v20h-4.645v-1.566h2.629v-16.868l-2.629.0004v-1.5664zm-9.257 5c.615 0 1.177.119 1.685.357.509.239.895.659 1.158 1.262.289-.427.682-.802 1.178-1.129.496-.326 1.082-.490 1.76-.490.515 0 .992.062 1.432.188.439.125.816.327 1.13.603s.559.637.735 1.082c.175.446.263.983.263 1.611v6.516h-2.675v-5.518c0-.326-.012-.634-.037-.923-.026-.289-.094-.539-.207-.752-.114-.214-.279-.384-.499-.510-.219-.125-.517-.188-.894-.188s-.682.073-.914.217c-.233.145-.415.333-.547.565s-.220.495-.264.791c-.044.295-.064.593-.064.894v5.424h-2.676v-5.461c0-.289-.005-.575-.017-.857-.013-.283-.066-.543-.161-.782-.094-.238-.251-.429-.470-.574-.220-.144-.544-.217-.971-.217-.126 0-.291.028-.498.084-.207.057-.409.164-.604.321-.194.157-.360.383-.498.677-.138.296-.209.682-.209 1.159v5.65h-2.6735v-9.736h2.5235v1.318h.039c.352-.502.773-.892 1.27-1.168.495-.276 1.064-.414 1.705-.414z" fill-rule="evenodd" transform="translate(0 304.81)" fill="#00ff00"/></g><g transform="translate(0 -304.81)" display="none"><path display="inline" d="m8.876 7.71v321.39h23.13v7.711h-32.006v-336.81h32.006v7.71z"/><path display="inline" d="m328.44 329.1v-321.39h-23.13v-7.71h32.008v336.81h-32.008v-7.711z"/></g><g transform="translate(0 -304.81)"><g transform="matrix(.044750 0 0 .044750 -341.72 143.12)"><path d="m8.876 7.71v321.39h23.13v7.711h-32.006v-336.81h32.006v7.71z"/><path d="m97.989 109.59v16.264h.463c4.338-6.191 9.563-10.998 15.684-14.406 6.117-3.402 13.129-5.11 21.027-5.11 7.588 0 14.521 1.475 20.793 4.415 6.274 2.945 11.038 8.131 14.291 15.567 3.56-5.265 8.4-9.913 14.521-13.94 6.117-4.025 13.358-6.042 21.724-6.042 6.351 0 12.234.776 17.66 2.325 5.418 1.549 10.065 4.027 13.938 7.434 3.869 3.41 6.889 7.863 9.062 13.357 2.167 5.504 3.253 12.122 3.253 19.869v80.385h-32.993v-68.074c0-4.025-.154-7.82-.465-11.385-.313-3.56-1.161-6.656-2.555-9.293-1.395-2.631-3.45-4.724-6.157-6.274-2.711-1.543-6.391-2.322-11.037-2.322s-8.403.896-11.269 2.671c-2.868 1.784-5.112 4.109-6.737 6.971-1.626 2.869-2.711 6.12-3.252 9.762-.545 3.638-.814 7.318-.814 11.035v66.91h-32.991v-67.375c0-3.562-.081-7.087-.23-10.57-.158-3.487-.814-6.7-1.978-9.645-1.162-2.94-3.099-5.304-5.809-7.088-2.711-1.775-6.699-2.671-11.965-2.671-1.551 0-3.603.349-6.156 1.048-2.556.697-5.036 2.016-7.435 3.949-2.404 1.938-4.454 4.726-6.158 8.363-1.705 3.642-2.556 8.402-2.556 14.287v69.701h-32.985v-120.12z"/><path d="m271.54 127.25c3.405-5.113 7.744-9.215 13.012-12.316 5.264-3.097 11.186-5.303 17.771-6.621 6.582-1.315 13.205-1.976 19.865-1.976 6.042 0 12.158.428 18.354 1.277 6.195.855 11.85 2.522 16.962 4.997 5.111 2.477 9.292 5.926 12.546 10.338 3.253 4.414 4.879 10.262 4.879 17.543v62.494c0 5.428.31 10.611.931 15.567.615 4.959 1.701 8.676 3.251 11.153h-33.455c-.621-1.86-1.126-3.755-1.511-5.693-.39-1.933-.661-3.908-.813-5.923-5.267 5.422-11.465 9.217-18.585 11.386-7.127 2.163-14.407 3.251-21.842 3.251-5.733 0-11.077-.698-16.033-2.09-4.958-1.395-9.293-3.562-13.01-6.51-3.718-2.938-6.622-6.656-8.713-11.147s-3.138-9.84-3.138-16.033c0-6.813 1.199-12.43 3.604-16.84 2.399-4.417 5.495-7.939 9.295-10.575 3.793-2.632 8.129-4.607 13.01-5.923 4.878-1.315 9.795-2.358 14.752-3.137 4.957-.772 9.835-1.393 14.638-1.857 4.801-.466 9.062-1.164 12.779-2.093 3.718-.929 6.658-2.282 8.829-4.065 2.165-1.781 3.172-4.375 3.02-7.785 0-3.56-.58-6.389-1.742-8.479-1.161-2.09-2.711-3.719-4.646-4.88-1.937-1.161-4.183-1.936-6.737-2.325-2.557-.382-5.309-.58-8.248-.58-6.506 0-11.617 1.395-15.335 4.183-3.716 2.788-5.889 7.437-6.506 13.94h-32.991c.462-7.742 2.395-14.173 5.807-19.281zm65.169 46.583c-2.09.696-4.337 1.275-6.736 1.741-2.402.465-4.918.853-7.551 1.161-2.635.313-5.268.698-7.899 1.163-2.48.461-4.919 1.086-7.317 1.857-2.404.779-4.495 1.822-6.274 3.138-1.784 1.317-3.216 2.985-4.3 4.994-1.085 2.014-1.626 4.571-1.626 7.668 0 2.94.541 5.422 1.626 7.431 1.084 2.017 2.558 3.604 4.416 4.765s4.025 1.976 6.507 2.438c2.475.466 5.031.698 7.665.698 6.505 0 11.537-1.082 15.103-3.253 3.561-2.166 6.192-4.762 7.899-7.785 1.702-3.019 2.749-6.072 3.137-9.174.384-3.097.58-5.576.58-7.434v-12.31c-1.396 1.242-3.138 2.209-5.23 2.907z"/><path d="m461.83 109.59v22.072h-24.161v59.479c0 5.573.928 9.292 2.788 11.149 1.856 1.859 5.576 2.788 11.152 2.788 1.859 0 3.638-.076 5.343-.232 1.703-.152 3.33-.388 4.878-.696v25.557c-2.788.465-5.887.773-9.293.931-3.407.149-6.737.23-9.99.23-5.111 0-9.953-.35-14.521-1.048-4.571-.695-8.597-2.047-12.081-4.063-3.486-2.011-6.236-4.88-8.248-8.597-2.016-3.714-3.021-8.595-3.021-14.639v-70.859h-19.98v-22.072h19.98v-36.008h32.992v36.012z"/><path d="m508.99 109.59v22.31h.465c1.546-3.72 3.636-7.163 6.272-10.341 2.634-3.172 5.652-5.885 9.06-8.131 3.405-2.242 7.047-3.985 10.923-5.228 3.868-1.237 7.898-1.859 12.081-1.859 2.168 0 4.566.39 7.202 1.163v30.67c-1.551-.312-3.41-.584-5.576-.814-2.17-.233-4.26-.35-6.274-.35-6.041 0-11.152 1.01-15.332 3.021-4.182 2.014-7.55 4.761-10.107 8.247-2.555 3.487-4.379 7.55-5.462 12.198-1.083 4.645-1.625 9.682-1.625 15.102v54.133h-33v-120.11z"/><path d="m568.93 91.006v-27.183h32.994v27.183zm32.994 18.588v120.12h-32.99v-120.12z"/><path d="m619.12 109.59h37.637l21.144 31.365 20.911-31.365h36.476l-39.496 56.226 44.377 63.892h-37.64l-25.093-37.87-25.094 37.87h-36.95l43.213-63.193z"/><path d="m780.44 329.1v-321.39h-23.13v-7.71h32.008v336.81h-32.008v-7.711z"/></g></g></svg>
