<?xml version="1.0" encoding="UTF-8" standalone="no"?>
<svg xmlns:rdf="http://www.w3.org/1999/02/22-rdf-syntax-ns#" xmlns="http://www.w3.org/2000/svg" height="16" width="16" version="1.1" xmlns:cc="http://creativecommons.org/ns#" xmlns:dc="http://purl.org/dc/elements/1.1/" viewBox="0 0 16.000002 15.999999">
 <title>OpenRazer Logo</title>
 <metadata>
  <rdf:RDF>
   <cc:Work rdf:about="">
    <dc:format>image/svg+xml</dc:format>
    <dc:type rdf:resource="http://purl.org/dc/dcmitype/StillImage"/>
    <dc:title>OpenRazer Logo</dc:title>
    <cc:license rdf:resource="http://creativecommons.org/licenses/by-sa/4.0/"/>
    <dc:date>January 2016</dc:date>
    <dc:creator>
     <cc:Agent>
      <dc:title>Luke Horwell</dc:title>
     </cc:Agent>
    </dc:creator>
    <dc:rights>
     <cc:Agent>
      <dc:title>CC BY-SA 4.0</dc:title>
     </cc:Agent>
    </dc:rights>
    <dc:description>A razer inspired &quot;snake&quot; logo created to represent the OpenRazer project.
Source Code: https://github.com/openrazer/openrazer</dc:description>
    <dc:contributor>
     <cc:Agent>
      <dc:title>Luke Horwell</dc:title>
     </cc:Agent>
    </dc:contributor>
    <dc:subject>
     <rdf:Bag>
      <rdf:li>Logo</rdf:li>
      <rdf:li>Snakes</rdf:li>
      <rdf:li>Keyboards</rdf:li>
      <rdf:li>Tux Power</rdf:li>
      <rdf:li>Linux</rdf:li>
     </rdf:Bag>
    </dc:subject>
    <dc:coverage/>
   </cc:Work>
   <cc:License rdf:about="http://creativecommons.org/licenses/by-sa/4.0/">
    <cc:permits rdf:resource="http://creativecommons.org/ns#Reproduction"/>
    <cc:permits rdf:resource="http://creativecommons.org/ns#Distribution"/>
    <cc:requires rdf:resource="http://creativecommons.org/ns#Notice"/>
    <cc:requires rdf:resource="http://creativecommons.org/ns#Attribution"/>
    <cc:permits rdf:resource="http://creativecommons.org/ns#DerivativeWorks"/>
    <cc:requires rdf:resource="http://creativecommons.org/ns#ShareAlike"/>
   </cc:License>
  </rdf:RDF>
 </metadata>
 <g transform="matrix(.080474 0 0 .080474 -5.2105 -64.246)">
  <g transform="translate(29.249,-25.648)">
   <g stroke-width="7.8" stroke-linecap="round" fill="none">
    <path d="m62.555 904.63c.68005.36809 1.3177.81439 1.8964 1.3273 1.4031 1.2435 2.4484 2.8643 3.9279 4.0157.73977.57569 1.5946 1.0291 2.5192 1.1831.92465.15397 1.9239-.0149 2.6753-.5754.44698-.3334.79093-.78948 1.0582-1.2788.26732-.48938.46249-1.0142.65527-1.5375.23468-.63696.46881-1.2781.80396-1.8684s.77965-1.133 1.358-1.4885c.78355-.48162 1.7761-.58015 2.6608-.3288.88472.25135 1.6589.83504 2.2041 1.5757.54527.74067.86892 1.6314 1.0007 2.5416.13178.91024.07697 1.8407-.08632 2.7459-.32658 1.8102-1.0767 3.5117-1.6507 5.2593-.57399 1.7476-.97522 3.6244-.57732 5.4204.35274 1.5921 1.3457 3.0299 2.7011 3.9366 1.3554.90662 3.0572 1.2755 4.6688 1.0266 1.9541-.30171 3.6993-1.4721 4.9989-2.9622s2.1957-3.2874 2.9518-5.1143c2.9731-7.1836 3.9545-15.005 5.0699-22.699 1.1154-7.6941 2.4391-15.512 6.003-22.421.76269-1.4787 1.6305-2.9154 2.7356-4.1592 1.105-1.2438 2.4602-2.293 4.0171-2.8796 1.4241-.53656 2.9895-.67177 4.4942-.44454 1.5048.22723 2.9482.81152 4.2204 1.6467 2.5445 1.6703 4.3565 4.3024 5.4441 7.1451 1.1826 3.0908 1.5639 6.4378 1.5705 9.7472.007 3.3093-.35048 6.6069-.59709 9.907s-.38203 6.63.0655 9.9089c.44751 3.2789 1.506 6.5264 3.4628 9.1951.88988 1.2136 1.9576 2.2966 3.1585 3.2035l2.8641 2.9999" stroke="#01ff3a"/>
    <path d="m202.27 843.68c-.74962.48378-1.5492.89003-2.382 1.2102-2.0296.78026-4.2386 1.0452-6.2236 1.9329-.99248.44385-1.9285 1.0503-2.6344 1.8772-.70591.82686-1.1679 1.889-1.1518 2.976.0175 1.1753.57402 2.2687 1.1502 3.2932.35383.62916.72167 1.2545.9818 1.9278.26013.67332.40971 1.405.30787 2.1196-.1253.87922-.6359 1.6848-1.3399 2.2262-.70398.54142-1.5894.82577-2.4767.86242-.88735.0367-1.7758-.16651-2.589-.52353-.81319-.35702-1.5541-.86479-2.228-1.4433-1.3478-1.1569-2.4274-2.5878-3.6357-3.8897s-2.6068-2.5117-4.3043-3.0344c-1.7944-.55253-3.8029-.26334-5.4404.65526-1.6374.91861-2.9062 2.4332-3.6563 4.1544-.86678 1.989-1.0585 4.2322-.76856 6.3824.28992 2.1502 1.0442 4.2165 2.0007 6.164 3.4498 7.0238 9.3988 12.437 15.12 17.776 5.7213 5.3388 11.505 11.004 14.453 18.253 1.3816 3.398 2.0886 7.1967 1.1939 10.754-.86133 3.4246-3.2128 6.4194-6.2659 8.1936-3.0532 1.7743-6.7609 2.3392-10.233 1.6973-3.2824-.60673-6.2995-2.2324-9.0084-4.1828-2.709-1.9504-5.1573-4.235-7.73-6.3618-2.5728-2.1268-5.3104-4.1194-8.4064-5.3673s-6.6036-1.7048-9.7937-.72169c-2.0146.62085-3.8517 1.8073-5.2463 3.3882s-2.3426 3.5516-2.7072 5.628" stroke="#01ff3a"/>
    <path stroke-linejoin="round" d="m139.2 920.57c-1.4741 3.9549-3.7935 7.5923-6.7574 10.597-6.1153 6.1999-14.688 9.4665-23.288 10.835-8.6002 1.3686-17.366 1.0107-26.074.96612-10.429-.0533-20.861.34852-31.255 1.204v61.016h166.17v-60.942c-15.098-.70958-30.229-.71091-45.327-.004-.58082.0272-1.1621.0554-1.7435.0453-3.1698-.0553-6.305-1.2986-8.6513-3.4306s-3.8832-5.1342-4.2409-8.2843" stroke="#01ff3d"/>
   </g>
   <g transform="translate(6.9084,2.3128)">
    <g transform="translate(1.8082)">
     <g transform="translate(.073967 -.1549)">
      <g transform="translate(-1.3839 .13393)">
       <rect stroke-linejoin="round" rx="1.8367" ry="1.8014" height="9.5964" width="9.5964" stroke="#01ff3d" stroke-linecap="round" y="956.28" x="60.211" stroke-width="7.8" fill="#00ff00"/>
      </g>
     </g>
     <g stroke-linejoin="round" stroke="#01ff3d" stroke-linecap="round" stroke-width="7.8" fill="#00ff00">
      <rect rx="1.8367" ry="1.8014" height="9.5964" width="9.5964" y="956.28" x="83.895"/>
      <rect rx="1.8367" ry="1.8014" height="9.5964" width="9.5964" y="956.28" x="108.9"/>
      <rect rx="1.8367" ry="1.8014" height="9.5964" width="9.5964" y="956.24" x="133.92"/>
      <rect rx="1.8367" ry="1.8014" height="9.5964" width="9.5964" y="956.28" x="158.92"/>
      <rect rx="1.8367" ry="1.8014" height="9.5964" width="9.5964" y="956.28" x="183.89"/>
     </g>
    </g>
    <g transform="translate(1.8082,20.045)">
     <g transform="translate(.073967 -.1549)">
      <g transform="translate(-1.3839 .13393)">
       <rect stroke-linejoin="round" rx="1.8367" ry="1.8014" height="9.5964" width="9.5964" stroke="#01ff3d" stroke-linecap="round" y="956.28" x="60.211" stroke-width="7.8" fill="#00ff00"/>
      </g>
     </g>
     <g stroke-linejoin="round" stroke="#01ff3d" stroke-linecap="round" stroke-width="7.8" fill="#00ff00">
      <rect rx="1.8367" ry="1.8014" height="9.5964" width="9.5964" y="956.28" x="83.895"/>
      <rect rx="1.8367" ry="1.8014" height="9.5964" width="9.5964" y="956.28" x="108.9"/>
      <rect rx="1.8367" ry="1.8014" height="9.5964" width="9.5964" y="956.24" x="133.92"/>
      <rect rx="1.8367" ry="1.8014" height="9.5964" width="9.5964" y="956.28" x="158.92"/>
      <rect rx="1.8367" ry="1.8014" height="9.5964" width="9.5964" y="956.28" x="183.89"/>
     </g>
    </g>
   </g>
   <g stroke-width="0" fill="#00ff00" fill-rule="evenodd">
    <path d="m62.166 903.25-2.7195-2.3443-5.7684-1.8931 7.2162 6.0766z"/>
    <path d="m204.46 843.66 3.2679-1.4874 4.1354-4.4448-8.5407 4.007z"/>
    <path d="m158.89 931.22-1.1728-3.3935-4.0354-4.5359 3.1844 8.8803z"/>
   </g>
  </g>
 </g>
</svg>
