<?xml version="1.0" encoding="UTF-8" standalone="no"?>
<svg xmlns:rdf="http://www.w3.org/1999/02/22-rdf-syntax-ns#" xmlns="http://www.w3.org/2000/svg" height="24" width="24" version="1.1" xmlns:cc="http://creativecommons.org/ns#" xmlns:dc="http://purl.org/dc/elements/1.1/" viewBox="0 0 24 24">
 <metadata>
  <rdf:RDF>
   <cc:Work rdf:about="">
    <dc:format>image/svg+xml</dc:format>
    <dc:type rdf:resource="http://purl.org/dc/dcmitype/StillImage"/>
    <dc:title/>
   </cc:Work>
  </rdf:RDF>
 </metadata>
 <path stroke-width=".053634" fill="#00ff00" d="m24 0h-24v24h23.958c0-3.732.042-11.083.042-24zm-5.2176 8.5071c.01074.15.01074.30536.01074.45536 0 4.6446-3.5439 9.9964-10.02 9.9964-1.9975 0-3.85-.57857-5.4072-1.575.28459.0321.55844.0429.84840.0429 1.6485 0 3.1627-.55715 4.3708-1.5-1.5464-.0322-2.8459-1.0446-3.2916-2.4375.54233.0804 1.031.0804 1.5894-.0643-1.6109-.32679-2.819-1.7411-2.819-3.45v-.0429c.46715.2625 1.0149.42322 1.5894.44465-.98113-.65111-1.5699-1.7494-1.5679-2.925 0-.65358.17183-1.2536.47789-1.7732 1.7344 2.1321 4.3386 3.525 7.2597 3.675-.49937-2.3839 1.2887-4.3179 3.4365-4.3179 1.0149 0 1.9277.42322 2.572 1.1089.79470-.15 1.5572-.44464 2.2338-.84643-.26311.81429-.81618 1.5-1.5464 1.9339.70879-.075 1.3961-.27321 2.0297-.54643-.47789.70179-1.0793 1.3232-1.7666 1.8214z"/>
</svg>
