<?xml version="1.0" encoding="UTF-8" standalone="no"?>
<svg
   xmlns:dc="http://purl.org/dc/elements/1.1/"
   xmlns:cc="http://creativecommons.org/ns#"
   xmlns:rdf="http://www.w3.org/1999/02/22-rdf-syntax-ns#"
   xmlns:svg="http://www.w3.org/2000/svg"
   xmlns="http://www.w3.org/2000/svg"
   xmlns:sodipodi="http://sodipodi.sourceforge.net/DTD/sodipodi-0.dtd"
   xmlns:inkscape="http://www.inkscape.org/namespaces/inkscape"
   viewBox="0 0 22 22"
   version="1.1"
   id="svg6"
   sodipodi:docname="breeze-light.svg"
   inkscape:version="0.91 r13725"
   inkscape:export-filename="/tmp/input-keyboard-dark-chroma.svg.png"
   inkscape:export-xdpi="96"
   inkscape:export-ydpi="96">
  <title
     id="title4150">Breeze Light Keyboard Chroma</title>
  <metadata
     id="metadata10">
    <rdf:RDF>
      <cc:Work
         rdf:about="">
        <dc:format>image/svg+xml</dc:format>
        <dc:type
           rdf:resource="http://purl.org/dc/dcmitype/StillImage" />
        <dc:title>Breeze Light Keyboard Chroma</dc:title>
        <dc:creator>
          <cc:Agent>
            <dc:title>aldy-art</dc:title>
          </cc:Agent>
        </dc:creator>
        <dc:date>January 2017</dc:date>
      </cc:Work>
    </rdf:RDF>
  </metadata>
  <sodipodi:namedview
     pagecolor="#ffffff"
     bordercolor="#666666"
     borderopacity="1"
     objecttolerance="10"
     gridtolerance="10"
     guidetolerance="10"
     inkscape:pageopacity="0"
     inkscape:pageshadow="2"
     inkscape:window-width="757"
     inkscape:window-height="415"
     id="namedview8"
     showgrid="false"
     inkscape:zoom="10.727273"
     inkscape:cx="-46.639205"
     inkscape:cy="0.83589557"
     inkscape:window-x="111"
     inkscape:window-y="198"
     inkscape:window-maximized="0"
     inkscape:current-layer="svg6" />
  <defs
     id="defs3051">
    <style
       type="text/css"
       id="current-color-scheme">
      .ColorScheme-Text {
        color:#f2f2f2;
      }
      </style>
    <style
       id="current-color-scheme-6"
       type="text/css">
      .ColorScheme-Text {
        color:#4d4d4d;
      }
      </style>
  </defs>
  <path
     style="color:#f2f2f2;fill:#4d4d4d;fill-opacity:1;stroke:none"
     d="m 13,1033.3622 v 1 1 c 0,0.554 -0.446,1 -1,1 -1.108,0 -2,0.892 -2,2 H 2 v 11 h 18 v -11 h -9 c 0,-0.554 0.446,-1 1,-1 1.108,0 2,-0.892 2,-2 v -1 -1 z m -10,6 h 7 1 8 v 1 H 3 Z m 0,2 h 16 v 7 H 15 7 3 Z"
     transform="translate(0,-1030.3622)"
     class="ColorScheme-Text"
     id="path4"
     inkscape:connector-curvature="0"
     sodipodi:nodetypes="ccssccccccssccccccccccccccccc" />
  <path
     style="opacity:1;fill:#e74c3c;fill-opacity:1;stroke:none;stroke-width:0.04661017"
     d="m 4.0034201,12.502415 v -0.512712 h 1.0021186 1.0021187 v 0.512712 0.512711 H 5.0055387 4.0034201 Z"
     id="path4534"
     inkscape:connector-curvature="0" />
  <path
     style="opacity:1;fill:#f39c1f;fill-opacity:1;stroke:none;stroke-width:0.04661017"
     d="m 6.9864709,12.502415 v -0.512712 h 1.0021187 1.0021186 v 0.512712 0.512711 H 7.9885896 6.9864709 Z"
     id="path4536"
     inkscape:connector-curvature="0" />
  <path
     style="opacity:1;fill:#f39c1f;fill-opacity:1;stroke:none;stroke-width:0.04661017"
     d="M 4.0034201,14.506652 V 13.99394 h 1.0021186 1.0021187 v 0.512712 0.512712 H 5.0055387 4.0034201 Z"
     id="path4538"
     inkscape:connector-curvature="0" />
  <path
     style="opacity:1;fill:#c9ce3b;fill-opacity:1;stroke:none;stroke-width:0.04661017"
     d="M 10.000595,12.984053 C 9.983505,12.966963 9.969522,12.736242 9.969522,12.471341 v -0.481638 h 1.025423 1.025424 v 0.512712 0.512711 h -0.99435 c -0.546893,0 -1.008333,-0.01398 -1.025424,-0.03107 z"
     id="path4540"
     inkscape:connector-curvature="0" />
  <path
     style="opacity:1;fill:#c9ce3b;fill-opacity:1;stroke:none;stroke-width:0.04661017"
     d="M 6.9864709,14.506652 V 13.99394 h 1.0021187 1.0021186 v 0.512712 0.512712 H 7.9885896 6.9864709 Z"
     id="path4542"
     inkscape:connector-curvature="0" />
  <path
     style="opacity:1;fill:#c9ce3b;fill-opacity:1;stroke:none;stroke-width:0.04661017"
     d="m 4.0034201,16.510889 v -0.512712 h 1.0021186 1.0021187 v 0.512712 0.512712 H 5.0055387 4.0034201 Z"
     id="path4544"
     inkscape:connector-curvature="0" />
  <path
     style="opacity:1;fill:#3daee9;fill-opacity:1;stroke:none;stroke-width:0.04661017"
     d="m 12.999183,12.502415 v -0.512712 h 1.002118 1.002119 v 0.512712 0.512711 h -1.002119 -1.002118 z"
     id="path4546"
     inkscape:connector-curvature="0" />
  <path
     style="opacity:1;fill:#3daee9;fill-opacity:1;stroke:none;stroke-width:0.04661017"
     d="M 10.000595,14.98829 C 9.9835048,14.9712 9.9695218,14.74048 9.9695218,14.475578 V 13.99394 h 1.0254232 1.025424 v 0.512712 0.512712 h -0.99435 c -0.546893,0 -1.008333,-0.01398 -1.025424,-0.03107 z"
     id="path4548"
     inkscape:connector-curvature="0" />
  <path
     style="opacity:1;fill:#2ecc71;fill-opacity:1;stroke:none;stroke-width:0.04661017"
     d="m 12.999183,12.502415 v -0.512712 h 1.002118 1.002119 v 0.512712 0.512711 h -1.002119 -1.002118 z"
     id="path4556"
     inkscape:connector-curvature="0" />
  <path
     style="opacity:1;fill:#2ecc71;fill-opacity:1;stroke:none;stroke-width:0.04661017"
     d="M 10.014978,14.899804 C 9.989977,14.834044 9.969522,14.603326 9.969522,14.387092 V 13.99394 h 1.025423 1.025424 v 0.512712 0.512712 h -0.979967 -0.979967 z"
     id="path4558"
     inkscape:connector-curvature="0" />
  <path
     style="opacity:1;fill:#9b59b6;fill-opacity:1;stroke:none;stroke-width:0.04661017"
     d="m 15.982234,14.506652 v -0.51453 l 1.013771,0.01256 1.013771,0.01256 v 0.489407 0.489407 l -1.013771,0.01256 -1.013771,0.01256 z"
     id="path4560"
     inkscape:connector-curvature="0" />
  <path
     style="opacity:1;fill:#e74c3c;fill-opacity:1;stroke:none;stroke-width:0.04661017"
     d="m 15.982234,16.511798 v -0.513621 h 1.027 1.027001 l -0.01323,0.50106 -0.01323,0.501059 -1.013771,0.01256 -1.013771,0.01256 z"
     id="path4562"
     inkscape:connector-curvature="0" />
  <path
     style="opacity:1;fill:#3daee9;fill-opacity:1;stroke:none;stroke-width:0.06591674"
     d="m 16.020691,12.503538 v -0.461417 h 0.988751 0.988751 v 0.461417 0.461417 h -0.988751 -0.988751 z"
     id="path4511"
     inkscape:connector-curvature="0" />
  <path
     style="opacity:1;fill:#3daee9;fill-opacity:1;stroke:none;stroke-width:0.06591674"
     d="m 13.054438,14.513999 v -0.494376 h 0.955793 0.955792 v 0.494376 0.494375 h -0.955792 -0.955793 z"
     id="path4513"
     inkscape:connector-curvature="0" />
  <path
     style="opacity:1;fill:#3daee9;fill-opacity:1;stroke:none;stroke-width:0.06591674"
     d="m 6.9900983,16.491501 v -0.494376 h 3.9879627 3.987962 v 0.494376 0.494375 H 10.978061 6.9900983 Z"
     id="path4515"
     inkscape:connector-curvature="0" />
</svg>
