<?xml version="1.0" encoding="UTF-8" standalone="no"?>
<svg xmlns:inkscape="http://www.inkscape.org/namespaces/inkscape" xmlns:rdf="http://www.w3.org/1999/02/22-rdf-syntax-ns#" xmlns="http://www.w3.org/2000/svg" sodipodi:docname="error.svg" height="22" width="23" version="1.1" xmlns:cc="http://creativecommons.org/ns#" xmlns:dc="http://purl.org/dc/elements/1.1/" inkscape:version="0.91 r13725" xmlns:sodipodi="http://sodipodi.sourceforge.net/DTD/sodipodi-0.dtd">
 <sodipodi:namedview bordercolor="#666666" inkscape:pageshadow="2" guidetolerance="10" pagecolor="#ffffff" gridtolerance="10" inkscape:window-maximized="0" inkscape:zoom="15.170654" objecttolerance="10" borderopacity="1" inkscape:current-layer="g6498" inkscape:cx="13.036398" inkscape:cy="8.8114949" inkscape:window-y="93" inkscape:window-x="83" inkscape:window-width="1162" showgrid="false" inkscape:pageopacity="0" inkscape:window-height="684"/>
 <g opacity="0" stroke="#ff0101" transform="matrix(.55315 0 0 .55315 10.061 -543.09)">
  <path stroke-linejoin="round" d="m14.69 985.78-30.313-0.024 0.02213 11.131h30.299v-11.112" sodipodi:nodetypes="ccccc" inkscape:connector-curvature="0" inkscape:path-effect="#path-effect4224-3" stroke-linecap="round" inkscape:original-d="m 14.690357,985.78 c -0.573099,0.0187 -30.313471,-0.024 -30.313471,-0.024 l 0.02213,11.13089 30.299247,0 0,-11.11184" stroke-width="1.4222" fill="none"/>
  <g transform="matrix(.18234 0 0 .18234 -23.79 814.03)" fill="#01ff1f">
   <g transform="translate(1.8082)">
    <g transform="translate(.073967 -.15490)" fill="#ff5c00">
     <g transform="translate(-1.3839 .13393)" stroke="#ff0101" fill="#ff5c00">
      <rect opacity="1" stroke-linejoin="round" rx="1.8367" ry="1.8014" height="9.5964" width="9.5964" stroke="#ff0101" stroke-linecap="round" y="956.28" x="60.211" stroke-width="7.8" fill="#ff5c00"/>
     </g>
    </g>
    <g stroke-linejoin="round" stroke-width="7.8">
     <g stroke-linecap="round">
      <rect opacity="1" rx="1.8367" ry="1.8014" height="9.5964" width="9.5964" y="956.28" x="83.895" fill="#ffef00"/>
      <rect opacity="1" rx="1.8367" ry="1.8014" height="9.5964" width="9.5964" y="956.28" x="108.9" fill="#7cff83"/>
      <rect opacity="1" rx="1.8367" ry="1.8014" height="9.5964" width="9.5964" y="956.24" x="133.92" fill="#00e9ff"/>
      <rect opacity="1" rx="1.8367" ry="1.8014" height="9.5964" width="9.5964" y="956.28" x="158.92" fill="#0056ff"/>
     </g>
     <rect opacity="1" rx="1.8367" ry="1.8014" height="9.5964" width="9.5964" y="956.28" x="183.89" fill="#3d00ff"/>
    </g>
   </g>
   <g transform="translate(1.8082 23.24)">
    <g transform="translate(.073967 -.15490)" fill="#ff6400">
     <g transform="translate(-1.3839 .13393)" stroke="#ff0101" fill="#ff6400">
      <rect opacity="1" stroke-linejoin="round" rx="1.8367" ry="1.8014" height="9.5964" width="9.5964" stroke="#ff0101" stroke-linecap="round" y="956.28" x="60.211" stroke-width="7.8" fill="#ff6400"/>
     </g>
    </g>
    <g stroke-linejoin="round" stroke-linecap="round" stroke-width="7.8">
     <rect opacity="1" rx="1.8367" ry="1.8014" height="9.5964" width="9.5964" y="956.28" x="83.895" fill="#ffef00"/>
     <rect opacity="1" rx="1.8367" ry="1.8014" height="9.5964" width="9.5964" y="956.28" x="108.9" fill="#7cff83"/>
     <rect opacity="1" rx="1.8367" ry="1.8014" height="9.5964" width="9.5964" y="956.24" x="133.92" fill="#00e9ff"/>
     <rect opacity="1" rx="1.8367" ry="1.8014" height="9.5964" width="9.5964" y="956.28" x="158.92" fill="#0056ff"/>
     <rect opacity="1" rx="1.8367" ry="1.8014" height="9.5964" width="9.5964" y="956.28" x="183.89" fill="#3c00ff"/>
    </g>
   </g>
  </g>
  <g fill="none">
   <path stroke-linejoin="round" d="m15.403 991.38c1.3568 0.16445 2.6549 0.78014 3.6408 1.7267 1.1454 1.0998 1.8611 2.6781 1.7742 4.2636-0.04344 0.79279-0.28443 1.5766-0.71201 2.2456-0.42758 0.66896-1.0428 1.2201-1.7637 1.5528-0.62609 0.2889-1.3207 0.411-2.0102 0.4177-0.6895 0.01-1.3759-0.099-2.0489-0.2495-1.3458-0.3008-2.6572-0.7817-4.0293-0.9198-2.3305-0.2345-4.747 0.5907-6.4473 2.2015" sodipodi:nodetypes="csssc" inkscape:path-effect="#path-effect4315" inkscape:connector-curvature="0" stroke-linecap="round" inkscape:original-d="m 15.403497,991.37749 c -7.6e-5,0 3.640764,0.57817 3.640763,1.7267 0,1.45647 0.02677,7.33381 -0.701467,8.06201 -0.728238,0.7283 -6.4815,-1.75395 -8.088428,-0.7516 -2.2880893,1.4273 -5.1782245,0.5243 -6.4473137,2.2015" stroke-width="1.4222"/>
   <path opacity="1" d="m3.4073 1003.1c-1.498-0.6048-3.1428-0.8242-4.0026-0.5199-1.9653 1.8434-2.5799 4.0415-2.9974 6.4756a0.3873 0.3873 0 0 1 -0.025297 0.095c-0.72764 1.6227-0.83471 1.5725-1.2858 3.152a0.3873 0.3873 0 0 1 -0.00457 0.011 0.3873 0.3873 0 0 1 -0.00481 0.077c-0.59844 1.8821 0.48837 4.0267 2.5766 4.8698s4.3475 0.051 5.2241-1.7204a0.3873 0.3873 0 0 1 0.020544 -0.018c0.82036-1.5056 0.66255-1.562 1.2652-3.1338a0.3873 0.3873 0 0 1 0.047726 -0.087c1.4161-2.0673 2.5519-4.082 2.4163-6.8023-0.40742-0.8173-1.732-1.7955-3.23-2.4003z" inkscape:connector-curvature="0" stroke-width="1.4222"/>
   <path stroke-linejoin="round" d="m3.2441 1003.8-2.072 5.1" inkscape:connector-curvature="0" stroke-linecap="round" stroke-width=".36412"/>
  </g>
  <rect stroke-linejoin="round" transform="rotate(21.985)" rx=".68128" ry=".68128" height="3.0658" width="1.3626" stroke-linecap="round" y="930.58" x="378.1" stroke-width=".34064" fill="#006eff"/>
 </g>
 <g stroke="#ff0101" transform="matrix(.42383 0 0 .42383 -6.6826 -417.05)">
  <path stroke-linejoin="round" d="m58.586 989.32-39.33-0.031 0.02873 14.442h39.312v-14.417" sodipodi:nodetypes="ccccc" inkscape:path-effect="#path-effect4224-2" inkscape:connector-curvature="0" stroke-linecap="round" inkscape:original-d="m 58.585884,989.32321 c -0.74357,0.0236 -39.330344,-0.031 -39.330344,-0.031 l 0.02873,14.44189 39.311889,0 0,-14.41709" stroke-width="1.8453" fill="none"/>
  <g transform="matrix(.23657 0 0 .23657 8.659 766.48)" fill="#ff0101">
   <g transform="translate(1.8082)">
    <g transform="translate(.073967 -.15490)">
     <g transform="translate(-1.3839 .13393)" stroke="#ff0101" fill="#ff0101">
      <rect stroke-linejoin="round" rx="1.8367" ry="1.8014" height="9.5964" width="9.5964" stroke="#ff0101" stroke-linecap="round" y="956.28" x="60.211" stroke-width="7.8" fill="#ff0101"/>
     </g>
    </g>
    <g stroke-linejoin="round" stroke-width="7.8">
     <g stroke-linecap="round">
      <rect rx="1.8367" ry="1.8014" height="9.5964" width="9.5964" y="956.28" x="83.895"/>
      <rect rx="1.8367" ry="1.8014" height="9.5964" width="9.5964" y="956.28" x="108.9"/>
      <rect rx="1.8367" ry="1.8014" height="9.5964" width="9.5964" y="956.24" x="133.92"/>
      <rect rx="1.8367" ry="1.8014" height="9.5964" width="9.5964" y="956.28" x="158.92"/>
     </g>
     <rect rx="1.8367" ry="1.8014" height="9.5964" width="9.5964" y="956.28" x="183.89"/>
    </g>
   </g>
   <g transform="translate(1.8082 23.24)">
    <g transform="translate(.073967 -.15490)">
     <g transform="translate(-1.3839 .13393)" stroke="#ff0101" fill="#ff0101">
      <rect stroke-linejoin="round" rx="1.8367" ry="1.8014" height="9.5964" width="9.5964" stroke="#ff0101" stroke-linecap="round" y="956.28" x="60.211" stroke-width="7.8" fill="#ff0101"/>
     </g>
    </g>
    <g stroke-linejoin="round" stroke-linecap="round" stroke-width="7.8">
     <rect rx="1.8367" ry="1.8014" height="9.5964" width="9.5964" y="956.28" x="83.895"/>
     <rect rx="1.8367" ry="1.8014" height="9.5964" width="9.5964" y="956.28" x="108.9"/>
     <rect rx="1.8367" ry="1.8014" height="9.5964" width="9.5964" y="956.24" x="133.92"/>
     <rect rx="1.8367" ry="1.8014" height="9.5964" width="9.5964" y="956.28" x="158.92"/>
     <rect rx="1.8367" ry="1.8014" height="9.5964" width="9.5964" y="956.28" x="183.89"/>
    </g>
   </g>
  </g>
  <path stroke-linejoin="round" d="m59.511 996.59c1.7603 0.21338 3.4447 1.0122 4.7237 2.2403 1.4862 1.427 2.4147 3.4747 2.302 5.5319-0.05635 1.0287-0.36904 2.0456-0.92381 2.9136-0.55477 0.8681-1.353 1.5831-2.2883 2.0147-0.81233 0.3748-1.7136 0.5333-2.6082 0.542-0.89459 0.01-1.7852-0.1286-2.6583-0.3238-1.7462-0.3903-3.4476-1.0143-5.2279-1.1934-3.0237-0.3042-6.159 0.7664-8.3651 2.8564" sodipodi:nodetypes="csssc" inkscape:connector-curvature="0" inkscape:path-effect="#path-effect4315-2" stroke-linecap="round" inkscape:original-d="m 59.511151,996.58568 c -9.8e-5,0 4.723724,0.75017 4.723723,2.24032 0,1.8897 0.03473,9.5153 -0.910121,10.4602 -0.944856,0.9448 -8.409451,-2.2758 -10.494366,-0.9752 -2.968691,1.8518 -6.718511,0.6802 -8.365096,2.8564" stroke-width="1.8453" fill="none"/>
  <g transform="matrix(.23657 0 0 .23657 7.0247 772.36)">
   <g transform="matrix(.92728 .37437 -.37437 .92728 412.09 17.397)" stroke="#ff0101">
    <path d="m135.06 1018.4c-8.8601 0-17.675 2.2612-21.423 5.5741-6.2098 13.41-4.8224 25.851-1.9476 39.086a2.1241 2.1241 0 0 1 0.0673 0.5373c-0.36864 9.7465-1.0163 9.711-0.0673 18.67a2.1241 2.1241 0 0 1 0 0.067 2.1241 2.1241 0 0 1 0.13424 0.4029c0.82085 10.8 10.751 19.475 23.102 19.475s22.214-8.6672 23.035-19.475a2.1241 2.1241 0 0 1 0.0672 -0.1345c1.0805-9.3416 0.16224-9.3043 0-18.535a2.1241 2.1241 0 0 1 0.0645 -0.5394c2.957-13.42 4.5967-25.999-1.6784-39.555-3.75-3.3199-12.494-5.5747-21.355-5.5747z" inkscape:connector-curvature="0" stroke-width="7.8002" fill="none"/>
    <rect stroke-linejoin="round" rx="3.7364" ry="3.7364" height="16.814" width="7.4728" stroke-linecap="round" y="1027.6" x="131.75" stroke-width="1.8682" fill="#ff0101"/>
    <path stroke-linejoin="round" d="m135.59 1022.1v30.354" inkscape:connector-curvature="0" stroke-linecap="round" stroke-width="1.997" fill="none"/>
   </g>
  </g>
 </g>
</svg>
