<?xml version="1.0" encoding="UTF-8" standalone="no"?>
<!-- Created with Inkscape (http://www.inkscape.org/) -->

<svg
   xmlns:dc="http://purl.org/dc/elements/1.1/"
   xmlns:cc="http://creativecommons.org/ns#"
   xmlns:rdf="http://www.w3.org/1999/02/22-rdf-syntax-ns#"
   xmlns:svg="http://www.w3.org/2000/svg"
   xmlns="http://www.w3.org/2000/svg"
   xmlns:sodipodi="http://sodipodi.sourceforge.net/DTD/sodipodi-0.dtd"
   xmlns:inkscape="http://www.inkscape.org/namespaces/inkscape"
   id="svg3014"
   height="22"
   width="23"
   version="1.1"
   inkscape:version="0.91 r13725"
   sodipodi:docname="error.svg">
  <defs
     id="defs10" />
  <sodipodi:namedview
     pagecolor="#ffffff"
     bordercolor="#666666"
     borderopacity="1"
     objecttolerance="10"
     gridtolerance="10"
     guidetolerance="10"
     inkscape:pageopacity="0"
     inkscape:pageshadow="2"
     inkscape:window-width="1920"
     inkscape:window-height="1004"
     id="namedview8"
     showgrid="false"
     inkscape:zoom="3.7926636"
     inkscape:cx="9.5853198"
     inkscape:cy="34.731127"
     inkscape:window-x="0"
     inkscape:window-y="24"
     inkscape:window-maximized="1"
     inkscape:current-layer="svg3014" />
  <metadata
     id="metadata3019">
    <rdf:RDF>
      <cc:Work
         rdf:about="">
        <dc:format>image/svg+xml</dc:format>
        <dc:type
           rdf:resource="http://purl.org/dc/dcmitype/StillImage" />
        <dc:title />
      </cc:Work>
    </rdf:RDF>
  </metadata>
  <g
     id="g3951"
     transform="translate(23)"
     style="fill:#aa0000">
    <path
       id="path3932"
       style="opacity:0.3;stroke-width:0.5;color:#000000;stroke:#dfdbd2;stroke-linecap:round;fill:#aa0000"
       d="m-21 5.2331c-1.108 0-2 0.892-2 2v8c0 1.108 0.892 2 2 2h19c1.108 0 2-0.892 2-2v-7.9999c0-1.108-0.892-2-2-2zm1.5 1.7034h1c0.27699 0 0.5 0.223 0.5 0.5v1.2966c0 0.277-0.22301 0.5-0.5 0.5h-1c-0.277 0-0.5-0.223-0.5-0.5v-1.2966c0-0.277 0.223-0.5 0.5-0.5zm3 0h1c0.27699 0 0.5 0.223 0.5 0.5v1.2966c0 0.277-0.22301 0.5-0.5 0.5h-1c-0.277 0-0.5-0.223-0.5-0.5v-1.2966c0-0.277 0.223-0.5 0.5-0.5zm3 0h1c0.27699 0 0.5 0.223 0.5 0.5v1.2966c0 0.277-0.22301 0.5-0.5 0.5h-1c-0.277 0-0.5-0.223-0.5-0.5v-1.2966c0-0.277 0.223-0.5 0.5-0.5zm3 0h1c0.27699 0 0.5 0.223 0.5 0.5v1.2966c0 0.277-0.22301 0.5-0.5 0.5h-1c-0.27699 0-0.5-0.223-0.5-0.5v-1.2966c0-0.277 0.22301-0.5 0.5-0.5zm3 0h1c0.27699 0 0.5 0.223 0.5 0.5v1.2966c0 0.277-0.22301 0.5-0.5 0.5h-1c-0.27699 0-0.5-0.223-0.5-0.5v-1.2966c0-0.277 0.22301-0.5 0.5-0.5zm3 0h1c0.27699 0 0.5 0.223 0.5 0.5v1.2966c0 0.277-0.22301 0.5-0.5 0.5h-1c-0.27699 0-0.5-0.223-0.5-0.5v-1.2966c0-0.277 0.22301-0.5 0.5-0.5zm-15 3.0403h2c0.27699 0 0.5 0.223 0.5 0.5v1.2564c0 0.277-0.22301 0.5-0.5 0.5h-2c-0.27699 0-0.5-0.223-0.5-0.5v-1.2564c0-0.277 0.22301-0.5 0.5-0.5zm4 0h1c0.27699 0 0.5 0.223 0.5 0.5v1.2564c0 0.277-0.22301 0.5-0.5 0.5h-1c-0.277 0-0.5-0.223-0.5-0.5v-1.2564c0-0.277 0.223-0.5 0.5-0.5zm3 0h1c0.27699 0 0.5 0.223 0.5 0.5v1.2564c0 0.277-0.22301 0.5-0.5 0.5h-1c-0.277 0-0.5-0.223-0.5-0.5v-1.2564c0-0.277 0.223-0.5 0.5-0.5zm3 0h1c0.27699 0 0.5 0.223 0.5 0.5v1.2564c0 0.277-0.22301 0.5-0.5 0.5h-1c-0.27699 0-0.5-0.223-0.5-0.5v-1.2564c0-0.277 0.22301-0.5 0.5-0.5zm3 0h3c0.27699 0 0.5 0.223 0.5 0.5v1.2564c0 0.277-0.22301 0.5-0.5 0.5h-3c-0.27699 0-0.5-0.223-0.5-0.5v-1.2564c0-0.277 0.22301-0.5 0.5-0.5zm-13 3h1c0.27699 0 0.5 0.223 0.5 0.5v1.2564c0 0.277-0.22301 0.5-0.5 0.5h-1c-0.277 0-0.5-0.223-0.5-0.5v-1.2564c0-0.277 0.223-0.5 0.5-0.5zm3 0h10c0.27699 0 0.5 0.223 0.5 0.5v1.2564c0 0.277-0.22301 0.5-0.5 0.5h-10c-0.277 0-0.5-0.223-0.5-0.5v-1.2564c0-0.277 0.223-0.5 0.5-0.5zm12 0h1c0.27699 0 0.5 0.223 0.5 0.5v1.2564c0 0.277-0.22301 0.5-0.5 0.5h-1c-0.27699 0-0.5-0.223-0.5-0.5v-1.2564c0-0.277 0.22301-0.5 0.5-0.5z" />
    <path
       id="path3101"
       style="opacity:0.3;color:#000000;fill:#aa0000"
       d="m-21 6c-1.108 0-2 0.892-2 2v8c0 1.108 0.892 2 2 2h19c1.108 0 2-0.892 2-2v-8c0-1.108-0.892-2-2-2zm1.5 0h1c0.27699 0 0.5 0.223 0.5 0.5v1c0 0.277-0.22301 0.5-0.5 0.5h-1c-0.277 0-0.5-0.223-0.5-0.5v-1c0-0.277 0.223-0.5 0.5-0.5zm3 0h1c0.27699 0 0.5 0.223 0.5 0.5v1c0 0.277-0.22301 0.5-0.5 0.5h-1c-0.277 0-0.5-0.223-0.5-0.5v-1c0-0.277 0.223-0.5 0.5-0.5zm3 0h1c0.27699 0 0.5 0.223 0.5 0.5v1c0 0.277-0.22301 0.5-0.5 0.5h-1c-0.277 0-0.5-0.223-0.5-0.5v-1c0-0.277 0.223-0.5 0.5-0.5zm3 0h1c0.277 0 0.5 0.223 0.5 0.5v1c0 0.277-0.223 0.5-0.5 0.5h-1c-0.277 0-0.5-0.223-0.5-0.5v-1c0-0.277 0.223-0.5 0.5-0.5zm3 0h1c0.277 0 0.5 0.223 0.5 0.5v1c0 0.277-0.223 0.5-0.5 0.5h-1c-0.277 0-0.5-0.223-0.5-0.5v-1c0-0.277 0.223-0.5 0.5-0.5zm3 0h1c0.277 0 0.5 0.223 0.5 0.5v1c0 0.277-0.223 0.5-0.5 0.5h-1c-0.277 0-0.5-0.223-0.5-0.5v-1c0-0.277 0.223-0.5 0.5-0.5zm-15 3h2c0.27699 0 0.5 0.223 0.5 0.5v1c0 0.277-0.22301 0.5-0.5 0.5h-2c-0.27699 0-0.5-0.223-0.5-0.5v-1c0-0.277 0.223-0.5 0.5-0.5zm4 0h1c0.27699 0 0.5 0.223 0.5 0.5v1c0 0.277-0.22301 0.5-0.5 0.5h-1c-0.277 0-0.5-0.223-0.5-0.5v-1c0-0.277 0.223-0.5 0.5-0.5zm3 0h1c0.27699 0 0.5 0.223 0.5 0.5v1c0 0.277-0.22301 0.5-0.5 0.5h-1c-0.277 0-0.5-0.223-0.5-0.5v-1c0-0.277 0.223-0.5 0.5-0.5zm3 0h1c0.277 0 0.5 0.223 0.5 0.5v1c0 0.277-0.22301 0.5-0.5 0.5h-1c-0.277 0-0.5-0.223-0.5-0.5v-1c0-0.277 0.223-0.5 0.5-0.5zm3 0h3c0.277 0 0.5 0.223 0.5 0.5v1c0 0.277-0.22301 0.5-0.5 0.5h-3c-0.277 0-0.5-0.223-0.5-0.5v-1c0-0.277 0.223-0.5 0.5-0.5zm-13 3h1c0.27699 0 0.5 0.223 0.5 0.5v1c0 0.277-0.22301 0.5-0.5 0.5h-1c-0.277 0-0.5-0.223-0.5-0.5v-1c0-0.277 0.223-0.5 0.5-0.5zm3 0h10c0.27699 0 0.5 0.223 0.5 0.5v1c0 0.277-0.22301 0.5-0.5 0.5h-10c-0.277 0-0.5-0.223-0.5-0.5v-1c0-0.277 0.223-0.5 0.5-0.5zm12 0h1c0.27699 0 0.5 0.223 0.5 0.5v1c0 0.277-0.22301 0.5-0.5 0.5h-1c-0.277 0-0.5-0.223-0.5-0.5v-1c0-0.277 0.223-0.5 0.5-0.5z" />
    <path
       id="path3081"
       d="m-21 5c-1.108 0-2 0.892-2 2v8c0 1.108 0.892 2 2 2h19c1.108 0 2-0.892 2-2v-8c0-1.108-0.892-2-2-2h-19zm1.5 2h1c0.27699 0 0.5 0.223 0.5 0.5v1c0 0.277-0.22301 0.5-0.5 0.5h-1c-0.277 0-0.5-0.223-0.5-0.5v-1c0-0.277 0.223-0.5 0.5-0.5zm3 0h1c0.27699 0 0.5 0.223 0.5 0.5v1c0 0.277-0.22301 0.5-0.5 0.5h-1c-0.277 0-0.5-0.223-0.5-0.5v-1c0-0.277 0.223-0.5 0.5-0.5zm3 0h1c0.27699 0 0.5 0.223 0.5 0.5v1c0 0.277-0.22301 0.5-0.5 0.5h-1c-0.277 0-0.5-0.223-0.5-0.5v-1c0-0.277 0.223-0.5 0.5-0.5zm3 0h1c0.277 0 0.5 0.223 0.5 0.5v1c0 0.277-0.223 0.5-0.5 0.5h-1c-0.277 0-0.5-0.223-0.5-0.5v-1c0-0.277 0.223-0.5 0.5-0.5zm3 0h1c0.277 0 0.5 0.223 0.5 0.5v1c0 0.277-0.223 0.5-0.5 0.5h-1c-0.277 0-0.5-0.223-0.5-0.5v-1c0-0.277 0.223-0.5 0.5-0.5zm3 0h1c0.277 0 0.5 0.223 0.5 0.5v1c0 0.277-0.223 0.5-0.5 0.5h-1c-0.277 0-0.5-0.223-0.5-0.5v-1c0-0.277 0.223-0.5 0.5-0.5zm-15 3h2c0.27699 0 0.5 0.223 0.5 0.5v1c0 0.277-0.22301 0.5-0.5 0.5h-2c-0.27699 0-0.5-0.223-0.5-0.5v-1c0-0.277 0.22301-0.5 0.5-0.5zm4 0h1c0.27699 0 0.5 0.223 0.5 0.5v1c0 0.277-0.22301 0.5-0.5 0.5h-1c-0.277 0-0.5-0.223-0.5-0.5v-1c0-0.277 0.223-0.5 0.5-0.5zm3 0h1c0.27699 0 0.5 0.223 0.5 0.5v1c0 0.277-0.22301 0.5-0.5 0.5h-1c-0.277 0-0.5-0.223-0.5-0.5v-1c0-0.277 0.223-0.5 0.5-0.5zm3 0h1c0.27699 0 0.5 0.223 0.5 0.5v1c0 0.277-0.22301 0.5-0.5 0.5h-1c-0.277 0-0.5-0.223-0.5-0.5v-1c0-0.277 0.22301-0.5 0.5-0.5zm3 0h3c0.27699 0 0.5 0.223 0.5 0.5v1c0 0.277-0.22301 0.5-0.5 0.5h-3c-0.277 0-0.5-0.223-0.5-0.5v-1c0-0.277 0.223-0.5 0.5-0.5zm-13 3h1c0.27699 0 0.5 0.223 0.5 0.5v1c0 0.277-0.22301 0.5-0.5 0.5h-1c-0.277 0-0.5-0.223-0.5-0.5v-1c0-0.277 0.223-0.5 0.5-0.5zm3 0h10c0.27699 0 0.5 0.223 0.5 0.5v1c0 0.277-0.22301 0.5-0.5 0.5h-10c-0.277 0-0.5-0.223-0.5-0.5v-1c0-0.277 0.223-0.5 0.5-0.5zm12 0h1c0.27699 0 0.5 0.223 0.5 0.5v1c0 0.277-0.22301 0.5-0.5 0.5h-1c-0.277 0-0.5-0.223-0.5-0.5v-1c0-0.277 0.223-0.5 0.5-0.5z"
       style="fill:#aa0000" />
  </g>
</svg>
