<svg width="40" height="40" version="1.1" viewBox="0 0 40 40" xmlns="http://www.w3.org/2000/svg">
  <path d="m20 1c-10.496 0-19 8.5041-19 19 0 10.497 8.5041 19 19 19 10.497 0 19-8.5034 19-19 0-10.496-8.5034-19-19-19zm0 34.323c-8.4657 0-15.323-6.8573-15.323-15.323 0-8.4657 6.8569-15.323 15.323-15.323s15.323 6.8569 15.323 15.323-6.8569 15.323-15.323 15.323zm4.7346-7.9983-6.5044-4.727c-.2375-.17622-.3754-.45201-.3754-.74314v-12.579c0-.50566.41372-.91936.91936-.91936h2.4517c.50564 0 .91936.41372.91936.91936v10.856l5.1177 3.7233c.41372.29878.49799.87338.19919 1.2871l-1.4388 1.9846c-.29878.40605-.87338.49799-1.2871.19921z" fill="#00ff00" stroke-width=".076613"/>
</svg>
