<?xml version="1.0" encoding="UTF-8" standalone="no"?>
<svg
   xmlns:dc="http://purl.org/dc/elements/1.1/"
   xmlns:cc="http://creativecommons.org/ns#"
   xmlns:rdf="http://www.w3.org/1999/02/22-rdf-syntax-ns#"
   xmlns:svg="http://www.w3.org/2000/svg"
   xmlns="http://www.w3.org/2000/svg"
   version="1.1"
   id="svg2"
   viewBox="0 0 24 23.999999"
   height="24"
   width="24">
  <defs
     id="defs4">
    <marker
       style="overflow:visible"
       id="Arrow1Lstart"
       refX="0"
       refY="0"
       orient="auto">
      <path
         transform="matrix(0.8,0,0,0.8,10,0)"
         style="fill:#00ff00;fill-opacity:1;fill-rule:evenodd;stroke:#000000;stroke-width:1pt;stroke-opacity:1"
         d="M 0,0 5,-5 -12.5,0 5,5 0,0 Z"
         id="path4461" />
    </marker>
  </defs>
  <g
     transform="translate(-23.157124,-1014.6168)"
     id="layer1">
    <path
       id="path4184-1"
       style="opacity:0.2;fill:none;stroke:#00ff00;stroke-width:1.94189584;stroke-miterlimit:4;stroke-dasharray:none;stroke-opacity:1"
       d="m 35.251224,1016.1852 c -2.205627,-0.026 -4.406726,0.511 -5.349391,1.3247 -1.58526,3.32 -1.276441,6.421 -0.599677,9.7243 a 0.52880736,0.52880736 0 0 1 0.01517,0.134 c -0.120408,2.4252 -0.281526,2.4144 -0.07161,4.6473 a 0.52880736,0.52880736 0 0 1 -1.97e-4,0.017 0.52880736,0.52880736 0 0 1 0.03223,0.1007 c 0.172605,2.691 2.619186,4.8797 5.693711,4.916 3.074529,0.036 5.555466,-2.0923 5.791582,-4.7804 a 0.52880736,0.52880736 0 0 1 0.01712,-0.033 c 0.296433,-2.3223 0.06773,-2.3157 0.05447,-4.6142 a 0.52880736,0.52880736 0 0 1 0.01764,-0.1341 c 0.775558,-3.3321 1.220698,-6.4585 -0.301579,-9.8516 -0.923773,-0.8374 -3.093942,-1.4244 -5.299629,-1.4505 z" />
    <path
       d="m 35.225698,1017.1473 -0.0892,7.5596 m 0.04533,-6.1987 c 0.515295,0.01 0.925239,0.4258 0.919155,0.9412 l -0.02745,2.3253 c -0.0061,0.5153 -0.42582,0.9252 -0.941114,0.9192 -0.515295,-0.01 -0.925237,-0.4259 -0.919155,-0.9412 l 0.02745,-2.3253 c 0.0061,-0.5154 0.425818,-0.9252 0.941114,-0.9192 z"
       style="opacity:0.2;fill:#00ff00;fill-opacity:1;fill-rule:evenodd;stroke:#00ff00;stroke-width:0.49700001;stroke-linecap:butt;stroke-linejoin:round;stroke-miterlimit:4;stroke-dasharray:none;stroke-opacity:1"
       id="path4561" />
    <path
       style="fill:#00ff00;stroke-width:0.01562497"
       id="path2"
       d="m 36.407229,1032.7409 v 0.4374 c 0,0.1634 -0.104373,0.3021 -0.249997,0.3536 v 0.1464 c 0,0.207 -0.168,0.375 -0.374908,0.375 h -1.24999 c -0.20738,0 -0.375269,-0.168 -0.375269,-0.375 v -0.1465 c -0.145636,-0.051 -0.249999,-0.1901 -0.249999,-0.3535 v -0.4374 c 0,-0.1036 0.08395,-0.1874 0.187497,-0.1874 h 2.125002 c 0.103545,0 0.187497,0.084 0.187497,0.1874 z m -2.250164,-3.9374 c 0,-0.5514 0.448578,-1.0001 0.999991,-1.0001 0.138079,0 0.249999,-0.1118 0.249999,-0.25 0,-0.138 -0.11192,-0.25 -0.249999,-0.25 -0.82712,0 -1.499988,0.6729 -1.499988,1.5001 0,0.1381 0.111927,0.25 0.249998,0.25 0.138072,0 0.249999,-0.1119 0.249999,-0.25 z m 0.999991,-2.0001 c 1.105229,0 1.999985,0.8946 1.999985,2.0001 0,1.2125 -0.584104,0.9449 -1.265299,2.4999 h -1.469224 c -0.682214,-1.5574 -1.265301,-1.2836 -1.265301,-2.5001 0,-1.1053 0.894576,-2 1.999986,-2 m 0,-0.75 c -1.518644,0 -2.74998,1.2313 -2.74998,2.75 0,1.5895 0.807775,1.4303 1.414317,3.0104 0.05545,0.1444 0.194835,0.2393 0.349597,0.2393 h 1.972094 c 0.154781,0 0.294155,-0.095 0.349623,-0.2394 0.606541,-1.58 1.414171,-1.4207 1.414171,-3.0103 0,-1.5187 -1.231263,-2.75 -2.749797,-2.75 z" />
  </g>
</svg>
