<svg height="24" viewBox="0 0 24 23.999999" width="24" xmlns="http://www.w3.org/2000/svg"><g transform="translate(-23.157124 -1014.6168)"><path d="m35.251224 1016.1852c-2.205627-.026-4.406726.511-5.349391 1.3247-1.58526 3.32-1.276441 6.421-.599677 9.7243a.52880736.52880736 0 0 1 .01517.134c-.120408 2.4252-.281526 2.4144-.07161 4.6473a.52880736.52880736 0 0 1 -.000197.017.52880736.52880736 0 0 1 .03223.1007c.172605 2.691 2.619186 4.8797 5.693711 4.916 3.074529.036 5.555466-2.0923 5.791582-4.7804a.52880736.52880736 0 0 1 .01712-.033c.296433-2.3223.06773-2.3157.05447-4.6142a.52880736.52880736 0 0 1 .01764-.1341c.775558-3.3321 1.220698-6.4585-.301579-9.8516-.923773-.8374-3.093942-1.4244-5.299629-1.4505z" fill="none" opacity=".2" stroke="#00ff00" stroke-width="1.941896"/><g fill="#00ff00"><path d="m35.225698 1017.1473-.0892 7.5596m.04533-6.1987c.515295.01.925239.4258.919155.9412l-.02745 2.3253c-.0061.5153-.42582.9252-.941114.9192-.515295-.01-.925237-.4259-.919155-.9412l.02745-2.3253c.0061-.5154.425818-.9252.941114-.9192z" fill-rule="evenodd" opacity=".2" stroke="#00ff00" stroke-linejoin="round" stroke-width=".497"/><path d="m36.407229 1032.7409v.4374c0 .1634-.104373.3021-.249997.3536v.1464c0 .207-.168.375-.374908.375h-1.24999c-.20738 0-.375269-.168-.375269-.375v-.1465c-.145636-.051-.249999-.1901-.249999-.3535v-.4374c0-.1036.08395-.1874.187497-.1874h2.125002c.103545 0 .187497.084.187497.1874zm-2.250164-3.9374c0-.5514.448578-1.0001.999991-1.0001.138079 0 .249999-.1118.249999-.25 0-.138-.11192-.25-.249999-.25-.82712 0-1.499988.6729-1.499988 1.5001 0 .1381.111927.25.249998.25.138072 0 .249999-.1119.249999-.25zm.999991-2.0001c1.105229 0 1.999985.8946 1.999985 2.0001 0 1.2125-.584104.9449-1.265299 2.4999h-1.469224c-.682214-1.5574-1.265301-1.2836-1.265301-2.5001 0-1.1053.894576-2 1.999986-2m0-.75c-1.518644 0-2.74998 1.2313-2.74998 2.75 0 1.5895.807775 1.4303 1.414317 3.0104.05545.1444.194835.2393.349597.2393h1.972094c.154781 0 .294155-.095.349623-.2394.606541-1.58 1.414171-1.4207 1.414171-3.0103 0-1.5187-1.231263-2.75-2.749797-2.75z" stroke-width=".015625"/></g></g></svg>