<?xml version="1.0" encoding="UTF-8" standalone="no"?>
<svg xmlns:rdf="http://www.w3.org/1999/02/22-rdf-syntax-ns#" xmlns="http://www.w3.org/2000/svg" height="24" width="24" version="1.1" xmlns:cc="http://creativecommons.org/ns#" xmlns:dc="http://purl.org/dc/elements/1.1/" viewBox="0 0 24 23.999999">
 <g transform="translate(-23.157 -1014.6)" stroke-linecap="round" fill="none">
  <g transform="matrix(.043534 0 0 .043534 29.393 986.23)" stroke="#01ff3a" stroke-width="17.228">
   <path d="m62.555 904.63c.68005.36809 1.3177.81439 1.8964 1.3273 1.4031 1.2435 2.4484 2.8643 3.9279 4.0157.73977.57569 1.5946 1.0291 2.5192 1.1831.92465.15397 1.9239-.0149 2.6753-.5754.44698-.3334.79093-.78948 1.0582-1.2788.26732-.48938.46249-1.0142.65527-1.5375.23468-.63696.46881-1.2781.80396-1.8684s.77965-1.133 1.358-1.4885c.78355-.48162 1.7761-.58015 2.6608-.3288.88472.25135 1.6589.83504 2.2041 1.5757.54527.74067.86892 1.6314 1.0007 2.5416.13178.91024.07697 1.8407-.08632 2.7459-.32658 1.8102-1.0767 3.5117-1.6507 5.2593-.57399 1.7476-.97522 3.6244-.57732 5.4204.35274 1.5921 1.3457 3.0299 2.7011 3.9366 1.3554.90662 3.0572 1.2755 4.6688 1.0266 1.9541-.30171 3.6993-1.4721 4.9989-2.9622s2.1957-3.2874 2.9518-5.1143c2.9731-7.1836 3.9545-15.005 5.0699-22.699 1.1154-7.6941 2.4391-15.512 6.003-22.421.76269-1.4787 1.6305-2.9154 2.7356-4.1592 1.105-1.2438 2.4602-2.293 4.0171-2.8796 1.4241-.53656 2.9895-.67177 4.4942-.44454 1.5048.22723 2.9482.81152 4.2204 1.6467 2.5445 1.6703 4.3565 4.3024 5.4441 7.1451 1.1826 3.0908 1.5639 6.4378 1.5705 9.7472.007 3.3093-.35048 6.6069-.59709 9.907s-.38203 6.63.0655 9.9089c.44751 3.2789 1.506 6.5264 3.4628 9.1951.88988 1.2136 1.9576 2.2966 3.1585 3.2035l2.8641 2.9999"/>
   <path d="m202.27 843.68c-.74962.48378-1.5492.89003-2.382 1.2102-2.0296.78026-4.2386 1.0452-6.2236 1.9329-.99248.44385-1.9285 1.0503-2.6344 1.8772-.70591.82686-1.1679 1.889-1.1518 2.976.0175 1.1753.57402 2.2687 1.1502 3.2932.35383.62916.72167 1.2545.9818 1.9278.26013.67332.40971 1.405.30787 2.1196-.1253.87922-.6359 1.6848-1.3399 2.2262-.70398.54142-1.5894.82577-2.4767.86242-.88735.0367-1.7758-.16651-2.589-.52353-.81319-.35702-1.5541-.86479-2.228-1.4433-1.3478-1.1569-2.4274-2.5878-3.6357-3.8897s-2.6068-2.5117-4.3043-3.0344c-1.7944-.55253-3.8029-.26334-5.4404.65526-1.6374.91861-2.9062 2.4332-3.6563 4.1544-.86678 1.989-1.0585 4.2322-.76856 6.3824.28992 2.1502 1.0442 4.2165 2.0007 6.164 3.4498 7.0238 9.3988 12.437 15.12 17.776 5.7213 5.3388 11.505 11.004 14.453 18.253 1.3816 3.398 2.0886 7.1967 1.1939 10.754-.86133 3.4246-3.2128 6.4194-6.2659 8.1936-3.0532 1.7743-6.7609 2.3392-10.233 1.6973-3.2824-.60673-6.2995-2.2324-9.0084-4.1828-2.709-1.9504-5.1573-4.235-7.73-6.3618-2.5728-2.1268-5.3104-4.1194-8.4064-5.3673s-6.6036-1.7048-9.7937-.72169c-2.0146.62085-3.8517 1.8073-5.2463 3.3882s-2.3426 3.5516-2.7072 5.628"/>
   <path d="m178.32 1011.8c-.0442-.8911.004-1.7867.14295-2.6679.33907-2.1478 1.2141-4.1934 1.4378-6.3563.11185-1.0814.0547-2.1952-.30846-3.22-.36313-1.0248-1.0519-1.9559-2.0014-2.4855-1.0266-.57255-2.2517-.63722-3.4271-.6505-.72178-.008-1.4472-.002-2.1604-.11364-.71318-.11138-1.4216-.34768-1.9896-.79318-.69878-.54813-1.1411-1.3931-1.258-2.2735-.11689-.88038.0795-1.7893.49148-2.5761.41193-.7868 1.0321-1.4546 1.7479-1.9803.71578-.52574 1.526-.91348 2.3639-1.2078 1.6758-.58874 3.4548-.8083 5.1864-1.2037 1.7316-.39543 3.4786-1.0017 4.7801-2.2104 1.3757-1.2777 2.1295-3.1618 2.1527-5.0391.0232-1.8774-.65412-3.7335-1.7696-5.2436-1.2891-1.7452-3.1359-3.0328-5.143-3.8568-2.0071-.82402-4.1738-1.2039-6.3385-1.3493-7.8077-.52433-15.47 1.9211-22.954 4.2064-7.4842 2.2854-15.282 4.4619-23.034 3.39-3.6336-.50245-7.2768-1.7895-9.9102-4.343-2.5351-2.4582-3.953-5.992-3.963-9.5233s1.3547-7.0247 3.6468-9.711c2.1667-2.5393 5.083-4.3393 8.1266-5.7101s6.2462-2.3488 9.3745-3.5135c3.1283-1.1646 6.2227-2.5393 8.8514-4.5965 2.6287-2.0573 4.7782-4.8666 5.5218-8.1207.46965-2.0552.3607-4.2393-.31113-6.2375s-1.9045-3.8045-3.5204-5.1585"/>
  </g>
  <rect opacity=".2" stroke-linejoin="round" height="13.503" width="19.503" stroke="#00ff00" y="1019.9" x="25.406" stroke-width="2.4972"/>
 </g>
</svg>
