<svg width="24" height="24" version="1.1" viewBox="0 0 24 24" xmlns="http://www.w3.org/2000/svg"><!-- Font Awesome Free 5.15 by @fontawesome - https://fontawesome.com License - https://fontawesome.com/license/free (Icons: CC BY 4.0) - This icon is remixed from the original --><g transform="matrix(0 -1.2391 1.2391 0 -8.1859 22.348)" fill="#00ff00" style="fill:#00ff00"><path d="m13.498 10.046v1.4704h.7352v1.4704h-.7352v1.4704h-11.028v-4.4112zm.3676-1.4704h-11.763c-.60907 0-1.1028.49373-1.1028 1.1028v5.1464c0 .60907.49373 1.1028 1.1028 1.1028h11.763c.60907 0 1.1028-.49373 1.1028-1.1028v-.3676h.1838c.30453 0 .5514-.24687.5514-.5514v-3.3084c0-.30453-.24687-.5514-.5514-.5514h-.1838v-.3676c0-.60907-.49373-1.1028-1.1028-1.1028z" stroke-width=".022975" style="fill:#00ff00"/><g stroke-width=".024055" style="fill:#00ff00"><path d="m6.3414 10.781h3.264v2.9408h-3.264z" style="fill:#00ff00;opacity:.5"/><path d="m3.0774 10.781h3.264v2.9408h-3.264z" style="fill:#00ff00"/><path d="m9.6053 10.781h3.264v2.9408h-3.264z" style="fill:#00ff00;opacity:.25"/></g></g><path d="m20.364 6.3208c-.0011-.87328-1.3105-.87328-1.3116 0v2.9684h1.3116zm.98365 2.6231h-7.2136c-.18108 0-.32788.1468-.32788.32788v.65575c0 .18108.1468.32789.32788.32789h.32789v.65575c.000239 1.5581 1.0966 2.9011 2.6231 3.2134v4.2104h1.3116v-4.2104c1.5265-.31218 2.6229-1.6551 2.6231-3.2134v-.65575h.32789c.18108 0 .32788-.1468.32788-.32789v-.65575c0-.18108-.1468-.32788-.32788-.32788zm-4.9184-2.6231c0-.87435-1.3116-.87435-1.3116 0v2.9684h1.3116z" style="fill:#00ff00;stroke-width:.020493"/></svg>
