<svg width="24" height="24" version="1.1" viewBox="0 0 24 24" xmlns="http://www.w3.org/2000/svg"><g transform="matrix(0 -1.2391 1.2391 0 -8.1859 22.348)" fill="#00ff00" style="fill:#00ff00"><path d="m13.498 10.046v1.4704h.7352v1.4704h-.7352v1.4704h-11.028v-4.4112zm.3676-1.4704h-11.763c-.60907 0-1.1028.49373-1.1028 1.1028v5.1464c0 .60907.49373 1.1028 1.1028 1.1028h11.763c.60907 0 1.1028-.49373 1.1028-1.1028v-.3676h.1838c.30453 0 .5514-.24687.5514-.5514v-3.3084c0-.30453-.24687-.5514-.5514-.5514h-.1838v-.3676c0-.60907-.49373-1.1028-1.1028-1.1028z" stroke-width=".022975" style="fill:#00ff00"/><g stroke-width=".024055" style="fill:#00ff00"><path d="m6.3414 10.781h3.264v2.9408h-3.264z" fill-opacity=".60784" style="fill-opacity:1;fill:#00ff00;opacity:.75"/><path d="m3.0774 10.781h3.264v2.9408h-3.264z" style="fill:#00ff00"/><path d="m9.6053 10.781h3.264v2.9408h-3.264z" fill-opacity=".21569" style="fill-opacity:1;fill:#00ff00;opacity:.5"/></g></g><path d="m20.982 9.6863h-2.7813l1.0267-3.1283c.09641-.36634-.18076-.72785-.55915-.72785h-3.4705c-.28922 0-.53505.2145-.57361.5013l-.77123 5.7842c-.04579.34705.22414.65555.57361.65555h2.8608l-1.1111 4.6877c-.08677.36634.19281.71098.56155.71098.20245 0 .39526-.10604.5013-.28922l4.2418-7.3267c.22414-.3832-.05302-.86764-.49889-.86764z" fill="#00ff00" stroke-width=".024101"/></svg>
