<svg width="24" height="24" version="1.1" viewBox="0 0 24 24" xmlns="http://www.w3.org/2000/svg"><!-- Font Awesome Free 5.15 by @fontawesome - https://fontawesome.com License - https://fontawesome.com/license/free (Icons: CC BY 4.0) - This icon is remixed from the original --><g transform="matrix(0 -1.2391 1.2391 0 -8.1859 22.348)" fill="#00ff00" style="fill:#00ff00"><path d="m13.498 10.046v1.4704h.7352v1.4704h-.7352v1.4704h-11.028v-4.4112zm.3676-1.4704h-11.763c-.60907 0-1.1028.49373-1.1028 1.1028v5.1464c0 .60907.49373 1.1028 1.1028 1.1028h11.763c.60907 0 1.1028-.49373 1.1028-1.1028v-.3676h.1838c.30453 0 .5514-.24687.5514-.5514v-3.3084c0-.30453-.24687-.5514-.5514-.5514h-.1838v-.3676c0-.60907-.49373-1.1028-1.1028-1.1028z" stroke-width=".022975" style="fill:#00ff00"/><g stroke-width=".024055" style="fill:#00ff00"><path d="m6.3414 10.781h3.264v2.9408h-3.264z" fill-opacity=".60784" style="fill-opacity:1;fill:#00ff00"/><path d="m3.0774 10.781h3.264v2.9408h-3.264z" style="fill:#00ff00"/><path d="m9.6053 10.781h3.264v2.9408h-3.264z" fill-opacity=".21569" style="fill-opacity:1;fill:#00ff00"/></g></g><path d="m16.376 15.405-3.0896-3.0896c-.18561-.18561-.18561-.48657 0-.67219l.67219-.67219c.18561-.18563.48658-.18563.67219 0l2.0813 2.0813 4.4578-4.4578c.18561-.18561.48658-.18561.67221 0l.67219.67221c.18561.18561.18561.48657 0 .67219l-5.4662 5.4662c-.18564.18561-.48658.18561-.67221-2.1e-5z" style="fill:#00ff00;stroke-width:.018566"/></svg>
