<svg height="24" viewBox="0 0 24 23.999999" width="24" xmlns="http://www.w3.org/2000/svg"><g stroke="#00ff00" transform="translate(-23.157124 -1014.6168)"><path d="m35.251224 1016.1852c-2.205627-.026-4.406726.511-5.349391 1.3247-1.58526 3.32-1.276441 6.421-.599677 9.7243a.52880736.52880736 0 0 1 .01517.134c-.120408 2.4252-.281526 2.4144-.07161 4.6473a.52880736.52880736 0 0 1 -.000197.017.52880736.52880736 0 0 1 .03223.1007c.172605 2.691 2.619186 4.8797 5.693711 4.916 3.074529.036 5.555466-2.0923 5.791582-4.7804a.52880736.52880736 0 0 1 .01712-.033c.296433-2.3223.06773-2.3157.05447-4.6142a.52880736.52880736 0 0 1 .01764-.1341c.775558-3.3321 1.220698-6.4585-.301579-9.8516-.923773-.8374-3.093942-1.4244-5.299629-1.4505z" fill="none" opacity=".2" stroke-width="1.941896"/><path d="m35.225698 1017.1473-.0892 7.5596m.04533-6.1987c.515295.01.925239.4258.919155.9412l-.02745 2.3253c-.0061.5153-.42582.9252-.941114.9192-.515295-.01-.925237-.4259-.919155-.9412l.02745-2.3253c.0061-.5154.425818-.9252.941114-.9192z" fill="#00ff00" fill-rule="evenodd" opacity=".2" stroke-linejoin="round" stroke-width=".497"/><path d="m35.220362 1016.1848c-2.19527-.021-4.380261.5151-5.318529 1.325-1.58526 3.32-1.276441 6.421-.599677 9.7243a.52880736.52880736 0 0 1 .01517.134c-.120408 2.4252-.281526 2.4144-.07161 4.6473a.52880736.52880736 0 0 1 -.000197.017.52880736.52880736 0 0 1 .03223.1007c.172605 2.691 2.619186 4.8797 5.693711 4.916.08865 0 .176805.0003.264427 0" fill="none" stroke-width="1.941896"/></g></svg>