<?xml version="1.0" encoding="UTF-8" standalone="no"?>
<svg
   xmlns:dc="http://purl.org/dc/elements/1.1/"
   xmlns:cc="http://creativecommons.org/ns#"
   xmlns:rdf="http://www.w3.org/1999/02/22-rdf-syntax-ns#"
   xmlns:svg="http://www.w3.org/2000/svg"
   xmlns="http://www.w3.org/2000/svg"
   version="1.1"
   id="svg2"
   viewBox="0 0 24 23.999999"
   height="24"
   width="24">
  <defs
     id="defs4">
    <marker
       style="overflow:visible"
       id="Arrow1Lstart"
       refX="0"
       refY="0"
       orient="auto">
      <path
         transform="matrix(0.8,0,0,0.8,10,0)"
         style="fill:#00ff00;fill-opacity:1;fill-rule:evenodd;stroke:#000000;stroke-width:1pt;stroke-opacity:1"
         d="M 0,0 5,-5 -12.5,0 5,5 0,0 Z"
         id="path4461" />
    </marker>
  </defs>
  <g
     transform="translate(-23.157124,-1014.6168)"
     id="layer1">
    <path
       id="path4184-1"
       style="opacity:0.2;fill:none;stroke:#00ff00;stroke-width:1.94189584;stroke-miterlimit:4;stroke-dasharray:none;stroke-opacity:1"
       d="m 35.251224,1016.1852 c -2.205627,-0.026 -4.406726,0.511 -5.349391,1.3247 -1.58526,3.32 -1.276441,6.421 -0.599677,9.7243 a 0.52880736,0.52880736 0 0 1 0.01517,0.134 c -0.120408,2.4252 -0.281526,2.4144 -0.07161,4.6473 a 0.52880736,0.52880736 0 0 1 -1.97e-4,0.017 0.52880736,0.52880736 0 0 1 0.03223,0.1007 c 0.172605,2.691 2.619186,4.8797 5.693711,4.916 3.074529,0.036 5.555466,-2.0923 5.791582,-4.7804 a 0.52880736,0.52880736 0 0 1 0.01712,-0.033 c 0.296433,-2.3223 0.06773,-2.3157 0.05447,-4.6142 a 0.52880736,0.52880736 0 0 1 0.01764,-0.1341 c 0.775558,-3.3321 1.220698,-6.4585 -0.301579,-9.8516 -0.923773,-0.8374 -3.093942,-1.4244 -5.299629,-1.4505 z" />
    <path
       d="m 35.225698,1017.1473 -0.0892,7.5596 m 0.04533,-6.1987 c 0.515295,0.01 0.925239,0.4258 0.919155,0.9412 l -0.02745,2.3253 c -0.0061,0.5153 -0.42582,0.9252 -0.941114,0.9192 -0.515295,-0.01 -0.925237,-0.4259 -0.919155,-0.9412 l 0.02745,-2.3253 c 0.0061,-0.5154 0.425818,-0.9252 0.941114,-0.9192 z"
       style="opacity:0.2;fill:#00ff00;fill-opacity:1;fill-rule:evenodd;stroke:#00ff00;stroke-width:0.49700001;stroke-linecap:butt;stroke-linejoin:round;stroke-miterlimit:4;stroke-dasharray:none;stroke-opacity:1"
       id="path4561" />
    <path
       id="path4184-1-3"
       d="m 35.220362,1016.1848 c -2.19527,-0.021 -4.380261,0.5151 -5.318529,1.325 -1.58526,3.32 -1.276441,6.421 -0.599677,9.7243 a 0.52880736,0.52880736 0 0 1 0.01517,0.134 c -0.120408,2.4252 -0.281526,2.4144 -0.07161,4.6473 a 0.52880736,0.52880736 0 0 1 -1.97e-4,0.017 0.52880736,0.52880736 0 0 1 0.03223,0.1007 c 0.172605,2.691 2.619186,4.8797 5.693711,4.916 0.08865,0 0.176805,3e-4 0.264427,0"
       style="opacity:1;fill:none;stroke:#00ff00;stroke-width:1.94189584;stroke-miterlimit:4;stroke-dasharray:none;stroke-opacity:1" />
  </g>
</svg>
