<?xml version="1.0" encoding="UTF-8" standalone="no"?>
<!-- Created with Inkscape (http://www.inkscape.org/) -->

<svg
   xmlns:dc="http://purl.org/dc/elements/1.1/"
   xmlns:cc="http://creativecommons.org/ns#"
   xmlns:rdf="http://www.w3.org/1999/02/22-rdf-syntax-ns#"
   xmlns:svg="http://www.w3.org/2000/svg"
   xmlns="http://www.w3.org/2000/svg"
   xmlns:sodipodi="http://sodipodi.sourceforge.net/DTD/sodipodi-0.dtd"
   xmlns:inkscape="http://www.inkscape.org/namespaces/inkscape"
   width="24"
   height="24"
   viewBox="0 0 24 23.999999"
   id="svg2"
   version="1.1"
   inkscape:version="0.92.3 (unknown)"
   sodipodi:docname="logo.svg">
  <defs
     id="defs4">
    <inkscape:path-effect
       effect="spiro"
       id="path-effect4835"
       is_visible="true" />
    <inkscape:path-effect
       effect="spiro"
       id="path-effect4745"
       is_visible="true" />
    <marker
       inkscape:stockid="Arrow1Lstart"
       orient="auto"
       refY="0"
       refX="0"
       id="Arrow1Lstart"
       style="overflow:visible"
       inkscape:isstock="true">
      <path
         id="path4461"
         d="M 0,0 5,-5 -12.5,0 5,5 0,0 Z"
         style="fill:#00ff00;fill-opacity:1;fill-rule:evenodd;stroke:#000000;stroke-width:1pt;stroke-opacity:1"
         transform="matrix(0.8,0,0,0.8,10,0)"
         inkscape:connector-curvature="0" />
    </marker>
    <inkscape:path-effect
       effect="spiro"
       id="path-effect4224"
       is_visible="true" />
    <inkscape:path-effect
       effect="spiro"
       id="path-effect4161"
       is_visible="true" />
    <inkscape:path-effect
       effect="spiro"
       id="path-effect4161-4"
       is_visible="true" />
    <inkscape:path-effect
       effect="spiro"
       id="path-effect4161-4-5"
       is_visible="true" />
    <inkscape:path-effect
       effect="spiro"
       id="path-effect4745-0"
       is_visible="true" />
    <inkscape:path-effect
       effect="spiro"
       id="path-effect4745-00"
       is_visible="true" />
    <inkscape:path-effect
       effect="spiro"
       id="path-effect4161-4-0"
       is_visible="true" />
    <inkscape:path-effect
       effect="spiro"
       id="path-effect4161-4-3"
       is_visible="true" />
    <inkscape:path-effect
       effect="spiro"
       id="path-effect4745-0-7"
       is_visible="true" />
  </defs>
  <sodipodi:namedview
     id="base"
     pagecolor="#ffffff"
     bordercolor="#666666"
     borderopacity="1.0"
     inkscape:pageopacity="0.0"
     inkscape:pageshadow="2"
     inkscape:zoom="64"
     inkscape:cx="14.274768"
     inkscape:cy="8.4455581"
     inkscape:document-units="px"
     inkscape:current-layer="layer1"
     showgrid="true"
     units="px"
     inkscape:window-width="1920"
     inkscape:window-height="1004"
     inkscape:window-x="0"
     inkscape:window-y="24"
     inkscape:window-maximized="1"
     showguides="true"
     inkscape:guide-bbox="true"
     objecttolerance="20"
     guidetolerance="10000"
     inkscape:snap-perpendicular="false"
     inkscape:snap-tangential="false"
     fit-margin-top="1"
     fit-margin-left="1"
     fit-margin-right="1"
     fit-margin-bottom="1"
     inkscape:snap-global="false">
    <inkscape:grid
       type="xygrid"
       id="grid4276"
       dotted="false"
       originx="-23.157124"
       originy="-13.745377" />
  </sodipodi:namedview>
  <g
     inkscape:label="Layer 1"
     inkscape:groupmode="layer"
     id="layer1"
     transform="translate(-23.157124,-1014.6168)">
    <g
       id="g4839"
       transform="matrix(0.04353352,0,0,0.04353352,29.377217,989.7375)"
       style="stroke-width:17.22810377;stroke-miterlimit:4;stroke-dasharray:none">
      <path
         sodipodi:nodetypes="cssssssssssscc"
         inkscape:connector-curvature="0"
         inkscape:original-d="m 62.555037,904.62769 c -0.33717,0.81205 0.688751,1.22568 1.896439,1.32727 1.207687,0.10158 8.732574,5.05966 9.122473,4.62345 0.779771,-0.8724 1.12967,-2.20093 1.713518,-2.81631 1.167694,-1.23076 0.729666,-3.48537 2.161913,-3.35688 1.607236,0.14419 2.389565,15.40924 3.551314,17.21404 1.161749,1.8048 4.901128,5.68514 7.369845,4.96321 2.468716,-0.72193 7.224626,-1.21824 7.950719,-8.07651 0.726093,-6.85828 10.056392,-44.93974 11.072922,-45.12021 1.01653,-0.18048 1.67001,-7.94114 6.75267,-7.03875 5.08265,0.90241 13.72316,5.64003 14.15881,8.34724 0.43566,2.70721 2.75915,36.05103 4.50178,38.75825 1.74262,2.70721 3.15851,3.20354 3.15851,3.20354 l 2.86408,2.99988"
         inkscape:path-effect="#path-effect4161"
         id="path4159"
         d="m 62.555037,904.62769 c 0.680048,0.36809 1.317726,0.81439 1.896439,1.32727 1.40306,1.24346 2.448399,2.86434 3.927946,4.01573 0.739774,0.57569 1.594559,1.02914 2.519211,1.18312 0.924652,0.15397 1.923932,-0.0149 2.675316,-0.5754 0.446977,-0.3334 0.790926,-0.78948 1.058245,-1.27885 0.267318,-0.48938 0.462488,-1.01422 0.655273,-1.53746 0.234684,-0.63696 0.468814,-1.27808 0.803962,-1.86839 0.335148,-0.5903 0.779647,-1.13303 1.357951,-1.48849 0.783551,-0.48162 1.776053,-0.58015 2.660774,-0.3288 0.884721,0.25135 1.658851,0.83504 2.204122,1.57571 0.545271,0.74067 0.868925,1.63138 1.000709,2.54163 0.131783,0.91024 0.07697,1.84074 -0.08632,2.74586 -0.326578,1.81025 -1.076664,3.51166 -1.650654,5.25928 -0.57399,1.74762 -0.975224,3.62445 -0.577321,5.42036 0.352737,1.59206 1.345667,3.02994 2.701068,3.93656 1.355402,0.90662 3.057208,1.27548 4.668777,1.02665 1.95407,-0.30171 3.699253,-1.47208 4.998873,-2.96219 1.29962,-1.4901 2.195717,-3.28739 2.951846,-5.11432 2.973126,-7.18357 3.954502,-15.00479 5.069902,-22.69889 1.11539,-7.6941 2.43914,-15.51176 6.00302,-22.42132 0.76269,-1.47868 1.63052,-2.91537 2.73556,-4.15918 1.10505,-1.24381 2.46016,-2.29297 4.01711,-2.87957 1.42413,-0.53656 2.98946,-0.67177 4.49425,-0.44454 1.50479,0.22723 2.94819,0.81152 4.22042,1.64666 2.54447,1.67028 4.35651,4.30237 5.44414,7.14512 1.18255,3.09083 1.56391,6.43785 1.57054,9.74717 0.007,3.30933 -0.35048,6.6069 -0.59709,9.90703 -0.24661,3.30013 -0.38203,6.63 0.0655,9.90893 0.44751,3.27894 1.50596,6.52636 3.46284,9.19512 0.88988,1.21361 1.95762,2.29657 3.15851,3.20354 l 2.86408,2.99988"
         style="fill:none;fill-rule:evenodd;stroke:#01ff3a;stroke-width:17.22810377;stroke-linecap:round;stroke-linejoin:miter;stroke-miterlimit:4;stroke-dasharray:none;stroke-opacity:1" />
      <path
         sodipodi:nodetypes="csssssssssssc"
         inkscape:connector-curvature="0"
         inkscape:original-d="m 202.26893,843.68103 c -0.43842,-0.78928 -1.47669,0.0321 -2.382,1.21018 -0.90531,1.17804 -10.10321,6.14886 -10.00977,6.78612 0.18688,1.27447 1.04139,2.35969 1.15021,3.29322 0.21764,1.86707 2.36991,2.65472 1.28967,4.04742 -1.21223,1.56285 -14.29875,-6.00039 -16.57356,-5.80232 -2.2748,0.19807 -8.0105,1.89226 -9.09662,4.80963 -1.08611,2.91735 -3.91409,8.04757 1.23218,12.54635 5.14627,4.4988 30.1162,34.89158 29.57293,36.02887 -0.54327,1.13729 5.39455,6.05625 1.19392,10.75401 -4.20064,4.69774 -13.97636,10.92897 -16.49924,9.89095 -2.5229,-1.038 -31.52634,-16.93072 -34.93856,-16.63361 -3.41221,0.29709 -7.95349,9.01621 -7.95349,9.01621"
         inkscape:path-effect="#path-effect4161-4"
         id="path4159-6"
         d="m 202.26893,843.68103 c -0.74962,0.48378 -1.54924,0.89003 -2.382,1.21018 -2.02959,0.78026 -4.23865,1.04522 -6.2236,1.93292 -0.99248,0.44385 -1.92847,1.05029 -2.63439,1.87715 -0.70591,0.82686 -1.16793,1.88897 -1.15178,2.97605 0.0175,1.17532 0.57402,2.26867 1.15021,3.29322 0.35383,0.62916 0.72167,1.25448 0.9818,1.9278 0.26013,0.67332 0.40971,1.40502 0.30787,2.11962 -0.1253,0.87922 -0.6359,1.6848 -1.33989,2.22622 -0.70398,0.54142 -1.58937,0.82577 -2.47672,0.86242 -0.88735,0.0367 -1.77576,-0.16651 -2.58895,-0.52353 -0.81319,-0.35702 -1.55409,-0.86479 -2.22797,-1.44326 -1.34776,-1.15692 -2.42741,-2.58779 -3.63569,-3.88972 -1.20828,-1.30192 -2.60678,-2.51172 -4.30434,-3.03445 -1.79435,-0.55253 -3.80293,-0.26334 -5.44035,0.65526 -1.63742,0.91861 -2.90621,2.43321 -3.65627,4.15437 -0.86678,1.98899 -1.05848,4.23218 -0.76856,6.38237 0.28992,2.15019 1.04425,4.21654 2.00074,6.16398 3.44978,7.02385 9.39884,12.43713 15.12011,17.7759 5.72128,5.33877 11.50533,11.00398 14.45282,18.25297 1.38164,3.39798 2.08863,7.19667 1.19392,10.75401 -0.86133,3.42461 -3.21275,6.41936 -6.26592,8.19364 -3.05316,1.77428 -6.76087,2.33916 -10.23332,1.69731 -3.28245,-0.60673 -6.29946,-2.2324 -9.00844,-4.18281 -2.70897,-1.9504 -5.15728,-4.23498 -7.73004,-6.36184 -2.57276,-2.12685 -5.31041,-4.11935 -8.40642,-5.36727 -3.09602,-1.24791 -6.60365,-1.70475 -9.79366,-0.72169 -2.01464,0.62085 -3.85169,1.80727 -5.24628,3.3882 -1.39459,1.58094 -2.34256,3.55165 -2.70721,5.62801"
         style="fill:none;fill-rule:evenodd;stroke:#01ff3a;stroke-width:17.22810377;stroke-linecap:round;stroke-linejoin:miter;stroke-miterlimit:4;stroke-dasharray:none;stroke-opacity:1" />
      <path
         sodipodi:nodetypes="csssssssssssc"
         inkscape:connector-curvature="0"
         inkscape:original-d="m 178.32358,1011.7509 c 0.90274,0.015 0.71054,-1.2948 0.14295,-2.6679 -0.56756,-1.373 -0.27347,-11.82407 -0.87207,-12.06178 -1.19716,-0.47539 -2.56425,-0.27797 -3.42712,-0.6505 -1.72575,-0.74505 -3.48401,0.72505 -4.15,-0.90682 -0.74735,-1.83125 12.34586,-9.38288 13.31173,-11.45196 0.96587,-2.06907 2.36651,-7.88343 0.38305,-10.28272 -1.98344,-2.39927 -5.01235,-7.41349 -11.48154,-5.20608 -6.46921,2.2074 -45.2751,8.63561 -45.98839,7.59648 -0.71328,-1.03913 -7.94213,1.64368 -9.9102,-4.34304 -1.96804,-5.98673 -2.47659,-17.56837 -0.3162,-19.23424 2.16039,-1.66589 30.42561,-18.83725 31.87441,-21.94087 1.44882,-3.10361 -3.83152,-11.39603 -3.83152,-11.39603"
         inkscape:path-effect="#path-effect4161-4-3"
         id="path4159-6-6"
         d="m 178.32358,1011.7509 c -0.0442,-0.8911 0.004,-1.7867 0.14295,-2.6679 0.33907,-2.1478 1.21413,-4.1934 1.43784,-6.3563 0.11185,-1.0814 0.0547,-2.1952 -0.30846,-3.21998 -0.36313,-1.02477 -1.05193,-1.95594 -2.00145,-2.4855 -1.02659,-0.57255 -2.25174,-0.63722 -3.42712,-0.6505 -0.72178,-0.008 -1.44724,-0.002 -2.16042,-0.11364 -0.71318,-0.11138 -1.42164,-0.34768 -1.98958,-0.79318 -0.69878,-0.54813 -1.14113,-1.3931 -1.25802,-2.27348 -0.11689,-0.88038 0.0795,-1.78932 0.49148,-2.57612 0.41193,-0.7868 1.03209,-1.4546 1.74787,-1.98033 0.71578,-0.52574 1.52597,-0.91348 2.36388,-1.20785 1.67581,-0.58874 3.4548,-0.8083 5.18644,-1.20374 1.73164,-0.39543 3.4786,-1.00168 4.78008,-2.21044 1.37568,-1.27768 2.12952,-3.16176 2.1527,-5.03911 0.0232,-1.87735 -0.65412,-3.73346 -1.76965,-5.24361 -1.28912,-1.74515 -3.13593,-3.03275 -5.14301,-3.85678 -2.00708,-0.82402 -4.17376,-1.20392 -6.33853,-1.3493 -7.80772,-0.52433 -15.47029,1.92106 -22.95444,4.20645 -7.48415,2.28539 -15.2824,4.46193 -23.03395,3.39003 -3.63356,-0.50245 -7.27681,-1.78953 -9.9102,-4.34304 -2.53514,-2.45824 -3.95296,-5.99201 -3.96295,-9.52326 -0.01,-3.53126 1.35466,-7.02468 3.64675,-9.71098 2.16667,-2.53932 5.08305,-4.33929 8.12663,-5.71013 3.04359,-1.37084 6.24625,-2.34884 9.37454,-3.51349 3.12829,-1.16465 6.22267,-2.53927 8.8514,-4.59654 2.62874,-2.05727 4.77819,-4.86655 5.52184,-8.12071 0.46965,-2.05515 0.3607,-4.2393 -0.31113,-6.23752 -0.67183,-1.99821 -1.90454,-3.80453 -3.52039,-5.15851"
         style="fill:none;fill-rule:evenodd;stroke:#01ff3a;stroke-width:17.22810377;stroke-linecap:round;stroke-linejoin:miter;stroke-miterlimit:4;stroke-dasharray:none;stroke-opacity:1" />
    </g>
    <path
       inkscape:connector-curvature="0"
       d="m 35.251224,1016.1852 c -2.205627,-0.026 -4.406726,0.511 -5.349391,1.3247 -1.58526,3.32 -1.276441,6.421 -0.599677,9.7243 a 0.52880736,0.52880736 0 0 1 0.01517,0.134 c -0.120408,2.4252 -0.281526,2.4144 -0.07161,4.6473 a 0.52880736,0.52880736 0 0 1 -1.97e-4,0.017 0.52880736,0.52880736 0 0 1 0.03223,0.1007 c 0.172605,2.691 2.619186,4.8797 5.693711,4.916 3.074529,0.036 5.555466,-2.0923 5.791582,-4.7804 a 0.52880736,0.52880736 0 0 1 0.01712,-0.033 c 0.296433,-2.3223 0.06773,-2.3157 0.05447,-4.6142 a 0.52880736,0.52880736 0 0 1 0.01764,-0.1341 c 0.775558,-3.3321 1.220698,-6.4585 -0.301579,-9.8516 -0.923773,-0.8374 -3.093942,-1.4244 -5.299629,-1.4505 z"
       style="opacity:0.2;fill:none;stroke:#00ff00;stroke-width:1.94189584;stroke-miterlimit:4;stroke-dasharray:none;stroke-opacity:1"
       id="path4184-1" />
    <path
       id="path4561"
       style="opacity:0.2;fill:#00ff00;fill-opacity:1;fill-rule:evenodd;stroke:#00ff00;stroke-width:0.49700001;stroke-linecap:butt;stroke-linejoin:round;stroke-miterlimit:4;stroke-dasharray:none;stroke-opacity:1"
       d="m 35.225698,1017.1473 -0.0892,7.5596 m 0.04533,-6.1987 c 0.515295,0.01 0.925239,0.4258 0.919155,0.9412 l -0.02745,2.3253 c -0.0061,0.5153 -0.42582,0.9252 -0.941114,0.9192 -0.515295,-0.01 -0.925237,-0.4259 -0.919155,-0.9412 l 0.02745,-2.3253 c 0.0061,-0.5154 0.425818,-0.9252 0.941114,-0.9192 z"
       inkscape:connector-curvature="0"
       sodipodi:nodetypes="cccsccccc" />
  </g>
</svg>
