<svg height="24" viewBox="0 0 24 23.999999" width="24" xmlns="http://www.w3.org/2000/svg"><g transform="translate(-23.157124 -1014.6168)"><g fill="none" stroke="#00ff00" stroke-linecap="round" stroke-width="17.228104" transform="matrix(.04353352 0 0 .04353352 29.377217 989.7375)"><path d="m62.555037 904.62769c.680048.36809 1.317726.81439 1.896439 1.32727 1.40306 1.24346 2.448399 2.86434 3.927946 4.01573.739774.57569 1.594559 1.02914 2.519211 1.18312.924652.15397 1.923932-.0149 2.675316-.5754.446977-.3334.790926-.78948 1.058245-1.27885.267318-.48938.462488-1.01422.655273-1.53746.234684-.63696.468814-1.27808.803962-1.86839.335148-.5903.779647-1.13303 1.357951-1.48849.783551-.48162 1.776053-.58015 2.660774-.3288s1.658851.83504 2.204122 1.57571.868925 1.63138 1.000709 2.54163c.131783.91024.07697 1.84074-.08632 2.74586-.326578 1.81025-1.076664 3.51166-1.650654 5.25928s-.975224 3.62445-.577321 5.42036c.352737 1.59206 1.345667 3.02994 2.701068 3.93656 1.355402.90662 3.057208 1.27548 4.668777 1.02665 1.95407-.30171 3.699253-1.47208 4.998873-2.96219 1.29962-1.4901 2.195717-3.28739 2.951846-5.11432 2.973126-7.18357 3.954502-15.00479 5.069902-22.69889 1.11539-7.6941 2.43914-15.51176 6.00302-22.42132.76269-1.47868 1.63052-2.91537 2.73556-4.15918 1.10505-1.24381 2.46016-2.29297 4.01711-2.87957 1.42413-.53656 2.98946-.67177 4.49425-.44454s2.94819.81152 4.22042 1.64666c2.54447 1.67028 4.35651 4.30237 5.44414 7.14512 1.18255 3.09083 1.56391 6.43785 1.57054 9.74717.007 3.30933-.35048 6.6069-.59709 9.90703s-.38203 6.63.0655 9.90893c.44751 3.27894 1.50596 6.52636 3.46284 9.19512.88988 1.21361 1.95762 2.29657 3.15851 3.20354l2.86408 2.99988"/><path d="m202.26893 843.68103c-.74962.48378-1.54924.89003-2.382 1.21018-2.02959.78026-4.23865 1.04522-6.2236 1.93292-.99248.44385-1.92847 1.05029-2.63439 1.87715-.70591.82686-1.16793 1.88897-1.15178 2.97605.0175 1.17532.57402 2.26867 1.15021 3.29322.35383.62916.72167 1.25448.9818 1.9278s.40971 1.40502.30787 2.11962c-.1253.87922-.6359 1.6848-1.33989 2.22622-.70398.54142-1.58937.82577-2.47672.86242-.88735.0367-1.77576-.16651-2.58895-.52353s-1.55409-.86479-2.22797-1.44326c-1.34776-1.15692-2.42741-2.58779-3.63569-3.88972-1.20828-1.30192-2.60678-2.51172-4.30434-3.03445-1.79435-.55253-3.80293-.26334-5.44035.65526-1.63742.91861-2.90621 2.43321-3.65627 4.15437-.86678 1.98899-1.05848 4.23218-.76856 6.38237s1.04425 4.21654 2.00074 6.16398c3.44978 7.02385 9.39884 12.43713 15.12011 17.7759 5.72128 5.33877 11.50533 11.00398 14.45282 18.25297 1.38164 3.39798 2.08863 7.19667 1.19392 10.75401-.86133 3.42461-3.21275 6.41936-6.26592 8.19364-3.05316 1.77428-6.76087 2.33916-10.23332 1.69731-3.28245-.60673-6.29946-2.2324-9.00844-4.18281-2.70897-1.9504-5.15728-4.23498-7.73004-6.36184-2.57276-2.12685-5.31041-4.11935-8.40642-5.36727-3.09602-1.24791-6.60365-1.70475-9.79366-.72169-2.01464.62085-3.85169 1.80727-5.24628 3.3882-1.39459 1.58094-2.34256 3.55165-2.70721 5.62801"/><path d="m178.32358 1011.7509c-.0442-.8911.004-1.7867.14295-2.6679.33907-2.1478 1.21413-4.1934 1.43784-6.3563.11185-1.0814.0547-2.1952-.30846-3.21998-.36313-1.02477-1.05193-1.95594-2.00145-2.4855-1.02659-.57255-2.25174-.63722-3.42712-.6505-.72178-.008-1.44724-.002-2.16042-.11364-.71318-.11138-1.42164-.34768-1.98958-.79318-.69878-.54813-1.14113-1.3931-1.25802-2.27348s.0795-1.78932.49148-2.57612c.41193-.7868 1.03209-1.4546 1.74787-1.98033.71578-.52574 1.52597-.91348 2.36388-1.20785 1.67581-.58874 3.4548-.8083 5.18644-1.20374 1.73164-.39543 3.4786-1.00168 4.78008-2.21044 1.37568-1.27768 2.12952-3.16176 2.1527-5.03911.0232-1.87735-.65412-3.73346-1.76965-5.24361-1.28912-1.74515-3.13593-3.03275-5.14301-3.85678-2.00708-.82402-4.17376-1.20392-6.33853-1.3493-7.80772-.52433-15.47029 1.92106-22.95444 4.20645s-15.2824 4.46193-23.03395 3.39003c-3.63356-.50245-7.27681-1.78953-9.9102-4.34304-2.53514-2.45824-3.95296-5.99201-3.96295-9.52326-.01-3.53126 1.35466-7.02468 3.64675-9.71098 2.16667-2.53932 5.08305-4.33929 8.12663-5.71013 3.04359-1.37084 6.24625-2.34884 9.37454-3.51349s6.22267-2.53927 8.8514-4.59654c2.62874-2.05727 4.77819-4.86655 5.52184-8.12071.46965-2.05515.3607-4.2393-.31113-6.23752-.67183-1.99821-1.90454-3.80453-3.52039-5.15851"/></g><g stroke="#00ff00"><path d="m35.251224 1016.1852c-2.205627-.026-4.406726.511-5.349391 1.3247-1.58526 3.32-1.276441 6.421-.599677 9.7243a.52880736.52880736 0 0 1 .01517.134c-.120408 2.4252-.281526 2.4144-.07161 4.6473a.52880736.52880736 0 0 1 -.000197.017.52880736.52880736 0 0 1 .03223.1007c.172605 2.691 2.619186 4.8797 5.693711 4.916 3.074529.036 5.555466-2.0923 5.791582-4.7804a.52880736.52880736 0 0 1 .01712-.033c.296433-2.3223.06773-2.3157.05447-4.6142a.52880736.52880736 0 0 1 .01764-.1341c.775558-3.3321 1.220698-6.4585-.301579-9.8516-.923773-.8374-3.093942-1.4244-5.299629-1.4505z" fill="none" opacity=".2" stroke-width="1.941896"/><path d="m35.225698 1017.1473-.0892 7.5596m.04533-6.1987c.515295.01.925239.4258.919155.9412l-.02745 2.3253c-.0061.5153-.42582.9252-.941114.9192-.515295-.01-.925237-.4259-.919155-.9412l.02745-2.3253c.0061-.5154.425818-.9252.941114-.9192z" fill="#00ff00" fill-rule="evenodd" opacity=".2" stroke-linejoin="round" stroke-width=".497"/></g></g></svg>
