<svg height="24" viewBox="0 0 24 24" width="24" xmlns="http://www.w3.org/2000/svg" xmlns:xlink="http://www.w3.org/1999/xlink"><linearGradient id="a" gradientUnits="userSpaceOnUse" x1="47.921783" x2="221.89511" y1="923.4082" y2="923.4082"><stop offset="0" stop-color="#ff0000"/><stop offset=".25" stop-color="#ffff00"/><stop offset=".5" stop-color="#00ffff"/><stop offset=".75" stop-color="#0000ff"/><stop offset="1" stop-color="#ff00ff"/></linearGradient><g fill="none" stroke="url(#a)" transform="matrix(.23193517448 -.0904704923 .0904704923 .23193517448 -115.18662131835 -219.2125558304)"><g stroke="#00ff00" stroke-width="4.016782" transform="matrix(.60151824614 .24285157926 -.24285157926 .60151824614 314.02732711879 381.94785283973)"><path d="m154.4323 1049.8727 5.73786-.068 4.84177 4.7288.0708 5.9956-4.35781 4.4619-5.88915.069-4.73689-4.6263-.0706-5.9816z"/><path d="m141.96616 1065.1425 5.73786-.068 4.84177 4.7288.0708 5.9956-4.35781 4.4619-5.88915.069-4.73689-4.6263-.0706-5.9816z"/><path d="m122.43788 1065.1511 5.73786-.068 4.84177 4.7288.0708 5.9956-4.35781 4.4619-5.88915.069-4.73689-4.6263-.0706-5.9816z"/><path d="m109.48287 1049.892 5.73786-.068 4.84177 4.7288.0708 5.9956-4.35781 4.4619-5.88915.069-4.73689-4.6263-.0706-5.9816z"/><path d="m141.33237 1034.8392 5.73786-.068 4.84177 4.7288.0708 5.9956-4.3578 4.4619-5.88916.069-4.73689-4.6263-.0706-5.9816z"/><path d="m121.80409 1034.8478 5.73786-.068 4.84177 4.7288.0708 5.9956-4.35781 4.4619-5.88915.069-4.73689-4.6263-.0706-5.9816z"/></g><path d="m99.553421 1035.3111c-3.3169 8.2159-4.5203 17.2366-2.8513 21.952 10.109999 10.7785 22.165299 14.1494 35.514599 16.4386a2.124104 2.124104 0 0 1 .5236.1389c8.8998 3.9906 8.6242 4.5778 17.2865 7.0516a2.124104 2.124104 0 0 1 .063.026 2.124104 2.124104 0 0 1 .4239.026c10.3221 3.2821 22.0839-2.6785 26.7076-14.1309 4.6226-11.4529.2796-23.8436-9.4351-28.6511a2.124104 2.124104 0 0 1 -.099-.1122c-8.2577-4.4992-8.5669-3.6337-17.1876-6.9392a2.124104 2.124104 0 0 1 -.4761-.2617c-11.3372-7.7662-22.3869-13.9956-37.3065-13.2518-4.4821 2.2345-9.8466 9.4988-13.163899 17.7148z" opacity=".2" stroke="#00ff00" stroke-width="7.800173"/></g></svg>
