<svg height="24" viewBox="0 0 24 24" width="24" xmlns="http://www.w3.org/2000/svg"><linearGradient gradientUnits="userSpaceOnUse" x1="47.921783" x2="221.89511" y1="923.4082" y2="923.4082"><stop offset="0" stop-color="#ff0000"/><stop offset=".25" stop-color="#ffff00"/><stop offset=".5" stop-color="#00ffff"/><stop offset=".75" stop-color="#0000ff"/><stop offset="1" stop-color="#ff00ff"/></linearGradient><g stroke="#00ff00" transform="matrix(.24893814657 .00293848724 -.00293848724 .24893814657 -18.03466799722 -252.45941307684)"><path d="m135.06144 1018.3953c-8.86014 0-17.6754 2.2612-21.42304 5.5741-6.20979 13.4102-4.8224 25.8506-1.94756 39.0863a2.124104 2.124104 0 0 1 .0673.5373c-.36864 9.7465-1.01628 9.711-.0673 18.6695a2.124104 2.124104 0 0 1 0 .067 2.124104 2.124104 0 0 1 .13424.4029c.82085 10.8001 10.75132 19.4754 23.10188 19.4754 12.35057 0 22.21434-8.6672 23.03525-19.4754a2.124104 2.124104 0 0 1 .0672-.1345c1.08052-9.3416.16224-9.3043 0-18.5353a2.124104 2.124104 0 0 1 .0645-.5394c2.95705-13.4205 4.59673-25.9986-1.67837-39.5547-3.75004-3.3199-12.49436-5.5747-21.35474-5.5747z" fill="none" opacity=".2" stroke-width="7.800173"/><g stroke-linecap="round" stroke-linejoin="round"><rect fill="#00ff00" height="16.813831" rx="3.736407" stroke-width="1.868204" width="7.472814" x="131.74542" y="1027.5605"/><path d="m135.59367 1022.1053v30.354" fill="none" stroke-width="1.996972"/></g></g></svg>