<svg height="22" width="23" xmlns="http://www.w3.org/2000/svg"><g transform="translate(23)"><path d="m-21 5.2330507c-1.108 0-2 .892-2 2v8.0000013c0 1.108.892 2 2 2h19c1.108 0 2-.892 2-2v-8.0000013c0-1.108-.892-2-2-2zm1.5 1.7033747h1c.276994 0 .5.223.5.5v1.2966253c0 .277-.223006.5-.5.5h-1c-.276995 0-.5-.223-.5-.5v-1.2966253c0-.277.223005-.5.5-.5zm3 0h1c.276994 0 .5.223.5.5v1.2966253c0 .277-.223006.5-.5.5h-1c-.276995 0-.5-.223-.5-.5v-1.2966253c0-.277.223005-.5.5-.5zm3 0h1c.276994 0 .5.223.5.5v1.2966253c0 .277-.223006.5-.5.5h-1c-.276995 0-.5-.223-.5-.5v-1.2966253c0-.277.223005-.5.5-.5zm3 0h1c.2769944 0 .5.223.5.5v1.2966253c0 .277-.2230056.5-.5.5h-1c-.276994 0-.5-.223-.5-.5v-1.2966253c0-.277.223006-.5.5-.5zm3 0h1c.2769944 0 .5.223.5.5v1.2966253c0 .277-.2230056.5-.5.5h-1c-.2769945 0-.5-.223-.5-.5v-1.2966253c0-.277.2230055-.5.5-.5zm3 0h1c.2769945 0 .5.223.5.5v1.2966253c0 .277-.2230055.5-.5.5h-1c-.2769944 0-.5-.223-.5-.5v-1.2966253c0-.277.2230056-.5.5-.5zm-15 3.0402707h2c.276994 0 .5.2229999.5.4999999v1.256356c0 .277-.223006.5-.5.5h-2c-.276994 0-.5-.223-.5-.5v-1.256356c0-.277.223006-.4999999.5-.4999999zm4 0h1c.276994 0 .5.2229999.5.4999999v1.256356c0 .277-.223006.5-.5.5h-1c-.276995 0-.5-.223-.5-.5v-1.256356c0-.277.223005-.4999999.5-.4999999zm3 0h1c.276994 0 .5.2229999.5.4999999v1.256356c0 .277-.223006.5-.5.5h-1c-.276995 0-.5-.223-.5-.5v-1.256356c0-.277.223005-.4999999.5-.4999999zm3 0h1c.2769944 0 .5.2229999.5.4999999v1.256356c0 .277-.2230056.5-.5.5h-1c-.2769945 0-.5-.223-.5-.5v-1.256356c0-.277.2230055-.4999999.5-.4999999zm3 0h3c.2769945 0 .5.2229999.5.4999999v1.256356c0 .277-.2230055.5-.5.5h-3c-.2769945 0-.5-.223-.5-.5v-1.256356c0-.277.2230055-.4999999.5-.4999999zm-13 2.9999999h1c.276994 0 .5.223.5.5v1.256356c0 .277-.223006.5-.5.5h-1c-.276995 0-.5-.223-.5-.5v-1.256356c0-.277.223005-.5.5-.5zm3 0h10c.2769945 0 .5.223.5.5v1.256356c0 .277-.2230055.5-.5.5h-10c-.276995 0-.5-.223-.5-.5v-1.256356c0-.277.223005-.5.5-.5zm12 0h1c.2769945 0 .5.223.5.5v1.256356c0 .277-.2230055.5-.5.5h-1c-.2769944 0-.5-.223-.5-.5v-1.256356c0-.277.2230056-.5.5-.5z" fill="none" opacity=".3" stroke="#3c3c3c" stroke-linecap="round" stroke-width=".5"/><path d="m-21 6c-1.108 0-2 .892-2 2v8c0 1.108.892 2 2 2h19c1.108 0 2-.892 2-2v-8c0-1.108-.892-2-2-2zm1.5 0h1c.276994 0 .5.223.5.5v1c0 .277-.223006.5-.5.5h-1c-.276995 0-.5-.223-.5-.5v-1c0-.277.223005-.5.5-.5zm3 0h1c.276994 0 .5.223.5.5v1c0 .277-.223006.5-.5.5h-1c-.276995 0-.5-.223-.5-.5v-1c0-.277.223005-.5.5-.5zm3 0h1c.276994 0 .5.223.5.5v1c0 .277-.223006.5-.5.5h-1c-.276995 0-.5-.223-.5-.5v-1c0-.277.223005-.5.5-.5zm3 0h1c.2769944 0 .5.223.5.5v1c0 .277-.2230056.5-.5.5h-1c-.276994 0-.5-.223-.5-.5v-1c0-.277.223006-.5.5-.5zm3 0h1c.2769944 0 .5.223.5.5v1c0 .277-.2230056.5-.5.5h-1c-.2769945 0-.5-.223-.5-.5v-1c0-.277.2230055-.5.5-.5zm3 0h1c.2769945 0 .5.223.5.5v1c0 .277-.2230055.5-.5.5h-1c-.2769944 0-.5-.223-.5-.5v-1c0-.277.2230056-.5.5-.5zm-15 3h2c.276994 0 .5.223.5.5v1c0 .277-.223006.5-.5.5h-2c-.276994 0-.5-.223-.5-.5v-1c0-.277.223006-.5.5-.5zm4 0h1c.276994 0 .5.223.5.5v1c0 .277-.223006.5-.5.5h-1c-.276995 0-.5-.223-.5-.5v-1c0-.277.223005-.5.5-.5zm3 0h1c.276994 0 .5.223.5.5v1c0 .277-.223006.5-.5.5h-1c-.276995 0-.5-.223-.5-.5v-1c0-.277.223005-.5.5-.5zm3 0h1c.2769944 0 .5.223.5.5v1c0 .277-.2230056.5-.5.5h-1c-.2769945 0-.5-.223-.5-.5v-1c0-.277.2230055-.5.5-.5zm3 0h3c.2769945 0 .5.223.5.5v1c0 .277-.2230055.5-.5.5h-3c-.2769945 0-.5-.223-.5-.5v-1c0-.277.2230055-.5.5-.5zm-13 3h1c.276994 0 .5.223.5.5v1c0 .277-.223006.5-.5.5h-1c-.276995 0-.5-.223-.5-.5v-1c0-.277.223005-.5.5-.5zm3 0h10c.2769945 0 .5.223.5.5v1c0 .277-.2230055.5-.5.5h-10c-.276995 0-.5-.223-.5-.5v-1c0-.277.223005-.5.5-.5zm12 0h1c.2769945 0 .5.223.5.5v1c0 .277-.2230055.5-.5.5h-1c-.2769944 0-.5-.223-.5-.5v-1c0-.277.2230056-.5.5-.5z" fill="#ffffff" opacity=".3"/><path d="m-21 5c-1.108 0-2 .892-2 2v8c0 1.108.892 2 2 2h19c1.108 0 2-.892 2-2v-8c0-1.108-.892-2-2-2zm1.5 2h1c.276994 0 .5.223.5.5v1c0 .277-.223006.5-.5.5h-1c-.276995 0-.5-.223-.5-.5v-1c0-.277.223005-.5.5-.5zm3 0h1c.276994 0 .5.223.5.5v1c0 .277-.223006.5-.5.5h-1c-.276995 0-.5-.223-.5-.5v-1c0-.277.223005-.5.5-.5zm3 0h1c.276994 0 .5.223.5.5v1c0 .277-.223006.5-.5.5h-1c-.276995 0-.5-.223-.5-.5v-1c0-.277.223005-.5.5-.5zm3 0h1c.2769944 0 .5.223.5.5v1c0 .277-.2230056.5-.5.5h-1c-.276994 0-.5-.223-.5-.5v-1c0-.277.223006-.5.5-.5zm3 0h1c.2769944 0 .5.223.5.5v1c0 .277-.2230056.5-.5.5h-1c-.2769945 0-.5-.223-.5-.5v-1c0-.277.2230055-.5.5-.5zm3 0h1c.2769945 0 .5.223.5.5v1c0 .277-.2230055.5-.5.5h-1c-.2769944 0-.5-.223-.5-.5v-1c0-.277.2230056-.5.5-.5zm-15 3h2c.276994 0 .5.223.5.5v1c0 .277-.223006.5-.5.5h-2c-.276994 0-.5-.223-.5-.5v-1c0-.277.223006-.5.5-.5zm4 0h1c.276994 0 .5.223.5.5v1c0 .277-.223006.5-.5.5h-1c-.276995 0-.5-.223-.5-.5v-1c0-.277.223005-.5.5-.5zm3 0h1c.276994 0 .5.223.5.5v1c0 .277-.223006.5-.5.5h-1c-.276995 0-.5-.223-.5-.5v-1c0-.277.223005-.5.5-.5zm3 0h1c.2769944 0 .5.223.5.5v1c0 .277-.2230056.5-.5.5h-1c-.2769945 0-.5-.223-.5-.5v-1c0-.277.2230055-.5.5-.5zm3 0h3c.2769945 0 .5.223.5.5v1c0 .277-.2230055.5-.5.5h-3c-.2769945 0-.5-.223-.5-.5v-1c0-.277.2230055-.5.5-.5zm-13 3h1c.276994 0 .5.223.5.5v1c0 .277-.223006.5-.5.5h-1c-.276995 0-.5-.223-.5-.5v-1c0-.277.223005-.5.5-.5zm3 0h10c.2769945 0 .5.223.5.5v1c0 .277-.2230055.5-.5.5h-10c-.276995 0-.5-.223-.5-.5v-1c0-.277.223005-.5.5-.5zm12 0h1c.2769945 0 .5.223.5.5v1c0 .277-.2230055.5-.5.5h-1c-.2769944 0-.5-.223-.5-.5v-1c0-.277.2230056-.5.5-.5z" fill="#3c3c3c"/></g></svg>