<svg viewBox="0 0 22 22" xmlns="http://www.w3.org/2000/svg"><path d="m13 1033.3622v1 1c0 .554-.446 1-1 1-1.108 0-2 .892-2 2h-8v11h18v-11h-9c0-.554.446-1 1-1 1.108 0 2-.892 2-2v-1-1zm-10 6h7 1 8v1h-16zm0 2h16v7h-4-8-4z" fill="#4d4d4d" transform="translate(0 -1030.3622)"/><path d="m4.0034201 12.502415v-.512712h1.0021186 1.0021187v.512712.512711h-1.0021187-1.0021186z" fill="#e74c3c"/><path d="m6.9864709 12.502415v-.512712h1.0021187 1.0021186v.512712.512711h-1.0021186-1.0021187z" fill="#f39c1f"/><path d="m4.0034201 14.506652v-.512712h1.0021186 1.0021187v.512712.512712h-1.0021187-1.0021186z" fill="#f39c1f"/><g fill="#c9ce3b"><path d="m10.000595 12.984053c-.01709-.01709-.031073-.247811-.031073-.512712v-.481638h1.025423 1.025424v.512712.512711h-.99435c-.546893 0-1.008333-.01398-1.025424-.03107z"/><path d="m6.9864709 14.506652v-.512712h1.0021187 1.0021186v.512712.512712h-1.0021186-1.0021187z"/><path d="m4.0034201 16.510889v-.512712h1.0021186 1.0021187v.512712.512712h-1.0021187-1.0021186z"/></g><path d="m12.999183 12.502415v-.512712h1.002118 1.002119v.512712.512711h-1.002119-1.002118z" fill="#3daee9"/><path d="m10.000595 14.98829c-.0170902-.01709-.0310732-.24781-.0310732-.512712v-.481638h1.0254232 1.025424v.512712.512712h-.99435c-.546893 0-1.008333-.01398-1.025424-.03107z" fill="#3daee9"/><path d="m12.999183 12.502415v-.512712h1.002118 1.002119v.512712.512711h-1.002119-1.002118z" fill="#2ecc71"/><path d="m10.014978 14.899804c-.025001-.06576-.045456-.296478-.045456-.512712v-.393152h1.025423 1.025424v.512712.512712h-.979967-.979967z" fill="#2ecc71"/><path d="m15.982234 14.506652v-.51453l1.013771.01256 1.013771.01256v.489407.489407l-1.013771.01256-1.013771.01256z" fill="#9b59b6"/><path d="m15.982234 16.511798v-.513621h1.027 1.027001l-.01323.50106-.01323.501059-1.013771.01256-1.013771.01256z" fill="#e74c3c"/><path d="m16.020691 12.503538v-.461417h.988751.988751v.461417.461417h-.988751-.988751z" fill="#3daee9"/><path d="m13.054438 14.513999v-.494376h.955793.955792v.494376.494375h-.955792-.955793z" fill="#3daee9"/><path d="m6.9900983 16.491501v-.494376h3.9879627 3.987962v.494376.494375h-3.987962-3.9879627z" fill="#3daee9"/></svg>