<svg height="22" width="23" xmlns="http://www.w3.org/2000/svg"><linearGradient gradientUnits="userSpaceOnUse" x1="47.922" x2="221.9" y1="923.41" y2="923.41"><stop offset="0" stop-color="#ff0000"/><stop offset=".25" stop-color="#ffff00"/><stop offset=".5" stop-color="#00ffff"/><stop offset=".75" stop-color="#0000ff"/><stop offset="1" stop-color="#ff00ff"/></linearGradient><g opacity="0" stroke="#ff0101" transform="matrix(.55315 0 0 .55315 10.061 -543.09)"><path d="m14.69 985.78-30.313-.024.02213 11.131h30.299v-11.112" fill="none" stroke-linecap="round" stroke-linejoin="round" stroke-width="1.4222"/><g fill="#01ff1f" stroke-linejoin="round" stroke-width="1.422252"><rect fill="#ff5c00" height="1.749807576" opacity="1" rx=".334903878" ry=".328467276" stroke="#ff0101" stroke-linecap="round" width="1.749807576" x="-12.72027225522" y="988.3942715302"/><g><g stroke-linecap="round"><rect fill="#ffef00" height="1.749807576" opacity="1" rx=".334903878" ry=".328467276" width="1.749807576" x="-8.162878512" y="988.3980952"/><rect fill="#7cff83" height="1.749807576" opacity="1" rx=".334903878" ry=".328467276" width="1.749807576" x="-3.603466812" y="988.3980952"/><rect fill="#00e9ff" height="1.749807576" opacity="1" rx=".334903878" ry=".328467276" width="1.749807576" x=".958679988" y="988.3908016"/><rect fill="#0056ff" height="1.749807576" opacity="1" rx=".334903878" ry=".328467276" width="1.749807576" x="5.517179988" y="988.3980952"/></g><rect fill="#3d00ff" height="1.749807576" opacity="1" rx=".334903878" ry=".328467276" width="1.749807576" x="10.070209788" y="988.3980952"/></g><g stroke-linecap="round"><rect fill="#ff6400" height="1.749807576" opacity="1" rx=".334903878" ry=".328467276" stroke="#ff0101" width="1.749807576" x="-12.72027225522" y="992.6318531302"/><g><rect fill="#ffef00" height="1.749807576" opacity="1" rx=".334903878" ry=".328467276" width="1.749807576" x="-8.162878512" y="992.6356768"/><rect fill="#7cff83" height="1.749807576" opacity="1" rx=".334903878" ry=".328467276" width="1.749807576" x="-3.603466812" y="992.6356768"/><rect fill="#00e9ff" height="1.749807576" opacity="1" rx=".334903878" ry=".328467276" width="1.749807576" x=".958679988" y="992.6283832"/><rect fill="#0056ff" height="1.749807576" opacity="1" rx=".334903878" ry=".328467276" width="1.749807576" x="5.517179988" y="992.6356768"/><rect fill="#3c00ff" height="1.749807576" opacity="1" rx=".334903878" ry=".328467276" width="1.749807576" x="10.070209788" y="992.6356768"/></g></g></g><g fill="none"><path d="m15.403 991.38c1.3568.16445 2.6549.78014 3.6408 1.7267 1.1454 1.0998 1.8611 2.6781 1.7742 4.2636-.04344.79279-.28443 1.5766-.71201 2.2456-.42758.66896-1.0428 1.2201-1.7637 1.5528-.62609.2889-1.3207.411-2.0102.4177-.6895.01-1.3759-.099-2.0489-.2495-1.3458-.3008-2.6572-.7817-4.0293-.9198-2.3305-.2345-4.747.5907-6.4473 2.2015" stroke-linecap="round" stroke-linejoin="round" stroke-width="1.4222"/><path d="m3.4073 1003.1c-1.498-.6048-3.1428-.8242-4.0026-.5199-1.9653 1.8434-2.5799 4.0415-2.9974 6.4756a.3873.3873 0 0 1 -.025297.095c-.72764 1.6227-.83471 1.5725-1.2858 3.152a.3873.3873 0 0 1 -.00457.011.3873.3873 0 0 1 -.00481.077c-.59844 1.8821.48837 4.0267 2.5766 4.8698s4.3475.051 5.2241-1.7204a.3873.3873 0 0 1 .020544-.018c.82036-1.5056.66255-1.562 1.2652-3.1338a.3873.3873 0 0 1 .047726-.087c1.4161-2.0673 2.5519-4.082 2.4163-6.8023-.40742-.8173-1.732-1.7955-3.23-2.4003z" opacity="1" stroke-width="1.4222"/><path d="m3.2441 1003.8-2.072 5.1" stroke-linecap="round" stroke-linejoin="round" stroke-width=".36412"/></g><rect fill="#006eff" height="3.0658" rx=".68128" stroke-linecap="round" stroke-linejoin="round" stroke-width=".34064" transform="matrix(.92728189 .37436384 -.37436384 .92728189 0 0)" width="1.3626" x="378.1" y="930.58"/></g><g fill="#f2f2f2" stroke="none" stroke-width="9.0643" transform="matrix(.43373008064 0 0 .43373008064 -7.3386977412 -427.0148362571)"><path d="m20.379 987.38v17.155h38.598v-17.155l-38.598.00002zm2.1444 2.1444 34.31-.00002v12.866h-34.31z" fill-rule="evenodd"/><path d="m58.373 998.37c1.247-.0939 2.5393.23294 3.5918.9082 1.0525.67527 1.8898 1.716 2.3242 2.8887.494 1.3333.46925 2.8796-.08789 4.1718-.55568 1.2889-1.6697 2.3616-2.9746 2.8379-1.4128.5157-3.0926.3892-4.7617.039-1.6776-.3513-3.4283-.9237-5.3477-1.0684-3.2803-.2472-6.6068.8899-9.0508 3.0918l-.68555.6172 1.2344 1.3711.68555-.6172c2.0557-1.852 4.9186-2.831 7.6777-2.623 1.629.1227 3.3022.6551 5.1074 1.0332 1.8137.3804 3.8436.595 5.7734-.1094 1.813-.6617 3.2787-2.0828 4.0371-3.8418.75692-1.7556.7822-3.7658.12305-5.5449-.57702-1.5573-1.6607-2.902-3.0586-3.7988-1.3979-.89682-3.0704-1.32-4.7266-1.1953z" fill-rule="evenodd"/><path d="m36.279 1011.3c-2.2045 2.6228-3.7169 5.967-4.3045 8.9803-.84885 1.8309-1.3302 2.9128-1.6963 4.218-.93162 2.925.78 6.1575 3.9052 7.4053 3.1271 1.2486 6.6182.088 7.998-2.6596 1.0092-1.8133 1.3122-3.0808 1.7022-4.1108 1.5547-3.3521 3.3309-6.4565 3.2844-9.6169-1.3772-1.5215-3.1115-2.9005-4.7846-3.6043-2.1252-.584-4.2434-1.2207-6.1044-.612zm9.0301 4.911c-.04511 2.3598-1.4148 5.1393-3.0876 8.1003-.68639 1.3785-1.0675 2.9116-1.7006 4.1116-.9122 1.8231-3.3182 2.7057-5.6423 1.7778-2.7059-1.0099-3.3257-3.4151-2.8175-5.1938.59747-1.7813 1.1103-2.9167 1.7103-4.2669.46646-2.5614 1.5039-5.5181 3.5494-7.8101.77982-.1568 2.6782.012 4.1409.6027 1.4627.5904 2.7589 1.4683 3.8475 2.6784z"/><path d="m41.391 1014.6c-.56774-.2267-1.2186.046-1.4478.6078l-.83276 2.04c-.22922.5615.04751 1.2049.61526 1.4316.56774.2267 1.2182-.047 1.4474-.608l.83276-2.04c.22922-.5615-.04708-1.2047-.61482-1.4314z"/><path d="m17.066 18.131v3.1992h3.1992v-3.1992zm5.332 0v3.1992h3.2012v-3.1992zm5.334 0v3.1992h3.2012v-3.1992zm5.334 0v3.1992h3.1992v-3.1992zm5.332 0v3.1992h3.2012v-3.1992zm5.334 0v3.1992h3.2012v-3.1992zm-26.666 5.334v3.1992h3.1992v-3.1992zm5.332 0v3.1992h3.2012v-3.1992zm5.334 0v3.1992h3.2012v-3.1992zm5.334 0v3.1992h3.1992v-3.1992zm5.332 0v3.1992h3.2012v-3.1992zm5.334 0v3.1992h3.2012v-3.1992z" transform="matrix(1.0052 0 0 1.0052 7.513 973.44)"/></g></svg>