<svg height="24" viewBox="0 0 6.3499998 6.3500002" width="24" xmlns="http://www.w3.org/2000/svg" xmlns:xlink="http://www.w3.org/1999/xlink"><linearGradient id="a" gradientTransform="scale(1.2329 .81113)" gradientUnits="userSpaceOnUse" x2="70.244" y1="-123.29" y2="-61.643"><stop offset="0" stop-color="#ff0000"/><stop offset="1" stop-color="#ffff00"/></linearGradient><linearGradient id="b" gradientTransform="scale(.50475 1.9812)" gradientUnits="userSpaceOnUse" x1="171.57" x2="171.57" y1="-25.238" y2="25.238"><stop offset="0" stop-color="#ffff00"/><stop offset="1" stop-color="#00ff00"/></linearGradient><linearGradient id="c" gradientTransform="scale(1.2329 .81113)" gradientUnits="userSpaceOnUse" x1="70.244" x2="0" y1="61.643" y2="123.29"><stop offset="0" stop-color="#00ff00"/><stop offset="1" stop-color="#00ffff"/></linearGradient><linearGradient id="d" gradientTransform="scale(1.2329 .81113)" gradientUnits="userSpaceOnUse" x1="0" x2="-70.244" y1="123.29" y2="61.643"><stop offset="0" stop-color="#00ffff"/><stop offset="1" stop-color="#0000ff"/></linearGradient><linearGradient id="e" gradientTransform="scale(.50475 1.9812)" gradientUnits="userSpaceOnUse" x1="-171.57" x2="-171.57" y1="25.238" y2="-25.238"><stop offset="0" stop-color="#0000ff"/><stop offset="1" stop-color="#ff00ff"/></linearGradient><linearGradient id="f" gradientTransform="scale(1.2329 .81113)" gradientUnits="userSpaceOnUse" x1="-70.244" x2="0" y1="-61.643" y2="-123.29"><stop offset="0" stop-color="#ff00ff"/><stop offset="1" stop-color="#ff0000"/></linearGradient><g fill="none" stroke-width="46.391" transform="matrix(-.01140723052 .01975675714 .0197577609 .0114064777 3.1750372 3.17108626)"><path d="m0-100a100 100 0 0 1 86.6 50" stroke="url(#a)"/><path d="m86.6-50a100 100 0 0 1 0 100" stroke="url(#b)"/><path d="m86.6 50a100 100 0 0 1 -86.6 50" stroke="url(#c)"/><path d="m0 100a100 100 0 0 1 -86.6-50" stroke="url(#d)"/><path d="m-86.6 50a100 100 0 0 1 0-100" stroke="url(#e)"/><path d="m-86.6-50a100 100 0 0 1 86.6-50" stroke="url(#f)"/></g></svg>